<svg width="357" height="457" viewBox="0 0 357 457" fill="none" xmlns="http://www.w3.org/2000/svg">
<g clip-path="url(#clip0_438_29)">
<path d="M265.37 331.92L156.4 377.98C137.93 385.79 116.42 377.07 108.61 358.59L40.93 198.5C33.12 180.03 41.84 158.52 60.32 150.71L169.28 104.64C187.75 96.83 209.26 105.55 217.07 124.03L284.75 284.13C292.57 302.6 283.84 324.11 265.37 331.92Z" fill="#697477"/>
<path opacity="0.21" d="M48.5 177.79C48.5 177.79 86.58 169.44 128.41 152.89C170.24 136.34 209.36 102.25 209.36 102.25C209.36 102.25 229.76 -47.58 76.25 15.5C-77.26 78.58 48.5 177.79 48.5 177.79Z" fill="#AEC4CE"/>
<path d="M207.92 102.93C207.92 102.93 169.55 135.92 129.64 153.9C89.73 171.88 54.97 175.88 54.97 175.88C54.97 175.88 91.9 303.98 112.22 342.46C132.54 380.94 159.09 421.5 159.09 421.5C159.09 421.5 143.48 439.63 152.04 452.78C160.6 465.93 193.14 437.07 203.33 431.51C225 419.68 220 406.8 214.71 397.28C209.41 387.76 206.81 358.38 206.81 358.38C206.81 358.38 233.44 347.52 245.16 342.87C245.16 342.87 267.35 358.59 281.56 379.76C288.53 390.15 348.97 377.98 354.54 367.76C360.11 357.54 353.93 345.87 336.91 345.96C336.91 345.96 331 336.23 321.09 313.03C316.69 302.72 293.94 281.85 287.66 265.64C268.47 216.14 256.67 168.39 247.89 154.77C247.89 154.77 296.71 130.35 301.8 103.09C306.93 75.6 300.48 30.14 270.06 28.9C239.65 27.66 240.5 76.84 236.95 83.86C232.5 92.62 207.92 102.93 207.92 102.93Z" fill="#C9D5D9"/>
<path d="M301.78 103.09C307.02 75.62 300.46 30.14 270.04 28.9C247.23 27.97 242.01 55.4 239.32 72.14C238.43 77.72 247.65 95.83 257.49 101.5C272.14 109.95 300.02 112.36 301.78 103.09Z" fill="#808E93"/>
<path d="M216 400.18C223.11 415.75 220.13 423.06 190.89 440.13C180.87 445.98 157.56 465.73 151.09 451.14C144.73 436.8 158.96 421.75 158.96 421.75C158.96 421.75 178.97 416.19 184.9 413.83C194.52 410 215.2 398.44 216 400.18Z" fill="#808E93"/>
<path d="M354.53 367.76C348.96 377.98 288.52 390.14 281.55 379.76C277.08 373.1 285.53 366.47 291.9 362.82C313.65 350.33 336.9 345.96 336.9 345.96C353.91 345.86 360.09 357.54 354.53 367.76Z" fill="#808E93"/>
<path d="M245.12 117.39C234.63 103.93 234.19 87.42 234.19 87.42C235.91 85.88 237.38 82.65 237.38 82.65C237.38 82.65 240.03 102.66 250.54 112.46C270.16 130.74 287.75 126.42 287.75 126.42L278.07 135.64C272.73 141.23 255.61 130.86 245.12 117.39Z" fill="#808E93"/>
<path d="M113.78 346.35C113.78 346.35 151.13 333.45 179.16 346.26C207.19 359.07 207.19 359.07 207.19 359.07C207.19 359.07 172.3 329.26 150.93 328.82C129.56 328.38 106.93 333.61 106.93 333.61L113.78 346.35Z" fill="#B27C3B"/>
<path d="M245.45 343.55C245.45 343.55 266.35 322.82 274.72 299.46C283.08 276.1 288 265.35 288 265.35C288 265.35 292.28 268.01 291.49 273C290.7 278 285.35 297.2 273.57 315.76C261.79 334.31 246.59 346.04 246.59 346.04L245.45 343.55Z" fill="#B27C3B"/>
<path d="M64.24 176.78C64.24 176.78 66.57 214.67 81.06 260.46C95.52 306.18 118.92 289.85 106.78 258.56C96.07 230.97 100.23 220.55 88.57 196.72C78.63 176.42 64.24 176.78 64.24 176.78Z" fill="url(#paint0_linear_438_29)"/>
<path d="M57.16 178.36C57.16 178.36 3.44996 242.33 8.41996 289.69C13.39 337.05 63.38 348.96 63.38 348.96C63.38 348.96 94.49 356.92 92.74 326.66C91 296.4 73.16 281.31 75.5 251.81C77.84 222.31 92.99 206.31 76.63 190.7C60.27 175.09 57.16 178.36 57.16 178.36Z" fill="#C9D5D9"/>
<path d="M12.21 305.84C19.22 337.44 63.38 348.97 63.38 348.97C63.38 348.97 94.49 356.93 92.74 326.67C91.93 312.72 87.71 301.99 83.61 291.58C78.84 279.42 5.19999 274.2 12.21 305.84Z" fill="#808E93"/>
<path d="M46.96 251.62C64.53 254.2 75.84 265.44 75.84 265.44L76.84 271.13C76.84 271.13 61.18 258.69 46.14 258.73C18.06 258.81 8.95997 272.28 8.95997 272.28C8.95997 272.28 8.42997 269.19 10.26 261.89C12.08 254.59 29.39 249.05 46.96 251.62Z" fill="#808E93"/>
<path d="M48.06 181.11C53.1 175.82 64.29 172.95 75.33 180.96C88.84 190.75 91.55 204.35 90.4 214.61C89.24 224.88 78.87 232.42 78.87 232.42C78.87 232.42 90.61 208.7 80.54 198.07C67.87 184.68 57.66 185.02 50.39 186.95C43.1 188.88 46.72 182.51 48.06 181.11Z" fill="#B27C3B"/>
<path d="M249.55 157.77C249.55 157.77 233.39 119.26 221.67 105.22C209.95 91.18 216.27 102.92 216.27 102.92L249.55 157.77Z" fill="#B27C3B"/>
<path d="M133.14 380.16C133.14 380.16 136.1 374.94 154.95 369.75C181.23 362.51 210.16 376.94 210.16 376.94C210.16 376.94 176.47 374.05 161.36 378.26C146.31 382.46 139.45 390.91 139.45 390.91L133.14 380.16Z" fill="#808E93"/>
<path d="M259.28 354.52C259.28 354.52 286.61 328.34 300.35 316.53C314.1 304.72 321.08 313.02 321.08 313.02L322.68 319.31C322.68 319.31 315.04 315.14 305.73 321.31C296.41 327.48 259.28 354.52 259.28 354.52Z" fill="#808E93"/>
<path d="M209.02 153.87C209.02 153.87 222.52 145.52 233.58 169.79C244.64 194.06 260.38 225.31 258.26 232.84C256.14 240.38 174.62 289.32 160.86 288.02C147.1 286.72 139.81 276.67 139.81 276.67C139.81 276.67 180.76 261.2 214.82 240.59C248.88 219.98 209.02 153.87 209.02 153.87Z" fill="url(#paint1_radial_438_29)"/>
<path d="M254.07 226.62C254.07 226.62 195.04 269.27 161.82 279.05C153.23 281.58 146.37 281.92 142.69 278.75C124.81 263.32 117.44 192.72 117.44 192.72C117.44 192.72 180.57 169 202.34 155.23C206.77 152.43 211.53 153.72 216.31 157.55C235.05 172.56 254.07 226.62 254.07 226.62Z" fill="#DDE5E8"/>
<path d="M254.07 226.62C254.07 226.62 184.55 277.2 153.29 280.84C148.38 271.67 139.96 254.78 134.26 236.56C125.94 209.95 124.84 197.04 124.84 197.04L216.31 157.56C235.05 172.56 254.07 226.62 254.07 226.62Z" fill="#C9D5D9"/>
<path d="M150.31 219.58L153.23 218.25L157.03 226.57C157.38 227.34 157.51 228.11 157.43 228.88C157.35 229.65 157.06 230.35 156.57 230.97C156.08 231.59 155.44 232.09 154.65 232.45C153.33 233.05 152.15 233.19 151.11 232.86C150.07 232.53 149.28 231.74 148.72 230.52L151.65 229.18C151.9 229.73 152.18 230.1 152.49 230.26C152.8 230.42 153.17 230.4 153.62 230.19C154.03 230 154.27 229.71 154.35 229.31C154.43 228.91 154.35 228.44 154.1 227.89L150.31 219.58ZM164.37 223.93C164.18 223.5 163.87 223.23 163.46 223.14C163.05 223.05 162.4 223.04 161.53 223.12C160.65 223.21 159.92 223.25 159.33 223.23C157.4 223.18 156.14 222.48 155.52 221.12C155.21 220.45 155.14 219.77 155.3 219.07C155.46 218.38 155.83 217.73 156.41 217.11C156.99 216.5 157.74 215.99 158.63 215.58C159.5 215.18 160.36 214.98 161.19 214.98C162.02 214.98 162.77 215.18 163.41 215.57C164.06 215.97 164.55 216.54 164.88 217.28L161.96 218.61C161.73 218.12 161.41 217.8 160.98 217.67C160.55 217.54 160.09 217.59 159.57 217.83C159.05 218.07 158.69 218.37 158.49 218.74C158.29 219.11 158.27 219.47 158.44 219.82C158.58 220.13 158.88 220.34 159.33 220.44C159.78 220.54 160.48 220.53 161.44 220.42C162.4 220.31 163.22 220.28 163.91 220.35C165.57 220.51 166.7 221.25 167.3 222.57C167.78 223.63 167.77 224.64 167.24 225.62C166.72 226.59 165.75 227.39 164.36 228.03C163.38 228.48 162.41 228.71 161.45 228.72C160.49 228.73 159.67 228.52 158.99 228.09C158.3 227.66 157.79 227.05 157.42 226.24L160.35 224.9C160.65 225.55 161.03 225.95 161.51 226.11C161.99 226.27 162.6 226.17 163.35 225.82C163.84 225.6 164.17 225.32 164.36 224.98C164.53 224.66 164.54 224.31 164.37 223.93Z" fill="#0070DF"/>
<path d="M179.83 220.76L176.92 222.09L174.61 217.02L170.31 218.98L172.62 224.05L169.69 225.39L164.15 213.26L167.08 211.92L169.28 216.74L173.58 214.78L171.38 209.96L174.29 208.63L179.83 220.76ZM185.31 218.47C183.92 219.1 182.62 219.2 181.39 218.77C180.16 218.34 179.24 217.46 178.63 216.13L178.52 215.89C178.1 214.97 177.9 214.08 177.92 213.22C177.94 212.36 178.19 211.59 178.67 210.9C179.15 210.22 179.84 209.67 180.74 209.25C182 208.67 183.18 208.61 184.28 209.06C185.37 209.51 186.24 210.44 186.88 211.84L187.38 212.93L181.8 215.48C182.13 215.94 182.53 216.24 183 216.37C183.47 216.51 183.97 216.45 184.51 216.2C185.4 215.79 185.95 215.17 186.17 214.32L188.14 215.25C188.01 215.9 187.69 216.5 187.18 217.08C186.66 217.67 186.04 218.13 185.31 218.47ZM181.71 211.43C180.89 211.81 180.65 212.58 180.99 213.73L183.82 212.44L183.72 212.22C183.53 211.76 183.25 211.47 182.9 211.33C182.56 211.19 182.16 211.23 181.71 211.43ZM192.31 207.24L191.35 207.6C190.46 208 190.02 208.54 190.03 209.21L192.64 214.92L189.83 216.2L185.72 207.19L188.35 205.99L188.97 207.1C189.04 206 189.49 205.26 190.34 204.88C190.64 204.74 190.92 204.66 191.17 204.62L192.31 207.24ZM193.32 209.06C192.91 208.16 192.72 207.28 192.75 206.41C192.78 205.55 193.03 204.78 193.52 204.1C194.01 203.42 194.69 202.88 195.57 202.48C196.92 201.86 198.17 201.8 199.33 202.28C200.48 202.76 201.39 203.72 202.05 205.16L202.1 205.26C202.74 206.67 202.86 207.96 202.46 209.14C202.06 210.32 201.19 211.22 199.86 211.82C198.58 212.41 197.37 212.49 196.24 212.07C195.11 211.65 194.22 210.81 193.56 209.52L193.32 209.06ZM196.2 207.95C196.58 208.78 196.99 209.34 197.43 209.6C197.87 209.87 198.34 209.88 198.85 209.65C199.85 209.19 200.01 208.19 199.33 206.64L199.2 206.36C198.46 204.75 197.58 204.17 196.55 204.64C195.61 205.07 195.42 206 195.98 207.42L196.2 207.95ZM209.45 207.45C208.06 208.08 206.76 208.18 205.53 207.75C204.3 207.32 203.38 206.44 202.77 205.11L202.66 204.87C202.24 203.95 202.04 203.06 202.06 202.2C202.08 201.34 202.33 200.57 202.81 199.88C203.29 199.2 203.98 198.65 204.88 198.23C206.14 197.65 207.32 197.59 208.42 198.04C209.51 198.49 210.38 199.42 211.02 200.82L211.52 201.91L205.94 204.46C206.27 204.92 206.67 205.22 207.14 205.35C207.61 205.49 208.11 205.43 208.65 205.18C209.54 204.77 210.09 204.15 210.31 203.3L212.28 204.23C212.15 204.88 211.83 205.48 211.32 206.06C210.81 206.64 210.18 207.11 209.45 207.45ZM205.85 200.41C205.03 200.79 204.79 201.56 205.13 202.71L207.96 201.42L207.86 201.2C207.67 200.74 207.39 200.45 207.04 200.31C206.69 200.17 206.3 200.2 205.85 200.41ZM217.52 200.5C217.41 200.26 217.2 200.12 216.89 200.1C216.58 200.07 216.03 200.13 215.26 200.3C214.49 200.47 213.82 200.52 213.25 200.47C212.68 200.43 212.19 200.28 211.79 200.03C211.39 199.78 211.08 199.42 210.86 198.95C210.48 198.13 210.52 197.29 210.95 196.43C211.39 195.58 212.16 194.91 213.27 194.4C214.46 193.86 215.54 193.69 216.5 193.9C217.47 194.11 218.15 194.66 218.55 195.53L215.73 196.82C215.4 196.1 214.86 195.91 214.09 196.26C213.79 196.4 213.59 196.59 213.46 196.84C213.33 197.09 213.33 197.34 213.44 197.59C213.55 197.84 213.77 197.99 214.08 198.03C214.39 198.07 214.84 198.02 215.42 197.88C216 197.74 216.53 197.64 217 197.59C218.57 197.44 219.63 197.97 220.18 199.17C220.56 199.99 220.5 200.83 220 201.68C219.5 202.53 218.68 203.22 217.52 203.75C216.75 204.1 216 204.27 215.26 204.27C214.53 204.27 213.89 204.11 213.32 203.78C212.76 203.45 212.37 203.03 212.13 202.5L214.75 201.3C214.95 201.71 215.23 201.96 215.59 202.02C215.94 202.09 216.33 202.03 216.75 201.84C217.14 201.66 217.38 201.46 217.51 201.21C217.63 200.99 217.63 200.75 217.52 200.5Z" fill="#0E204D"/>
<path d="M48.63 92.84C37.03 93.67 27.33 78.52 33.45 68.62C36.91 63.03 43.47 63.07 49.31 64.35C58.83 66.43 64.12 71.8 69.96 79.88C62.05 84.77 57.7 87.45 48.63 92.84Z" fill="#77553E"/>
<path d="M48.06 86.3601C42.47 86.7601 35.64 77.7101 38.59 72.9501C40.26 70.2601 43.32 68.9101 46.13 69.5301C50.71 70.5301 55.11 73.5001 55.11 73.5001C51.31 75.8501 52.43 83.7701 48.06 86.3601Z" fill="#A68069"/>
<path d="M121.2 44.84C116.09 34.39 126.5 19.73 137.97 21.7C144.45 22.81 146.07 27.06 147.08 32.95C148.71 42.55 146.51 51.33 141.2 59.77C133.71 54.26 129.59 51.23 121.2 44.84Z" fill="#77553E"/>
<path d="M125.29 38.82C125.29 38.82 127.71 25.73 135.37 26.41C138.52 26.69 139.76 28.64 140.24 31.47C141.03 36.09 140.15 39.62 138.46 45.09C134.86 42.44 129.86 40.52 125.29 38.82Z" fill="#A68069"/>
<path d="M89.99 45.79C74.75 52.75 53.53 61.33 47.05 91.22C43.01 109.84 58.5 157.21 60.98 174.66C62.2 183.26 162.54 150.68 200.27 110.46C200.27 110.46 157.71 55.56 148.16 49C134.77 39.8 120.8 31.72 89.99 45.79Z" fill="#77553E"/>
<path d="M80.83 92.51C81.61 94.1 78.57 93.56 76.98 94.34C75.39 95.12 74.1 97.73 73.32 96.14C72.54 94.55 73.94 92.08 75.53 91.3C77.13 90.52 80.05 90.92 80.83 92.51Z" fill="#423B36"/>
<path d="M124.37 72.63C125.15 74.22 122.11 73.68 120.52 74.46C118.93 75.24 117.64 77.85 116.86 76.26C116.08 74.67 117.48 72.2 119.07 71.42C120.67 70.64 123.59 71.04 124.37 72.63Z" fill="#423B36"/>
<path opacity="0.18" d="M62.16 44C62.16 44 39.13 56.04 36.52 82.05C33.91 108.06 43.1 123.21 43.1 123.21L63.74 119.69C63.74 119.69 51.77 96.93 50.7 81.61C49.28 61.42 62.16 44 62.16 44Z" fill="white"/>
<path opacity="0.18" d="M45.94 128.83L66.47 126.24L70.86 135.65L52.2 139.52L45.94 128.83Z" fill="white"/>
<path d="M46.67 173.04C46.67 173.04 42.06 174.63 44.11 179.43C46.16 184.23 46.16 184.23 46.16 184.23C46.16 184.23 108.03 169.63 136.39 156.28C164.75 142.93 205.66 119.24 213.05 107.07C220.44 94.9 208.9 95.3 208.9 95.3C208.9 95.3 195.32 117.33 135.27 144.84C103.06 159.6 46.67 173.04 46.67 173.04Z" fill="#B27C3B"/>
<path d="M112.56 123.32C112.56 123.32 122.23 122.48 135.42 116.86C148.61 111.24 148.17 97.33 149.62 96.47C151.08 95.61 154.11 87.54 149.61 81.06C145.12 74.58 106.56 81.94 106.56 81.94L112.56 123.32Z" fill="url(#paint2_linear_438_29)"/>
<path d="M96.37 86.22C103.81 81.43 113.85 78.96 123.32 88.04C129.8 94.25 130.52 103.96 124.83 111.01C121.68 114.91 122.64 120.04 115.76 122.44C107.45 125.34 104.24 122.1 99.99 121.13C92.95 119.52 89.44 113.96 88.01 110.08C83.22 97.08 92.19 88.91 96.37 86.22Z" fill="#A68069"/>
<path d="M97.5 104.09C98.17 101.42 100.72 99.86 103.1 98.7C105.59 97.49 108.18 95.89 110.79 94.98C114.26 93.77 116.33 95.07 117.59 98.51C118.61 101.29 119.23 105.06 116.81 107C113.85 109.37 108.01 111.83 104.42 112.33C99.99 112.96 96.14 109.53 97.5 104.09Z" fill="#423B36"/>
<path d="M104.29 118.39C104.29 118.39 109.3 122.87 114.46 121.06C119.62 119.25 122.55 109.28 122.55 109.28C122.55 109.28 117.58 114.17 112.36 116.1C108.71 117.45 104.29 118.39 104.29 118.39Z" fill="url(#paint3_linear_438_29)"/>
</g>
<defs>
<linearGradient id="paint0_linear_438_29" x1="44.5231" y1="231.845" x2="99.592" y2="233.142" gradientUnits="userSpaceOnUse">
<stop stop-color="#31577D"/>
<stop offset="0.6399" stop-color="#1D3447" stop-opacity="0.3601"/>
<stop offset="1" stop-color="#14242E" stop-opacity="0"/>
</linearGradient>
<radialGradient id="paint1_radial_438_29" cx="0" cy="0" r="1" gradientUnits="userSpaceOnUse" gradientTransform="translate(186.11 221.618) rotate(-24.5378) scale(75.5088 75.5088)">
<stop stop-color="#31577D"/>
<stop offset="0.6399" stop-color="#1D3447" stop-opacity="0.3601"/>
<stop offset="1" stop-color="#14242E" stop-opacity="0"/>
</radialGradient>
<linearGradient id="paint2_linear_438_29" x1="76.6281" y1="106.537" x2="143.526" y2="98.2995" gradientUnits="userSpaceOnUse">
<stop stop-color="#2A1C00"/>
<stop offset="0.4169" stop-color="#202015" stop-opacity="0.5831"/>
<stop offset="1" stop-color="#14242E" stop-opacity="0"/>
</linearGradient>
<linearGradient id="paint3_linear_438_29" x1="116.194" y1="115.596" x2="106.739" y2="110.02" gradientUnits="userSpaceOnUse">
<stop stop-color="#844949"/>
<stop offset="1"/>
</linearGradient>
<clipPath id="clip0_438_29">
<rect width="356.52" height="456.4" fill="white"/>
</clipPath>
</defs>
</svg>
