<svg width="1140" height="314" viewBox="4 1 1144 314" fill="none" xmlns="http://www.w3.org/2000/svg">
<g clip-path="url(#clip0_475_2)" filter="url(#filter0_d_475_2)">
<rect width="1140" height="315" transform="translate(4)" fill="white"/>
<rect width="1140" height="315" transform="translate(4)" fill="#0E204D"/>
<path opacity="0.47" d="M157.04 59.2593C161.853 54.9232 166.782 49.9006 173.419 49.1057C179.241 48.383 184.83 51.1292 190.225 53.3333C217.511 64.4625 250.657 62.0777 275.808 47.2629C294.128 36.4589 307.829 19.2593 314.272 0H4V62.4752C22.2422 77.3984 45.6853 86.8654 69.9047 88.5998C101.654 90.8401 134.218 79.8916 157.04 59.2593Z" fill="#081330"/>
<path opacity="0.47" d="M104.088 314.741C95.6572 311.762 86.8153 309.348 79.2586 304.674C64.8135 295.789 56.023 278.583 57.2054 261.737C58.7476 240.576 74.4778 222.24 75.3003 201.028C76.5341 170.622 44.251 146.482 13.87 148.074C10.5286 148.229 7.23859 148.691 4 149.307V314.947L104.088 314.741Z" fill="#081330"/>
<path opacity="0.47" d="M640.667 116.811C639.155 104.363 633.738 92.6665 620.856 90.8815C614.903 89.5193 605.388 91.5862 600.898 93.7939C594.799 96.7533 590.554 102.343 585.967 107.228C581.38 112.114 575.476 116.764 568.644 116.764C561.959 116.764 556.25 112.489 550.102 109.953C536.243 104.316 517.506 110 512.284 123.575C507.307 136.587 515.603 151.102 526.484 160.121C540.928 172.052 560.446 178.065 579.379 176.468C598.312 174.871 616.416 165.617 628.419 151.431C636.715 141.754 642.18 129.259 640.667 116.811Z" fill="#081330"/>
<path opacity="0.47" d="M1067.24 315.223H1009.29H823.719C830.615 295.363 849.974 280.484 870.888 276.149C894.425 271.265 919.159 277.896 940.299 289.379C961.796 250.887 1012.14 231.22 1054.06 244.935C1059.53 221.323 1074.82 200.136 1095.5 187.456C1110.01 178.561 1127 173.968 1144 174V315.256L1067.24 315.223Z" fill="#081330"/>
<path opacity="0.47" d="M985.145 47.0139C1003.01 60.1069 1026.32 65.5515 1048.16 61.7057C1051.1 87.33 1072.9 109.584 1098.46 113.041C1114.68 115.244 1131.41 109.757 1144 99.3859V0H953.833C958.417 18.6673 969.619 35.6493 985.145 47.0139Z" fill="#081330"/>
<path d="M895.922 209.476L895.871 211.483C895.871 211.642 895.922 211.748 896.026 211.853L897.628 213.068C897.938 213.28 897.835 213.755 897.473 213.861L895.561 214.442C895.406 214.495 895.302 214.601 895.251 214.706L894.63 216.608C894.527 216.978 894.062 217.031 893.855 216.714L892.77 215.023C892.666 214.918 892.563 214.812 892.408 214.812H890.444C890.082 214.812 889.875 214.389 890.082 214.072L891.271 212.487C891.374 212.382 891.374 212.223 891.323 212.065L890.702 210.163C890.599 209.793 890.909 209.476 891.271 209.582L893.132 210.268C893.287 210.321 893.442 210.321 893.545 210.216L895.147 209.053C895.509 208.895 895.922 209.106 895.922 209.476Z" fill="#FBBB16"/>
<path d="M558.121 65.9147L560.136 68.0808C560.291 68.2393 560.498 68.2921 560.705 68.2921L563.599 67.8166C564.116 67.7109 564.529 68.2921 564.271 68.8204L562.876 71.462C562.772 71.6733 562.772 71.8846 562.876 72.0959L564.219 74.7375C564.478 75.213 564.064 75.7941 563.496 75.6885L560.601 75.1601C560.395 75.1073 560.188 75.213 560.033 75.3186L557.966 77.4319C557.604 77.8017 556.932 77.5904 556.828 77.0621L556.467 74.1035C556.415 73.8922 556.312 73.6809 556.105 73.5752L553.469 72.2016C553.004 71.9374 553.004 71.2506 553.469 70.9865L556.105 69.7185C556.312 69.6129 556.415 69.4544 556.467 69.243L556.932 66.2845C557.087 65.7034 557.759 65.492 558.121 65.9147Z" fill="#FB7816"/>
<path d="M300.297 106.052L302.313 108.218C302.468 108.376 302.675 108.429 302.882 108.429L305.776 107.954C306.293 107.848 306.706 108.429 306.448 108.958L305.052 111.599C304.949 111.81 304.949 112.022 305.052 112.233L306.396 114.875C306.654 115.35 306.241 115.931 305.672 115.826L302.778 115.297C302.571 115.245 302.365 115.35 302.21 115.456L300.142 117.569C299.78 117.939 299.109 117.728 299.005 117.199L298.643 114.241C298.592 114.029 298.488 113.818 298.282 113.712L295.646 112.339C295.181 112.075 295.181 111.388 295.646 111.124L298.282 109.856C298.488 109.75 298.592 109.592 298.643 109.38L299.109 106.422C299.264 105.841 299.936 105.629 300.297 106.052Z" fill="#FB7816"/>
<path d="M300.297 106.052L302.313 108.218C302.468 108.376 302.675 108.429 302.882 108.429L305.776 107.954C306.293 107.848 306.706 108.429 306.448 108.958L305.052 111.599C304.949 111.81 304.949 112.022 305.052 112.233L306.396 114.875C306.654 115.35 306.241 115.931 305.672 115.826L302.778 115.297C302.571 115.245 302.365 115.35 302.21 115.456L300.142 117.569C299.78 117.939 299.109 117.728 299.005 117.199L298.643 114.241C298.592 114.029 298.488 113.818 298.282 113.712L295.646 112.339C295.181 112.075 295.181 111.388 295.646 111.124L298.282 109.856C298.488 109.75 298.592 109.592 298.643 109.38L299.109 106.422C299.264 105.841 299.936 105.629 300.297 106.052Z" fill="#FB7816"/>
<path d="M248.721 68.4148L248.515 71.4261C248.515 71.6375 248.618 71.8488 248.773 72.0073L251.099 73.8564C251.512 74.1734 251.357 74.913 250.84 75.0187L247.998 75.7583C247.791 75.8111 247.636 75.9696 247.533 76.1809L246.499 78.981C246.292 79.5093 245.62 79.5621 245.31 79.0867L243.76 76.5508C243.656 76.3394 243.449 76.2338 243.243 76.2338L240.297 76.1281C239.78 76.1281 239.47 75.4413 239.832 75.0187L241.692 72.6941C241.847 72.5356 241.899 72.2714 241.796 72.0601L241.02 69.1544C240.865 68.6261 241.382 68.1506 241.899 68.3619L244.638 69.4714C244.845 69.577 245.052 69.5242 245.258 69.4185L247.688 67.7279C248.153 67.5166 248.773 67.8864 248.721 68.4148Z" fill="#FB7816"/>
<path d="M248.721 68.4148L248.515 71.4261C248.515 71.6375 248.618 71.8488 248.773 72.0073L251.099 73.8564C251.512 74.1734 251.357 74.913 250.84 75.0187L247.998 75.7583C247.791 75.8111 247.636 75.9696 247.533 76.1809L246.499 78.981C246.292 79.5093 245.62 79.5621 245.31 79.0867L243.76 76.5508C243.656 76.3394 243.449 76.2338 243.243 76.2338L240.297 76.1281C239.78 76.1281 239.47 75.4413 239.832 75.0187L241.692 72.6941C241.847 72.5356 241.899 72.2714 241.796 72.0601L241.02 69.1544C240.865 68.6261 241.382 68.1506 241.899 68.3619L244.638 69.4714C244.845 69.577 245.052 69.5242 245.258 69.4185L247.688 67.7279C248.153 67.5166 248.773 67.8864 248.721 68.4148Z" fill="#FB7816"/>
<path d="M856.922 64.4978L856.871 66.5054C856.871 66.6639 856.922 66.7695 857.026 66.8752L858.628 68.0903C858.938 68.3016 858.835 68.7771 858.473 68.8828L856.561 69.4639C856.406 69.5168 856.302 69.6224 856.251 69.7281L855.63 71.63C855.527 71.9998 855.062 72.0527 854.855 71.7357L853.77 70.0451C853.666 69.9394 853.563 69.8337 853.408 69.8337H851.444C851.082 69.8337 850.875 69.4111 851.082 69.0941L852.271 67.5092C852.374 67.4035 852.374 67.245 852.323 67.0865L851.702 65.1846C851.599 64.8148 851.909 64.4978 852.271 64.6035L854.132 65.2903C854.287 65.3431 854.442 65.3431 854.545 65.2374L856.147 64.0751C856.561 63.8638 856.974 64.128 856.922 64.4978Z" fill="#FB7816"/>
<path d="M657.414 234.331L657.362 236.338C657.362 236.497 657.414 236.602 657.518 236.708L659.12 237.923C659.43 238.135 659.326 238.61 658.965 238.716L657.052 239.297C656.897 239.35 656.794 239.455 656.742 239.561L656.122 241.463C656.019 241.833 655.554 241.886 655.347 241.569L654.261 239.878C654.158 239.772 654.055 239.667 653.9 239.667H651.936C651.574 239.667 651.367 239.244 651.574 238.927L652.763 237.342C652.866 237.236 652.866 237.078 652.814 236.919L652.297 235.07C652.194 234.701 652.504 234.384 652.866 234.489L654.727 235.176C654.882 235.229 655.037 235.229 655.14 235.123L656.742 233.961C657.052 233.75 657.466 233.961 657.414 234.331Z" fill="#FBBB16"/>
<path d="M401.06 231.212L401.008 233.22C401.008 233.378 401.06 233.484 401.164 233.589L402.766 234.805C403.076 235.016 402.972 235.491 402.611 235.597L400.698 236.178C400.543 236.231 400.44 236.337 400.388 236.442L399.768 238.344C399.665 238.714 399.2 238.767 398.993 238.45L397.907 236.759C397.804 236.654 397.701 236.548 397.546 236.548H395.582C395.22 236.548 395.013 236.125 395.22 235.808L396.409 234.223C396.512 234.118 396.512 233.959 396.46 233.801L395.84 231.899C395.737 231.529 396.047 231.212 396.409 231.318L398.269 232.005C398.424 232.057 398.579 232.057 398.683 231.952L400.285 230.789C400.647 230.578 401.06 230.789 401.06 231.212Z" fill="#FBBB16"/>
<path d="M782.511 241.22L782.46 243.228C782.46 243.386 782.511 243.492 782.615 243.597L784.217 244.813C784.527 245.024 784.424 245.499 784.062 245.605L782.15 246.186C781.995 246.239 781.891 246.345 781.839 246.45L781.219 248.352C781.116 248.722 780.651 248.775 780.444 248.458L779.359 246.767C779.255 246.662 779.152 246.556 778.997 246.556H777.033C776.671 246.556 776.464 246.133 776.671 245.816L777.86 244.231C777.963 244.126 777.963 243.967 777.911 243.809L777.291 241.907C777.188 241.537 777.498 241.22 777.86 241.326L779.72 242.012C779.875 242.065 780.031 242.065 780.134 241.96L781.736 240.797C782.098 240.639 782.511 240.85 782.511 241.22Z" fill="#FBBB16"/>
<path d="M746.539 132.493L744.833 133.55C744.73 133.603 744.627 133.761 744.627 133.92L744.523 135.927C744.523 136.297 744.058 136.509 743.8 136.244L742.301 134.924C742.198 134.818 742.042 134.818 741.887 134.818L739.975 135.346C739.613 135.452 739.303 135.082 739.458 134.765L740.234 132.916C740.285 132.758 740.285 132.599 740.182 132.493L739.096 130.803C738.89 130.486 739.148 130.063 739.51 130.116L741.474 130.274C741.629 130.274 741.784 130.222 741.836 130.116L743.076 128.531C743.283 128.267 743.748 128.373 743.851 128.69L744.317 130.644C744.368 130.803 744.472 130.908 744.575 130.961L746.436 131.701C746.797 131.807 746.849 132.282 746.539 132.493Z" fill="#FBBB16"/>
<path d="M60.0005 127.222L62.0161 129.388C62.1712 129.547 62.3779 129.6 62.5847 129.6L65.479 129.124C65.9958 129.019 66.4093 129.6 66.1509 130.128L64.7554 132.77C64.652 132.981 64.652 133.192 64.7554 133.404L66.0992 136.045C66.3576 136.521 65.9441 137.102 65.3756 136.996L62.4813 136.468C62.2746 136.415 62.0678 136.521 61.9128 136.626L59.8454 138.739C59.4836 139.109 58.8117 138.898 58.7083 138.37L58.3466 135.411C58.2949 135.2 58.1915 134.988 57.9848 134.883L55.3489 133.509C54.8837 133.245 54.8837 132.558 55.3489 132.294L57.9848 131.026C58.1915 130.92 58.2949 130.762 58.3466 130.551L58.8117 127.592C58.9668 127.011 59.6387 126.8 60.0005 127.222Z" fill="#FB7816"/>
<path d="M53.9225 227.476L53.8708 229.483C53.8708 229.642 53.9224 229.748 54.0258 229.853L55.6281 231.068C55.9382 231.28 55.8348 231.755 55.473 231.861L53.5607 232.442C53.4057 232.495 53.3022 232.601 53.2505 232.706L52.6304 234.608C52.527 234.978 52.0618 235.031 51.8551 234.714L50.7697 233.023C50.6664 232.918 50.563 232.812 50.4079 232.812H48.4439C48.0822 232.812 47.8754 232.389 48.0821 232.072L49.2709 230.487C49.3743 230.382 49.3742 230.223 49.3226 230.065L48.7024 228.163C48.599 227.793 48.9091 227.476 49.2709 227.582L51.1315 228.268C51.2866 228.321 51.4416 228.321 51.545 228.216L53.1472 227.053C53.509 226.895 53.9225 227.106 53.9225 227.476Z" fill="#FBBB16"/>
<path d="M967.922 80.4759L967.871 82.4835C967.871 82.642 967.922 82.7476 968.026 82.8533L969.628 84.0684C969.938 84.2797 969.835 84.7552 969.473 84.8609L967.561 85.442C967.406 85.4948 967.302 85.6005 967.251 85.7062L966.63 87.6081C966.527 87.9779 966.062 88.0308 965.855 87.7138L964.77 86.0232C964.666 85.9175 964.563 85.8118 964.408 85.8118H962.444C962.082 85.8118 961.875 85.3892 962.082 85.0722L963.271 83.4873C963.374 83.3816 963.374 83.2231 963.323 83.0646L962.702 81.1627C962.599 80.7929 962.909 80.4759 963.271 80.5816L965.132 81.2684C965.287 81.3212 965.442 81.3212 965.545 81.2155L967.147 80.0532C967.509 79.8947 967.922 80.1061 967.922 80.4759Z" fill="#FBBB16"/>
<path d="M1107.05 102.747L1106.84 105.759C1106.84 105.97 1106.94 106.181 1107.1 106.34L1109.42 108.189C1109.84 108.506 1109.68 109.246 1109.17 109.351L1106.32 110.091C1106.12 110.144 1105.96 110.302 1105.86 110.513L1104.82 113.314C1104.62 113.842 1103.95 113.895 1103.64 113.419L1102.08 110.883C1101.98 110.672 1101.77 110.566 1101.57 110.566L1098.62 110.461C1098.11 110.461 1097.79 109.774 1098.16 109.351L1100.02 107.027C1100.17 106.868 1100.22 106.604 1100.12 106.393L1099.35 103.487C1099.19 102.959 1099.71 102.483 1100.22 102.694L1102.96 103.804C1103.17 103.91 1103.38 103.857 1103.58 103.751L1106.01 102.06C1106.48 101.849 1107.1 102.219 1107.05 102.747Z" fill="#FB7816"/>
<path d="M955.093 177.285C956.551 177.285 956.551 175.001 955.093 175.001C953.636 174.951 953.636 177.285 955.093 177.285Z" fill="white"/>
<path d="M805.984 65.0859C807.296 65.0859 807.296 63 805.984 63C804.672 63 804.672 65.0859 805.984 65.0859Z" fill="white"/>
<path d="M837.169 129.384C837.801 129.384 838.384 128.838 838.335 128.192C838.286 127.546 837.801 127 837.169 127C836.537 127 835.954 127.546 836.003 128.192C836.051 128.838 836.537 129.384 837.169 129.384Z" fill="white"/>
<path d="M889.208 158.288C889.318 157.665 889.097 158.061 888.488 159.589C888.71 159.306 888.931 159.023 889.152 158.74C888.71 159.193 888.267 159.645 887.824 160.098C887.603 160.154 887.381 160.267 887.16 160.324C886.662 160.324 886.164 160.324 885.666 160.324C885.832 160.381 886.33 160.437 886.551 160.437C887.547 160.437 888.433 159.928 889.042 159.136C890.093 157.722 890.038 155.516 888.71 154.215C887.437 152.97 885.445 152.574 883.895 153.536C882.235 154.554 881.737 156.478 882.124 158.288C882.401 159.815 884.172 161.116 885.666 161.059C887.16 160.946 888.876 159.928 889.208 158.288Z" fill="white"/>
<path d="M1012.5 150.729C1012.35 150.729 1012.26 150.779 1012.11 150.779C1011.58 150.829 1010.99 151.226 1011.04 151.872C1011.09 152.517 1011.53 152.915 1012.11 152.964C1012.26 152.964 1012.35 153.014 1012.5 153.014C1013.08 153.064 1013.62 152.468 1013.62 151.872C1013.62 151.276 1013.13 150.63 1012.5 150.729Z" fill="white"/>
<path d="M1063.32 10.7576C1064.78 10.7576 1064.78 8.42334 1063.32 8.42334C1061.82 8.42334 1061.82 10.7576 1063.32 10.7576Z" fill="white"/>
<path d="M1122.39 181.091C1122.44 180.842 1122.34 180.991 1122.1 181.637C1122.2 181.538 1122.29 181.389 1122.34 181.289C1122.15 181.488 1122 181.637 1121.81 181.836C1121.71 181.885 1121.61 181.885 1121.57 181.935C1121.37 181.935 1121.13 181.935 1120.93 181.935C1121.03 181.985 1121.23 181.985 1121.32 181.985C1121.76 181.985 1122.1 181.786 1122.34 181.438C1122.78 180.842 1122.73 179.948 1122.2 179.402C1121.66 178.905 1120.89 178.756 1120.2 179.104C1119.52 179.501 1119.33 180.296 1119.48 181.041C1119.62 181.687 1120.3 182.183 1120.93 182.183C1121.57 182.183 1122.25 181.786 1122.39 181.091Z" fill="white"/>
<path d="M1030.32 109.961C1030.22 109.961 1030.12 110.011 1030.02 110.011C1029.49 110.11 1029.49 111.054 1030.02 111.153C1030.12 111.153 1030.22 111.203 1030.32 111.203C1030.7 111.253 1031.09 111.004 1031.09 110.607C1031.09 110.16 1030.7 109.912 1030.32 109.961Z" fill="white"/>
<path opacity="0.12" d="M645.145 72.2973C645.339 72.2973 645.339 72 645.145 72C644.952 72 644.952 72.2973 645.145 72.2973Z" fill="white"/>
<path d="M165.203 63.5845C165.932 63.5845 165.932 62.3926 165.203 62.3926C164.426 62.3926 164.426 63.5845 165.203 63.5845Z" fill="white"/>
<path d="M5.49998 145.729C5.35422 145.729 5.25705 145.779 5.11129 145.779C4.57684 145.829 3.99381 146.226 4.04239 146.872C4.09098 147.517 4.52826 147.915 5.11129 147.964C5.25705 147.964 5.35422 148.014 5.49998 148.014C6.08302 148.064 6.61747 147.468 6.61747 146.872C6.61747 146.276 6.1316 145.63 5.49998 145.729Z" fill="white"/>
<path d="M246.139 173.942C247.16 173.942 248.083 173.048 248.034 172.005C247.986 170.962 247.208 170.068 246.139 170.068C245.119 170.068 244.196 170.962 244.245 172.005C244.293 173.048 245.07 173.942 246.139 173.942Z" fill="white"/>
<path d="M224.673 5.87427C225.936 5.87427 225.936 3.8877 224.673 3.8877C223.41 3.8877 223.41 5.87427 224.673 5.87427Z" fill="white"/>
<path d="M56.3249 5.75757C57.7825 5.75757 57.7825 3.42334 56.3249 3.42334C54.8188 3.42334 54.8188 5.75757 56.3249 5.75757Z" fill="white"/>
<path d="M115.391 176.091C115.44 175.842 115.343 175.991 115.1 176.637C115.197 176.538 115.294 176.389 115.343 176.289C115.148 176.488 115.003 176.637 114.808 176.836C114.711 176.885 114.614 176.885 114.565 176.935C114.371 176.935 114.128 176.935 113.934 176.935C114.031 176.985 114.225 176.985 114.322 176.985C114.76 176.985 115.1 176.786 115.343 176.438C115.78 175.842 115.731 174.948 115.197 174.402C114.663 173.905 113.885 173.756 113.205 174.104C112.525 174.501 112.33 175.296 112.476 176.041C112.622 176.687 113.302 177.183 113.934 177.183C114.565 177.183 115.246 176.786 115.391 176.091Z" fill="white"/>
<path d="M389.429 29.2356C389.429 29.1859 389.38 29.1859 389.38 29.1362C389.04 28.6396 388.506 28.3416 387.923 28.5403C387.388 28.6892 386.951 29.2356 386.951 29.8315C386.951 30.3778 387.243 30.8248 387.729 31.0235C388.36 31.2718 388.992 31.0235 389.332 30.4772C389.332 30.4275 389.38 30.4275 389.38 30.3778C389.623 30.0799 389.623 29.5335 389.429 29.2356Z" fill="white"/>
<path d="M467.037 120.066C466.746 119.768 466.406 119.47 465.969 119.421C465.288 119.272 464.268 119.52 463.977 120.265C463.782 120.662 463.685 121.06 463.734 121.507C463.831 122.252 464.025 122.848 464.705 123.245C465.24 123.592 465.871 123.592 466.454 123.344C467.62 122.748 468.058 121.06 467.037 120.066Z" fill="white"/>
<path d="M519.592 83.6981C520.515 83.6981 520.515 82.2578 519.592 82.2578C518.669 82.2578 518.669 83.6981 519.592 83.6981Z" fill="white"/>
<path d="M23.3159 104.961C23.2187 104.961 23.1215 105.011 23.0244 105.011C22.4899 105.11 22.4899 106.054 23.0244 106.153C23.1215 106.153 23.2187 106.203 23.3159 106.203C23.7046 106.253 24.0933 106.004 24.0933 105.607C24.0933 105.16 23.7046 104.912 23.3159 104.961Z" fill="white"/>
<g opacity="0.88">
<path opacity="0.14" d="M1112.98 78.0318C1114.29 78.0318 1114.29 76 1112.98 76C1111.67 76 1111.67 78.0318 1112.98 78.0318Z" fill="white"/>
<path opacity="0.14" d="M1125.09 198.28C1126.55 198.28 1126.55 196 1125.09 196C1123.64 196 1123.64 198.28 1125.09 198.28Z" fill="white"/>
<path opacity="0.14" d="M1068.1 90.5287C1068.29 91.2225 1068.73 91.6685 1069.41 91.9162C1070.43 92.2631 1071.59 91.6189 1071.88 90.5287C1072.22 89.3393 1071.25 87.9517 1069.99 88.0013C1068.73 88.0508 1067.66 89.2402 1068.1 90.5287Z" fill="white"/>
<path opacity="0.14" d="M888.091 81.2796C889.545 81.2796 889.545 79 888.091 79C886.636 79 886.636 81.2796 888.091 81.2796Z" fill="white"/>
<path opacity="0.14" d="M942.836 167.784C943.951 167.784 943.951 166 942.836 166C941.721 166 941.721 167.784 942.836 167.784Z" fill="white"/>
<path opacity="0.14" d="M1120.25 115.496C1120.59 115.496 1120.59 115 1120.25 115C1119.92 115 1119.92 115.496 1120.25 115.496Z" fill="white"/>
<path opacity="0.14" d="M352.836 91.785C353.951 91.785 353.951 90.001 352.836 90.001C351.721 89.9514 351.721 91.785 352.836 91.785Z" fill="white"/>
<path opacity="0.14" d="M975.018 115.181C976.376 115.181 976.424 113.001 975.018 113.001C973.661 112.951 973.661 115.181 975.018 115.181Z" fill="white"/>
<path opacity="0.14" d="M165.582 90.1908C166.357 90.1908 166.357 89.0014 165.582 89.0014C164.806 88.9519 164.806 90.1908 165.582 90.1908Z" fill="white"/>
<path opacity="0.14" d="M604.727 248.487C605.697 248.487 605.697 247 604.727 247C603.758 247 603.758 248.487 604.727 248.487Z" fill="white"/>
<path opacity="0.14" d="M1003.62 158.29C1004.44 158.29 1004.44 157.001 1003.62 157.001C1002.79 156.952 1002.79 158.29 1003.62 158.29Z" fill="white"/>
<path opacity="0.14" d="M1104.8 109.635C1105.82 109.635 1105.82 108 1104.8 108C1103.73 108 1103.73 109.635 1104.8 109.635Z" fill="white"/>
<path opacity="0.14" d="M1015.93 90.5734C1015.83 90.3752 1015.78 90.1274 1015.64 89.9292C1014.81 88.6903 1013.21 88.6903 1012.39 89.9292C1012.24 90.1274 1012.19 90.3752 1012.1 90.5734C1011.66 91.8123 1012.78 93.1008 1013.99 93.1008C1015.25 93.1008 1016.36 91.8123 1015.93 90.5734Z" fill="white"/>
<path opacity="0.14" d="M928.2 121.478C929.751 121.478 929.751 119 928.2 119C926.6 119 926.6 121.478 928.2 121.478Z" fill="white"/>
<path opacity="0.14" d="M528.685 84.8667C528.345 84.4702 527.909 84.2224 527.424 84.0737C526.648 83.826 525.63 84.2224 525.242 84.9658C525.097 85.2631 525 85.61 525 85.9569C525 86.4029 525.242 87.0471 525.582 87.3445C525.921 87.6418 526.164 87.84 526.6 87.9392C526.842 88.0383 527.133 88.0383 527.376 88.0878C527.666 88.1374 528.054 87.9887 528.297 87.84C528.636 87.6418 528.878 87.2949 529.072 86.948C529.363 86.2047 529.169 85.4118 528.685 84.8667Z" fill="white"/>
<path opacity="0.14" d="M359.782 75.4632C361.14 75.4632 361.14 73.2827 359.782 73.2827C358.425 73.2827 358.425 75.4632 359.782 75.4632Z" fill="white"/>
<path opacity="0.14" d="M513.502 68.8707C514.956 68.8707 514.956 66.5415 513.502 66.5415C512.048 66.5415 512.048 68.8707 513.502 68.8707Z" fill="white"/>
<path opacity="0.14" d="M542.291 230.166C543.891 230.166 543.891 227.638 542.291 227.638C540.691 227.688 540.691 230.166 542.291 230.166Z" fill="white"/>
<path opacity="0.14" d="M518.059 187.259C519.078 187.259 519.078 185.624 518.059 185.624C517.041 185.624 517.041 187.259 518.059 187.259Z" fill="white"/>
<path opacity="0.14" d="M566.492 183.1C567.752 183.1 567.752 181.118 566.492 181.118C565.28 181.118 565.28 183.1 566.492 183.1Z" fill="white"/>
<path opacity="0.14" d="M415.965 162.653C416.886 162.653 416.886 161.166 415.965 161.166C415.044 161.216 414.995 162.653 415.965 162.653Z" fill="white"/>
<path opacity="0.14" d="M500.945 99.7479C501.382 99.7479 501.382 99.0541 500.945 99.0541C500.509 99.0046 500.509 99.7479 500.945 99.7479Z" fill="white"/>
<path opacity="0.14" d="M266.803 115.683C268.548 115.683 268.548 112.908 266.803 112.908C265.058 112.908 265.058 115.683 266.803 115.683Z" fill="white"/>
<path opacity="0.14" d="M272.456 148.677C272.892 148.677 272.892 148.033 272.456 148.033C272.02 148.033 272.02 148.677 272.456 148.677Z" fill="white"/>
<path opacity="0.14" d="M541.573 188.756C541.67 188.707 541.718 188.657 541.815 188.608C542.978 187.914 542.978 186.13 541.815 185.436C541.718 185.387 541.67 185.337 541.573 185.287C540.264 184.495 538.615 185.535 538.615 187.022C538.615 188.509 540.312 189.5 541.573 188.756Z" fill="white"/>
<path opacity="0.14" d="M449.417 81.2475C449.32 81.2475 449.175 81.2475 449.078 81.2475C448.35 81.1979 447.672 81.9413 447.72 82.635C447.769 83.3288 448.302 84.0722 449.078 84.0226C449.175 84.0226 449.32 84.0226 449.417 84.0226C450.096 83.9731 450.775 83.428 450.775 82.635C450.726 81.7926 450.193 81.297 449.417 81.2475Z" fill="white"/>
<path opacity="0.14" d="M676.627 63.7874C677.887 63.7874 677.887 61.8052 676.627 61.8052C675.415 61.8547 675.415 63.7874 676.627 63.7874Z" fill="white"/>
<path opacity="0.14" d="M294.709 227.214C295.824 227.214 295.824 225.48 294.709 225.48C293.594 225.43 293.594 227.214 294.709 227.214Z" fill="white"/>
<path opacity="0.14" d="M247.634 206.83C248.216 206.83 248.216 205.889 247.634 205.889C247.052 205.889 247.052 206.83 247.634 206.83Z" fill="white"/>
<path opacity="0.14" d="M350.389 252.796C351.552 252.796 351.552 250.962 350.389 250.962C349.274 250.962 349.225 252.796 350.389 252.796Z" fill="white"/>
<path opacity="0.14" d="M521.308 141.889C521.259 141.443 521.211 141.096 520.969 140.699C520.193 139.46 518.448 139.46 517.672 140.699C517.429 141.096 517.381 141.443 517.332 141.889C517.284 142.384 517.575 142.979 517.914 143.326C518.254 143.673 518.835 143.92 519.32 143.92C520.338 143.871 521.453 143.028 521.308 141.889Z" fill="white"/>
<path opacity="0.14" d="M813.355 71.127C813.307 71.127 813.307 71.127 813.355 71.127C813.646 71.127 813.986 71.127 814.374 71.127C814.374 71.127 814.374 71.127 814.325 71.127C814.616 71.2756 814.907 71.4739 815.198 71.6225C815.537 72.019 815.537 72.0685 815.295 71.7712C814.955 71.3252 815.052 71.5234 815.586 72.3163C815.343 71.6721 814.955 71.1765 814.277 70.9783C813.646 70.7801 812.871 70.9783 812.434 71.4739C811.853 72.1677 811.562 73.2083 812.095 74.0508C812.386 74.4968 812.774 74.8437 813.307 74.9924C813.84 75.1411 814.374 75.0419 814.907 74.7942C815.295 74.5959 815.731 74.0508 815.828 73.6048C815.925 73.1588 815.925 72.7128 815.731 72.3163C815.246 71.3252 814.277 70.8792 813.355 71.127Z" fill="white"/>
<path opacity="0.14" d="M356.522 205.767C357.685 205.767 357.685 203.933 356.522 203.933C355.358 203.933 355.358 205.767 356.522 205.767Z" fill="white"/>
<path opacity="0.14" d="M466.234 282.53C466.67 282.53 466.67 281.886 466.234 281.886C465.846 281.886 465.846 282.53 466.234 282.53Z" fill="white"/>
<path opacity="0.14" d="M243.949 238.772C245.016 238.772 245.016 237.136 243.949 237.136C242.883 237.087 242.883 238.772 243.949 238.772Z" fill="white"/>
<path opacity="0.14" d="M366.994 287.634C369.418 287.634 369.418 283.769 366.994 283.769C364.57 283.769 364.57 287.634 366.994 287.634Z" fill="white"/>
<path opacity="0.14" d="M408.251 251.854C409.56 251.854 409.56 249.773 408.251 249.773C406.942 249.773 406.942 251.854 408.251 251.854Z" fill="white"/>
<path opacity="0.14" d="M314.441 219.891C315.459 219.891 315.459 218.255 314.441 218.255C313.422 218.255 313.374 219.891 314.441 219.891Z" fill="white"/>
<path opacity="0.14" d="M285.158 299.132C286.467 299.132 286.467 297.05 285.158 297.05C283.849 297.05 283.849 299.132 285.158 299.132Z" fill="white"/>
<path opacity="0.14" d="M272.068 150.564C272.02 150.514 271.971 150.465 271.923 150.366C271.487 149.92 270.856 149.821 270.323 150.068C269.79 150.316 269.402 150.861 269.402 151.456C269.45 152.744 271.002 153.488 271.923 152.546C271.971 152.497 272.02 152.447 272.068 152.348C272.553 151.852 272.553 151.059 272.068 150.564Z" fill="white"/>
<path opacity="0.14" d="M217.7 130.193C218.961 130.193 218.961 128.161 217.7 128.161C216.392 128.161 216.392 130.193 217.7 130.193Z" fill="white"/>
<path opacity="0.14" d="M752.318 73.5995C752.27 73.1535 752.221 72.8066 751.979 72.4101C751.203 71.1712 749.458 71.1712 748.682 72.4101C748.44 72.8066 748.391 73.1535 748.343 73.5995C748.294 74.0951 748.585 74.6897 748.924 75.0366C749.264 75.3835 749.846 75.6313 750.33 75.6313C751.3 75.5818 752.464 74.7393 752.318 73.5995Z" fill="white"/>
<path opacity="0.14" d="M527.416 119.39C528.58 119.39 528.58 117.556 527.416 117.556C526.253 117.556 526.253 119.39 527.416 119.39Z" fill="white"/>
<path opacity="0.14" d="M558.686 120.084C559.462 120.084 559.462 118.845 558.686 118.845C557.911 118.845 557.911 120.084 558.686 120.084Z" fill="white"/>
<path opacity="0.14" d="M601.64 81.6772C602.27 81.6772 602.27 80.686 601.64 80.686C601.01 80.7356 601.01 81.6772 601.64 81.6772Z" fill="white"/>
<path opacity="0.14" d="M573.57 49.2672C574.491 49.2672 574.491 47.8301 573.57 47.8301C572.649 47.8301 572.649 49.2672 573.57 49.2672Z" fill="white"/>
<path opacity="0.14" d="M535.9 32.7155C536.919 32.7155 537.888 31.8235 537.84 30.7332C537.791 29.643 536.967 28.751 535.9 28.751C534.882 28.751 533.913 29.643 533.961 30.7332C534.01 31.8235 534.834 32.7155 535.9 32.7155Z" fill="white"/>
<path opacity="0.14" d="M553.353 76.0772C553.402 75.879 553.402 75.7303 553.402 75.5321C553.402 74.8879 552.868 74.2932 552.238 74.3427C551.608 74.3923 551.075 74.8879 551.075 75.5321C551.075 75.7303 551.123 75.879 551.123 76.0772C551.366 77.1675 553.111 77.1675 553.353 76.0772Z" fill="white"/>
<path opacity="0.14" d="M500.316 19.0873C501.479 19.0873 501.479 17.2041 500.316 17.2041C499.152 17.2041 499.152 19.0873 500.316 19.0873Z" fill="white"/>
<path opacity="0.14" d="M686.142 20.6727C687.693 20.6727 687.693 18.1948 686.142 18.1948C684.591 18.1948 684.591 20.6727 686.142 20.6727Z" fill="white"/>
<path opacity="0.14" d="M680.518 17.0058C680.664 16.9562 680.809 16.9066 680.955 16.8075C681.343 16.5597 681.343 15.9651 680.955 15.7173C680.809 15.6182 680.664 15.5686 680.518 15.5191C680.034 15.3208 679.549 15.8164 679.549 16.2624C679.597 16.7084 680.082 17.1544 680.518 17.0058Z" fill="white"/>
<path opacity="0.14" d="M611.579 18.3438C611.579 18.2447 611.53 18.1456 611.53 18.0465C611.385 17.1544 609.93 17.1544 609.785 18.0465C609.785 18.1456 609.737 18.2447 609.737 18.3438C609.64 18.9385 609.979 19.5827 610.658 19.5827C611.336 19.5827 611.676 18.988 611.579 18.3438Z" fill="white"/>
<path opacity="0.14" d="M621.275 110.816C622.439 110.816 622.439 108.983 621.275 108.983C620.111 108.983 620.111 110.816 621.275 110.816Z" fill="white"/>
<path opacity="0.14" d="M735.835 136.388C737.192 136.388 737.192 134.207 735.835 134.207C734.477 134.207 734.477 136.388 735.835 136.388Z" fill="white"/>
<path opacity="0.14" d="M706.407 101.747C706.552 102.045 706.698 102.243 706.989 102.441C707.716 102.937 708.637 101.995 708.152 101.252C707.958 100.955 707.813 100.806 707.474 100.657C706.746 100.31 706.116 100.955 706.407 101.747Z" fill="white"/>
<path opacity="0.14" d="M748.731 83.5106C749.506 83.5106 749.506 82.2222 748.731 82.2222C747.955 82.2222 747.955 83.5106 748.731 83.5106Z" fill="white"/>
<path opacity="0.14" d="M793.091 140.55C793.042 140.55 792.945 140.55 792.897 140.5C792.46 140.401 791.976 140.699 791.976 141.194C791.976 141.69 792.412 141.987 792.897 141.888C792.945 141.888 793.042 141.888 793.091 141.838C793.769 141.789 793.769 140.649 793.091 140.55Z" fill="white"/>
<path opacity="0.14" d="M738.065 23.4481C739.18 23.4481 739.18 21.6641 738.065 21.6641C736.95 21.6641 736.95 23.4481 738.065 23.4481Z" fill="white"/>
<path opacity="0.14" d="M812.095 231.586C813.307 231.586 813.307 229.653 812.095 229.653C810.883 229.653 810.883 231.586 812.095 231.586Z" fill="white"/>
<path opacity="0.14" d="M774.231 24.2905C774.134 24.2905 774.037 24.2905 773.892 24.2905C772.777 24.3401 772.777 26.025 773.892 26.025C773.989 26.025 774.086 26.025 774.231 26.025C775.298 26.0746 775.346 24.241 774.231 24.2905Z" fill="white"/>
<path opacity="0.14" d="M814.373 13.2394C815.149 13.2394 815.149 12.0005 814.373 12.0005C813.598 12.05 813.598 13.2394 814.373 13.2394Z" fill="white"/>
<path opacity="0.14" d="M718.042 227.67C718.236 227.869 718.43 228.017 718.624 228.216C718.624 228.86 718.624 229.504 718.624 230.148C718.866 229.603 718.963 229.108 718.818 228.513C718.818 228.463 718.818 228.414 718.769 228.414C718.333 226.977 718.769 228.86 718.769 228.761C718.673 228.017 718.285 227.224 717.46 227.026C716.782 226.878 716.055 227.026 715.57 227.522C714.988 228.116 714.939 228.86 715.036 229.653C715.133 230.247 715.812 230.941 716.394 231.04C716.83 231.139 717.121 231.139 717.606 231.04C718.285 230.892 718.818 230.198 718.915 229.504C718.963 228.761 718.624 228.067 718.042 227.67Z" fill="white"/>
<path opacity="0.14" d="M698.408 293.333C698.892 293.333 698.892 292.54 698.408 292.54C697.923 292.54 697.923 293.333 698.408 293.333Z" fill="white"/>
<path opacity="0.14" d="M681.973 252.349C682.748 252.349 682.748 251.061 681.973 251.061C681.148 251.061 681.148 252.349 681.973 252.349Z" fill="white"/>
<path opacity="0.14" d="M651.963 242.389C652.302 242.389 652.302 241.893 651.963 241.893C651.624 241.893 651.624 242.389 651.963 242.389Z" fill="white"/>
<path opacity="0.14" d="M742.671 272.569C742.622 272.569 742.622 272.569 742.574 272.569C741.604 272.519 740.683 273.461 740.731 274.452C740.731 274.501 740.731 274.501 740.731 274.551C740.78 275.344 741.168 276.038 741.895 276.335C742.574 276.632 743.495 276.533 743.98 275.939C744.416 275.443 744.658 274.7 744.464 274.006C744.319 273.163 743.543 272.618 742.671 272.569Z" fill="white"/>
<path opacity="0.14" d="M659.041 296.901C660.302 296.901 660.302 294.919 659.041 294.919C657.781 294.919 657.781 296.901 659.041 296.901Z" fill="white"/>
<path opacity="0.14" d="M427.788 214.191C428.225 214.191 428.225 213.498 427.788 213.498C427.352 213.498 427.352 214.191 427.788 214.191Z" fill="white"/>
<path opacity="0.14" d="M630.632 312.214C632.862 312.214 632.862 308.646 630.632 308.646C628.401 308.596 628.401 312.214 630.632 312.214Z" fill="white"/>
<path opacity="0.14" d="M723.23 309.488C723.181 309.29 723.133 309.141 723.036 308.993C722.648 308.448 721.921 308.448 721.533 308.993C721.436 309.141 721.388 309.34 721.339 309.488C721.145 310.133 721.63 310.777 722.26 310.777C722.891 310.727 723.375 310.083 723.23 309.488Z" fill="white"/>
<path opacity="0.14" d="M573.812 307.903C573.764 307.804 573.715 307.655 573.618 307.556C573.618 307.952 573.618 308.398 573.618 308.795C573.667 308.696 573.715 308.646 573.764 308.547C574.2 307.804 574.055 306.763 573.473 306.119C573.134 305.772 572.746 305.524 572.309 305.475C571.728 305.375 571.243 305.425 570.758 305.822C570.273 306.168 570.128 306.664 570.079 307.259C570.031 307.705 570.128 308.2 570.419 308.597C570.855 309.29 571.776 309.786 572.649 309.538C572.746 309.489 572.843 309.489 572.94 309.439C572.552 309.34 572.164 309.241 571.776 309.142C571.873 309.241 571.97 309.29 572.067 309.39C572.503 309.736 573.085 309.836 573.521 309.489C573.958 308.993 574.055 308.398 573.812 307.903Z" fill="white"/>
<path opacity="0.14" d="M527.949 163.941C527.901 163.842 527.901 163.743 527.852 163.693C527.659 163.049 526.737 163.049 526.543 163.693C526.495 163.792 526.495 163.891 526.446 163.941C526.301 164.436 526.689 164.932 527.174 164.932C527.707 164.882 528.095 164.387 527.949 163.941Z" fill="white"/>
<path opacity="0.14" d="M809.719 314.692C810.98 314.692 810.98 312.66 809.719 312.66C808.459 312.71 808.459 314.692 809.719 314.692Z" fill="white"/>
<path opacity="0.14" d="M496.486 208.542C496.631 208.542 496.631 208.344 496.486 208.344C496.34 208.344 496.34 208.542 496.486 208.542Z" fill="white"/>
<path opacity="0.14" d="M496.049 204.974C496.291 204.974 496.291 204.577 496.049 204.577C495.807 204.577 495.807 204.974 496.049 204.974Z" fill="white"/>
<path opacity="0.14" d="M485.335 182.326C486.111 182.326 486.111 181.137 485.335 181.137C484.608 181.137 484.608 182.326 485.335 182.326Z" fill="white"/>
<path opacity="0.14" d="M548.748 177.42C549.378 177.42 549.378 176.429 548.748 176.429C548.117 176.429 548.117 177.42 548.748 177.42Z" fill="white"/>
<path opacity="0.14" d="M561.256 197.045C562.274 197.045 562.274 195.459 561.256 195.459C560.238 195.459 560.238 197.045 561.256 197.045Z" fill="white"/>
<path opacity="0.14" d="M575.121 153.039C576.236 153.039 576.236 151.304 575.121 151.304C574.055 151.304 574.055 153.039 575.121 153.039Z" fill="white"/>
<path opacity="0.14" d="M698.844 139.708C699.959 139.708 699.959 137.924 698.844 137.924C697.68 137.924 697.68 139.708 698.844 139.708Z" fill="white"/>
<path opacity="0.14" d="M686.045 172.117C686.433 172.117 686.433 171.473 686.045 171.473C685.657 171.473 685.657 172.117 686.045 172.117Z" fill="white"/>
<path opacity="0.14" d="M729.969 198.729C730.987 198.729 730.987 197.144 729.969 197.144C728.951 197.144 728.951 198.729 729.969 198.729Z" fill="white"/>
<path opacity="0.14" d="M763.614 140.798C764.681 140.798 764.681 139.163 763.614 139.163C762.548 139.163 762.548 140.798 763.614 140.798Z" fill="white"/>
<path opacity="0.14" d="M711.352 63.7871C711.692 63.7871 711.692 63.2915 711.352 63.2915C711.013 63.2915 711.013 63.7871 711.352 63.7871Z" fill="white"/>
<path opacity="0.14" d="M676.301 65.4225C676.882 65.4225 676.882 64.481 676.301 64.481C675.719 64.481 675.719 65.4225 676.301 65.4225Z" fill="white"/>
<path opacity="0.14" d="M809.913 66.2651C810.495 66.2651 810.495 65.373 809.913 65.373C809.38 65.373 809.38 66.2651 809.913 66.2651Z" fill="white"/>
<path opacity="0.14" d="M812.143 126.922C813.501 126.922 813.501 124.792 812.143 124.792C810.834 124.792 810.834 126.922 812.143 126.922Z" fill="white"/>
<path opacity="0.14" d="M801.381 256.662C802.011 256.662 802.011 255.67 801.381 255.67C800.751 255.67 800.751 256.662 801.381 256.662Z" fill="white"/>
<path opacity="0.14" d="M776.656 289.517C776.753 289.517 776.753 289.369 776.656 289.369C776.559 289.369 776.559 289.517 776.656 289.517Z" fill="white"/>
<path opacity="0.14" d="M785.818 291.846C786.012 291.846 786.012 291.5 785.818 291.5C785.624 291.549 785.624 291.846 785.818 291.846Z" fill="white"/>
<path opacity="0.14" d="M692.832 309.934C693.996 309.934 693.996 308.051 692.832 308.051C691.62 308.051 691.62 309.934 692.832 309.934Z" fill="white"/>
<path opacity="0.14" d="M649.054 270.339C650.072 270.339 650.072 268.704 649.054 268.704C648.036 268.704 648.036 270.339 649.054 270.339Z" fill="white"/>
<path opacity="0.14" d="M491.88 224.995C491.783 224.995 491.686 224.995 491.589 224.946C491.055 224.896 490.619 225.441 490.619 225.937C490.619 226.432 491.055 226.977 491.589 226.928C491.686 226.928 491.783 226.928 491.88 226.878C492.364 226.829 492.801 226.482 492.801 225.937C492.801 225.392 492.364 225.045 491.88 224.995Z" fill="white"/>
<path opacity="0.14" d="M396.228 155.318C396.761 155.318 396.761 154.476 396.228 154.476C395.694 154.476 395.694 155.318 396.228 155.318Z" fill="white"/>
<path opacity="0.14" d="M288.091 134.653C289.352 134.653 289.352 132.671 288.091 132.671C286.831 132.671 286.831 134.653 288.091 134.653Z" fill="white"/>
<path opacity="0.14" d="M710.77 271.578C711.206 271.578 711.206 270.884 710.77 270.884C710.334 270.884 710.334 271.578 710.77 271.578Z" fill="white"/>
<path opacity="0.14" d="M423.91 117.408C425.219 117.408 425.219 115.327 423.91 115.327C422.552 115.277 422.552 117.408 423.91 117.408Z" fill="white"/>
<path opacity="0.14" d="M573.328 213.993C574.346 213.993 574.346 212.358 573.328 212.358C572.309 212.358 572.309 213.993 573.328 213.993Z" fill="white"/>
<path opacity="0.14" d="M543.415 298.586C543.754 298.586 543.754 298.091 543.415 298.091C543.076 298.091 543.124 298.586 543.415 298.586Z" fill="white"/>
<path opacity="0.14" d="M480.923 263.104C481.796 263.104 481.796 261.766 480.923 261.766C480.05 261.766 480.05 263.104 480.923 263.104Z" fill="white"/>
<path opacity="0.14" d="M290.248 251.049C291.363 251.049 291.363 249.265 290.248 249.265C289.133 249.265 289.133 251.049 290.248 251.049Z" fill="white"/>
<path opacity="0.14" d="M340.814 306.962C341.59 306.962 341.59 305.723 340.814 305.723C340.038 305.772 340.038 306.962 340.814 306.962Z" fill="white"/>
<path opacity="0.14" d="M389.78 296.505C390.313 296.505 390.313 295.663 389.78 295.663C389.246 295.613 389.198 296.505 389.78 296.505Z" fill="white"/>
<path opacity="0.22" d="M244.845 191.482C245.136 190.986 245.379 190.54 245.67 190.045C245.96 189.599 245.767 188.954 245.33 188.657C244.845 188.36 244.264 188.558 243.973 189.004C243.682 189.499 243.439 189.945 243.149 190.441C242.858 190.887 243.052 191.531 243.488 191.829C243.973 192.126 244.603 191.928 244.845 191.482Z" fill="white"/>
<path opacity="0.14" d="M97.8363 222.784C98.9513 222.784 98.9513 221 97.8363 221C96.7212 221 96.7212 222.784 97.8363 222.784Z" fill="white"/>
<path opacity="0.14" d="M815.164 188.179C815.115 188.179 815.115 188.179 815.067 188.179C815.164 188.229 815.212 188.278 815.309 188.328C815.309 188.229 815.261 188.229 815.164 188.179C814.776 187.783 814 188.08 814 188.724C814 189.368 814.776 189.666 815.212 189.22C815.26 189.17 815.309 189.17 815.309 189.121C815.212 189.17 815.164 189.22 815.067 189.269C815.115 189.269 815.115 189.269 815.164 189.269C815.697 189.121 815.697 188.278 815.164 188.179Z" fill="white"/>
<path opacity="0.14" d="M176.666 161.628C176.618 161.579 176.569 161.529 176.521 161.43C176.085 160.984 175.454 160.885 174.921 161.133C174.388 161.381 174 161.926 174 162.52C174.048 163.809 175.6 164.552 176.521 163.611C176.569 163.561 176.618 163.511 176.666 163.412C177.151 162.917 177.151 162.124 176.666 161.628Z" fill="white"/>
</g>
<path d="M1050.32 218.378C1054 220.571 1057.89 224.174 1057.1 228.459C1056.34 232.622 1051.77 234.564 1047.97 236.25C1039.66 239.953 1032.25 245.71 1026.54 252.9C1025.08 254.747 1023.65 256.868 1023.67 259.255C1023.7 263.907 1028.76 266.55 1033.04 268.125C1041.09 271.086 1049.14 274.047 1057.19 277.007C1064.68 279.764 1073.27 283.735 1074.92 291.692C1076.32 298.527 1071.57 305.368 1065.67 308.897C1058.57 313.113 1049.02 313.627 1042.4 308.667C1035.78 303.707 1033.69 292.838 1039.17 286.564C1035.7 285.189 1032.08 283.801 1028.35 284.072C1024.63 284.343 1020.78 286.806 1020.13 290.572C1018.91 297.631 1028.34 301.3 1031.61 307.635C1035.36 314.92 1029.37 324.319 1021.65 326.675C1013.93 329.031 1005.65 326.317 998.29 322.935C991.474 319.803 984.797 315.969 979.76 310.331C967.722 296.88 967.507 276.661 967.975 258.438L965.048 255.701C959.269 265.72 955.354 277.094 953.908 289.387C949.756 324.682 966.969 357.545 995.145 374.499C996.782 366.232 1000.67 358.249 1007.57 353.778C1015.49 348.636 1027.77 350.208 1032.14 358.685C1033.88 362.064 1034.22 366.027 1035.64 369.563C1038.56 376.831 1046.4 381.695 1054.05 380.983C1061.7 380.27 1068.56 374.05 1070.17 366.362C1071.67 359.101 1068.98 350.902 1072.64 344.489C1075.1 340.178 1079.83 337.853 1084.28 335.792C1093.49 331.528 1102.7 327.263 1111.91 322.998C1114.59 321.771 1118.06 320.682 1120.18 322.626C1121.28 318.519 1122.1 314.294 1122.62 309.937C1128.22 262.334 1094.98 219.139 1048.39 213.451C1044.95 213.034 1041.54 212.859 1038.16 212.851C1042.39 214.275 1046.48 216.081 1050.32 218.378Z" fill="#4195C2"/>
<path d="M979.727 310.347C984.763 315.985 991.441 319.819 998.257 322.951C1005.6 326.334 1013.9 329.032 1021.62 326.691C1029.34 324.336 1035.33 314.936 1031.58 307.651C1028.31 301.316 1018.88 297.647 1020.1 290.587C1020.75 286.837 1024.6 284.374 1028.31 284.088C1032.03 283.817 1035.65 285.205 1039.14 286.58C1033.68 292.838 1035.77 303.723 1042.37 308.683C1048.99 313.643 1058.54 313.129 1065.63 308.913C1071.55 305.384 1076.31 298.558 1074.88 291.708C1073.24 283.735 1064.65 279.779 1057.16 277.023C1049.11 274.062 1041.06 271.101 1033.01 268.14C1028.73 266.565 1023.66 263.923 1023.64 259.27C1023.64 256.883 1025.05 254.762 1026.51 252.915C1032.23 245.725 1039.65 239.952 1047.94 236.265C1051.74 234.578 1056.31 232.621 1057.07 228.474C1057.84 224.189 1053.97 220.585 1050.29 218.392C1046.45 216.096 1042.36 214.289 1038.11 212.941C1007.53 212.963 979.942 229.816 965 255.747L967.927 258.484C967.488 276.676 967.703 296.896 979.727 310.347Z" fill="#6CC485"/>
<path d="M143.651 38.2896C138.011 44.9648 131.048 49.7883 123.503 52.692C122.08 53.2455 120.63 53.7306 119.173 54.1405C111.929 56.1902 104.304 56.5523 96.8928 55.1858C95.9305 55.0082 94.9615 54.8032 94.0126 54.5641C86.5213 52.7262 79.3441 49.071 73.1092 43.5641C68.6519 39.6287 65.0366 35.0648 62.2967 30.1114C60.3787 26.6611 58.8885 23.0195 57.8059 19.2685C53.2016 3.17169 56.436 -14.9133 67.9502 -28.5506C71.8195 -33.1282 76.3102 -36.8381 81.1819 -39.6599C91.2192 -45.4605 102.887 -47.476 114.094 -45.5561C114.535 -45.4878 114.983 -45.4058 115.424 -45.3101C120.396 -44.3263 125.267 -42.5499 129.838 -39.9741C131.676 -38.9493 133.454 -37.7878 135.184 -36.5102C136.32 -35.6766 137.423 -34.7884 138.492 -33.8319C141.727 -30.976 144.52 -27.7785 146.859 -24.3487C159.616 -5.64194 158.901 20.2251 143.651 38.2896Z" fill="#AD6C16"/>
<path d="M146.852 -24.355C146.745 -19.9619 146.064 -15.4458 144.273 -11.5377C143.23 -9.25573 141.546 -7.55448 141.205 -4.95138C140.918 -2.71723 141.58 -0.913502 142.254 1.20451C143.812 6.14424 143.491 7.57902 140.403 11.6442C139.294 13.0995 137.944 14.3225 136.801 15.7163C135.458 17.3492 135.692 18.4082 135.478 20.6833C134.964 26.156 135.425 32.387 132.758 37.3814C131.181 40.3329 128.528 42.4373 125.889 44.323C124.639 45.218 124.445 45.2932 123.904 46.6392C123.196 48.3951 123.176 50.4789 123.496 52.6789C122.073 53.2323 120.623 53.7174 119.166 54.1273C111.922 56.177 104.297 56.5391 96.8859 55.1727C95.9236 54.995 94.9547 54.7901 94.0057 54.5509C86.5145 52.713 79.3373 49.0578 73.1024 43.5509C68.645 39.6156 65.0297 35.0516 62.2898 30.0982C60.3719 26.6479 58.8817 23.0063 57.7991 19.2554C53.1947 3.15852 56.4291 -14.9265 67.9434 -28.5637C71.8126 -33.1414 76.3034 -36.8513 81.175 -39.673C91.2124 -45.4736 102.88 -47.4891 114.087 -45.5693C114.528 -45.501 114.976 -45.419 115.417 -45.3233C120.389 -44.3395 125.261 -42.5631 129.831 -39.9873C131.669 -38.9625 133.447 -37.801 135.178 -36.5233C136.314 -35.6898 137.416 -34.8016 138.485 -33.8451C141.72 -30.9824 144.513 -27.7848 146.852 -24.355Z" fill="#00B7DC"/>
<path d="M146.946 -24.3897C146.839 -19.9966 146.157 -15.4804 144.366 -11.5724C143.324 -9.29039 141.64 -7.58917 141.299 -4.98607C141.012 -2.75191 141.673 -0.948189 142.348 1.16982C143.905 6.10955 143.591 7.54433 140.497 11.6095C139.388 13.0648 138.038 14.2878 136.895 15.6816C135.552 17.3145 135.786 18.3735 135.572 20.6486C135.057 26.1213 135.519 32.3523 132.852 37.3467C131.275 40.2983 128.622 42.4026 125.982 44.2883C124.733 45.1834 124.539 45.2585 123.998 46.6045C123.289 48.3604 123.276 50.4442 123.59 52.6442C122.167 53.1976 120.716 53.6827 119.26 54.0926C112.016 56.1423 104.391 56.5044 96.9797 55.138C96.0174 54.9603 95.0484 54.7554 94.0995 54.5163C86.6082 52.6784 79.431 49.0231 73.1961 43.5163C68.7388 39.5809 65.1235 35.0169 62.3836 30.0635C60.4657 26.6132 58.9754 22.9716 57.8928 19.2207C53.2885 3.12386 56.5229 -14.9612 68.0371 -28.5984C71.9064 -33.176 76.3971 -36.886 81.2688 -39.7077C91.3061 -45.5083 102.974 -47.5238 114.181 -45.6039C114.622 -45.5356 115.07 -45.4536 115.511 -45.358C120.483 -44.3741 125.354 -42.5978 129.925 -40.022C131.763 -38.9971 133.541 -37.8425 135.271 -36.558C136.407 -35.7245 137.51 -34.8363 138.579 -33.8798C141.814 -31.0102 144.607 -27.8195 146.946 -24.3897Z" fill="#C07720"/>
<path d="M129.832 -39.9805C129.805 -38.4569 129.624 -36.8786 129.397 -35.2662C128.789 -30.9755 128.535 -27.0811 126.677 -23.1867C125.688 -21.1234 124.425 -18.6501 125.702 -16.4638C126.497 -15.0973 127.553 -14.5166 128.128 -12.911C128.722 -11.2576 128.796 -9.97994 128.549 -8.22405C128.181 -5.59362 127.185 -3.16817 125.889 -0.886189C124.592 1.39579 122.514 3.04238 121.117 5.0784C120.122 6.5405 119.58 9.28708 119.393 11.0293C119.052 14.1858 120.937 15.5864 121.284 18.2784C122.848 30.6175 106.001 25.1311 100.749 30.9044C97.6212 34.3411 98.5902 39.8888 99.5725 43.8652C100.201 46.4 100.942 49.5087 99.5057 51.9C98.9043 52.9112 97.9754 54.0727 96.8928 55.1795C95.9305 55.0019 94.9615 54.7969 94.0126 54.5578C86.5213 52.7199 79.3441 49.0646 73.1092 43.5578C68.6519 39.6224 65.0366 35.0584 62.2967 30.105C60.3787 26.6547 58.8885 23.0131 57.8059 19.2622C53.2016 3.16537 56.436 -14.9197 67.9502 -28.5569C71.8195 -33.1345 76.3102 -36.8445 81.1819 -39.6662C91.2192 -45.4668 102.887 -47.4823 114.094 -45.5624C114.535 -45.4941 114.983 -45.4121 115.424 -45.3165C120.389 -44.3258 125.261 -42.5494 129.832 -39.9805Z" fill="#D37F22"/>
<path d="M114.087 -45.5559C113.492 -44.5653 112.837 -43.6292 112.129 -42.7615C110.118 -40.3019 106.409 -38.5392 104.725 -36.0112C103.976 -34.8908 103.809 -34.6926 103.963 -33.1827C104.137 -31.3721 104.738 -30.197 104.584 -28.3933C104.31 -25.2026 103.181 -23.8566 100.628 -21.8889C97.2669 -19.2995 87.0959 -17.7076 86.7417 -13.0821C86.5278 -10.3014 88.0381 -7.507 86.8753 -4.76725C85.1245 -0.626892 80.1593 1.51846 76.2833 2.76193C72.6546 3.93025 68.4579 4.58614 68.2574 9.04761C68.0837 12.942 67.6426 14.1923 64.2345 16.5153C62.2631 17.8544 60.0846 18.8588 57.7991 19.255C53.1947 3.15819 56.4291 -14.9268 67.9434 -28.5641C71.8126 -33.1417 76.3034 -36.8516 81.175 -39.6734C91.2191 -45.4671 102.887 -47.4758 114.087 -45.5559Z" fill="#F98F26"/>
<path opacity="0.3" d="M70.4227 -2.38277C70.3291 -2.12314 70.1153 -1.86353 69.9683 -1.63123C69.8079 -1.38527 69.6475 -1.13931 69.4737 -0.900176C69.3267 -0.70204 69.1597 -0.551725 69.0661 -0.319428C68.9592 -0.0598021 68.8389 0.158824 68.6585 0.377457C68.2107 0.917207 67.6293 1.15635 67.0546 1.51846C66.7873 1.68926 66.5868 1.83957 66.2928 1.94205C65.9653 2.0582 65.6579 2.0787 65.3238 2.11286C65.1166 2.13336 64.9228 2.23584 64.7157 2.24268C64.4885 2.25634 64.2947 2.14019 64.2145 1.94205C64.1076 1.66876 63.9405 1.45697 63.74 1.24517C63.5663 1.05387 63.4126 0.869393 63.3457 0.602934C63.2589 0.247656 63.319 -0.148614 63.2856 -0.503892C63.2522 -0.893332 63.2255 -1.27595 63.2789 -1.66539C63.319 -1.97284 63.4126 -2.24614 63.4928 -2.54676C63.6264 -3.00452 63.7467 -3.42811 63.9205 -3.87904C64.0675 -4.24798 64.2279 -4.61693 64.4016 -4.97221C64.4952 -5.15668 64.6021 -5.33433 64.689 -5.5188C64.7558 -5.67594 64.7692 -5.86042 64.8493 -6.01073C64.9095 -6.12687 64.9964 -6.17469 65.0966 -6.25668C65.2904 -6.40699 65.3372 -6.5778 65.4575 -6.77594C65.5844 -6.99457 65.8116 -7.14488 65.9587 -7.34985C66.099 -7.54798 66.1057 -7.88275 66.2928 -8.03989C66.4799 -8.20387 66.7739 -8.20389 66.9276 -8.42252C67.0078 -8.53184 67.0078 -8.66848 67.0813 -8.78463C67.1415 -8.88711 67.2618 -8.98959 67.342 -9.07157C67.4957 -9.21505 67.6761 -9.21506 67.8298 -9.35854C68.1439 -9.64549 68.5114 -9.87778 68.8923 -10.0486C69.0928 -10.1374 69.3 -10.2057 69.5072 -10.2604C69.7277 -10.3082 69.8814 -10.2399 70.0952 -10.2604C70.2422 -10.274 70.3692 -10.356 70.5162 -10.3492C70.7167 -10.3355 70.8303 -10.2194 70.9773 -10.0828C71.1177 -9.94611 71.2981 -9.89144 71.4184 -9.74796C71.5186 -9.62498 71.5988 -9.48151 71.6723 -9.34486C71.7793 -9.13306 71.8194 -8.93493 71.8594 -8.70946C71.9062 -8.484 72.0466 -8.29269 72.1 -8.06723C72.1669 -7.74611 72.0666 -7.4045 72.0065 -7.09022C71.9396 -6.74177 71.8394 -6.38649 71.7859 -6.03804C71.7392 -5.71692 71.7458 -5.4368 71.6189 -5.12252C71.5053 -4.84923 71.3783 -4.62376 71.3115 -4.32997C71.2847 -4.19333 71.258 -4.05668 71.238 -3.92003C71.2313 -3.83121 71.258 -3.66041 71.2246 -3.58526C71.1578 -3.41445 70.9105 -3.23682 70.7969 -3.10017C70.5964 -2.8747 70.5296 -2.68339 70.4227 -2.38277Z" fill="#3ABFDD"/>
<path d="M70.1357 -2.55339C69.8951 -2.12979 69.6412 -1.71986 69.3538 -1.32359C69.2201 -1.13912 69.0798 -0.954656 68.9395 -0.777017C68.8726 -0.695029 68.8058 -0.592542 68.7256 -0.517386C68.6521 -0.449064 68.5786 -0.428573 68.4984 -0.373915C68.3314 -0.257766 68.2378 -0.0391321 68.1175 0.11801C67.9037 0.411798 67.7166 0.514295 67.3958 0.664604C67.1352 0.787585 67.1218 0.876396 66.928 1.06087C66.6607 1.32049 66.1461 1.40933 65.8053 1.52548C65.6048 1.5938 65.4311 1.63478 65.2172 1.62112C64.9767 1.60062 64.7495 1.55964 64.5356 1.43666C64.0344 1.14287 63.7671 0.609944 63.6602 0.0428648C63.6134 -0.223594 63.5599 -0.55155 63.6 -0.818008C63.6401 -1.10496 63.8072 -1.36459 63.8473 -1.65155C63.8874 -1.90434 63.8272 -2.13662 63.854 -2.38259C63.874 -2.53973 63.9542 -2.66954 64.0077 -2.81302C64.1413 -3.18196 64.1079 -3.63291 64.2683 -3.98136C64.3351 -4.13167 64.4621 -4.23415 64.5289 -4.38446C64.6158 -4.57576 64.6559 -4.78073 64.7628 -4.95837C64.8764 -5.14284 64.9767 -5.33415 65.0635 -5.53911C65.1304 -5.68942 65.1504 -5.79874 65.2707 -5.92172C65.3776 -6.03104 65.4979 -6.11984 65.5848 -6.24966C65.7385 -6.48195 65.7452 -6.74843 65.959 -6.94656C66.0927 -7.06954 66.2664 -7.13785 66.4001 -7.2745C66.5872 -7.45897 66.7877 -7.71861 66.9213 -7.95091C66.9948 -8.08072 67.0416 -8.22418 67.1285 -8.34033C67.2421 -8.49064 67.4092 -8.5453 67.5495 -8.66145C67.897 -8.95524 68.2779 -9.21487 68.6855 -9.413C69.0999 -9.61114 69.5944 -9.79562 70.0622 -9.7683C70.2025 -9.76146 70.403 -9.73413 70.5099 -9.63164C70.57 -9.57698 70.5634 -9.5155 70.6302 -9.46767C70.6903 -9.42668 70.824 -9.44717 70.8841 -9.41984C71.0512 -9.36518 71.0913 -9.29685 71.1448 -9.13288C71.2784 -8.73661 71.4522 -8.38133 71.5123 -7.95773C71.5658 -7.56145 71.5658 -7.15836 71.5324 -6.75526C71.4388 -5.75775 71.1448 -4.78072 70.7572 -3.85836C70.5834 -3.40743 70.3696 -2.97016 70.1357 -2.55339Z" fill="#704807"/>
<path d="M70.1355 -2.55362C68.6654 0.0768051 66.5804 1.77121 65.1369 1.62773C64.2882 0.425247 64.6558 -2.26668 66.1193 -4.89711C67.5894 -7.52754 69.6744 -9.22194 71.1179 -9.07846C71.9733 -7.87598 71.6057 -5.18405 70.1355 -2.55362Z" fill="#996407"/>
<path opacity="0.3" d="M86.0468 38.3101C86.254 38.4535 86.4478 38.7063 86.6215 38.8908C86.8086 39.0889 86.9891 39.2939 87.1628 39.5057C87.3098 39.6833 87.4101 39.8678 87.5905 40.0045C87.7977 40.1548 87.9714 40.3187 88.1251 40.5306C88.5127 41.0566 88.5996 41.6442 88.8001 42.2523C88.8936 42.5324 88.9872 42.751 89.0206 43.0517C89.054 43.3728 89.0072 43.6734 88.9738 43.9877C88.9538 44.1858 89.0005 44.3839 88.9671 44.5752C88.9337 44.787 88.7867 44.9442 88.5929 44.9783C88.3256 45.0193 88.1051 45.1355 87.8779 45.2722C87.6707 45.3951 87.4769 45.4976 87.2296 45.5044C86.8955 45.5113 86.5614 45.3746 86.2339 45.3268C85.8797 45.279 85.5389 45.2175 85.2048 45.0877C84.9375 44.9852 84.717 44.8485 84.4697 44.7051C84.0888 44.4864 83.7413 44.2883 83.3804 44.0355C83.0797 43.8237 82.7924 43.5982 82.5117 43.3659C82.3647 43.243 82.231 43.1063 82.084 42.9902C81.957 42.8945 81.8033 42.8467 81.683 42.7374C81.5962 42.6554 81.5627 42.5666 81.516 42.4572C81.4224 42.2523 81.2821 42.1635 81.1284 42.0131C80.9613 41.8492 80.8744 41.61 80.7207 41.4324C80.5737 41.2616 80.2797 41.1864 80.1727 40.9746C80.0658 40.7628 80.126 40.4964 79.9656 40.3051C79.8854 40.2094 79.7651 40.1753 79.6782 40.0933C79.6047 40.0181 79.5312 39.8883 79.4778 39.7927C79.3842 39.6218 79.4176 39.4579 79.324 39.2802C79.1303 38.9318 79.0033 38.5423 78.9298 38.1461C78.8897 37.9411 78.8696 37.7361 78.8696 37.5312C78.8696 37.3194 78.9632 37.1896 78.9899 36.9846C79.01 36.848 78.9565 36.7113 79.0033 36.5747C79.0634 36.3902 79.1837 36.3082 79.3374 36.2057C79.4844 36.1032 79.5713 35.9461 79.725 35.8641C79.852 35.7958 79.999 35.7479 80.1393 35.7138C80.3465 35.6591 80.5336 35.666 80.7408 35.666C80.9546 35.6728 81.1484 35.5771 81.3623 35.5771C81.663 35.5771 81.9437 35.7479 82.2043 35.8641C82.4983 36.0007 82.7923 36.1647 83.0931 36.2877C83.3671 36.397 83.621 36.4517 83.8683 36.6361C84.0888 36.8001 84.2558 36.9641 84.5031 37.0802C84.6167 37.1349 84.7303 37.1896 84.8506 37.2305C84.9241 37.2579 85.0845 37.2715 85.1446 37.3125C85.2783 37.4082 85.3919 37.6747 85.4855 37.8113C85.6525 38.0436 85.8062 38.1461 86.0468 38.3101Z" fill="#3ABFDD"/>
<path d="M85.8392 38.5425C86.1667 38.8499 86.4807 39.1779 86.7681 39.5195C86.9084 39.6835 87.0421 39.8474 87.1691 40.0182C87.2292 40.1002 87.3027 40.1822 87.3562 40.271C87.4029 40.353 87.4029 40.4213 87.4364 40.5102C87.5032 40.6878 87.6769 40.8176 87.7972 40.9611C88.0111 41.2207 88.0645 41.412 88.1314 41.7468C88.1848 42.0133 88.265 42.0474 88.3853 42.2592C88.559 42.5598 88.5323 43.0586 88.5657 43.3934C88.5858 43.5984 88.5858 43.7623 88.5256 43.9605C88.4588 44.1791 88.3719 44.3841 88.2182 44.5549C87.8574 44.958 87.3228 45.0946 86.8015 45.0741C86.5542 45.0673 86.2535 45.0468 86.0263 44.958C85.7791 44.8623 85.5853 44.6573 85.338 44.5549C85.1242 44.466 84.9036 44.4797 84.6898 44.3977C84.5561 44.3499 84.4559 44.2474 84.3423 44.1654C84.0483 43.9605 83.6339 43.9058 83.3599 43.6803C83.2463 43.5847 83.1795 43.4549 83.0592 43.3592C82.9055 43.2362 82.7385 43.1611 82.5981 43.0244C82.4578 42.881 82.3041 42.7443 82.1437 42.6282C82.0234 42.5393 81.9365 42.4915 81.8497 42.3549C81.7761 42.2319 81.7227 42.1021 81.6224 41.9928C81.4487 41.8015 81.2081 41.74 81.0812 41.5008C81.001 41.3505 80.9742 41.1729 80.8874 41.0226C80.7604 40.8108 80.5733 40.5717 80.3928 40.4008C80.2926 40.3052 80.179 40.2369 80.0921 40.1276C79.9852 39.9909 79.9718 39.8201 79.8983 39.6698C79.7112 39.2872 79.5575 38.8773 79.4639 38.4605C79.3704 38.0301 79.3169 37.5381 79.4372 37.1077C79.4706 36.9779 79.5375 36.8002 79.6511 36.7182C79.7179 36.6704 79.7647 36.6909 79.8181 36.6431C79.8649 36.5953 79.8783 36.4723 79.9117 36.4176C79.9986 36.2741 80.0654 36.2537 80.2191 36.2332C80.6 36.1853 80.9542 36.1033 81.3351 36.1375C81.696 36.1648 82.0568 36.2537 82.4043 36.3698C83.2731 36.6636 84.075 37.135 84.8101 37.6884C85.1709 37.9481 85.5184 38.235 85.8392 38.5425Z" fill="#704807"/>
<path d="M85.8396 38.5425C87.8712 40.4487 88.9404 42.7375 88.5127 44.0425C87.2764 44.5822 84.9575 43.6872 82.926 41.7742C80.8945 39.868 79.8252 37.5792 80.2529 36.2742C81.4959 35.7344 83.8148 36.6363 85.8396 38.5425Z" fill="#996407"/>
<path opacity="0.3" d="M120.964 41.4806C121.151 41.3029 121.432 41.1731 121.645 41.0365C121.879 40.893 122.113 40.7563 122.354 40.6334C122.561 40.524 122.761 40.4694 122.929 40.3191C123.122 40.1483 123.316 40.0116 123.55 39.9023C124.145 39.6358 124.726 39.6837 125.354 39.6154C125.648 39.588 125.876 39.5402 126.17 39.5743C126.49 39.6153 126.758 39.7247 127.058 39.834C127.239 39.9023 127.439 39.9023 127.62 39.9775C127.82 40.0595 127.934 40.2439 127.92 40.4421C127.9 40.7154 127.961 40.9681 128.041 41.2278C128.114 41.4601 128.168 41.6855 128.114 41.9315C128.047 42.2663 127.834 42.5737 127.72 42.888C127.593 43.2296 127.459 43.5576 127.259 43.865C127.098 44.111 126.918 44.3023 126.724 44.5141C126.43 44.842 126.156 45.1495 125.829 45.4501C125.561 45.7029 125.274 45.942 124.987 46.1675C124.84 46.2837 124.673 46.3861 124.526 46.5091C124.405 46.6116 124.325 46.7619 124.192 46.8507C124.098 46.9191 123.998 46.9259 123.884 46.9532C123.664 47.001 123.55 47.1172 123.37 47.2402C123.176 47.37 122.928 47.4042 122.721 47.5135C122.521 47.6228 122.381 47.8961 122.16 47.9576C121.933 48.0191 121.692 47.8961 121.472 48.0122C121.365 48.0737 121.305 48.1899 121.198 48.2513C121.104 48.3128 120.964 48.3538 120.864 48.3812C120.676 48.4358 120.529 48.3607 120.336 48.4222C119.955 48.5315 119.554 48.5725 119.159 48.5588C118.959 48.552 118.752 48.5246 118.558 48.4768C118.351 48.429 118.251 48.306 118.064 48.2309C117.937 48.1762 117.796 48.2035 117.676 48.1284C117.509 48.0259 117.462 47.8892 117.395 47.7116C117.335 47.5408 117.201 47.4178 117.155 47.247C117.121 47.1035 117.108 46.9464 117.101 46.8029C117.095 46.5843 117.141 46.3998 117.195 46.188C117.248 45.9762 117.201 45.7576 117.255 45.5458C117.322 45.2452 117.549 45.006 117.723 44.7669C117.917 44.5004 118.144 44.2476 118.331 43.9743C118.498 43.7215 118.611 43.4824 118.839 43.2775C119.046 43.093 119.24 42.9632 119.413 42.7445C119.494 42.6421 119.567 42.5396 119.641 42.4303C119.681 42.3619 119.734 42.2048 119.788 42.1501C119.915 42.034 120.195 41.9861 120.342 41.9247C120.623 41.8153 120.757 41.6855 120.964 41.4806Z" fill="#3ABFDD"/>
<path d="M121.137 41.7399C121.504 41.4803 121.892 41.2411 122.286 41.0293C122.473 40.9269 122.667 40.8312 122.854 40.7424C122.948 40.7014 123.041 40.6467 123.135 40.6126C123.222 40.5853 123.289 40.5989 123.382 40.5852C123.569 40.5579 123.73 40.4144 123.897 40.3325C124.198 40.1753 124.391 40.1685 124.725 40.1753C124.993 40.1821 125.046 40.1138 125.28 40.0387C125.608 39.9362 126.075 40.0728 126.41 40.1207C126.61 40.148 126.77 40.189 126.944 40.2915C127.138 40.4076 127.312 40.5443 127.445 40.7356C127.753 41.1933 127.759 41.7536 127.619 42.2728C127.552 42.5119 127.465 42.8126 127.325 43.0244C127.178 43.2498 126.937 43.4002 126.784 43.6256C126.65 43.8169 126.61 44.0424 126.49 44.2405C126.41 44.3635 126.289 44.4386 126.189 44.5343C125.928 44.7871 125.775 45.1834 125.501 45.4088C125.38 45.5045 125.24 45.5387 125.12 45.6343C124.966 45.7573 124.859 45.9144 124.692 46.0169C124.525 46.1262 124.358 46.2424 124.211 46.379C124.097 46.4815 124.03 46.5567 123.883 46.6113C123.75 46.6591 123.609 46.6796 123.489 46.7548C123.269 46.8846 123.155 47.1101 122.888 47.1852C122.727 47.2331 122.547 47.2194 122.387 47.2741C122.153 47.3492 121.879 47.4858 121.678 47.6293C121.565 47.7045 121.471 47.807 121.344 47.8685C121.19 47.9436 121.023 47.9231 120.856 47.9573C120.442 48.0529 120.021 48.1212 119.6 48.1144C119.172 48.1076 118.684 48.0529 118.303 47.8343C118.19 47.766 118.029 47.6635 117.983 47.5337C117.956 47.4585 117.983 47.4107 117.949 47.3492C117.916 47.2945 117.796 47.2467 117.755 47.2057C117.642 47.0896 117.635 47.0144 117.649 46.8573C117.695 46.4678 117.689 46.0921 117.809 45.7163C117.923 45.361 118.09 45.0194 118.277 44.6983C118.751 43.8989 119.393 43.1952 120.088 42.5871C120.415 42.2728 120.769 41.9927 121.137 41.7399Z" fill="#704807"/>
<path d="M121.137 41.7398C123.43 40.1411 125.862 39.5945 127.018 40.3187C127.252 41.6852 125.862 43.7963 123.57 45.3951C121.278 46.9938 118.845 47.5404 117.689 46.8162C117.462 45.4497 118.852 43.3386 121.137 41.7398Z" fill="#996407"/>
<path opacity="0.3" d="M143.27 3.72538C143.23 3.47259 143.284 3.15831 143.304 2.89868C143.324 2.61856 143.344 2.34527 143.377 2.07198C143.404 1.83968 143.477 1.64155 143.444 1.40925C143.411 1.14962 143.417 0.910481 143.464 0.650855C143.584 -0.00504398 143.952 -0.469633 144.259 -1.02988C144.4 -1.28951 144.493 -1.51498 144.687 -1.74044C144.901 -1.9864 145.141 -2.15036 145.402 -2.34167C145.562 -2.45781 145.669 -2.62863 145.836 -2.73111C146.017 -2.84726 146.224 -2.84725 146.384 -2.72427C146.592 -2.55346 146.825 -2.45781 147.086 -2.38266C147.313 -2.31433 147.52 -2.23235 147.694 -2.04788C147.921 -1.80192 148.055 -1.44664 148.242 -1.17335C148.449 -0.872732 148.636 -0.572108 148.77 -0.230494C148.877 0.0427969 148.924 0.302411 148.991 0.589367C149.091 1.02663 149.184 1.42974 149.245 1.87384C149.291 2.24278 149.325 2.61856 149.345 2.9875C149.352 3.17881 149.345 3.37695 149.365 3.56825C149.378 3.72539 149.452 3.88254 149.452 4.03968C149.452 4.16266 149.405 4.24464 149.358 4.35396C149.271 4.56576 149.305 4.72973 149.298 4.94836C149.291 5.18749 149.178 5.41296 149.151 5.65209C149.124 5.88438 149.271 6.15767 149.191 6.37631C149.111 6.60177 148.87 6.73843 148.85 6.99123C148.837 7.12104 148.897 7.23034 148.89 7.36016C148.884 7.46947 148.837 7.61296 148.804 7.71545C148.743 7.89992 148.596 7.98873 148.536 8.18004C148.409 8.56264 148.215 8.92475 147.982 9.24587C147.861 9.40985 147.721 9.56698 147.574 9.71046C147.42 9.85394 147.26 9.87443 147.093 9.98375C146.979 10.0657 146.919 10.1956 146.785 10.2571C146.612 10.339 146.471 10.3049 146.291 10.2571C146.117 10.2161 145.943 10.257 145.783 10.1955C145.649 10.1477 145.516 10.0657 145.395 9.98375C145.215 9.86077 145.095 9.71729 144.954 9.56015C144.814 9.39618 144.614 9.30735 144.466 9.15021C144.266 8.92474 144.199 8.59681 144.106 8.30985C144.005 7.99557 143.925 7.66079 143.812 7.35334C143.705 7.06638 143.571 6.84091 143.538 6.53346C143.504 6.25333 143.511 6.01421 143.431 5.74775C143.391 5.62477 143.357 5.50178 143.304 5.3788C143.27 5.30364 143.17 5.17383 143.163 5.09867C143.143 4.92787 143.264 4.66141 143.29 4.50427C143.35 4.20365 143.317 4.01917 143.27 3.72538Z" fill="#3ABFDD"/>
<path d="M143.578 3.72534C143.578 3.26758 143.604 2.80983 143.658 2.35207C143.685 2.13344 143.711 1.92163 143.751 1.70983C143.771 1.60735 143.778 1.49804 143.812 1.39555C143.838 1.30673 143.892 1.2589 143.932 1.17008C144.019 0.999271 143.992 0.780633 144.019 0.58933C144.065 0.247716 144.166 0.0769131 144.36 -0.196378C144.513 -0.415011 144.486 -0.49699 144.56 -0.742952C144.66 -1.07773 145.041 -1.39203 145.262 -1.65166C145.395 -1.80197 145.522 -1.91811 145.703 -2.00693C145.91 -2.10941 146.117 -2.17773 146.338 -2.17773C146.879 -2.17773 147.34 -1.87028 147.674 -1.45351C147.834 -1.26221 148.022 -1.01624 148.115 -0.783944C148.209 -0.53115 148.195 -0.244206 148.289 0.0154209C148.369 0.234054 148.529 0.398025 148.616 0.609826C148.67 0.746471 148.663 0.889967 148.683 1.03344C148.737 1.39556 148.971 1.74399 148.997 2.1061C149.011 2.25641 148.957 2.39989 148.964 2.55703C148.977 2.75517 149.044 2.9328 149.031 3.13094C149.024 3.33591 149.024 3.54089 149.051 3.74586C149.064 3.903 149.091 3.99864 149.051 4.15578C149.011 4.29243 148.95 4.42225 148.944 4.57256C148.924 4.83219 149.037 5.05765 148.95 5.31728C148.897 5.48125 148.783 5.62473 148.737 5.7887C148.663 6.02783 148.623 6.33527 148.616 6.58807C148.616 6.72471 148.643 6.8682 148.623 7.00485C148.596 7.17566 148.483 7.30546 148.423 7.4626C148.269 7.8657 148.082 8.25516 147.834 8.61044C147.587 8.97255 147.266 9.34832 146.872 9.54646C146.752 9.60795 146.578 9.6831 146.444 9.64894C146.364 9.62844 146.351 9.58062 146.277 9.57379C146.211 9.56696 146.11 9.64894 146.05 9.65578C145.89 9.68994 145.823 9.64894 145.709 9.54646C145.422 9.28683 145.115 9.07502 144.881 8.76757C144.654 8.47378 144.473 8.13901 144.326 7.7974C143.952 6.94336 143.745 6.00733 143.651 5.07814C143.598 4.63404 143.578 4.17627 143.578 3.72534Z" fill="#704807"/>
<path d="M143.578 3.72492C143.584 0.889524 144.52 -1.47442 145.756 -2.0415C146.986 -1.46759 147.908 0.903202 147.901 3.7386C147.895 6.57399 146.959 8.93796 145.723 9.50504C144.487 8.9243 143.571 6.56032 143.578 3.72492Z" fill="#996407"/>
<path opacity="0.3" d="M105.293 5.25597C104.992 4.99634 104.852 4.6479 104.564 4.36094C104.27 4.06032 103.943 3.8007 103.595 3.57524C103.375 3.43176 103.141 3.30876 102.9 3.19945C102.713 3.11746 102.493 3.07648 102.319 2.9535C101.898 2.65288 101.497 2.47523 101.002 2.60504C100.434 2.75535 99.8463 2.82368 99.2917 3.01498C98.9776 3.1243 98.7036 3.28143 98.4497 3.49323C98.2893 3.62304 98.1556 3.78703 97.9886 3.91001C97.8415 4.01933 97.6945 4.06714 97.5675 4.19696C97.3537 4.42242 97.1532 4.66839 96.9862 4.92801C96.8124 5.18764 96.7656 5.37894 96.6921 5.67273C96.632 5.91186 96.6186 6.18516 96.505 6.40379C96.3914 6.63609 96.1909 6.82738 96.1308 7.08018C95.9838 7.67459 95.9904 8.23483 96.104 8.82924C96.1508 9.08887 96.1174 9.33485 96.1508 9.59447C96.1909 9.96341 96.4515 10.1547 96.5785 10.4827C96.7188 10.8379 96.7589 11.1317 97.0062 11.4324C97.2 11.6715 97.4138 11.8901 97.5341 12.1771C97.6878 12.5392 98.0754 12.6827 98.3227 12.9628C98.6034 13.2771 98.9776 13.4889 99.3585 13.6733C100.147 14.0491 101.029 14.2267 101.898 14.1447C102.232 14.1038 102.566 14.0423 102.894 13.933C103.007 13.8988 103.114 13.8373 103.228 13.7963C103.575 13.6802 103.896 13.6597 104.19 13.3932C104.417 13.1882 104.631 12.9491 104.872 12.7646C105.072 12.6143 105.306 12.5392 105.52 12.4162C105.774 12.259 105.814 12.0199 105.847 11.7398C105.881 11.4733 105.894 11.2137 105.954 10.9677C105.974 10.9199 106.001 10.8789 106.014 10.8311C106.041 10.7491 106.068 10.6671 106.095 10.5851C106.108 10.5578 106.121 10.5305 106.135 10.4963C106.215 10.3733 106.235 10.2435 106.222 10.1069V10.1001C106.262 9.89508 106.382 9.67644 106.389 9.47147C106.395 9.25284 106.262 9.07521 106.262 8.86341C106.262 8.59695 106.382 8.351 106.362 8.0777C106.335 7.6746 106.242 7.27148 106.135 6.86838C106.055 6.56776 105.961 6.26715 105.874 5.98019C105.754 5.59075 105.587 5.50876 105.293 5.25597Z" fill="#3ABFDD"/>
<path d="M105.413 7.09401C106.222 9.71077 104.992 12.4437 102.66 13.2021C102.353 13.2977 102.039 13.3524 101.738 13.448C101.451 13.5437 101.29 13.4549 100.996 13.3934C100.749 13.3455 100.508 13.3797 100.268 13.3182C99.7732 13.1952 99.272 12.9014 98.9245 12.5188C98.7241 12.3002 98.5035 12.1909 98.2964 11.9927C98.1226 11.8288 98.0491 11.6033 97.8687 11.4393C97.715 11.3027 97.4878 11.2139 97.3942 11.0157C97.3073 10.8381 97.2806 10.64 97.187 10.4555C96.9665 10.0182 96.7527 9.54679 96.7126 9.04803C96.6858 8.74741 96.873 8.4263 96.8663 8.11201C96.8663 7.7499 96.6792 7.38779 96.7259 7.02568C96.7594 6.76606 96.9197 6.4381 97.0467 6.2058C97.2338 5.85736 97.4878 5.56357 97.715 5.24929C97.9021 4.98966 98.0157 4.69587 98.2696 4.49773C98.5436 4.2791 98.9379 4.08098 99.2386 3.91701C100.094 3.44558 101.217 3.42506 102.132 3.70519C103.609 4.14929 104.885 5.38594 105.413 7.09401Z" fill="#704807"/>
<path d="M105.414 7.0939C106.222 9.71066 104.993 12.4436 102.66 13.202C102.38 13.2908 102.092 13.3523 101.798 13.3864C100.328 12.9492 99.0451 11.7125 98.5172 9.99762C97.7019 7.37402 98.9382 4.64111 101.27 3.88956C101.558 3.79391 101.852 3.73924 102.146 3.71191C103.609 4.14918 104.886 5.38583 105.414 7.0939Z" fill="#996407"/>
<path opacity="0.3" d="M123.369 15.3607C123.443 15.634 123.503 15.9141 123.523 16.1942C123.536 16.3855 123.456 16.5495 123.456 16.734C123.456 16.8843 123.549 17.0005 123.543 17.1508C123.536 17.2942 123.456 17.4446 123.429 17.5812C123.396 17.752 123.342 17.9228 123.282 18.0799C123.162 18.4079 122.995 18.7222 122.794 19.0023C122.38 19.5694 121.805 19.9998 121.144 20.2116C120.917 20.2868 120.689 20.3278 120.462 20.3551C119.867 20.4098 119.259 20.2936 118.718 20.034C118.457 19.911 118.197 19.7675 118.01 19.5489C117.843 19.3576 117.569 19.2619 117.468 19.0091C117.388 18.811 117.241 18.6607 117.101 18.4967C116.934 18.2918 116.9 18.0868 116.807 17.8408C116.72 17.6153 116.539 17.4855 116.513 17.2259C116.493 17.0483 116.513 16.8775 116.479 16.6998C116.399 16.2899 116.399 15.9073 116.499 15.4973C116.539 15.3197 116.68 15.1899 116.76 15.0328C116.833 14.8824 116.847 14.6911 116.887 14.5272C116.94 14.3222 116.974 14.1924 117.094 14.0148C117.214 13.8371 117.348 13.6663 117.495 13.5092C117.582 13.4203 117.682 13.3862 117.782 13.311C117.896 13.229 117.99 13.1129 118.096 13.0241C118.277 12.8806 118.464 12.7644 118.678 12.6961C119.059 12.5663 119.466 12.5185 119.854 12.416C120.195 12.3272 120.475 12.4501 120.763 12.6551C120.883 12.7371 121.03 12.7644 121.164 12.8259C121.324 12.9011 121.485 12.9831 121.638 13.0856C121.879 13.2427 122.106 13.4203 122.307 13.6253C122.5 13.8234 122.601 14.0626 122.808 14.2402C123.008 14.411 123.128 14.4725 123.202 14.739C123.249 14.9508 123.309 15.1557 123.369 15.3607Z" fill="#3ABFDD"/>
<path d="M122.875 15.5179C123.429 17.3147 122.587 19.1936 120.984 19.7129C120.79 19.7744 120.589 19.8154 120.389 19.8359C118.965 19.9657 117.555 18.975 117.067 17.3967C116.506 15.593 117.362 13.7141 118.959 13.1949C119.513 13.0172 120.088 13.0241 120.623 13.1812C121.638 13.4955 122.514 14.3427 122.875 15.5179Z" fill="#704807"/>
<path d="M122.875 15.5183C123.429 17.3152 122.587 19.194 120.983 19.7133C120.79 19.7748 120.589 19.8158 120.389 19.8363C119.38 19.5357 118.498 18.6884 118.13 17.5065C117.569 15.7027 118.424 13.8239 120.021 13.3046C120.222 13.2431 120.422 13.2021 120.623 13.1816C121.638 13.4959 122.514 14.3431 122.875 15.5183Z" fill="#996407"/>
<path opacity="0.31" d="M152.245 -22.7293C152.245 -22.7908 152.252 -22.8455 152.252 -22.9069C149.679 -26.6784 146.605 -30.1902 143.05 -33.333C141.867 -34.3783 140.657 -35.3622 139.408 -36.2777C137.51 -37.692 135.545 -38.956 133.527 -40.0901C128.501 -42.9187 123.142 -44.8727 117.676 -45.959C117.188 -46.0547 116.7 -46.1504 116.219 -46.2255C107.718 -47.6808 98.9708 -47.0795 90.7444 -44.4696C87.0088 -43.2945 83.3801 -41.7025 79.9319 -39.7075C74.5791 -36.6057 69.6339 -32.5268 65.3771 -27.4914C52.7067 -12.4945 49.1582 7.3942 54.217 25.1035C55.3998 29.2233 57.0505 33.2339 59.1555 37.0258C62.1761 42.4711 66.1522 47.4928 71.0506 51.8177C77.907 57.8711 85.8059 61.8953 94.039 63.9176C95.0881 64.1773 96.144 64.4096 97.2065 64.6009C105.353 66.1108 113.739 65.7077 121.705 63.4531C122.514 63.2276 123.316 62.9748 124.118 62.7083C124.94 62.435 125.762 62.1413 126.57 61.827V61.8201C134.83 58.6226 142.448 53.3276 148.63 46.0239C165.363 26.1966 166.185 -2.15731 152.245 -22.7293Z" fill="#47C7E3"/>
<path d="M193.735 267.644C193.735 276.838 186.097 284.288 176.67 284.288C167.244 284.288 159.605 276.838 159.605 267.644C159.605 258.45 167.244 251 176.67 251C186.097 251 193.735 258.45 193.735 267.644Z" fill="#CA57A2"/>
<path d="M160.173 272.637C155.623 271.686 154.81 277.313 157.654 279.77C162.449 283.892 172.85 279.849 177.889 278.027C184.471 275.649 190.809 271.686 194.466 265.662C196.579 262.096 197.31 255.121 191.297 255.28C190.891 255.28 190.891 255.993 191.297 255.914C195.441 258.608 196.417 261.541 194.304 264.711C193.897 265.504 193.329 266.296 192.76 267.01C191.785 268.278 190.728 269.467 189.509 270.576C186.99 272.875 184.065 274.698 180.895 276.045C177.97 277.392 174.801 278.344 171.632 279.136C170.25 279.453 168.869 279.77 167.487 280.008C166.024 280.325 164.562 280.484 163.099 280.642C157.898 281.038 156.842 278.423 160.011 272.954C160.336 273.033 160.417 272.716 160.173 272.637Z" fill="white"/>
<path d="M340.387 188.798C338.647 186.856 336.08 185.708 333.502 185.718C330.924 185.732 328.376 186.904 326.67 188.862C327.484 188.921 328.299 188.978 329.114 189.038C328.337 189.625 327.535 190.239 327.08 191.106C326.624 191.973 326.625 193.175 327.345 193.838C327.924 194.373 328.786 194.42 329.563 194.363C330.341 194.302 331.148 194.17 331.884 194.437C332.621 194.704 333.225 195.558 332.914 196.284C332.397 197.485 330.165 197.071 329.799 198.329C329.588 199.054 330.234 199.757 330.904 200.09C333.297 201.29 336.321 199.997 337.92 197.834C339.519 195.671 340.009 192.879 340.312 190.187" fill="url(#paint0_linear_475_2)"/>
<path fill-rule="evenodd" clip-rule="evenodd" d="M340.706 197.25C340.706 197.25 338.839 196.611 334.553 190.172L334.512 190.11C330.231 183.662 330.347 181.66 330.347 181.66C353.514 163.343 366.817 167.986 366.817 167.986C366.817 167.986 366.085 182.263 340.706 197.25Z" fill="#D8D8D8"/>
<path fill-rule="evenodd" clip-rule="evenodd" d="M341.551 174.112C341.551 174.112 338.456 175.785 335.647 177.809C332.838 179.832 330.401 181.725 330.401 181.725L320.449 184.724C320.449 184.724 330.009 175.948 335.846 173.476C337.926 172.597 341.551 174.112 341.551 174.112Z" fill="#0075BA"/>
<path fill-rule="evenodd" clip-rule="evenodd" d="M360.43 179.446C357.634 182.918 354.394 186.062 351.504 188.33C344.524 193.809 339.742 196.61 339.742 196.61C339.742 196.61 339.061 196.104 337.727 194.514C336.329 192.848 335.358 191.385 335.358 191.385C335.358 191.385 355.899 177.13 357.539 175.777" fill="#B3B3B3"/>
<path fill-rule="evenodd" clip-rule="evenodd" d="M358.854 174.624C362.771 171.384 366.82 167.911 366.82 167.911C366.82 167.911 365.17 172.529 361.367 178.061" fill="#B3B3B3"/>
<path fill-rule="evenodd" clip-rule="evenodd" d="M353.704 168.728C353.704 168.728 354.553 171.211 356.892 174.741C359.253 178.303 361.119 180.083 361.119 180.083C361.119 180.083 363.08 177.693 364.889 174.013C366.668 170.394 366.82 167.926 366.82 167.926C366.82 167.926 364.287 167.069 360.064 167.51C355.82 167.955 353.704 168.728 353.704 168.728Z" fill="#0075BA"/>
<path opacity="0.47" fill-rule="evenodd" clip-rule="evenodd" d="M366.82 167.92C366.82 167.92 363.192 167.631 359.039 168.613C356.502 169.215 354.681 169.919 354.681 169.919C354.681 169.919 354.888 170.478 355.359 171.309C355.359 171.309 357.259 170.356 359.9 169.5C363.599 168.302 366.82 167.92 366.82 167.92Z" fill="white"/>
<path opacity="0.47" fill-rule="evenodd" clip-rule="evenodd" d="M353.874 170.247C353.874 170.247 354.055 170.64 354.213 170.954C354.437 171.405 354.597 171.703 354.597 171.703C354.597 171.703 348.647 174.672 343.975 177.582C340.013 180.048 332.106 186.127 332.106 186.127C332.106 186.127 331.818 185.608 331.474 184.901C331.114 184.162 330.968 183.777 330.968 183.777C330.968 183.777 338.171 178.308 343.556 175.131C348.469 172.23 353.874 170.247 353.874 170.247Z" fill="white"/>
<path fill-rule="evenodd" clip-rule="evenodd" d="M360.437 179.375C365.196 173.358 366.82 167.917 366.82 167.917C366.82 167.917 362.666 172.015 357.543 175.706C357.543 175.706 358.272 176.756 359.056 177.74C359.775 178.641 360.437 179.375 360.437 179.375Z" fill="url(#paint1_linear_475_2)"/>
<path fill-rule="evenodd" clip-rule="evenodd" d="M340.73 174.568C340.73 174.568 338.242 173.81 336.427 174.353C332.99 175.381 323.1 183.491 323.1 183.491L330.401 181.724C330.401 181.724 335.029 178.17 336.953 176.912C338.813 175.692 340.73 174.568 340.73 174.568Z" fill="url(#paint2_linear_475_2)"/>
<path fill-rule="evenodd" clip-rule="evenodd" d="M351.779 189.604C351.779 189.604 349.095 191.898 346.19 193.79C343.284 195.682 340.646 197.274 340.646 197.274L334.183 205.542C334.183 205.542 345.782 199.807 350.228 195.22C351.812 193.592 351.779 189.604 351.779 189.604Z" fill="#0075BA"/>
<path fill-rule="evenodd" clip-rule="evenodd" d="M351.054 190.204C351.054 190.204 350.817 192.836 349.643 194.345C347.415 197.204 336.299 203.5 336.299 203.5L340.647 197.274C340.647 197.274 345.629 194.238 347.501 192.892C349.309 191.59 351.054 190.204 351.054 190.204Z" fill="url(#paint3_linear_475_2)"/>
<path d="M350.066 181.93C351.53 182.127 352.869 181.079 353.056 179.589C353.244 178.1 352.209 176.734 350.745 176.538C349.281 176.341 347.942 177.389 347.754 178.879C347.567 180.368 348.602 181.734 350.066 181.93Z" fill="#00263E"/>
<path fill-rule="evenodd" clip-rule="evenodd" d="M353.317 177.238C352.225 175.597 350.041 175.163 348.433 176.264C346.825 177.368 346.406 179.59 347.494 181.23C348.582 182.87 350.77 183.305 352.378 182.201C353.986 181.1 354.408 178.875 353.317 177.238ZM348.195 180.751C347.368 179.505 347.688 177.816 348.907 176.976C350.128 176.139 351.789 176.467 352.616 177.713C353.443 178.96 353.127 180.649 351.905 181.485C350.683 182.329 349.022 181.998 348.195 180.751Z" fill="#585857"/>
<path opacity="0.47" fill-rule="evenodd" clip-rule="evenodd" d="M352.354 176.484C352.362 176.446 352.348 176.405 352.315 176.384C352.133 176.269 351.538 175.915 350.934 175.841C350.364 175.771 349.821 175.852 349.613 175.89C349.564 175.899 349.532 175.944 349.539 175.994L349.547 176.034C349.553 176.084 349.604 176.12 349.653 176.11C350.612 175.958 350.966 176.021 351.428 176.174C351.843 176.311 352.087 176.452 352.212 176.537C352.265 176.577 352.339 176.551 352.354 176.484Z" fill="white"/>
<path opacity="0.28" fill-rule="evenodd" clip-rule="evenodd" d="M351.216 182.048C351.088 182.093 350.872 182.163 350.685 182.181C350.63 182.187 350.592 182.234 350.598 182.287C350.604 182.341 350.648 182.379 350.699 182.38C350.836 182.375 351.094 182.351 351.292 182.269C351.336 182.252 351.361 182.206 351.354 182.159L351.349 182.125C351.337 182.064 351.274 182.026 351.216 182.048Z" fill="white"/>
<path opacity="0.61" fill-rule="evenodd" clip-rule="evenodd" d="M341.546 174.09C341.546 174.09 339.859 177.545 339.587 181.998C339.201 188.288 339.785 196.662 339.785 196.662C339.785 196.662 337.585 195.352 332.359 186.649C329.812 182.405 330.365 181.718 330.365 181.718C330.365 181.718 335.218 178.005 337.526 176.498C339.565 175.166 341.546 174.09 341.546 174.09Z" fill="url(#paint4_linear_475_2)"/>
<path d="M350.066 181.93C351.53 182.127 352.869 181.079 353.056 179.589C353.244 178.1 352.209 176.734 350.745 176.538C349.281 176.341 347.942 177.389 347.754 178.879C347.567 180.368 348.602 181.734 350.066 181.93Z" fill="url(#paint5_radial_475_2)"/>
<mask id="mask0_475_2" style="mask-type:alpha" maskUnits="userSpaceOnUse" x="931" y="27" width="41" height="42">
<path d="M951.305 68.8639C962.351 68.8639 971.305 59.7091 971.305 48.4161C971.305 37.1231 962.351 27.9683 951.305 27.9683C940.259 27.9683 931.305 37.1231 931.305 48.4161C931.305 59.7091 940.259 68.8639 951.305 68.8639Z" fill="url(#paint6_linear_475_2)"/>
</mask>
<g mask="url(#mask0_475_2)">
<path d="M951.305 68.8639C962.351 68.8639 971.305 59.7091 971.305 48.4161C971.305 37.1231 962.351 27.9683 951.305 27.9683C940.259 27.9683 931.305 37.1231 931.305 48.4161C931.305 59.7091 940.259 68.8639 951.305 68.8639Z" fill="url(#paint7_linear_475_2)"/>
<path opacity="0.2" d="M959.499 87.6947C955.842 87.2948 952.479 85.2616 949.958 82.5286C947.437 79.7956 945.698 76.3959 944.394 72.8797C943.275 69.8578 942.449 66.6248 942.829 63.414C943.519 57.648 947.871 53.1485 950.311 47.9046C952.81 42.5218 953.256 36.2836 952.169 30.4287C951.083 24.5738 948.529 19.0799 945.301 14.1193C943.525 11.3807 941.303 8.61992 938.189 7.81445C937.217 8.3144 937.043 9.7698 937.608 10.7197C938.178 11.664 939.254 12.1695 940.308 12.4251C943.394 13.1806 946.682 12.2918 949.795 12.9306C954.348 13.8638 957.793 18.0245 959.069 22.5906C960.346 27.1513 959.781 32.0452 958.711 36.6614C957.494 41.883 955.641 46.9436 953.196 51.6986C951.251 55.476 948.898 59.1867 948.284 63.4085C947.698 67.4358 948.817 71.6353 951.05 75.0016C953.283 78.3735 956.586 80.9288 960.243 82.5453" fill="#246FE1"/>
<path opacity="0.2" d="M959.797 79.8075C958.352 78.8132 957.57 77.0967 956.978 75.4191C953.886 66.6867 954.446 56.0656 960.493 49.133C962.655 46.6555 965.91 44.6502 969.034 45.5612C971.99 46.4222 973.718 49.5663 974.592 52.5771C976.548 59.3319 975.717 66.8811 972.332 73.0138" fill="#246FE1"/>
<path opacity="0.2" d="M933.294 76.7239C930.865 73.8465 929.604 69.9747 929.865 66.1806C930.126 62.3921 931.903 58.7314 934.695 56.2317C937.064 54.1152 940.058 52.8376 942.433 50.7323C945.589 47.9326 947.426 43.833 948.328 39.6557C949.213 35.5561 949.268 31.1677 947.763 27.257C946.258 23.3519 943.036 20.0078 939.031 19.0857C935.027 18.1636 930.376 20.0689 928.643 23.8741C928.333 24.5518 928.154 25.4572 928.681 25.9794C928.974 26.2683 929.403 26.346 929.811 26.3738C932.049 26.5127 934.179 25.4517 936.396 25.1128C939.716 24.6018 943.514 26.0905 944.839 29.2457C945.676 31.2344 945.432 33.5064 945.079 35.6339C944.617 38.4336 943.802 41.4888 941.471 43.0387C939.835 44.1274 937.782 44.2441 935.842 44.4774C932.729 44.8551 929.507 45.7162 927.246 47.9326C925.6 49.5491 924.606 51.7599 924.063 54.0264C922.889 58.9536 923.785 64.353 926.48 68.6081" fill="#246FE1"/>
<path opacity="0.2" d="M967.925 63.7587C968.784 63.2921 969.398 62.47 969.947 61.6534C971.338 59.5758 972.533 57.0206 971.816 54.6153C971.403 53.2376 970.354 52.0766 969.05 51.5434C967.746 51.0101 966.198 51.1156 964.975 51.8267C962.411 53.3154 960.449 58.0482 960.455 60.9868C960.455 64.5475 965.399 65.1419 967.925 63.7587Z" fill="#246FE1"/>
<path opacity="0.2" d="M928.029 38.4781C929.485 39.2891 930.963 40.1112 932.571 40.5223C934.18 40.9278 935.967 40.8889 937.402 40.0335C938.836 39.178 939.798 37.4004 939.406 35.7506C939.037 34.2008 937.646 33.1453 936.277 32.3787C933.859 31.0289 931.186 30.1568 928.453 29.8235C926.812 29.6235 925.068 29.629 923.606 30.4178" fill="#246FE1"/>
<path opacity="0.2" d="M921.123 63.8424C929.99 66.481 939.776 65.8477 948.192 61.9704C956.613 58.093 963.584 50.9715 967.263 42.3169C971.484 32.3902 971.321 21.1692 971.088 10.3481C972.18 11.7313 972.566 13.5422 972.924 15.2809C975.902 29.8627 978.77 45.2222 974.38 59.4206C973.462 62.387 972.223 65.2756 970.425 67.7864C966.209 73.6635 959.189 76.9743 952.115 77.8797C945.04 78.7796 937.863 77.5076 930.968 75.6633C925.356 74.1635 919.7 72.2081 915.195 68.4641" fill="#246FE1"/>
</g>
</g>
<defs>
<filter id="filter0_d_475_2" x="0" y="0" width="1148" height="323" filterUnits="userSpaceOnUse" color-interpolation-filters="sRGB">
<feFlood flood-opacity="0" result="BackgroundImageFix"/>
<feColorMatrix in="SourceAlpha" type="matrix" values="0 0 0 0 0 0 0 0 0 0 0 0 0 0 0 0 0 0 127 0" result="hardAlpha"/>
<feOffset dy="4"/>
<feGaussianBlur stdDeviation="2"/>
<feComposite in2="hardAlpha" operator="out"/>
<feColorMatrix type="matrix" values="0 0 0 0 0 0 0 0 0 0 0 0 0 0 0 0 0 0 0.25 0"/>
<feBlend mode="normal" in2="BackgroundImageFix" result="effect1_dropShadow_475_2"/>
<feBlend mode="normal" in="SourceGraphic" in2="effect1_dropShadow_475_2" result="shape"/>
</filter>
<linearGradient id="paint0_linear_475_2" x1="335.964" y1="190.756" x2="331.697" y2="193.757" gradientUnits="userSpaceOnUse">
<stop stop-color="#DC3D7B"/>
<stop offset="1" stop-color="#EFC55C"/>
</linearGradient>
<linearGradient id="paint1_linear_475_2" x1="361.328" y1="170.98" x2="366.19" y2="176.751" gradientUnits="userSpaceOnUse">
<stop offset="0.3303" stop-color="#2C285B" stop-opacity="0.6"/>
<stop offset="1" stop-color="#4F80C0" stop-opacity="0"/>
</linearGradient>
<linearGradient id="paint2_linear_475_2" x1="335.097" y1="180.17" x2="327.512" y2="177.849" gradientUnits="userSpaceOnUse">
<stop stop-color="#152941"/>
<stop offset="1" stop-color="#4F80C0" stop-opacity="0"/>
</linearGradient>
<linearGradient id="paint3_linear_475_2" x1="343.948" y1="193.532" x2="343.28" y2="201.561" gradientUnits="userSpaceOnUse">
<stop stop-color="#152941"/>
<stop offset="1" stop-color="#4F80C0" stop-opacity="0"/>
</linearGradient>
<linearGradient id="paint4_linear_475_2" x1="327.871" y1="176.503" x2="348.194" y2="190.296" gradientUnits="userSpaceOnUse">
<stop stop-color="#162435"/>
<stop offset="0.0671" stop-color="#1F2C3C" stop-opacity="0.9031"/>
<stop offset="0.175" stop-color="#364251" stop-opacity="0.7472"/>
<stop offset="0.3103" stop-color="#5D6672" stop-opacity="0.5519"/>
<stop offset="0.4676" stop-color="#92989F" stop-opacity="0.3247"/>
<stop offset="0.6414" stop-color="#D6D7D9" stop-opacity="0.0735"/>
<stop offset="0.6923" stop-color="#EBEBEB" stop-opacity="0"/>
</linearGradient>
<radialGradient id="paint5_radial_475_2" cx="0" cy="0" r="1" gradientUnits="userSpaceOnUse" gradientTransform="translate(346.314 178.619) rotate(56.3956) scale(5.59627 5.53972)">
<stop offset="0.1469" stop-color="#0A1126"/>
<stop offset="0.4174" stop-color="#202735" stop-opacity="0.6816"/>
<stop offset="0.9965" stop-color="#4C5454" stop-opacity="0"/>
</radialGradient>
<linearGradient id="paint6_linear_475_2" x1="968.071" y1="58.5105" x2="933.73" y2="38.7299" gradientUnits="userSpaceOnUse">
<stop stop-color="#4570B4"/>
<stop offset="1" stop-color="#68A8DE"/>
</linearGradient>
<linearGradient id="paint7_linear_475_2" x1="968.071" y1="58.5105" x2="933.73" y2="38.7299" gradientUnits="userSpaceOnUse">
<stop stop-color="#4570B4"/>
<stop offset="1" stop-color="#43A6FA"/>
</linearGradient>
<clipPath id="clip0_475_2">
<rect width="1140" height="315" fill="white" transform="translate(4)"/>
</clipPath>
</defs>
</svg>