<?xml version="1.0" standalone="no"?>
<!DOCTYPE svg PUBLIC "-//W3C//DTD SVG 20010904//EN"
 "http://www.w3.org/TR/2001/REC-SVG-20010904/DTD/svg10.dtd">
<svg version="1.0" xmlns="http://www.w3.org/2000/svg"
 width="48.000000pt" height="48.000000pt" viewBox="0 0 48.000000 48.000000"
 preserveAspectRatio="xMidYMid meet">
<metadata>
Created by potrace 1.16, written by Peter Selinger 2001-2019
</metadata>
<g transform="translate(0.000000,48.000000) scale(0.100000,-0.100000)"
fill="#000000" stroke="none">
<path d="M197 440 c-3 -12 -10 -19 -16 -15 -6 3 -11 2 -11 -3 0 -6 -36 -8 -84
-5 l-84 4 -1 -210 -1 -209 207 -1 c201 -1 208 0 231 22 l25 22 -12 -23 c-10
-19 -9 -22 9 -22 19 0 20 6 20 90 0 68 -3 88 -13 84 -7 -2 -21 1 -31 9 -16 12
-15 13 11 12 25 0 28 4 30 31 1 29 -2 32 -40 42 l-42 10 43 1 42 1 0 85 c0 50
-4 85 -10 85 -5 0 -10 -5 -10 -10 0 -6 -12 -11 -27 -11 -100 -3 -161 -1 -180
5 -19 6 -22 4 -17 -11 3 -10 -3 -5 -14 10 -19 28 -19 28 -25 7z"/>
</g>
</svg>
