<svg width="1585" height="617" viewBox="0 0 1585 617" fill="none" xmlns="http://www.w3.org/2000/svg">
<path d="M370.708 90.7899C370.793 90.7903 370.878 90.7852 370.963 90.7748C371.516 90.7065 372.015 90.6326 372.485 90.5632C373.545 90.4064 374.451 90.2725 375.464 90.2772C386.534 90.3291 396.59 95.4421 403.831 103.723C403.976 103.89 404.149 104.031 404.341 104.142C404.341 104.142 404.342 104.142 404.343 104.143L408.57 110.266L408.57 110.267L552.332 318.231C552.357 318.346 552.394 318.47 552.45 318.6C552.5 318.717 552.561 318.828 552.632 318.934C558.007 326.87 561.288 336.605 561.238 347.306C561.186 358.263 557.606 368.216 551.91 376.224C551.769 376.422 551.667 376.641 551.606 376.871L548.685 381.092C548.617 381.19 548.558 381.293 548.51 381.4L547.325 383.09L547.312 383.109L408.813 585.606C408.741 585.645 408.64 585.7 408.543 585.756C408.443 585.814 408.309 585.894 408.172 585.991C407.952 586.147 407.767 586.346 407.626 586.576C400.648 597.954 389.481 605.231 376.911 605.861L183.095 605.249C174.514 603.686 166.807 599.211 160.976 592.543C160.848 592.396 160.698 592.268 160.532 592.164C160.51 592.151 160.489 592.138 160.467 592.126L156.239 586.003L156.239 586.002L12.4773 378.039C12.424 377.788 12.3224 377.548 12.1768 377.333C6.80228 369.397 3.51951 359.663 3.56965 348.961C3.6303 336.019 8.4245 324.342 16.0188 315.846C16.2269 315.613 16.3776 315.335 16.4589 315.033C16.4835 314.942 16.497 314.866 16.5043 314.818C16.5121 314.768 16.5167 314.725 16.5195 314.694C16.525 314.635 16.5267 314.587 16.5274 314.559C16.5277 314.547 16.5279 314.535 16.528 314.524L155.993 110.662L156.008 110.654C156.079 110.615 156.172 110.565 156.262 110.513C156.361 110.456 156.493 110.378 156.627 110.283C156.85 110.126 157.039 109.926 157.181 109.693C163.796 98.9074 174.228 91.9383 186.025 90.6823C186.506 90.6312 186.952 90.4076 187.28 90.0531C187.318 90.0123 187.354 89.9713 187.387 89.9309L370.708 90.7899ZM552.759 318.848C552.748 318.832 552.736 318.816 552.726 318.8L552.747 318.831C552.751 318.836 552.755 318.842 552.759 318.848ZM205.184 190.699C204.52 190.696 203.897 191.023 203.522 191.572L96.2305 348.809C95.7654 349.49 95.7667 350.388 96.2338 351.068L139.968 414.761L139.969 414.761L153.82 434.921L153.821 434.922L201.495 504.382C201.867 504.922 202.479 505.247 203.135 505.25L359.361 505.982C360.025 505.985 360.648 505.658 361.022 505.109L468.577 347.458C469.042 346.776 469.041 345.879 468.574 345.199L363.624 192.302C363.253 191.761 362.64 191.437 361.985 191.434L205.184 190.699Z" fill="white" stroke="#0038FF" stroke-width="4" stroke-linejoin="round"/>
<path d="M351.705 152.103L168.086 155.492L30.7578 356.597L167.419 563.574L385.466 559.549L517.675 347.608L351.705 152.103Z" fill="white"/>
<path fill-rule="evenodd" clip-rule="evenodd" d="M267.706 293.496C265.977 293.488 264.566 294.948 264.557 296.797L264.483 312.556C256.807 313.683 250.866 320.349 249.592 329.137L235.135 329.069C233.505 329.061 232.208 330.649 232.199 332.612C232.19 334.575 233.472 336.174 235.102 336.181L248.989 336.247L248.937 347.319L235.05 347.254C233.42 347.246 232.05 348.833 232.041 350.796C232.032 352.759 233.387 354.358 235.016 354.366L248.904 354.431L248.855 364.939L234.967 364.874C233.338 364.866 232.04 366.454 232.031 368.417C232.022 370.377 233.304 371.979 234.934 371.986L249.318 372.054C250.437 380.959 256.396 387.804 264.125 389.015L264.045 406.149C264.036 407.999 265.433 409.469 267.163 409.477C268.89 409.485 270.303 408.028 270.312 406.179L270.39 389.528L280.146 389.574L280.068 406.224C280.059 408.074 281.456 409.624 283.186 409.632C284.915 409.64 286.326 408.103 286.335 406.254L286.413 389.603L295.67 389.646L295.592 406.297C295.583 408.146 296.982 409.697 298.71 409.705C300.439 409.713 301.85 408.176 301.859 406.326L301.939 389.272C309.881 388.34 316.035 381.429 317.26 372.372L331.289 372.438C332.918 372.446 334.216 370.856 334.225 368.895C334.234 366.932 332.952 365.333 331.322 365.326L317.792 365.262L317.842 354.754L331.372 354.817C333.001 354.825 334.298 353.238 334.308 351.275C334.317 349.312 333.034 347.713 331.405 347.705L317.875 347.642L317.927 336.57L331.457 336.633C333.086 336.641 334.456 335.054 334.466 333.091C334.475 331.128 333.12 329.528 331.49 329.521L317.39 329.454C316.174 320.492 310.165 313.651 302.298 312.653L302.371 296.974C302.38 295.125 300.983 293.652 299.253 293.644C297.526 293.636 296.113 295.096 296.104 296.945L296.033 312.22L286.776 312.176L286.847 296.901C286.856 295.052 285.459 293.579 283.729 293.571C282 293.563 280.589 295.023 280.58 296.872L280.509 312.147L270.753 312.101L270.824 296.826C270.833 294.977 269.434 293.504 267.706 293.496Z" fill="#339DFF" stroke="black" stroke-linejoin="round"/>
<path fill-rule="evenodd" clip-rule="evenodd" d="M1513.86 10.961C1513.87 9.1113 1515.28 7.65107 1517.01 7.65918C1518.74 7.66728 1520.14 9.14067 1520.13 10.9904L1520.06 26.2643L1529.81 26.31L1529.88 11.0361C1529.89 9.18638 1531.3 7.72615 1533.03 7.73426C1534.76 7.74237 1536.16 9.21575 1536.15 11.0655L1536.08 26.3394L1545.34 26.3828L1545.41 11.1088C1545.42 9.25912 1546.83 7.79891 1548.56 7.807C1550.29 7.81511 1551.69 9.28849 1551.68 11.1382L1551.6 26.8157C1559.47 27.8151 1565.48 34.6556 1566.7 43.6176L1580.79 43.6837C1582.42 43.6913 1583.78 45.2914 1583.77 47.2548C1583.76 49.2182 1582.39 50.8055 1580.76 50.7979L1567.23 50.7345L1567.18 61.8047L1580.71 61.8681C1582.34 61.8758 1583.62 63.4755 1583.61 65.4389C1583.6 67.4023 1582.31 68.9899 1580.68 68.9823L1567.15 68.9189L1567.1 79.4253L1580.63 79.4887C1582.26 79.4964 1583.54 81.0961 1583.53 83.0595C1583.52 85.0203 1582.22 86.6105 1580.59 86.6029L1566.56 86.5372C1565.34 95.5938 1559.19 102.504 1551.24 103.437L1551.16 120.491C1551.16 122.34 1549.74 123.878 1548.01 123.87C1546.29 123.862 1544.89 122.311 1544.9 120.461L1544.97 103.811L1535.72 103.768L1535.64 120.418C1535.63 122.267 1534.22 123.805 1532.49 123.797C1530.76 123.789 1529.36 122.238 1529.37 120.388L1529.45 103.739L1519.69 103.693L1519.62 120.343C1519.61 122.192 1518.19 123.65 1516.47 123.642C1514.74 123.634 1513.34 122.163 1513.35 120.313L1513.43 103.18C1505.7 101.969 1499.74 95.1235 1498.62 86.2188L1484.24 86.1514C1482.61 86.1438 1481.33 84.5414 1481.33 82.5806C1481.34 80.6173 1482.64 79.0296 1484.27 79.0372L1498.16 79.1023L1498.21 68.5959L1484.32 68.5308C1482.69 68.5232 1481.33 66.9231 1481.34 64.9597C1481.35 62.9963 1482.72 61.409 1484.35 61.4166L1498.24 61.4817L1498.29 50.4114L1484.41 50.3464C1482.78 50.3387 1481.49 48.739 1481.5 46.7756C1481.51 44.8122 1482.81 43.2246 1484.44 43.2322L1498.9 43.2999C1500.17 34.5125 1506.11 27.847 1513.79 26.7187L1513.86 10.961ZM1498.29 50.4105L1498.24 61.4826L1484.35 61.4184C1482.72 61.4108 1481.35 62.9971 1481.35 64.9597C1481.34 66.9223 1482.69 68.5214 1484.32 68.529L1498.21 68.5941L1498.16 79.1032L1484.27 79.039C1482.64 79.0314 1481.35 80.618 1481.34 82.5806C1481.33 84.5407 1482.61 86.142 1484.24 86.1496L1498.63 86.217L1498.62 86.217C1499.74 95.1216 1505.7 101.968 1513.43 103.178L1513.35 120.313C1513.34 122.162 1514.74 123.632 1516.47 123.64C1518.19 123.648 1519.61 122.191 1519.62 120.343L1519.69 103.692L1529.45 103.737L1529.37 120.388C1529.36 122.237 1530.76 123.787 1532.49 123.796C1534.22 123.804 1535.63 122.267 1535.64 120.418L1535.72 103.767L1544.97 103.81L1544.9 120.461C1544.89 122.31 1546.29 123.86 1548.01 123.868C1549.74 123.876 1551.15 122.339 1551.16 120.491L1551.24 103.429L1551.24 103.436C1559.18 102.504 1565.34 95.5927 1566.56 86.5361L1580.59 86.6011C1582.22 86.6087 1583.52 85.0196 1583.53 83.0595C1583.54 81.0968 1582.26 79.4981 1580.63 79.4905L1567.1 79.4271L1567.14 68.918L1580.68 68.9805C1582.3 68.9882 1583.6 67.4016 1583.61 65.4389C1583.62 63.4762 1582.34 61.8776 1580.71 61.8699L1567.18 61.8065L1567.23 50.7336L1580.76 50.7961C1582.39 50.8037 1583.76 49.2174 1583.77 47.2548C1583.78 45.2922 1582.42 43.6931 1580.79 43.6855L1566.69 43.6194L1566.69 43.6194C1565.48 34.6574 1559.47 27.8163 1551.6 26.8174L1551.67 11.1382C1551.68 9.28946 1550.29 7.81689 1548.56 7.80879C1546.83 7.80069 1545.42 9.2601 1545.41 11.1088L1545.34 26.3837L1536.08 26.3412L1536.15 11.0655C1536.16 9.21672 1534.76 7.74415 1533.03 7.73604C1531.3 7.72794 1529.89 9.18736 1529.89 11.0361L1529.81 26.3109L1520.06 26.2661L1520.13 10.9904C1520.14 9.14164 1518.74 7.66906 1517.01 7.66096C1515.28 7.65286 1513.87 9.11228 1513.86 10.961L1513.79 26.7257L1513.79 26.7195C1506.11 27.8474 1500.17 34.5136 1498.9 43.301L1484.44 43.234C1482.81 43.2263 1481.51 44.8129 1481.5 46.7756C1481.49 48.7383 1482.78 50.3369 1484.41 50.3446L1498.29 50.4105Z" fill="#000002"/>
<path d="M1529.81 26.31L1520.06 26.2643L1520.13 10.9904C1520.14 9.14067 1518.74 7.66728 1517.01 7.65918C1515.28 7.65107 1513.87 9.1113 1513.86 10.961L1513.79 26.7187C1506.11 27.847 1500.17 34.5125 1498.9 43.2999L1484.44 43.2322C1482.81 43.2245 1481.51 44.8122 1481.5 46.7756C1481.49 48.739 1482.78 50.3387 1484.41 50.3464L1498.29 50.4114L1498.24 61.4817M1529.81 26.31L1529.88 11.0361C1529.89 9.18638 1531.3 7.72615 1533.03 7.73426C1534.76 7.74237 1536.16 9.21575 1536.15 11.0655L1536.08 26.3394L1545.34 26.3828M1529.81 26.31L1529.81 26.3109M1545.34 26.3828L1545.41 11.1088C1545.42 9.25912 1546.83 7.79891 1548.56 7.807C1550.29 7.81511 1551.69 9.28849 1551.68 11.1382L1551.6 26.8157C1559.47 27.8151 1565.48 34.6556 1566.7 43.6176L1580.79 43.6837C1582.42 43.6913 1583.78 45.2914 1583.77 47.2548C1583.76 49.2182 1582.39 50.8055 1580.76 50.7979L1567.23 50.7345L1567.18 61.8047L1580.71 61.8681C1582.34 61.8758 1583.62 63.4755 1583.61 65.4389C1583.6 67.4023 1582.31 68.9899 1580.68 68.9823L1567.15 68.9189L1567.1 79.4253L1580.63 79.4887C1582.26 79.4964 1583.54 81.0961 1583.53 83.0595C1583.52 85.0203 1582.22 86.6105 1580.59 86.6029L1566.56 86.5372C1565.34 95.5938 1559.19 102.504 1551.24 103.437L1551.16 120.491C1551.16 122.34 1549.74 123.878 1548.01 123.87C1546.29 123.862 1544.89 122.311 1544.9 120.461L1544.97 103.811L1535.72 103.768L1535.64 120.418C1535.63 122.267 1534.22 123.805 1532.49 123.797C1530.76 123.789 1529.36 122.238 1529.37 120.388L1529.45 103.739L1519.69 103.693L1519.62 120.343C1519.61 122.192 1518.19 123.65 1516.47 123.642C1514.74 123.634 1513.34 122.163 1513.35 120.313L1513.43 103.18C1505.7 101.969 1499.74 95.1235 1498.62 86.2188L1484.24 86.1514C1482.61 86.1438 1481.33 84.5414 1481.33 82.5806C1481.34 80.6172 1482.64 79.0296 1484.27 79.0372L1498.16 79.1023M1545.34 26.3828L1545.34 26.3837M1498.16 79.1023L1498.21 68.5959L1484.32 68.5308C1482.69 68.5232 1481.33 66.9231 1481.34 64.9597C1481.35 62.9963 1482.72 61.409 1484.35 61.4166L1498.24 61.4817M1498.16 79.1023L1498.16 79.1032M1498.24 61.4817L1498.24 61.4826M1498.24 61.4826L1498.29 50.4105L1484.41 50.3446C1482.78 50.3369 1481.49 48.7383 1481.5 46.7756C1481.51 44.8129 1482.81 43.2263 1484.44 43.234L1498.9 43.301M1498.24 61.4826L1484.35 61.4184C1482.72 61.4108 1481.35 62.9971 1481.35 64.9597C1481.34 66.9223 1482.69 68.5214 1484.32 68.529L1498.21 68.5941L1498.16 79.1032M1498.16 79.1032L1484.27 79.039C1482.64 79.0314 1481.35 80.618 1481.34 82.5806C1481.33 84.5407 1482.61 86.142 1484.24 86.1496L1498.63 86.217L1498.62 86.217C1499.74 95.1216 1505.7 101.968 1513.43 103.178M1513.43 103.178L1513.44 103.179M1513.43 103.178L1513.35 120.313C1513.34 122.162 1514.74 123.632 1516.47 123.64C1518.19 123.648 1519.61 122.191 1519.62 120.343L1519.69 103.692L1529.45 103.737L1529.37 120.388C1529.36 122.237 1530.76 123.787 1532.49 123.795C1534.22 123.804 1535.63 122.267 1535.64 120.418L1535.72 103.767L1544.97 103.81L1544.9 120.461C1544.89 122.31 1546.29 123.86 1548.01 123.868C1549.74 123.876 1551.15 122.339 1551.16 120.491L1551.24 103.429L1551.24 103.436C1559.18 102.504 1565.34 95.5927 1566.56 86.5361M1566.56 86.5361L1566.56 86.5297M1566.56 86.5361L1580.59 86.6011C1582.22 86.6087 1583.52 85.0196 1583.53 83.0595C1583.54 81.0968 1582.26 79.4981 1580.63 79.4905L1567.1 79.4271L1567.14 68.918L1580.68 68.9805C1582.3 68.9882 1583.6 67.4016 1583.61 65.4389C1583.62 63.4762 1582.34 61.8776 1580.71 61.8699L1567.18 61.8065L1567.23 50.7336L1580.76 50.7961C1582.39 50.8037 1583.76 49.2174 1583.77 47.2548C1583.78 45.2922 1582.42 43.6931 1580.79 43.6855L1566.69 43.6194L1566.69 43.6194C1565.48 34.6574 1559.47 27.8163 1551.6 26.8174M1551.6 26.8174L1551.59 26.8165M1551.6 26.8174L1551.67 11.1382C1551.68 9.28946 1550.29 7.81689 1548.56 7.80879C1546.83 7.80069 1545.42 9.2601 1545.41 11.1088L1545.34 26.3837M1545.34 26.3837L1536.08 26.3412L1536.15 11.0655C1536.16 9.21672 1534.76 7.74415 1533.03 7.73604C1531.3 7.72794 1529.89 9.18736 1529.89 11.0361L1529.81 26.3109M1529.81 26.3109L1520.06 26.2661L1520.13 10.9904C1520.14 9.14164 1518.74 7.66906 1517.01 7.66096C1515.28 7.65286 1513.87 9.11228 1513.86 10.961L1513.79 26.7257L1513.79 26.7195C1506.11 27.8474 1500.17 34.5136 1498.9 43.301M1498.9 43.301L1498.9 43.307" stroke="black" stroke-linejoin="round"/>
<path fill-rule="evenodd" clip-rule="evenodd" d="M237.969 157.44C230.713 157.406 224.767 163.11 224.734 170.15C224.703 176.697 229.884 181.916 236.428 182.664L243.844 213.882C244.931 221.296 243.145 226.16 241.522 229.855C239.194 233.437 236.239 235.146 233.41 235.694C230.434 235.42 225.699 235.144 221.834 229.843L217.677 222.38C219.397 220.236 220.537 217.642 220.558 214.713C220.591 207.675 214.775 201.994 207.517 201.96C200.261 201.926 194.316 207.552 194.283 214.59C194.25 221.63 200.132 227.39 207.398 227.424C208.174 227.427 208.839 227.095 209.57 226.965L215.212 237.098C216.4 241.67 215.417 245.439 213.963 248.14C211.97 249.554 210.168 251.221 208.252 252.736C204.798 253.63 198.853 254.946 193.367 250.55L169.382 224.661C170.204 223.005 170.747 221.132 170.756 219.181C170.789 212.143 164.906 206.462 157.641 206.428C150.383 206.394 144.514 212.02 144.481 219.058C144.448 226.098 150.256 231.857 157.522 231.891C159.203 231.899 160.817 231.508 162.317 230.973L186.002 256.471C187.951 261.176 188.019 265.672 187.588 269.719C187.578 269.812 187.52 269.864 187.51 269.955C187.324 275.407 184.652 277.686 182.004 278.782C179.359 279.356 176.555 279.724 173.544 279.214L165.706 274.476C165.742 274.095 165.942 273.77 165.934 273.379C165.967 266.341 160.159 260.582 152.896 260.548C145.637 260.514 139.694 266.218 139.661 273.256C139.628 280.296 145.511 285.977 152.776 286.011C156.022 286.027 158.871 284.799 161.175 282.917L168.938 287.654C170.827 290 171.535 292.724 171.745 295.425C171.516 297.848 171.119 301.698 169.531 304.895C165.987 307.185 161.278 309.991 155.132 310.391L123.432 301.78C122.859 295.279 117.39 290.156 110.536 290.124C103.278 290.09 97.4091 295.714 97.3761 302.754C97.3431 309.794 103.152 315.553 110.417 315.587C114.506 315.606 118.046 313.765 120.469 310.933L152.468 319.623C157.716 322.355 160.884 326.663 163.198 330.174C163.816 333.419 164.433 338.737 159.166 344.1C157.689 344.964 156.421 346.003 154.663 346.587L144.109 346.382C142.135 341.797 137.443 338.523 132.018 338.49C124.762 338.456 118.816 344.16 118.783 351.197C118.75 358.238 124.633 363.997 131.898 364.031C137.429 364.057 142.178 360.712 144.138 356.017L153.195 356.14C157.584 358.746 160.353 362.352 162.507 365.664C163.167 367.974 163.212 370.652 162.847 373.423C160.532 376.689 157.561 380.416 152.844 383.012L121.067 390.856C118.67 388.014 115.22 386.057 111.134 386.03C103.878 385.997 98.0062 391.701 97.9732 398.739C97.9402 405.779 103.749 411.538 111.014 411.572C117.808 411.604 123.219 406.527 123.944 400.114L159.244 391.348C162.715 392.403 165.318 394.187 167.681 396.011C168.05 396.539 168.169 397.184 168.346 397.815C168.455 398.515 168.462 399.573 168.559 400.403C168.499 402.898 167.958 405.432 167.026 407.918C167.82 419.985 175.216 426.916 179.534 426.937C183.853 426.957 188.137 429.343 189.586 434.115C190.825 438.193 188.748 441.176 187.067 444.759L160.594 470.884C160.421 471.053 160.513 471.319 160.366 471.509C159.191 471.168 157.981 470.791 156.702 470.785C149.443 470.751 143.574 476.455 143.541 483.496C143.508 490.536 149.317 496.217 156.582 496.251C163.838 496.285 169.784 490.659 169.817 483.619C169.828 481.207 168.942 479.036 167.751 477.105L194.448 450.748C195.966 449.923 197.487 449.431 199.025 448.967C202.227 448.493 205.905 448.834 209.27 450.973C211.651 454.597 213.746 459.057 213.998 464.552L208.028 476.354C207.587 476.309 207.203 476.109 206.757 476.114C199.499 476.08 193.555 481.784 193.522 488.822C193.489 495.862 199.372 501.622 206.637 501.656C213.893 501.69 219.765 495.986 219.798 488.945C219.813 485.661 218.478 482.739 216.393 480.467L221.908 469.604C229.46 463.664 236.622 467.895 239.06 468.117C239.516 468.31 239.954 468.535 240.403 468.75C243.184 471.912 244.413 475.318 244.55 478.327L234.623 520.2C227.947 520.778 222.623 526.049 222.587 532.681C222.554 539.721 228.445 545.4 235.703 545.434C242.959 545.468 248.828 539.844 248.861 532.804C248.88 528.624 246.703 525.089 243.518 522.749L253.217 481.893C256.406 477.751 260.198 476.295 263.426 475.986C266.391 476.514 269.452 476.734 272.478 477.049C275.751 479.988 277.165 483.43 277.75 486.318L277.77 497.992C272.645 499.711 268.909 504.217 268.882 509.783C268.849 516.823 274.739 522.582 281.998 522.616C289.253 522.65 295.125 516.946 295.158 509.906C295.183 504.575 291.838 500.119 287.052 498.194L286.967 484.481C287.755 481.993 289.009 480.241 290.362 478.778C291.552 477.928 292.731 477.315 293.89 476.914C295.925 476.69 297.941 476.366 299.957 476.08C301.274 476.254 302.339 476.389 303.399 476.723C309.406 479.93 311.184 485.883 312.405 487.579L319.273 523.34C316.459 525.664 314.525 529.002 314.514 532.876C314.481 539.916 320.371 545.675 327.629 545.709C334.885 545.743 340.754 540.039 340.787 532.999C340.82 526.089 335.199 520.556 328.122 520.325L320.451 480.095C321.026 475.466 323.02 472.63 324.91 470.555C326.641 468.876 328.423 467.796 330.167 467.21C330.465 467.076 330.765 466.965 331.067 466.823C333.022 466.326 334.857 466.33 336.533 466.535C338.141 467.418 339.818 468.313 340.937 469.377L347.102 479.748C345.099 481.973 343.704 484.78 343.693 487.959C343.66 494.999 349.553 500.758 356.809 500.792C364.067 500.826 369.936 495.122 369.969 488.082C370.002 481.042 364.186 475.363 356.928 475.329C356.406 475.326 355.933 475.502 355.43 475.557L349.489 465.342C348.684 463.243 348.434 461.489 348.541 459.932C348.547 459.842 348.604 459.787 348.617 459.697C352.298 451.26 359.736 450.256 363.263 449.423L363.337 449.423C365.471 449.621 367.378 450.132 368.872 450.861L396.588 478.884C395.783 480.523 395.223 482.268 395.214 484.206C395.181 491.244 401.074 497.003 408.33 497.037C415.588 497.071 421.457 491.369 421.49 484.329C421.523 477.289 415.707 471.608 408.449 471.574C406.717 471.565 405.029 471.906 403.505 472.491L376.831 445.49C373.621 439.39 375.227 433.901 376.452 430.602C377.819 428.819 379.222 427.055 380.519 425.216C385.046 422.82 389.565 423.465 392.203 423.859L400.187 429.538C400.033 430.309 399.649 431.002 399.652 431.807C399.619 438.847 405.511 444.606 412.767 444.64C420.025 444.674 425.895 438.97 425.928 431.93C425.961 424.892 420.145 419.211 412.887 419.177C410.077 419.164 407.607 420.195 405.466 421.649L396.436 415.261C392.758 410.375 392.845 405.443 393.504 401.926C394.001 400.632 394.587 399.389 395.096 398.095C400.355 393.132 406.422 393.845 408.891 393.614L441.789 402.075C442.074 408.841 447.622 414.333 454.682 414.358C461.938 414.392 467.884 408.688 467.917 401.648C467.95 394.608 462.057 388.848 454.802 388.814C450.969 388.796 447.615 390.473 445.2 393.002L410.655 384.142C404.726 381.055 403.119 375.933 402.478 372.194C402.88 369.074 403.51 366.036 403.793 362.876C406.954 359.2 410.816 357.931 413.552 357.36L422.459 357.402C424.6 361.581 428.972 364.568 434.103 364.585C441.361 364.619 447.231 358.917 447.264 351.877C447.297 344.836 441.481 339.077 434.223 339.043C428.433 339.016 423.605 342.724 421.831 347.761L412.848 347.641C409.072 346.758 406.559 344.803 404.787 342.589L404.787 342.508C403.396 339.761 402.864 337.262 402.952 334.978C403.02 333.206 403.625 331.92 404.096 330.518L404.17 330.596C404.857 326.515 406.662 324.392 408.398 323.016C412.329 320.83 416.396 320.393 417.172 319.532L445.203 312.61C447.598 315.304 451.034 317.105 454.987 317.124C462.245 317.158 468.114 311.454 468.147 304.413C468.18 297.373 462.364 291.692 455.106 291.658C448.164 291.625 442.536 296.814 442.026 303.429L411.748 310.886C403.609 310.801 398.537 307.377 395.383 304.622C395.3 304.416 395.243 304.195 395.16 303.994C392.65 297.814 394.357 292.94 396.126 289.659L405.81 284.218C407.94 285.69 410.396 286.67 413.208 286.683C420.466 286.717 426.409 281.093 426.442 274.053C426.475 267.012 420.585 261.253 413.327 261.219C406.071 261.185 400.202 266.889 400.169 273.93C400.165 274.739 400.461 275.435 400.606 276.203L392.425 280.866C387.585 281.641 383.857 280.184 381.284 278.229C380.384 277.074 379.544 275.869 378.68 274.689C374.726 265.76 380.026 259.391 380.934 256.835L405.153 232.738C406.876 233.559 408.785 234.086 410.836 234.096C418.092 234.13 423.961 228.506 423.994 221.466C424.027 214.425 418.211 208.667 410.955 208.633C403.697 208.599 397.753 214.302 397.72 221.343C397.713 222.962 398.101 224.446 398.672 225.89L373.026 251.315C366.641 256.106 360.948 253.903 357.45 252.418C357.295 252.294 357.157 252.14 357.002 252.022C351.986 247.387 351.711 242.103 352.127 238.209L357.564 228.127C358.098 228.195 358.588 228.453 359.134 228.448C366.39 228.482 372.261 222.778 372.294 215.738C372.327 208.7 366.509 202.941 359.254 202.907C351.995 202.873 346.052 208.577 346.019 215.614C346.004 218.799 347.303 221.615 349.274 223.859L346.481 229.016C345.548 230.656 344.45 231.837 343.317 232.839C342.59 233.739 341.734 233.958 340.914 234.476C339.276 235.393 337.918 235.79 336.415 236.099C333.341 236.173 331.388 235.421 330.358 234.895C325.988 231.956 324.57 228.206 323.891 224.913C323.464 221.378 323.425 219.154 323.483 216.449L331.798 183.033C338.253 182.251 343.363 177.185 343.383 170.706C343.416 163.666 337.526 157.907 330.268 157.873C323.012 157.839 317.143 163.543 317.11 170.583C317.09 174.863 319.351 178.484 322.675 180.797L313.825 216.248C311.642 221.987 307.74 224.103 305.024 225.532C303.505 225.956 301.933 226.615 300.602 226.529C300.451 226.506 300.307 226.473 300.154 226.449C299.134 226.344 298.36 225.872 297.463 225.574C294.5 224.093 290.848 221.654 289.123 216.133L289.175 205.086C293.678 203.081 296.849 198.721 296.863 193.603C296.896 186.563 291.08 180.804 283.825 180.77C276.566 180.736 270.623 186.44 270.59 193.48C270.563 199.219 274.522 203.881 279.89 205.511L279.847 214.836C278.714 220.336 275.676 222.94 272.762 224.674C271.7 225.353 270.605 226.012 269.538 226.148C269.236 226.192 268.939 226.255 268.639 226.302C267.092 226.314 265.639 225.944 264.3 225.419L264.226 225.418C261.39 223.271 256.115 219.882 252.838 211.497L245.422 180.354C248.712 178.053 250.99 174.511 251.01 170.274C251.043 163.233 245.227 157.474 237.969 157.44ZM282.968 267.503C287.556 266.843 290.763 271.637 291.329 272.479C293.722 275.56 297.216 278.229 301.701 279.814C307.249 281.788 312.583 281.49 316.747 279.727C317.267 279.606 317.641 279.701 318.246 279.42C325.732 275.858 327.36 283.55 327.795 286.36C328.279 290.577 330.068 295.071 333.499 299.081C338.502 304.927 344.96 307.738 350.231 306.995C359.826 308.181 356.672 316.154 356.324 316.975C354.815 320.403 353.788 324.312 354.172 328.875C354.555 333.555 356.141 337.559 358.234 340.723C358.317 340.884 358.36 341.037 358.455 341.196C359.171 342.217 360.006 342.94 360.838 343.714C361.263 344.105 361.455 344.517 361.956 344.895C371.95 352.095 361.737 359.938 361.737 359.938C359.072 362.27 356.687 365.252 355.106 369.309C353.707 372.891 353.372 376.352 353.484 379.644C353.41 380.587 353.364 381.539 353.546 382.621C353.604 382.964 353.766 383.231 353.841 383.562C354.104 384.702 354.293 385.781 354.872 387.015C360.957 399.788 347.697 400.458 347.697 400.458L347.696 400.536C343.539 400.822 339.015 402.568 334.945 406.117C331.676 408.968 329.483 412.39 328.161 415.801C327.347 417.334 326.711 419.174 326.714 421.594C326.719 433.734 314.935 426.709 314.935 426.709C311.513 425.474 307.478 425.019 303.187 425.713C297.424 426.664 292.936 429.461 290.052 433.018C289.292 433.752 288.534 434.423 287.87 435.515C281.653 445.769 275.23 433.184 275.23 433.184L275.156 433.184C272.473 429.661 268.306 426.716 262.839 425.447C257.634 424.236 252.809 424.865 248.985 426.635C248.401 426.871 247.869 426.903 247.259 427.254C240.574 431.159 239.382 427.468 239.115 424.004C239.603 419.112 238.052 413.253 234.325 408.075C230.724 403.064 225.997 400.081 221.491 399.084L221.417 399.084C219.821 398.738 218.25 398.505 216.776 398.749C205.231 399.926 210.768 386.889 210.768 386.889C213.39 382.506 214.192 376.04 212.197 369.266C210.768 364.408 208.237 360.583 205.289 357.951C205.043 357.729 204.979 357.551 204.693 357.322C196.084 350.659 203.455 343.508 204.689 342.356C208.753 339.574 212.112 334.372 213.217 327.587C214.048 322.524 213.064 318.147 211.482 314.336C211.419 313.937 211.512 313.611 211.339 313.162C208.876 306.624 215.653 304.95 217.068 304.646C221.693 304.778 227.011 302.8 231.619 298.526C233.895 296.403 235.688 294.015 236.967 291.576C238.62 288.397 239.037 285.257 238.881 282.263C239.133 281.66 239.408 281.22 239.564 280.305C240.836 272.998 248.945 275.648 248.945 275.648C252.217 277.702 256.095 279.179 260.829 279.074C267.734 278.92 273.44 275.966 276.659 271.862C277.011 271.52 277.361 271.446 277.712 271.004C279.527 268.728 281.304 267.741 282.968 267.503Z" fill="#339DFF" stroke="black" stroke-linejoin="round"/>
</svg>
