<svg width="565" height="527" viewBox="0 0 565 527" fill="none" xmlns="http://www.w3.org/2000/svg">
<path d="M370.357 5.22406C370.442 5.22446 370.527 5.21942 370.612 5.20898C371.164 5.14066 371.664 5.06678 372.134 4.99738C373.194 4.84058 374.1 4.70664 375.113 4.71139C386.183 4.76326 396.239 9.87627 403.48 18.1576C403.625 18.3242 403.798 18.4655 403.99 18.5757C403.99 18.5761 403.991 18.5764 403.992 18.5768L408.219 24.7L408.219 24.7011L551.981 232.665C552.006 232.78 552.043 232.904 552.099 233.034C552.149 233.151 552.21 233.263 552.281 233.368C557.656 241.304 560.937 251.039 560.887 261.74C560.835 272.697 557.255 282.651 551.559 290.658C551.418 290.856 551.316 291.075 551.255 291.305L548.334 295.526C548.266 295.624 548.207 295.727 548.159 295.834L546.974 297.524L546.961 297.543L408.462 500.04C408.39 500.079 408.289 500.134 408.192 500.19C408.092 500.248 407.957 500.328 407.821 500.425C407.601 500.581 407.416 500.78 407.275 501.01C400.296 512.389 389.13 519.665 376.56 520.295L182.744 519.683C174.163 518.12 166.456 513.645 160.625 506.977C160.496 506.83 160.347 506.702 160.181 506.598C160.159 506.585 160.138 506.572 160.116 506.56L155.888 500.437L155.887 500.436L12.1262 292.474C12.0729 292.222 11.9713 291.982 11.8257 291.767C6.45121 283.831 3.16843 274.097 3.21858 263.395C3.27922 250.453 8.07342 238.776 15.6678 230.28C15.8759 230.047 16.0266 229.769 16.1078 229.467C16.1325 229.376 16.1459 229.3 16.1533 229.252C16.1611 229.202 16.1657 229.159 16.1685 229.129C16.1739 229.069 16.1756 229.021 16.1763 228.993C16.1766 228.981 16.1768 228.969 16.1769 228.958L155.642 25.0966L155.657 25.0883C155.728 25.0496 155.821 24.9988 155.911 24.9474C156.01 24.8904 156.142 24.8118 156.276 24.7175C156.499 24.5606 156.688 24.3597 156.83 24.1271C163.445 13.3415 173.877 6.3725 185.674 5.11652C186.155 5.06535 186.601 4.8418 186.929 4.48724C186.967 4.44642 187.003 4.4055 187.036 4.36506L370.357 5.22406ZM552.408 233.282C552.397 233.266 552.385 233.25 552.375 233.234L552.396 233.265C552.4 233.271 552.404 233.276 552.408 233.282ZM204.833 105.133C204.168 105.13 203.546 105.457 203.171 106.006L95.8795 263.243C95.4143 263.924 95.4156 264.822 95.8828 265.502L139.617 329.195L139.617 329.195L153.469 349.355L153.47 349.356L201.144 418.816C201.515 419.356 202.128 419.681 202.784 419.684L359.01 420.416C359.674 420.419 360.297 420.092 360.671 419.543L468.226 261.892C468.691 261.211 468.689 260.313 468.223 259.633L363.273 106.736C362.902 106.195 362.289 105.871 361.633 105.868L204.833 105.133Z" fill="white" stroke="#0038FF" stroke-width="4" stroke-linejoin="round"/>
<path d="M351.354 66.5367L167.735 69.9263L30.4067 271.031L167.068 478.008L385.115 473.983L517.324 262.042L351.354 66.5367Z" fill="white"/>
<path fill-rule="evenodd" clip-rule="evenodd" d="M267.355 207.93C265.626 207.922 264.215 209.382 264.206 211.231L264.132 226.99C256.456 228.118 250.515 234.783 249.241 243.571L234.784 243.503C233.154 243.496 231.857 245.083 231.848 247.046C231.839 249.009 233.121 250.608 234.75 250.616L248.638 250.681L248.586 261.753L234.699 261.688C233.069 261.68 231.699 263.267 231.69 265.23C231.681 267.193 233.036 268.792 234.665 268.8L248.553 268.865L248.504 279.373L234.616 279.308C232.987 279.301 231.689 280.888 231.68 282.851C231.671 284.811 232.953 286.413 234.583 286.421L248.967 286.488C250.086 295.393 256.045 302.239 263.774 303.449L263.694 320.583C263.685 322.433 265.082 323.903 266.812 323.911C268.539 323.919 269.952 322.462 269.961 320.613L270.039 303.962L279.795 304.008L279.717 320.659C279.708 322.508 281.105 324.058 282.835 324.067C284.564 324.075 285.975 322.537 285.984 320.688L286.062 304.037L295.319 304.081L295.241 320.731C295.232 322.581 296.631 324.131 298.359 324.139C300.088 324.147 301.499 322.61 301.508 320.761L301.588 303.706C309.53 302.774 315.684 295.863 316.909 286.806L330.938 286.872C332.567 286.88 333.865 285.29 333.874 283.33C333.883 281.367 332.601 279.767 330.971 279.76L317.441 279.696L317.49 269.188L331.02 269.252C332.65 269.259 333.947 267.672 333.956 265.709C333.966 263.746 332.683 262.147 331.054 262.139L317.524 262.076L317.576 251.004L331.106 251.067C332.735 251.075 334.105 249.488 334.115 247.525C334.124 245.562 332.768 243.962 331.139 243.955L317.039 243.889C315.823 234.926 309.814 228.086 301.947 227.087L302.02 211.408C302.029 209.559 300.632 208.086 298.902 208.078C297.175 208.07 295.762 209.53 295.753 211.379L295.682 226.654L286.425 226.61L286.496 211.336C286.505 209.486 285.108 208.013 283.378 208.005C281.649 207.997 280.238 209.457 280.229 211.306L280.158 226.581L270.402 226.535L270.473 211.261C270.482 209.411 269.083 207.938 267.355 207.93Z" fill="#339DFF" stroke="black" stroke-linejoin="round"/>
<path fill-rule="evenodd" clip-rule="evenodd" d="M237.618 71.8745C230.362 71.8405 224.416 77.5443 224.383 84.5847C224.352 91.1311 229.533 96.3504 236.077 97.0982L243.493 128.316C244.579 135.73 242.794 140.594 241.171 144.289C238.843 147.871 235.888 149.58 233.059 150.128C230.083 149.854 225.348 149.578 221.483 144.277L217.325 136.814C219.046 134.67 220.186 132.076 220.207 129.147C220.24 122.11 214.424 116.428 207.166 116.394C199.91 116.36 193.965 121.986 193.932 129.024C193.899 136.065 199.781 141.824 207.047 141.858C207.823 141.861 208.488 141.529 209.219 141.399L214.861 151.533C216.049 156.104 215.066 159.873 213.612 162.574C211.619 163.989 209.817 165.655 207.901 167.17C204.447 168.064 198.502 169.381 193.016 164.985L169.031 139.095C169.853 137.439 170.396 135.566 170.405 133.615C170.438 126.577 164.555 120.896 157.29 120.862C150.032 120.828 144.163 126.454 144.13 133.492C144.097 140.532 149.905 146.291 157.17 146.325C158.852 146.333 160.466 145.942 161.966 145.408L185.65 170.905C187.6 175.61 187.667 180.106 187.236 184.153C187.226 184.246 187.169 184.298 187.159 184.389C186.973 189.841 184.301 192.12 181.653 193.216C179.008 193.791 176.204 194.158 173.193 193.648L165.355 188.91C165.39 188.529 165.591 188.204 165.583 187.813C165.616 180.775 159.808 175.016 152.545 174.982C145.286 174.948 139.343 180.652 139.31 187.69C139.277 194.73 145.16 200.412 152.425 200.446C155.671 200.461 158.52 199.233 160.824 197.351L168.587 202.088C170.476 204.434 171.184 207.158 171.394 209.859C171.165 212.283 170.768 216.132 169.18 219.329C165.635 221.619 160.927 224.425 154.781 224.825L123.081 216.214C122.508 209.713 117.039 204.59 110.185 204.558C102.927 204.524 97.058 210.148 97.025 217.188C96.992 224.228 102.8 229.987 110.066 230.021C114.155 230.04 117.695 228.199 120.118 225.367L152.117 234.057C157.365 236.79 160.533 241.097 162.847 244.608C163.464 247.853 164.082 253.171 158.815 258.535C157.338 259.398 156.07 260.437 154.312 261.021L143.758 260.816C141.784 256.231 137.092 252.957 131.667 252.924C124.411 252.89 118.465 258.594 118.432 265.632C118.399 272.672 124.282 278.431 131.547 278.465C137.078 278.491 141.827 275.146 143.787 270.452L152.844 270.574C157.232 273.18 160.002 276.786 162.156 280.098C162.816 282.408 162.861 285.086 162.496 287.857C160.181 291.123 157.21 294.85 152.493 297.446L120.716 305.29C118.319 302.448 114.869 300.491 110.783 300.465C103.527 300.431 97.6551 306.135 97.6221 313.173C97.5891 320.213 103.398 325.972 110.663 326.006C117.456 326.038 122.868 320.961 123.593 314.548L158.893 305.782C162.364 306.837 164.967 308.622 167.33 310.445C167.699 310.974 167.818 311.619 167.994 312.249C168.104 312.949 168.111 314.007 168.207 314.837C168.148 317.332 167.607 319.867 166.675 322.352C167.469 334.42 174.865 341.351 179.183 341.371C183.502 341.391 187.786 343.777 189.235 348.549C190.474 352.627 188.397 355.61 186.716 359.193L160.243 385.318C160.069 385.487 160.162 385.754 160.015 385.943C158.84 385.602 157.63 385.225 156.35 385.219C149.092 385.185 143.223 390.889 143.19 397.93C143.157 404.97 148.966 410.651 156.231 410.685C163.487 410.719 169.433 405.093 169.466 398.053C169.477 395.641 168.591 393.471 167.4 391.539L194.097 365.182C195.615 364.357 197.136 363.865 198.674 363.401C201.876 362.927 205.554 363.268 208.919 365.407C211.3 369.031 213.395 373.492 213.647 378.986L207.677 390.788C207.236 390.743 206.852 390.543 206.406 390.549C199.148 390.515 193.204 396.218 193.171 403.256C193.138 410.297 199.021 416.056 206.286 416.09C213.542 416.124 219.414 410.42 219.447 403.379C219.462 400.095 218.127 397.173 216.042 394.901L221.557 384.038C229.109 378.098 236.271 382.329 238.709 382.551C239.165 382.744 239.602 382.969 240.052 383.184C242.833 386.347 244.062 389.752 244.199 392.762L234.272 434.635C227.596 435.213 222.272 440.483 222.236 447.115C222.203 454.155 228.094 459.834 235.352 459.868C242.608 459.902 248.477 454.278 248.51 447.238C248.529 443.058 246.352 439.523 243.167 437.184L252.866 396.328C256.055 392.185 259.846 390.729 263.075 390.421C266.04 390.948 269.101 391.168 272.127 391.483C275.4 394.422 276.814 397.864 277.399 400.753L277.419 412.427C272.294 414.145 268.557 418.651 268.531 424.217C268.498 431.257 274.388 437.017 281.647 437.051C288.902 437.085 294.774 431.38 294.807 424.34C294.832 419.01 291.487 414.553 286.701 412.628L286.616 398.915C287.404 396.427 288.658 394.675 290.011 393.212C291.201 392.363 292.38 391.749 293.539 391.348C295.574 391.124 297.59 390.8 299.606 390.514C300.922 390.688 301.988 390.824 303.047 391.157C309.055 394.364 310.833 400.317 312.054 402.013L318.922 437.774C316.108 440.098 314.174 443.436 314.163 447.31C314.13 454.35 320.02 460.109 327.278 460.143C334.534 460.177 340.403 454.473 340.436 447.433C340.469 440.523 334.848 434.991 327.771 434.759L320.1 394.529C320.675 389.901 322.669 387.064 324.559 384.989C326.29 383.31 328.072 382.23 329.816 381.644C330.114 381.51 330.414 381.399 330.716 381.257C332.671 380.76 334.506 380.764 336.182 380.97C337.79 381.852 339.467 382.748 340.586 383.811L346.751 394.182C344.748 396.407 343.352 399.214 343.342 402.393C343.309 409.433 349.202 415.193 356.457 415.227C363.716 415.261 369.585 409.556 369.618 402.516C369.651 395.476 363.835 389.797 356.577 389.763C356.055 389.761 355.582 389.936 355.079 389.992L349.138 379.777C348.333 377.677 348.083 375.923 348.19 374.366C348.196 374.276 348.253 374.221 348.266 374.131C351.946 365.694 359.384 364.691 362.912 363.857L362.986 363.858C365.12 364.056 367.027 364.566 368.52 365.295L396.237 393.319C395.431 394.957 394.872 396.702 394.863 398.64C394.83 405.678 400.723 411.437 407.978 411.471C415.237 411.505 421.106 405.804 421.139 398.763C421.172 391.723 415.356 386.042 408.098 386.008C406.366 386 404.678 386.34 403.154 386.925L376.48 359.924C373.269 353.824 374.876 348.335 376.101 345.037C377.468 343.253 378.87 341.489 380.168 339.65C384.695 337.254 389.214 337.9 391.852 338.293L399.836 343.972C399.682 344.743 399.298 345.436 399.301 346.241C399.268 353.281 405.16 359.041 412.416 359.075C419.674 359.109 425.544 353.404 425.577 346.364C425.61 339.326 419.794 333.645 412.535 333.611C409.726 333.598 407.256 334.629 405.115 336.083L396.085 329.695C392.407 324.809 392.494 319.877 393.153 316.36C393.65 315.066 394.235 313.823 394.745 312.529C400.004 307.567 406.071 308.28 408.54 308.048L441.438 316.509C441.723 323.275 447.271 328.767 454.331 328.792C461.587 328.826 467.533 323.122 467.566 316.082C467.599 309.042 461.706 303.282 454.451 303.248C450.618 303.231 447.263 304.907 444.849 307.436L410.304 298.576C404.375 295.489 402.768 290.367 402.127 286.628C402.529 283.508 403.159 280.47 403.442 277.31C406.603 273.634 410.465 272.366 413.201 271.794L422.107 271.836C424.249 276.016 428.621 279.002 433.752 279.019C441.01 279.053 446.879 273.351 446.912 266.311C446.945 259.27 441.13 253.511 433.872 253.477C428.082 253.45 423.254 257.159 421.48 262.195L412.497 262.075C408.721 261.192 406.208 259.237 404.436 257.023L404.436 256.943C403.045 254.196 402.513 251.696 402.6 249.412C402.669 247.64 403.274 246.354 403.745 244.952L403.819 245.03C404.506 240.949 406.311 238.826 408.046 237.45C411.978 235.265 416.045 234.827 416.821 233.966L444.852 227.044C447.247 229.738 450.683 231.54 454.636 231.558C461.894 231.592 467.763 225.888 467.796 218.848C467.829 211.807 462.013 206.126 454.755 206.092C447.813 206.06 442.185 211.248 441.675 217.863L411.397 225.321C403.258 225.235 398.186 221.811 395.032 219.056C394.949 218.85 394.892 218.629 394.809 218.428C392.299 212.248 394.006 207.374 395.775 204.093L405.459 198.653C407.589 200.124 410.045 201.104 412.857 201.117C420.115 201.151 426.058 195.527 426.091 188.487C426.124 181.447 420.234 175.687 412.976 175.653C405.72 175.619 399.851 181.323 399.818 188.364C399.814 189.174 400.11 189.87 400.255 190.638L392.074 195.3C387.234 196.075 383.506 194.618 380.933 192.663C380.033 191.508 379.193 190.303 378.329 189.123C374.375 180.194 379.675 173.825 380.583 171.269L404.802 147.172C406.525 147.993 408.434 148.521 410.485 148.53C417.741 148.564 423.61 142.94 423.643 135.9C423.676 128.86 417.86 123.101 410.604 123.067C403.346 123.033 397.402 128.737 397.369 135.777C397.362 137.397 397.75 138.88 398.321 140.325L372.675 165.749C366.29 170.54 360.597 168.337 357.099 166.852C356.944 166.728 356.806 166.574 356.651 166.456C351.635 161.821 351.36 156.537 351.776 152.643L357.213 142.561C357.747 142.629 358.237 142.887 358.783 142.882C366.039 142.916 371.91 137.212 371.943 130.172C371.976 123.134 366.158 117.375 358.903 117.341C351.644 117.307 345.701 123.011 345.668 130.049C345.653 133.233 346.952 136.05 348.923 138.293L346.13 143.45C345.197 145.09 344.099 146.271 342.966 147.274C342.239 148.173 341.382 148.392 340.563 148.91C338.925 149.827 337.567 150.224 336.064 150.533C332.99 150.607 331.037 149.855 330.007 149.329C325.637 146.39 324.219 142.64 323.54 139.347C323.113 135.813 323.073 133.588 323.132 130.883L331.447 97.4674C337.902 96.6853 343.011 91.6194 343.032 85.1406C343.065 78.1003 337.175 72.341 329.917 72.307C322.661 72.273 316.792 77.9772 316.759 85.0175C316.739 89.2974 319 92.9185 322.324 95.2308L313.474 130.683C311.291 136.422 307.388 138.537 304.672 139.966C303.154 140.39 301.582 141.05 300.25 140.963C300.1 140.94 299.956 140.907 299.803 140.883C298.783 140.778 298.009 140.306 297.112 140.008C294.149 138.528 290.497 136.088 288.772 130.567L288.824 119.52C293.327 117.515 296.498 113.155 296.512 108.037C296.545 100.997 290.729 95.2381 283.474 95.2041C276.215 95.1701 270.272 100.874 270.239 107.914C270.212 113.653 274.171 118.315 279.539 119.945L279.495 129.27C278.363 134.77 275.325 137.374 272.411 139.108C271.349 139.787 270.254 140.447 269.187 140.582C268.885 140.626 268.588 140.69 268.288 140.736C266.741 140.749 265.288 140.378 263.949 139.853L263.875 139.853C261.039 137.706 255.764 134.316 252.487 125.931L245.071 94.7885C248.361 92.4872 250.639 88.945 250.659 84.7078C250.692 77.6674 244.876 71.9085 237.618 71.8745ZM282.617 181.938C287.205 181.277 290.412 186.071 290.978 186.914C293.371 189.994 296.865 192.663 301.349 194.248C306.898 196.223 312.232 195.924 316.396 194.161C316.916 194.041 317.29 194.135 317.895 193.855C325.381 190.292 327.009 197.984 327.444 200.794C327.927 205.011 329.717 209.505 333.148 213.516C338.151 219.361 344.608 222.172 349.88 221.429C359.475 222.615 356.321 230.589 355.973 231.409C354.464 234.837 353.437 238.746 353.821 243.309C354.204 247.989 355.79 251.993 357.883 255.157C357.966 255.318 358.009 255.471 358.104 255.63C358.82 256.651 359.655 257.375 360.487 258.148C360.912 258.539 361.104 258.951 361.605 259.329C371.599 266.529 361.386 274.372 361.386 274.372C358.721 276.704 356.336 279.686 354.755 283.743C353.356 287.325 353.021 290.786 353.132 294.078C353.059 295.021 353.013 295.973 353.195 297.055C353.253 297.399 353.415 297.665 353.49 297.996C353.753 299.136 353.942 300.215 354.521 301.449C360.605 314.222 347.346 314.892 347.346 314.892L347.345 314.97C343.188 315.256 338.664 317.003 334.594 320.551C331.325 323.402 329.132 326.824 327.81 330.235C326.996 331.769 326.359 333.608 326.363 336.028C326.368 348.168 314.584 341.143 314.584 341.143C311.162 339.908 307.127 339.453 302.836 340.148C297.073 341.098 292.585 343.896 289.701 347.452C288.94 348.186 288.183 348.857 287.519 349.949C281.302 360.203 274.879 347.619 274.879 347.619L274.805 347.618C272.122 344.095 267.955 341.15 262.487 339.881C257.283 338.67 252.458 339.3 248.633 341.069C248.05 341.305 247.518 341.338 246.908 341.688C240.223 345.593 239.031 341.902 238.764 338.438C239.252 333.546 237.701 327.687 233.974 322.509C230.373 317.498 225.646 314.515 221.14 313.518L221.066 313.518C219.47 313.172 217.899 312.939 216.425 313.183C204.88 314.36 210.417 301.323 210.417 301.323C213.039 296.94 213.841 290.475 211.846 283.701C210.417 278.842 207.886 275.017 204.938 272.385C204.692 272.164 204.628 271.985 204.342 271.756C195.733 265.094 203.103 257.942 204.338 256.79C208.402 254.008 211.761 248.806 212.866 242.022C213.697 236.958 212.713 232.581 211.131 228.77C211.068 228.371 211.161 228.045 210.988 227.596C208.525 221.058 215.302 219.385 216.717 219.08C221.342 219.212 226.66 217.234 231.267 212.96C233.544 210.837 235.337 208.449 236.616 206.01C238.269 202.831 238.686 199.691 238.53 196.697C238.782 196.094 239.057 195.654 239.213 194.74C240.485 187.432 248.594 190.082 248.594 190.082C251.866 192.136 255.744 193.614 260.478 193.508C267.383 193.355 273.089 190.4 276.308 186.296C276.659 185.954 277.01 185.88 277.361 185.438C279.176 183.163 280.953 182.175 282.617 181.938Z" fill="#339DFF" stroke="black" stroke-linejoin="round"/>
</svg>
