<svg width="266" height="42" viewBox="0 0 266 42" fill="none" xmlns="http://www.w3.org/2000/svg">
<path d="M65.6843 1.15747C65.0537 0.493451 64.1836 0.0826177 63.2233 0.0484325L82.7601 0.0412598C83.7407 0.0620151 84.6291 0.484145 85.2708 1.15991L85.2843 1.1503L85.6955 1.69848L98.2527 18.4131L98.2438 18.4227C98.7306 19.0841 99.0303 19.8972 99.031 20.7923C99.0319 21.873 98.6075 22.8524 97.9272 23.5688L97.9318 23.6117L85.9191 40.1518C85.8991 40.166 85.8636 40.1807 85.8423 40.1949C85.1882 41.2001 84.1138 41.8608 82.8914 41.8619C82.8219 41.8619 82.7569 41.8463 82.6883 41.8429C82.6652 41.8606 82.6396 41.8764 82.6071 41.8764L63.5533 41.8927C63.5097 41.8927 63.479 41.87 63.4539 41.8402C64.6125 41.7866 65.6292 41.1554 66.2559 40.1924C66.2772 40.1784 66.3126 40.1636 66.3327 40.1496L71.1936 33.459L81.5128 33.4502L90.7071 20.7565L81.5207 8.44076L71.1835 8.44961L66.1091 1.69604L65.6979 1.14801L65.6843 1.15747Z" fill="#000002"/>
<path fill-rule="evenodd" clip-rule="evenodd" d="M85.2708 1.15991C84.6291 0.484145 83.7407 0.0620151 82.7601 0.0412598L63.2233 0.0484325C63.6961 0.0652634 64.147 0.173394 64.5583 0.358091C64.9823 0.548532 65.3642 0.820375 65.6843 1.15747L65.6979 1.14801L71.1835 8.44961L81.5207 8.44076L90.7071 20.7565L81.5128 33.4502L71.1936 33.459L66.3327 40.1496C66.3222 40.1569 66.3075 40.1644 66.2929 40.1719C66.2795 40.1788 66.2661 40.1857 66.2559 40.1924C65.8489 40.8179 65.2772 41.3035 64.609 41.5816C64.2781 41.7194 63.9234 41.8063 63.5533 41.8342C63.5533 41.8342 63.5533 41.8342 63.5533 41.8342C63.5203 41.8366 63.4871 41.8387 63.4539 41.8402C63.479 41.87 63.5097 41.8927 63.5533 41.8927L82.6071 41.8764C82.6396 41.8764 82.6652 41.8606 82.6883 41.8429C82.7185 41.8444 82.748 41.8483 82.7774 41.8521C82.815 41.857 82.8525 41.8619 82.8914 41.8619C84.1138 41.8608 85.1882 41.2001 85.8423 40.1949C85.8525 40.1881 85.8658 40.1812 85.8792 40.1744C85.8939 40.1668 85.9086 40.1593 85.9191 40.1518L97.9318 23.6117L97.9272 23.5688C98.6075 22.8524 99.0319 21.873 99.031 20.7923C99.0303 19.8972 98.7306 19.0841 98.2438 18.4227L98.2527 18.4131L85.2843 1.1503L85.2708 1.15991ZM85.088 1.41363C85.0701 1.40131 85.0532 1.38701 85.0378 1.37075C84.4514 0.753283 83.6443 0.371133 82.7566 0.351409L65.2084 0.357852C65.4383 0.506679 65.652 0.67958 65.8462 0.873648C65.8876 0.894921 65.9247 0.925468 65.9542 0.96474L71.3444 8.13932L81.5204 8.13061C81.6221 8.13052 81.7177 8.17795 81.7776 8.2582L90.964 20.5739C91.0442 20.6814 91.0452 20.8269 90.9666 20.9355L81.7722 33.6292C81.7127 33.7113 81.6161 33.7602 81.513 33.7603L71.3579 33.769L66.5919 40.329C66.5714 40.3571 66.5464 40.3816 66.5177 40.4017C66.5035 40.4116 66.4901 40.4197 66.4797 40.4256C66.1623 40.8934 65.7564 41.2877 65.2871 41.5811L82.5447 41.5663C82.5937 41.542 82.6486 41.5305 82.7042 41.5332C82.7486 41.5354 82.7921 41.5411 82.8205 41.5448C82.8243 41.5453 82.8278 41.5458 82.8311 41.5462C82.8636 41.5504 82.8792 41.5517 82.8913 41.5517C83.9899 41.5507 84.9697 40.9574 85.5741 40.0286C85.5972 39.9932 85.6273 39.9627 85.6628 39.939C85.6772 39.9293 85.6908 39.9215 85.7009 39.9159L97.6148 23.5118C97.6257 23.4548 97.6529 23.4014 97.6941 23.358C98.3214 22.6975 98.7141 21.7929 98.7133 20.7926C98.7126 19.9666 98.4364 19.216 97.9857 18.6037C97.9681 18.5798 97.9545 18.5541 97.9447 18.5275L85.4393 1.88189L85.4391 1.88172L85.088 1.41363ZM85.7445 39.893C85.7445 39.893 85.7444 39.893 85.7444 39.8931C85.745 39.8927 85.7451 39.8927 85.7445 39.893ZM82.4921 41.5989C82.4896 41.6009 82.4901 41.6002 82.4933 41.598C82.4929 41.5983 82.4925 41.5986 82.4921 41.5989Z" fill="#FFFEFF"/>
<path fill-rule="evenodd" clip-rule="evenodd" d="M63.0998 0.0412598C61.0944 0.0412598 59.4692 1.73358 59.4692 3.81842C59.4692 4.71914 59.7845 5.53501 60.291 6.18392C60.2881 6.2207 60.2996 6.25824 60.3226 6.28877L71.1106 20.7679L60.0923 35.9481L60.0833 35.9719C60.0806 35.9773 60.0561 36.0212 60.0472 36.0388C59.6695 36.6323 59.442 37.3349 59.442 38.0943C59.442 40.192 61.1175 41.8906 63.181 41.8906C64.4625 41.8906 65.579 41.2256 66.2517 40.226L66.2653 40.2356L78.0692 23.9967L78.3357 23.6294L78.5435 23.3432L78.5073 23.3672C79.0784 22.6752 79.4375 21.789 79.4375 20.8109C79.4375 19.9159 79.1384 19.1026 78.6518 18.4406L78.6608 18.4311L71.1828 8.4635L66.1117 1.70565L65.7008 1.15717L65.6873 1.16678C65.0569 0.50215 64.1869 0.0905574 63.2262 0.0556091C63.1833 0.0539304 63.143 0.0412598 63.0998 0.0412598Z" fill="#000002"/>
<path fill-rule="evenodd" clip-rule="evenodd" d="M60.6057 6.14142L71.3675 20.5855C71.4477 20.6931 71.4486 20.8386 71.3698 20.9472L60.3748 36.0954C60.3725 36.1006 60.37 36.1059 60.3673 36.111C60.3651 36.1153 60.3628 36.1196 60.3621 36.1208L60.3581 36.1283L60.3479 36.1467C60.3398 36.1617 60.3337 36.1729 60.3316 36.1771C60.3272 36.1858 60.3223 36.1942 60.3171 36.2024C59.9686 36.75 59.7598 37.3964 59.7598 38.0943C59.7598 40.0322 61.3046 41.5804 63.181 41.5804C64.3445 41.5804 65.3659 40.9774 65.9861 40.0557C66.0074 40.024 66.0343 39.9967 66.0652 39.9749L77.8099 23.8175L77.8101 23.8172L78.0763 23.4502L78.0764 23.45L78.2042 23.2741C78.2158 23.238 78.2343 23.2036 78.2599 23.1726C78.7887 22.5318 79.1197 21.7133 79.1197 20.8109C79.1197 19.985 78.8441 19.2342 78.3936 18.6213C78.3762 18.5975 78.3625 18.572 78.3528 18.5455L70.9265 8.64676L65.5045 1.42055C65.4865 1.40818 65.4696 1.39381 65.4541 1.37747C64.8788 0.770855 64.0873 0.397299 63.2144 0.365542L63.2135 0.36551C63.1721 0.36389 63.1332 0.357438 63.1157 0.35452C63.1139 0.354232 63.1124 0.353978 63.1111 0.353766C63.1023 0.352347 63.0976 0.35169 63.0955 0.351411C61.2864 0.353841 59.7869 1.88739 59.7869 3.81842C59.7869 4.64687 60.0766 5.3975 60.5437 5.99597C60.5771 6.03873 60.5983 6.0889 60.6057 6.14142ZM65.7008 1.15717L78.6608 18.4311L78.6518 18.4406C79.1384 19.1026 79.4375 19.9159 79.4375 20.8109C79.4375 21.6609 79.1663 22.4416 78.7204 23.0856C78.6618 23.1702 78.6002 23.2525 78.5358 23.3323C78.5349 23.3335 78.5339 23.3347 78.5329 23.3359C78.5244 23.3464 78.5159 23.3568 78.5073 23.3672L78.5435 23.3432L78.3357 23.6294L66.2657 40.235L66.2653 40.2356L66.2517 40.226C66.2517 40.226 66.2517 40.226 66.2517 40.226C66.2517 40.226 66.2516 40.2261 66.2516 40.2261C66.1933 40.3128 66.1316 40.3969 66.0669 40.4783C65.3841 41.3359 64.3513 41.8906 63.181 41.8906C61.1175 41.8906 59.442 40.192 59.442 38.0943C59.442 37.3349 59.6695 36.6323 60.0472 36.0388C60.0531 36.0273 60.0656 36.0044 60.0743 35.9885C60.0789 35.9802 60.0824 35.9738 60.0833 35.9719L60.0923 35.9481L71.1106 20.7679L60.3226 6.28877C60.2996 6.25824 60.2881 6.2207 60.291 6.18392C59.7845 5.53501 59.4692 4.71914 59.4692 3.81842C59.4692 1.73358 61.0944 0.0412598 63.0998 0.0412598C63.1229 0.0412598 63.1452 0.0448883 63.1675 0.0485191C63.1869 0.0516731 63.2063 0.0548287 63.2262 0.0556091C64.1869 0.0905574 65.0569 0.50215 65.6873 1.16678L65.7008 1.15717Z" fill="#FFFEFF"/>
<path fill-rule="evenodd" clip-rule="evenodd" d="M53.8224 0C53.6815 0 53.5481 0.0267092 53.4114 0.0430387H37.4845C37.4526 0.0430387 37.4474 0.0831721 37.4259 0.104996C36.3479 0.216556 35.4037 0.813275 34.8113 1.72178C34.79 1.73582 34.7545 1.75062 34.7345 1.76466L22.7047 18.2944C22.7043 18.2951 22.7096 18.3359 22.7092 18.3375C22.0282 19.0532 21.6029 20.0324 21.6029 21.113C21.6029 22.0081 21.9022 22.8214 22.3887 23.4833C22.3887 23.4836 22.3795 23.4926 22.3796 23.4929L34.9287 40.2183L35.3397 40.7667C35.3409 40.7682 35.3516 40.7563 35.3531 40.7572C35.8882 41.3212 36.5966 41.6988 37.3853 41.8255L54.1611 41.8017C55.3141 41.7444 56.3267 41.1195 56.9517 40.1611C56.973 40.1469 57.0085 40.1322 57.0284 40.118L68.9409 23.7456L69.0582 23.5883C69.0582 23.5883 69.0584 23.5844 69.0582 23.5835L69.3428 23.1971L69.3338 23.1924C69.8423 22.5206 70.1601 21.6864 70.1601 20.7697C70.1601 19.8747 69.8609 19.0613 69.3744 18.3994C69.3743 18.3991 69.3837 18.3901 69.3834 18.3898L56.8344 1.66455L56.4234 1.11605C56.4223 1.11453 56.4116 1.12643 56.4098 1.12552C55.7513 0.431283 54.8343 0 53.8224 0ZM39.1418 8.46527H52.698L61.8331 20.7268L52.5986 33.4509H39.0921L34.9423 27.8805L33.7366 26.2637L29.9298 21.1559L39.1418 8.46527Z" fill="#FF5733"/>
<path fill-rule="evenodd" clip-rule="evenodd" d="M53.45 0.35089C53.4372 0.35242 53.4243 0.353187 53.4114 0.353187H37.6164C37.5708 0.386528 37.5166 0.407489 37.4594 0.413415C36.4834 0.514416 35.623 1.05458 35.0793 1.88832C35.056 1.92409 35.0254 1.95481 34.9894 1.97858C34.9755 1.98781 34.9623 1.99539 34.9524 2.00082L23.0215 18.3947C23.0202 18.4018 23.0182 18.4105 23.0154 18.4203C23.0018 18.4682 22.9767 18.5122 22.942 18.5485C22.3141 19.2085 21.9207 20.1128 21.9207 21.113C21.9207 21.939 22.1964 22.6897 22.6469 23.3025C22.6642 23.3261 22.678 23.3518 22.6879 23.3789L35.1851 40.0351L35.1852 40.0352L35.5364 40.5038C35.5545 40.5163 35.5712 40.5306 35.5863 40.5465C36.0683 41.0546 36.7037 41.396 37.4116 41.5153L54.1526 41.4915C55.1901 41.4375 56.11 40.8743 56.6837 39.9945C56.7067 39.9592 56.7368 39.9288 56.7722 39.9052C56.7867 39.8955 56.8003 39.8876 56.8104 39.882L68.6818 23.566L68.684 23.5631L68.7786 23.4362C68.7851 23.4246 68.7923 23.4133 68.8002 23.4025L69.0376 23.0802C69.0477 23.0547 69.0613 23.0305 69.0782 23.0081C69.5496 22.3853 69.8423 21.6149 69.8423 20.7697C69.8423 19.9438 69.5666 19.193 69.1162 18.5802C69.1045 18.5643 69.0944 18.5473 69.086 18.5295C69.0819 18.521 69.0784 18.5125 69.0753 18.5042L56.578 1.8478L56.5779 1.84763L56.2268 1.37905C56.2086 1.36655 56.1918 1.3522 56.1767 1.33622C55.5735 0.700283 54.7389 0.310148 53.8224 0.310148C53.7449 0.310148 53.6802 0.319374 53.5945 0.331586C53.5526 0.337551 53.5058 0.344228 53.45 0.35089ZM69.3834 18.3898C69.3837 18.3901 69.3743 18.3991 69.3744 18.3994C69.8609 19.0613 70.1601 19.8747 70.1601 20.7697C70.1601 21.5729 69.9161 22.3128 69.5136 22.9356C69.4706 23.0021 69.4259 23.0673 69.3794 23.1311C69.3646 23.1513 69.3497 23.1714 69.3346 23.1914C69.3343 23.1917 69.3341 23.1921 69.3338 23.1924L69.3428 23.1971L69.0582 23.5835C69.0584 23.5844 69.0582 23.5883 69.0582 23.5883L68.9409 23.7456L57.0284 40.118C57.018 40.1255 57.0033 40.133 56.9886 40.1406C56.9752 40.1474 56.9618 40.1543 56.9517 40.1611C56.3267 41.1195 55.3141 41.7444 54.1611 41.8017L37.3853 41.8255C36.5966 41.6988 35.8882 41.3212 35.3531 40.7572C35.3531 40.7572 35.3531 40.7572 35.353 40.7571C35.353 40.7571 35.3529 40.7571 35.3529 40.7571C35.352 40.7572 35.3499 40.7589 35.3477 40.7609C35.3476 40.761 35.3474 40.7611 35.3473 40.7612C35.347 40.7615 35.3468 40.7617 35.3465 40.762C35.3434 40.7647 35.3403 40.7674 35.3397 40.7667L22.3796 23.4929C22.3795 23.4927 22.3823 23.4899 22.3848 23.4874C22.3868 23.4853 22.3887 23.4834 22.3887 23.4833C21.9022 22.8214 21.6029 22.0081 21.6029 21.113C21.6029 20.0324 22.0282 19.0532 22.7092 18.3375C22.7094 18.3367 22.7081 18.3251 22.7068 18.3141C22.7056 18.3041 22.7045 18.2947 22.7047 18.2944L34.7345 1.76466C34.745 1.7573 34.7597 1.74973 34.7744 1.74217C34.7878 1.73531 34.8012 1.72846 34.8113 1.72178C35.4037 0.813275 36.3479 0.216556 37.4259 0.104996C37.4334 0.0973412 37.439 0.0874342 37.4444 0.0777965C37.4543 0.0599563 37.4638 0.0430387 37.4845 0.0430387H53.4114C53.4498 0.0384514 53.488 0.0330449 53.5261 0.0276416C53.6236 0.0138106 53.7211 0 53.8224 0C54.8343 0 55.7513 0.431283 56.4098 1.12552C56.4099 1.12556 56.41 1.12557 56.4101 1.12557C56.4101 1.12557 56.4102 1.12556 56.4103 1.12554C56.4112 1.12533 56.4132 1.12375 56.4153 1.12193C56.4154 1.12182 56.4155 1.1217 56.4157 1.12158C56.416 1.12127 56.4164 1.12096 56.4167 1.12064C56.4198 1.11794 56.4228 1.11528 56.4234 1.11605L69.3834 18.3898ZM34.9087 2.02378C34.9087 2.0238 34.9087 2.02377 34.9087 2.02378C34.9081 2.02413 34.9081 2.02416 34.9087 2.02378ZM56.8539 39.8592C56.8539 39.8592 56.8538 39.8592 56.8538 39.8593C56.8544 39.8589 56.8545 39.8589 56.8539 39.8592ZM69.1232 18.568C69.1244 18.5696 69.1256 18.5712 69.1268 18.5729C69.1334 18.5817 69.1407 18.5904 69.1488 18.5991C69.1411 18.5908 69.1338 18.5821 69.127 18.5731L69.1268 18.5729L69.1232 18.568ZM38.8826 8.28597C38.9421 8.2039 39.0388 8.15512 39.1418 8.15512H52.698C52.7997 8.15512 52.8952 8.20261 52.955 8.28286L62.0901 20.5444C62.1703 20.652 62.1712 20.7975 62.0924 20.9061L52.8579 33.6301C52.7983 33.7122 52.7016 33.761 52.5986 33.761H39.0921C38.9905 33.761 38.8949 33.7135 38.8351 33.6333L34.6854 28.063L34.6853 28.0629L33.4797 26.4462L29.6729 21.3384C29.5927 21.2308 29.5917 21.0852 29.6706 20.9766L38.8826 8.28597ZM39.0921 33.4509H52.5986L61.8331 20.7268L52.698 8.46527H39.1418L29.9298 21.1559L39.0921 33.4509Z" fill="#FFFEFF"/>
<path d="M53.0069 4.3562H37.7839L26.0948 20.1863L37.1043 36.8878H55.1816L66.463 20.1863L53.0069 4.3562Z" fill="#FF5733"/>
<path opacity="0.98982" d="M28.2245 0.0794129C28.3205 0.0710192 28.4107 0.0412598 28.509 0.0412598C28.5338 0.0412598 28.5564 0.0502657 28.5812 0.0507235C28.8366 0.0507235 29.0853 0.0769729 29.3263 0.12703H29.3308C29.3387 0.128709 29.3454 0.134964 29.3533 0.136643C30.5311 0.385859 31.511 1.14755 31.9543 2.26361C32.1743 2.74922 32.3022 3.28626 32.3022 3.85658C32.3022 4.22269 32.2384 4.57065 32.1441 4.90579C32.1279 4.96332 32.1132 5.02116 32.0944 5.07748C32.0231 5.29144 31.9334 5.49304 31.8279 5.68793C31.7611 5.82055 31.6925 5.95973 31.6925 5.95973L20.6742 21.14L31.4622 35.6191C31.485 35.6496 31.4967 35.6873 31.4938 35.7239C32.0003 36.3728 32.3156 37.1887 32.3156 38.0894C32.3156 40.081 30.8277 41.6958 28.947 41.8381C28.9422 41.8399 28.934 41.8411 28.9289 41.8428C28.8468 41.8486 28.7685 41.8666 28.685 41.8666C27.6732 41.8666 26.756 41.4355 26.0975 40.7411L26.0839 40.7507L25.6731 40.2022L21.2161 34.2599L18.4344 30.5591L13.124 23.4768L13.1329 23.4673C12.6466 22.8053 12.3473 21.992 12.3473 21.0971C12.3473 20.2443 12.619 19.4594 13.0653 18.8126L13.0607 18.8079L13.4491 18.2785L13.4942 18.2165L21.1528 7.6957L25.4789 1.74854C25.4812 1.74701 25.4853 1.74549 25.4879 1.74381C25.7931 1.27758 26.2 0.893909 26.6711 0.603944C26.7088 0.580747 26.7498 0.563959 26.7884 0.541983C26.9621 0.4437 27.1411 0.358694 27.3303 0.289255C27.4027 0.262701 27.4772 0.239657 27.5517 0.217681C27.7449 0.160604 27.9428 0.118333 28.1477 0.0937623C28.174 0.09071 28.1979 0.0817021 28.2245 0.0794129Z" fill="#000002"/>
<path opacity="0.98982" fill-rule="evenodd" clip-rule="evenodd" d="M28.2339 0.182384L28.2338 0.182396C28.2291 0.182799 28.2234 0.183889 28.2105 0.186877L28.2077 0.187535C28.1966 0.19013 28.1792 0.194207 28.1605 0.196394C27.9621 0.220193 27.7701 0.261155 27.5823 0.316631C27.5086 0.338416 27.4366 0.360686 27.3675 0.38603C27.1846 0.45319 27.0109 0.535575 26.8418 0.63128C26.8218 0.642642 26.8013 0.652789 26.7841 0.661351C26.7818 0.66247 26.7796 0.663561 26.7775 0.664625C26.7578 0.674428 26.7419 0.682559 26.7276 0.691391C26.2689 0.973724 25.8734 1.3468 25.5771 1.79947C25.5706 1.80942 25.5624 1.8182 25.5529 1.82543L21.2392 7.75555L13.5806 18.2764L13.5355 18.3383L13.5352 18.3387L13.1675 18.8399C13.1645 18.8505 13.1598 18.8608 13.1532 18.8704C12.7179 19.5011 12.4532 20.2661 12.4532 21.0971C12.4532 21.9689 12.7446 22.7614 13.219 23.4071C13.2295 23.4213 13.2357 23.4373 13.238 23.4537L18.5198 30.4979L18.5199 30.498L21.3015 34.1988L25.7586 40.1411L26.1357 40.6446C26.1504 40.6502 26.164 40.6589 26.1753 40.6709C26.8153 41.3458 27.705 41.7632 28.685 41.7632C28.7194 41.7632 28.7541 41.7595 28.7935 41.7544C28.8004 41.7535 28.8075 41.7525 28.8148 41.7516C28.8446 41.7476 28.8776 41.7432 28.9111 41.7404C28.9124 41.7402 28.9134 41.7399 28.914 41.7398L28.9141 41.7398C28.9221 41.7372 28.9304 41.7356 28.9388 41.735C30.76 41.5972 32.2097 40.0314 32.2097 38.0894C32.2097 37.2128 31.9029 36.4187 31.4096 35.7866C31.3938 35.7664 31.3862 35.7413 31.3882 35.716C31.389 35.7056 31.3856 35.6921 31.3766 35.6801L31.3765 35.6799L20.5886 21.2008C20.5618 21.1649 20.5615 21.1164 20.5878 21.0802L31.6009 5.90704L31.6089 5.89097C31.6164 5.87581 31.6271 5.85422 31.6399 5.82848C31.6654 5.77702 31.6993 5.70888 31.7328 5.64234C31.7333 5.64143 31.7338 5.64053 31.7343 5.63964C31.8372 5.44944 31.9245 5.25329 31.9936 5.04553C32.0067 5.00642 32.0174 4.96737 32.0289 4.92534C32.0331 4.91014 32.0374 4.89455 32.0419 4.87842C32.1346 4.54938 32.1962 4.21091 32.1962 3.85658C32.1962 3.30156 32.0718 2.77871 31.8575 2.30541C31.8568 2.30395 31.8562 2.30247 31.8556 2.30098C31.4261 1.2197 30.4766 0.480107 29.3309 0.237686M31.6925 5.95973L20.6742 21.14L31.4622 35.6191C31.485 35.6496 31.4967 35.6873 31.4938 35.7239C32.0003 36.3728 32.3156 37.1887 32.3156 38.0894C32.3156 40.081 30.8277 41.6958 28.947 41.8381C28.9444 41.839 28.9408 41.8399 28.9372 41.8407C28.9342 41.8413 28.9312 41.842 28.9289 41.8428C28.8957 41.8451 28.8631 41.8495 28.8305 41.8538C28.7826 41.8602 28.7347 41.8666 28.685 41.8666C27.6732 41.8666 26.756 41.4355 26.0975 40.7411L26.0839 40.7507L18.4344 30.5591L13.124 23.4768L13.1329 23.4673C12.6466 22.8053 12.3473 21.992 12.3473 21.0971C12.3473 20.2443 12.619 19.4594 13.0653 18.8126L13.0607 18.8079L13.4491 18.2785L25.4789 1.74854C25.4801 1.74778 25.4816 1.74702 25.4832 1.74625C25.4849 1.74546 25.4866 1.74465 25.4879 1.74381C25.7931 1.27758 26.2 0.893909 26.6711 0.603944C26.6921 0.591023 26.7141 0.580089 26.7362 0.56914C26.7537 0.560434 26.7713 0.551717 26.7884 0.541983C26.9621 0.4437 27.1411 0.358694 27.3303 0.289255C27.4027 0.262701 27.4772 0.239672 27.5517 0.217696C27.7449 0.160619 27.9428 0.118333 28.1477 0.0937623C28.1601 0.0923275 28.1719 0.0895766 28.1837 0.0868263C28.197 0.0837258 28.2104 0.080626 28.2245 0.0794129C28.2646 0.0759032 28.3038 0.0686578 28.3429 0.0614145C28.3974 0.0513351 28.4518 0.0412598 28.509 0.0412598C28.5217 0.0412598 28.5338 0.0436244 28.546 0.045992C28.5575 0.0482448 28.5691 0.0505003 28.5812 0.0507235C28.8366 0.0507235 29.0853 0.0769729 29.3263 0.12703H29.3308C29.3347 0.127869 29.3384 0.129853 29.342 0.131836C29.3457 0.13382 29.3493 0.135803 29.3533 0.136643C30.5311 0.385859 31.511 1.14755 31.9543 2.26361C32.1743 2.74922 32.3022 3.28626 32.3022 3.85658C32.3022 4.22269 32.2384 4.57065 32.1441 4.90579C32.1399 4.92048 32.1359 4.9352 32.1319 4.9499C32.1201 4.99277 32.1084 5.03555 32.0944 5.07748C32.0231 5.29144 31.9334 5.49304 31.8279 5.68793C31.7611 5.82055 31.6925 5.95973 31.6925 5.95973ZM29.3008 0.227431C29.068 0.179331 28.8279 0.154106 28.5812 0.154106L28.5792 0.154088C28.5573 0.153683 28.5372 0.149737 28.5265 0.14763L28.5244 0.147203C28.5182 0.146008 28.5149 0.145388 28.512 0.14498C28.5098 0.144664 28.5089 0.144642 28.5089 0.144642C28.4702 0.144642 28.4312 0.150503 28.3852 0.158834C28.3784 0.160077 28.3713 0.161396 28.364 0.162754C28.3249 0.170002 28.2798 0.178378 28.2339 0.182384M29.3008 0.227431C29.3014 0.227744 29.3021 0.228058 29.3028 0.22837C29.3091 0.231237 29.3188 0.23512 29.3309 0.237686" fill="#000002"/>
<path fill-rule="evenodd" clip-rule="evenodd" d="M4.00993 0.0561523C3.95386 0.0561523 3.91095 0.0691207 3.86543 0.0799562C3.84838 0.0796509 3.83292 0.0752289 3.81572 0.0752289C1.73764 0.0752289 0.0560668 1.80173 0.0180628 3.94289H0.00910414V4.01446V4.27208C0.00780362 4.2852 0.00448041 4.29512 0.00448041 4.31023V9.86624V11.1157V32.0523V34.1602V36.292V37.8278C0.00448041 37.8372 0.00881514 37.8423 0.00910414 37.8516C0.00852613 37.8777 0 37.9016 0 37.9279C0 40.1032 1.70021 41.8673 3.80228 41.8671C3.8517 41.8671 3.8978 41.8548 3.94678 41.8529C3.94837 41.8529 3.94953 41.8529 3.95126 41.8529H10.2416H22.5062H28.7289C28.8078 41.8529 28.8776 41.8384 28.9321 41.8195C28.8498 41.8253 28.7672 41.8433 28.6837 41.8433C27.6713 41.8433 26.755 41.4122 26.0962 40.7178C26.0945 40.7169 26.0838 40.729 26.0826 40.7274L25.6717 40.1789L21.2148 34.2365H12.6033H8.21855H7.21614V33.1253V29.3196V12.7277V7.67244H10.2687H21.1515L25.4776 1.72527C25.4975 1.71123 25.5331 1.69643 25.5543 1.68239C26.157 0.758472 27.1214 0.151688 28.2231 0.0561523H24.5744H8.25468H4.00993Z" fill="#000002"/>
<path fill-rule="evenodd" clip-rule="evenodd" d="M3.94072 0.381273C3.91418 0.38759 3.88691 0.390541 3.8596 0.390052C3.84229 0.389742 3.82757 0.388427 3.81694 0.387246C3.81147 0.386639 3.80618 0.385953 3.80213 0.385405C1.9217 0.392937 0.371006 1.96272 0.335764 3.94826C0.335349 3.97167 0.332284 3.99443 0.326853 4.01629V4.27208C0.326853 4.28205 0.326361 4.29201 0.325377 4.30194C0.324405 4.31175 0.32321 4.32019 0.32223 4.32647V37.7971C0.322733 37.8001 0.323214 37.8032 0.323662 37.8064C0.325233 37.8177 0.326317 37.8296 0.326707 37.8422C0.326874 37.8476 0.326898 37.8529 0.326779 37.8583C0.326296 37.8801 0.324216 37.8988 0.322294 37.9126C0.320676 37.9242 0.318716 37.9353 0.31777 37.9407C0.324382 39.9565 1.89743 41.5571 3.80228 41.557C3.80195 41.557 3.80565 41.5571 3.82979 41.5537L3.83553 41.5529C3.85586 41.55 3.89425 41.5445 3.93462 41.543C3.93867 41.5429 3.94273 41.5428 3.94678 41.5428H26.6053C26.3626 41.3873 26.1377 41.2056 25.9343 41.0017C25.8921 40.98 25.8555 40.9492 25.8271 40.9118L25.8261 40.9105L25.4153 40.3621L25.4152 40.362L21.0536 34.5467H7.21614C7.04065 34.5467 6.89839 34.4078 6.89839 34.2365V7.67244C6.89839 7.50115 7.04065 7.36229 7.21614 7.36229H20.9874L25.2185 1.54572C25.2387 1.51797 25.2634 1.49365 25.2917 1.47374C25.3063 1.46343 25.3202 1.45507 25.3308 1.44904C25.6254 1.01601 25.9961 0.648666 26.4224 0.366301H4.00993C4.00802 0.366301 4.00484 0.36639 3.99634 0.368057C3.99143 0.369021 3.98532 0.370391 3.97592 0.372669C3.9711 0.373836 3.96639 0.375004 3.96029 0.37651C3.95455 0.377927 3.94779 0.379588 3.94072 0.381273ZM4.00993 0.0561523C3.96206 0.0561523 3.92377 0.0656076 3.88527 0.0751167C3.87868 0.076744 3.87208 0.0783728 3.86543 0.0799562C3.85721 0.0798091 3.84936 0.0787058 3.84151 0.0776022C3.83307 0.0764158 3.82463 0.0752289 3.81572 0.0752289C1.73764 0.0752289 0.0560668 1.80173 0.0180628 3.94289H0.00910414V4.27208C0.0086111 4.27705 0.00782736 4.28157 0.00704419 4.28608C0.00576153 4.29347 0.00448041 4.30085 0.00448041 4.31023V37.8278C0.00448041 37.8327 0.00563101 37.8364 0.00678614 37.8401C0.00787308 37.8436 0.00896403 37.8471 0.00910414 37.8516C0.00882526 37.8642 0.00669619 37.8763 0.00456719 37.8884C0.00228355 37.9013 0 37.9143 0 37.9279C0 40.1032 1.70021 41.8673 3.80228 41.8671C3.82896 41.8671 3.85466 41.8635 3.88038 41.8599C3.9023 41.8569 3.92424 41.8538 3.94678 41.8529H28.7289C28.8078 41.8529 28.8776 41.8384 28.9321 41.8195C28.899 41.8218 28.866 41.8261 28.8328 41.8305C28.7983 41.8349 28.7637 41.8394 28.7289 41.8417C28.7138 41.8427 28.6988 41.8433 28.6837 41.8433C28.1791 41.8433 27.6983 41.7362 27.2615 41.5428C26.8218 41.3482 26.4266 41.0661 26.0962 40.7178C26.0962 40.7178 26.0962 40.7178 26.0962 40.7178C26.0962 40.7178 26.096 40.7178 26.096 40.7178C26.0951 40.7177 26.0927 40.7197 26.0902 40.722C26.0901 40.7221 26.0899 40.7222 26.0898 40.7223C26.0866 40.7252 26.0832 40.7282 26.0826 40.7274L25.8954 40.4776L25.895 40.477L21.2148 34.2365H7.21614V7.67244H21.1515L25.4776 1.72527C25.488 1.71792 25.5028 1.71035 25.5175 1.70279C25.5309 1.69592 25.5442 1.68907 25.5543 1.68239C25.9323 1.10304 26.4524 0.648395 27.0594 0.366301C27.4205 0.198521 27.8123 0.0917821 28.2231 0.0561523H4.00993ZM0.310769 37.7498C0.31069 37.7495 0.310723 37.7496 0.310838 37.75Z" fill="#FFFEFF"/>
<path fill-rule="evenodd" clip-rule="evenodd" d="M44.921 15.9004C44.7715 15.9004 44.6501 16.0184 44.6501 16.1671V17.435C43.9869 17.5286 43.476 18.0672 43.3694 18.7746H42.1195C41.9787 18.7746 41.8671 18.9028 41.8671 19.0607C41.8671 19.2187 41.9787 19.3469 42.1195 19.3469H43.3202V20.2377H42.1195C41.9787 20.2377 41.8608 20.3658 41.8608 20.5238C41.8608 20.6817 41.9787 20.8099 42.1195 20.8099H43.3202V21.6553H42.1195C41.9787 21.6553 41.8671 21.7835 41.8671 21.9414C41.8671 22.0992 41.9787 22.2276 42.1195 22.2276H43.3631C43.4634 22.9436 43.9814 23.4921 44.6501 23.5865V24.9651C44.6501 25.1139 44.7715 25.2316 44.921 25.2316C45.0704 25.2316 45.1919 25.1139 45.1919 24.9651V23.6255H46.0354V24.9651C46.0354 25.1139 46.1567 25.2381 46.3063 25.2381C46.4558 25.2381 46.5772 25.1139 46.5772 24.9651V23.6255H47.3775V24.9651C47.3775 25.1139 47.4991 25.2381 47.6484 25.2381C47.798 25.2381 47.9193 25.1139 47.9193 24.9651V23.593C48.6056 23.515 49.1348 22.9567 49.237 22.2276H50.4499C50.5908 22.2276 50.7023 22.0992 50.7023 21.9414C50.7023 21.7835 50.5908 21.6553 50.4499 21.6553H49.2802V20.8099H50.4499C50.5908 20.8099 50.7023 20.6817 50.7023 20.5238C50.7023 20.3658 50.5908 20.2377 50.4499 20.2377H49.2802V19.3469H50.4499C50.5908 19.3469 50.7086 19.2187 50.7086 19.0607C50.7086 18.9028 50.5908 18.7746 50.4499 18.7746H49.2309C49.1222 18.054 48.5998 17.506 47.9193 17.4285V16.1671C47.9193 16.0184 47.798 15.9004 47.6484 15.9004C47.4991 15.9004 47.3775 16.0184 47.3775 16.1671V17.3961H46.5772V16.1671C46.5772 16.0184 46.4558 15.9004 46.3063 15.9004C46.1567 15.9004 46.0354 16.0184 46.0354 16.1671V17.3961H45.1919V16.1671C45.1919 16.0184 45.0704 15.9004 44.921 15.9004Z" fill="white"/>
<path fill-rule="evenodd" clip-rule="evenodd" d="M44.6501 16.1672C44.6501 16.0184 44.7715 15.9004 44.9211 15.9004C45.0705 15.9004 45.1921 16.0184 45.1921 16.1672V17.3961H46.0354V16.1672C46.0354 16.0184 46.1568 15.9004 46.3064 15.9004C46.4559 15.9004 46.5773 16.0184 46.5773 16.1672V17.3961H47.3775V16.1672C47.3775 16.0184 47.4991 15.9004 47.6485 15.9004C47.7981 15.9004 47.9195 16.0184 47.9195 16.1672V17.4286C48.6 17.506 49.1223 18.0541 49.2311 18.7746H50.45C50.5909 18.7746 50.7087 18.9029 50.7087 19.0608C50.7087 19.2188 50.5909 19.347 50.45 19.347H49.2803V20.2377H50.45C50.5909 20.2377 50.7024 20.3659 50.7024 20.5238C50.7024 20.6818 50.5909 20.81 50.45 20.81H49.2803V21.6553H50.45C50.5909 21.6553 50.7024 21.7836 50.7024 21.9415C50.7024 22.0993 50.5909 22.2277 50.45 22.2277H49.2372C49.1349 22.9568 48.6057 23.5151 47.9195 23.5931V24.9652C47.9195 25.114 47.7981 25.2382 47.6485 25.2382C47.4991 25.2382 47.3775 25.114 47.3775 24.9652V23.6256H46.5773V24.9652C46.5773 25.114 46.4559 25.2382 46.3064 25.2382C46.1568 25.2382 46.0354 25.114 46.0354 24.9652V23.6256H45.1921V24.9652C45.1921 25.114 45.0705 25.2318 44.9211 25.2318C44.7715 25.2318 44.6501 25.114 44.6501 24.9652V23.5867C43.9814 23.4922 43.4635 22.9437 43.3632 22.2277H42.1196C41.9787 22.2277 41.8671 22.0993 41.8671 21.9415C41.8671 21.7836 41.9787 21.6553 42.1196 21.6553H43.3202V20.81H42.1196C41.9787 20.81 41.8608 20.6818 41.8608 20.5238C41.8608 20.3659 41.9787 20.2377 42.1196 20.2377H43.3202V19.347H42.1196C41.9787 19.347 41.8671 19.2188 41.8671 19.0608C41.8671 18.9029 41.9787 18.7746 42.1196 18.7746H43.3695C43.4761 18.0672 43.9869 17.5287 44.6501 17.435V16.1672ZM43.3203 19.3469V20.2377L42.1196 20.2378C41.9788 20.2378 41.861 20.3659 41.861 20.5238C41.861 20.6818 41.9788 20.8099 42.1196 20.8099H43.3203L43.3203 21.6554L42.1196 21.6555C41.9788 21.6555 41.8673 21.7836 41.8673 21.9415C41.8673 22.0992 41.9788 22.2276 42.1196 22.2276H43.3638H43.3632C43.4635 22.9435 43.9815 23.4921 44.6502 23.5865L44.6503 24.9652C44.6503 25.1139 44.7716 25.2316 44.9211 25.2316C45.0704 25.2316 45.1919 25.1139 45.1919 24.9652V23.6255L46.0355 23.6255L46.0355 24.9652C46.0355 25.1139 46.1569 25.2381 46.3064 25.2381C46.4559 25.2381 46.5772 25.1139 46.5772 24.9652V23.6255L47.3776 23.6255L47.3777 24.9652C47.3777 25.1139 47.4992 25.2381 47.6485 25.2381C47.798 25.2381 47.9193 25.1139 47.9193 24.9652V23.5925V23.5931C48.6055 23.515 49.1348 22.9567 49.237 22.2276L50.45 22.2276C50.5908 22.2276 50.7023 22.0992 50.7023 21.9415C50.7023 21.7836 50.5908 21.6555 50.45 21.6555H49.2802L49.2802 20.81L50.45 20.8099C50.5908 20.8099 50.7023 20.6818 50.7023 20.5238C50.7023 20.3659 50.5908 20.2378 50.45 20.2378H49.2802L49.2802 19.3469L50.45 19.3469C50.5908 19.3469 50.7086 19.2187 50.7086 19.0608C50.7086 18.9029 50.5908 18.7748 50.45 18.7748H49.2305H49.231C49.1222 18.0542 48.5999 17.5061 47.9194 17.4287L47.9193 16.1672C47.9193 16.0185 47.798 15.9005 47.6485 15.9005C47.4992 15.9005 47.3777 16.0185 47.3777 16.1672V17.3962L46.5773 17.3962L46.5772 16.1672C46.5772 16.0185 46.4559 15.9005 46.3064 15.9005C46.1569 15.9005 46.0355 16.0185 46.0355 16.1672V17.3962L45.192 17.3962L45.1919 16.1672C45.1919 16.0185 45.0704 15.9005 44.9211 15.9005C44.7716 15.9005 44.6503 16.0185 44.6503 16.1672V17.4356V17.4351C43.9871 17.5287 43.4762 18.0673 43.3696 18.7747L42.1196 18.7748C41.9788 18.7748 41.8673 18.9029 41.8673 19.0608C41.8673 19.2187 41.9788 19.3469 42.1196 19.3469L43.3203 19.3469Z" fill="#000002"/>
<path fill-rule="evenodd" clip-rule="evenodd" d="M42.4955 4.3562C41.8988 4.3562 41.4119 4.83188 41.4119 5.41617C41.4119 5.95948 41.8401 6.39062 42.3785 6.45013L43.0005 9.03806C43.0927 9.65294 42.9477 10.0572 42.8157 10.3646C42.6256 10.6628 42.3832 10.8057 42.1508 10.8523C41.9059 10.8307 41.5163 10.8097 41.1964 10.3712L40.8516 9.75345C40.9923 9.57491 41.0851 9.35913 41.0856 9.11609C41.0856 8.532 40.6051 8.06277 40.0081 8.06277C39.4113 8.06277 38.9245 8.532 38.9245 9.11609C38.9245 9.70039 39.4105 10.1761 40.0081 10.1761C40.072 10.1761 40.1265 10.1482 40.1866 10.1372L40.6546 10.9759C40.7541 11.3548 40.6747 11.668 40.556 11.8927C40.3927 12.0109 40.2451 12.1499 40.0881 12.2764C39.8044 12.352 39.316 12.4635 38.863 12.1008L36.8804 9.96153C36.9474 9.82378 36.9913 9.66813 36.9913 9.50625C36.9913 8.92216 36.5052 8.45293 35.9077 8.45293C35.3107 8.45293 34.8301 8.92216 34.8301 9.50625C34.8301 10.0905 35.3101 10.5662 35.9077 10.5662C36.046 10.5662 36.1786 10.5331 36.3017 10.4882L38.2595 12.595C38.4217 12.9848 38.429 13.3579 38.3951 13.6939C38.3943 13.7016 38.3896 13.706 38.3888 13.7135C38.3756 14.166 38.1567 14.3562 37.9394 14.4482C37.7221 14.4969 37.4915 14.5285 37.2437 14.4873L36.5972 14.0972C36.6 14.0655 36.6164 14.0385 36.6156 14.006C36.6156 13.4219 36.1356 12.9463 35.5382 12.9463C34.9412 12.9463 34.4546 13.4219 34.4546 14.006C34.4546 14.5903 34.9407 15.0596 35.5382 15.0596C35.8052 15.0596 36.0391 14.9566 36.2278 14.7994L36.8681 15.1896C37.0244 15.3835 37.0837 15.6093 37.102 15.8334C37.0841 16.0346 37.053 16.3542 36.9235 16.6202C36.6329 16.8116 36.2467 17.0463 35.7414 17.0819L33.1308 16.3796C33.0811 15.8403 32.6294 15.4172 32.0657 15.4172C31.4687 15.4172 30.9882 15.8863 30.9882 16.4706C30.9882 17.0549 31.4681 17.5305 32.0657 17.5305C32.402 17.5305 32.6924 17.3763 32.8906 17.1404L35.5258 17.8491C35.9585 18.0738 36.2207 18.4301 36.4124 18.7206C36.4644 18.9896 36.5172 19.4307 36.0862 19.8779C35.965 19.9501 35.8612 20.0369 35.7167 20.086L34.8486 20.0731C34.6845 19.6933 34.2974 19.4235 33.8511 19.4228C33.2543 19.4228 32.7675 19.8985 32.7675 20.4826C32.7675 21.0669 33.2535 21.5426 33.8511 21.5426C34.306 21.5426 34.6954 21.2631 34.8548 20.8728L35.5997 20.8794C35.9616 21.0939 36.1908 21.3921 36.3693 21.6662C36.4245 21.8576 36.4292 22.0798 36.4002 22.31C36.2111 22.5819 35.9681 22.8924 35.5812 23.1096L32.9706 23.773C32.7724 23.5381 32.4879 23.377 32.1518 23.3764C31.555 23.3764 31.0743 23.8521 31.0743 24.4362C31.0743 25.0205 31.5542 25.4961 32.1518 25.4961C32.7105 25.4961 33.1537 25.0727 33.2108 24.5402L36.1108 23.799C36.3967 23.8852 36.6114 24.0323 36.8065 24.1827C36.837 24.2264 36.8471 24.2799 36.8618 24.3321C36.8711 24.3902 36.8721 24.478 36.8804 24.5469C36.8764 24.7539 36.8329 24.9645 36.7572 25.1711C36.8272 26.1723 37.4381 26.7446 37.7933 26.7446C38.1485 26.7446 38.5018 26.941 38.6228 27.3364C38.7263 27.6744 38.5566 27.9228 38.4197 28.2208L36.2524 30.3992C36.2383 30.4133 36.2459 30.4354 36.2339 30.4512C36.1372 30.4233 36.0375 30.3925 35.9323 30.3925C35.3353 30.3925 34.8548 30.8682 34.8548 31.4525C34.8548 32.0368 35.3347 32.506 35.9323 32.506C36.5291 32.506 37.0159 32.0368 37.0159 31.4525C37.0159 31.2523 36.9422 31.0726 36.8435 30.9127L39.0291 28.715C39.1536 28.6459 39.2785 28.6045 39.4048 28.5654C39.6681 28.5248 39.9707 28.5516 40.2483 28.7279C40.4455 29.0277 40.6195 29.3971 40.6423 29.853L40.1559 30.8347C40.1196 30.8312 40.0879 30.8147 40.0513 30.8154C39.4543 30.8154 38.9676 31.291 38.9676 31.8751C38.9676 32.4594 39.4537 32.9351 40.0513 32.9351C40.6481 32.9351 41.1288 32.4594 41.1288 31.8751C41.1288 31.6025 41.0179 31.3605 40.8455 31.1728L41.2949 30.2691C41.9137 29.7733 42.5044 30.1216 42.705 30.1391C42.7426 30.1549 42.7787 30.1734 42.8157 30.1911C43.0456 30.4525 43.1481 30.7346 43.1605 30.9843L42.3602 34.4633C41.8113 34.5138 41.3755 34.9533 41.3751 35.5037C41.3751 36.088 41.8617 36.557 42.4587 36.557C43.0555 36.557 43.536 36.088 43.536 35.5037C43.536 35.1568 43.3556 34.8642 43.0927 34.6713L43.8747 31.2769C44.1354 30.9319 44.4467 30.8095 44.7121 30.7827C44.9562 30.8253 45.208 30.8424 45.457 30.8674C45.7273 31.11 45.845 31.3951 45.8942 31.6346L45.9003 32.6034C45.4795 32.748 45.1739 33.1234 45.1739 33.5854C45.1739 34.1697 45.6605 34.6453 46.2575 34.6453C46.8543 34.6453 47.3351 34.1697 47.3351 33.5854C47.3351 33.143 47.0582 32.7745 46.6638 32.6165L46.6516 31.4785C46.7154 31.2717 46.8179 31.1258 46.9286 31.0039C47.0261 30.9329 47.1229 30.8815 47.218 30.8478C47.3853 30.8285 47.551 30.8008 47.7167 30.7762C47.8251 30.7902 47.9127 30.801 48 30.8283C48.4953 31.0921 48.6439 31.5855 48.745 31.7257L49.3236 34.6909C49.0931 34.8848 48.9353 35.1626 48.9359 35.4841C48.9359 36.0684 49.4225 36.5441 50.0195 36.5441C50.6163 36.5441 51.0968 36.0684 51.0968 35.4841C51.0968 34.9106 50.6324 34.4537 50.0502 34.4372L49.4038 31.1015C49.4493 30.7171 49.6123 30.481 49.7669 30.3081C49.9086 30.168 50.0548 30.0777 50.198 30.0284C50.2224 30.0172 50.2471 30.0078 50.2719 29.9959C50.4325 29.9539 50.5834 29.9535 50.7213 29.9699C50.8539 30.0425 50.9922 30.1162 51.0846 30.204L51.5957 31.0624C51.4318 31.2478 51.3181 31.4812 51.3185 31.7451C51.3185 32.3294 51.8053 32.805 52.4021 32.805C52.9991 32.805 53.4796 32.3294 53.4796 31.7451C53.4796 31.1608 52.9991 30.6918 52.4021 30.6918C52.3592 30.6918 52.3204 30.7065 52.279 30.7113L51.7864 29.8659C51.7194 29.6919 51.6982 29.5465 51.7064 29.4173C51.7068 29.4098 51.7115 29.4052 51.7125 29.3977C52.012 28.696 52.6234 28.6099 52.9132 28.5394H52.9193C53.0949 28.555 53.2519 28.5966 53.375 28.6565L55.6654 30.9714C55.5998 31.1077 55.5545 31.2527 55.5545 31.4136C55.5545 31.9977 56.0414 32.4734 56.6381 32.4734C57.2351 32.4734 57.7157 31.9979 57.7157 31.4136C57.7157 30.8293 57.2351 30.3601 56.6381 30.3601C56.4957 30.3601 56.357 30.389 56.2319 30.4381L54.0276 28.2077C53.7612 27.7027 53.8912 27.2465 53.9907 26.9723C54.1024 26.8237 54.2171 26.6768 54.3231 26.5237C54.6945 26.3231 55.0665 26.3749 55.2836 26.4065L55.9424 26.8747C55.93 26.9388 55.8987 26.9964 55.8993 27.0632C55.8993 27.6475 56.3861 28.1232 56.9829 28.1232C57.5799 28.1232 58.0605 27.6475 58.0605 27.0632C58.0605 26.4791 57.5799 26.0099 56.9829 26.0099C56.7518 26.0099 56.5491 26.0965 56.3735 26.218L55.6284 25.6913C55.324 25.2872 55.3293 24.8779 55.3821 24.5858C55.4225 24.4782 55.4702 24.3748 55.5116 24.2672C55.9422 23.8533 56.4415 23.9101 56.6444 23.89L59.3535 24.5793C59.3795 25.1407 59.838 25.5944 60.4186 25.5937C61.0154 25.5937 61.5023 25.1181 61.5023 24.5338C61.5023 23.9495 61.0154 23.4738 60.4186 23.4738C60.1034 23.4738 59.8282 23.6142 59.6305 23.825L56.7859 23.1032C56.2971 22.8493 56.1629 22.4248 56.1087 22.1148C56.1406 21.8557 56.1913 21.6033 56.2134 21.3409C56.4718 21.0346 56.7891 20.9279 57.0139 20.8794H57.7464C57.9241 21.2255 58.2849 21.4716 58.7069 21.471C59.3039 21.471 59.7844 20.9955 59.7844 20.4112C59.7844 19.8269 59.3039 19.3513 58.7069 19.3513C58.2307 19.3513 57.8351 19.6609 57.691 20.0795L56.9522 20.0731C56.6413 20.0013 56.4338 19.84 56.2872 19.6569V19.6503C56.1718 19.4228 56.1271 19.2156 56.1334 19.026C56.1383 18.8789 56.1875 18.772 56.2258 18.6554L56.2319 18.6619C56.2868 18.3229 56.4344 18.146 56.5767 18.0312C56.8992 17.8483 57.2335 17.8104 57.297 17.7386L59.5998 17.1533C59.7978 17.3759 60.0811 17.5241 60.4062 17.5241C61.0032 17.5241 61.4837 17.0484 61.4837 16.4641C61.4837 15.8798 61.0032 15.4106 60.4062 15.4106C59.8352 15.4106 59.3744 15.8434 59.335 16.3925L56.8476 17.0232C56.1781 17.0193 55.7596 16.7371 55.4991 16.5097C55.4922 16.4926 55.4875 16.4743 55.4806 16.4577C55.2718 15.9458 55.4103 15.5406 55.5545 15.2676L56.3489 14.8124C56.5246 14.9337 56.727 15.014 56.9583 15.014C57.5553 15.014 58.0419 14.545 58.0419 13.9607C58.0419 13.3764 57.5553 12.9007 56.9583 12.9007C56.3615 12.9007 55.881 13.3764 55.881 13.9607C55.881 14.0279 55.9056 14.0855 55.9178 14.1492L55.2468 14.5393C54.849 14.6055 54.5418 14.4861 54.3294 14.3248C54.2549 14.2293 54.1854 14.1296 54.1139 14.032C53.7852 13.2925 54.2187 12.7619 54.2924 12.5495L56.275 10.5402C56.4171 10.6076 56.5743 10.6507 56.743 10.6507C57.3397 10.6507 57.8203 10.1817 57.8203 9.59738C57.8203 9.01309 57.3397 8.53741 56.743 8.53741C56.146 8.53741 55.6593 9.01309 55.6593 9.59738C55.6593 9.73181 55.6918 9.85478 55.7393 9.97443L53.6398 12.0944C53.1165 12.4945 52.6474 12.3139 52.3592 12.192C52.3464 12.1818 52.3349 12.1691 52.3221 12.1593C51.9078 11.7766 51.8832 11.3382 51.9159 11.0148L52.3592 10.1761C52.4031 10.1815 52.4435 10.2027 52.4884 10.2021C53.0852 10.2021 53.5659 9.7264 53.5659 9.1421C53.5659 8.55801 53.0852 8.08234 52.4884 8.08234C51.8914 8.08234 51.4048 8.55801 51.4048 9.1421C51.4048 9.40637 51.5128 9.63963 51.6757 9.82503L51.4479 10.2541C51.3719 10.3906 51.282 10.489 51.1892 10.5727C51.1297 10.6476 51.0594 10.6661 50.9922 10.7094C50.8578 10.7862 50.7463 10.8197 50.6228 10.8459C50.37 10.8532 50.209 10.7916 50.1241 10.7483C49.7636 10.5061 49.6456 10.1954 49.5884 9.92241C49.552 9.62922 49.5478 9.44465 49.5516 9.22013L50.2226 6.44369C50.7532 6.37627 51.1715 5.95386 51.1707 5.41617C51.1707 4.83188 50.6841 4.3562 50.0871 4.3562C49.4903 4.3562 49.0098 4.83188 49.0098 5.41617C49.0098 5.77137 49.1971 6.07101 49.4714 6.26162L48.7572 9.20723C48.5799 9.68436 48.2597 9.86145 48.0369 9.98109C47.9121 10.0169 47.7831 10.0722 47.6735 10.0656C47.6611 10.0637 47.6493 10.061 47.6367 10.0591C47.5528 10.0508 47.4889 10.0119 47.415 9.98754C47.1707 9.86581 46.8695 9.6648 46.7255 9.20723V8.29042C47.0951 8.12229 47.3542 7.75918 47.3534 7.33449C47.3534 6.75019 46.8728 6.27451 46.276 6.27451C45.6791 6.27451 45.1924 6.75019 45.1924 7.33449C45.1924 7.81079 45.5199 8.19616 45.962 8.32933V9.10319C45.871 9.56014 45.6221 9.77738 45.3831 9.92241C45.2961 9.97922 45.2062 10.0344 45.1185 10.046C45.0937 10.0498 45.0693 10.0552 45.0446 10.0591C44.9174 10.0608 44.7978 10.0306 44.6874 9.98754H44.6813C44.4473 9.81046 44.012 9.53122 43.7394 8.83664L43.1174 6.25496C43.3871 6.06269 43.5731 5.76783 43.5731 5.41617C43.5731 4.83188 43.0925 4.3562 42.4955 4.3562ZM46.239 13.4729C46.6161 13.4163 46.8817 13.8129 46.9286 13.8826C47.1266 14.1373 47.415 14.3575 47.7845 14.4873C48.2416 14.649 48.6801 14.6222 49.022 14.4742C49.0647 14.464 49.0955 14.4717 49.1451 14.4482C49.7594 14.1496 49.8964 14.7874 49.9332 15.0204C49.9746 15.3702 50.1235 15.7425 50.4073 16.074C50.821 16.5571 51.3532 16.7879 51.7864 16.7242C52.5761 16.8189 52.3198 17.4818 52.2914 17.5501C52.1686 17.8352 52.0857 18.16 52.119 18.5385C52.1523 18.9268 52.2843 19.2585 52.4577 19.5202C52.4646 19.5335 52.4681 19.5462 52.476 19.5593C52.5353 19.6438 52.6043 19.7035 52.673 19.7674C52.7081 19.7997 52.7241 19.8338 52.7654 19.865C53.5902 20.4587 52.7532 21.1135 52.7532 21.1135C52.5349 21.3081 52.3399 21.5565 52.2114 21.8938C52.0977 22.1916 52.0715 22.4789 52.082 22.7522C52.0762 22.8304 52.0729 22.9095 52.0883 22.9992C52.0932 23.0277 52.1066 23.0497 52.1129 23.0772C52.135 23.1717 52.1509 23.2611 52.199 23.3633C52.7044 24.421 51.614 24.4817 51.614 24.4817V24.4882C51.2722 24.5136 50.9008 24.6603 50.5674 24.9564C50.2997 25.1942 50.1206 25.4791 50.0132 25.7627C49.9468 25.8903 49.8952 26.0432 49.8964 26.244C49.9015 27.2515 48.9296 26.6731 48.9296 26.6731C48.6476 26.5719 48.3156 26.5357 47.963 26.595C47.4893 26.6762 47.1213 26.9101 46.8854 27.2064C46.8232 27.2676 46.7611 27.3235 46.7069 27.4145C46.1996 28.2678 45.6665 27.2259 45.6665 27.2259H45.6603C45.4383 26.9346 45.0945 26.6918 44.6443 26.5886C44.2158 26.4902 43.8192 26.5443 43.5053 26.6926C43.4574 26.7124 43.4137 26.7153 43.3636 26.7446C42.8153 27.0713 42.7158 26.7654 42.6926 26.4781C42.7308 26.0719 42.601 25.5862 42.2924 25.158C41.9943 24.7435 41.6044 24.4978 41.2334 24.4168H41.2273C41.0959 24.3887 40.9666 24.37 40.8455 24.3908C39.8964 24.493 40.3468 23.4089 40.3468 23.4089C40.5608 23.0441 40.6242 22.5072 40.4575 21.9458C40.3381 21.5432 40.1285 21.2267 39.885 21.0095C39.8647 20.9912 39.8594 20.9764 39.8357 20.9574C39.1251 20.4079 39.7285 19.8115 39.8296 19.7154C40.1628 19.483 40.437 19.05 40.5253 18.4865C40.5917 18.0659 40.5092 17.703 40.3775 17.3874C40.3722 17.3543 40.3797 17.3272 40.3653 17.29C40.1602 16.7484 40.717 16.6069 40.8333 16.5811C41.2137 16.5902 41.6503 16.4239 42.0276 16.0675C42.214 15.8904 42.3606 15.6915 42.4648 15.4886C42.5996 15.2241 42.6327 14.9634 42.6187 14.715C42.6392 14.6648 42.6616 14.6282 42.6741 14.5522C42.7759 13.9453 43.4438 14.1621 43.4438 14.1621C43.7137 14.3313 44.0333 14.4524 44.4226 14.4418C44.9905 14.4264 45.4586 14.1789 45.7218 13.8371C45.7506 13.8086 45.7793 13.8023 45.8081 13.7655C45.9565 13.5759 46.1023 13.4933 46.239 13.4729Z" fill="white"/>
<path d="M117.566 15.1412V11.4145H119.477V15.1412H117.566ZM117.566 9.5512V5.82452H119.477V9.5512H117.566ZM109.924 17.0046V3.96118H117.566V5.82452H111.835V9.5512H117.566V11.4145H111.835V15.1412H117.566V17.0046H109.924Z" fill="#000002"/>
<path d="M122.866 17.0046V15.1412H124.776V9.5512H122.866V7.68786H126.687V15.1412H128.597V17.0046H122.866ZM124.776 5.82452V3.96118H126.687V5.82452H124.776Z" fill="#000002"/>
<path d="M133.897 17.0046V15.1412H139.628V17.0046H133.897ZM131.986 15.1412V9.5512H133.897V15.1412H131.986ZM139.628 15.1412V9.5512H141.539V15.1412H139.628ZM133.897 9.5512V7.68786H139.628V9.5512H133.897Z" fill="#000002"/>
<path d="M144.928 17.0046V15.1412H146.838V9.5512H144.928V7.68786H148.749V15.1412H150.659V17.0046H144.928ZM146.838 5.82452V3.96118H148.749V5.82452H146.838Z" fill="#000002"/>
<path d="M161.69 17.0046V9.5512H163.601V17.0046H161.69ZM154.048 17.0046V7.68786H161.69V9.5512H155.959V17.0046H154.048Z" fill="#000002"/>
<path d="M166.99 17.0046V11.4145H165.079V9.5512H166.99V5.82452H168.9V9.5512H172.721V11.4145H168.9V17.0046H166.99ZM172.721 7.68786V5.82452H174.632V7.68786H172.721ZM168.9 5.82452V3.96118H172.721V5.82452H168.9Z" fill="#000002"/>
<path d="M178.02 17.0046V15.1412H183.752V17.0046H178.02ZM176.11 15.1412V9.5512H178.02V15.1412H176.11ZM183.752 15.1412V9.5512H185.663V15.1412H183.752ZM178.02 9.5512V7.68786H183.752V9.5512H178.02Z" fill="#000002"/>
<path d="M194.783 11.4145V9.5512H196.694V11.4145H194.783ZM187.141 17.0046V7.68786H194.783V9.5512H189.051V17.0046H187.141Z" fill="#000002"/>
<path d="M205.814 17.0046V9.5512H207.724V17.0046H205.814ZM198.172 17.0046V7.68786H205.814V9.5512H203.903V17.0046H201.993V9.5512H200.082V17.0046H198.172Z" fill="#000002"/>
<path d="M209.203 15.1412V13.2779H211.113V15.1412H209.203ZM211.113 17.0046V15.1412H216.845V13.2779H211.113V11.4145H216.845V9.5512H218.755V17.0046H211.113ZM211.113 9.5512V7.68786H216.845V9.5512H211.113Z" fill="#000002"/>
<path d="M224.055 17.0046V15.1412H227.876V17.0046H224.055ZM227.876 15.1412V13.2779H229.786V15.1412H227.876ZM222.144 15.1412V9.5512H220.234V7.68786H222.144V3.96118H224.055V7.68786H227.876V9.5512H224.055V15.1412H222.144Z" fill="#000002"/>
<path d="M233.175 17.0046V15.1412H235.086V9.5512H233.175V7.68786H236.996V15.1412H238.907V17.0046H233.175ZM235.086 5.82452V3.96118H236.996V5.82452H235.086Z" fill="#000002"/>
<path d="M244.206 17.0046V15.1412H249.938V17.0046H244.206ZM249.938 15.1412V13.2779H251.848V15.1412H249.938ZM242.296 15.1412V9.5512H244.206V15.1412H242.296ZM249.938 11.4145V9.5512H251.848V11.4145H249.938ZM244.206 9.5512V7.68786H249.938V9.5512H244.206Z" fill="#000002"/>
<path d="M253.327 17.0046V15.1412H260.969V17.0046H253.327ZM260.969 15.1412V13.2779H262.879V15.1412H260.969ZM255.237 13.2779V11.4145H260.969V13.2779H255.237ZM253.327 11.4145V9.5512H255.237V11.4145H253.327ZM255.237 9.5512V7.68786H262.879V9.5512H255.237Z" fill="#000002"/>
<path d="M111.835 37.8663V36.0029H117.566V37.8663H111.835ZM109.924 36.0029V26.6862H111.835V36.0029H109.924ZM117.566 36.0029V26.6862H119.477V36.0029H117.566ZM111.835 26.6862V24.8229H117.566V26.6862H111.835Z" fill="#000002"/>
<path d="M128.597 36.0029V30.4129H130.508V36.0029H128.597ZM120.955 41.5929V28.5496H128.597V30.4129H122.866V36.0029H128.597V37.8663H122.866V41.5929H120.955Z" fill="#000002"/>
<path d="M133.897 37.8663V36.0029H139.628V37.8663H133.897ZM131.986 36.0029V30.4129H133.897V32.2762H139.628V30.4129H141.539V34.1396H133.897V36.0029H131.986ZM133.897 30.4129V28.5496H139.628V30.4129H133.897Z" fill="#000002"/>
<path d="M150.659 37.8663V30.4129H152.57V37.8663H150.659ZM143.017 37.8663V28.5496H150.659V30.4129H144.928V37.8663H143.017Z" fill="#000002"/>
<path d="M172.721 36.0029V26.6862H174.632V36.0029H172.721ZM165.079 37.8663V24.8229H172.721V26.6862H166.99V36.0029H172.721V37.8663H165.079Z" fill="#000002"/>
<path d="M176.11 36.0029V34.1396H178.02V36.0029H176.11ZM178.02 37.8663V36.0029H183.752V34.1396H178.02V32.2762H183.752V30.4129H185.663V37.8663H178.02ZM178.02 30.4129V28.5496H183.752V30.4129H178.02Z" fill="#000002"/>
<path d="M189.051 41.5929V39.7296H194.783V41.5929H189.051ZM187.141 36.0029V28.5496H189.051V36.0029H187.141ZM194.783 39.7296V37.8663H189.051V36.0029H194.783V28.5496H196.694V39.7296H194.783Z" fill="#000002"/>
<path d="M198.172 37.8663V36.0029H205.814V37.8663H198.172ZM205.814 36.0029V34.1396H207.724V36.0029H205.814ZM200.082 34.1396V32.2762H205.814V34.1396H200.082ZM198.172 32.2762V30.4129H200.082V32.2762H198.172ZM200.082 30.4129V28.5496H207.724V30.4129H200.082Z" fill="#000002"/>
<path d="M219 38V32H220.971V36H228.856V38H219ZM220.971 32V30H226.885V32H220.971ZM219 28V26H220.971V28H219ZM226.885 30V26H228.856V30H226.885ZM220.971 26V24H226.885V26H220.971Z" fill="#000002"/>
<path d="M232.353 38V36H238.266V38H232.353ZM234.324 32V30H236.295V32H234.324ZM230.381 36V26H232.353V36H230.381ZM238.266 36V26H240.237V36H238.266ZM232.353 26V24H238.266V26H232.353Z" fill="#000002"/>
<path d="M241.763 38V32H243.734V36H251.619V38H241.763ZM243.734 32V30H249.647V32H243.734ZM241.763 28V26H243.734V28H241.763ZM249.647 30V26H251.619V30H249.647ZM243.734 26V24H249.647V26H243.734Z" fill="#C70039"/>
<path d="M255.115 38V36H261.029V38H255.115ZM253.144 36V34H255.115V36H253.144ZM261.029 36V32H263V36H261.029ZM255.115 32V30H261.029V32H255.115ZM253.144 28V26H255.115V28H253.144ZM261.029 30V26H263V30H261.029ZM255.115 26V24H261.029V26H255.115Z" fill="#FF5733"/>
</svg>
