<svg width="100" height="43" viewBox="0 0 100 43" fill="none" xmlns="http://www.w3.org/2000/svg">
<g clip-path="url(#clip0_333_205)">
<rect width="100" height="43" fill="white"/>
<path d="M66.327 1.16864C65.6902 0.49812 64.8117 0.0832666 63.8419 0.0487468L83.5699 0.0415039C84.5601 0.0624623 85.4572 0.488723 86.1052 1.1711L86.1188 1.16139L86.5341 1.71494L99.2142 18.5931L99.2051 18.6028C99.6967 19.2707 99.9993 20.0918 100 20.9956C100.001 22.0868 99.5724 23.0759 98.8854 23.7993L98.8901 23.8426L86.7598 40.5446C86.7397 40.5589 86.7038 40.5737 86.6823 40.588C86.0218 41.6031 84.9369 42.2703 83.7026 42.2714C83.6324 42.2714 83.5667 42.2556 83.4974 42.2522C83.4741 42.2701 83.4482 42.286 83.4154 42.286L64.1752 42.3025C64.1311 42.3025 64.1002 42.2795 64.0748 42.2495C65.2448 42.1954 66.2714 41.558 66.9043 40.5856C66.9257 40.5714 66.9615 40.5565 66.9817 40.5423L71.8902 33.7863L82.3104 33.7773L91.5947 20.9594L82.3184 8.52319L71.88 8.53213L66.756 1.71248L66.3407 1.15908L66.327 1.16864Z" fill="#000002"/>
<path fill-rule="evenodd" clip-rule="evenodd" d="M86.1052 1.1711C85.4572 0.488723 84.5601 0.0624623 83.5699 0.0415039L63.8419 0.0487468C64.3194 0.0657424 64.7747 0.174931 65.19 0.361435C65.6182 0.55374 66.0038 0.828243 66.327 1.16864L66.3407 1.15908L71.88 8.53213L82.3184 8.52319L91.5947 20.9594L82.3104 33.7773L71.8902 33.7863L66.9817 40.5423C66.9712 40.5497 66.9564 40.5573 66.9416 40.5649C66.928 40.5718 66.9145 40.5788 66.9043 40.5856C66.4932 41.2172 65.916 41.7075 65.2412 41.9884C64.907 42.1275 64.5489 42.2153 64.1752 42.2434C64.1752 42.2434 64.1752 42.2434 64.1752 42.2434C64.1419 42.2459 64.1084 42.2479 64.0748 42.2495C64.1002 42.2795 64.1311 42.3025 64.1752 42.3025L83.4154 42.286C83.4482 42.286 83.4741 42.2701 83.4974 42.2522C83.5279 42.2537 83.5577 42.2576 83.5874 42.2615C83.6253 42.2664 83.6632 42.2714 83.7026 42.2714C84.9369 42.2703 86.0218 41.6031 86.6823 40.588C86.6925 40.5812 86.7061 40.5743 86.7196 40.5673C86.7344 40.5597 86.7493 40.5521 86.7598 40.5446L98.8901 23.8426L98.8854 23.7993C99.5724 23.0759 100.001 22.0868 100 20.9956C99.9993 20.0918 99.6967 19.2707 99.2051 18.6028L99.2142 18.5931L86.1188 1.16139L86.1052 1.1711ZM85.9206 1.4273C85.9025 1.41486 85.8855 1.40042 85.8699 1.38401C85.2778 0.760495 84.4627 0.374605 83.5664 0.354689L65.8465 0.361194C66.0786 0.511477 66.2945 0.68607 66.4905 0.882037C66.5323 0.903519 66.5698 0.934365 66.5996 0.974021L72.0425 8.21881L82.3181 8.21001C82.4208 8.20992 82.5173 8.25782 82.5778 8.33886L91.8541 20.7751C91.9351 20.8836 91.9362 21.0305 91.8567 21.1402L82.5724 33.9581C82.5123 34.0411 82.4147 34.0904 82.3107 34.0905L72.0561 34.0993L67.2435 40.7234C67.2229 40.7518 67.1975 40.7766 67.1686 40.7969C67.1543 40.8069 67.1407 40.8151 67.1302 40.8211C66.8098 41.2934 66.3998 41.6916 65.9259 41.9878L83.3524 41.9729C83.4019 41.9484 83.4574 41.9367 83.5135 41.9394C83.5584 41.9416 83.6023 41.9474 83.6309 41.9512C83.6347 41.9517 83.6383 41.9521 83.6416 41.9526C83.6744 41.9568 83.6902 41.9582 83.7024 41.9582C84.8118 41.9572 85.8011 41.358 86.4115 40.4201C86.4348 40.3844 86.4652 40.3536 86.5011 40.3296C86.5156 40.3199 86.5293 40.312 86.5395 40.3063L98.57 23.7417C98.581 23.6842 98.6085 23.6302 98.6501 23.5864C99.2835 22.9194 99.68 22.006 99.6792 20.9959C99.6785 20.1618 99.3996 19.4038 98.9445 18.7855C98.9268 18.7614 98.913 18.7355 98.9031 18.7086L86.2753 1.90014L86.2752 1.89997L85.9206 1.4273ZM86.5836 40.2832C86.5835 40.2832 86.5835 40.2832 86.5834 40.2833C86.584 40.2829 86.5841 40.2829 86.5836 40.2832ZM83.2994 42.0058C83.2968 42.0078 83.2973 42.0071 83.3006 42.0049C83.3002 42.0052 83.2998 42.0055 83.2994 42.0058Z" fill="#FFFEFF"/>
<path fill-rule="evenodd" clip-rule="evenodd" d="M63.7173 0.0415039C61.6922 0.0415039 60.0511 1.75039 60.0511 3.85563C60.0511 4.76516 60.3695 5.58901 60.8809 6.24427C60.878 6.28141 60.8897 6.31932 60.9129 6.35015L71.8064 20.971L60.6803 36.2997L60.6713 36.3238C60.6685 36.3292 60.6438 36.3735 60.6348 36.3913C60.2534 36.9906 60.0237 37.7001 60.0237 38.4669C60.0237 40.5851 61.7156 42.3003 63.7993 42.3003C65.0932 42.3003 66.2207 41.6289 66.9 40.6195L66.9137 40.6292L78.8331 24.2314L79.1022 23.8604L79.312 23.5715L79.2756 23.5957C79.8522 22.897 80.2148 22.0021 80.2148 21.0144C80.2148 20.1106 79.9128 19.2894 79.4215 18.6208L79.4305 18.6113L71.8794 8.54616L66.7586 1.72219L66.3437 1.16833L66.33 1.17804C65.6935 0.506904 64.815 0.091284 63.8449 0.0559937C63.8016 0.0542985 63.7609 0.0415039 63.7173 0.0415039Z" fill="#000002"/>
<path fill-rule="evenodd" clip-rule="evenodd" d="M61.1988 6.20136L72.0659 20.7868C72.1469 20.8954 72.1478 21.0424 72.0682 21.152L60.9656 36.4484C60.9632 36.4537 60.9607 36.459 60.958 36.4642C60.9558 36.4685 60.9534 36.4729 60.9528 36.4741L60.9487 36.4816L60.9385 36.5003C60.9302 36.5154 60.9241 36.5268 60.922 36.5309C60.9175 36.5397 60.9126 36.5482 60.9073 36.5565C60.5554 37.1095 60.3445 37.7622 60.3445 38.4669C60.3445 40.4238 61.9044 41.9871 63.7993 41.9871C64.9741 41.9871 66.0056 41.3782 66.6318 40.4475C66.6533 40.4155 66.6805 40.388 66.7116 40.3659L78.5713 24.0504L78.5715 24.0502L78.8404 23.6795L78.8404 23.6793L78.9695 23.5017C78.9812 23.4653 78.9999 23.4305 79.0257 23.3992C79.5597 22.7522 79.894 21.9256 79.894 21.0144C79.894 20.1804 79.6156 19.4223 79.1608 18.8034C79.1431 18.7793 79.1294 18.7536 79.1195 18.7268L71.6205 8.73122L66.1455 1.43429C66.1273 1.4218 66.1102 1.40729 66.0946 1.39079C65.5136 0.778239 64.7145 0.401028 63.833 0.36896L63.8321 0.368927C63.7903 0.367291 63.751 0.360776 63.7333 0.35783C63.7315 0.357538 63.73 0.357282 63.7287 0.357068C63.7198 0.355636 63.715 0.354972 63.7129 0.35469C61.8861 0.357144 60.372 1.9057 60.372 3.85563C60.372 4.69218 60.6645 5.45015 61.1362 6.05448C61.1699 6.09766 61.1913 6.14832 61.1988 6.20136ZM66.3437 1.16833L79.4305 18.6113L79.4215 18.6208C79.9128 19.2894 80.2148 20.1106 80.2148 21.0144C80.2148 21.8727 79.941 22.661 79.4908 23.3113C79.4316 23.3968 79.3694 23.4799 79.3043 23.5604C79.3034 23.5617 79.3024 23.5629 79.3014 23.5641C79.2928 23.5747 79.2842 23.5852 79.2756 23.5957L79.312 23.5715L79.1022 23.8604L66.9142 40.6286L66.9137 40.6292L66.9 40.6195C66.9 40.6195 66.9 40.6195 66.9 40.6195C66.9 40.6195 66.8999 40.6196 66.8999 40.6196C66.841 40.7071 66.7788 40.792 66.7133 40.8742C66.0239 41.7403 64.981 42.3003 63.7993 42.3003C61.7156 42.3003 60.0237 40.5851 60.0237 38.4669C60.0237 37.7001 60.2534 36.9906 60.6348 36.3913C60.6407 36.3796 60.6534 36.3566 60.6621 36.3405C60.6668 36.3321 60.6703 36.3256 60.6713 36.3238L60.6803 36.2997L71.8064 20.971L60.9129 6.35015C60.8897 6.31932 60.878 6.28141 60.8809 6.24427C60.3695 5.58901 60.0511 4.76516 60.0511 3.85563C60.0511 1.75039 61.6922 0.0415039 63.7173 0.0415039C63.7406 0.0415039 63.7631 0.045168 63.7856 0.0488343C63.8052 0.0520191 63.8248 0.0552057 63.8449 0.0559937C64.815 0.091284 65.6935 0.506904 66.33 1.17804L66.3437 1.16833Z" fill="#FFFEFF"/>
<path fill-rule="evenodd" clip-rule="evenodd" d="M54.3491 0C54.2068 0 54.0721 0.0269705 53.9341 0.0434599H37.8514C37.8191 0.0434599 37.8139 0.083986 37.7921 0.106023C36.7036 0.218675 35.7502 0.821233 35.1519 1.73863C35.1305 1.7528 35.0946 1.76775 35.0745 1.78193L22.9269 18.4735C22.9265 18.4741 22.9319 18.5154 22.9315 18.5169C22.2438 19.2397 21.8143 20.2284 21.8143 21.3196C21.8143 22.2235 22.1165 23.0447 22.6078 23.7131C22.6078 23.7134 22.5985 23.7225 22.5986 23.7228L35.2706 40.6119L35.6855 41.1656C35.6867 41.1671 35.6975 41.1551 35.6991 41.156C36.2394 41.7256 36.9547 42.1068 37.7511 42.2348L54.6911 42.2107C55.8554 42.1529 56.878 41.5219 57.509 40.5541C57.5305 40.5397 57.5664 40.525 57.5865 40.5106L69.6156 23.978L69.734 23.8191C69.734 23.8191 69.7342 23.8152 69.734 23.8143L70.0213 23.4241L70.0123 23.4193C70.5258 22.741 70.8466 21.8986 70.8466 20.9729C70.8466 20.0692 70.5446 19.2478 70.0533 18.5795C70.0532 18.5792 70.0626 18.5701 70.0623 18.5698L57.3906 1.68084L56.9756 1.12698C56.9744 1.12543 56.9636 1.13746 56.9619 1.13653C56.2969 0.435504 55.3709 0 54.3491 0ZM39.5249 8.54811H53.2137L62.4382 20.9296L53.1133 33.7782H39.4747L35.2843 28.1533L34.0668 26.5207L30.2227 21.3629L39.5249 8.54811Z" fill="#FF5733"/>
<path fill-rule="evenodd" clip-rule="evenodd" d="M53.9731 0.354324C53.9601 0.355869 53.9471 0.356643 53.9341 0.356643H37.9846C37.9385 0.39031 37.8838 0.411477 37.826 0.417461C36.8405 0.51945 35.9716 1.0649 35.4226 1.9068C35.3991 1.94292 35.3682 1.97394 35.3318 1.99795C35.3177 2.00726 35.3044 2.01492 35.2945 2.0204L23.2468 18.5747C23.2454 18.5818 23.2435 18.5906 23.2407 18.6006C23.2269 18.6489 23.2015 18.6933 23.1666 18.73C22.5325 19.3964 22.1352 20.3096 22.1352 21.3196C22.1352 22.1537 22.4137 22.9117 22.8685 23.5305C22.8861 23.5543 22.9 23.5803 22.91 23.6077L35.5294 40.4268L35.5295 40.427L35.8842 40.9002C35.9025 40.9128 35.9193 40.9272 35.9345 40.9432C36.4213 41.4563 37.0629 41.8011 37.7777 41.9215L54.6825 41.8975C55.7302 41.843 56.6591 41.2742 57.2384 40.3859C57.2616 40.3502 57.2921 40.3195 57.3278 40.2956C57.3424 40.2859 57.3562 40.2779 57.3664 40.2723L69.354 23.7966L69.3561 23.7937L69.4517 23.6655C69.4582 23.6538 69.4655 23.6424 69.4735 23.6315L69.7132 23.306C69.7234 23.2803 69.7371 23.2558 69.7542 23.2332C70.2302 22.6044 70.5258 21.8264 70.5258 20.9729C70.5258 20.139 70.2474 19.3808 69.7926 18.7621C69.7808 18.746 69.7705 18.7288 69.762 18.7109C69.7579 18.7022 69.7544 18.6936 69.7513 18.6853L57.1317 1.86588L57.1316 1.86571L56.7771 1.39255C56.7587 1.37992 56.7417 1.36543 56.7264 1.3493C56.1173 0.707136 55.2746 0.313183 54.3491 0.313183C54.2708 0.313183 54.2055 0.3225 54.119 0.334831C54.0767 0.340854 54.0294 0.347596 53.9731 0.354324ZM70.0623 18.5698C70.0626 18.5701 70.0532 18.5792 70.0533 18.5795C70.5446 19.2478 70.8466 20.0692 70.8466 20.9729C70.8466 21.784 70.6003 22.5312 70.1939 23.1601C70.1505 23.2272 70.1052 23.293 70.0583 23.3574C70.0434 23.3779 70.0283 23.3982 70.0131 23.4183C70.0128 23.4187 70.0126 23.419 70.0123 23.4193L70.0213 23.4241L69.734 23.8143C69.7342 23.8152 69.734 23.8191 69.734 23.8191L69.6156 23.978L57.5865 40.5106C57.576 40.5181 57.5611 40.5257 57.5463 40.5334C57.5328 40.5403 57.5193 40.5472 57.509 40.5541C56.878 41.5219 55.8554 42.1529 54.6911 42.2107L37.7511 42.2348C36.9547 42.1068 36.2394 41.7256 35.6991 41.156C35.6991 41.156 35.699 41.156 35.699 41.156C35.6989 41.156 35.6989 41.156 35.6989 41.156C35.698 41.156 35.6959 41.1578 35.6936 41.1597C35.6935 41.1599 35.6934 41.16 35.6932 41.1601C35.693 41.1603 35.6927 41.1606 35.6924 41.1608C35.6893 41.1636 35.6861 41.1664 35.6855 41.1656L22.5986 23.7228C22.5985 23.7226 22.6013 23.7198 22.6038 23.7172C22.6059 23.7151 22.6078 23.7132 22.6078 23.7131C22.1165 23.0447 21.8143 22.2235 21.8143 21.3196C21.8143 20.2284 22.2438 19.2397 22.9315 18.5169C22.9317 18.5161 22.9303 18.5044 22.929 18.4933C22.9278 18.4833 22.9267 18.4738 22.9269 18.4735L35.0745 1.78193C35.085 1.7745 35.0999 1.76685 35.1148 1.75922C35.1282 1.75229 35.1417 1.74537 35.1519 1.73863C35.7502 0.821233 36.7036 0.218675 37.7921 0.106023C37.7998 0.0982937 37.8054 0.0882898 37.8108 0.0785577C37.8209 0.060543 37.8304 0.0434599 37.8514 0.0434599H53.9341C53.9729 0.0388277 54.0114 0.0333683 54.0499 0.0279121C54.1484 0.0139457 54.2468 0 54.3491 0C55.3709 0 56.2969 0.435504 56.9619 1.13653C56.9619 1.13657 56.962 1.13659 56.9621 1.13658C56.9622 1.13658 56.9622 1.13657 56.9623 1.13656C56.9633 1.13634 56.9652 1.13475 56.9673 1.13291C56.9675 1.1328 56.9676 1.13268 56.9678 1.13256C56.9681 1.13224 56.9685 1.13192 56.9688 1.13161C56.9719 1.12888 56.975 1.1262 56.9756 1.12698L70.0623 18.5698ZM35.2503 2.04359C35.2503 2.0436 35.2504 2.04357 35.2503 2.04359C35.2497 2.04394 35.2497 2.04396 35.2503 2.04359ZM57.4103 40.2492C57.4103 40.2492 57.4102 40.2493 57.4101 40.2493C57.4108 40.2489 57.4109 40.2489 57.4103 40.2492ZM69.7996 18.7497C69.8008 18.7513 69.802 18.753 69.8033 18.7546C69.8099 18.7635 69.8173 18.7723 69.8255 18.7811C69.8177 18.7727 69.8103 18.7639 69.8035 18.7548L69.8033 18.7546L69.7996 18.7497ZM39.2631 8.36705C39.3232 8.28418 39.4208 8.23492 39.5249 8.23492H53.2137C53.3164 8.23492 53.4128 8.28287 53.4732 8.36391L62.6977 20.7454C62.7787 20.8541 62.7796 21.001 62.7001 21.1106L53.3751 33.9592C53.315 34.0421 53.2174 34.0914 53.1133 34.0914H39.4747C39.372 34.0914 39.2756 34.0434 39.2152 33.9624L35.0249 28.3376L35.0248 28.3375L33.8073 26.705L29.9633 21.5472C29.8823 21.4385 29.8813 21.2915 29.9609 21.1819L39.2631 8.36705ZM39.4747 33.7782H53.1133L62.4382 20.9296L53.2137 8.54811H39.5249L30.2227 21.3629L39.4747 33.7782Z" fill="#FFFEFF"/>
<path d="M53.5256 4.39893H38.1537L26.3502 20.3839L37.4674 37.2488H55.7216L67.1133 20.3839L53.5256 4.39893Z" fill="#FF5733"/>
<path opacity="0.98982" d="M28.5005 0.0800304C28.5976 0.0715546 28.6886 0.0415039 28.7879 0.0415039C28.813 0.0415039 28.8357 0.050598 28.8608 0.0510603C29.1186 0.0510603 29.3698 0.0775665 29.6132 0.128113H29.6177C29.6257 0.129808 29.6324 0.136125 29.6404 0.13782C30.8298 0.389475 31.8193 1.15862 32.2669 2.2856C32.489 2.77596 32.6182 3.31826 32.6182 3.89416C32.6182 4.26386 32.5538 4.61522 32.4585 4.95363C32.4422 5.01173 32.4273 5.07014 32.4083 5.127C32.3364 5.34306 32.2458 5.54664 32.1393 5.74343C32.0718 5.87735 32.0025 6.01789 32.0025 6.01789L20.8764 21.3467L31.7699 35.9675C31.793 35.9983 31.8048 36.0364 31.8019 36.0734C32.3133 36.7286 32.6317 37.5525 32.6317 38.462C32.6317 40.4731 31.1292 42.1037 29.2301 42.2473C29.2253 42.2492 29.217 42.2504 29.2119 42.2521C29.129 42.2579 29.0499 42.2761 28.9656 42.2761C27.9439 42.2761 27.0177 41.8408 26.3528 41.1396L26.3391 41.1493L25.9243 40.5954L21.4236 34.595L18.6147 30.8579L13.2523 23.7063L13.2614 23.6968C12.7702 23.0283 12.468 22.207 12.468 21.3034C12.468 20.4422 12.7423 19.6497 13.1931 18.9966L13.1884 18.9918L13.5806 18.4572L13.6262 18.3946L21.3597 7.77085L25.7281 1.76549C25.7305 1.76395 25.7346 1.76241 25.7372 1.76071C26.0454 1.28992 26.4563 0.902496 26.932 0.609695C26.97 0.586271 27.0115 0.569318 27.0504 0.547127C27.2258 0.447883 27.4066 0.362045 27.5976 0.291926C27.6707 0.265112 27.746 0.241843 27.8212 0.219651C28.0163 0.162016 28.2162 0.119331 28.4231 0.0945202C28.4496 0.0914381 28.4737 0.082342 28.5005 0.0800304Z" fill="#000002"/>
<path opacity="0.98982" fill-rule="evenodd" clip-rule="evenodd" d="M28.5101 0.184009L28.5099 0.184021C28.5052 0.184428 28.4994 0.185529 28.4865 0.188546L28.4836 0.189211C28.4724 0.191831 28.4548 0.195948 28.4359 0.198156C28.2356 0.222189 28.0418 0.263551 27.8521 0.319569C27.7776 0.341568 27.705 0.364056 27.6352 0.389648C27.4505 0.457465 27.2752 0.540656 27.1043 0.637298C27.0842 0.648771 27.0635 0.659017 27.0461 0.667663C27.0438 0.668793 27.0416 0.669895 27.0394 0.670969C27.0195 0.680868 27.0035 0.689078 26.989 0.697997C26.5258 0.983093 26.1265 1.35982 25.8273 1.81692C25.8207 1.82697 25.8125 1.83583 25.8028 1.84313L21.4469 7.83129L13.7134 18.4551L13.6678 18.5176L13.6676 18.518L13.2963 19.0241C13.2932 19.0348 13.2884 19.0452 13.2818 19.0549C12.8422 19.6918 12.575 20.4642 12.575 21.3034C12.575 22.1838 12.8693 22.984 13.3483 23.6359C13.3588 23.6503 13.3652 23.6665 13.3674 23.6831L18.701 30.7962L18.701 30.7963L21.5099 34.5333L26.0106 40.5338L26.3914 41.0422C26.4062 41.0478 26.4199 41.0566 26.4313 41.0687C27.0776 41.7502 27.976 42.1717 28.9656 42.1717C29.0003 42.1717 29.0353 42.168 29.0752 42.1628C29.0821 42.1619 29.0893 42.161 29.0967 42.16C29.1267 42.156 29.1601 42.1515 29.1939 42.1487C29.1952 42.1484 29.1962 42.1482 29.1968 42.1481L29.197 42.148C29.205 42.1455 29.2134 42.1439 29.2219 42.1432C31.0609 42.0041 32.5248 40.423 32.5248 38.462C32.5248 37.5768 32.215 36.7749 31.7168 36.1366C31.7009 36.1162 31.6932 36.0909 31.6953 36.0653C31.6961 36.0549 31.6927 36.0412 31.6836 36.029L31.6834 36.0289L20.7899 21.4081C20.7629 21.3718 20.7626 21.3229 20.7892 21.2863L31.9101 5.96469L31.9181 5.94846C31.9257 5.93315 31.9365 5.91135 31.9494 5.88536C31.9752 5.83339 32.0094 5.76459 32.0433 5.69739C32.0437 5.69648 32.0442 5.69557 32.0447 5.69466C32.1487 5.5026 32.2368 5.30454 32.3066 5.09474C32.3198 5.05525 32.3306 5.01582 32.3423 4.97337C32.3465 4.95803 32.3508 4.94229 32.3554 4.92599C32.4489 4.59374 32.5112 4.25195 32.5112 3.89416C32.5112 3.33371 32.3856 2.80574 32.1691 2.32781C32.1684 2.32633 32.1678 2.32484 32.1672 2.32334C31.7335 1.23147 30.7747 0.484646 29.6178 0.239852M32.0025 6.01789L20.8764 21.3467L31.7699 35.9675C31.793 35.9983 31.8048 36.0364 31.8019 36.0734C32.3133 36.7286 32.6317 37.5525 32.6317 38.462C32.6317 40.4731 31.1292 42.1037 29.2301 42.2473C29.2275 42.2483 29.2239 42.2491 29.2203 42.2499C29.2172 42.2506 29.2142 42.2513 29.2119 42.2521C29.1784 42.2544 29.1454 42.2588 29.1125 42.2632C29.0641 42.2697 29.0158 42.2761 28.9656 42.2761C27.9439 42.2761 27.0177 41.8408 26.3528 41.1396L26.3391 41.1493L18.6147 30.8579L13.2523 23.7063L13.2614 23.6968C12.7702 23.0283 12.468 22.207 12.468 21.3034C12.468 20.4422 12.7423 19.6497 13.1931 18.9966L13.1884 18.9918L13.5806 18.4572L25.7281 1.76549C25.7293 1.76473 25.7309 1.76396 25.7325 1.76318C25.7342 1.76238 25.7359 1.76157 25.7372 1.76071C26.0454 1.28992 26.4563 0.902496 26.932 0.609695C26.9532 0.596646 26.9754 0.585606 26.9977 0.57455C27.0154 0.565758 27.0332 0.556957 27.0504 0.547127C27.2258 0.447883 27.4066 0.362045 27.5976 0.291926C27.6707 0.265112 27.746 0.241858 27.8212 0.219667C28.0163 0.162031 28.2162 0.119331 28.4231 0.0945202C28.4355 0.0930713 28.4475 0.0902936 28.4594 0.0875163C28.4729 0.0843855 28.4863 0.0812554 28.5005 0.0800304C28.5411 0.0764863 28.5806 0.06917 28.6202 0.0618558C28.6752 0.0516779 28.7301 0.0415039 28.7879 0.0415039C28.8007 0.0415039 28.813 0.0438917 28.8252 0.0462824C28.8369 0.0485573 28.8486 0.0508349 28.8608 0.0510603C29.1186 0.0510603 29.3698 0.0775665 29.6132 0.128113H29.6177C29.6217 0.128961 29.6254 0.130964 29.6291 0.132967C29.6328 0.13497 29.6364 0.136973 29.6404 0.13782C30.8298 0.389475 31.8193 1.15862 32.2669 2.2856C32.489 2.77596 32.6182 3.31826 32.6182 3.89416C32.6182 4.26386 32.5538 4.61522 32.4585 4.95363C32.4543 4.96847 32.4503 4.98333 32.4462 4.99818C32.4343 5.04147 32.4225 5.08466 32.4083 5.127C32.3364 5.34306 32.2458 5.54664 32.1393 5.74343C32.0718 5.87735 32.0025 6.01789 32.0025 6.01789ZM29.5874 0.229497C29.3523 0.180926 29.1099 0.155455 28.8608 0.155455L28.8588 0.155436C28.8366 0.155028 28.8164 0.151042 28.8056 0.148916L28.8034 0.148483C28.7972 0.147277 28.7938 0.146651 28.7909 0.146239C28.7887 0.14592 28.7878 0.145898 28.7878 0.145898C28.7486 0.145898 28.7093 0.151816 28.6629 0.160229C28.656 0.161484 28.6488 0.162815 28.6414 0.164187C28.602 0.171506 28.5564 0.179964 28.5101 0.184009M29.5874 0.229497C29.5881 0.229813 29.5888 0.23013 29.5894 0.230445C29.5958 0.23334 29.6056 0.237261 29.6178 0.239852" fill="#000002"/>
<path fill-rule="evenodd" clip-rule="evenodd" d="M4.04917 0.0568848C3.99256 0.0568848 3.94922 0.06998 3.90325 0.0809215C3.88604 0.0806133 3.87042 0.076148 3.85306 0.076148C1.75464 0.076148 0.0566154 1.81955 0.0182395 3.98166H0.00919323V4.05393V4.31406C0.00787998 4.32732 0.00452425 4.33733 0.00452425 4.35259V9.96297V11.2246V32.3661V34.4947V36.6474V38.1981C0.00452425 38.2077 0.0089014 38.2128 0.00919323 38.2222C0.00860956 38.2485 0 38.2727 0 38.2992C0 40.4959 1.71685 42.2772 3.83949 42.277C3.88939 42.277 3.93594 42.2645 3.9854 42.2627C3.98701 42.2627 3.98818 42.2627 3.98993 42.2627H10.3418H22.7264H29.01C29.0897 42.2627 29.1602 42.248 29.2152 42.2289C29.1321 42.2348 29.0487 42.253 28.9643 42.253C27.9421 42.253 27.0168 41.8176 26.3516 41.1164C26.3498 41.1155 26.339 41.1277 26.3378 41.1261L25.9229 40.5723L21.4224 34.5717H12.7267H8.29898H7.28675V33.4497V29.6067V12.8525V7.7477H10.3692H21.3585L25.7269 1.74234C25.747 1.72816 25.7829 1.71321 25.8044 1.69904C26.413 0.766077 27.3868 0.153355 28.4993 0.0568848H24.8149H8.33545H4.04917Z" fill="#000002"/>
<path fill-rule="evenodd" clip-rule="evenodd" d="M3.97928 0.385187C3.95248 0.391566 3.92495 0.394546 3.89737 0.394052C3.87988 0.393739 3.86502 0.392411 3.85429 0.391218C3.84877 0.390605 3.84342 0.389913 3.83933 0.389359C1.94051 0.396965 0.374637 1.98211 0.33905 3.98708C0.33863 4.01072 0.335536 4.0337 0.330052 4.05577V4.31406C0.330052 4.32413 0.329554 4.33419 0.328561 4.34421C0.327579 4.35413 0.326373 4.36265 0.325383 4.36899V38.1671C0.325892 38.1702 0.326377 38.1733 0.326829 38.1765C0.328415 38.1879 0.32951 38.2 0.329904 38.2127C0.330073 38.2181 0.330097 38.2235 0.329977 38.2289C0.329489 38.2509 0.327389 38.2698 0.325448 38.2838C0.323814 38.2955 0.321834 38.3067 0.32088 38.3121C0.327556 40.3477 1.916 41.964 3.83949 41.9638C3.83916 41.9638 3.84289 41.9639 3.86726 41.9605L3.87306 41.9597C3.8936 41.9568 3.93236 41.9512 3.97312 41.9497C3.97721 41.9496 3.98131 41.9495 3.9854 41.9495H26.8656C26.6206 41.7925 26.3935 41.609 26.1881 41.4031C26.1455 41.3812 26.1085 41.3501 26.0799 41.3123L26.0789 41.311L25.664 40.7573L25.6639 40.7572L21.2596 34.8849H7.28675C7.10955 34.8849 6.9659 34.7447 6.9659 34.5717V7.7477C6.9659 7.57473 7.10955 7.43451 7.28675 7.43451H21.1928L25.4653 1.56103C25.4857 1.533 25.5106 1.50845 25.5392 1.48834C25.554 1.47793 25.568 1.46949 25.5786 1.46341C25.8762 1.02614 26.2505 0.655196 26.681 0.370068H4.04917C4.04724 0.370068 4.04403 0.370158 4.03545 0.371842C4.03049 0.372815 4.02431 0.374198 4.01482 0.376499C4.00996 0.377677 4.00521 0.378856 3.99904 0.380377C3.99324 0.381809 3.98643 0.383485 3.97928 0.385187ZM4.04917 0.0568848C4.00083 0.0568848 3.96217 0.0664325 3.92329 0.0760347C3.91663 0.0776779 3.90997 0.0793227 3.90325 0.0809215C3.89496 0.080773 3.88703 0.079659 3.8791 0.0785445C3.87058 0.0773465 3.86206 0.076148 3.85306 0.076148C1.75464 0.076148 0.0566154 1.81955 0.0182395 3.98166H0.00919323V4.31406C0.00869537 4.31909 0.00790396 4.32365 0.00711312 4.3282C0.00581791 4.33567 0.00452425 4.34312 0.00452425 4.35259V38.1981C0.00452425 38.2031 0.00568611 38.2068 0.00685255 38.2105C0.00795012 38.2141 0.00905175 38.2176 0.00919323 38.2222C0.00891162 38.2349 0.00676171 38.2471 0.00461188 38.2593C0.0023059 38.2724 0 38.2855 0 38.2992C0 40.4959 1.71685 42.2772 3.83949 42.277C3.86643 42.277 3.89238 42.2734 3.91835 42.2697C3.94049 42.2666 3.96264 42.2635 3.9854 42.2627H29.01C29.0897 42.2627 29.1602 42.248 29.2152 42.2289C29.1818 42.2313 29.1484 42.2356 29.115 42.24C29.0801 42.2445 29.0451 42.249 29.01 42.2514C28.9948 42.2524 28.9796 42.253 28.9643 42.253C28.4548 42.253 27.9694 42.1448 27.5282 41.9495C27.0843 41.7529 26.6852 41.4681 26.3516 41.1164C26.3516 41.1164 26.3515 41.1164 26.3516 41.1164C26.3515 41.1164 26.3514 41.1164 26.3514 41.1164C26.3504 41.1163 26.348 41.1184 26.3455 41.1206C26.3454 41.1207 26.3453 41.1208 26.3451 41.1209C26.3419 41.1239 26.3385 41.127 26.3378 41.1261L26.1488 40.8738L26.1484 40.8733L21.4224 34.5717H7.28675V7.7477H21.3585L25.7269 1.74234C25.7375 1.73491 25.7523 1.72727 25.7672 1.71963C25.7807 1.7127 25.7942 1.70578 25.8044 1.69904C26.186 1.11402 26.7113 0.654923 27.3242 0.370068C27.6888 0.200647 28.0844 0.0928632 28.4993 0.0568848H4.04917ZM0.31381 38.1194C0.31373 38.1191 0.313764 38.1192 0.31388 38.1196Z" fill="#FFFEFF"/>
<path fill-rule="evenodd" clip-rule="evenodd" d="M45.3606 16.0559C45.2096 16.0559 45.0871 16.175 45.0871 16.3253V17.6055C44.4174 17.7001 43.9015 18.2439 43.7939 18.9583H42.5317C42.3895 18.9583 42.2769 19.0877 42.2769 19.2472C42.2769 19.4067 42.3895 19.5361 42.5317 19.5361H43.7441V20.4356H42.5317C42.3895 20.4356 42.2705 20.5651 42.2705 20.7245C42.2705 20.884 42.3895 21.0134 42.5317 21.0134H43.7441V21.8672H42.5317C42.3895 21.8672 42.2769 21.9966 42.2769 22.1561C42.2769 22.3153 42.3895 22.445 42.5317 22.445H43.7875C43.8888 23.168 44.4118 23.7219 45.0871 23.8173V25.2093C45.0871 25.3595 45.2096 25.4785 45.3606 25.4785C45.5114 25.4785 45.6342 25.3595 45.6342 25.2093V23.8566H46.4859V25.2093C46.4859 25.3595 46.6085 25.485 46.7595 25.485C46.9105 25.485 47.033 25.3595 47.033 25.2093V23.8566H47.8412V25.2093C47.8412 25.3595 47.9639 25.485 48.1147 25.485C48.2657 25.485 48.3883 25.3595 48.3883 25.2093V23.8238C49.0812 23.745 49.6156 23.1812 49.7189 22.445H50.9436C51.0859 22.445 51.1985 22.3153 51.1985 22.1561C51.1985 21.9966 51.0859 21.8672 50.9436 21.8672H49.7624V21.0134H50.9436C51.0859 21.0134 51.1985 20.884 51.1985 20.7245C51.1985 20.5651 51.0859 20.4356 50.9436 20.4356H49.7624V19.5361H50.9436C51.0859 19.5361 51.2048 19.4067 51.2048 19.2472C51.2048 19.0877 51.0859 18.9583 50.9436 18.9583H49.7127C49.6029 18.2306 49.0755 17.6772 48.3883 17.599V16.3253C48.3883 16.175 48.2657 16.0559 48.1147 16.0559C47.9639 16.0559 47.8412 16.175 47.8412 16.3253V17.5662H47.033V16.3253C47.033 16.175 46.9105 16.0559 46.7595 16.0559C46.6085 16.0559 46.4859 16.175 46.4859 16.3253V17.5662H45.6342V16.3253C45.6342 16.175 45.5114 16.0559 45.3606 16.0559Z" fill="white"/>
<path fill-rule="evenodd" clip-rule="evenodd" d="M45.0871 16.3253C45.0871 16.1751 45.2097 16.0559 45.3607 16.0559C45.5115 16.0559 45.6343 16.1751 45.6343 16.3253V17.5662H46.4859V16.3253C46.4859 16.1751 46.6085 16.0559 46.7595 16.0559C46.9106 16.0559 47.0332 16.1751 47.0332 16.3253V17.5662H47.8412V16.3253C47.8412 16.1751 47.964 16.0559 48.1148 16.0559C48.2658 16.0559 48.3884 16.1751 48.3884 16.3253V17.599C49.0756 17.6772 49.603 18.2307 49.7128 18.9583H50.9437C51.086 18.9583 51.205 19.0878 51.205 19.2473C51.205 19.4068 51.086 19.5362 50.9437 19.5362H49.7626V20.4356H50.9437C51.086 20.4356 51.1986 20.5651 51.1986 20.7246C51.1986 20.8841 51.086 21.0136 50.9437 21.0136H49.7626V21.8672H50.9437C51.086 21.8672 51.1986 21.9966 51.1986 22.1561C51.1986 22.3154 51.086 22.4451 50.9437 22.4451H49.719C49.6157 23.1814 49.0814 23.7451 48.3884 23.8239V25.2094C48.3884 25.3597 48.2658 25.4851 48.1148 25.4851C47.9639 25.4851 47.8412 25.3597 47.8412 25.2094V23.8567H47.0332V25.2094C47.0332 25.3597 46.9106 25.4851 46.7595 25.4851C46.6085 25.4851 46.4859 25.3597 46.4859 25.2094V23.8567H45.6343V25.2094C45.6343 25.3597 45.5115 25.4786 45.3607 25.4786C45.2097 25.4786 45.0871 25.3597 45.0871 25.2094V23.8174C44.4118 23.722 43.8888 23.1681 43.7875 22.4451H42.5318C42.3895 22.4451 42.2769 22.3154 42.2769 22.1561C42.2769 21.9966 42.3895 21.8672 42.5318 21.8672H43.7441V21.0136H42.5318C42.3895 21.0136 42.2705 20.8841 42.2705 20.7246C42.2705 20.5651 42.3895 20.4356 42.5318 20.4356H43.7441V19.5362H42.5318C42.3895 19.5362 42.2769 19.4068 42.2769 19.2473C42.2769 19.0878 42.3895 18.9583 42.5318 18.9583H43.7939C43.9015 18.2439 44.4174 17.7001 45.0871 17.6055V16.3253ZM43.7443 19.5362V20.4357L42.5318 20.4358C42.3896 20.4358 42.2707 20.5652 42.2707 20.7246C42.2707 20.8841 42.3896 21.0135 42.5318 21.0135H43.7442L43.7443 21.8672L42.5318 21.8673C42.3896 21.8673 42.277 21.9967 42.277 22.1561C42.277 22.3154 42.3896 22.445 42.5318 22.445H43.7881H43.7876C43.8889 23.168 44.4119 23.7219 45.0872 23.8173L45.0872 25.2094C45.0872 25.3596 45.2097 25.4785 45.3607 25.4785C45.5115 25.4785 45.6342 25.3596 45.6342 25.2094V23.8566L46.486 23.8566L46.486 25.2094C46.486 25.3596 46.6086 25.485 46.7595 25.485C46.9105 25.485 47.033 25.3596 47.033 25.2094V23.8566L47.8412 23.8566L47.8413 25.2094C47.8413 25.3596 47.964 25.485 48.1148 25.485C48.2658 25.485 48.3883 25.3596 48.3883 25.2094V23.8232V23.8239C49.0812 23.7451 49.6156 23.1813 49.7189 22.4451L50.9437 22.445C51.0859 22.445 51.1985 22.3154 51.1985 22.1561C51.1985 21.9967 51.0859 21.8673 50.9437 21.8673H49.7625L49.7624 21.0135L50.9437 21.0135C51.0859 21.0135 51.1985 20.8841 51.1985 20.7246C51.1985 20.5652 51.0859 20.4358 50.9437 20.4358H49.7625L49.7624 19.5362L50.9437 19.5361C51.0859 19.5361 51.2048 19.4067 51.2048 19.2473C51.2048 19.0878 51.0859 18.9584 50.9437 18.9584H49.7123H49.7128C49.603 18.2308 49.0755 17.6773 48.3883 17.5992L48.3883 16.3253C48.3883 16.1752 48.2658 16.0561 48.1148 16.0561C47.964 16.0561 47.8413 16.1752 47.8413 16.3253V17.5663L47.0331 17.5664L47.033 16.3253C47.033 16.1752 46.9105 16.0561 46.7595 16.0561C46.6086 16.0561 46.486 16.1752 46.486 16.3253V17.5663L45.6343 17.5664L45.6342 16.3253C45.6342 16.1752 45.5115 16.0561 45.3607 16.0561C45.2097 16.0561 45.0872 16.1752 45.0872 16.3253V17.6061V17.6056C44.4176 17.7002 43.9017 18.244 43.794 18.9584L42.5318 18.9584C42.3896 18.9584 42.277 19.0878 42.277 19.2473C42.277 19.4067 42.3896 19.5361 42.5318 19.5361L43.7443 19.5362Z" fill="#000002"/>
<path fill-rule="evenodd" clip-rule="evenodd" d="M42.9114 4.39893C42.3088 4.39893 41.8171 4.87926 41.8171 5.46927C41.8171 6.01789 42.2495 6.45325 42.7932 6.51335L43.4213 9.1266C43.5144 9.7475 43.368 10.1558 43.2347 10.4661C43.0427 10.7672 42.798 10.9116 42.5632 10.9586C42.3159 10.9368 41.9226 10.9156 41.5995 10.4728L41.2513 9.84899C41.3934 9.6687 41.4871 9.45081 41.4877 9.20539C41.4877 8.61559 41.0024 8.14177 40.3996 8.14177C39.797 8.14177 39.3054 8.61559 39.3054 9.20539C39.3054 9.79541 39.7962 10.2757 40.3996 10.2757C40.4641 10.2757 40.5192 10.2476 40.5799 10.2364L41.0524 11.0834C41.1528 11.4661 41.0727 11.7823 40.9529 12.0092C40.788 12.1286 40.6389 12.2689 40.4804 12.3967C40.1939 12.4729 39.7007 12.5856 39.2433 12.2193L37.2412 10.0591C37.3089 9.92001 37.3533 9.76284 37.3533 9.59937C37.3533 9.00956 36.8624 8.53574 36.259 8.53574C35.6562 8.53574 35.1709 9.00956 35.1709 9.59937C35.1709 10.1894 35.6556 10.6697 36.259 10.6697C36.3987 10.6697 36.5326 10.6363 36.6569 10.5909L38.6339 12.7184C38.7976 13.1119 38.805 13.4887 38.7708 13.828C38.77 13.8358 38.7652 13.8402 38.7644 13.8478C38.7511 14.3048 38.5301 14.4968 38.3106 14.5897C38.0912 14.6389 37.8584 14.6708 37.6081 14.6292L36.9553 14.2352C36.9581 14.2033 36.9746 14.176 36.9739 14.1432C36.9739 13.5534 36.4892 13.0731 35.886 13.0731C35.2832 13.0731 34.7917 13.5534 34.7917 14.1432C34.7917 14.7332 35.2826 15.207 35.886 15.207C36.1556 15.207 36.3917 15.103 36.5823 14.9444L37.2289 15.3383C37.3867 15.5342 37.4466 15.7621 37.4651 15.9884C37.447 16.1916 37.4155 16.5144 37.2848 16.7829C36.9914 16.9762 36.6014 17.2132 36.0911 17.2492L33.455 16.54C33.4048 15.9954 32.9487 15.5682 32.3794 15.5682C31.7766 15.5682 31.2914 16.0418 31.2914 16.6318C31.2914 17.2218 31.776 17.7022 32.3794 17.7022C32.7191 17.7022 33.0123 17.5465 33.2125 17.3082L35.8734 18.0239C36.3103 18.2508 36.5752 18.6105 36.7687 18.9038C36.8213 19.1755 36.8746 19.621 36.4393 20.0725C36.3169 20.1454 36.2121 20.2331 36.0662 20.2826L35.1896 20.2696C35.0239 19.8861 34.633 19.6136 34.1824 19.613C33.5797 19.613 33.0881 20.0933 33.0881 20.6831C33.0881 21.2731 33.5789 21.7535 34.1824 21.7535C34.6417 21.7535 35.0349 21.4713 35.1958 21.0771L35.9481 21.0838C36.3135 21.3005 36.5449 21.6016 36.7252 21.8783C36.7809 22.0716 36.7856 22.296 36.7564 22.5284C36.5654 22.803 36.3201 23.1165 35.9294 23.3359L33.2932 24.0057C33.0931 23.7685 32.8058 23.6059 32.4664 23.6053C31.8638 23.6053 31.3783 24.0856 31.3783 24.6754C31.3783 25.2654 31.863 25.7457 32.4664 25.7457C33.0306 25.7457 33.4781 25.3181 33.5358 24.7804L36.4641 24.032C36.7528 24.119 36.9697 24.2675 37.1666 24.4195C37.1975 24.4636 37.2076 24.5176 37.2225 24.5703C37.2319 24.629 37.2329 24.7176 37.2412 24.7872C37.2373 24.9962 37.1933 25.2089 37.1169 25.4175C37.1875 26.4285 37.8044 27.0064 38.1631 27.0064C38.5218 27.0064 38.8786 27.2047 39.0008 27.604C39.1052 27.9453 38.9339 28.1961 38.7957 28.497L36.6072 30.6968C36.5929 30.7111 36.6006 30.7333 36.5885 30.7493C36.4908 30.7211 36.3901 30.69 36.2839 30.69C35.6811 30.69 35.1958 31.1704 35.1958 31.7604C35.1958 32.3504 35.6805 32.8242 36.2839 32.8242C36.8865 32.8242 37.3781 32.3504 37.3781 31.7604C37.3781 31.5583 37.3037 31.3767 37.204 31.2153L39.411 28.9961C39.5368 28.9263 39.6629 28.8845 39.7904 28.845C40.0562 28.804 40.3618 28.8311 40.6421 29.0091C40.8413 29.3119 41.017 29.6848 41.04 30.1452L40.5488 31.1365C40.5122 31.133 40.4802 31.1164 40.4432 31.117C39.8404 31.117 39.3489 31.5973 39.3489 32.1871C39.3489 32.7772 39.8398 33.2575 40.4432 33.2575C41.0458 33.2575 41.5312 32.7772 41.5312 32.1871C41.5312 31.9119 41.4192 31.6675 41.2452 31.478L41.699 30.5654C42.3239 30.0647 42.9203 30.4165 43.1229 30.4341C43.1609 30.4501 43.1973 30.4688 43.2347 30.4866C43.4669 30.7506 43.5703 31.0355 43.5828 31.2876L42.7747 34.8006C42.2204 34.8517 41.7803 35.2954 41.7799 35.8512C41.7799 36.4412 42.2713 36.9148 42.8742 36.9148C43.4768 36.9148 43.962 36.4412 43.962 35.8512C43.962 35.5009 43.7798 35.2055 43.5144 35.0107L44.304 31.583C44.5673 31.2347 44.8816 31.1111 45.1496 31.084C45.3961 31.1271 45.6504 31.1443 45.9018 31.1695C46.1748 31.4145 46.2936 31.7024 46.3433 31.9442L46.3495 32.9226C45.9245 33.0686 45.6159 33.4476 45.6159 33.9141C45.6159 34.5041 46.1073 34.9845 46.7102 34.9845C47.3128 34.9845 47.7982 34.5041 47.7982 33.9141C47.7982 33.4674 47.5187 33.0953 47.1204 32.9358L47.1081 31.7867C47.1725 31.5778 47.276 31.4305 47.3878 31.3074C47.4863 31.2357 47.584 31.1838 47.6801 31.1498C47.849 31.1302 48.0163 31.1023 48.1836 31.0775C48.293 31.0916 48.3816 31.1025 48.4697 31.13C48.9699 31.3965 49.1199 31.8947 49.2219 32.0363L49.8063 35.0305C49.5735 35.2263 49.4141 35.5068 49.4147 35.8314C49.4147 36.4215 49.9061 36.9018 50.509 36.9018C51.1116 36.9018 51.5968 36.4215 51.5968 35.8314C51.5968 35.2524 51.1279 34.7909 50.54 34.7743L49.8872 31.4059C49.9332 31.0178 50.0977 30.7793 50.2539 30.6047C50.397 30.4633 50.5446 30.3721 50.6892 30.3223C50.7139 30.311 50.7387 30.3015 50.7638 30.2896C50.926 30.2471 51.0784 30.2467 51.2176 30.2633C51.3515 30.3366 51.4912 30.411 51.5845 30.4997L52.1006 31.3664C51.935 31.5536 51.8203 31.7894 51.8207 32.0558C51.8207 32.6458 52.3123 33.1262 52.9149 33.1262C53.5177 33.1262 54.003 32.6458 54.003 32.0558C54.003 31.4658 53.5177 30.9922 52.9149 30.9922C52.8715 30.9922 52.8323 31.0071 52.7905 31.0119L52.2932 30.1582C52.2255 29.9826 52.204 29.8357 52.2124 29.7052C52.2128 29.6976 52.2176 29.693 52.2186 29.6855C52.521 28.9769 53.1383 28.89 53.431 28.8187H53.4371C53.6144 28.8345 53.773 28.8765 53.8973 28.937L56.2101 31.2746C56.1439 31.4122 56.0981 31.5587 56.0981 31.7211C56.0981 32.3109 56.5897 32.7912 57.1924 32.7912C57.7952 32.7912 58.2804 32.3111 58.2804 31.7211C58.2804 31.1311 57.7952 30.6573 57.1924 30.6573C57.0485 30.6573 56.9085 30.6865 56.7821 30.7361L54.5562 28.4838C54.2873 27.9738 54.4186 27.5133 54.519 27.2363C54.6318 27.0863 54.7476 26.9379 54.8547 26.7833C55.2297 26.5807 55.6053 26.6331 55.8246 26.665L56.4899 27.1378C56.4773 27.2025 56.4457 27.2607 56.4463 27.3281C56.4463 27.9182 56.9379 28.3985 57.5405 28.3985C58.1434 28.3985 58.6286 27.9182 58.6286 27.3281C58.6286 26.7383 58.1434 26.2645 57.5405 26.2645C57.3072 26.2645 57.1024 26.3519 56.9252 26.4746L56.1727 25.9428C55.8653 25.5348 55.8707 25.1215 55.924 24.8265C55.9648 24.7178 56.013 24.6134 56.0547 24.5048C56.4897 24.0868 56.9938 24.1442 57.1987 24.1238L59.9343 24.82C59.9606 25.3869 60.4235 25.8449 61.0098 25.8443C61.6125 25.8443 62.1041 25.3639 62.1041 24.7739C62.1041 24.1839 61.6125 23.7036 61.0098 23.7036C60.6915 23.7036 60.4136 23.8454 60.214 24.0583L57.3416 23.3294C56.848 23.073 56.7125 22.6444 56.6578 22.3313C56.69 22.0697 56.7411 21.8148 56.7634 21.5499C57.0244 21.2406 57.3448 21.1328 57.5718 21.0838H58.3115C58.4909 21.4333 58.8552 21.6818 59.2814 21.6812C59.8842 21.6812 60.3694 21.2011 60.3694 20.6111C60.3694 20.021 59.8842 19.5407 59.2814 19.5407C58.8005 19.5407 58.401 19.8534 58.2556 20.2761L57.5095 20.2696C57.1955 20.1971 56.986 20.0343 56.838 19.8494V19.8427C56.7214 19.613 56.6763 19.4037 56.6826 19.2123C56.6876 19.0637 56.7374 18.9557 56.7759 18.8381L56.7821 18.8446C56.8376 18.5023 56.9866 18.3237 57.1303 18.2077C57.456 18.023 57.7936 17.9848 57.8577 17.9123L60.183 17.3212C60.3829 17.5461 60.669 17.6957 60.9973 17.6957C61.6001 17.6957 62.0854 17.2153 62.0854 16.6253C62.0854 16.0353 61.6001 15.5615 60.9973 15.5615C60.4208 15.5615 59.9554 15.9985 59.9156 16.553L57.4038 17.1899C56.7278 17.1859 56.3052 16.901 56.0422 16.6713C56.0353 16.6541 56.0305 16.6356 56.0235 16.6188C55.8126 16.1019 55.9525 15.6928 56.0981 15.4171L56.9003 14.9574C57.0778 15.0799 57.2821 15.161 57.5157 15.161C58.1185 15.161 58.6099 14.6874 58.6099 14.0974C58.6099 13.5074 58.1185 13.027 57.5157 13.027C56.913 13.027 56.4278 13.5074 56.4278 14.0974C56.4278 14.1652 56.4527 14.2234 56.465 14.2877L55.7874 14.6817C55.3857 14.7485 55.0755 14.6279 54.861 14.4651C54.7858 14.3686 54.7156 14.268 54.6434 14.1695C54.3115 13.4227 54.7492 12.8869 54.8236 12.6724L56.8257 10.6434C56.9691 10.7115 57.1279 10.755 57.2982 10.755C57.9008 10.755 58.3861 10.2814 58.3861 9.6914C58.3861 9.10138 57.9008 8.62105 57.2982 8.62105C56.6954 8.62105 56.204 9.10138 56.204 9.6914C56.204 9.82713 56.2368 9.95132 56.2847 10.0721L54.1647 12.2128C53.6363 12.6169 53.1626 12.4345 52.8715 12.3114C52.8586 12.3011 52.847 12.2883 52.8341 12.2784C52.4157 11.892 52.3908 11.4493 52.4239 11.1227L52.8715 10.2757C52.9159 10.2812 52.9567 10.3026 53.002 10.302C53.6047 10.302 54.0901 9.82167 54.0901 9.23166C54.0901 8.64186 53.6047 8.16153 53.002 8.16153C52.3992 8.16153 51.9078 8.64186 51.9078 9.23166C51.9078 9.49851 52.0168 9.73406 52.1814 9.92127L51.9514 10.3545C51.8746 10.4924 51.7838 10.5918 51.6901 10.6762C51.6301 10.7519 51.559 10.7706 51.4912 10.8143C51.3555 10.8918 51.2429 10.9256 51.1181 10.9521C50.8629 10.9595 50.7004 10.8973 50.6146 10.8536C50.2505 10.609 50.1313 10.2953 50.0737 10.0196C50.0368 9.72355 50.0327 9.53717 50.0364 9.31045L50.7141 6.50684C51.2499 6.43876 51.6722 6.01222 51.6714 5.46927C51.6714 4.87926 51.18 4.39893 50.5772 4.39893C49.9746 4.39893 49.4893 4.87926 49.4893 5.46927C49.4893 5.82794 49.6785 6.13052 49.9555 6.32299L49.2343 9.29742C49.0552 9.77923 48.7319 9.95804 48.5069 10.0789C48.381 10.115 48.2507 10.1709 48.14 10.1642C48.1275 10.1623 48.1156 10.1595 48.1028 10.1577C48.0181 10.1493 47.9536 10.11 47.879 10.0854C47.6323 9.96245 47.3281 9.75947 47.1827 9.29742V8.37164C47.5559 8.20187 47.8175 7.83521 47.8167 7.40635C47.8167 6.81634 47.3315 6.33601 46.7289 6.33601C46.126 6.33601 45.6346 6.81634 45.6346 7.40635C45.6346 7.88732 45.9653 8.27646 46.4117 8.41093V9.19236C46.3198 9.65378 46.0685 9.87315 45.8272 10.0196C45.7393 10.077 45.6486 10.1326 45.56 10.1444C45.535 10.1482 45.5103 10.1537 45.4854 10.1577C45.3569 10.1593 45.2361 10.1289 45.1247 10.0854H45.1185C44.8822 9.90656 44.4427 9.62458 44.1674 8.92321L43.5393 6.31626C43.8116 6.12211 43.9994 5.82437 43.9994 5.46927C43.9994 4.87926 43.5142 4.39893 42.9114 4.39893ZM46.6915 13.6049C47.0723 13.5477 47.3404 13.9482 47.3878 14.0186C47.5877 14.2758 47.879 14.4981 48.252 14.6292C48.7136 14.7925 49.1565 14.7653 49.5017 14.616C49.5448 14.6057 49.5759 14.6134 49.626 14.5897C50.2463 14.2882 50.3846 14.9322 50.4218 15.1675C50.4636 15.5207 50.614 15.8966 50.9005 16.2313C51.3183 16.7192 51.8557 16.9523 52.2932 16.888C53.0906 16.9836 52.8317 17.653 52.8031 17.7219C52.6791 18.0098 52.5954 18.3378 52.629 18.72C52.6626 19.1121 52.7959 19.447 52.971 19.7113C52.978 19.7248 52.9815 19.7376 52.9895 19.7508C53.0494 19.8361 53.119 19.8964 53.1884 19.961C53.2239 19.9935 53.24 20.028 53.2818 20.0595C54.1146 20.659 53.2694 21.3202 53.2694 21.3202C53.049 21.5167 52.852 21.7676 52.7223 22.1082C52.6075 22.4088 52.581 22.699 52.5916 22.9749C52.5858 23.0539 52.5824 23.1337 52.598 23.2243C52.6029 23.2531 52.6165 23.2754 52.6228 23.3031C52.6451 23.3985 52.6612 23.4889 52.7098 23.592C53.2201 24.6601 52.1191 24.7214 52.1191 24.7214V24.7279C51.7739 24.7536 51.3989 24.9017 51.0622 25.2007C50.7919 25.4409 50.611 25.7285 50.5026 26.0149C50.4355 26.1437 50.3834 26.2981 50.3846 26.5009C50.3898 27.5183 49.4084 26.9342 49.4084 26.9342C49.1237 26.8321 48.7884 26.7955 48.4323 26.8554C47.954 26.9373 47.5824 27.1735 47.3442 27.4727C47.2814 27.5345 47.2187 27.591 47.164 27.6828C46.6517 28.5445 46.1133 27.4924 46.1133 27.4924H46.1071C45.8829 27.1983 45.5358 26.9531 45.0812 26.8489C44.6484 26.7495 44.2479 26.8041 43.931 26.9539C43.8827 26.9739 43.8385 26.9768 43.788 27.0064C43.2343 27.3363 43.1338 27.0275 43.1103 26.7373C43.1489 26.3271 43.0178 25.8367 42.7063 25.4043C42.4052 24.9857 42.0115 24.7376 41.6369 24.6558H41.6307C41.498 24.6275 41.3675 24.6086 41.2452 24.6296C40.2868 24.7328 40.7416 23.638 40.7416 23.638C40.9577 23.2697 41.0217 22.7276 40.8534 22.1607C40.7329 21.7541 40.5212 21.4345 40.2753 21.2152C40.2548 21.1967 40.2494 21.1817 40.2255 21.1626C39.5079 20.6077 40.1173 20.0055 40.2194 19.9084C40.5558 19.6737 40.8327 19.2365 40.9219 18.6675C40.9889 18.2428 40.9055 17.8764 40.7726 17.5576C40.7673 17.5242 40.7748 17.4969 40.7603 17.4593C40.5532 16.9123 41.1154 16.7695 41.2328 16.7434C41.617 16.7527 42.0579 16.5848 42.4389 16.2248C42.6271 16.046 42.7751 15.8451 42.8803 15.6403C43.0164 15.3732 43.0498 15.1099 43.0357 14.8591C43.0564 14.8084 43.0791 14.7714 43.0916 14.6947C43.1945 14.0818 43.8689 14.3008 43.8689 14.3008C44.1415 14.4716 44.4642 14.5939 44.8573 14.5832C45.4307 14.5676 45.9034 14.3178 46.1692 13.9726C46.1983 13.9438 46.2273 13.9375 46.2564 13.9003C46.4062 13.7089 46.5534 13.6255 46.6915 13.6049Z" fill="white"/>
</g>
<defs>
<clipPath id="clip0_333_205">
<rect width="100" height="43" fill="white"/>
</clipPath>
</defs>
</svg>
