<svg width="160" height="68" viewBox="0 0 160 68" fill="none" xmlns="http://www.w3.org/2000/svg">
<g clip-path="url(#clip0_333_184)">
<rect width="160" height="68" fill="white"/>
<path d="M106.619 1.87848C105.595 0.800647 104.183 0.133783 102.624 0.0782932L134.336 0.0666504C135.928 0.10034 137.37 0.785542 138.412 1.88245L138.433 1.86684L139.101 2.75666L159.484 29.8878L159.469 29.9034C160.259 30.9771 160.746 32.2969 160.747 33.7498C160.749 35.5039 160.06 37.0938 158.955 38.2566L158.963 38.3262L139.464 65.1742C139.431 65.1972 139.374 65.221 139.339 65.2441C138.277 66.8758 136.533 67.9482 134.549 67.9499C134.436 67.9499 134.331 67.9247 134.22 67.9192C134.182 67.9479 134.14 67.9734 134.088 67.9734L103.16 68C103.089 68 103.039 67.963 102.998 67.9147C104.879 67.8278 106.529 66.8032 107.547 65.2401C107.581 65.2173 107.638 65.1933 107.671 65.1705L115.561 54.3104L132.311 54.296L147.236 33.6916L132.324 13.7007L115.545 13.7151L107.308 2.75269L106.641 1.86313L106.619 1.87848Z" fill="#000002"/>
<path fill-rule="evenodd" clip-rule="evenodd" d="M138.412 1.88245C137.37 0.785542 135.928 0.10034 134.336 0.0666504L102.624 0.0782932C103.391 0.105613 104.123 0.281131 104.791 0.580931C105.479 0.890055 106.099 1.33131 106.619 1.87848L106.641 1.86313L115.545 13.7151L132.324 13.7007L147.236 33.6916L132.311 54.296L115.561 54.3104L107.671 65.1705C107.654 65.1824 107.63 65.1946 107.607 65.2068C107.585 65.218 107.563 65.2292 107.547 65.2401C106.886 66.2554 105.958 67.0435 104.873 67.495C104.336 67.7187 103.76 67.8598 103.16 67.9049C103.16 67.9049 103.16 67.9049 103.16 67.9049C103.106 67.909 103.052 67.9122 102.998 67.9147C103.039 67.963 103.089 68 103.16 68L134.088 67.9734C134.14 67.9734 134.182 67.9479 134.22 67.9192C134.269 67.9216 134.316 67.9278 134.364 67.9341C134.425 67.942 134.486 67.9499 134.549 67.9499C136.533 67.9482 138.277 66.8758 139.339 65.2441C139.356 65.2331 139.377 65.2219 139.399 65.2107C139.423 65.1985 139.447 65.1862 139.464 65.1742L158.963 38.3262L158.955 38.2566C160.06 37.0938 160.749 35.5039 160.747 33.7498C160.746 32.2969 160.259 30.9771 159.469 29.9034L159.484 29.8878L138.433 1.86684L138.412 1.88245ZM138.115 2.29428C138.086 2.27428 138.058 2.25107 138.033 2.22468C137.081 1.22241 135.771 0.6021 134.33 0.570086L105.846 0.580543C106.219 0.822119 106.566 1.10277 106.881 1.41778C106.949 1.45231 107.009 1.5019 107.057 1.56564L115.806 13.2114L132.324 13.1973C132.489 13.1971 132.644 13.2741 132.741 13.4044L147.653 33.3953C147.783 33.5698 147.785 33.8059 147.657 33.9822L132.733 54.5866C132.636 54.72 132.479 54.7993 132.312 54.7994L115.828 54.8136L108.092 65.4617C108.059 65.5073 108.018 65.5472 107.971 65.5798C107.948 65.5959 107.927 65.609 107.91 65.6186C107.395 66.3779 106.736 67.0179 105.974 67.4941L133.986 67.4701C134.066 67.4308 134.155 67.412 134.245 67.4164C134.318 67.4199 134.388 67.4292 134.434 67.4352C134.44 67.4361 134.446 67.4368 134.451 67.4375C134.504 67.4443 134.529 67.4465 134.549 67.4465C136.332 67.4449 137.923 66.4818 138.904 64.9741C138.941 64.9166 138.99 64.8671 139.048 64.8286C139.071 64.813 139.093 64.8003 139.11 64.7912L158.448 38.1641C158.466 38.0716 158.51 37.9848 158.577 37.9143C159.595 36.8422 160.233 35.3739 160.231 33.7502C160.23 32.4094 159.782 31.191 159.05 30.1972C159.022 30.1584 159 30.1167 158.984 30.0735L138.685 3.05436L138.685 3.05409L138.115 2.29428ZM139.18 64.754C139.18 64.754 139.18 64.7541 139.18 64.7541C139.181 64.7536 139.181 64.7535 139.18 64.754ZM133.901 67.5231C133.897 67.5263 133.898 67.5252 133.903 67.5216C133.902 67.5221 133.902 67.5226 133.901 67.5231Z" fill="#FFFEFF"/>
<path fill-rule="evenodd" clip-rule="evenodd" d="M102.424 0.0666504C99.1685 0.0666504 96.5304 2.81363 96.5304 6.19775C96.5304 7.6598 97.0422 8.98411 97.8643 10.0374C97.8597 10.0971 97.8784 10.1581 97.9157 10.2076L115.427 33.7102L97.5418 58.3507L97.5273 58.3894C97.5228 58.398 97.4832 58.4694 97.4686 58.4979C96.8555 59.4613 96.4863 60.6018 96.4863 61.8344C96.4863 65.2393 99.206 67.9965 102.555 67.9965C104.636 67.9965 106.448 66.9172 107.54 65.2946L107.562 65.3102L126.722 38.9512L127.155 38.3549L127.492 37.8904L127.433 37.9293C128.36 36.8062 128.943 35.3676 128.943 33.78C128.943 32.3271 128.457 31.007 127.668 29.9324L127.682 29.917L115.544 13.7376L107.312 2.7683L106.646 1.87799L106.624 1.89359C105.6 0.814768 104.188 0.14667 102.629 0.0899423C102.559 0.0872174 102.494 0.0666504 102.424 0.0666504Z" fill="#000002"/>
<path fill-rule="evenodd" clip-rule="evenodd" d="M98.3753 9.96844L115.844 33.4141C115.974 33.5887 115.975 33.825 115.848 34.0012L98.0005 58.5897C97.9966 58.5983 97.9926 58.6068 97.9883 58.6151C97.9847 58.622 97.9809 58.6291 97.9799 58.631L97.9732 58.6431L97.9568 58.6731C97.9436 58.6973 97.9337 58.7157 97.9303 58.7224C97.9231 58.7364 97.9153 58.7502 97.9068 58.7635C97.3411 59.6523 97.0021 60.7016 97.0021 61.8344C97.0021 64.98 99.5096 67.493 102.555 67.493C104.444 67.493 106.102 66.5142 107.109 65.0182C107.143 64.9667 107.187 64.9224 107.237 64.887L126.301 38.6603L126.301 38.6599L126.734 38.064L126.734 38.0638L126.941 37.7782C126.96 37.7197 126.99 37.6638 127.032 37.6135C127.89 36.5734 128.427 35.2448 128.427 33.78C128.427 32.4393 127.98 31.2207 127.249 30.2258C127.22 30.1872 127.198 30.1457 127.182 30.1027L115.128 14.0351L106.327 2.30551C106.298 2.28543 106.27 2.26211 106.245 2.23558C105.311 1.25093 104.027 0.644575 102.61 0.593026L102.608 0.592974C102.541 0.590345 102.478 0.579871 102.449 0.575135C102.447 0.574667 102.444 0.574254 102.442 0.573911C102.428 0.571608 102.42 0.570542 102.417 0.570088C99.4801 0.574032 97.0462 3.06329 97.0462 6.19775C97.0462 7.54249 97.5164 8.7609 98.2746 9.73234C98.3288 9.80175 98.3632 9.88319 98.3753 9.96844ZM106.646 1.87799L127.682 29.917L127.668 29.9324C128.457 31.007 128.943 32.3271 128.943 33.78C128.943 35.1598 128.503 36.4269 127.779 37.4723C127.684 37.6096 127.584 37.7432 127.479 37.8727C127.478 37.8746 127.476 37.8766 127.475 37.8786C127.461 37.8956 127.447 37.9125 127.433 37.9293L127.492 37.8904L127.155 38.3549L107.563 65.3092L107.562 65.3102L107.54 65.2946C107.54 65.2946 107.54 65.2946 107.54 65.2946C107.54 65.2947 107.54 65.2947 107.54 65.2948C107.445 65.4354 107.345 65.572 107.24 65.7041C106.132 67.0962 104.455 67.9965 102.555 67.9965C99.206 67.9965 96.4863 65.2393 96.4863 61.8344C96.4863 60.6018 96.8555 59.4613 97.4686 58.4979C97.4782 58.4792 97.4985 58.4421 97.5126 58.4163C97.5201 58.4028 97.5258 58.3924 97.5273 58.3894L97.5418 58.3507L115.427 33.7102L97.9157 10.2076C97.8784 10.1581 97.8597 10.0971 97.8643 10.0374C97.0422 8.98411 96.5304 7.6598 96.5304 6.19775C96.5304 2.81363 99.1685 0.0666504 102.424 0.0666504C102.461 0.0666504 102.497 0.0725403 102.534 0.0784338C102.565 0.0835533 102.596 0.0886756 102.629 0.0899423C104.188 0.14667 105.6 0.814768 106.624 1.89359L106.646 1.87799Z" fill="#FFFEFF"/>
<path fill-rule="evenodd" clip-rule="evenodd" d="M87.3645 0C87.1358 0 86.9193 0.0433544 86.6974 0.0698605H60.8449C60.7931 0.0698605 60.7846 0.135005 60.7497 0.170429C58.9999 0.351513 57.4673 1.32011 56.5056 2.79479C56.4711 2.81758 56.4134 2.84161 56.3811 2.8644L36.8543 29.6956C36.8536 29.6966 36.8623 29.7629 36.8616 29.7654C35.7561 30.9272 35.0658 32.5166 35.0658 34.2707C35.0658 35.7236 35.5516 37.0437 36.3413 38.1181C36.3413 38.1186 36.3263 38.1332 36.3265 38.1337L56.6963 65.2824L57.3634 66.1725C57.3653 66.175 57.3826 66.1556 57.3852 66.1571C58.2538 67.0727 59.4036 67.6856 60.6838 67.8912L87.9143 67.8525C89.7858 67.7596 91.4296 66.7452 92.444 65.1895C92.4785 65.1665 92.5362 65.1427 92.5686 65.1197L111.905 38.5439L112.095 38.2885C112.095 38.2885 112.096 38.2823 112.095 38.2808L112.557 37.6536L112.543 37.6459C113.368 36.5555 113.884 35.2014 113.884 33.7134C113.884 32.2607 113.398 30.9404 112.609 29.866C112.608 29.8655 112.624 29.8509 112.623 29.8504L92.2536 2.7019L91.5865 1.81158C91.5846 1.8091 91.5673 1.82843 91.5645 1.82694C90.4956 0.70006 89.0071 0 87.3645 0ZM63.535 13.7408H85.5394L100.368 33.6437L85.378 54.2975H63.4543L56.7184 45.2557L54.7612 42.6313L48.5821 34.3403L63.535 13.7408Z" fill="#FF5733"/>
<path fill-rule="evenodd" clip-rule="evenodd" d="M86.7601 0.569565C86.7393 0.572049 86.7184 0.573294 86.6974 0.573294H61.059C60.985 0.627413 60.897 0.661437 60.8041 0.671056C59.2199 0.835001 57.8233 1.7118 56.9407 3.06512C56.9029 3.12318 56.8532 3.17305 56.7948 3.21164C56.7722 3.22662 56.7507 3.23892 56.7347 3.24774L37.3685 29.8584C37.3663 29.8698 37.3631 29.8839 37.3586 29.8999C37.3365 29.9776 37.2957 30.049 37.2395 30.108C36.2203 31.1792 35.5816 32.647 35.5816 34.2707C35.5816 35.6114 36.0292 36.83 36.7604 37.8246C36.7886 37.8629 36.8109 37.9047 36.827 37.9486L57.1124 64.985L57.1126 64.9852L57.6827 65.7459C57.7121 65.7661 57.7392 65.7893 57.7636 65.8151C58.5461 66.6399 59.5774 67.1941 60.7265 67.3877L87.9005 67.3491C89.5846 67.2614 91.0777 66.3472 92.0089 64.9192C92.0463 64.8619 92.0952 64.8125 92.1527 64.7741C92.1762 64.7584 92.1983 64.7456 92.2147 64.7366L111.484 38.2524L111.488 38.2476L111.642 38.0416C111.652 38.0228 111.664 38.0046 111.677 37.987L112.062 37.4638C112.078 37.4225 112.1 37.3831 112.128 37.3468C112.893 36.3359 113.368 35.0853 113.368 33.7134C113.368 32.3729 112.921 31.154 112.19 30.1595C112.171 30.1336 112.154 30.1061 112.14 30.0772C112.134 30.0632 112.128 30.0495 112.123 30.036L91.8375 2.99935L91.8373 2.99908L91.2674 2.23848C91.2379 2.21819 91.2106 2.1949 91.186 2.16896C90.2069 1.1367 88.8522 0.503433 87.3645 0.503433C87.2387 0.503433 87.1337 0.518409 86.9946 0.538231C86.9266 0.547913 86.8506 0.558751 86.7601 0.569565ZM112.623 29.8504C112.624 29.8509 112.608 29.8655 112.609 29.866C113.398 30.9404 113.884 32.2607 113.884 33.7134C113.884 35.0172 113.488 36.2182 112.835 37.2291C112.765 37.3371 112.692 37.4429 112.617 37.5464C112.593 37.5792 112.568 37.6119 112.544 37.6443C112.543 37.6448 112.543 37.6454 112.543 37.6459L112.557 37.6536L112.095 38.2808C112.096 38.2823 112.095 38.2885 112.095 38.2885L111.905 38.5439L92.5686 65.1197C92.5517 65.1317 92.5278 65.144 92.5039 65.1562C92.4822 65.1674 92.4605 65.1785 92.444 65.1895C91.4296 66.7452 89.7858 67.7596 87.9143 67.8525L60.6838 67.8912C59.4036 67.6856 58.2538 67.0727 57.3852 66.1571C57.3851 66.1571 57.3851 66.1571 57.385 66.1571C57.3849 66.1571 57.3849 66.1571 57.3848 66.1571C57.3833 66.1572 57.38 66.1599 57.3763 66.1631C57.3762 66.1633 57.376 66.1635 57.3758 66.1637C57.3753 66.1641 57.3748 66.1645 57.3744 66.1649C57.3694 66.1693 57.3643 66.1738 57.3634 66.1725L36.3265 38.1337C36.3264 38.1334 36.3309 38.1289 36.3349 38.1248C36.3383 38.1214 36.3413 38.1183 36.3413 38.1181C35.5516 37.0437 35.0658 35.7236 35.0658 34.2707C35.0658 32.5166 35.7561 30.9272 36.8616 29.7654C36.8619 29.7641 36.8597 29.7453 36.8576 29.7275C36.8557 29.7113 36.8539 29.696 36.8543 29.6956L56.3811 2.8644C56.398 2.85245 56.422 2.84017 56.4458 2.8279C56.4675 2.81676 56.4892 2.80564 56.5056 2.79479C57.4673 1.32011 58.9999 0.351513 60.7497 0.170429C60.7619 0.158004 60.7709 0.141923 60.7797 0.126279C60.7959 0.0973211 60.8112 0.0698605 60.8449 0.0698605H86.6974C86.7598 0.0624144 86.8217 0.0536386 86.8835 0.0448679C87.0419 0.0224174 87.2001 0 87.3645 0C89.0071 0 90.4956 0.70006 91.5645 1.82694C91.5646 1.827 91.5647 1.82703 91.5649 1.82702C91.565 1.82702 91.5651 1.82701 91.5652 1.82698C91.5668 1.82664 91.5699 1.82408 91.5733 1.82113C91.5735 1.82094 91.5737 1.82075 91.5739 1.82055C91.5745 1.82005 91.5751 1.81954 91.5757 1.81903C91.5807 1.81464 91.5856 1.81033 91.5865 1.81158L112.623 29.8504ZM56.6638 3.28501C56.6637 3.28504 56.6638 3.28498 56.6638 3.28501C56.6628 3.28557 56.6627 3.28561 56.6638 3.28501ZM92.2853 64.6995C92.2853 64.6995 92.2852 64.6996 92.2851 64.6996C92.2861 64.699 92.2862 64.699 92.2853 64.6995ZM112.201 30.1396C112.203 30.1422 112.205 30.1448 112.207 30.1475C112.217 30.1618 112.229 30.176 112.242 30.19C112.23 30.1766 112.218 30.1625 112.207 30.1478L112.207 30.1475L112.201 30.1396ZM63.1142 13.4498C63.2109 13.3166 63.3678 13.2374 63.535 13.2374H85.5394C85.7044 13.2374 85.8595 13.3145 85.9566 13.4448L100.785 33.3477C100.915 33.5223 100.916 33.7585 100.788 33.9347L85.7989 54.5885C85.7022 54.7217 85.5453 54.8009 85.378 54.8009H63.4543C63.2893 54.8009 63.1342 54.7238 63.0372 54.5936L56.3014 45.5519L56.3012 45.5517L54.3442 42.9276L48.165 34.6365C48.0348 34.4618 48.0333 34.2255 48.1612 34.0493L63.1142 13.4498ZM63.4543 54.2975H85.378L100.368 33.6437L85.5394 13.7408H63.535L48.5821 34.3403L63.4543 54.2975Z" fill="#FFFEFF"/>
<path d="M86.041 7.07104H61.331L42.3573 32.7665L60.2279 59.8763H89.571L107.883 32.7665L86.041 7.07104Z" fill="#FF5733"/>
<path opacity="0.98982" d="M45.814 0.128581C45.9699 0.114956 46.1163 0.0666504 46.2758 0.0666504C46.3161 0.0666504 46.3527 0.0812688 46.3931 0.082012C46.8075 0.082012 47.2112 0.12462 47.6024 0.205873H47.6097C47.6226 0.208597 47.6334 0.218751 47.6463 0.221476C49.5582 0.626005 51.1487 1.86238 51.8683 3.67397C52.2253 4.46222 52.4329 5.33394 52.4329 6.25968C52.4329 6.85396 52.3294 7.41877 52.1763 7.96276C52.15 8.05615 52.1261 8.15004 52.0956 8.24145C51.98 8.58875 51.8343 8.91599 51.6631 9.23233C51.5547 9.4476 51.4433 9.67353 51.4433 9.67353L33.5584 34.3141L51.0694 57.8166C51.1065 57.8662 51.1255 57.9274 51.1208 57.9868C51.9429 59.0401 52.4547 60.3644 52.4547 61.8265C52.4547 65.0593 50.0395 67.6804 46.9867 67.9113C46.979 67.9142 46.9656 67.9162 46.9574 67.919C46.8242 67.9284 46.6971 67.9576 46.5615 67.9576C44.9191 67.9576 43.4304 67.2578 42.3615 66.1307L42.3395 66.1463L41.6726 65.256L34.438 55.6104L29.9228 49.6032L21.3029 38.1072L21.3174 38.0918C20.5279 37.0172 20.0421 35.6971 20.0421 34.2445C20.0421 32.8602 20.4831 31.5862 21.2076 30.5364L21.2001 30.5287L21.8306 29.6693L21.9038 29.5687L34.3353 12.4914L41.3574 2.83791C41.3611 2.83543 41.3677 2.83295 41.3719 2.83023C41.8673 2.07344 42.5278 1.45067 43.2925 0.980001C43.3537 0.942347 43.4203 0.915097 43.4829 0.879425C43.7649 0.719892 44.0555 0.58191 44.3625 0.469197C44.48 0.426094 44.6011 0.388689 44.7219 0.353017C45.0355 0.26037 45.3568 0.191756 45.6894 0.151873C45.7321 0.146918 45.7708 0.132296 45.814 0.128581Z" fill="#000002"/>
<path opacity="0.98982" fill-rule="evenodd" clip-rule="evenodd" d="M45.8293 0.295724L45.8291 0.295743C45.8215 0.296397 45.8122 0.298166 45.7913 0.303016L45.7867 0.304085C45.7687 0.308297 45.7404 0.314915 45.7101 0.318464C45.3881 0.357096 45.0765 0.423585 44.7717 0.513633C44.6519 0.548994 44.5352 0.585144 44.423 0.626283C44.1261 0.735297 43.8442 0.869024 43.5696 1.02437C43.5372 1.04281 43.504 1.05929 43.4759 1.07318C43.4723 1.075 43.4687 1.07677 43.4652 1.0785C43.4332 1.09441 43.4075 1.10761 43.3842 1.12195C42.6397 1.58023 41.9978 2.1858 41.5168 2.92058C41.5062 2.93674 41.4929 2.95098 41.4775 2.96271L34.4754 12.5885L22.044 29.6659L21.9708 29.7665L21.9704 29.767L21.3735 30.5806C21.3686 30.5979 21.3609 30.6146 21.3502 30.6301C20.6436 31.6539 20.214 32.8956 20.214 34.2445C20.214 35.6597 20.6871 36.946 21.4571 37.9941C21.474 38.0171 21.4842 38.0431 21.4878 38.0698L30.0614 49.5039L30.0615 49.5041L34.5766 55.5112L41.8114 65.1568L42.4235 65.9741C42.4473 65.9831 42.4693 65.9973 42.4877 66.0167C43.5266 67.1122 44.9707 67.7898 46.5615 67.7898C46.6173 67.7898 46.6736 67.7838 46.7377 67.7755C46.7488 67.774 46.7604 67.7725 46.7722 67.7709C46.8205 67.7644 46.8742 67.7573 46.9285 67.7528C46.9306 67.7524 46.9323 67.752 46.9332 67.7518L46.9334 67.7517C46.9464 67.7476 46.9598 67.745 46.9734 67.744C49.9296 67.5204 52.2828 64.9787 52.2828 61.8265C52.2828 60.4036 51.7848 59.1145 50.984 58.0885C50.9585 58.0558 50.9461 58.015 50.9494 57.9739C50.9507 57.9571 50.9452 57.9351 50.9306 57.9156L50.9304 57.9153L33.4194 34.4128C33.376 34.3546 33.3755 34.2758 33.4181 34.2171L51.2947 9.588L51.3076 9.56191C51.3197 9.5373 51.3371 9.50226 51.3578 9.46048C51.3993 9.37694 51.4544 9.26634 51.5088 9.15833C51.5095 9.15686 51.5103 9.15539 51.5111 9.15394C51.6782 8.84521 51.8198 8.52682 51.9321 8.18958C51.9533 8.1261 51.9707 8.06272 51.9894 7.99449C51.9962 7.96983 52.0031 7.94452 52.0105 7.91833C52.1609 7.38424 52.261 6.83483 52.261 6.25968C52.261 5.35878 52.059 4.51008 51.7111 3.74182C51.71 3.73945 51.709 3.73705 51.708 3.73463C51.0108 1.97949 49.4696 0.778989 47.6099 0.38549M51.4433 9.67353L33.5584 34.3141L51.0694 57.8166C51.1065 57.8662 51.1255 57.9274 51.1208 57.9868C51.9429 59.0401 52.4547 60.3644 52.4547 61.8265C52.4547 65.0593 50.0395 67.6804 46.9867 67.9113C46.9825 67.9129 46.9767 67.9142 46.9709 67.9155C46.966 67.9166 46.9612 67.9177 46.9574 67.919C46.9035 67.9228 46.8506 67.9298 46.7977 67.9369C46.7199 67.9472 46.6422 67.9576 46.5615 67.9576C44.9191 67.9576 43.4304 67.2578 42.3615 66.1307L42.3395 66.1463L29.9228 49.6032L21.3029 38.1072L21.3174 38.0918C20.5279 37.0172 20.0421 35.6971 20.0421 34.2445C20.0421 32.8602 20.4831 31.5862 21.2076 30.5364L21.2001 30.5287L21.8306 29.6693L41.3574 2.83791C41.3593 2.83668 41.3618 2.83545 41.3644 2.83419C41.3671 2.83291 41.3698 2.8316 41.3719 2.83023C41.8673 2.07344 42.5278 1.45067 43.2925 0.980001C43.3266 0.959026 43.3624 0.941279 43.3982 0.923507C43.4267 0.909375 43.4552 0.895226 43.4829 0.879425C43.7649 0.719892 44.0555 0.58191 44.3625 0.469197C44.48 0.426094 44.6011 0.388714 44.7219 0.353042C45.0355 0.260394 45.3568 0.191756 45.6894 0.151873C45.7095 0.149544 45.7287 0.145078 45.7478 0.140614C45.7695 0.135581 45.7911 0.13055 45.814 0.128581C45.8792 0.122884 45.9427 0.111123 46.0062 0.0993655C46.0946 0.0830047 46.183 0.0666504 46.2758 0.0666504C46.2965 0.0666504 46.3161 0.0704887 46.3359 0.0743317C46.3546 0.0779886 46.3734 0.0816496 46.3931 0.082012C46.8075 0.082012 47.2112 0.12462 47.6024 0.205873H47.6097C47.6162 0.207235 47.6221 0.210455 47.628 0.213674C47.6339 0.216894 47.6399 0.220114 47.6463 0.221476C49.5582 0.626005 51.1487 1.86238 51.8683 3.67397C52.2253 4.46222 52.4329 5.33394 52.4329 6.25968C52.4329 6.85396 52.3294 7.41877 52.1763 7.96276C52.1696 7.98661 52.163 8.0105 52.1565 8.03437C52.1374 8.10395 52.1183 8.17339 52.0956 8.24145C51.98 8.58875 51.8343 8.91599 51.6631 9.23233C51.5547 9.4476 51.4433 9.67353 51.4433 9.67353ZM47.561 0.368845C47.1832 0.290768 46.7934 0.249823 46.3931 0.249823L46.3898 0.249793C46.3542 0.249136 46.3217 0.24273 46.3043 0.239312L46.3008 0.238617C46.2908 0.236678 46.2854 0.235671 46.2807 0.23501C46.2771 0.234497 46.2757 0.234461 46.2757 0.234461C46.2128 0.234461 46.1496 0.243974 46.0749 0.257497C46.0638 0.259515 46.0523 0.261655 46.0404 0.26386C45.977 0.275626 45.9037 0.28922 45.8293 0.295724M47.561 0.368845C47.5621 0.369352 47.5632 0.369862 47.5643 0.370368C47.5745 0.375021 47.5903 0.381325 47.6099 0.38549" fill="#000002"/>
<path fill-rule="evenodd" clip-rule="evenodd" d="M6.50893 0.0913086C6.41792 0.0913086 6.34826 0.112359 6.27437 0.129947C6.24669 0.129452 6.2216 0.122274 6.19368 0.122274C2.82054 0.122274 0.0910077 2.92474 0.0293195 6.40027H0.0147779V6.51645V6.9346C0.0126668 6.95591 0.00727261 6.97201 0.00727261 6.99653V16.0151V18.0432V52.0275V55.449V58.9095V61.4023C0.00727261 61.4176 0.0143087 61.4258 0.0147779 61.4409C0.0138396 61.4833 0 61.5222 0 61.5648C0 65.0958 2.75979 67.9592 6.17187 67.959C6.25209 67.959 6.32691 67.9389 6.40642 67.9359C6.409 67.9359 6.41088 67.9359 6.4137 67.9359H16.6242H36.5321H46.6328C46.7608 67.9359 46.8741 67.9124 46.9625 67.8817C46.8291 67.8911 46.6949 67.9203 46.5594 67.9203C44.9161 67.9203 43.4287 67.2205 42.3594 66.0934C42.3566 66.0919 42.3392 66.1115 42.3373 66.109L41.6703 65.2187L34.4359 55.5729H20.4577H13.3404H11.7133V53.7692V47.5918V20.6598V12.4541H16.6682H34.3331L41.3553 2.80063C41.3876 2.77784 41.4453 2.75381 41.4798 2.73102C42.4581 1.23132 44.0236 0.246382 45.8118 0.0913086H39.8893H13.399H6.50893Z" fill="#000002"/>
<path fill-rule="evenodd" clip-rule="evenodd" d="M6.39658 0.619045C6.3535 0.629299 6.30925 0.634089 6.26491 0.633296C6.2368 0.632792 6.21292 0.630658 6.19566 0.62874C6.18679 0.627754 6.17819 0.626642 6.17162 0.625751C3.11931 0.637978 0.602218 3.18606 0.545013 6.40899C0.544339 6.44698 0.539365 6.48393 0.530549 6.5194V6.9346C0.530549 6.95079 0.529749 6.96696 0.528153 6.98307C0.526574 6.999 0.524635 7.01271 0.523043 7.02289V61.3525C0.523861 61.3573 0.524642 61.3624 0.525369 61.3676C0.527918 61.3858 0.529678 61.4052 0.530312 61.4257C0.530582 61.4344 0.530621 61.4431 0.530428 61.4518C0.529645 61.4872 0.526268 61.5175 0.523148 61.5399C0.520522 61.5588 0.51734 61.5768 0.515805 61.5855C0.526537 64.8577 3.07991 67.4558 6.17187 67.4555C6.17134 67.4555 6.17734 67.4556 6.21651 67.4502L6.22584 67.4489C6.25884 67.4442 6.32115 67.4353 6.38668 67.4329C6.39326 67.4326 6.39984 67.4325 6.40642 67.4325H43.1857C42.7918 67.1801 42.4267 66.8851 42.0966 66.5543C42.0281 66.5189 41.9686 66.469 41.9226 66.4083L41.921 66.4062L41.2541 65.516L41.254 65.5159L34.1742 56.0763H11.7133C11.4284 56.0763 11.1975 55.8509 11.1975 55.5729V12.4541C11.1975 12.176 11.4284 11.9506 11.7133 11.9506H34.0668L40.9347 2.50918C40.9675 2.46413 41.0076 2.42466 41.0535 2.39234C41.0773 2.3756 41.0998 2.36203 41.117 2.35225C41.5952 1.64936 42.197 1.05308 42.8889 0.594742H6.50893C6.50583 0.594742 6.50066 0.594887 6.48687 0.597593C6.4789 0.599157 6.46897 0.601381 6.45372 0.605079C6.4459 0.606974 6.43826 0.608869 6.42835 0.611314C6.41902 0.613614 6.40807 0.61631 6.39658 0.619045ZM6.50893 0.0913086C6.43122 0.0913086 6.36907 0.106656 6.30657 0.122092C6.29587 0.124733 6.28517 0.127377 6.27437 0.129947C6.26103 0.129708 6.24829 0.127917 6.23555 0.126126C6.22185 0.1242 6.20815 0.122274 6.19368 0.122274C2.82054 0.122274 0.0910077 2.92474 0.0293195 6.40027H0.0147779V6.9346C0.0139776 6.94268 0.0127054 6.95001 0.0114341 6.95733C0.00935213 6.96933 0.00727261 6.98131 0.00727261 6.99653V61.4023C0.00727261 61.4102 0.00914026 61.4162 0.0110153 61.4222C0.0127796 61.4279 0.0145504 61.4336 0.0147779 61.4409C0.0143252 61.4614 0.0108693 61.481 0.00741347 61.5006C0.00370666 61.5217 0 61.5427 0 61.5648C0 65.0958 2.75979 67.9592 6.17187 67.959C6.21517 67.959 6.2569 67.9531 6.29864 67.9473C6.33423 67.9423 6.36983 67.9373 6.40642 67.9359H46.6328C46.7608 67.9359 46.8741 67.9124 46.9625 67.8817C46.909 67.8854 46.8553 67.8924 46.8015 67.8994C46.7454 67.9067 46.6892 67.914 46.6328 67.9177C46.6083 67.9194 46.5839 67.9203 46.5594 67.9203C45.7403 67.9203 44.96 67.7465 44.2508 67.4325C43.5372 67.1165 42.8957 66.6587 42.3594 66.0934C42.3594 66.0934 42.3593 66.0934 42.3594 66.0934C42.3593 66.0934 42.3591 66.0933 42.3591 66.0933C42.3575 66.0932 42.3537 66.0965 42.3496 66.1001C42.3494 66.1003 42.3492 66.1004 42.3491 66.1006C42.3438 66.1053 42.3383 66.1103 42.3373 66.109L42.0334 65.7034L42.0328 65.7025L34.4359 55.5729H11.7133V12.4541H34.3331L41.3553 2.80063C41.3722 2.78868 41.3961 2.7764 41.42 2.76413C41.4417 2.75299 41.4634 2.74186 41.4798 2.73102C42.0933 1.79063 42.9376 1.05264 43.9229 0.594742C44.509 0.322402 45.1449 0.149143 45.8118 0.0913086H6.50893ZM0.50444 61.2756C0.504312 61.2752 0.504366 61.2754 0.504553 61.276Z" fill="#FFFEFF"/>
<path fill-rule="evenodd" clip-rule="evenodd" d="M72.9159 25.8093C72.6732 25.8093 72.4761 26.0008 72.4761 26.2423V28.3003C71.3997 28.4523 70.5704 29.3264 70.3974 30.4748H68.3685C68.1399 30.4748 67.9588 30.6829 67.9588 30.9392C67.9588 31.1956 68.1399 31.4036 68.3685 31.4036H70.3174V32.8496H68.3685C68.1399 32.8496 67.9486 33.0577 67.9486 33.314C67.9486 33.5704 68.1399 33.7784 68.3685 33.7784H70.3174V35.1507H68.3685C68.1399 35.1507 67.9588 35.3588 67.9588 35.6152C67.9588 35.8712 68.1399 36.0796 68.3685 36.0796H70.3872C70.5499 37.2418 71.3907 38.1322 72.4761 38.2855V40.5232C72.4761 40.7647 72.6732 40.9558 72.9159 40.9558C73.1583 40.9558 73.3556 40.7647 73.3556 40.5232V38.3487H74.7247V40.5232C74.7247 40.7647 74.9217 40.9663 75.1645 40.9663C75.4072 40.9663 75.6042 40.7647 75.6042 40.5232V38.3487H76.9033V40.5232C76.9033 40.7647 77.1006 40.9663 77.343 40.9663C77.5858 40.9663 77.7828 40.7647 77.7828 40.5232V38.296C78.8967 38.1693 79.7557 37.2631 79.9216 36.0796H81.8904C82.1191 36.0796 82.3001 35.8712 82.3001 35.6152C82.3001 35.3588 82.1191 35.1507 81.8904 35.1507H79.9917V33.7784H81.8904C82.1191 33.7784 82.3001 33.5704 82.3001 33.314C82.3001 33.0577 82.1191 32.8496 81.8904 32.8496H79.9917V31.4036H81.8904C82.1191 31.4036 82.3103 31.1956 82.3103 30.9392C82.3103 30.6829 82.1191 30.4748 81.8904 30.4748H79.9117C79.7352 29.3051 78.8874 28.4155 77.7828 28.2898V26.2423C77.7828 26.0008 77.5858 25.8093 77.343 25.8093C77.1006 25.8093 76.9033 26.0008 76.9033 26.2423V28.2371H75.6042V26.2423C75.6042 26.0008 75.4072 25.8093 75.1645 25.8093C74.9217 25.8093 74.7247 26.0008 74.7247 26.2423V28.2371H73.3556V26.2423C73.3556 26.0008 73.1583 25.8093 72.9159 25.8093Z" fill="white"/>
<path fill-rule="evenodd" clip-rule="evenodd" d="M72.4761 26.2424C72.4761 26.0009 72.6732 25.8093 72.916 25.8093C73.1585 25.8093 73.3559 26.0009 73.3559 26.2424V28.2371H74.7247V26.2424C74.7247 26.0009 74.9218 25.8093 75.1646 25.8093C75.4074 25.8093 75.6044 26.0009 75.6044 26.2424V28.2371H76.9033V26.2424C76.9033 26.0009 77.1007 25.8093 77.3431 25.8093C77.5859 25.8093 77.783 26.0009 77.783 26.2424V28.2898C78.8876 28.4155 79.7354 29.3052 79.9119 30.4748H81.8905C82.1193 30.4748 82.3105 30.6829 82.3105 30.9393C82.3105 31.1957 82.1193 31.4039 81.8905 31.4039H79.9919V32.8496H81.8905C82.1193 32.8496 82.3003 33.0577 82.3003 33.3141C82.3003 33.5705 82.1193 33.7787 81.8905 33.7787H79.9919V35.1507H81.8905C82.1193 35.1507 82.3003 35.3589 82.3003 35.6153C82.3003 35.8714 82.1193 36.0798 81.8905 36.0798H79.9219C79.7558 37.2633 78.8969 38.1695 77.783 38.2962V40.5233C77.783 40.7648 77.5859 40.9665 77.3431 40.9665C77.1007 40.9665 76.9033 40.7648 76.9033 40.5233V38.3489H75.6044V40.5233C75.6044 40.7648 75.4074 40.9665 75.1646 40.9665C74.9218 40.9665 74.7247 40.7648 74.7247 40.5233V38.3489H73.3559V40.5233C73.3559 40.7648 73.1585 40.9561 72.916 40.9561C72.6732 40.9561 72.4761 40.7648 72.4761 40.5233V38.2857C71.3907 38.1323 70.55 37.242 70.3872 36.0798H68.3686C68.1399 36.0798 67.9588 35.8714 67.9588 35.6153C67.9588 35.3589 68.1399 35.1507 68.3686 35.1507H70.3174V33.7787H68.3686C68.1399 33.7787 67.9486 33.5705 67.9486 33.3141C67.9486 33.0577 68.1399 32.8496 68.3686 32.8496H70.3174V31.4039H68.3686C68.1399 31.4039 67.9588 31.1957 67.9588 30.9393C67.9588 30.6829 68.1399 30.4748 68.3686 30.4748H70.3974C70.5705 29.3265 71.3997 28.4524 72.4761 28.3003V26.2424ZM70.3177 31.4038V32.8497L68.3686 32.8498C68.14 32.8498 67.9488 33.0578 67.9488 33.3141C67.9488 33.5704 68.14 33.7784 68.3686 33.7784H70.3176L70.3177 35.1509L68.3686 35.151C68.1401 35.151 67.9591 35.359 67.9591 35.6153C67.9591 35.8713 68.1401 36.0796 68.3686 36.0796H70.3882H70.3873C70.5501 37.2418 71.3909 38.1322 72.4763 38.2855L72.4764 40.5233C72.4764 40.7647 72.6733 40.9558 72.916 40.9558C73.1584 40.9558 73.3556 40.7647 73.3556 40.5233V38.3488L74.7249 38.3487L74.725 40.5233C74.725 40.7647 74.9219 40.9663 75.1646 40.9663C75.4073 40.9663 75.6042 40.7647 75.6042 40.5233V38.3488L76.9034 38.3487L76.9035 40.5233C76.9035 40.7647 77.1008 40.9663 77.3431 40.9663C77.5858 40.9663 77.7828 40.7647 77.7828 40.5233V38.2951V38.2961C78.8966 38.1694 79.7557 37.2632 79.9216 36.0797L81.8905 36.0796C82.1191 36.0796 82.3001 35.8713 82.3001 35.6153C82.3001 35.359 82.1191 35.151 81.8905 35.151H79.9918L79.9917 33.7786L81.8905 33.7784C82.1191 33.7784 82.3001 33.5704 82.3001 33.3141C82.3001 33.0578 82.1191 32.8498 81.8905 32.8498H79.9918L79.9917 31.4038L81.8905 31.4036C82.1191 31.4036 82.3103 31.1956 82.3103 30.9393C82.3103 30.683 82.1191 30.475 81.8905 30.475H79.911H79.9118C79.7353 29.3054 78.8874 28.4157 77.7829 28.2901L77.7828 26.2424C77.7828 26.001 77.5858 25.8096 77.3431 25.8096C77.1008 25.8096 76.9035 26.001 76.9035 26.2424V28.2373L75.6043 28.2374L75.6042 26.2424C75.6042 26.001 75.4073 25.8096 75.1646 25.8096C74.9219 25.8096 74.725 26.001 74.725 26.2424V28.2373L73.3557 28.2374L73.3556 26.2424C73.3556 26.001 73.1584 25.8096 72.916 25.8096C72.6733 25.8096 72.4764 26.001 72.4764 26.2424V28.3012V28.3004C71.4 28.4524 70.5706 29.3266 70.3976 30.4749L68.3686 30.475C68.1401 30.475 67.9591 30.683 67.9591 30.9393C67.9591 31.1957 68.1401 31.4036 68.3686 31.4036L70.3177 31.4038Z" fill="#000002"/>
<path fill-rule="evenodd" clip-rule="evenodd" d="M68.9787 7.07104C68.01 7.07104 67.2198 7.84316 67.2198 8.79159C67.2198 9.67348 67.9147 10.3733 68.7888 10.4699L69.7984 14.6706C69.9481 15.6687 69.7127 16.325 69.4984 16.8239C69.1898 17.3079 68.7964 17.5399 68.4191 17.6156C68.0215 17.5804 67.3893 17.5463 66.8699 16.8347L66.3102 15.8319C66.5386 15.5421 66.6892 15.1918 66.6902 14.7973C66.6902 13.8492 65.9102 13.0876 64.9411 13.0876C63.9724 13.0876 63.1822 13.8492 63.1822 14.7973C63.1822 15.7457 63.9712 16.5179 64.9411 16.5179C65.0448 16.5179 65.1333 16.4726 65.2309 16.4547L65.9904 17.8162C66.1519 18.4313 66.0231 18.9396 65.8305 19.3044C65.5654 19.4962 65.3259 19.7218 65.071 19.9272C64.6105 20.0498 63.8176 20.2309 63.0824 19.6421L59.8642 16.1696C59.9729 15.946 60.0442 15.6934 60.0442 15.4306C60.0442 14.4825 59.2552 13.7209 58.2853 13.7209C57.3162 13.7209 56.5362 14.4825 56.5362 15.4306C56.5362 16.379 57.3153 17.1512 58.2853 17.1512C58.5098 17.1512 58.725 17.0974 58.9249 17.0245L62.1028 20.4443C62.366 21.0769 62.3779 21.6825 62.3229 22.228C62.3216 22.2405 62.3139 22.2476 62.3126 22.2598C62.2912 22.9944 61.9359 23.3031 61.5831 23.4524C61.2304 23.5314 60.8562 23.5828 60.4539 23.5159L59.4046 22.8826C59.4091 22.8313 59.4356 22.7874 59.4343 22.7347C59.4343 21.7866 58.6553 21.0145 57.6856 21.0145C56.7166 21.0145 55.9267 21.7866 55.9267 22.7347C55.9267 23.6831 56.7156 24.4447 57.6856 24.4447C58.119 24.4447 58.4986 24.2776 58.8049 24.0225L59.8443 24.6558C60.0979 24.9706 60.1942 25.3371 60.2239 25.7009C60.1948 26.0275 60.1443 26.5463 59.9342 26.9779C59.4625 27.2887 58.8357 27.6697 58.0153 27.7274L53.7779 26.5875C53.6973 25.712 52.9639 25.0253 52.049 25.0253C51.0799 25.0253 50.2999 25.7867 50.2999 26.7351C50.2999 27.6835 51.079 28.4556 52.049 28.4556C52.5949 28.4556 53.0663 28.2054 53.388 27.8223L57.6655 28.9728C58.3678 29.3375 58.7934 29.9158 59.1046 30.3873C59.189 30.824 59.2747 31.5401 58.575 32.2659C58.3783 32.3831 58.2098 32.524 57.9754 32.6037L56.5663 32.5827C56.2999 31.9663 55.6715 31.5282 54.9471 31.5272C53.9784 31.5272 53.1881 32.2994 53.1881 33.2474C53.1881 34.1959 53.9771 34.968 54.9471 34.968C55.6855 34.968 56.3175 34.5144 56.5762 33.8807L57.7854 33.8916C58.3729 34.2398 58.7448 34.7238 59.0346 35.1686C59.1241 35.4794 59.1318 35.8401 59.0848 36.2137C58.7778 36.6551 58.3834 37.159 57.7553 37.5117L53.5179 38.5884C53.1961 38.2071 52.7343 37.9457 52.1887 37.9447C51.22 37.9447 50.4397 38.7168 50.4397 39.6649C50.4397 40.6133 51.2187 41.3854 52.1887 41.3854C53.0957 41.3854 53.815 40.6981 53.9077 39.8338L58.615 38.6307C59.079 38.7705 59.4276 39.0093 59.7442 39.2535C59.7938 39.3244 59.8101 39.4112 59.8341 39.496C59.8491 39.5902 59.8507 39.7328 59.8642 39.8446C59.8578 40.1806 59.7871 40.5225 59.6643 40.8579C59.7778 42.483 60.7695 43.412 61.346 43.412C61.9226 43.412 62.4961 43.7307 62.6926 44.3726C62.8605 44.9212 62.5851 45.3244 62.3628 45.8081L58.8449 49.3441C58.8219 49.367 58.8344 49.4028 58.8149 49.4285C58.6578 49.3833 58.496 49.3333 58.3252 49.3333C57.3562 49.3333 56.5762 50.1054 56.5762 51.0538C56.5762 52.0022 57.3552 52.7639 58.3252 52.7639C59.2939 52.7639 60.0842 52.0022 60.0842 51.0538C60.0842 50.7289 59.9646 50.4371 59.8044 50.1777L63.352 46.6102C63.5541 46.4981 63.7569 46.4309 63.9619 46.3674C64.3891 46.3015 64.8804 46.3451 65.331 46.6312C65.6511 47.1179 65.9335 47.7174 65.9706 48.4575L65.181 50.051C65.1222 50.0453 65.0707 50.0186 65.0112 50.0196C64.0422 50.0196 63.2522 50.7917 63.2522 51.7398C63.2522 52.6882 64.0412 53.4604 65.0112 53.4604C65.9799 53.4604 66.7602 52.6882 66.7602 51.7398C66.7602 51.2973 66.5802 50.9045 66.3003 50.5999L67.0298 49.133C68.0343 48.3281 68.9931 48.8935 69.3187 48.9219C69.3798 48.9475 69.4383 48.9776 69.4984 49.0063C69.8716 49.4305 70.038 49.8885 70.0581 50.2939L68.759 55.9409C67.868 56.0229 67.1606 56.7363 67.16 57.6297C67.16 58.5781 67.9499 59.3394 68.9189 59.3394C69.8876 59.3394 70.6677 58.5781 70.6677 57.6297C70.6677 57.0666 70.3747 56.5917 69.9481 56.2786L71.2174 50.7688C71.6405 50.2087 72.1458 50.0101 72.5766 49.9666C72.9728 50.0358 73.3816 50.0635 73.7858 50.104C74.2246 50.4979 74.4155 50.9606 74.4955 51.3494L74.5054 52.922C73.8223 53.1567 73.3262 53.766 73.3262 54.5159C73.3262 55.4643 74.1162 56.2364 75.0852 56.2364C76.0539 56.2364 76.8342 55.4643 76.8342 54.5159C76.8342 53.7978 76.3849 53.1996 75.7446 52.9432L75.7248 51.096C75.8284 50.7603 75.9947 50.5235 76.1745 50.3256C76.3328 50.2104 76.4898 50.127 76.6443 50.0723C76.9158 50.0409 77.1847 49.996 77.4537 49.9561C77.6296 49.9787 77.7719 49.9963 77.9136 50.0405C78.7176 50.4688 78.9587 51.2696 79.1228 51.4973L80.0621 56.3104C79.6879 56.6252 79.4317 57.0761 79.4327 57.5979C79.4327 58.5463 80.2226 59.3185 81.1916 59.3185C82.1603 59.3185 82.9404 58.5463 82.9404 57.5979C82.9404 56.6671 82.1866 55.9253 81.2415 55.8986L80.1922 50.484C80.2661 49.8602 80.5306 49.4768 80.7816 49.1961C81.0116 48.9688 81.2489 48.8222 81.4814 48.7422C81.521 48.724 81.561 48.7088 81.6013 48.6895C81.862 48.6213 82.1069 48.6206 82.3308 48.6473C82.546 48.7652 82.7705 48.8847 82.9205 49.0273L83.7501 50.4205C83.484 50.7215 83.2995 51.1004 83.3001 51.5287C83.3001 52.4771 84.0904 53.2493 85.0591 53.2493C86.0281 53.2493 86.8081 52.4771 86.8081 51.5287C86.8081 50.5803 86.0281 49.819 85.0591 49.819C84.9894 49.819 84.9264 49.8429 84.8592 49.8507L84.0597 48.4784C83.951 48.196 83.9164 47.9599 83.9298 47.7502C83.9305 47.738 83.9382 47.7306 83.9398 47.7184C84.4259 46.5795 85.4182 46.4397 85.8887 46.3252H85.8986C86.1836 46.3505 86.4384 46.4181 86.6383 46.5153L90.3561 50.2729C90.2496 50.4941 90.1761 50.7296 90.1761 50.9907C90.1761 51.9387 90.9663 52.7109 91.935 52.7109C92.904 52.7109 93.684 51.9391 93.684 50.9907C93.684 50.0422 92.904 49.2806 91.935 49.2806C91.7038 49.2806 91.4786 49.3275 91.2756 49.4072L87.6975 45.7868C87.2651 44.967 87.4762 44.2267 87.6377 43.7815C87.8191 43.5403 88.0052 43.3019 88.1772 43.0533C88.7801 42.7277 89.3839 42.8118 89.7363 42.8631L90.8058 43.6231C90.7856 43.7271 90.7348 43.8207 90.7357 43.9291C90.7357 44.8775 91.526 45.6497 92.4947 45.6497C93.4637 45.6497 94.2437 44.8775 94.2437 43.9291C94.2437 42.981 93.4637 42.2194 92.4947 42.2194C92.1195 42.2194 91.7905 42.3599 91.5055 42.5571L90.296 41.7023C89.8019 41.0463 89.8105 40.382 89.8962 39.9077C89.9618 39.7331 90.0392 39.5652 90.1063 39.3906C90.8054 38.7188 91.6158 38.811 91.9452 38.7783L96.3426 39.8973C96.3848 40.8085 97.129 41.5449 98.0715 41.5438C99.0402 41.5438 99.8305 40.7717 99.8305 39.8233C99.8305 38.8749 99.0402 38.1027 98.0715 38.1027C97.5598 38.1027 97.1131 38.3307 96.7923 38.6729L92.1749 37.5012C91.3814 37.0891 91.1636 36.4001 91.0757 35.8968C91.1275 35.4763 91.2097 35.0666 91.2455 34.6407C91.6651 34.1435 92.18 33.9703 92.5449 33.8916H93.7339C94.0224 34.4532 94.608 34.8528 95.293 34.8518C96.262 34.8518 97.042 34.08 97.042 33.1316C97.042 32.1832 96.262 31.411 95.293 31.411C94.52 31.411 93.8779 31.9136 93.6441 32.5932L92.4448 32.5827C91.9401 32.4662 91.6034 32.2044 91.3654 31.9072V31.8964C91.178 31.5272 91.1054 31.1908 91.1157 30.8831C91.1236 30.6443 91.2036 30.4707 91.2656 30.2816L91.2756 30.292C91.3648 29.7418 91.6043 29.4547 91.8352 29.2683C92.3588 28.9714 92.9015 28.9099 93.0045 28.7934L96.7424 27.8433C97.0638 28.2047 97.5237 28.4452 98.0514 28.4452C99.0204 28.4452 99.8004 27.6731 99.8004 26.7246C99.8004 25.7762 99.0204 25.0145 98.0514 25.0145C97.1246 25.0145 96.3765 25.7171 96.3126 26.6084L92.275 27.6322C91.1882 27.6258 90.509 27.1678 90.0862 26.7986C90.075 26.7709 90.0673 26.7412 90.0561 26.7141C89.7171 25.8833 89.942 25.2256 90.1761 24.7825L91.4655 24.0435C91.7508 24.2404 92.0792 24.3708 92.4547 24.3708C93.4237 24.3708 94.2137 23.6095 94.2137 22.661C94.2137 21.7126 93.4237 20.9405 92.4547 20.9405C91.486 20.9405 90.706 21.7126 90.706 22.661C90.706 22.7701 90.746 22.8637 90.7658 22.967L89.6765 23.6003C89.0308 23.7077 88.5322 23.5139 88.1875 23.2521C88.0666 23.0971 87.9537 22.9353 87.8376 22.7769C87.3042 21.5765 88.0077 20.7152 88.1273 20.3703L91.3456 17.1089C91.5762 17.2184 91.8314 17.2883 92.1051 17.2883C93.0738 17.2883 93.8539 16.527 93.8539 15.5785C93.8539 14.6301 93.0738 13.858 92.1051 13.858C91.1361 13.858 90.3462 14.6301 90.3462 15.5785C90.3462 15.7967 90.399 15.9964 90.476 16.1906L87.0681 19.6317C86.2187 20.2812 85.4573 19.988 84.9894 19.7901C84.9686 19.7735 84.95 19.7529 84.9293 19.737C84.2567 19.1159 84.2167 18.4042 84.2698 17.8794L84.9894 16.5179C85.0607 16.5266 85.1263 16.5611 85.1992 16.5601C86.1679 16.5601 86.9482 15.788 86.9482 14.8395C86.9482 13.8914 86.1679 13.1193 85.1992 13.1193C84.2301 13.1193 83.4402 13.8914 83.4402 14.8395C83.4402 15.2685 83.6155 15.6471 83.88 15.9481L83.5103 16.6445C83.3868 16.8661 83.241 17.0258 83.0903 17.1616C82.9938 17.2832 82.8796 17.3133 82.7705 17.3835C82.5524 17.5082 82.3714 17.5625 82.1709 17.6051C81.7606 17.6169 81.4993 17.5169 81.3615 17.4467C80.7762 17.0535 80.5846 16.5493 80.4919 16.1061C80.4327 15.6302 80.426 15.3306 80.4321 14.9662L81.5214 10.4595C82.3826 10.35 83.0616 9.66436 83.0603 8.79159C83.0603 7.84316 82.2704 7.07104 81.3013 7.07104C80.3326 7.07104 79.5526 7.84316 79.5526 8.79159C79.5526 9.36815 79.8568 9.85453 80.3019 10.1639L79.1426 14.9452C78.8548 15.7197 78.3351 16.0072 77.9734 16.2014C77.7709 16.2595 77.5615 16.3493 77.3837 16.3385C77.3635 16.3355 77.3443 16.3311 77.3239 16.328C77.1876 16.3145 77.084 16.2514 76.9641 16.2118C76.5675 16.0143 76.0785 15.688 75.8447 14.9452V13.4571C76.4447 13.1842 76.8653 12.5948 76.864 11.9054C76.864 10.957 76.084 10.1849 75.1152 10.1849C74.1462 10.1849 73.3563 10.957 73.3563 11.9054C73.3563 12.6785 73.8878 13.3041 74.6055 13.5202V14.7764C74.4577 15.5181 74.0538 15.8707 73.6659 16.1061C73.5245 16.1983 73.3787 16.2878 73.2364 16.3068C73.1961 16.3128 73.1564 16.3216 73.1164 16.328C72.9098 16.3307 72.7157 16.2818 72.5366 16.2118H72.5267C72.1468 15.9244 71.4403 15.4711 70.9977 14.3437L69.9881 10.1531C70.4259 9.84102 70.7278 9.36241 70.7278 8.79159C70.7278 7.84316 69.9478 7.07104 68.9787 7.07104ZM75.0551 21.8693C75.6672 21.7775 76.0983 22.4212 76.1745 22.5344C76.4959 22.9478 76.9641 23.3051 77.5637 23.5159C78.3057 23.7783 79.0176 23.7348 79.5724 23.4946C79.6418 23.4781 79.6917 23.4906 79.7723 23.4524C80.7695 22.9677 80.9918 24.003 81.0516 24.3812C81.1187 24.949 81.3605 25.5533 81.821 26.0913C82.4926 26.8756 83.3564 27.2502 84.0597 27.1468C85.3415 27.3005 84.9254 28.3766 84.8794 28.4874C84.6801 28.9501 84.5455 29.4774 84.5995 30.0918C84.6536 30.722 84.8678 31.2604 85.1493 31.6853C85.1605 31.7069 85.1662 31.7275 85.179 31.7488C85.2753 31.8859 85.3872 31.9829 85.4988 32.0866C85.5558 32.1389 85.5817 32.1943 85.6488 32.245C86.9875 33.2086 85.629 34.2715 85.629 34.2715C85.2746 34.5873 84.958 34.9906 84.7495 35.5381C84.565 36.0215 84.5225 36.4879 84.5394 36.9314C84.5301 37.0584 84.5247 37.1867 84.5496 37.3323C84.5576 37.3786 84.5794 37.4144 84.5896 37.459C84.6254 37.6123 84.6513 37.7576 84.7294 37.9234C85.5497 39.6402 83.7799 39.7389 83.7799 39.7389V39.7493C83.225 39.7905 82.6221 40.0287 82.081 40.5093C81.6464 40.8953 81.3557 41.3577 81.1814 41.8181C81.0736 42.0252 80.9898 42.2734 80.9918 42.5993C81.0001 44.2348 79.4225 43.2958 79.4225 43.2958C78.9648 43.1317 78.4259 43.0729 77.8535 43.1692C77.0846 43.3009 76.4872 43.6805 76.1044 44.1615C76.0034 44.2608 75.9026 44.3516 75.8147 44.4992C74.9912 45.8844 74.1258 44.1932 74.1258 44.1932H74.1158C73.7554 43.7204 73.1974 43.3262 72.4666 43.1587C71.771 42.9989 71.1272 43.0867 70.6178 43.3276C70.54 43.3596 70.4691 43.3644 70.3878 43.412C69.4978 43.9423 69.3363 43.4458 69.2985 42.9793C69.3606 42.32 69.1498 41.5317 68.649 40.8366C68.1651 40.1638 67.5322 39.7649 66.93 39.6335H66.9201C66.7068 39.5879 66.497 39.5575 66.3003 39.5913C64.7598 39.7571 65.4909 37.9974 65.4909 37.9974C65.8382 37.4053 65.9412 36.5338 65.6706 35.6226C65.4768 34.969 65.1365 34.4553 64.7413 34.1027C64.7083 34.0729 64.6997 34.0489 64.6613 34.0182C63.5078 33.1262 64.4873 32.1582 64.6514 32.0021C65.1922 31.6248 65.6374 30.922 65.7806 30.0073C65.8884 29.3247 65.7544 28.7356 65.5408 28.2233C65.5322 28.1696 65.5443 28.1256 65.521 28.0652C65.188 27.186 66.0918 26.9563 66.2805 26.9144C66.8981 26.9293 67.6068 26.6594 68.2192 26.0808C68.5217 25.7934 68.7597 25.4705 68.9288 25.1412C69.1476 24.7119 69.2013 24.2887 69.1786 23.8854C69.2119 23.804 69.2483 23.7446 69.2685 23.6213C69.4338 22.636 70.518 22.988 70.518 22.988C70.9561 23.2626 71.4749 23.4592 72.1068 23.4419C73.0285 23.4169 73.7884 23.0153 74.2156 22.4604C74.2623 22.4141 74.309 22.404 74.3557 22.3442C74.5965 22.0365 74.8332 21.9024 75.0551 21.8693Z" fill="white"/>
</g>
<defs>
<clipPath id="clip0_333_184">
<rect width="160" height="68" fill="white"/>
</clipPath>
</defs>
</svg>
