<svg width="45" height="30" viewBox="0 0 45 30" fill="none" xmlns="http://www.w3.org/2000/svg">
<path d="M28.6947 14.6939C28.6947 22.3016 22.5269 28.4694 14.9192 28.4694C7.31082 28.4694 1.14368 22.3016 1.14368 14.6939C1.14368 7.08612 7.31021 0.918365 14.9192 0.918365C22.5269 0.918365 28.6947 7.08612 28.6947 14.6939V14.6939Z" fill="#68DBFF"/>
<path d="M43.5502 14.6939C43.5502 22.3016 37.4431 28.4694 29.9094 28.4694C22.3763 28.4694 16.2698 22.3016 16.2698 14.6939C16.2698 7.08612 22.3757 0.918365 29.9094 0.918365C37.4425 0.918365 43.5502 7.08612 43.5502 14.6939Z" fill="#FF7917"/>
<path d="M22.451 26.2298C26.2102 23.7698 28.6947 19.522 28.6947 14.6939C28.6947 9.86571 26.2108 5.61796 22.451 3.15857C20.5463 4.4194 18.9844 6.13337 17.9055 8.14668C16.8265 10.16 16.2643 12.4097 16.2692 14.6939C16.2642 16.9782 16.8264 19.228 17.9053 21.2414C18.9843 23.2548 20.5462 24.9689 22.451 26.2298V26.2298Z" fill="#5D2C02"/>
</svg>
