<svg width="82" height="50" viewBox="0 0 82 50" fill="none" xmlns="http://www.w3.org/2000/svg">
<g clip-path="url(#clip0_333_142)">
<rect width="82" height="50" fill="white"/>
<path d="M54.2501 0.955839C53.7293 0.407411 53.0107 0.0680941 52.2175 0.0398597L68.3535 0.0339355C69.1633 0.0510779 69.8971 0.399725 70.4271 0.957858L70.4382 0.949915L70.7779 1.40268L81.1492 15.2077L81.1418 15.2156C81.5439 15.7619 81.7914 16.4335 81.792 17.1727C81.7927 18.0653 81.4422 18.8742 80.8803 19.4659L80.8841 19.5013L70.9625 33.1622C70.946 33.1739 70.9167 33.186 70.8991 33.1978C70.3589 34.028 69.4715 34.5737 68.4619 34.5746C68.4045 34.5746 68.3508 34.5617 68.2941 34.5589C68.275 34.5736 68.2539 34.5865 68.2271 34.5865L52.4901 34.6C52.4541 34.6 52.4288 34.5812 52.408 34.5567C53.3649 34.5124 54.2047 33.9911 54.7223 33.1957C54.7398 33.1841 54.7691 33.1719 54.7857 33.1603L58.8004 27.6345L67.3232 27.6271L74.9171 17.1431L67.3298 6.97128L58.792 6.97859L54.601 1.40066L54.2614 0.948026L54.2501 0.955839Z" fill="#000002"/>
<path fill-rule="evenodd" clip-rule="evenodd" d="M70.4271 0.957858C69.8971 0.399725 69.1633 0.0510779 68.3535 0.0339355L52.2175 0.0398597C52.608 0.0537607 52.9805 0.143069 53.3201 0.295614C53.6704 0.452904 53.9857 0.677426 54.2501 0.955839L54.2614 0.948026L58.792 6.97859L67.3298 6.97128L74.9171 17.1431L67.3232 27.6271L58.8004 27.6345L54.7857 33.1603C54.777 33.1664 54.7649 33.1726 54.7528 33.1788C54.7417 33.1845 54.7307 33.1902 54.7223 33.1957C54.3861 33.7124 53.9139 34.1134 53.3621 34.3431C53.0887 34.4569 52.7958 34.5287 52.4901 34.5517C52.4901 34.5517 52.4901 34.5517 52.4901 34.5517C52.4629 34.5537 52.4355 34.5554 52.408 34.5567C52.4288 34.5812 52.4541 34.6 52.4901 34.6L68.2271 34.5865C68.2539 34.5865 68.275 34.5736 68.2941 34.5589C68.3191 34.5602 68.3434 34.5633 68.3678 34.5665C68.3988 34.5705 68.4298 34.5746 68.4619 34.5746C69.4715 34.5737 70.3589 34.028 70.8991 33.1978C70.9075 33.1922 70.9186 33.1865 70.9296 33.1808C70.9418 33.1746 70.9539 33.1683 70.9625 33.1622L80.8841 19.5013L80.8803 19.4659C81.4422 18.8742 81.7927 18.0653 81.792 17.1727C81.7914 16.4335 81.5439 15.7619 81.1418 15.2156L81.1492 15.2077L70.4382 0.949915L70.4271 0.957858ZM70.2761 1.16741C70.2613 1.15723 70.2474 1.14542 70.2346 1.13199C69.7504 0.622013 69.0837 0.306385 68.3506 0.290095L53.8571 0.295417C54.047 0.418336 54.2235 0.561139 54.3839 0.721425C54.418 0.738995 54.4487 0.764224 54.4731 0.796659L58.9249 6.72232L67.3296 6.71512C67.4136 6.71505 67.4925 6.75422 67.542 6.8205L75.1293 16.9923C75.1955 17.0811 75.1964 17.2013 75.1314 17.291L67.5375 27.775C67.4884 27.8429 67.4086 27.8832 67.3235 27.8833L58.9361 27.8905L54.9997 33.3085C54.9829 33.3317 54.9622 33.352 54.9385 33.3686C54.9268 33.3768 54.9156 33.3835 54.9071 33.3883C54.645 33.7747 54.3097 34.1004 53.9221 34.3426L68.1756 34.3304C68.216 34.3104 68.2614 34.3009 68.3073 34.3031C68.344 34.3049 68.3799 34.3096 68.4033 34.3127C68.4065 34.3131 68.4094 34.3135 68.4121 34.3138C68.4389 34.3173 68.4518 34.3184 68.4618 34.3184C69.3692 34.3176 70.1784 33.8275 70.6776 33.0604C70.6967 33.0312 70.7216 33.006 70.7509 32.9864C70.7628 32.9784 70.774 32.972 70.7823 32.9674L80.6223 19.4188C80.6313 19.3718 80.6538 19.3276 80.6878 19.2917C81.2059 18.7462 81.5302 17.9991 81.5296 17.1729C81.529 16.4907 81.3009 15.8708 80.9287 15.3651C80.9141 15.3453 80.9029 15.3241 80.8948 15.3022L70.5663 1.55415L70.5661 1.55401L70.2761 1.16741ZM70.8184 32.9484C70.8183 32.9484 70.8183 32.9485 70.8182 32.9485C70.8187 32.9482 70.8188 32.9482 70.8184 32.9484ZM68.1322 34.3574C68.1301 34.359 68.1305 34.3585 68.1331 34.3567C68.1328 34.3569 68.1325 34.3572 68.1322 34.3574Z" fill="#FFFEFF"/>
<path fill-rule="evenodd" clip-rule="evenodd" d="M52.1155 0.0339355C50.4592 0.0339355 49.1169 1.43166 49.1169 3.15358C49.1169 3.89751 49.3773 4.57135 49.7957 5.1073C49.7933 5.13768 49.8028 5.16869 49.8218 5.1939L58.7318 17.1526L49.6315 29.6903L49.6241 29.7099C49.6219 29.7143 49.6017 29.7506 49.5943 29.7651C49.2823 30.2553 49.0945 30.8356 49.0945 31.4629C49.0945 33.1954 50.4783 34.5983 52.1826 34.5983C53.241 34.5983 54.1632 34.0491 54.7187 33.2235L54.73 33.2314L64.4791 19.8193L64.6992 19.5159L64.8708 19.2796L64.841 19.2994C65.3126 18.7279 65.6092 17.9959 65.6092 17.1881C65.6092 16.4488 65.3622 15.7771 64.9603 15.2303L64.9677 15.2225L58.7915 6.99006L54.6031 1.4086L54.2638 0.955588L54.2526 0.963528C53.732 0.414596 53.0134 0.0746516 52.22 0.045787C52.1845 0.0444005 52.1512 0.0339355 52.1155 0.0339355Z" fill="#000002"/>
<path fill-rule="evenodd" clip-rule="evenodd" d="M50.0556 5.0722L58.9441 17.0019C59.0103 17.0908 59.011 17.211 58.946 17.3006L49.8649 29.8119C49.863 29.8162 49.8609 29.8205 49.8587 29.8248C49.8569 29.8283 49.8549 29.8319 49.8544 29.8329L49.8511 29.8391L49.8427 29.8543C49.836 29.8666 49.8309 29.876 49.8292 29.8794C49.8255 29.8865 49.8216 29.8935 49.8172 29.9003C49.5294 30.3526 49.3569 30.8864 49.3569 31.4629C49.3569 33.0634 50.6328 34.3421 52.1826 34.3421C53.1436 34.3421 53.9872 33.844 54.4994 33.0828C54.517 33.0566 54.5392 33.0341 54.5647 33.0161L64.2649 19.6713L64.2651 19.6711L64.485 19.3679L64.4851 19.3678L64.5906 19.2225C64.6002 19.1927 64.6155 19.1642 64.6366 19.1387C65.0734 18.6094 65.3468 17.9334 65.3468 17.1881C65.3468 16.5059 65.1191 15.8859 64.7471 15.3797C64.7326 15.36 64.7214 15.3389 64.7133 15.317L58.5798 7.14143L54.1016 1.17312C54.0868 1.16291 54.0728 1.15104 54.06 1.13754C53.5848 0.636526 52.9312 0.327997 52.2102 0.301768L52.2095 0.301741C52.1753 0.300404 52.1432 0.295074 52.1286 0.292665C52.1272 0.292426 52.1259 0.292217 52.1249 0.292042C52.1176 0.29087 52.1137 0.290327 52.112 0.290097C50.6178 0.292104 49.3794 1.5587 49.3794 3.15358C49.3794 3.83782 49.6186 4.45778 50.0044 4.95207C50.032 4.98739 50.0495 5.02882 50.0556 5.0722ZM54.2638 0.955588L64.9677 15.2225L64.9603 15.2303C65.3622 15.7771 65.6092 16.4488 65.6092 17.1881C65.6092 17.8901 65.3852 18.5349 65.017 19.0668C64.9686 19.1367 64.9177 19.2047 64.8645 19.2705C64.8637 19.2715 64.8629 19.2725 64.8621 19.2735C64.8551 19.2822 64.8481 19.2908 64.841 19.2994L64.8708 19.2796L64.6992 19.5159L54.7303 33.2309L54.73 33.2314L54.7187 33.2235C54.7187 33.2235 54.7187 33.2235 54.7187 33.2235C54.7187 33.2235 54.7187 33.2236 54.7187 33.2236C54.6705 33.2951 54.6196 33.3646 54.5661 33.4318C54.0022 34.1402 53.1492 34.5983 52.1826 34.5983C50.4783 34.5983 49.0945 33.1954 49.0945 31.4629C49.0945 30.8356 49.2823 30.2553 49.5943 29.7651C49.5992 29.7556 49.6095 29.7367 49.6167 29.7236C49.6205 29.7167 49.6234 29.7114 49.6241 29.7099L49.6315 29.6903L58.7318 17.1526L49.8218 5.1939C49.8028 5.16869 49.7933 5.13768 49.7957 5.1073C49.3773 4.57135 49.1169 3.89751 49.1169 3.15358C49.1169 1.43166 50.4592 0.0339355 52.1155 0.0339355C52.1346 0.0339355 52.153 0.0369325 52.1715 0.0399312C52.1875 0.0425361 52.2035 0.0451425 52.22 0.045787C53.0134 0.0746516 53.732 0.414596 54.2526 0.963528L54.2638 0.955588Z" fill="#FFFEFF"/>
<path fill-rule="evenodd" clip-rule="evenodd" d="M44.4531 0C44.3368 0 44.2266 0.0220597 44.1137 0.0355467H30.9593C30.9329 0.0355467 30.9286 0.0686938 30.9109 0.0867184C30.0205 0.178858 29.2407 0.671703 28.7514 1.42206C28.7338 1.43365 28.7045 1.44588 28.688 1.45747L18.7523 15.1098C18.752 15.1103 18.7564 15.1441 18.756 15.1454C18.1935 15.7365 17.8423 16.5452 17.8423 17.4378C17.8423 18.177 18.0895 18.8487 18.4913 19.3954C18.4913 19.3956 18.4837 19.4031 18.4838 19.4033L28.8484 33.2173L29.1878 33.6701C29.1888 33.6714 29.1976 33.6616 29.1989 33.6623C29.6409 34.1282 30.2259 34.44 30.8773 34.5447L44.7329 34.525C45.6851 34.4777 46.5215 33.9616 47.0377 33.17C47.0553 33.1583 47.0846 33.1462 47.1011 33.1344L56.9399 19.6121L57.0368 19.4821C57.0368 19.4821 57.0369 19.479 57.0368 19.4782L57.2718 19.1591L57.2644 19.1551C57.6844 18.6003 57.9468 17.9113 57.9468 17.1542C57.9468 16.415 57.6997 15.7432 57.2979 15.1965C57.2978 15.1963 57.3055 15.1888 57.3053 15.1886L46.9408 1.37479L46.6014 0.921776C46.6004 0.920515 46.5916 0.930348 46.5902 0.929592C46.0463 0.356207 45.2889 0 44.4531 0ZM32.3281 6.99167H43.5245L51.0694 17.1187L43.4424 27.6279H32.2871L28.8596 23.0272L27.8638 21.6918L24.7197 17.4732L32.3281 6.99167Z" fill="#FF5733"/>
<path fill-rule="evenodd" clip-rule="evenodd" d="M44.1456 0.289809C44.135 0.291072 44.1243 0.291706 44.1137 0.291706H31.0682C31.0306 0.319243 30.9858 0.336555 30.9385 0.34145C30.1325 0.424868 29.4218 0.871005 28.9728 1.55961C28.9535 1.58915 28.9282 1.61452 28.8985 1.63416C28.887 1.64178 28.8761 1.64804 28.868 1.65253L19.0139 15.1926C19.0128 15.1984 19.0112 15.2057 19.0089 15.2138C18.9977 15.2533 18.9769 15.2896 18.9483 15.3197C18.4297 15.8647 18.1047 16.6116 18.1047 17.4378C18.1047 18.1199 18.3325 18.74 18.7045 19.2461C18.7189 19.2656 18.7302 19.2868 18.7384 19.3092L29.0601 33.0659L29.0602 33.066L29.3503 33.4531C29.3652 33.4634 29.379 33.4752 29.3915 33.4883C29.7896 33.908 30.3144 34.19 30.8991 34.2885L44.7259 34.2688C45.5827 34.2242 46.3425 33.759 46.8163 33.0324C46.8353 33.0033 46.8602 32.9781 46.8895 32.9586C46.9014 32.9506 46.9127 32.9441 46.921 32.9395L56.7259 19.4637L56.7277 19.4613L56.8059 19.3565C56.8111 19.3469 56.8171 19.3376 56.8237 19.3287L57.0197 19.0625C57.0281 19.0414 57.0393 19.0214 57.0533 19.0029C57.4426 18.4886 57.6844 17.8522 57.6844 17.1542C57.6844 16.4721 57.4567 15.8519 57.0847 15.3459C57.075 15.3327 57.0666 15.3187 57.0597 15.304C57.0563 15.2969 57.0534 15.2899 57.0509 15.283L46.7291 1.52614L46.729 1.526L46.439 1.13899C46.424 1.12867 46.4101 1.11682 46.3976 1.10362C45.8994 0.578381 45.2101 0.256159 44.4531 0.256159C44.3891 0.256159 44.3357 0.263779 44.2649 0.273865C44.2303 0.278791 44.1916 0.284306 44.1456 0.289809ZM57.3053 15.1886C57.3055 15.1888 57.2978 15.1963 57.2979 15.1965C57.6997 15.7432 57.9468 16.415 57.9468 17.1542C57.9468 17.8176 57.7453 18.4287 57.4129 18.9431C57.3774 18.998 57.3404 19.0518 57.302 19.1045C57.2898 19.1212 57.2775 19.1378 57.265 19.1543C57.2648 19.1546 57.2646 19.1549 57.2644 19.1551L57.2718 19.1591L57.0368 19.4782C57.0369 19.479 57.0368 19.4821 57.0368 19.4821L56.9399 19.6121L47.1011 33.1344C47.0925 33.1406 47.0803 33.1468 47.0682 33.153C47.0571 33.1587 47.0461 33.1644 47.0377 33.17C46.5215 33.9616 45.6851 34.4777 44.7329 34.525L30.8773 34.5447C30.2259 34.44 29.6409 34.1282 29.1989 33.6623C29.1989 33.6623 29.1989 33.6623 29.1988 33.6623C29.1988 33.6623 29.1988 33.6623 29.1987 33.6623C29.198 33.6623 29.1963 33.6638 29.1944 33.6654C29.1943 33.6655 29.1942 33.6656 29.1941 33.6657C29.1939 33.6659 29.1937 33.6661 29.1934 33.6663C29.1909 33.6685 29.1883 33.6708 29.1878 33.6701L18.4838 19.4033C18.4837 19.4032 18.486 19.4009 18.488 19.3988C18.4897 19.3971 18.4913 19.3955 18.4913 19.3954C18.0895 18.8487 17.8423 18.177 17.8423 17.4378C17.8423 16.5452 18.1935 15.7365 18.756 15.1454C18.7562 15.1447 18.7551 15.1351 18.754 15.1261C18.7531 15.1178 18.7521 15.1101 18.7523 15.1098L28.688 1.45747C28.6966 1.4514 28.7088 1.44514 28.721 1.4389C28.732 1.43324 28.743 1.42758 28.7514 1.42206C29.2407 0.671703 30.0205 0.178858 30.9109 0.0867184C30.9171 0.0803964 30.9217 0.072214 30.9261 0.0642539C30.9344 0.0495193 30.9422 0.0355467 30.9593 0.0355467H44.1137C44.1454 0.0317579 44.1769 0.0272926 44.2084 0.0228298C44.289 0.0114065 44.3694 0 44.4531 0C45.2889 0 46.0463 0.356207 46.5902 0.929592C46.5902 0.929623 46.5903 0.929636 46.5904 0.929633C46.5904 0.929631 46.5905 0.929625 46.5905 0.929613C46.5913 0.929435 46.5929 0.928133 46.5946 0.926632C46.5948 0.926536 46.5949 0.926439 46.595 0.926341C46.5953 0.926084 46.5956 0.925824 46.5959 0.925564C46.5984 0.923334 46.6009 0.921139 46.6014 0.921776L57.3053 15.1886ZM28.8319 1.67149C28.8318 1.6715 28.8319 1.67148 28.8319 1.67149C28.8313 1.67178 28.8313 1.6718 28.8319 1.67149ZM46.957 32.9206C46.9569 32.9207 46.9569 32.9207 46.9568 32.9207C46.9573 32.9204 46.9574 32.9204 46.957 32.9206ZM57.0904 15.3357C57.0914 15.3371 57.0924 15.3384 57.0934 15.3398C57.0989 15.347 57.1049 15.3543 57.1116 15.3614C57.1052 15.3546 57.0992 15.3474 57.0936 15.3399L57.0934 15.3398L57.0904 15.3357ZM32.114 6.84358C32.1632 6.77579 32.243 6.73551 32.3281 6.73551H43.5245C43.6084 6.73551 43.6873 6.77473 43.7367 6.84101L51.2816 16.9681C51.3478 17.057 51.3486 17.1771 51.2835 17.2668L43.6565 27.7759C43.6073 27.8437 43.5275 27.884 43.4424 27.884H32.2871C32.2031 27.884 32.1242 27.8448 32.0748 27.7785L28.6474 23.1779L28.6474 23.1778L27.6516 21.8426L24.5075 17.6239C24.4412 17.535 24.4405 17.4148 24.5056 17.3251L32.114 6.84358ZM32.2871 27.6279H43.4424L51.0694 17.1187L43.5245 6.99167H32.3281L24.7197 17.4732L32.2871 27.6279Z" fill="#FFFEFF"/>
<path d="M43.7797 3.5979H31.2067L21.5524 16.6723L30.6454 30.4665H45.5758L54.8933 16.6723L43.7797 3.5979Z" fill="#FF5733"/>
<path opacity="0.98982" d="M23.3112 0.0654472C23.3906 0.0585146 23.465 0.0339355 23.5462 0.0339355C23.5667 0.0339355 23.5853 0.0413738 23.6059 0.0417519C23.8168 0.0417519 24.0222 0.0634319 24.2212 0.104775H24.2249C24.2315 0.106162 24.237 0.111328 24.2435 0.112715C25.2164 0.318548 26.0256 0.947648 26.3918 1.86943C26.5735 2.2705 26.6791 2.71406 26.6791 3.1851C26.6791 3.48748 26.6264 3.77487 26.5485 4.05167C26.5351 4.09919 26.523 4.14696 26.5075 4.19347C26.4486 4.37018 26.3745 4.53669 26.2874 4.69765C26.2322 4.80719 26.1756 4.92214 26.1756 4.92214L17.0753 17.4599L25.9853 29.4185C26.0042 29.4437 26.0138 29.4749 26.0114 29.5051C26.4298 30.0411 26.6902 30.7149 26.6902 31.4588C26.6902 33.1037 25.4613 34.4374 23.9079 34.5549C23.904 34.5564 23.8972 34.5574 23.893 34.5588C23.8252 34.5636 23.7605 34.5785 23.6916 34.5785C22.8559 34.5785 22.0984 34.2224 21.5545 33.6489L21.5433 33.6568L21.204 33.2038L17.5228 28.2959L15.2254 25.2393L10.8394 19.3899L10.8468 19.3821C10.445 18.8353 10.1979 18.1636 10.1979 17.4244C10.1979 16.7201 10.4222 16.0718 10.7909 15.5376L10.7871 15.5337L11.1079 15.0965L11.1451 15.0453L17.4706 6.35592L21.0436 1.44402C21.0455 1.44276 21.0489 1.4415 21.051 1.44011C21.3031 1.05504 21.6391 0.738158 22.0282 0.49867C22.0594 0.479511 22.0933 0.465645 22.1251 0.447495C22.2686 0.366321 22.4165 0.296112 22.5727 0.238761C22.6325 0.216829 22.6941 0.197797 22.7555 0.179646C22.9151 0.132505 23.0786 0.0975921 23.2478 0.0772986C23.2695 0.0747777 23.2892 0.0673379 23.3112 0.0654472Z" fill="#000002"/>
<path opacity="0.98982" fill-rule="evenodd" clip-rule="evenodd" d="M23.319 0.150494L23.3189 0.150503C23.315 0.150836 23.3103 0.151736 23.2997 0.154204L23.2973 0.154748C23.2882 0.156891 23.2738 0.160258 23.2584 0.162065C23.0945 0.181721 22.936 0.215552 22.7809 0.261371C22.7199 0.279364 22.6605 0.297757 22.6035 0.31869C22.4524 0.374159 22.3089 0.442202 22.1692 0.521248C22.1527 0.530631 22.1358 0.539012 22.1216 0.546084C22.1197 0.547008 22.1179 0.547909 22.1161 0.548787C22.0998 0.556884 22.0867 0.5636 22.0749 0.570895C21.696 0.80408 21.3694 1.11221 21.1247 1.48608C21.1193 1.49431 21.1126 1.50155 21.1047 1.50752L17.5419 6.40535L11.2165 15.0948L11.1792 15.1459L11.179 15.1462L10.8753 15.5602C10.8728 15.5689 10.8689 15.5775 10.8635 15.5854C10.5039 16.1063 10.2854 16.7381 10.2854 17.4244C10.2854 18.1445 10.5261 18.799 10.9179 19.3323C10.9265 19.344 10.9317 19.3573 10.9335 19.3708L15.2959 25.1888L15.296 25.1889L17.5934 28.2454L21.2746 33.1534L21.5861 33.5692C21.5982 33.5738 21.6094 33.581 21.6187 33.5909C22.1474 34.1483 22.8821 34.4931 23.6916 34.4931C23.72 34.4931 23.7486 34.49 23.7812 34.4858C23.7869 34.4851 23.7928 34.4843 23.7988 34.4835C23.8234 34.4802 23.8507 34.4765 23.8783 34.4743C23.8794 34.474 23.8802 34.4739 23.8807 34.4737L23.8808 34.4737C23.8874 34.4716 23.8943 34.4703 23.9012 34.4698C25.4054 34.356 26.6027 33.0627 26.6027 31.4588C26.6027 30.7348 26.3493 30.0789 25.9419 29.5569C25.9289 29.5402 25.9226 29.5194 25.9242 29.4985C25.9249 29.49 25.9221 29.4788 25.9147 29.4689L25.9146 29.4687L17.0045 17.5101C16.9825 17.4804 16.9822 17.4404 17.0039 17.4105L26.0999 4.87863L26.1065 4.86535C26.1127 4.85283 26.1215 4.835 26.1321 4.81374C26.1532 4.77123 26.1812 4.71496 26.2089 4.66C26.2092 4.65925 26.2096 4.65851 26.21 4.65777C26.2951 4.50068 26.3671 4.33867 26.4243 4.16708C26.435 4.13478 26.4439 4.10253 26.4534 4.06781C26.4569 4.05526 26.4604 4.04239 26.4642 4.02906C26.5407 3.7573 26.5916 3.47775 26.5916 3.1851C26.5916 2.7267 26.4888 2.29486 26.3118 1.90395C26.3112 1.90274 26.3107 1.90152 26.3102 1.90029C25.9555 1.00724 25.1713 0.39639 24.225 0.196169M26.1756 4.92214L17.0753 17.4599L25.9853 29.4185C26.0042 29.4437 26.0138 29.4749 26.0114 29.5051C26.4298 30.0411 26.6902 30.7149 26.6902 31.4588C26.6902 33.1037 25.4613 34.4374 23.9079 34.5549C23.9058 34.5557 23.9028 34.5564 23.8999 34.5571C23.8974 34.5576 23.8949 34.5582 23.893 34.5588C23.8656 34.5607 23.8387 34.5643 23.8118 34.5679C23.7722 34.5732 23.7326 34.5785 23.6916 34.5785C22.8559 34.5785 22.0984 34.2224 21.5545 33.6489L21.5433 33.6568L15.2254 25.2393L10.8394 19.3899L10.8468 19.3821C10.445 18.8353 10.1979 18.1636 10.1979 17.4244C10.1979 16.7201 10.4222 16.0718 10.7909 15.5376L10.7871 15.5337L11.1079 15.0965L21.0436 1.44402C21.0445 1.44339 21.0458 1.44277 21.0472 1.44213C21.0485 1.44148 21.0499 1.44081 21.051 1.44011C21.3031 1.05504 21.6391 0.738158 22.0282 0.49867C22.0456 0.487998 22.0638 0.478968 22.082 0.469925C22.0965 0.462734 22.111 0.455535 22.1251 0.447495C22.2686 0.366321 22.4165 0.296112 22.5727 0.238761C22.6325 0.216829 22.6941 0.197809 22.7555 0.179659C22.9151 0.132517 23.0786 0.0975921 23.2478 0.0772986C23.258 0.0761136 23.2678 0.0738416 23.2776 0.07157C23.2886 0.0690093 23.2996 0.0664491 23.3112 0.0654472C23.3444 0.0625484 23.3767 0.0565642 23.409 0.0505818C23.454 0.042257 23.499 0.0339355 23.5462 0.0339355C23.5567 0.0339355 23.5667 0.0358886 23.5768 0.037844C23.5863 0.0397047 23.5959 0.0415675 23.6059 0.0417519C23.8168 0.0417519 24.0222 0.0634319 24.2212 0.104775H24.2249C24.2282 0.105468 24.2312 0.107107 24.2342 0.108745C24.2373 0.110383 24.2403 0.112021 24.2435 0.112715C25.2164 0.318548 26.0256 0.947648 26.3918 1.86943C26.5735 2.2705 26.6791 2.71406 26.6791 3.1851C26.6791 3.48748 26.6264 3.77487 26.5485 4.05167C26.5451 4.0638 26.5418 4.07596 26.5384 4.0881C26.5287 4.12351 26.519 4.15884 26.5075 4.19347C26.4486 4.37018 26.3745 4.53669 26.2874 4.69765C26.2322 4.80719 26.1756 4.92214 26.1756 4.92214ZM24.2002 0.187699C24.0079 0.147972 23.8096 0.127138 23.6059 0.127138L23.6042 0.127123C23.5861 0.126789 23.5695 0.123529 23.5607 0.12179L23.5589 0.121436C23.5538 0.12045 23.5511 0.119937 23.5487 0.119601C23.5469 0.11934 23.5461 0.119322 23.5461 0.119321C23.5141 0.119321 23.482 0.124162 23.444 0.131043C23.4383 0.132069 23.4325 0.133159 23.4264 0.13428C23.3942 0.140267 23.3569 0.147184 23.319 0.150494M24.2002 0.187699C24.2007 0.187957 24.2013 0.188217 24.2018 0.188474C24.207 0.190842 24.215 0.194049 24.225 0.196169" fill="#000002"/>
<path fill-rule="evenodd" clip-rule="evenodd" d="M3.3119 0.0463867C3.26559 0.0463867 3.23014 0.0570976 3.19255 0.0660469C3.17847 0.0657948 3.1657 0.0621425 3.15149 0.0621425C1.43516 0.0621425 0.0463069 1.4881 0.0149185 3.25654H0.00751933V3.31565V3.52842C0.0064452 3.53926 0.00370048 3.54745 0.00370048 3.55993V8.14877V9.18072V26.4728V28.2137V29.9745V31.2429C0.00370048 31.2507 0.00728063 31.2549 0.00751933 31.2625C0.00704193 31.2841 0 31.3039 0 31.3256C0 33.1222 1.40425 34.5792 3.1404 34.5791C3.18121 34.5791 3.21928 34.5689 3.25974 34.5674C3.26105 34.5674 3.26201 34.5674 3.26344 34.5674H8.45877H18.5884H23.7279C23.793 34.5674 23.8507 34.5554 23.8957 34.5397C23.8278 34.5445 23.7595 34.5594 23.6905 34.5594C22.8544 34.5594 22.0976 34.2033 21.5535 33.6298C21.552 33.6291 21.5432 33.639 21.5423 33.6378L21.2028 33.1847L17.5218 28.2768H10.4094H6.7879H5.95998V27.359V24.2158V10.5121V6.33686H8.4812H17.4695L21.0425 1.42495C21.059 1.41336 21.0884 1.40113 21.1059 1.38953C21.6037 0.626449 22.4002 0.125292 23.3101 0.0463867H20.2966H6.81774H3.3119Z" fill="#000002"/>
<path fill-rule="evenodd" clip-rule="evenodd" d="M3.25473 0.314912C3.23281 0.320129 3.2103 0.322566 3.18774 0.322163C3.17344 0.321907 3.16128 0.320821 3.1525 0.319845C3.14799 0.319343 3.14361 0.318777 3.14027 0.318324C1.58718 0.324545 0.306423 1.62107 0.277316 3.26097C0.276972 3.28031 0.274442 3.29911 0.269956 3.31716V3.52842C0.269956 3.53665 0.269549 3.54488 0.268737 3.55308C0.267934 3.56119 0.266947 3.56816 0.266137 3.57334V31.2175C0.266553 31.22 0.26695 31.2226 0.26732 31.2252C0.268617 31.2345 0.269513 31.2444 0.269835 31.2548C0.269973 31.2592 0.269993 31.2636 0.269895 31.2681C0.269496 31.2861 0.267778 31.3015 0.26619 31.3129C0.264854 31.3225 0.263235 31.3317 0.262454 31.3361C0.267915 33.0011 1.56713 34.323 3.1404 34.3229C3.14012 34.3229 3.14318 34.323 3.16311 34.3202L3.16786 34.3195C3.18465 34.3171 3.21635 34.3126 3.2497 34.3114C3.25304 34.3113 3.25639 34.3112 3.25974 34.3112H21.9739C21.7735 34.1828 21.5877 34.0327 21.4197 33.8643C21.3849 33.8464 21.3546 33.821 21.3312 33.79L21.3304 33.789L20.9911 33.3361L20.991 33.336L17.3887 28.5329H5.95998C5.81504 28.5329 5.69755 28.4182 5.69755 28.2768V6.33686C5.69755 6.19538 5.81504 6.0807 5.95998 6.0807H17.334L20.8286 1.27666C20.8452 1.25373 20.8657 1.23365 20.889 1.2172C20.9011 1.20869 20.9126 1.20178 20.9213 1.19681C21.1646 0.839158 21.4708 0.535758 21.8229 0.302546H3.3119C3.31032 0.302546 3.30769 0.302619 3.30067 0.303996C3.29662 0.304792 3.29157 0.305924 3.2838 0.307805C3.27983 0.30877 3.27594 0.309734 3.2709 0.310978C3.26615 0.312148 3.26058 0.31352 3.25473 0.314912ZM3.3119 0.0463867C3.27236 0.0463867 3.24074 0.054196 3.20893 0.0620498C3.20349 0.0633938 3.19804 0.0647391 3.19255 0.0660469C3.18576 0.0659254 3.17928 0.0650142 3.1728 0.0641027C3.16583 0.0631228 3.15885 0.0621425 3.15149 0.0621425C1.43516 0.0621425 0.0463069 1.4881 0.0149185 3.25654H0.00751933V3.52842C0.00711212 3.53253 0.0064648 3.53626 0.00581797 3.53998C0.00475859 3.54609 0.00370048 3.55218 0.00370048 3.55993V31.2429C0.00370048 31.2469 0.00465079 31.25 0.00560483 31.253C0.00650257 31.2559 0.00740361 31.2588 0.00751933 31.2625C0.00728899 31.2729 0.00553054 31.2829 0.00377215 31.2929C0.00188604 31.3036 0 31.3143 0 31.3256C0 33.1222 1.40424 34.5792 3.1404 34.5791C3.16243 34.5791 3.18366 34.5761 3.2049 34.5731C3.22301 34.5706 3.24112 34.568 3.25974 34.5674H23.7279C23.793 34.5674 23.8507 34.5554 23.8957 34.5397C23.8684 34.5417 23.8411 34.5452 23.8137 34.5488C23.7852 34.5525 23.7566 34.5562 23.7279 34.5581C23.7154 34.5589 23.703 34.5594 23.6905 34.5594C23.2737 34.5594 22.8767 34.4709 22.5159 34.3112C22.1528 34.1504 21.8264 33.9175 21.5535 33.6298C21.5535 33.6298 21.5535 33.6298 21.5535 33.6298C21.5534 33.6298 21.5533 33.6298 21.5533 33.6298C21.5525 33.6297 21.5506 33.6314 21.5485 33.6333C21.5484 33.6333 21.5483 33.6334 21.5482 33.6335C21.5455 33.6359 21.5428 33.6384 21.5423 33.6378L21.3876 33.4314L21.3873 33.4309L17.5218 28.2768H5.95998V6.33686H17.4695L21.0425 1.42495C21.0512 1.41888 21.0634 1.41262 21.0755 1.40638C21.0865 1.40071 21.0976 1.39505 21.1059 1.38953C21.4181 0.91104 21.8477 0.535534 22.349 0.302546C22.6472 0.163973 22.9708 0.0758142 23.3101 0.0463867H3.3119ZM0.256671 31.1784C0.256606 31.1782 0.256634 31.1783 0.256728 31.1786Z" fill="#FFFEFF"/>
<path fill-rule="evenodd" clip-rule="evenodd" d="M37.1013 13.1323C36.9778 13.1323 36.8776 13.2298 36.8776 13.3526V14.3998C36.3298 14.4771 35.9079 14.9219 35.8198 15.5062H34.7875C34.6712 15.5062 34.5791 15.6121 34.5791 15.7425C34.5791 15.873 34.6712 15.9788 34.7875 15.9788H35.7792V16.7146H34.7875C34.6712 16.7146 34.5739 16.8204 34.5739 16.9509C34.5739 17.0813 34.6712 17.1872 34.7875 17.1872H35.7792V17.8855H34.7875C34.6712 17.8855 34.5791 17.9913 34.5791 18.1218C34.5791 18.252 34.6712 18.3581 34.7875 18.3581H35.8146C35.8975 18.9495 36.3253 19.4025 36.8776 19.4805V20.6191C36.8776 20.742 36.9778 20.8392 37.1013 20.8392C37.2247 20.8392 37.3251 20.742 37.3251 20.6191V19.5126H38.0217V20.6191C38.0217 20.742 38.1219 20.8446 38.2455 20.8446C38.369 20.8446 38.4692 20.742 38.4692 20.6191V19.5126H39.1302V20.6191C39.1302 20.742 39.2306 20.8446 39.354 20.8446C39.4775 20.8446 39.5777 20.742 39.5777 20.6191V19.4858C40.1445 19.4214 40.5816 18.9603 40.666 18.3581H41.6678C41.7841 18.3581 41.8762 18.252 41.8762 18.1218C41.8762 17.9913 41.7841 17.8855 41.6678 17.8855H40.7017V17.1872H41.6678C41.7841 17.1872 41.8762 17.0813 41.8762 16.9509C41.8762 16.8204 41.7841 16.7146 41.6678 16.7146H40.7017V15.9788H41.6678C41.7841 15.9788 41.8814 15.873 41.8814 15.7425C41.8814 15.6121 41.7841 15.5062 41.6678 15.5062H40.661C40.5711 14.9111 40.1398 14.4584 39.5777 14.3945V13.3526C39.5777 13.2298 39.4775 13.1323 39.354 13.1323C39.2306 13.1323 39.1302 13.2298 39.1302 13.3526V14.3677H38.4692V13.3526C38.4692 13.2298 38.369 13.1323 38.2455 13.1323C38.1219 13.1323 38.0217 13.2298 38.0217 13.3526V14.3677H37.3251V13.3526C37.3251 13.2298 37.2247 13.1323 37.1013 13.1323Z" fill="white"/>
<path fill-rule="evenodd" clip-rule="evenodd" d="M36.8776 13.3527C36.8776 13.2298 36.9778 13.1323 37.1014 13.1323C37.2248 13.1323 37.3252 13.2298 37.3252 13.3527V14.3677H38.0217V13.3527C38.0217 13.2298 38.122 13.1323 38.2455 13.1323C38.3691 13.1323 38.4693 13.2298 38.4693 13.3527V14.3677H39.1302V13.3527C39.1302 13.2298 39.2306 13.1323 39.354 13.1323C39.4776 13.1323 39.5778 13.2298 39.5778 13.3527V14.3945C40.1399 14.4584 40.5712 14.9111 40.6611 15.5062H41.6678C41.7842 15.5062 41.8815 15.6121 41.8815 15.7426C41.8815 15.8731 41.7842 15.979 41.6678 15.979H40.7018V16.7146H41.6678C41.7842 16.7146 41.8763 16.8205 41.8763 16.9509C41.8763 17.0814 41.7842 17.1873 41.6678 17.1873H40.7018V17.8855H41.6678C41.7842 17.8855 41.8763 17.9914 41.8763 18.1218C41.8763 18.2521 41.7842 18.3582 41.6678 18.3582H40.6661C40.5817 18.9604 40.1446 19.4215 39.5778 19.4859V20.6191C39.5778 20.742 39.4776 20.8447 39.354 20.8447C39.2306 20.8447 39.1302 20.742 39.1302 20.6191V19.5128H38.4693V20.6191C38.4693 20.742 38.3691 20.8447 38.2455 20.8447C38.122 20.8447 38.0217 20.742 38.0217 20.6191V19.5128H37.3252V20.6191C37.3252 20.742 37.2248 20.8393 37.1014 20.8393C36.9778 20.8393 36.8776 20.742 36.8776 20.6191V19.4806C36.3253 19.4026 35.8975 18.9495 35.8147 18.3582H34.7876C34.6712 18.3582 34.5791 18.2521 34.5791 18.1218C34.5791 17.9914 34.6712 17.8855 34.7876 17.8855H35.7792V17.1873H34.7876C34.6712 17.1873 34.5739 17.0814 34.5739 16.9509C34.5739 16.8205 34.6712 16.7146 34.7876 16.7146H35.7792V15.979H34.7876C34.6712 15.979 34.5791 15.8731 34.5791 15.7426C34.5791 15.6121 34.6712 15.5062 34.7876 15.5062H35.8199C35.9079 14.9219 36.3298 14.4772 36.8776 14.3998V13.3527ZM35.7793 15.9789V16.7146L34.7876 16.7147C34.6713 16.7147 34.574 16.8205 34.574 16.9509C34.574 17.0814 34.6713 17.1872 34.7876 17.1872H35.7792L35.7793 17.8855L34.7876 17.8856C34.6713 17.8856 34.5792 17.9914 34.5792 18.1218C34.5792 18.2521 34.6713 18.3581 34.7876 18.3581H35.8151H35.8147C35.8975 18.9494 36.3254 19.4025 36.8776 19.4805L36.8777 20.6191C36.8777 20.742 36.9779 20.8392 37.1014 20.8392C37.2247 20.8392 37.3251 20.742 37.3251 20.6191V19.5127L38.0218 19.5126L38.0218 20.6191C38.0218 20.742 38.122 20.8446 38.2455 20.8446C38.369 20.8446 38.4692 20.742 38.4692 20.6191V19.5127L39.1303 19.5126L39.1303 20.6191C39.1303 20.742 39.2307 20.8446 39.354 20.8446C39.4775 20.8446 39.5777 20.742 39.5777 20.6191V19.4854V19.4859C40.1444 19.4214 40.5816 18.9603 40.666 18.3581L41.6678 18.3581C41.7841 18.3581 41.8762 18.2521 41.8762 18.1218C41.8762 17.9914 41.7841 17.8856 41.6678 17.8856H40.7017L40.7017 17.1873L41.6678 17.1872C41.7841 17.1872 41.8762 17.0814 41.8762 16.9509C41.8762 16.8205 41.7841 16.7147 41.6678 16.7147H40.7017L40.7017 15.9789L41.6678 15.9788C41.7841 15.9788 41.8814 15.873 41.8814 15.7426C41.8814 15.6122 41.7841 15.5063 41.6678 15.5063H40.6606H40.661C40.5712 14.9112 40.1398 14.4585 39.5778 14.3946L39.5777 13.3527C39.5777 13.2299 39.4775 13.1324 39.354 13.1324C39.2307 13.1324 39.1303 13.2299 39.1303 13.3527V14.3677L38.4693 14.3678L38.4692 13.3527C38.4692 13.2299 38.369 13.1324 38.2455 13.1324C38.122 13.1324 38.0218 13.2299 38.0218 13.3527V14.3677L37.3251 14.3678L37.3251 13.3527C37.3251 13.2299 37.2247 13.1324 37.1014 13.1324C36.9779 13.1324 36.8777 13.2299 36.8777 13.3527V14.4003V14.3999C36.33 14.4772 35.908 14.922 35.82 15.5063L34.7876 15.5063C34.6713 15.5063 34.5792 15.6122 34.5792 15.7426C34.5792 15.873 34.6713 15.9788 34.7876 15.9788L35.7793 15.9789Z" fill="#000002"/>
<path fill-rule="evenodd" clip-rule="evenodd" d="M35.0981 3.5979C34.6052 3.5979 34.2031 3.99077 34.2031 4.47336C34.2031 4.92208 34.5567 5.27818 35.0014 5.32733L35.5152 7.46476C35.5913 7.97261 35.4716 8.30653 35.3625 8.56037C35.2055 8.80665 35.0053 8.92471 34.8133 8.96321C34.6111 8.94534 34.2893 8.92798 34.0251 8.56587L33.7403 8.05561C33.8565 7.90816 33.9331 7.72994 33.9336 7.52921C33.9336 7.04679 33.5367 6.65925 33.0437 6.65925C32.5508 6.65925 32.1487 7.04679 32.1487 7.52921C32.1487 8.01179 32.5501 8.40466 33.0437 8.40466C33.0964 8.40466 33.1415 8.38164 33.1911 8.37253L33.5776 9.06529C33.6598 9.37825 33.5942 9.6369 33.4962 9.82251C33.3613 9.92013 33.2394 10.0349 33.1097 10.1394C32.8754 10.2018 32.472 10.2939 32.0979 9.99437L30.4604 8.22747C30.5157 8.1137 30.552 7.98515 30.552 7.85144C30.552 7.36903 30.1505 6.98149 29.657 6.98149C29.1639 6.98149 28.767 7.36903 28.767 7.85144C28.767 8.33403 29.1634 8.7269 29.657 8.7269C29.7712 8.7269 29.8807 8.69957 29.9825 8.66245L31.5995 10.4025C31.7334 10.7244 31.7394 11.0326 31.7114 11.3101C31.7108 11.3165 31.7069 11.3201 31.7062 11.3263C31.6953 11.7001 31.5145 11.8572 31.335 11.9331C31.1556 11.9733 30.9652 11.9995 30.7605 11.9654L30.2265 11.6432C30.2288 11.6171 30.2423 11.5947 30.2417 11.5679C30.2417 11.0855 29.8453 10.6926 29.3519 10.6926C28.8588 10.6926 28.4569 11.0855 28.4569 11.5679C28.4569 12.0505 28.8583 12.4381 29.3519 12.4381C29.5724 12.4381 29.7655 12.353 29.9214 12.2232L30.4503 12.5455C30.5793 12.7056 30.6283 12.8921 30.6435 13.0772C30.6286 13.2434 30.6029 13.5074 30.496 13.727C30.256 13.8851 29.9371 14.079 29.5197 14.1084L27.3635 13.5283C27.3225 13.0829 26.9494 12.7335 26.4838 12.7335C25.9908 12.7335 25.5939 13.1209 25.5939 13.6034C25.5939 14.086 25.9903 14.4789 26.4838 14.4789C26.7616 14.4789 27.0015 14.3515 27.1652 14.1567L29.3416 14.742C29.699 14.9276 29.9156 15.2218 30.0739 15.4618C30.1169 15.684 30.1605 16.0483 29.8044 16.4177C29.7044 16.4773 29.6186 16.549 29.4993 16.5895L28.7823 16.5789C28.6468 16.2652 28.327 16.0423 27.9585 16.0418C27.4656 16.0418 27.0635 16.4347 27.0635 16.9171C27.0635 17.3997 27.4649 17.7925 27.9585 17.7925C28.3342 17.7925 28.6557 17.5617 28.7874 17.2393L29.4027 17.2448C29.7016 17.422 29.8908 17.6683 30.0383 17.8946C30.0838 18.0527 30.0877 18.2363 30.0638 18.4264C29.9076 18.651 29.707 18.9074 29.3874 19.0868L27.2312 19.6347C27.0675 19.4407 26.8325 19.3077 26.5549 19.3071C26.062 19.3071 25.665 19.7 25.665 20.1824C25.665 20.665 26.0614 21.0579 26.5549 21.0579C27.0164 21.0579 27.3824 20.7081 27.4296 20.2684L29.8248 19.6562C30.0609 19.7273 30.2383 19.8488 30.3994 19.9731C30.4246 20.0092 30.4329 20.0534 30.4451 20.0965C30.4527 20.1444 30.4535 20.217 30.4604 20.2739C30.4571 20.4449 30.4212 20.6188 30.3587 20.7894C30.4164 21.6163 30.921 22.089 31.2144 22.089C31.5078 22.089 31.7996 22.2512 31.8995 22.5778C31.985 22.857 31.8449 23.0621 31.7318 23.3082L29.9418 25.1074C29.9301 25.1191 29.9364 25.1373 29.9265 25.1504C29.8466 25.1274 29.7642 25.1019 29.6773 25.1019C29.1843 25.1019 28.7874 25.4948 28.7874 25.9774C28.7874 26.46 29.1838 26.8475 29.6773 26.8475C30.1702 26.8475 30.5723 26.46 30.5723 25.9774C30.5723 25.8121 30.5115 25.6636 30.43 25.5316L32.2351 23.7164C32.3379 23.6593 32.4411 23.6251 32.5454 23.5928C32.7628 23.5593 33.0128 23.5815 33.242 23.727C33.4049 23.9747 33.5486 24.2797 33.5675 24.6563L33.1657 25.4671C33.1358 25.4642 33.1096 25.4506 33.0793 25.4511C32.5862 25.4511 32.1843 25.844 32.1843 26.3264C32.1843 26.809 32.5858 27.2019 33.0793 27.2019C33.5722 27.2019 33.9693 26.809 33.9693 26.3264C33.9693 26.1013 33.8776 25.9014 33.7353 25.7464L34.1064 25C34.6176 24.5905 35.1054 24.8782 35.2711 24.8926C35.3022 24.9057 35.3319 24.921 35.3625 24.9356C35.5524 25.1514 35.6371 25.3845 35.6473 25.5907L34.9863 28.464C34.5329 28.5058 34.173 28.8688 34.1727 29.3233C34.1727 29.8059 34.5746 30.1933 35.0677 30.1933C35.5606 30.1933 35.9575 29.8059 35.9575 29.3233C35.9575 29.0368 35.8084 28.7952 35.5913 28.6359L36.2372 25.8323C36.4525 25.5474 36.7096 25.4463 36.9288 25.4242C37.1304 25.4594 37.3384 25.4735 37.544 25.4941C37.7673 25.6945 37.8645 25.93 37.9051 26.1278L37.9102 26.9279C37.5626 27.0474 37.3102 27.3574 37.3102 27.739C37.3102 28.2215 37.7121 28.6144 38.2052 28.6144C38.6981 28.6144 39.0952 28.2215 39.0952 27.739C39.0952 27.3736 38.8665 27.0692 38.5407 26.9388L38.5307 25.9989C38.5834 25.828 38.668 25.7076 38.7595 25.6069C38.84 25.5483 38.9199 25.5058 38.9985 25.478C39.1367 25.462 39.2735 25.4391 39.4104 25.4188C39.4999 25.4304 39.5723 25.4393 39.6444 25.4618C40.0535 25.6797 40.1762 26.0872 40.2596 26.203L40.7376 28.652C40.5472 28.8122 40.4168 29.0417 40.4173 29.3072C40.4173 29.7898 40.8192 30.1826 41.3123 30.1826C41.8052 30.1826 42.2021 29.7898 42.2021 29.3072C42.2021 28.8335 41.8186 28.4561 41.3377 28.4426L40.8038 25.6875C40.8414 25.37 40.976 25.175 41.1037 25.0322C41.2207 24.9165 41.3414 24.8419 41.4597 24.8012C41.4799 24.7919 41.5003 24.7842 41.5208 24.7744C41.6534 24.7396 41.778 24.7393 41.8919 24.7529C42.0015 24.8129 42.1157 24.8737 42.192 24.9462L42.6141 25.6551C42.4787 25.8083 42.3848 26.0011 42.3852 26.219C42.3852 26.7016 42.7873 27.0945 43.2802 27.0945C43.7732 27.0945 44.1701 26.7016 44.1701 26.219C44.1701 25.7364 43.7732 25.3491 43.2802 25.3491C43.2447 25.3491 43.2126 25.3613 43.1785 25.3652L42.7716 24.667C42.7163 24.5233 42.6987 24.4031 42.7056 24.2964C42.7059 24.2902 42.7098 24.2865 42.7106 24.2803C42.958 23.7008 43.4629 23.6296 43.7023 23.5713H43.7073C43.8523 23.5842 43.982 23.6186 44.0837 23.6681L45.9754 25.58C45.9212 25.6926 45.8838 25.8124 45.8838 25.9452C45.8838 26.4277 46.2859 26.8205 46.7788 26.8205C47.2719 26.8205 47.6687 26.4278 47.6687 25.9452C47.6687 25.4627 47.2719 25.0751 46.7788 25.0751C46.6611 25.0751 46.5466 25.099 46.4433 25.1396L44.6227 23.2974C44.4027 22.8803 44.5101 22.5036 44.5922 22.2771C44.6845 22.1544 44.7792 22.033 44.8668 21.9065C45.1735 21.7409 45.4807 21.7836 45.66 21.8098L46.2042 22.1965C46.194 22.2494 46.1681 22.297 46.1686 22.3522C46.1686 22.8347 46.5707 23.2276 47.0636 23.2276C47.5566 23.2276 47.9535 22.8347 47.9535 22.3522C47.9535 21.8698 47.5566 21.4822 47.0636 21.4822C46.8727 21.4822 46.7052 21.5537 46.5603 21.6541L45.9448 21.2191C45.6934 20.8853 45.6978 20.5473 45.7414 20.306C45.7748 20.2171 45.8141 20.1317 45.8483 20.0429C46.204 19.701 46.6164 19.748 46.784 19.7313L49.0215 20.3007C49.043 20.7643 49.4216 21.139 49.9012 21.1385C50.3941 21.1385 50.7962 20.7456 50.7962 20.263C50.7962 19.7804 50.3941 19.3876 49.9012 19.3876C49.6408 19.3876 49.4135 19.5036 49.2503 19.6777L46.9008 19.0815C46.4971 18.8718 46.3863 18.5212 46.3415 18.2652C46.3679 18.0512 46.4097 17.8427 46.428 17.626C46.6415 17.373 46.9034 17.2849 47.0891 17.2448H47.6941C47.8409 17.5306 48.1389 17.7339 48.4874 17.7334C48.9805 17.7334 49.3774 17.3407 49.3774 16.8581C49.3774 16.3755 48.9805 15.9827 48.4874 15.9827C48.0941 15.9827 47.7674 16.2384 47.6484 16.5842L47.0382 16.5789C46.7814 16.5196 46.61 16.3864 46.489 16.2351V16.2296C46.3936 16.0418 46.3567 15.8706 46.3619 15.7141C46.366 15.5926 46.4066 15.5042 46.4382 15.408L46.4433 15.4133C46.4887 15.1333 46.6105 14.9873 46.728 14.8924C46.9944 14.7413 47.2706 14.71 47.323 14.6508L49.2249 14.1673C49.3884 14.3512 49.6224 14.4736 49.8909 14.4736C50.384 14.4736 50.7809 14.0807 50.7809 13.5981C50.7809 13.1155 50.384 12.728 49.8909 12.728C49.4194 12.728 49.0387 13.0855 49.0062 13.539L46.9518 14.0599C46.3988 14.0566 46.0532 13.8236 45.8381 13.6357C45.8324 13.6217 45.8285 13.6065 45.8228 13.5928C45.6503 13.17 45.7647 12.8354 45.8838 12.6099L46.5399 12.2339C46.6851 12.3341 46.8522 12.4004 47.0432 12.4004C47.5363 12.4004 47.9382 12.013 47.9382 11.5305C47.9382 11.0479 47.5363 10.655 47.0432 10.655C46.5503 10.655 46.1534 11.0479 46.1534 11.5305C46.1534 11.586 46.1738 11.6336 46.1839 11.6862L45.6296 12.0084C45.3011 12.0631 45.0474 11.9644 44.872 11.8312C44.8105 11.7523 44.753 11.67 44.6939 11.5894C44.4225 10.9786 44.7805 10.5404 44.8414 10.3649L46.4789 8.70542C46.5962 8.7611 46.7261 8.79668 46.8654 8.79668C47.3583 8.79668 47.7552 8.4093 47.7552 7.92672C47.7552 7.44413 47.3583 7.05126 46.8654 7.05126C46.3723 7.05126 45.9704 7.44413 45.9704 7.92672C45.9704 8.03774 45.9972 8.13931 46.0364 8.23813L44.3024 9.98904C43.8702 10.3195 43.4828 10.1704 43.2447 10.0696C43.2341 10.0612 43.2247 10.0507 43.2141 10.0427C42.8719 9.72661 42.8515 9.3645 42.8786 9.09743L43.2447 8.40466C43.281 8.40913 43.3143 8.42666 43.3514 8.42615C43.8443 8.42615 44.2414 8.03327 44.2414 7.55069C44.2414 7.06828 43.8443 6.67541 43.3514 6.67541C42.8584 6.67541 42.4564 7.06828 42.4564 7.55069C42.4564 7.76895 42.5456 7.96161 42.6802 8.11474L42.4921 8.46911C42.4293 8.58185 42.3551 8.66314 42.2784 8.73223C42.2293 8.7941 42.1712 8.8094 42.1157 8.84514C42.0047 8.90856 41.9126 8.93623 41.8106 8.95788C41.6018 8.96389 41.4689 8.91303 41.3987 8.87728C41.1009 8.67723 41.0035 8.42065 40.9563 8.19517C40.9262 7.95301 40.9227 7.80057 40.9258 7.61514L41.4801 5.32201C41.9183 5.26632 42.2638 4.91744 42.2631 4.47336C42.2631 3.99077 41.8612 3.5979 41.3681 3.5979C40.8752 3.5979 40.4783 3.99077 40.4783 4.47336C40.4783 4.76672 40.6331 5.0142 40.8596 5.17163L40.2697 7.60448C40.1233 7.99856 39.8588 8.14481 39.6748 8.24363C39.5718 8.27319 39.4652 8.3189 39.3747 8.3134C39.3645 8.31186 39.3547 8.30963 39.3443 8.30808C39.275 8.30121 39.2222 8.26906 39.1612 8.24896C38.9594 8.14842 38.7106 7.9824 38.5917 7.60448V6.84727C38.897 6.7084 39.1109 6.4085 39.1103 6.05774C39.1103 5.57515 38.7134 5.18228 38.2205 5.18228C37.7274 5.18228 37.3255 5.57515 37.3255 6.05774C37.3255 6.45112 37.596 6.76941 37.9611 6.8794V7.51855C37.8859 7.89595 37.6804 8.07538 37.483 8.19517C37.4111 8.24208 37.3369 8.28763 37.2645 8.29725C37.244 8.30034 37.2238 8.30481 37.2035 8.30808C37.0983 8.30946 36.9996 8.28453 36.9084 8.24896H36.9034C36.7101 8.1027 36.3506 7.87207 36.1254 7.2984L35.6117 5.16613C35.8344 5.00733 35.9881 4.7638 35.9881 4.47336C35.9881 3.99077 35.5912 3.5979 35.0981 3.5979ZM38.1899 11.1276C38.5014 11.0809 38.7207 11.4084 38.7595 11.466C38.923 11.6764 39.1612 11.8582 39.4663 11.9654C39.8439 12.099 40.2061 12.0768 40.4884 11.9546C40.5237 11.9462 40.5491 11.9525 40.5901 11.9331C41.0975 11.6865 41.2106 12.2133 41.241 12.4057C41.2752 12.6946 41.3982 13.0021 41.6326 13.2759C41.9743 13.6749 42.4138 13.8655 42.7716 13.8129C43.4239 13.8911 43.2121 14.4387 43.1887 14.495C43.0873 14.7305 43.0188 14.9988 43.0463 15.3114C43.0738 15.6321 43.1829 15.906 43.3261 16.1222C43.3318 16.1332 43.3347 16.1437 43.3412 16.1545C43.3902 16.2243 43.4471 16.2736 43.5039 16.3264C43.5329 16.353 43.5461 16.3812 43.5802 16.407C44.2614 16.8973 43.5701 17.4382 43.5701 17.4382C43.3898 17.5988 43.2287 17.804 43.1226 18.0826C43.0288 18.3286 43.0071 18.5659 43.0157 18.7916C43.011 18.8562 43.0082 18.9215 43.0209 18.9956C43.025 19.0191 43.0361 19.0373 43.0413 19.06C43.0595 19.138 43.0727 19.2119 43.1124 19.2963C43.5298 20.1699 42.6293 20.2201 42.6293 20.2201V20.2254C42.3469 20.2464 42.0402 20.3675 41.7649 20.6121C41.5437 20.8085 41.3958 21.0438 41.3071 21.278C41.2523 21.3834 41.2096 21.5097 41.2106 21.6755C41.2148 22.5077 40.4121 22.0299 40.4121 22.0299C40.1792 21.9464 39.905 21.9165 39.6138 21.9655C39.2226 22.0325 38.9186 22.2257 38.7238 22.4704C38.6724 22.5209 38.6211 22.5672 38.5764 22.6423C38.1574 23.3471 37.717 22.4866 37.717 22.4866H37.712C37.5286 22.246 37.2446 22.0454 36.8728 21.9602C36.5189 21.8789 36.1913 21.9235 35.9321 22.0461C35.8925 22.0624 35.8564 22.0648 35.8151 22.089C35.3622 22.3589 35.28 22.1062 35.2608 21.8689C35.2924 21.5334 35.1852 21.1323 34.9303 20.7786C34.6841 20.4363 34.3621 20.2333 34.0557 20.1664H34.0506C33.9421 20.1432 33.8353 20.1278 33.7353 20.145C32.9514 20.2293 33.3234 19.334 33.3234 19.334C33.5001 19.0327 33.5525 18.5893 33.4149 18.1256C33.3162 17.793 33.1431 17.5317 32.942 17.3522C32.9252 17.3371 32.9208 17.3249 32.9013 17.3093C32.3143 16.8554 32.8128 16.3628 32.8962 16.2834C33.1714 16.0915 33.3979 15.7338 33.4708 15.2684C33.5257 14.9211 33.4575 14.6214 33.3488 14.3607C33.3444 14.3333 33.3506 14.311 33.3387 14.2802C33.1693 13.8329 33.6292 13.716 33.7252 13.6947C34.0394 13.7023 34.4 13.5649 34.7116 13.2705C34.8656 13.1243 34.9866 12.96 35.0727 12.7924C35.184 12.574 35.2114 12.3587 35.1998 12.1535C35.2167 12.112 35.2353 12.0818 35.2455 12.0191C35.3297 11.5177 35.8813 11.6968 35.8813 11.6968C36.1042 11.8365 36.3682 11.9366 36.6897 11.9278C37.1587 11.9151 37.5453 11.7107 37.7628 11.4284C37.7865 11.4048 37.8103 11.3997 37.834 11.3693C37.9566 11.2127 38.077 11.1445 38.1899 11.1276Z" fill="white"/>
<path d="M5.70425 42.1758V41.1404H6.23459V42.1758H5.70425ZM5.70425 40.6228V39.5875H6.23459V40.6228H5.70425ZM3.58289 42.6934V39.0698H5.70425V39.5875H4.11323V40.6228H5.70425V41.1404H4.11323V42.1758H5.70425V42.6934H3.58289Z" fill="#000002"/>
<path d="M7.17528 42.6934V42.1758H7.70562V40.6228H7.17528V40.1051H8.23596V42.1758H8.7663V42.6934H7.17528ZM7.70562 39.5875V39.0698H8.23596V39.5875H7.70562Z" fill="#000002"/>
<path d="M10.2373 42.6934V42.1758H11.8284V42.6934H10.2373ZM9.70699 42.1758V40.6228H10.2373V42.1758H9.70699ZM11.8284 42.1758V40.6228H12.3587V42.1758H11.8284ZM10.2373 40.6228V40.1051H11.8284V40.6228H10.2373Z" fill="#000002"/>
<path d="M13.2994 42.6934V42.1758H13.8297V40.6228H13.2994V40.1051H14.3601V42.1758H14.8904V42.6934H13.2994ZM13.8297 39.5875V39.0698H14.3601V39.5875H13.8297Z" fill="#000002"/>
<path d="M17.9525 42.6934V40.6228H18.4828V42.6934H17.9525ZM15.8311 42.6934V40.1051H17.9525V40.6228H16.3614V42.6934H15.8311Z" fill="#000002"/>
<path d="M19.4235 42.6934V41.1404H18.8932V40.6228H19.4235V39.5875H19.9538V40.6228H21.0145V41.1404H19.9538V42.6934H19.4235ZM21.0145 40.1051V39.5875H21.5449V40.1051H21.0145ZM19.9538 39.5875V39.0698H21.0145V39.5875H19.9538Z" fill="#000002"/>
<path d="M22.4855 42.6934V42.1758H24.0766V42.6934H22.4855ZM21.9552 42.1758V40.6228H22.4855V42.1758H21.9552ZM24.0766 42.1758V40.6228H24.6069V42.1758H24.0766ZM22.4855 40.6228V40.1051H24.0766V40.6228H22.4855Z" fill="#000002"/>
<path d="M27.1386 41.1404V40.6228H27.669V41.1404H27.1386ZM25.0173 42.6934V40.1051H27.1386V40.6228H25.5476V42.6934H25.0173Z" fill="#000002"/>
<path d="M30.2007 42.6934V40.6228H30.731V42.6934H30.2007ZM28.0793 42.6934V40.1051H30.2007V40.6228H29.6703V42.6934H29.14V40.6228H28.6097V42.6934H28.0793Z" fill="#000002"/>
<path d="M31.1414 42.1758V41.6581H31.6717V42.1758H31.1414ZM31.6717 42.6934V42.1758H33.2627V41.6581H31.6717V41.1404H33.2627V40.6228H33.7931V42.6934H31.6717ZM31.6717 40.6228V40.1051H33.2627V40.6228H31.6717Z" fill="#000002"/>
<path d="M35.2641 42.6934V42.1758H36.3248V42.6934H35.2641ZM36.3248 42.1758V41.6581H36.8551V42.1758H36.3248ZM34.7338 42.1758V40.6228H34.2034V40.1051H34.7338V39.0698H35.2641V40.1051H36.3248V40.6228H35.2641V42.1758H34.7338Z" fill="#000002"/>
<path d="M37.7958 42.6934V42.1758H38.3262V40.6228H37.7958V40.1051H38.8565V42.1758H39.3868V42.6934H37.7958ZM38.3262 39.5875V39.0698H38.8565V39.5875H38.3262Z" fill="#000002"/>
<path d="M40.8579 42.6934V42.1758H42.4489V42.6934H40.8579ZM42.4489 42.1758V41.6581H42.9792V42.1758H42.4489ZM40.3275 42.1758V40.6228H40.8579V42.1758H40.3275ZM42.4489 41.1404V40.6228H42.9792V41.1404H42.4489ZM40.8579 40.6228V40.1051H42.4489V40.6228H40.8579Z" fill="#000002"/>
<path d="M43.3896 42.6934V42.1758H45.5109V42.6934H43.3896ZM45.5109 42.1758V41.6581H46.0413V42.1758H45.5109ZM43.9199 41.6581V41.1404H45.5109V41.6581H43.9199ZM43.3896 41.1404V40.6228H43.9199V41.1404H43.3896ZM43.9199 40.6228V40.1051H46.0413V40.6228H43.9199Z" fill="#000002"/>
<path d="M50.044 42.6934V42.1758H51.6351V42.6934H50.044ZM49.5137 42.1758V39.5875H50.044V42.1758H49.5137ZM51.6351 42.1758V39.5875H52.1654V42.1758H51.6351ZM50.044 39.5875V39.0698H51.6351V39.5875H50.044Z" fill="#000002"/>
<path d="M54.6971 42.1758V40.6228H55.2274V42.1758H54.6971ZM52.5757 43.7287V40.1051H54.6971V40.6228H53.1061V42.1758H54.6971V42.6934H53.1061V43.7287H52.5757Z" fill="#000002"/>
<path d="M56.1681 42.6934V42.1758H57.7592V42.6934H56.1681ZM55.6378 42.1758V40.6228H56.1681V41.1404H57.7592V40.6228H58.2895V41.6581H56.1681V42.1758H55.6378ZM56.1681 40.6228V40.1051H57.7592V40.6228H56.1681Z" fill="#000002"/>
<path d="M60.8212 42.6934V40.6228H61.3515V42.6934H60.8212ZM58.6998 42.6934V40.1051H60.8212V40.6228H59.2302V42.6934H58.6998Z" fill="#000002"/>
<path d="M66.9453 42.1758V39.5875H67.4757V42.1758H66.9453ZM64.8239 42.6934V39.0698H66.9453V39.5875H65.3543V42.1758H66.9453V42.6934H64.8239Z" fill="#000002"/>
<path d="M67.886 42.1758V41.6581H68.4164V42.1758H67.886ZM68.4164 42.6934V42.1758H70.0074V41.6581H68.4164V41.1404H70.0074V40.6228H70.5377V42.6934H68.4164ZM68.4164 40.6228V40.1051H70.0074V40.6228H68.4164Z" fill="#000002"/>
<path d="M71.4784 43.7287V43.2111H73.0694V43.7287H71.4784ZM70.9481 42.1758V40.1051H71.4784V42.1758H70.9481ZM73.0694 43.2111V42.6934H71.4784V42.1758H73.0694V40.1051H73.5998V43.2111H73.0694Z" fill="#000002"/>
<path d="M74.0101 42.6934V42.1758H76.1315V42.6934H74.0101ZM76.1315 42.1758V41.6581H76.6618V42.1758H76.1315ZM74.5405 41.6581V41.1404H76.1315V41.6581H74.5405ZM74.0101 41.1404V40.6228H74.5405V41.1404H74.0101ZM74.5405 40.6228V40.1051H76.6618V40.6228H74.5405Z" fill="#000002"/>
<path d="M31.1741 49.5243V47.2349H31.956V48.7612H35.0833V49.5243H31.1741ZM31.956 47.2349V46.4717H34.3015V47.2349H31.956ZM31.1741 45.7086V44.9455H31.956V45.7086H31.1741ZM34.3015 46.4717V44.9455H35.0833V46.4717H34.3015ZM31.956 44.9455V44.1823H34.3015V44.9455H31.956Z" fill="#000002"/>
<path d="M36.4701 49.5243V48.7612H38.8156V49.5243H36.4701ZM37.252 47.2349V46.4717H38.0338V47.2349H37.252ZM35.6883 48.7612V44.9455H36.4701V48.7612H35.6883ZM38.8156 48.7612V44.9455H39.5975V48.7612H38.8156ZM36.4701 44.9455V44.1823H38.8156V44.9455H36.4701Z" fill="#000002"/>
<path d="M40.2024 49.5243V47.2349H40.9843V48.7612H44.1116V49.5243H40.2024ZM40.9843 47.2349V46.4717H43.3298V47.2349H40.9843ZM40.2024 45.7086V44.9455H40.9843V45.7086H40.2024ZM43.3298 46.4717V44.9455H44.1116V46.4717H43.3298ZM40.9843 44.9455V44.1823H43.3298V44.9455H40.9843Z" fill="#C70039"/>
<path d="M45.4984 49.5243V48.7612H47.844V49.5243H45.4984ZM44.7166 48.7612V47.998H45.4984V48.7612H44.7166ZM47.844 48.7612V47.2349H48.6258V48.7612H47.844ZM45.4984 47.2349V46.4717H47.844V47.2349H45.4984ZM44.7166 45.7086V44.9455H45.4984V45.7086H44.7166ZM47.844 46.4717V44.9455H48.6258V46.4717H47.844ZM45.4984 44.9455V44.1823H47.844V44.9455H45.4984Z" fill="#FF5733"/>
</g>
<defs>
<clipPath id="clip0_333_142">
<rect width="82" height="50" fill="white"/>
</clipPath>
</defs>
</svg>
