<svg width="80" height="35" viewBox="0 0 80 35" fill="none" xmlns="http://www.w3.org/2000/svg">
<g clip-path="url(#clip0_333_163)">
<rect width="80" height="35" fill="white"/>
<path d="M53.0616 0.934908C52.5521 0.398496 51.8493 0.0666133 51.0735 0.0389975L66.8559 0.0332031C67.648 0.0499699 68.3657 0.390978 68.8841 0.936884L68.895 0.929114L69.2272 1.37195L79.3713 14.8745L79.3641 14.8823C79.7573 15.4166 79.9994 16.0734 80 16.7965C80.0007 17.6695 79.6579 18.4607 79.1083 19.0394L79.112 19.0741L69.4078 32.4357C69.3917 32.4471 69.363 32.459 69.3458 32.4704C68.8174 33.2825 67.9494 33.8162 66.962 33.8171C66.9059 33.8171 66.8533 33.8045 66.7979 33.8018C66.7792 33.8161 66.7585 33.8288 66.7323 33.8288L51.3401 33.842C51.3049 33.842 51.2801 33.8236 51.2598 33.7996C52.1958 33.7563 53.0171 33.2464 53.5234 32.4685C53.5405 32.4571 53.5691 32.4452 53.5853 32.4338L57.5121 27.029L65.8483 27.0219L73.2757 16.7675L65.8547 6.81856L57.504 6.82571L53.4048 1.36998L53.0725 0.927267L53.0616 0.934908Z" fill="#000002"/>
<path fill-rule="evenodd" clip-rule="evenodd" d="M68.8841 0.936884C68.3657 0.390978 67.648 0.0499699 66.8559 0.0332031L51.0735 0.0389975C51.4554 0.0525939 51.8197 0.139945 52.1519 0.289148C52.4945 0.442992 52.803 0.662595 53.0616 0.934908L53.0725 0.927267L57.504 6.82571L65.8547 6.81856L73.2757 16.7675L65.8483 27.0219L57.5121 27.029L53.5853 32.4338C53.5769 32.4397 53.565 32.4458 53.5532 32.4519C53.5424 32.4575 53.5316 32.463 53.5234 32.4685C53.1945 32.9738 52.7327 33.366 52.1929 33.5907C51.9256 33.702 51.6391 33.7722 51.3401 33.7947C51.3401 33.7947 51.3401 33.7947 51.3401 33.7947C51.3134 33.7967 51.2866 33.7983 51.2598 33.7996C51.2801 33.8236 51.3049 33.842 51.3401 33.842L66.7323 33.8288C66.7585 33.8288 66.7792 33.8161 66.7979 33.8018C66.8223 33.803 66.8461 33.8061 66.8699 33.8092C66.9002 33.8131 66.9305 33.8171 66.962 33.8171C67.9494 33.8162 68.8174 33.2825 69.3458 32.4704C69.354 32.465 69.3648 32.4594 69.3756 32.4539C69.3875 32.4478 69.3994 32.4417 69.4078 32.4357L79.112 19.0741L79.1083 19.0394C79.6579 18.4607 80.0007 17.6695 80 16.7965C79.9994 16.0734 79.7573 15.4166 79.3641 14.8823L79.3713 14.8745L68.895 0.929114L68.8841 0.936884ZM68.7364 1.14184C68.7219 1.13189 68.7083 1.12034 68.6959 1.10721C68.2222 0.608396 67.5702 0.299684 66.8531 0.283751L52.6771 0.288955C52.8629 0.409182 53.0355 0.548856 53.1924 0.70563C53.2258 0.722815 53.2558 0.747492 53.2796 0.779217L57.6339 6.57505L65.8545 6.56801C65.9366 6.56794 66.0138 6.60626 66.0622 6.67109L73.4832 16.6201C73.548 16.7069 73.5489 16.8244 73.4853 16.9122L66.0579 27.1665C66.0098 27.2329 65.9317 27.2723 65.8485 27.2724L57.6449 27.2795L53.7947 32.5788C53.7782 32.6015 53.758 32.6213 53.7348 32.6375C53.7234 32.6455 53.7125 32.6521 53.7041 32.6568C53.4478 33.0347 53.1198 33.3533 52.7407 33.5902L66.6819 33.5783C66.7215 33.5587 66.7659 33.5494 66.8107 33.5516C66.8466 33.5533 66.8818 33.5579 66.9047 33.5609C66.9077 33.5613 66.9106 33.5617 66.9132 33.5621C66.9395 33.5654 66.9521 33.5665 66.9619 33.5665C67.8494 33.5657 68.6409 33.0864 69.1291 32.3361C69.1478 32.3075 69.1721 32.2829 69.2008 32.2637C69.2124 32.2559 69.2234 32.2496 69.2316 32.2451L78.856 18.9934C78.8648 18.9474 78.8867 18.9042 78.92 18.8691C79.4268 18.3355 79.744 17.6048 79.7433 16.7967C79.7428 16.1294 79.5197 15.5231 79.1556 15.0284C79.1414 15.0091 79.1303 14.9884 79.1224 14.9669L69.0202 1.52012L69.0201 1.51998L68.7364 1.14184ZM69.2668 32.2266C69.2668 32.2266 69.2667 32.2266 69.2667 32.2266C69.2672 32.2263 69.2672 32.2263 69.2668 32.2266ZM66.6394 33.6047C66.6374 33.6062 66.6378 33.6057 66.6404 33.6039C66.6401 33.6042 66.6398 33.6044 66.6394 33.6047Z" fill="#FFFEFF"/>
<path fill-rule="evenodd" clip-rule="evenodd" d="M50.9738 0.0332031C49.3538 0.0332031 48.0409 1.40031 48.0409 3.0845C48.0409 3.81213 48.2956 4.47121 48.7047 4.99542C48.7024 5.02513 48.7117 5.05546 48.7303 5.08012L57.4451 16.7768L48.5442 29.0398L48.537 29.059C48.5348 29.0633 48.515 29.0988 48.5078 29.113C48.2027 29.5925 48.0189 30.1601 48.0189 30.7735C48.0189 32.4681 49.3724 33.8403 51.0394 33.8403C52.0746 33.8403 52.9766 33.3031 53.52 32.4956L53.5309 32.5034L63.0665 19.3851L63.2818 19.0884L63.4496 18.8572L63.4204 18.8766C63.8818 18.3176 64.1718 17.6017 64.1718 16.8115C64.1718 16.0885 63.9302 15.4315 63.5372 14.8967L63.5444 14.889L57.5035 6.83693L53.4068 1.37775L53.075 0.934664L53.064 0.942429C52.5548 0.405523 51.852 0.0730272 51.0759 0.0447949C51.0413 0.0434388 51.0087 0.0332031 50.9738 0.0332031Z" fill="#000002"/>
<path fill-rule="evenodd" clip-rule="evenodd" d="M48.959 4.96109L57.6527 16.6294C57.7175 16.7163 57.7182 16.8339 57.6546 16.9216L48.7725 29.1587C48.7706 29.163 48.7685 29.1672 48.7664 29.1714C48.7646 29.1748 48.7627 29.1783 48.7622 29.1793L48.7589 29.1853L48.7508 29.2002C48.7442 29.2123 48.7393 29.2214 48.7375 29.2248C48.734 29.2318 48.7301 29.2386 48.7258 29.2452C48.4443 29.6876 48.2756 30.2098 48.2756 30.7735C48.2756 32.339 49.5235 33.5897 51.0394 33.5897C51.9793 33.5897 52.8044 33.1026 53.3054 32.358C53.3227 32.3324 53.3444 32.3104 53.3693 32.2927L62.857 19.2403L62.8572 19.2401L63.0723 18.9436L63.0723 18.9435L63.1755 18.8014C63.1849 18.7722 63.1999 18.7444 63.2205 18.7194C63.6477 18.2017 63.9152 17.5405 63.9152 16.8115C63.9152 16.1443 63.6925 15.5378 63.3286 15.0427C63.3145 15.0235 63.3035 15.0028 63.2956 14.9814L57.2964 6.98498L52.9164 1.14743C52.9018 1.13744 52.8882 1.12583 52.8756 1.11263C52.4109 0.622591 51.7715 0.320822 51.0664 0.295168L51.0656 0.295142C51.0322 0.293833 51.0008 0.288621 50.9866 0.286264C50.9852 0.286031 50.984 0.285825 50.9829 0.285655C50.9758 0.284509 50.972 0.283978 50.9703 0.283752C49.5088 0.285715 48.2976 1.52456 48.2976 3.0845C48.2976 3.75375 48.5316 4.36012 48.9089 4.84359C48.9359 4.87813 48.953 4.91866 48.959 4.96109ZM53.075 0.934664L63.5444 14.889L63.5372 14.8967C63.9302 15.4315 64.1718 16.0885 64.1718 16.8115C64.1718 17.4982 63.9528 18.1288 63.5926 18.6491C63.5453 18.7175 63.4955 18.7839 63.4435 18.8484C63.4427 18.8493 63.4419 18.8503 63.4411 18.8513C63.4342 18.8598 63.4274 18.8682 63.4204 18.8766L63.4496 18.8572L63.2818 19.0884L53.5313 32.5029L53.5309 32.5034L53.52 32.4956C53.52 32.4956 53.52 32.4956 53.52 32.4956C53.5199 32.4956 53.5199 32.4957 53.5199 32.4957C53.4728 32.5657 53.423 32.6336 53.3707 32.6994C52.8191 33.3922 51.9848 33.8403 51.0394 33.8403C49.3724 33.8403 48.0189 32.4681 48.0189 30.7735C48.0189 30.1601 48.2027 29.5925 48.5078 29.113C48.5125 29.1037 48.5227 29.0853 48.5297 29.0724C48.5334 29.0657 48.5362 29.0605 48.537 29.059L48.5442 29.0398L57.4451 16.7768L48.7303 5.08012C48.7117 5.05546 48.7024 5.02513 48.7047 4.99542C48.2956 4.47121 48.0409 3.81213 48.0409 3.0845C48.0409 1.40031 49.3538 0.0332031 50.9738 0.0332031C50.9925 0.0332031 51.0105 0.0361344 51.0285 0.0390674C51.0441 0.0416153 51.0598 0.0441645 51.0759 0.0447949C51.852 0.0730272 52.5548 0.405523 53.064 0.942429L53.075 0.934664Z" fill="#FFFEFF"/>
<path fill-rule="evenodd" clip-rule="evenodd" d="M43.4792 0C43.3654 0 43.2577 0.0215764 43.1472 0.0347679H30.2811C30.2553 0.0347679 30.2511 0.0671888 30.2337 0.0848185C29.3628 0.17494 28.6001 0.656987 28.1215 1.3909C28.1043 1.40224 28.0756 1.4142 28.0595 1.42554L18.3415 14.7788C18.3412 14.7793 18.3455 14.8123 18.3451 14.8135C17.795 15.3917 17.4514 16.1827 17.4514 17.0557C17.4514 17.7788 17.6932 18.4358 18.0862 18.9705C18.0862 18.9707 18.0787 18.978 18.0789 18.9782L28.2164 32.4895L28.5484 32.9325C28.5493 32.9337 28.558 32.9241 28.5593 32.9248C28.9915 33.3805 29.5637 33.6855 30.2009 33.7878L43.7529 33.7686C44.6843 33.7224 45.5023 33.2175 46.0072 32.4433C46.0244 32.4318 46.0531 32.42 46.0692 32.4085L55.6924 19.1824L55.7872 19.0553C55.7872 19.0553 55.7873 19.0522 55.7872 19.0515L56.017 18.7393L56.0098 18.7355C56.4206 18.1928 56.6773 17.5189 56.6773 16.7783C56.6773 16.0554 56.4356 15.3983 56.0426 14.8636C56.0425 14.8633 56.0501 14.8561 56.0498 14.8558L45.9124 1.34467L45.5804 0.901581C45.5795 0.900348 45.5708 0.909966 45.5694 0.909226C45.0375 0.348403 44.2967 0 43.4792 0ZM31.6199 6.83849H42.5709L49.9506 16.7437L42.4906 27.0226H31.5797L28.2274 22.5227L27.2534 21.2166L24.1781 17.0904L31.6199 6.83849Z" fill="#FF5733"/>
<path fill-rule="evenodd" clip-rule="evenodd" d="M43.1784 0.283459C43.1681 0.284695 43.1577 0.285315 43.1472 0.285315H30.3876C30.3508 0.312248 30.307 0.329181 30.2607 0.333969C29.4723 0.41556 28.7773 0.851922 28.338 1.52544C28.3192 1.55433 28.2945 1.57915 28.2654 1.59836C28.2542 1.60581 28.2435 1.61194 28.2355 1.61632L18.5974 14.8598C18.5963 14.8655 18.5947 14.8725 18.5925 14.8805C18.5815 14.9191 18.5612 14.9546 18.5332 14.984C18.026 15.5171 17.7081 16.2477 17.7081 17.0557C17.7081 17.7229 17.9309 18.3294 18.2948 18.8244C18.3088 18.8435 18.3199 18.8643 18.3279 18.8861L28.4235 32.3415L28.4236 32.3416L28.7073 32.7202C28.7219 32.7302 28.7354 32.7418 28.7476 32.7546C29.137 33.1651 29.6502 33.4409 30.2222 33.5372L43.746 33.518C44.5841 33.4744 45.3272 33.0194 45.7907 32.3087C45.8093 32.2802 45.8336 32.2556 45.8622 32.2365C45.8739 32.2287 45.8849 32.2224 45.8931 32.2179L55.4831 19.0373L55.4849 19.0349L55.5613 18.9324C55.5665 18.923 55.5723 18.914 55.5788 18.9052L55.7705 18.6448C55.7787 18.6243 55.7897 18.6047 55.8034 18.5866C56.1842 18.0835 56.4206 17.4611 56.4206 16.7783C56.4206 16.1112 56.1979 15.5046 55.834 15.0097C55.8246 14.9968 55.8164 14.9831 55.8096 14.9687C55.8063 14.9618 55.8035 14.9549 55.801 14.9482L45.7053 1.4927L45.7052 1.49257L45.4216 1.11404C45.4069 1.10394 45.3933 1.09235 45.3811 1.07944C44.8938 0.565709 44.2196 0.250547 43.4792 0.250547C43.4166 0.250547 43.3643 0.258 43.2951 0.267865C43.2613 0.272683 43.2235 0.278077 43.1784 0.283459ZM56.0498 14.8558C56.0501 14.8561 56.0425 14.8633 56.0426 14.8636C56.4356 15.3983 56.6773 16.0554 56.6773 16.7783C56.6773 17.4272 56.4802 18.0249 56.1551 18.5281C56.1203 18.5818 56.0842 18.6344 56.0466 18.6859C56.0347 18.7023 56.0226 18.7185 56.0104 18.7347C56.0102 18.7349 56.01 18.7352 56.0098 18.7355L56.017 18.7393L55.7872 19.0515C55.7873 19.0522 55.7872 19.0553 55.7872 19.0553L55.6924 19.1824L46.0692 32.4085C46.0608 32.4145 46.0489 32.4206 46.037 32.4267C46.0262 32.4323 46.0154 32.4378 46.0072 32.4433C45.5023 33.2175 44.6843 33.7224 43.7529 33.7686L30.2009 33.7878C29.5637 33.6855 28.9915 33.3805 28.5593 32.9248C28.5592 32.9248 28.5592 32.9248 28.5591 32.9248C28.5591 32.9248 28.5591 32.9248 28.559 32.9248C28.5583 32.9248 28.5567 32.9262 28.5548 32.9278C28.5547 32.9279 28.5546 32.928 28.5545 32.9281C28.5543 32.9283 28.5541 32.9285 28.5539 32.9287C28.5514 32.9309 28.5489 32.9331 28.5484 32.9325L18.0789 18.9782C18.0788 18.9781 18.081 18.9758 18.083 18.9738C18.0847 18.9721 18.0862 18.9706 18.0862 18.9705C17.6932 18.4358 17.4514 17.7788 17.4514 17.0557C17.4514 16.1827 17.795 15.3917 18.3451 14.8135C18.3453 14.8129 18.3442 14.8035 18.3432 14.7947C18.3422 14.7866 18.3413 14.779 18.3415 14.7788L28.0595 1.42554C28.068 1.4196 28.0799 1.41348 28.0918 1.40738C28.1026 1.40183 28.1133 1.3963 28.1215 1.3909C28.6001 0.656987 29.3628 0.17494 30.2337 0.0848185C30.2398 0.078635 30.2442 0.0706318 30.2486 0.0628462C30.2567 0.0484344 30.2643 0.0347679 30.2811 0.0347679H43.1472C43.1783 0.0310621 43.2091 0.0266946 43.2399 0.0223297C43.3187 0.0111566 43.3974 0 43.4792 0C44.2967 0 45.0375 0.348403 45.5694 0.909226C45.5695 0.909256 45.5696 0.909269 45.5697 0.909266C45.5697 0.909264 45.5697 0.909258 45.5698 0.909246C45.5706 0.909073 45.5722 0.907799 45.5738 0.906331C45.574 0.906236 45.5741 0.906141 45.5742 0.906046C45.5745 0.905795 45.5747 0.90554 45.575 0.905286C45.5775 0.903105 45.58 0.900958 45.5804 0.901581L56.0498 14.8558ZM28.2002 1.63487C28.2002 1.63488 28.2002 1.63486 28.2002 1.63487C28.1997 1.63515 28.1997 1.63517 28.2002 1.63487ZM45.9282 32.1994C45.9282 32.1994 45.9281 32.1994 45.9281 32.1995C45.9286 32.1992 45.9287 32.1991 45.9282 32.1994ZM55.8397 14.9997C55.8406 15.0011 55.8416 15.0024 55.8426 15.0037C55.8479 15.0108 55.8538 15.0179 55.8604 15.0248C55.8541 15.0182 55.8482 15.0112 55.8428 15.0039L55.8426 15.0037L55.8397 14.9997ZM31.4104 6.69364C31.4586 6.62734 31.5366 6.58794 31.6199 6.58794H42.5709C42.6531 6.58794 42.7302 6.6263 42.7785 6.69113L50.1582 16.5963C50.2229 16.6833 50.2237 16.8008 50.16 16.8885L42.7001 27.1674C42.652 27.2337 42.5739 27.2731 42.4906 27.2731H31.5797C31.4976 27.2731 31.4204 27.2347 31.3721 27.1699L28.0198 22.6701L28.0198 22.67L27.0458 21.364L23.9706 17.2378C23.9058 17.1508 23.905 17.0332 23.9687 16.9455L31.4104 6.69364ZM31.5797 27.0226H42.4906L49.9506 16.7437L42.5709 6.83849H31.6199L24.1781 17.0904L31.5797 27.0226Z" fill="#FFFEFF"/>
<path d="M42.8205 3.51904H30.523L21.0802 16.307L29.974 29.799H44.5773L53.6907 16.307L42.8205 3.51904Z" fill="#FF5733"/>
<path opacity="0.98982" d="M22.8005 0.0640243C22.8781 0.0572437 22.951 0.0332031 23.0304 0.0332031C23.0504 0.0332031 23.0686 0.0404784 23.0887 0.0408482C23.295 0.0408482 23.4959 0.0620532 23.6906 0.102491H23.6942C23.7006 0.103847 23.706 0.1089 23.7124 0.110256C24.6639 0.31158 25.4555 0.926897 25.8136 1.82848C25.9913 2.22077 26.0946 2.65461 26.0946 3.11533C26.0946 3.41109 26.0431 3.69218 25.9669 3.96291C25.9538 4.00939 25.9419 4.05611 25.9267 4.1016C25.8692 4.27445 25.7967 4.43731 25.7115 4.59474C25.6576 4.70188 25.6021 4.81432 25.6021 4.81432L16.7012 17.0773L25.416 28.774C25.4345 28.7986 25.4439 28.8291 25.4416 28.8587C25.8507 29.3829 26.1055 30.042 26.1055 30.7696C26.1055 32.3785 24.9035 33.6829 23.3842 33.7979C23.3803 33.7993 23.3737 33.8003 23.3696 33.8017C23.3033 33.8064 23.24 33.8209 23.1725 33.8209C22.3552 33.8209 21.6143 33.4726 21.0823 32.9117L21.0714 32.9194L20.7395 32.4764L17.139 27.676L14.8919 24.6864L10.6019 18.9651L10.6092 18.9574C10.2162 18.4226 9.97449 17.7656 9.97449 17.0427C9.97449 16.3538 10.1939 15.7197 10.5545 15.1972L10.5508 15.1934L10.8646 14.7657L10.901 14.7157L17.0878 6.21668L20.5826 1.41239C20.5845 1.41116 20.5877 1.40993 20.5898 1.40857C20.8364 1.03193 21.1651 0.721997 21.5456 0.487756C21.5761 0.469017 21.6093 0.455455 21.6404 0.437702C21.7807 0.358306 21.9254 0.289636 22.0782 0.233541C22.1367 0.212089 22.1969 0.193474 22.257 0.175721C22.4131 0.129613 22.573 0.095465 22.7385 0.0756162C22.7598 0.0731505 22.779 0.0658736 22.8005 0.0640243Z" fill="#000002"/>
<path opacity="0.98982" fill-rule="evenodd" clip-rule="evenodd" d="M22.8081 0.147207L22.808 0.147217C22.8043 0.147542 22.7996 0.148423 22.7892 0.150837L22.787 0.151369C22.778 0.153465 22.7639 0.156758 22.7488 0.158525C22.5886 0.177751 22.4335 0.210841 22.2818 0.255656C22.2222 0.273254 22.1641 0.291245 22.1083 0.311719C21.9605 0.365972 21.8202 0.432525 21.6835 0.509839C21.6674 0.519017 21.6509 0.527214 21.6369 0.534131C21.6351 0.535034 21.6333 0.535916 21.6316 0.536775C21.6157 0.544695 21.6029 0.551263 21.5913 0.558398C21.2207 0.786475 20.9013 1.08785 20.6619 1.45354C20.6567 1.46158 20.65 1.46867 20.6423 1.4745L17.1576 6.26503L10.9708 14.7641L10.9343 14.8141L10.9341 14.8144L10.6371 15.2193C10.6347 15.2279 10.6308 15.2362 10.6255 15.2439C10.2738 15.7534 10.06 16.3714 10.06 17.0427C10.06 17.747 10.2955 18.3872 10.6787 18.9088C10.6871 18.9202 10.6922 18.9332 10.694 18.9464L14.9608 24.637L14.9609 24.637L17.208 27.6266L20.8085 32.427L21.1132 32.8338C21.125 32.8382 21.136 32.8453 21.1451 32.8549C21.6622 33.4002 22.3809 33.7374 23.1725 33.7374C23.2003 33.7374 23.2283 33.7344 23.2602 33.7303C23.2658 33.7295 23.2715 33.7288 23.2774 33.728C23.3015 33.7248 23.3282 33.7212 23.3552 33.719C23.3562 33.7188 23.3571 33.7186 23.3576 33.7185L23.3577 33.7184C23.3641 33.7164 23.3708 33.7151 23.3776 33.7146C24.8488 33.6033 26.0199 32.3384 26.0199 30.7696C26.0199 30.0614 25.7721 29.4199 25.3735 28.9093C25.3608 28.893 25.3547 28.8727 25.3563 28.8523C25.3569 28.8439 25.3542 28.833 25.3469 28.8232L25.3468 28.8231L16.632 17.1265C16.6104 17.0975 16.6102 17.0583 16.6314 17.0291L25.5281 4.77175L25.5346 4.75877C25.5406 4.74652 25.5493 4.72908 25.5596 4.70829C25.5802 4.66671 25.6076 4.61167 25.6347 4.55791C25.6351 4.55718 25.6354 4.55645 25.6358 4.55573C25.719 4.40208 25.7895 4.24363 25.8454 4.07579C25.8559 4.0442 25.8646 4.01266 25.8739 3.9787C25.8773 3.96643 25.8807 3.95383 25.8844 3.9408C25.9592 3.67499 26.009 3.40156 26.009 3.11533C26.009 2.66697 25.9085 2.24459 25.7354 1.86225C25.7348 1.86107 25.7343 1.85987 25.7338 1.85867C25.3869 0.985179 24.6198 0.387717 23.6943 0.191882M25.6021 4.81432L16.7012 17.0773L25.416 28.774C25.4345 28.7986 25.4439 28.8291 25.4416 28.8587C25.8507 29.3829 26.1055 30.042 26.1055 30.7696C26.1055 32.3785 24.9035 33.6829 23.3842 33.7979C23.3821 33.7987 23.3792 33.7993 23.3763 33.8C23.3739 33.8005 23.3715 33.801 23.3696 33.8017C23.3428 33.8036 23.3164 33.8071 23.2901 33.8106C23.2514 33.8157 23.2127 33.8209 23.1725 33.8209C22.3552 33.8209 21.6143 33.4726 21.0823 32.9117L21.0714 32.9194L14.8919 24.6864L10.6019 18.9651L10.6092 18.9574C10.2162 18.4226 9.97449 17.7656 9.97449 17.0427C9.97449 16.3538 10.1939 15.7197 10.5545 15.1972L10.5508 15.1934L10.8646 14.7657L20.5826 1.41239C20.5835 1.41178 20.5848 1.41117 20.5861 1.41054C20.5874 1.40991 20.5888 1.40925 20.5898 1.40857C20.8364 1.03193 21.1651 0.721997 21.5456 0.487756C21.5626 0.477317 21.5804 0.468485 21.5982 0.45964C21.6124 0.452607 21.6266 0.445565 21.6404 0.437702C21.7807 0.358306 21.9254 0.289636 22.0782 0.233541C22.1367 0.212089 22.1969 0.193486 22.257 0.175733C22.4131 0.129625 22.573 0.095465 22.7385 0.0756162C22.7485 0.0744571 22.7581 0.0722349 22.7676 0.070013C22.7784 0.0675084 22.7891 0.0650043 22.8005 0.0640243C22.833 0.0611891 22.8646 0.055336 22.8962 0.0494847C22.9402 0.0413423 22.9842 0.0332031 23.0304 0.0332031C23.0406 0.0332031 23.0504 0.0351134 23.0603 0.0370259C23.0696 0.0388459 23.0789 0.0406679 23.0887 0.0408482C23.295 0.0408482 23.4959 0.0620532 23.6906 0.102491H23.6942C23.6974 0.103169 23.7004 0.104771 23.7033 0.106373C23.7063 0.107976 23.7092 0.109578 23.7124 0.110256C24.6639 0.31158 25.4555 0.926897 25.8136 1.82848C25.9913 2.22077 26.0946 2.65461 26.0946 3.11533C26.0946 3.41109 26.0431 3.69218 25.9669 3.96291C25.9636 3.97478 25.9603 3.98667 25.957 3.99855C25.9475 4.03317 25.938 4.06773 25.9267 4.1016C25.8692 4.27445 25.7967 4.43731 25.7115 4.59474C25.6576 4.70188 25.6021 4.81432 25.6021 4.81432ZM23.67 0.183598C23.482 0.144741 23.288 0.124364 23.0887 0.124364L23.0871 0.124349C23.0694 0.124022 23.0532 0.120834 23.0446 0.119132L23.0428 0.118787C23.0378 0.117822 23.0351 0.117321 23.0328 0.116991C23.031 0.116736 23.0303 0.116719 23.0303 0.116718C22.999 0.116718 22.9675 0.121453 22.9304 0.128183C22.9249 0.129187 22.9191 0.130252 22.9132 0.13135C22.8817 0.137205 22.8452 0.143971 22.8081 0.147207M23.67 0.183598C23.6705 0.183851 23.6711 0.184104 23.6716 0.184356C23.6767 0.186672 23.6845 0.189809 23.6943 0.191882" fill="#000002"/>
<path fill-rule="evenodd" clip-rule="evenodd" d="M3.23934 0.0454102C3.19405 0.0454102 3.15938 0.0558863 3.1226 0.0646396C3.10883 0.064393 3.09634 0.0608208 3.08245 0.0608208C1.40371 0.0608208 0.0452924 1.45554 0.0145916 3.18523H0.00735458V3.24305V3.45116C0.00630399 3.46176 0.0036194 3.46977 0.0036194 3.48198V7.97028V8.97962V25.8928V27.5956V29.3178V30.5584C0.0036194 30.5661 0.00712112 30.5701 0.00735458 30.5776C0.00688765 30.5987 0 30.6181 0 30.6393C0 32.3966 1.37348 33.8216 3.07159 33.8215C3.11152 33.8215 3.14875 33.8115 3.18832 33.8101C3.18961 33.8101 3.19054 33.8101 3.19194 33.8101H8.27344H18.1811H23.208C23.2717 33.8101 23.3281 33.7983 23.3721 33.7831C23.3057 33.7877 23.2389 33.8023 23.1715 33.8023C22.3536 33.8023 21.6134 33.454 21.0813 32.8931C21.0799 32.8923 21.0712 32.9021 21.0703 32.9008L20.7383 32.4577L17.1379 27.6573H10.1813H6.63918H5.82941V26.7596V23.6853V10.2819V6.19806H8.29539H17.0868L20.5815 1.39377C20.5976 1.38243 20.6263 1.37047 20.6435 1.35913C21.1304 0.612764 21.9095 0.122586 22.7994 0.0454102H19.8519H6.66837H3.23934Z" fill="#000002"/>
<path fill-rule="evenodd" clip-rule="evenodd" d="M3.18342 0.308052C3.16198 0.313155 3.13996 0.315539 3.1179 0.315144C3.10391 0.314894 3.09202 0.313831 3.08343 0.312877C3.07902 0.312386 3.07474 0.311833 3.07147 0.311389C1.55241 0.317474 0.299709 1.58559 0.27124 3.18957C0.270904 3.20848 0.268429 3.22687 0.264041 3.24452V3.45116C0.264041 3.45921 0.263644 3.46726 0.262849 3.47528C0.262063 3.4832 0.261098 3.49003 0.260306 3.4951V30.5336C0.260713 30.5361 0.261102 30.5386 0.261463 30.5411C0.262732 30.5502 0.263608 30.5599 0.263924 30.5701C0.264058 30.5744 0.264077 30.5787 0.263981 30.5831C0.263591 30.6007 0.261911 30.6158 0.260358 30.6269C0.259052 30.6363 0.257468 30.6453 0.256704 30.6496C0.262045 32.2781 1.5328 33.5711 3.07159 33.571C3.07133 33.571 3.07431 33.571 3.09381 33.5683L3.09845 33.5677C3.11488 33.5653 3.14589 33.5609 3.1785 33.5597C3.18177 33.5596 3.18505 33.5595 3.18832 33.5595H21.4925C21.2965 33.4339 21.1148 33.2871 20.9505 33.1224C20.9164 33.1049 20.8868 33.08 20.8639 33.0498L20.8631 33.0487L20.5312 32.6057L20.5311 32.6056L17.0077 27.9078H5.82941C5.68764 27.9078 5.57272 27.7957 5.57272 27.6573V6.19806C5.57272 6.05969 5.68764 5.94752 5.82941 5.94752H16.9542L20.3722 1.24872C20.3885 1.22631 20.4085 1.20666 20.4314 1.19058C20.4432 1.18225 20.4544 1.17549 20.4629 1.17063C20.7009 0.820813 21.0004 0.52406 21.3448 0.295957H3.23934C3.2378 0.295957 3.23522 0.296029 3.22836 0.297376C3.22439 0.298154 3.21945 0.299261 3.21186 0.301101C3.20797 0.302044 3.20417 0.302988 3.19924 0.304204C3.1946 0.305349 3.18914 0.306691 3.18342 0.308052ZM3.23934 0.0454102C3.20066 0.0454102 3.16973 0.0530484 3.13863 0.0607301C3.13331 0.0620446 3.12798 0.0633605 3.1226 0.0646396C3.11597 0.0645207 3.10963 0.0636295 3.10328 0.062738C3.09647 0.0617796 3.08965 0.0608208 3.08245 0.0608208C1.40371 0.0608208 0.0452924 1.45554 0.0145916 3.18523H0.00735458V3.45116C0.0069563 3.45517 0.00632317 3.45882 0.0056905 3.46247C0.00465433 3.46844 0.0036194 3.4744 0.0036194 3.48198V30.5584C0.0036194 30.5624 0.00454889 30.5653 0.00548204 30.5683C0.0063601 30.5712 0.0072414 30.574 0.00735458 30.5776C0.0071293 30.5878 0.00540937 30.5976 0.00368951 30.6074C0.00184472 30.6178 0 30.6283 0 30.6393C0 32.3966 1.37348 33.8216 3.07159 33.8215C3.09314 33.8215 3.11391 33.8186 3.13468 33.8157C3.15239 33.8132 3.17011 33.8107 3.18832 33.8101H23.208C23.2717 33.8101 23.3281 33.7983 23.3721 33.7831C23.3455 33.7849 23.3188 33.7884 23.292 33.7919C23.2641 33.7955 23.2361 33.7991 23.208 33.801C23.1959 33.8018 23.1837 33.8023 23.1715 33.8023C22.7638 33.8023 22.3755 33.7158 22.0226 33.5595C21.6674 33.4023 21.3482 33.1744 21.0813 32.8931C21.0813 32.8931 21.0812 32.8931 21.0813 32.8931C21.0812 32.8931 21.0811 32.893 21.0811 32.893C21.0803 32.893 21.0784 32.8946 21.0764 32.8964C21.0763 32.8965 21.0762 32.8966 21.0761 32.8967C21.0735 32.899 21.0708 32.9015 21.0703 32.9008L20.919 32.699L20.9187 32.6985L17.1379 27.6573H5.82941V6.19806H17.0868L20.5815 1.39377C20.59 1.38783 20.6019 1.38172 20.6138 1.37561C20.6246 1.37007 20.6353 1.36453 20.6435 1.35913C20.9488 0.89112 21.369 0.523841 21.8594 0.295957C22.151 0.16042 22.4675 0.0741929 22.7994 0.0454102H3.23934ZM0.251048 30.4954C0.250984 30.4952 0.251011 30.4953 0.251104 30.4956Z" fill="#FFFEFF"/>
<path fill-rule="evenodd" clip-rule="evenodd" d="M36.2885 12.8447C36.1677 12.8447 36.0697 12.94 36.0697 13.0602V14.0844C35.5339 14.1601 35.1212 14.5951 35.0351 15.1666H34.0254C33.9116 15.1666 33.8215 15.2702 33.8215 15.3978C33.8215 15.5253 33.9116 15.6289 34.0254 15.6289H34.9953V16.3485H34.0254C33.9116 16.3485 33.8164 16.452 33.8164 16.5796C33.8164 16.7072 33.9116 16.8108 34.0254 16.8108H34.9953V17.4937H34.0254C33.9116 17.4937 33.8215 17.5973 33.8215 17.7249C33.8215 17.8523 33.9116 17.956 34.0254 17.956H35.03C35.111 18.5344 35.5295 18.9775 36.0697 19.0538V20.1675C36.0697 20.2876 36.1677 20.3828 36.2885 20.3828C36.4091 20.3828 36.5073 20.2876 36.5073 20.1675V19.0853H37.1887V20.1675C37.1887 20.2876 37.2868 20.388 37.4076 20.388C37.5284 20.388 37.6264 20.2876 37.6264 20.1675V19.0853H38.2729V20.1675C38.2729 20.2876 38.3711 20.388 38.4918 20.388C38.6126 20.388 38.7106 20.2876 38.7106 20.1675V19.059C39.265 18.996 39.6925 18.545 39.7751 17.956H40.7549C40.8687 17.956 40.9588 17.8523 40.9588 17.7249C40.9588 17.5973 40.8687 17.4937 40.7549 17.4937H39.81V16.8108H40.7549C40.8687 16.8108 40.9588 16.7072 40.9588 16.5796C40.9588 16.452 40.8687 16.3485 40.7549 16.3485H39.81V15.6289H40.7549C40.8687 15.6289 40.9639 15.5253 40.9639 15.3978C40.9639 15.2702 40.8687 15.1666 40.7549 15.1666H39.7702C39.6823 14.5845 39.2604 14.1417 38.7106 14.0792V13.0602C38.7106 12.94 38.6126 12.8447 38.4918 12.8447C38.3711 12.8447 38.2729 12.94 38.2729 13.0602V14.053H37.6264V13.0602C37.6264 12.94 37.5284 12.8447 37.4076 12.8447C37.2868 12.8447 37.1887 12.94 37.1887 13.0602V14.053H36.5073V13.0602C36.5073 12.94 36.4091 12.8447 36.2885 12.8447Z" fill="white"/>
<path fill-rule="evenodd" clip-rule="evenodd" d="M36.0697 13.0603C36.0697 12.9401 36.1677 12.8447 36.2886 12.8447C36.4092 12.8447 36.5075 12.9401 36.5075 13.0603V14.053H37.1887V13.0603C37.1887 12.9401 37.2868 12.8447 37.4076 12.8447C37.5285 12.8447 37.6265 12.9401 37.6265 13.0603V14.053H38.2729V13.0603C38.2729 12.9401 38.3712 12.8447 38.4918 12.8447C38.6127 12.8447 38.7107 12.9401 38.7107 13.0603V14.0792C39.2605 14.1418 39.6824 14.5845 39.7703 15.1666H40.755C40.8688 15.1666 40.964 15.2702 40.964 15.3978C40.964 15.5254 40.8688 15.629 40.755 15.629H39.8101V16.3485H40.755C40.8688 16.3485 40.9589 16.4521 40.9589 16.5797C40.9589 16.7073 40.8688 16.8109 40.755 16.8109H39.8101V17.4937H40.755C40.8688 17.4937 40.9589 17.5973 40.9589 17.7249C40.9589 17.8524 40.8688 17.9561 40.755 17.9561H39.7752C39.6926 18.5451 39.2651 18.9961 38.7107 19.0591V20.1675C38.7107 20.2877 38.6127 20.3881 38.4918 20.3881C38.3712 20.3881 38.2729 20.2877 38.2729 20.1675V19.0854H37.6265V20.1675C37.6265 20.2877 37.5285 20.3881 37.4076 20.3881C37.2868 20.3881 37.1887 20.2877 37.1887 20.1675V19.0854H36.5075V20.1675C36.5075 20.2877 36.4092 20.3829 36.2886 20.3829C36.1677 20.3829 36.0697 20.2877 36.0697 20.1675V19.0539C35.5295 18.9776 35.1111 18.5345 35.03 17.9561H34.0254C33.9116 17.9561 33.8215 17.8524 33.8215 17.7249C33.8215 17.5973 33.9116 17.4937 34.0254 17.4937H34.9953V16.8109H34.0254C33.9116 16.8109 33.8164 16.7073 33.8164 16.5797C33.8164 16.4521 33.9116 16.3485 34.0254 16.3485H34.9953V15.629H34.0254C33.9116 15.629 33.8215 15.5254 33.8215 15.3978C33.8215 15.2702 33.9116 15.1666 34.0254 15.1666H35.0351C35.1212 14.5951 35.5339 14.1601 36.0697 14.0844V13.0603ZM34.9954 15.6289V16.3486L34.0254 16.3486C33.9117 16.3486 33.8165 16.4521 33.8165 16.5797C33.8165 16.7072 33.9117 16.8108 34.0254 16.8108H34.9954L34.9954 17.4938L34.0254 17.4938C33.9117 17.4938 33.8216 17.5974 33.8216 17.7249C33.8216 17.8523 33.9117 17.956 34.0254 17.956H35.0305H35.0301C35.1111 18.5344 35.5296 18.9775 36.0697 19.0538L36.0698 20.1675C36.0698 20.2877 36.1678 20.3828 36.2886 20.3828C36.4092 20.3828 36.5073 20.2877 36.5073 20.1675V19.0853L37.1888 19.0853L37.1888 20.1675C37.1888 20.2877 37.2869 20.388 37.4076 20.388C37.5284 20.388 37.6264 20.2877 37.6264 20.1675V19.0853L38.273 19.0853L38.2731 20.1675C38.2731 20.2877 38.3712 20.388 38.4918 20.388C38.6126 20.388 38.7106 20.2877 38.7106 20.1675V19.0586V19.0591C39.265 18.9961 39.6925 18.545 39.7751 17.956L40.755 17.956C40.8687 17.956 40.9588 17.8523 40.9588 17.7249C40.9588 17.5974 40.8687 17.4938 40.755 17.4938H39.81L39.81 16.8108L40.755 16.8108C40.8687 16.8108 40.9588 16.7072 40.9588 16.5797C40.9588 16.4521 40.8687 16.3486 40.755 16.3486H39.81L39.81 15.6289L40.755 15.6289C40.8687 15.6289 40.9639 15.5254 40.9639 15.3978C40.9639 15.2703 40.8687 15.1667 40.755 15.1667H39.7698H39.7702C39.6824 14.5846 39.2604 14.1419 38.7107 14.0793L38.7106 13.0603C38.7106 12.9401 38.6126 12.8448 38.4918 12.8448C38.3712 12.8448 38.2731 12.9401 38.2731 13.0603V14.0531L37.6265 14.0531L37.6264 13.0603C37.6264 12.9401 37.5284 12.8448 37.4076 12.8448C37.2869 12.8448 37.1888 12.9401 37.1888 13.0603V14.0531L36.5074 14.0531L36.5073 13.0603C36.5073 12.9401 36.4092 12.8448 36.2886 12.8448C36.1678 12.8448 36.0698 12.9401 36.0698 13.0603V14.0849V14.0845C35.5341 14.1601 35.1213 14.5952 35.0352 15.1667L34.0254 15.1667C33.9117 15.1667 33.8216 15.2703 33.8216 15.3978C33.8216 15.5254 33.9117 15.6289 34.0254 15.6289L34.9954 15.6289Z" fill="#000002"/>
<path fill-rule="evenodd" clip-rule="evenodd" d="M34.3291 3.51904C33.847 3.51904 33.4537 3.90331 33.4537 4.37532C33.4537 4.81421 33.7996 5.16251 34.2345 5.21058L34.737 7.30118C34.8115 7.7979 34.6944 8.12451 34.5877 8.37279C34.4341 8.61367 34.2384 8.72915 34.0505 8.7668C33.8527 8.74932 33.538 8.73235 33.2796 8.37817L33.001 7.87909C33.1147 7.73487 33.1896 7.56055 33.1901 7.36422C33.1901 6.89238 32.8019 6.51332 32.3197 6.51332C31.8376 6.51332 31.4443 6.89238 31.4443 7.36422C31.4443 7.83623 31.8369 8.22049 32.3197 8.22049C32.3712 8.22049 32.4153 8.19797 32.4639 8.18906L32.8419 8.86665C32.9223 9.17275 32.8581 9.42574 32.7623 9.60728C32.6303 9.70276 32.5111 9.81504 32.3843 9.91724C32.1551 9.97826 31.7605 10.0684 31.3946 9.77537L29.793 8.04719C29.8471 7.93591 29.8826 7.81017 29.8826 7.6794C29.8826 7.20755 29.4899 6.8285 29.0072 6.8285C28.5249 6.8285 28.1367 7.20755 28.1367 7.6794C28.1367 8.15141 28.5245 8.53567 29.0072 8.53567C29.1189 8.53567 29.226 8.50895 29.3255 8.47264L30.9071 10.1746C31.0381 10.4894 31.044 10.7908 31.0166 11.0623C31.016 11.0685 31.0122 11.0721 31.0115 11.0781C31.0009 11.4437 30.824 11.5974 30.6485 11.6717C30.4729 11.711 30.2867 11.7365 30.0865 11.7033L29.5643 11.3881C29.5665 11.3625 29.5797 11.3407 29.5791 11.3145C29.5791 10.8426 29.1913 10.4583 28.7088 10.4583C28.2265 10.4583 27.8334 10.8426 27.8334 11.3145C27.8334 11.7865 28.226 12.1655 28.7088 12.1655C28.9244 12.1655 29.1133 12.0823 29.2658 11.9554L29.7831 12.2706C29.9093 12.4272 29.9572 12.6096 29.972 12.7907C29.9575 12.9532 29.9324 13.2114 29.8278 13.4262C29.5931 13.5809 29.2811 13.7705 28.8729 13.7992L26.764 13.2319C26.7239 12.7962 26.3589 12.4545 25.9035 12.4545C25.4213 12.4545 25.0331 12.8334 25.0331 13.3054C25.0331 13.7774 25.4208 14.1616 25.9035 14.1616C26.1752 14.1616 26.4098 14.0371 26.5699 13.8465L28.6987 14.419C29.0483 14.6005 29.2601 14.8883 29.415 15.123C29.457 15.3403 29.4996 15.6967 29.1514 16.0579C29.0535 16.1163 28.9696 16.1864 28.853 16.226L28.1517 16.2156C28.0191 15.9088 27.7064 15.6908 27.3459 15.6903C26.8638 15.6903 26.4705 16.0746 26.4705 16.5464C26.4705 17.0184 26.8631 17.4027 27.3459 17.4027C27.7134 17.4027 28.0279 17.1769 28.1566 16.8616L28.7584 16.867C29.0508 17.0403 29.2359 17.2812 29.3801 17.5025C29.4247 17.6572 29.4285 17.8367 29.4051 18.0226C29.2523 18.2423 29.0561 18.4931 28.7435 18.6686L26.6346 19.2045C26.4745 19.0147 26.2446 18.8846 25.9731 18.8841C25.491 18.8841 25.1026 19.2684 25.1026 19.7402C25.1026 20.2122 25.4904 20.5965 25.9731 20.5965C26.4245 20.5965 26.7824 20.2544 26.8286 19.8243L29.1713 19.2255C29.4022 19.2951 29.5757 19.4139 29.7333 19.5355C29.758 19.5708 29.7661 19.614 29.778 19.6562C29.7855 19.7031 29.7863 19.774 29.793 19.8296C29.7898 19.9969 29.7546 20.167 29.6935 20.3339C29.75 21.1427 30.2435 21.6051 30.5305 21.6051C30.8174 21.6051 31.1028 21.7637 31.2006 22.0831C31.2842 22.3562 31.1471 22.5568 31.0365 22.7975L29.2857 24.5573C29.2743 24.5688 29.2805 24.5866 29.2708 24.5993C29.1926 24.5768 29.1121 24.5519 29.0271 24.5519C28.5448 24.5519 28.1566 24.9362 28.1566 25.4082C28.1566 25.8802 28.5443 26.2593 29.0271 26.2593C29.5092 26.2593 29.9025 25.8802 29.9025 25.4082C29.9025 25.2465 29.8429 25.1013 29.7632 24.9722L31.5288 23.1968C31.6294 23.141 31.7303 23.1075 31.8323 23.0759C32.0449 23.0431 32.2894 23.0648 32.5137 23.2072C32.673 23.4494 32.8135 23.7478 32.832 24.1161L32.439 24.9091C32.4097 24.9063 32.3841 24.893 32.3545 24.8935C31.8723 24.8935 31.4791 25.2778 31.4791 25.7496C31.4791 26.2216 31.8718 26.6059 32.3545 26.6059C32.8366 26.6059 33.225 26.2216 33.225 25.7496C33.225 25.5294 33.1354 25.3339 32.9961 25.1823L33.3591 24.4523C33.8591 24.0517 34.3362 24.3331 34.4983 24.3472C34.5287 24.36 34.5578 24.3749 34.5877 24.3892C34.7735 24.6004 34.8562 24.8283 34.8663 25.03L34.2197 27.8404C33.7763 27.8812 33.4242 28.2363 33.4239 28.6809C33.4239 29.1529 33.8171 29.5318 34.2993 29.5318C34.7814 29.5318 35.1696 29.1529 35.1696 28.6809C35.1696 28.4007 35.0238 28.1643 34.8115 28.0085L35.4432 25.2663C35.6538 24.9876 35.9053 24.8888 36.1196 24.8671C36.3169 24.9016 36.5203 24.9154 36.7214 24.9355C36.9398 25.1315 37.0348 25.3618 37.0746 25.5553L37.0796 26.338C36.7396 26.4548 36.4927 26.758 36.4927 27.1312C36.4927 27.6032 36.8859 27.9875 37.3681 27.9875C37.8502 27.9875 38.2386 27.6032 38.2386 27.1312C38.2386 26.7738 38.0149 26.4761 37.6963 26.3485L37.6864 25.4292C37.738 25.2621 37.8208 25.1443 37.9102 25.0458C37.989 24.9885 38.0672 24.947 38.144 24.9197C38.2792 24.9041 38.413 24.8817 38.5469 24.8619C38.6344 24.8732 38.7052 24.8819 38.7757 24.9039C39.1759 25.1171 39.2959 25.5156 39.3775 25.6289L39.845 28.0243C39.6588 28.1809 39.5313 28.4054 39.5318 28.6651C39.5318 29.1371 39.9249 29.5213 40.4071 29.5213C40.8892 29.5213 41.2774 29.1371 41.2774 28.6651C41.2774 28.2018 40.9023 27.8327 40.432 27.8194L39.9098 25.1246C39.9465 24.8142 40.0782 24.6234 40.2031 24.4837C40.3175 24.3706 40.4356 24.2976 40.5513 24.2578C40.5711 24.2487 40.591 24.2411 40.611 24.2316C40.7407 24.1976 40.8627 24.1973 40.9741 24.2105C41.0812 24.2692 41.1929 24.3287 41.2676 24.3996L41.6804 25.093C41.548 25.2428 41.4562 25.4314 41.4565 25.6446C41.4565 26.1166 41.8498 26.5008 42.3319 26.5008C42.8142 26.5008 43.2023 26.1166 43.2023 25.6446C43.2023 25.1726 42.8142 24.7937 42.3319 24.7937C42.2972 24.7937 42.2658 24.8056 42.2324 24.8095L41.8345 24.1265C41.7804 23.986 41.7632 23.8685 41.7699 23.7641C41.7702 23.758 41.774 23.7543 41.7748 23.7483C42.0167 23.1815 42.5106 23.1119 42.7448 23.0549H42.7497C42.8915 23.0675 43.0184 23.1011 43.1178 23.1495L44.9681 25.0196C44.9151 25.1297 44.8785 25.2468 44.8785 25.3768C44.8785 25.8486 45.2718 26.2329 45.7539 26.2329C46.2361 26.2329 46.6243 25.8488 46.6243 25.3768C46.6243 24.9048 46.2361 24.5257 45.7539 24.5257C45.6388 24.5257 45.5267 24.5491 45.4257 24.5888L43.645 22.7869C43.4298 22.379 43.5348 22.0105 43.6152 21.789C43.7055 21.6689 43.7981 21.5503 43.8837 21.4265C44.1837 21.2645 44.4842 21.3064 44.6596 21.3319L45.1919 21.7101C45.1818 21.7619 45.1565 21.8085 45.157 21.8624C45.157 22.3344 45.5503 22.7187 46.0324 22.7187C46.5147 22.7187 46.9029 22.3344 46.9029 21.8624C46.9029 21.3906 46.5147 21.0115 46.0324 21.0115C45.8457 21.0115 45.6819 21.0814 45.5401 21.1796L44.9382 20.7542C44.6923 20.4277 44.6966 20.0971 44.7392 19.8611C44.7718 19.7742 44.8104 19.6906 44.8438 19.6037C45.1917 19.2694 45.595 19.3153 45.759 19.299L47.9474 19.8559C47.9684 20.3094 48.3388 20.6758 48.8079 20.6753C49.29 20.6753 49.6833 20.2911 49.6833 19.8191C49.6833 19.347 49.29 18.9628 48.8079 18.9628C48.5532 18.9628 48.3309 19.0762 48.1712 19.2465L45.8732 18.6634C45.4784 18.4583 45.37 18.1154 45.3262 17.865C45.352 17.6557 45.3929 17.4518 45.4107 17.2398C45.6195 16.9924 45.8758 16.9061 46.0574 16.867H46.6492C46.7927 17.1465 47.0841 17.3454 47.4251 17.3449C47.9073 17.3449 48.2955 16.9608 48.2955 16.4888C48.2955 16.0167 47.9073 15.6325 47.4251 15.6325C47.0404 15.6325 46.7208 15.8826 46.6044 16.2208L46.0076 16.2156C45.7564 16.1576 45.5888 16.0273 45.4704 15.8794V15.874C45.3771 15.6903 45.341 15.5229 45.3461 15.3697C45.3501 15.2509 45.3899 15.1645 45.4207 15.0704L45.4257 15.0756C45.4701 14.8018 45.5893 14.6589 45.7042 14.5661C45.9648 14.4183 46.2349 14.3877 46.2861 14.3297L48.1464 13.8569C48.3063 14.0368 48.5352 14.1564 48.7978 14.1564C49.2801 14.1564 49.6683 13.7722 49.6683 13.3002C49.6683 12.8281 49.2801 12.4491 48.7978 12.4491C48.3366 12.4491 47.9643 12.7987 47.9325 13.2423L45.9231 13.7518C45.3822 13.7486 45.0442 13.5207 44.8338 13.337C44.8282 13.3232 44.8244 13.3084 44.8188 13.2949C44.6501 12.8814 44.762 12.5542 44.8785 12.3336L45.5202 11.9658C45.6622 12.0638 45.8256 12.1287 46.0125 12.1287C46.4948 12.1287 46.8879 11.7498 46.8879 11.2778C46.8879 10.8058 46.4948 10.4215 46.0125 10.4215C45.5304 10.4215 45.1422 10.8058 45.1422 11.2778C45.1422 11.3321 45.1621 11.3787 45.172 11.4301L44.6299 11.7453C44.3085 11.7987 44.0604 11.7022 43.8888 11.572C43.8286 11.4948 43.7725 11.4143 43.7147 11.3355C43.4492 10.7381 43.7994 10.3094 43.8589 10.1378L45.4605 8.51466C45.5753 8.56912 45.7023 8.60392 45.8385 8.60392C46.3206 8.60392 46.7088 8.22503 46.7088 7.75302C46.7088 7.28101 46.3206 6.89675 45.8385 6.89675C45.3563 6.89675 44.9631 7.28101 44.9631 7.75302C44.9631 7.86161 44.9894 7.96096 45.0278 8.05761L43.3317 9.77016C42.909 10.0934 42.53 9.94751 42.2972 9.849C42.2868 9.84077 42.2776 9.83051 42.2673 9.82261C41.9326 9.51348 41.9127 9.15931 41.9391 8.89809L42.2972 8.22049C42.3327 8.22486 42.3653 8.24201 42.4016 8.24151C42.8837 8.24151 43.2721 7.85724 43.2721 7.38523C43.2721 6.91339 42.8837 6.52912 42.4016 6.52912C41.9193 6.52912 41.5262 6.91339 41.5262 7.38523C41.5262 7.59871 41.6134 7.78715 41.7451 7.93692L41.5611 8.28353C41.4996 8.3938 41.4271 8.47331 41.3521 8.54088C41.304 8.6014 41.2472 8.61636 41.1929 8.65133C41.0844 8.71335 40.9943 8.74041 40.8945 8.76159C40.6903 8.76747 40.5603 8.71772 40.4917 8.68276C40.2004 8.48709 40.1051 8.23613 40.0589 8.01559C40.0295 7.77874 40.0261 7.62964 40.0291 7.44827L40.5712 5.20538C40.9999 5.15091 41.3378 4.80968 41.3371 4.37532C41.3371 3.90331 40.944 3.51904 40.4617 3.51904C39.9796 3.51904 39.5914 3.90331 39.5914 4.37532C39.5914 4.66226 39.7428 4.90432 39.9644 5.05829L39.3874 7.43784C39.2442 7.82328 38.9855 7.96634 38.8055 8.06299C38.7048 8.0919 38.6005 8.13661 38.512 8.13123C38.502 8.12972 38.4924 8.12754 38.4822 8.12603C38.4144 8.1193 38.3629 8.08787 38.3032 8.0682C38.1058 7.96986 37.8625 7.80748 37.7461 7.43784V6.69722C38.0447 6.5614 38.254 6.26807 38.2534 5.92499C38.2534 5.45298 37.8652 5.06871 37.3831 5.06871C36.9008 5.06871 36.5077 5.45298 36.5077 5.92499C36.5077 6.30976 36.7722 6.62107 37.1294 6.72865V7.35379C37.0558 7.72293 36.8548 7.89842 36.6618 8.01559C36.5914 8.06148 36.5188 8.10602 36.448 8.11543C36.4279 8.11846 36.4082 8.12283 36.3883 8.12603C36.2855 8.12737 36.1889 8.103 36.0998 8.0682H36.0948C35.9057 7.92515 35.5541 7.69957 35.3339 7.13847L34.8314 5.05291C35.0493 4.89759 35.1995 4.6594 35.1995 4.37532C35.1995 3.90331 34.8113 3.51904 34.3291 3.51904ZM37.3532 10.8838C37.6578 10.8381 37.8723 11.1585 37.9102 11.2148C38.0702 11.4205 38.3032 11.5984 38.6016 11.7033C38.9709 11.8339 39.3252 11.8122 39.6013 11.6927C39.6358 11.6844 39.6607 11.6907 39.7008 11.6717C40.1971 11.4304 40.3077 11.9457 40.3374 12.1339C40.3709 12.4165 40.4912 12.7172 40.7204 12.985C41.0546 13.3753 41.4845 13.5617 41.8345 13.5103C42.4724 13.5868 42.2654 14.1223 42.2424 14.1774C42.1433 14.4077 42.0763 14.6701 42.1032 14.9759C42.1301 15.2896 42.2367 15.5575 42.3768 15.769C42.3823 15.7797 42.3852 15.79 42.3916 15.8006C42.4395 15.8688 42.4952 15.9171 42.5507 15.9687C42.5791 15.9947 42.592 16.0223 42.6254 16.0475C43.2916 16.5271 42.6155 17.0561 42.6155 17.0561C42.4392 17.2132 42.2816 17.4139 42.1778 17.6864C42.086 17.927 42.0648 18.1591 42.0733 18.3798C42.0686 18.443 42.0659 18.5069 42.0783 18.5794C42.0823 18.6024 42.0931 18.6202 42.0982 18.6424C42.1161 18.7187 42.129 18.791 42.1678 18.8735C42.576 19.7279 41.6952 19.777 41.6952 19.777V19.7822C41.4191 19.8028 41.1191 19.9213 40.8498 20.1605C40.6335 20.3526 40.4888 20.5827 40.4021 20.8118C40.3484 20.9149 40.3067 21.0384 40.3077 21.2006C40.3118 22.0145 39.5267 21.5472 39.5267 21.5472C39.2989 21.4656 39.0307 21.4363 38.7458 21.4842C38.3632 21.5498 38.0659 21.7387 37.8754 21.9781C37.8251 22.0275 37.7749 22.0727 37.7312 22.1462C37.3213 22.8355 36.8906 21.9939 36.8906 21.9939H36.8857C36.7063 21.7585 36.4286 21.5624 36.0649 21.479C35.7187 21.3995 35.3983 21.4432 35.1448 21.563C35.1061 21.579 35.0708 21.5814 35.0303 21.6051C34.5874 21.869 34.507 21.6219 34.4882 21.3897C34.5191 21.0616 34.4142 20.6693 34.165 20.3233C33.9242 19.9885 33.6092 19.79 33.3095 19.7246H33.3046C33.1984 19.7019 33.094 19.6868 32.9961 19.7036C32.2294 19.7861 32.5933 18.9103 32.5933 18.9103C32.7661 18.6157 32.8174 18.182 32.6827 17.7285C32.5863 17.4032 32.4169 17.1475 32.2202 16.972C32.2038 16.9572 32.1995 16.9453 32.1804 16.93C31.6063 16.4861 32.0938 16.0043 32.1755 15.9266C32.4446 15.7389 32.6662 15.3891 32.7375 14.9339C32.7911 14.5942 32.7244 14.301 32.6181 14.046C32.6138 14.0193 32.6198 13.9974 32.6082 13.9673C32.4425 13.5298 32.8923 13.4155 32.9862 13.3946C33.2936 13.402 33.6463 13.2677 33.9511 12.9798C34.1016 12.8367 34.2201 12.676 34.3043 12.5121C34.4131 12.2985 34.4399 12.0879 34.4286 11.8872C34.4451 11.8466 34.4633 11.8171 34.4733 11.7557C34.5556 11.2654 35.0951 11.4405 35.0951 11.4405C35.3132 11.5772 35.5713 11.675 35.8858 11.6664C36.3445 11.654 36.7227 11.4541 36.9354 11.178C36.9586 11.1549 36.9818 11.1499 37.0051 11.1201C37.1249 10.967 37.2427 10.9003 37.3532 10.8838Z" fill="white"/>
</g>
<defs>
<clipPath id="clip0_333_163">
<rect width="80" height="35" fill="white"/>
</clipPath>
</defs>
</svg>
