<?xml version="1.0" encoding="utf-8"?>
<svg viewBox="6.677 2.316 50.342 60.057" width="50.342" height="60.057" xmlns="http://www.w3.org/2000/svg">
  <g>
    <path style="fill:none;stroke:#6CC5DA;stroke-width:0.7482;stroke-miterlimit:10;" d="M22.76,31.69H20.1c-0.74,0-1.34-0.6-1.34-1.34V17.74c0-0.74,0.6-1.34,1.34-1.34h2.66 c0.74,0,1.34,0.6,1.34,1.34v12.61C24.1,31.08,23.5,31.69,22.76,31.69z"/>
    <path style="fill:none;stroke:#6CC5DA;stroke-width:0.7482;stroke-miterlimit:10;" d="M29.44,31.74h-2.66c-0.74,0-1.34-0.6-1.34-1.34v-7.99c0-0.74,0.6-1.34,1.34-1.34h2.66 c0.74,0,1.34,0.6,1.34,1.34v7.99C30.79,31.14,30.18,31.74,29.44,31.74z"/>
    <path style="fill:none;stroke:#6CC5DA;stroke-width:0.7482;stroke-miterlimit:10;" d="M36.15,31.74H33.5c-0.74,0-1.34-0.6-1.34-1.34v-5.7c0-0.74,0.6-1.34,1.34-1.34h2.66c0.74,0,1.34,0.6,1.34,1.34 v5.7C37.5,31.14,36.89,31.74,36.15,31.74z"/>
    <g>
      <g>
        <path style="fill:#6CC5DA;" d="M43.7,61.29c0,0,0.25,0.04,0.7,0.09c0.45,0.05,1.1,0.08,1.87,0.05c1.55-0.06,3.66-0.53,5.59-1.7 c1.93-1.17,3.31-2.83,4.08-4.18c0.39-0.67,0.66-1.27,0.82-1.69c0.16-0.42,0.25-0.66,0.25-0.66s0.02,0.25,0,0.71 c-0.02,0.46-0.1,1.13-0.33,1.94c-0.23,0.81-0.64,1.75-1.29,2.68c-0.65,0.93-1.56,1.84-2.69,2.54c-1.14,0.69-2.37,1.07-3.5,1.22 c-1.13,0.15-2.15,0.08-2.98-0.09c-0.83-0.17-1.46-0.4-1.88-0.6C43.92,61.42,43.7,61.29,43.7,61.29z"/>
      </g>
    </g>
    <g>
      <g>
        <path style="fill:#6CC5DA;" d="M17.84,5c0,0-0.2,0.02-0.54,0.07c-0.34,0.05-0.83,0.15-1.4,0.33c-1.14,0.35-2.61,1.11-3.82,2.35 c-1.2,1.25-1.9,2.75-2.21,3.9c-0.16,0.58-0.24,1.07-0.28,1.41c-0.04,0.34-0.05,0.54-0.05,0.54s-0.06-0.18-0.14-0.53 c-0.08-0.35-0.15-0.86-0.13-1.51c0.02-1.28,0.5-3.16,1.94-4.66c1.44-1.49,3.31-2.05,4.58-2.11c0.65-0.04,1.16,0.01,1.51,0.08 C17.65,4.95,17.84,5,17.84,5z"/>
      </g>
    </g>
    <g>
      <g>
        <path style="fill:#6CC5DA;" d="M15.25,2.52c0,0-0.2,0.02-0.54,0.07c-0.34,0.05-0.83,0.15-1.4,0.33c-1.14,0.35-2.61,1.11-3.82,2.35 c-1.2,1.25-1.9,2.75-2.21,3.9C7.12,9.76,7.04,10.25,7,10.6c-0.04,0.34-0.05,0.54-0.05,0.54s-0.06-0.18-0.14-0.53 C6.73,10.26,6.66,9.74,6.68,9.1c0.02-1.28,0.5-3.16,1.94-4.66c1.44-1.49,3.31-2.05,4.58-2.11c0.65-0.04,1.16,0.01,1.51,0.08 C15.06,2.47,15.25,2.52,15.25,2.52z"/>
      </g>
    </g>
    <circle style="fill:none;stroke:#3B8FCD;stroke-width:0.8609;stroke-miterlimit:10;" cx="27.48" cy="22.94" r="17.68"/>
    <circle style="fill:none;stroke:#6CC5DA;stroke-width:0.6485;stroke-miterlimit:10;" cx="27.55" cy="22.97" r="15.38"/>
    <path style="fill:none;stroke:#3A8FCD;stroke-width:0.9066;stroke-miterlimit:10;" d="M44.2,44.16l-2.18,1.51c-0.83,0.57-1.96,0.36-2.53-0.46L36.3,40.6c-0.57-0.83-0.36-1.96,0.46-2.53l2.18-1.51 c0.83-0.57,1.96-0.36,2.53,0.46l3.19,4.61C45.23,42.46,45.02,43.59,44.2,44.16z"/>
    <path style="fill:none;stroke:#3B8FCD;stroke-width:0.7221;stroke-miterlimit:10;" d="M51.12,54.29l-2.18,1.51c-1.28,0.88-3.03,0.56-3.91-0.71l-3.71-5.37c-0.88-1.28-0.56-3.03,0.71-3.91l2.18-1.51 c1.28-0.88,3.03-0.56,3.91,0.71l3.71,5.37C52.71,51.66,52.39,53.41,51.12,54.29z"/>
    <polyline style="fill:none;stroke:#3A8FCD;stroke-width:0.6485;stroke-linecap:round;stroke-miterlimit:10;" points="40.38,23.95 36.91,19.33 33.96,21.13 21.57,13.03 &#9;"/>
    <polyline style="fill:none;stroke:#3A8FCD;stroke-width:0.6485;stroke-linecap:round;stroke-miterlimit:10;" points="21.83,15.09 20.85,12.56 23.32,12.55 &#9;"/>
  </g>
</svg>