<?xml version="1.0" encoding="utf-8"?>
<svg viewBox="1.369 4.68 61.171 53.39" width="61.171" height="53.39" xmlns="http://www.w3.org/2000/svg">
  <g>
    <g>
      <g>
        <path style="fill:#6CC5DA;" d="M1.7,44.2c0,0,0.01,0.19,0.03,0.53c0.03,0.34,0.09,0.82,0.23,1.4c0.27,1.14,0.91,2.64,2.05,3.9 c1.14,1.26,2.56,2.05,3.67,2.44c0.55,0.2,1.03,0.31,1.36,0.37c0.33,0.06,0.53,0.09,0.53,0.09s-0.18,0.05-0.53,0.1 c-0.34,0.05-0.85,0.09-1.49,0.03c-1.25-0.1-3.07-0.71-4.43-2.22c-1.36-1.51-1.78-3.38-1.75-4.64c0.01-0.64,0.09-1.14,0.18-1.48 C1.63,44.38,1.7,44.2,1.7,44.2z"/>
      </g>
    </g>
    <g>
      <g>
        <path style="fill:#6CC5DA;" d="M39.38,8.13c0,0-0.15-0.13-0.41-0.33c-0.27-0.21-0.67-0.49-1.18-0.78c-1.02-0.58-2.55-1.12-4.26-1.14 c-1.7-0.02-3.25,0.49-4.28,1.05c-0.52,0.28-0.93,0.55-1.2,0.75c-0.27,0.2-0.42,0.33-0.42,0.33s0.09-0.17,0.29-0.46 c0.2-0.29,0.52-0.69,0.99-1.11c0.92-0.85,2.6-1.77,4.63-1.76c2.04,0.02,3.69,0.98,4.6,1.85c0.46,0.44,0.78,0.84,0.97,1.13 C39.29,7.96,39.38,8.13,39.38,8.13z"/>
      </g>
    </g>
    <g>
      <g>
        <path style="fill:#6CC5DA;" d="M52.04,51.58c0,0,0.19,0.04,0.52,0.11c0.33,0.07,0.82,0.13,1.41,0.15c1.17,0.05,2.78-0.17,4.31-0.94 c1.52-0.77,2.66-1.93,3.32-2.9c0.34-0.48,0.57-0.91,0.72-1.22c0.15-0.31,0.22-0.48,0.22-0.48s0,0.19-0.05,0.54 c-0.04,0.35-0.14,0.85-0.37,1.44c-0.43,1.18-1.5,2.77-3.31,3.69c-1.82,0.91-3.73,0.82-4.94,0.46c-0.61-0.17-1.07-0.39-1.38-0.56 C52.19,51.69,52.04,51.58,52.04,51.58z"/>
      </g>
    </g>
    <circle style="fill:none;stroke:#6CC5DA;stroke-width:0.8155;stroke-miterlimit:10;" cx="14.83" cy="33.33" r="4.16"/>
    <path style="fill:none;stroke:#6CC5DA;stroke-width:0.8155;stroke-miterlimit:10;" d="M6.6,47.09c-0.62-0.22-1.05-0.79-1.1-1.44c-0.12-1.49-0.23-4.08,0.33-4.98c0.63-1.02,3.52-2.22,4.83-2.73 c0.41-0.16,0.86-0.15,1.26,0.02c0.78,0.33,2.11,0.85,2.71,0.88c0.67,0.03,2.25-0.45,3.1-0.73c0.37-0.12,0.77-0.11,1.14,0.04 c1.12,0.45,3.66,1.18,4.25,2c0.63,0.89,0.74,3.82,0.83,5.34c0.04,0.67-0.32,1.3-0.92,1.61h0c-1.07,0.53-2.34-0.19-2.42-1.38 c-0.07-0.97-0.25-1.84-0.71-1.83c-0.73,0.01-1.02,2.07-1.14,3.45c-0.06,0.74-0.6,1.34-1.32,1.5c-0.92,0.19-2.13,0.41-2.8,0.4 c-0.55-0.01-1.4-0.21-2.11-0.41c-0.73-0.2-1.23-0.88-1.22-1.64c0.02-1.42-0.08-3.57-0.89-3.67c-0.6-0.07-0.86,1.15-0.96,2.35 c-0.1,1.1-1.21,1.8-2.24,1.43L6.6,47.09z"/>
    <circle style="fill:none;stroke:#6CC5DA;stroke-width:0.8155;stroke-miterlimit:10;" cx="33.6" cy="14.15" r="4.16"/>
    <path style="fill:none;stroke:#6CC5DA;stroke-width:0.8155;stroke-miterlimit:10;" d="M25.37,27.91c-0.62-0.22-1.05-0.79-1.1-1.44c-0.12-1.49-0.23-4.08,0.33-4.98c0.63-1.02,3.52-2.22,4.83-2.73 c0.41-0.16,0.86-0.15,1.26,0.02c0.78,0.33,2.11,0.85,2.71,0.88c0.67,0.03,2.25-0.45,3.1-0.73c0.37-0.12,0.77-0.11,1.14,0.04 c1.12,0.45,3.66,1.18,4.25,2c0.63,0.89,0.74,3.82,0.83,5.34c0.04,0.67-0.32,1.3-0.92,1.61l0,0c-1.07,0.53-2.34-0.19-2.42-1.38 c-0.07-0.97-0.25-1.84-0.71-1.83c-0.73,0.01-1.02,2.07-1.14,3.45c-0.06,0.74-0.6,1.34-1.32,1.5c-0.92,0.19-2.13,0.41-2.8,0.4 c-0.55-0.01-1.4-0.21-2.11-0.41c-0.73-0.2-1.23-0.88-1.22-1.64c0.02-1.42-0.08-3.57-0.89-3.67c-0.6-0.07-0.86,1.15-0.96,2.35 c-0.1,1.1-1.21,1.8-2.24,1.43L25.37,27.91z"/>
    <circle style="fill:none;stroke:#6CC5DA;stroke-width:0.8155;stroke-miterlimit:10;" cx="50.56" cy="33.06" r="4.16"/>
    <path style="fill:none;stroke:#6CC5DA;stroke-width:0.8155;stroke-miterlimit:10;" d="M42.33,46.82c-0.62-0.22-1.05-0.79-1.1-1.44c-0.12-1.49-0.23-4.08,0.33-4.98c0.63-1.02,3.52-2.22,4.83-2.73 c0.41-0.16,0.86-0.15,1.26,0.02c0.78,0.33,2.11,0.85,2.71,0.88c0.67,0.03,2.25-0.45,3.1-0.73c0.37-0.12,0.77-0.11,1.14,0.04 c1.12,0.45,3.66,1.18,4.25,2c0.63,0.89,0.74,3.82,0.83,5.34c0.04,0.67-0.32,1.3-0.92,1.61h0c-1.07,0.53-2.34-0.19-2.42-1.38 c-0.07-0.97-0.25-1.84-0.71-1.83c-0.73,0.01-1.02,2.07-1.14,3.45c-0.06,0.74-0.6,1.34-1.32,1.5c-0.92,0.19-2.13,0.41-2.8,0.4 c-0.55-0.01-1.4-0.21-2.11-0.41c-0.73-0.2-1.23-0.88-1.22-1.64c0.02-1.42-0.08-3.57-0.89-3.67c-0.6-0.07-0.86,1.15-0.96,2.35 c-0.1,1.1-1.21,1.8-2.24,1.43L42.33,46.82z"/>
    <g>
      <path style="fill:#3C8ECD;" d="M12.93,27.66c2.42-6.67,8.02-11.83,14.96-13.64v-1.34c-7.66,1.87-13.84,7.59-16.35,14.98H12.93z"/>
      <path style="fill:#3C8ECD;" d="M39.34,14.17c6.64,1.91,11.99,6.9,14.37,13.33h1.39c-2.49-7.14-8.4-12.7-15.76-14.68V14.17z"/>
      <path style="fill:#3C8ECD;" d="M48.12,50.96c-3.88,3.6-9.07,5.81-14.77,5.81c-5.61,0-10.74-2.14-14.59-5.65h-1.87 c4.18,4.29,10.02,6.95,16.47,6.95c6.53,0,12.43-2.73,16.63-7.12H48.12z"/>
    </g>
    <g>
      <g>
        <path style="fill:#3C8ECD;" d="M23.09,13.03c1.47,0.63,2.94,0.94,4.54,0.92c-0.15-0.37-0.31-0.75-0.46-1.12c-1.14,1.18-1.95,2.59-2.36,4.18 c0.42,0,0.84,0,1.26,0c-0.04-0.2-0.08-0.3-0.19-0.47c-0.16-0.25-0.48-0.29-0.7-0.09c-0.15,0.14-0.21,0.22-0.3,0.41 c-0.42,0.87,0.95,1.41,1.19,0.5c0.37-1.38,1.03-2.57,2.03-3.6c0.39-0.4,0.11-1.13-0.46-1.12c-1.41,0.02-2.78-0.18-4.13-0.6 C22.93,11.87,22.52,12.78,23.09,13.03L23.09,13.03z"/>
      </g>
    </g>
    <g>
      <g>
        <path style="fill:#3C8ECD;" d="M18.4,54.8c0.19-1.53,0.04-3.01-0.42-4.48c-0.32,0.25-0.64,0.49-0.96,0.74c1.46,0.76,3.04,1.15,4.68,1.09 c-0.11-0.41-0.22-0.81-0.33-1.22c-0.18,0.1-0.27,0.16-0.4,0.32c-0.18,0.22-0.17,0.54,0.09,0.7c0.17,0.1,0.27,0.14,0.47,0.18 c0.96,0.16,1.1-1.31,0.17-1.28c-1.42,0.03-2.76-0.25-4.02-0.92c-0.48-0.25-1.14,0.17-0.96,0.74c0.42,1.34,0.62,2.72,0.6,4.13 C17.31,55.51,18.32,55.47,18.4,54.8L18.4,54.8z"/>
      </g>
    </g>
    <g>
      <g>
        <path style="fill:#3C8ECD;" d="M55.4,24.46c-0.79,1.39-1.23,2.84-1.38,4.44c0.37-0.15,0.75-0.31,1.12-0.46c-1.05-1.27-2.38-2.19-3.91-2.78 c-0.06,0.43-0.12,0.86-0.17,1.28c0.25-0.02,0.42-0.06,0.64-0.17c0.2-0.1,0.3-0.42,0.16-0.61c-0.14-0.2-0.26-0.31-0.47-0.44 c-0.77-0.49-1.42,0.83-0.5,1.19c1.33,0.52,2.43,1.35,3.33,2.44c0.4,0.48,1.07,0.04,1.12-0.46c0.13-1.34,0.47-2.66,1-3.89 C56.6,24.39,55.75,23.84,55.4,24.46L55.4,24.46z"/>
      </g>
    </g>
    <polyline style="fill:none;stroke:#3B8FCD;stroke-width:1.1973;stroke-linecap:round;stroke-miterlimit:10;" points="28.19,40.37 31.1,44.24 39.54,37.11 &#9;"/>
  </g>
</svg>