<?xml version="1.0" encoding="utf-8"?>
<svg viewBox="8.864 2.92 49.566 56.983" width="49.566" height="56.983" xmlns="http://www.w3.org/2000/svg">
  <g>
    <g>
      <g>
        <g>
          <g>
            <path style="fill:#69C4DA;" d="M49.01,34.24c0.86,0.16,1.73,0.62,2.24,1.35c0.55,0.79,0.7,1.8,0.43,2.72c-0.18,0.6,0.76,0.86,0.93,0.26 c0.34-1.17,0.13-2.49-0.59-3.47c-0.69-0.94-1.74-1.54-2.91-1.58C48.7,33.5,48.6,34.16,49.01,34.24L49.01,34.24z"/>
          </g>
        </g>
        <g>
          <g>
            <g>
              <path style="fill:#69C4DA;" d="M48.51,53.74c-2.46-0.17-2.55-3.03-2.49-4.87c0.03-1.05,0.19-2.59-0.76-3.34 c-0.9-0.72-2.01-0.07-2.44,0.85c-0.25,0.54-0.29,1.14-0.35,1.72c-0.1,0.96-0.23,1.92-0.42,2.87c-0.21,1.01-0.42,2.6-1.73,2.58 c-1.35-0.01-1.85-1.46-2.13-2.56c-0.46-1.83-0.65-3.7-0.68-5.58c-0.01-0.6-0.01-1.22-0.26-1.78c-0.3-0.66-0.88-1.14-1.31-1.72 c-1.18-1.58-1.49-3.76-0.77-5.6c1.67-4.26,7.44-4.84,10.12-1.25c0.04-0.16,0.08-0.31,0.12-0.47c-0.05,0.03-0.1,0.07-0.14,0.1 c0.16,0.04,0.31,0.08,0.47,0.12c-2.54-3.4-7.62-3.58-10.23-0.14c-1.27,1.67-1.56,3.92-0.86,5.88 c0.31,0.88,0.81,1.59,1.41,2.29c0.59,0.69,0.91,1.28,0.94,2.22c0.02,0.55,0.01,1.1,0.04,1.66c0.07,1.22,0.23,2.43,0.48,3.63 c0.21,1.02,0.45,2.22,1.21,3c0.59,0.61,1.54,0.96,2.35,0.59c0.79-0.37,1.08-1.25,1.28-2.03c0.31-1.22,0.49-2.48,0.61-3.73 c0.06-0.56,0.08-1.19,0.35-1.7c0.62-1.13,1.81-0.76,2.1,0.32c0.51,1.93-0.38,3.99,0.64,5.85c0.97,1.78,3.23,2.15,4.47,0.44 c0.74-1.02,0.88-2.4,1.03-3.61c0.22-1.74,0.28-3.48,0.2-5.23c-0.11,0.11-0.23,0.23-0.34,0.34c0.06,0,0.12-0.01,0.17-0.01 c-0.11-0.11-0.23-0.23-0.34-0.34c0.08,1.81,0.02,3.63-0.23,5.43C50.83,51.24,50.51,53.57,48.51,53.74 c-0.43,0.04-0.44,0.72,0,0.68c1.68-0.15,2.57-1.49,2.93-3.03c0.54-2.32,0.62-4.79,0.52-7.16c-0.01-0.18-0.15-0.35-0.34-0.34 c-0.06,0-0.12,0.01-0.17,0.01c-0.18,0.01-0.35,0.15-0.34,0.34c0.1,2.35,0.1,4.95-0.56,7.23c-0.4,1.39-1.62,2.74-3.11,1.72 c-0.99-0.68-1.22-1.96-1.25-3.09c-0.03-1.3,0.32-2.85-0.31-4.07c-0.57-1.09-1.86-1.29-2.74-0.41 c-1.12,1.12-0.89,3.49-1.16,4.91c-0.09,0.5-0.19,1.02-0.34,1.51c-0.26,0.86-1.02,1.72-2,1.17c-1.09-0.62-1.31-2.31-1.53-3.42 c-0.22-1.14-0.35-2.3-0.4-3.45c-0.03-0.77,0.06-1.61-0.15-2.37c-0.21-0.72-0.69-1.21-1.16-1.76 c-0.71-0.84-1.19-1.82-1.37-2.91c-0.39-2.47,0.92-4.88,3.17-5.96c2.43-1.17,5.36-0.3,6.95,1.82c0.1,0.14,0.3,0.24,0.47,0.12 c0.05-0.03,0.1-0.07,0.14-0.1c0.14-0.1,0.24-0.31,0.12-0.47c-2.05-2.75-5.91-3.64-8.84-1.71c-2.97,1.97-3.83,6.02-1.86,9.01 c0.55,0.83,1.4,1.42,1.59,2.45c0.18,0.99,0.06,2.06,0.15,3.06c0.16,1.8,0.33,4.14,1.43,5.65c0.83,1.12,2.5,1.56,3.48,0.38 c0.46-0.56,0.63-1.31,0.79-2.01c0.25-1.12,0.42-2.25,0.53-3.39c0.06-0.63,0.05-1.42,0.57-1.86c1.19-1.04,1.61,0.59,1.64,1.41 c0.04,1.11-0.12,2.21,0.03,3.32c0.24,1.72,1.26,3.26,3.12,3.39C48.95,54.45,48.95,53.77,48.51,53.74z"/>
            </g>
          </g>
          <g>
            <g>
              <path style="fill:#69C4DA;" d="M45.81,34.77c-2.28-3.45-7.28-3.78-10.06-0.72c-1.35,1.49-1.9,3.5-1.57,5.47c0.17,1,0.57,1.96,1.17,2.78 c0.27,0.37,0.6,0.68,0.88,1.03c0.63,0.79,0.57,1.65,0.59,2.61c0.05,2.2,0.18,5.16,1.4,7.07c0.85,1.33,2.79,1.85,3.78,0.36 c0.57-0.86,0.7-2.03,0.86-3.03c0.1-0.58,0.17-1.16,0.24-1.74c0.05-0.46,0.04-0.98,0.16-1.43c0.18-0.7,0.85-1.93,1.78-0.91 c0.73,0.8,0.28,2.66,0.29,3.63c0.01,1.1,0.15,2.27,0.8,3.2c1.17,1.69,3.44,1.77,4.61,0.05c0.76-1.11,0.89-2.56,1.05-3.86 c0.2-1.67,0.25-3.35,0.17-5.04c-0.02-0.55-0.88-0.55-0.86,0c0.1,2.37,0.09,4.97-0.58,7.26c-0.37,1.27-1.47,2.61-2.91,1.81 c-1.13-0.63-1.41-2.04-1.44-3.23c-0.04-1.38,0.43-3.37-0.63-4.51c-1-1.08-2.47-0.23-2.92,0.92c-0.34,0.87-0.31,1.9-0.44,2.81 c-0.15,1.04-0.28,2.21-0.71,3.18c-0.71,1.64-2.3,0.7-2.8-0.57c-0.44-1.12-0.63-2.41-0.78-3.59c-0.21-1.69,0.24-3.89-0.8-5.34 c-0.54-0.75-1.2-1.34-1.59-2.2c-0.42-0.93-0.6-1.98-0.48-3c0.26-2.33,2.09-4.27,4.35-4.8c2.22-0.52,4.48,0.5,5.91,2.2 C45.52,35.48,46.02,35.09,45.81,34.77L45.81,34.77z"/>
            </g>
          </g>
          <g>
            <g>
              <path style="fill:#69C4DA;" d="M51.86,44.12c-0.04-0.07-0.09-0.13-0.13-0.2c-0.04,0.16-0.08,0.31-0.12,0.47 c1.61-1.09,2.76-2.72,3.03-4.66c0.27-2-0.29-4.1-1.55-5.68c-1.07-1.34-2.65-2.3-4.4-2.33c-1.65-0.03-3.28,0.74-4.2,2.13 c0.16-0.04,0.31-0.08,0.47-0.12c-0.07-0.04-0.14-0.08-0.2-0.13c0.04,0.16,0.08,0.31,0.12,0.47c0.87-1.33,2.47-1.99,4.03-1.9 c1.6,0.09,3.04,1.08,3.98,2.34c1.09,1.48,1.57,3.4,1.31,5.21c-0.26,1.78-1.33,3.29-2.8,4.29c-0.36,0.24-0.02,0.83,0.34,0.59 c1.69-1.14,2.88-2.86,3.14-4.91c0.26-2.02-0.31-4.13-1.57-5.74c-1.11-1.41-2.76-2.43-4.58-2.47 c-1.75-0.04-3.48,0.77-4.44,2.24c-0.1,0.16-0.03,0.37,0.12,0.47c0.07,0.04,0.14,0.08,0.2,0.13c0.16,0.1,0.37,0.03,0.47-0.12 c0.82-1.24,2.32-1.87,3.79-1.79c1.53,0.09,2.89,1.01,3.8,2.2c1.04,1.39,1.52,3.19,1.32,4.91c-0.21,1.78-1.25,3.29-2.72,4.29 c-0.15,0.1-0.23,0.3-0.12,0.47c0.04,0.07,0.09,0.13,0.13,0.2C51.51,44.83,52.1,44.49,51.86,44.12z"/>
            </g>
          </g>
          <g>
            <g>
              <path style="fill:#69C4DA;" d="M44.89,34.16c1.01-1.15,2.25-1.86,3.82-1.82c1.57,0.04,3,0.96,3.93,2.2c1.03,1.36,1.52,3.11,1.37,4.81 c-0.16,1.86-1.19,3.46-2.72,4.51c-0.41,0.28-0.03,0.96,0.4,0.68c2.82-1.87,3.93-5.29,2.77-8.48c-0.96-2.63-3.49-4.83-6.42-4.5 c-1.41,0.16-2.98,0.91-3.61,2.25C44.3,34.08,44.66,34.42,44.89,34.16L44.89,34.16z"/>
            </g>
          </g>
        </g>
      </g>
    </g>
    <path style="fill:none;stroke:#3B8FCD;stroke-width:0.7996;stroke-miterlimit:10;" d="M23.69,7.61c-0.03-0.04-0.05-0.08-0.07-0.13c-0.25-0.44-0.39-0.95-0.39-1.5c0-1.69,1.37-3.06,3.07-3.06 l10.57,0.01c1.69,0,3.06,1.37,3.06,3.07l0,0.01c0,0.55-0.15,1.07-0.4,1.51c-0.02,0.04-0.05,0.08-0.08,0.13"/>
    <g>
      <path style="fill:none;stroke:#3B8FCD;stroke-width:1.0021;stroke-miterlimit:10;" d="M36.78,5.18c1.67,0.01,3.03,1.39,3.01,3.06l0,0.01c-0.01,0.55-0.16,1.07-0.42,1.51 c-0.02,0.04-0.05,0.08-0.08,0.12L23.63,9.73c-0.03-0.04-0.05-0.08-0.08-0.13c-0.25-0.44-0.39-0.96-0.39-1.5c0,0,0,0,0,0 c0.02-1.67,1.39-3.02,3.06-3.01L36.78,5.18z"/>
    </g>
    <g>
      <g>
        <path style="fill:#6CC5DA;" d="M15.55,4.32c0,0-0.16,0.03-0.43,0.1C14.84,4.49,14.45,4.62,14,4.81c-0.9,0.38-2.04,1.12-2.92,2.24 c-0.88,1.12-1.32,2.4-1.48,3.37c-0.08,0.48-0.11,0.89-0.11,1.18c0,0.28,0,0.44,0,0.44s-0.07-0.15-0.16-0.42 c-0.09-0.28-0.19-0.69-0.23-1.22c-0.09-1.04,0.15-2.62,1.19-3.96c1.05-1.34,2.53-1.95,3.56-2.11c0.52-0.09,0.95-0.09,1.24-0.06 C15.39,4.29,15.55,4.32,15.55,4.32z"/>
      </g>
    </g>
    <g>
      <g>
        <path style="fill:#6CC5DA;" d="M57.82,38.1c0,0,0.02-0.16,0.04-0.44c0.02-0.28,0.03-0.69,0-1.18c-0.07-0.98-0.4-2.29-1.17-3.49 c-0.77-1.19-1.84-2.03-2.71-2.49c-0.43-0.23-0.81-0.39-1.08-0.49c-0.27-0.09-0.42-0.14-0.42-0.14s0.16-0.01,0.45-0.01 c0.29,0,0.72,0.04,1.23,0.18c1.02,0.25,2.43,0.99,3.36,2.42c0.92,1.43,1.02,3.03,0.83,4.05c-0.09,0.52-0.23,0.93-0.34,1.19 C57.9,37.96,57.82,38.1,57.82,38.1z"/>
      </g>
    </g>
    <g>
      <g>
        <path style="fill:#6CC5DA;" d="M9.36,51.93c0,0-0.01,0.16-0.02,0.44c-0.01,0.28,0.01,0.69,0.07,1.18c0.12,0.97,0.53,2.27,1.36,3.42 c0.84,1.15,1.95,1.93,2.84,2.34c0.44,0.21,0.83,0.35,1.1,0.43c0.27,0.08,0.43,0.12,0.43,0.12s-0.16,0.02-0.45,0.04 c-0.29,0.01-0.72,0-1.24-0.11c-1.03-0.19-2.49-0.85-3.49-2.22c-1-1.37-1.19-2.96-1.06-4c0.06-0.53,0.17-0.94,0.28-1.21 C9.29,52.07,9.36,51.93,9.36,51.93z"/>
      </g>
    </g>
    <line style="fill:none;stroke:#6CC5DA;stroke-width:0.9758;stroke-linecap:round;stroke-miterlimit:10;" x1="17.29" y1="16.23" x2="44.5" y2="16.23"/>
    <line style="fill:none;stroke:#6CC5DA;stroke-width:0.9758;stroke-linecap:round;stroke-miterlimit:10;" x1="17.43" y1="20.79" x2="44.65" y2="20.79"/>
    <line style="fill:none;stroke:#6CC5DA;stroke-width:0.9758;stroke-linecap:round;stroke-miterlimit:10;" x1="17.14" y1="25.49" x2="44.35" y2="25.49"/>
    <line style="fill:none;stroke:#6CC5DA;stroke-width:0.9758;stroke-linecap:round;stroke-miterlimit:10;" x1="17.14" y1="30.2" x2="31.55" y2="30.2"/>
    <line style="fill:none;stroke:#6CC5DA;stroke-width:0.9758;stroke-linecap:round;stroke-miterlimit:10;" x1="17.14" y1="35.2" x2="31.55" y2="35.2"/>
    <line style="fill:none;stroke:#6CC5DA;stroke-width:0.9758;stroke-linecap:round;stroke-miterlimit:10;" x1="16.85" y1="40.5" x2="31.26" y2="40.5"/>
    <path style="fill:#3B8FCD;" d="M47.96,55.21c-0.65,0.75-1.79,1.27-3.05,1.27c0,0-0.01,0-0.01,0l-28.04-0.06c-0.99,0-1.91-0.3-2.61-0.84 c-0.65-0.51-1.01-1.17-1.01-1.85l0.09-42.64c0-0.69,0.36-1.34,1.02-1.85c0.69-0.53,1.62-0.83,2.6-0.83c0,0,0.01,0,0.01,0L45,8.46 c1.96,0,3.62,1.24,3.62,2.69l-0.04,19.64h1.09l0.04-19.63c0-2.08-2.11-3.78-4.7-3.78L16.96,7.31c0,0-0.01,0-0.01,0 c-1.22,0-2.38,0.37-3.27,1.06c-0.93,0.72-1.44,1.68-1.44,2.71l-0.09,42.64c0,1.03,0.51,2,1.43,2.71c0.88,0.69,2.05,1.07,3.27,1.07 l28.04,0.06c0,0,0.01,0,0.01,0c1.97,0,3.66-0.98,4.36-2.36H47.96z"/>
  </g>
</svg>