<?xml version="1.0" encoding="utf-8"?>
<svg viewBox="3.27 10.137 59.115 46.539" width="59.115" height="46.539" xmlns="http://www.w3.org/2000/svg">
  <g>
    <path style="fill:none;stroke:#3A8FCD;stroke-width:1.1198;stroke-miterlimit:10;" d="M20.48,12.94v7.14c0,1.48-1.21,2.69-2.69,2.69c-1.48,0-2.69-1.21-2.69-2.69v-7.14c0-1.48,1.21-2.69,2.69-2.69 c0.74,0,1.41,0.3,1.9,0.79C20.18,11.53,20.48,12.2,20.48,12.94z"/>
    <path style="fill:none;stroke:#3A8FCD;stroke-width:1.1198;stroke-miterlimit:10;" d="M33.16,12.94v7.14c0,1.48-1.21,2.69-2.69,2.69c-1.48,0-2.69-1.21-2.69-2.69v-7.14c0-1.48,1.21-2.69,2.69-2.69 c0.74,0,1.41,0.3,1.9,0.79C32.86,11.53,33.16,12.2,33.16,12.94z"/>
    <path style="fill:none;stroke:#3A8FCD;stroke-width:1.1198;stroke-miterlimit:10;" d="M46.33,12.88v7.14c0,1.48-1.21,2.69-2.69,2.69c-1.48,0-2.69-1.21-2.69-2.69v-7.14c0-1.48,1.21-2.69,2.69-2.69 c0.74,0,1.41,0.3,1.9,0.79C46.03,11.47,46.33,12.14,46.33,12.88z"/>
    <path style="fill:none;stroke:#6CC5DA;stroke-width:0.7781;stroke-miterlimit:10;" d="M9.51,34.39H9.45c-1.46,0-2.66-1.2-2.66-2.66v-0.29c0-1.46,1.2-2.66,2.66-2.66h0.05c1.46,0,2.66,1.2,2.66,2.66 v0.29C12.17,33.19,10.97,34.39,9.51,34.39z"/>
    <path style="fill:none;stroke:#6CC5DA;stroke-width:0.7781;stroke-miterlimit:10;" d="M16.71,34.39h-0.05c-1.46,0-2.66-1.2-2.66-2.66v-0.29c0-1.46,1.2-2.66,2.66-2.66h0.05 c1.46,0,2.66,1.2,2.66,2.66v0.29C19.37,33.19,18.18,34.39,16.71,34.39z"/>
    <path style="fill:none;stroke:#6CC5DA;stroke-width:0.7781;stroke-miterlimit:10;" d="M16.67,42.28h-0.05c-1.46,0-2.66-1.2-2.66-2.66v-0.29c0-1.46,1.2-2.66,2.66-2.66h0.05 c1.46,0,2.66,1.2,2.66,2.66v0.29C19.33,41.08,18.13,42.28,16.67,42.28z"/>
    <path style="fill:none;stroke:#6CC5DA;stroke-width:0.7781;stroke-miterlimit:10;" d="M24.25,34.33H24.2c-1.46,0-2.66-1.2-2.66-2.66v-0.29c0-1.46,1.2-2.66,2.66-2.66h0.05 c1.46,0,2.66,1.2,2.66,2.66v0.29C26.91,33.14,25.71,34.33,24.25,34.33z"/>
    <path style="fill:none;stroke:#6CC5DA;stroke-width:0.7781;stroke-miterlimit:10;" d="M24.35,42.16H24.3c-1.46,0-2.66-1.2-2.66-2.66v-0.29c0-1.46,1.2-2.66,2.66-2.66h0.05 c1.46,0,2.66,1.2,2.66,2.66v0.29C27.01,40.97,25.82,42.16,24.35,42.16z"/>
    <path style="fill:none;stroke:#6CC5DA;stroke-width:0.7781;stroke-miterlimit:10;" d="M9.4,42.34H9.35c-1.46,0-2.66-1.2-2.66-2.66v-0.29c0-1.46,1.2-2.66,2.66-2.66H9.4c1.46,0,2.66,1.2,2.66,2.66 v0.29C12.06,41.14,10.86,42.34,9.4,42.34z"/>
    <g>
      <g>
        <path style="fill:#6CC5DA;" d="M60.52,19.2c0,0-0.04-0.17-0.11-0.47c-0.08-0.3-0.21-0.72-0.42-1.2c-0.42-0.97-1.22-2.2-2.43-3.14 c-1.21-0.94-2.6-1.42-3.64-1.58c-0.52-0.09-0.96-0.11-1.27-0.11c-0.31,0-0.48,0-0.48,0s0.16-0.07,0.45-0.17 c0.3-0.1,0.74-0.21,1.32-0.26c1.12-0.11,2.83,0.15,4.28,1.27c1.45,1.13,2.11,2.72,2.28,3.84c0.09,0.57,0.1,1.02,0.07,1.34 C60.55,19.04,60.52,19.2,60.52,19.2z"/>
      </g>
    </g>
    <g>
      <g>
        <path style="fill:#6CC5DA;" d="M62.32,17.09c0,0-0.04-0.17-0.11-0.47c-0.08-0.3-0.21-0.72-0.42-1.2c-0.42-0.97-1.22-2.2-2.43-3.14 c-1.21-0.94-2.6-1.42-3.64-1.58c-0.52-0.09-0.96-0.11-1.27-0.11c-0.31,0-0.48,0-0.48,0s0.16-0.07,0.45-0.17 c0.3-0.1,0.74-0.21,1.32-0.26c1.12-0.11,2.83,0.15,4.28,1.27c1.45,1.13,2.11,2.72,2.28,3.84c0.09,0.57,0.1,1.02,0.07,1.34 C62.35,16.92,62.32,17.09,62.32,17.09z"/>
      </g>
    </g>
    <line style="fill:none;stroke:#6CC5DA;stroke-width:0.9842;stroke-linecap:round;stroke-miterlimit:10;" x1="4.11" y1="24.8" x2="56.54" y2="25.08"/>
    <g>
      <g>
        <path style="fill:#6CC5DA;" d="M32.19,49.28c0,0,0.01,0.16,0.04,0.45c0.03,0.29,0.09,0.69,0.22,1.18c0.25,0.96,0.82,2.21,1.8,3.26 c0.99,1.05,2.21,1.69,3.15,1.99c0.47,0.15,0.88,0.24,1.16,0.29c0.28,0.05,0.45,0.07,0.45,0.07s-0.16,0.04-0.45,0.09 c-0.29,0.05-0.72,0.09-1.26,0.05c-1.06-0.06-2.6-0.54-3.79-1.79c-1.18-1.25-1.57-2.83-1.57-3.89C31.94,50.43,32,50,32.07,49.72 C32.14,49.43,32.19,49.28,32.19,49.28z"/>
      </g>
    </g>
    <path style="fill:#3A8FCD;" d="M57.39,19.75c0-2.24-1.82-4.06-4.06-4.06l-7.44,0v4.32c0,1.24-1.01,2.25-2.25,2.25 c-1.24,0-2.25-1.01-2.25-2.25V15.7l-8.67,0v4.38c0,1.24-1.01,2.25-2.25,2.25s-2.25-1.01-2.25-2.25v-4.24l-8.19,0v4.24 c0,1.24-1.01,2.25-2.25,2.25s-2.25-1.01-2.25-2.25v-4.37l-8.2,0c-2.24,0-4.06,1.82-4.06,4.06L3.3,43.2c0,2.24,1.82,4.06,4.06,4.06 l27.61-0.01v-0.88L7.36,46.37c-1.75,0-3.18-1.42-3.18-3.18L4.17,19.77c0-1.75,1.42-3.18,3.18-3.18l7.31,0v3.49 c0,1.72,1.4,3.13,3.13,3.13s3.13-1.4,3.13-3.13v-3.36l6.43,0v3.36c0,1.72,1.4,3.13,3.13,3.13s3.13-1.4,3.13-3.13v-3.5l6.91,0v3.44 c0,1.72,1.4,3.13,3.13,3.13c1.72,0,3.13-1.4,3.13-3.13v-3.44l6.56,0c1.75,0,3.18,1.43,3.18,3.18l0.01,23.43 c0,1.75-1.42,3.18-2.73,3.18l-5.29,0.01v0.88l4.84-0.01c2.24,0,4.06-1.82,4.06-4.06L57.39,19.75z"/>
    <g>
      <g>
        <g>
          <g>
            <path style="fill:#69C4DA;" d="M46.21,34.82c0.83,0.16,1.66,0.6,2.15,1.3c0.53,0.76,0.68,1.73,0.41,2.62c-0.17,0.58,0.73,0.82,0.9,0.25 c0.32-1.12,0.13-2.39-0.57-3.34c-0.67-0.91-1.67-1.48-2.8-1.52C45.92,34.11,45.82,34.74,46.21,34.82L46.21,34.82z"/>
          </g>
        </g>
        <g>
          <g>
            <g>
              <path style="fill:#69C4DA;" d="M45.74,53.6c-2.37-0.17-2.45-2.91-2.4-4.69c0.03-1.01,0.18-2.49-0.73-3.21 c-0.87-0.69-1.94-0.07-2.35,0.82c-0.24,0.52-0.28,1.09-0.34,1.66c-0.09,0.93-0.22,1.85-0.41,2.76c-0.2,0.97-0.4,2.5-1.67,2.49 c-1.3-0.01-1.78-1.4-2.06-2.47c-0.45-1.76-0.62-3.56-0.65-5.37c-0.01-0.58-0.01-1.18-0.25-1.72c-0.29-0.64-0.85-1.1-1.26-1.65 c-1.13-1.52-1.44-3.62-0.74-5.39c1.6-4.1,7.17-4.66,9.75-1.2c0.04-0.15,0.08-0.3,0.12-0.45c-0.05,0.03-0.09,0.06-0.14,0.1 c0.15,0.04,0.3,0.08,0.45,0.12c-2.45-3.27-7.33-3.45-9.85-0.13c-1.22,1.61-1.5,3.77-0.82,5.66c0.3,0.85,0.78,1.53,1.36,2.21 c0.57,0.66,0.87,1.23,0.9,2.14c0.02,0.53,0.01,1.06,0.04,1.6c0.07,1.17,0.22,2.34,0.46,3.49c0.21,0.98,0.43,2.14,1.16,2.89 c0.57,0.59,1.48,0.93,2.26,0.57c0.76-0.35,1.04-1.21,1.23-1.96c0.3-1.18,0.47-2.39,0.59-3.59c0.05-0.54,0.07-1.15,0.34-1.63 c0.6-1.09,1.75-0.73,2.02,0.3c0.49,1.86-0.36,3.84,0.62,5.63c0.94,1.72,3.11,2.07,4.31,0.42c0.71-0.99,0.85-2.31,1-3.48 c0.22-1.67,0.27-3.35,0.2-5.04c-0.11,0.11-0.22,0.22-0.33,0.33c0.06,0,0.11-0.01,0.17-0.01c-0.11-0.11-0.22-0.22-0.33-0.33 c0.08,1.75,0.02,3.49-0.22,5.23C47.97,51.19,47.66,53.43,45.74,53.6c-0.42,0.04-0.42,0.69,0,0.66 c1.61-0.14,2.47-1.44,2.82-2.92c0.52-2.23,0.6-4.61,0.5-6.89c-0.01-0.17-0.14-0.34-0.33-0.33c-0.06,0-0.11,0.01-0.17,0.01 c-0.17,0.01-0.34,0.14-0.33,0.33c0.1,2.26,0.1,4.77-0.54,6.96c-0.39,1.34-1.56,2.64-2.99,1.65c-0.95-0.66-1.18-1.89-1.21-2.98 c-0.03-1.25,0.31-2.75-0.3-3.92c-0.55-1.05-1.79-1.24-2.64-0.39c-1.08,1.08-0.86,3.36-1.12,4.73 c-0.09,0.48-0.18,0.98-0.32,1.45c-0.25,0.83-0.98,1.66-1.92,1.13c-1.05-0.59-1.26-2.22-1.47-3.3 c-0.21-1.1-0.34-2.21-0.38-3.33c-0.03-0.75,0.06-1.56-0.14-2.28c-0.2-0.69-0.67-1.16-1.12-1.7c-0.68-0.81-1.15-1.75-1.31-2.8 c-0.38-2.38,0.88-4.7,3.05-5.73c2.34-1.12,5.16-0.29,6.69,1.76c0.1,0.13,0.29,0.23,0.45,0.12c0.05-0.03,0.09-0.06,0.14-0.1 c0.13-0.09,0.23-0.3,0.12-0.45c-1.98-2.65-5.69-3.51-8.51-1.64c-2.86,1.89-3.69,5.79-1.79,8.68c0.53,0.8,1.35,1.37,1.54,2.36 c0.18,0.95,0.06,1.99,0.15,2.95c0.16,1.73,0.32,3.99,1.38,5.44c0.79,1.08,2.41,1.51,3.35,0.36c0.45-0.54,0.61-1.26,0.76-1.93 c0.24-1.07,0.4-2.16,0.51-3.26c0.06-0.61,0.05-1.36,0.55-1.79c1.15-1,1.55,0.56,1.58,1.36c0.04,1.07-0.12,2.13,0.03,3.19 c0.23,1.66,1.22,3.14,3,3.27C46.16,54.28,46.15,53.63,45.74,53.6z"/>
            </g>
          </g>
          <g>
            <g>
              <path style="fill:#69C4DA;" d="M43.13,35.33c-2.19-3.33-7.01-3.64-9.69-0.7c-1.3,1.43-1.83,3.37-1.51,5.27 c0.16,0.96,0.55,1.89,1.12,2.68c0.26,0.35,0.58,0.65,0.85,0.99c0.6,0.76,0.55,1.59,0.57,2.51c0.05,2.12,0.18,4.97,1.35,6.81 c0.82,1.28,2.69,1.78,3.64,0.35c0.55-0.83,0.67-1.96,0.83-2.91c0.09-0.56,0.17-1.12,0.23-1.68c0.05-0.45,0.04-0.94,0.16-1.38 c0.18-0.67,0.82-1.86,1.71-0.88c0.7,0.77,0.27,2.56,0.27,3.49c0.01,1.06,0.15,2.18,0.77,3.08c1.12,1.62,3.31,1.7,4.44,0.05 c0.73-1.07,0.86-2.46,1.01-3.71c0.19-1.61,0.24-3.23,0.17-4.85c-0.02-0.53-0.85-0.53-0.82,0c0.1,2.28,0.09,4.79-0.56,6.99 c-0.35,1.22-1.42,2.51-2.81,1.74c-1.09-0.61-1.36-1.97-1.39-3.11c-0.04-1.33,0.41-3.24-0.61-4.34 c-0.96-1.04-2.38-0.23-2.81,0.89c-0.33,0.84-0.3,1.83-0.42,2.71c-0.14,1-0.27,2.12-0.68,3.06c-0.69,1.58-2.21,0.67-2.69-0.55 c-0.43-1.08-0.61-2.32-0.75-3.46c-0.2-1.63,0.23-3.75-0.77-5.14c-0.52-0.72-1.16-1.29-1.53-2.12c-0.41-0.9-0.58-1.9-0.47-2.89 c0.25-2.24,2.01-4.11,4.19-4.62c2.14-0.5,4.32,0.48,5.69,2.12C42.86,36.01,43.34,35.64,43.13,35.33L43.13,35.33z"/>
            </g>
          </g>
          <g>
            <g>
              <path style="fill:#69C4DA;" d="M48.96,44.33c-0.04-0.06-0.08-0.13-0.13-0.19c-0.04,0.15-0.08,0.3-0.12,0.45 c1.55-1.05,2.66-2.62,2.92-4.49c0.26-1.93-0.28-3.95-1.49-5.47c-1.03-1.29-2.55-2.22-4.23-2.25 c-1.59-0.03-3.16,0.71-4.04,2.05c0.15-0.04,0.3-0.08,0.45-0.12c-0.07-0.04-0.13-0.08-0.2-0.12c0.04,0.15,0.08,0.3,0.12,0.45 c0.84-1.28,2.38-1.92,3.89-1.83c1.54,0.09,2.93,1.04,3.83,2.26c1.05,1.42,1.52,3.27,1.26,5.02c-0.25,1.71-1.28,3.17-2.7,4.13 c-0.35,0.23-0.02,0.8,0.33,0.57c1.63-1.1,2.78-2.75,3.03-4.72c0.25-1.95-0.3-3.98-1.51-5.53c-1.07-1.36-2.65-2.34-4.41-2.38 c-1.68-0.04-3.35,0.74-4.28,2.16c-0.1,0.15-0.03,0.36,0.12,0.45c0.07,0.04,0.13,0.08,0.2,0.12c0.16,0.1,0.35,0.03,0.45-0.12 c0.79-1.2,2.24-1.8,3.65-1.72c1.47,0.08,2.79,0.97,3.66,2.12c1.01,1.33,1.46,3.07,1.27,4.73c-0.2,1.72-1.2,3.17-2.62,4.13 c-0.14,0.1-0.22,0.29-0.12,0.45c0.04,0.06,0.08,0.13,0.13,0.19C48.62,45.02,49.19,44.69,48.96,44.33z"/>
            </g>
          </g>
          <g>
            <g>
              <path style="fill:#69C4DA;" d="M42.25,34.74c0.97-1.11,2.16-1.79,3.68-1.75c1.51,0.04,2.89,0.93,3.79,2.11 c0.99,1.31,1.46,2.99,1.32,4.63c-0.15,1.79-1.15,3.33-2.62,4.34c-0.4,0.27-0.03,0.93,0.38,0.65c2.72-1.8,3.79-5.09,2.66-8.17 c-0.93-2.54-3.36-4.65-6.18-4.33c-1.35,0.15-2.87,0.87-3.48,2.17C41.68,34.67,42.02,35,42.25,34.74L42.25,34.74z"/>
            </g>
          </g>
        </g>
      </g>
    </g>
  </g>
</svg>