<?xml version="1.0" encoding="utf-8"?>
<svg viewBox="0.995 6.977 62.311 45.887" width="62.311" height="45.887" xmlns="http://www.w3.org/2000/svg">
  <g>
    <g>
      <g>
        <path style="fill:#6CC5DA;" d="M1.72,44.06c0,0-0.02,0.17-0.06,0.46c-0.03,0.3-0.06,0.72-0.03,1.24c0.04,1.03,0.35,2.42,1.13,3.7 c0.78,1.28,1.87,2.19,2.77,2.7c0.45,0.26,0.84,0.44,1.12,0.54c0.28,0.11,0.44,0.16,0.44,0.16s-0.17,0.01-0.47,0 c-0.31-0.01-0.75-0.07-1.29-0.22C4.26,52.35,2.79,51.53,1.86,50c-0.93-1.53-0.98-3.2-0.75-4.28c0.11-0.55,0.26-0.97,0.39-1.24 C1.63,44.2,1.72,44.06,1.72,44.06z"/>
      </g>
    </g>
    <g>
      <g>
        <path style="fill:#6CC5DA;" d="M59.22,19.88c0,0,0.03-0.21,0.06-0.58c0.03-0.37,0.05-0.9,0.01-1.54c-0.08-1.28-0.49-3-1.48-4.57 c-0.99-1.57-2.38-2.68-3.5-3.3c-0.56-0.31-1.05-0.52-1.4-0.65c-0.35-0.13-0.55-0.19-0.55-0.19s0.21-0.02,0.59-0.01 c0.38,0.01,0.93,0.07,1.6,0.25c1.32,0.34,3.17,1.33,4.36,3.2c1.18,1.88,1.29,3.97,1.03,5.31c-0.12,0.68-0.31,1.21-0.46,1.56 C59.33,19.7,59.22,19.88,59.22,19.88z"/>
      </g>
    </g>
    <g>
      <g>
        <path style="fill:#6CC5DA;" d="M62.47,17.82c0,0,0.03-0.21,0.06-0.58c0.03-0.37,0.05-0.9,0.01-1.54c-0.08-1.28-0.49-3-1.48-4.57 c-0.99-1.57-2.38-2.68-3.5-3.3C57,7.51,56.51,7.3,56.16,7.18c-0.35-0.13-0.55-0.19-0.55-0.19s0.21-0.02,0.59-0.01 c0.38,0.01,0.93,0.07,1.6,0.25c1.32,0.34,3.17,1.33,4.36,3.2c1.18,1.88,1.29,3.97,1.03,5.31c-0.12,0.68-0.31,1.21-0.46,1.56 C62.57,17.64,62.47,17.82,62.47,17.82z"/>
      </g>
    </g>
    <g>
      <g>
        <path style="fill:none;stroke:#3B8FCD;stroke-width:0.8246;stroke-miterlimit:10;" d="M53.23,13.21H12c-1.79,0-3.24,1.6-3.24,3.57v23.09c0,1.97,1.45,3.57,3.24,3.57h41.23 c1.79,0,3.24-1.6,3.24-3.57V16.78C56.47,14.81,55.02,13.21,53.23,13.21z M56.35,39.87c0,1.89-1.4,3.43-3.12,3.43H12 c-1.72,0-3.12-1.54-3.12-3.43V16.78c0-1.89,1.4-3.43,3.12-3.43h41.23c1.72,0,3.12,1.54,3.12,3.43V39.87z"/>
        <line style="fill:none;stroke:#6CC5DA;stroke-width:0.9059;stroke-linecap:round;stroke-miterlimit:10;" x1="25.78" y1="47.41" x2="38.54" y2="47.41"/>
        <rect x="11.14" y="16.17" style="fill:none;stroke:#6CC5DA;stroke-width:0.6562;stroke-miterlimit:10;" width="43.03" height="23.97"/>
        <path style="fill:none;stroke:#3B8FCD;stroke-width:0.9337;stroke-miterlimit:10;" d="M5.33,45.59H59.4v0.46c0,1.98-1.61,3.59-3.59,3.59H8.92c-1.98,0-3.59-1.61-3.59-3.59V45.59z"/>
      </g>
      <g>
        <path style="fill:#3C8FCD;" d="M30.5,32.56c-0.27-0.87-0.48-2.05-1.26-2.62c-0.56-0.41-1.32-0.37-1.72,0.24c-0.45,0.7-0.13,1.71,0.08,2.43 c0.34,1.19,0.83,2.36,1.35,3.48c0.45,0.97,1.04,1.85,2.07,2.26c1.01,0.4,2.23,0.35,3.29,0.19c2.38-0.37,3.66-1.89,3.89-4.27 c0.13-1.39,0.25-2.86,0.21-4.25c-0.03-0.93-0.48-1.79-1.46-1.99c-0.37-0.08-0.5,0.51-0.13,0.57c1.35,0.25,1.02,1.98,0.97,2.98 c-0.05,1.12-0.04,2.27-0.25,3.37c-0.48,2.48-2.7,3.21-4.97,3.12c-1.36-0.06-2.32-0.67-2.94-1.88c-0.47-0.92-0.86-1.91-1.2-2.88 c-0.17-0.48-0.32-0.97-0.43-1.46c-0.14-0.63-0.06-2.31,1.07-1.35c0.65,0.55,0.57,1.62,1.13,2.26 C30.32,32.9,30.55,32.73,30.5,32.56L30.5,32.56z"/>
        <path style="fill:#3C8FCD;" d="M30.54,32.55c0.1-2.61,0.06-5.24,0.09-7.85c0-0.34-0.01-0.69,0.01-1.03c0.04-0.57,0.69-1.97,1.55-0.84 c0.39,0.51,0.14,1.7,0.12,2.28c-0.06,1.53-0.11,3.05-0.18,4.58c-0.02,0.38,0.59,0.36,0.6-0.02c0.02-1.06,0.04-2.11,0.08-3.17 c0.03-1.04,0.19-2.15,0.05-3.18c-0.15-1.11-1.22-1.82-2.16-0.98c-0.39,0.35-0.48,0.86-0.51,1.36c-0.06,0.99-0.04,2-0.08,2.99 c-0.07,1.95-0.17,3.95,0.07,5.88C30.22,32.78,30.53,32.77,30.54,32.55L30.54,32.55z"/>
        <path style="fill:#3C8FCD;" d="M32.66,26.71c0.25,0.06,0.48-0.01,0.73,0.07c0.46,0.16,0.68,0.57,0.75,1.04c0.1,0.7-0.21,1.52,0.13,2.15 c0.06,0.11,0.21,0.08,0.27-0.01c0.29-0.47,0.21-1.19,0.2-1.74c-0.01-0.51-0.09-1.04-0.41-1.45c-0.3-0.38-1.49-0.95-1.76-0.27 C32.53,26.59,32.56,26.69,32.66,26.71L32.66,26.71z"/>
        <path style="fill:#3C8FCD;" d="M34.5,27.72c0.25-0.06,0.53-0.11,0.79-0.14c0.78-0.09,1.01,0.39,1.04,1.06c0.04,0.77-0.03,1.52-0.08,2.28 c-0.02,0.29,0.44,0.32,0.5,0.04c0.12-0.62,0.15-1.26,0.15-1.89c0-0.52,0.01-1.09-0.28-1.54c-0.5-0.77-1.6-0.61-2.27-0.15 C34.18,27.51,34.3,27.76,34.5,27.72L34.5,27.72z"/>
      </g>
      <line style="fill:none;stroke:#3C8FCD;stroke-width:0.6541;stroke-linecap:round;stroke-linejoin:round;stroke-miterlimit:10;" x1="29.27" y1="19.16" x2="30.22" y2="20.78"/>
      <line style="fill:none;stroke:#3C8FCD;stroke-width:0.6541;stroke-linecap:round;stroke-linejoin:round;stroke-miterlimit:10;" x1="26.94" y1="21.9" x2="28.57" y2="22.84"/>
      <line style="fill:none;stroke:#3C8FCD;stroke-width:0.6541;stroke-linecap:round;stroke-linejoin:round;stroke-miterlimit:10;" x1="34.33" y1="24.96" x2="35.95" y2="25.9"/>
      <line style="fill:none;stroke:#3C8FCD;stroke-width:0.6541;stroke-linecap:round;stroke-linejoin:round;stroke-miterlimit:10;" x1="35.86" y1="21.98" x2="34.16" y2="22.78"/>
      <line style="fill:none;stroke:#3C8FCD;stroke-width:0.6541;stroke-linecap:round;stroke-linejoin:round;stroke-miterlimit:10;" x1="28.7" y1="25.27" x2="27" y2="26.07"/>
      <line style="fill:none;stroke:#3C8FCD;stroke-width:0.6541;stroke-linecap:round;stroke-linejoin:round;stroke-miterlimit:10;" x1="33.82" y1="19.12" x2="32.85" y2="20.72"/>
    </g>
  </g>
</svg>