<?xml version="1.0" encoding="utf-8"?>
<svg viewBox="3.197 5.66 59.197 53.96" width="59.197" height="53.96" xmlns="http://www.w3.org/2000/svg">
  <g>
    <g>
      <g>
        <path style="fill:#6CC5DA;" d="M59.85,38.76c0,0-0.02-0.19-0.07-0.51c-0.05-0.32-0.14-0.79-0.32-1.33c-0.34-1.08-1.05-2.48-2.24-3.62 c-1.19-1.14-2.61-1.8-3.71-2.09c-0.55-0.15-1.01-0.23-1.34-0.26c-0.33-0.04-0.51-0.05-0.51-0.05s0.17-0.06,0.5-0.13 c0.33-0.07,0.82-0.14,1.43-0.13c1.21,0.01,3,0.47,4.42,1.83c1.42,1.37,1.94,3.14,2.01,4.35c0.04,0.61-0.01,1.1-0.07,1.44 C59.91,38.59,59.85,38.76,59.85,38.76z"/>
      </g>
    </g>
    <g>
      <path style="fill:none;stroke:#6CC5DA;stroke-width:0.8002;stroke-miterlimit:10;" d="M19.66,25.66L19.66,25.66c-1.5,0-2.74-1.23-2.74-2.74v-0.35c0-1.5,1.23-2.74,2.74-2.74h0 c1.5,0,2.74,1.23,2.74,2.74v0.35C22.4,24.42,21.16,25.66,19.66,25.66z"/>
      <path style="fill:none;stroke:#6CC5DA;stroke-width:0.8002;stroke-miterlimit:10;" d="M26.66,25.63L26.66,25.63c-1.5,0-2.74-1.23-2.74-2.74v-0.35c0-1.5,1.23-2.74,2.74-2.74h0 c1.5,0,2.74,1.23,2.74,2.74v0.35C29.39,24.4,28.16,25.63,26.66,25.63z"/>
      <path style="fill:none;stroke:#6CC5DA;stroke-width:0.8002;stroke-miterlimit:10;" d="M33.61,25.7L33.61,25.7c-1.5,0-2.74-1.23-2.74-2.74v-0.35c0-1.5,1.23-2.74,2.74-2.74h0 c1.5,0,2.74,1.23,2.74,2.74v0.35C36.35,24.47,35.12,25.7,33.61,25.7z"/>
      <path style="fill:none;stroke:#6CC5DA;stroke-width:0.8002;stroke-miterlimit:10;" d="M19.57,33.04L19.57,33.04c-1.5,0-2.74-1.23-2.74-2.74v-0.35c0-1.5,1.23-2.74,2.74-2.74h0 c1.5,0,2.74,1.23,2.74,2.74v0.35C22.31,31.81,21.08,33.04,19.57,33.04z"/>
      <path style="fill:none;stroke:#6CC5DA;stroke-width:0.8002;stroke-miterlimit:10;" d="M26.57,33.02L26.57,33.02c-1.5,0-2.74-1.23-2.74-2.74v-0.35c0-1.5,1.23-2.74,2.74-2.74h0 c1.5,0,2.74,1.23,2.74,2.74v0.35C29.3,31.79,28.07,33.02,26.57,33.02z"/>
      <path style="fill:none;stroke:#6CC5DA;stroke-width:0.8002;stroke-miterlimit:10;" d="M33.53,33.09L33.53,33.09c-1.5,0-2.74-1.23-2.74-2.74V30c0-1.5,1.23-2.74,2.74-2.74h0 c1.5,0,2.74,1.23,2.74,2.74v0.35C36.26,31.86,35.03,33.09,33.53,33.09z"/>
      <path style="fill:none;stroke:#6CC5DA;stroke-width:0.6733;stroke-miterlimit:10;" d="M30.75,56.23h-7.56V43.48c0-2.08,1.7-3.78,3.78-3.78h0c2.08,0,3.78,1.7,3.78,3.78V56.23z"/>
      <g>
        <g>
          <path style="fill:#6CC5DA;" d="M14.76,8.62c0,0-0.2,0.01-0.55,0.04c-0.35,0.03-0.85,0.11-1.44,0.26c-1.18,0.3-2.71,0.98-4,2.18 c-1.29,1.2-2.08,2.68-2.46,3.84c-0.19,0.58-0.3,1.07-0.36,1.42c-0.06,0.35-0.08,0.54-0.08,0.54s-0.05-0.19-0.11-0.55 c-0.06-0.36-0.1-0.88-0.05-1.54c0.09-1.29,0.68-3.18,2.22-4.62c1.54-1.43,3.47-1.9,4.76-1.89c0.66,0,1.18,0.08,1.53,0.16 C14.57,8.56,14.76,8.62,14.76,8.62z"/>
        </g>
      </g>
      <g>
        <g>
          <path style="fill:#6CC5DA;" d="M12.27,5.97c0,0-0.2,0.01-0.55,0.04c-0.35,0.03-0.85,0.11-1.44,0.26c-1.18,0.3-2.71,0.98-4,2.18 c-1.29,1.2-2.08,2.68-2.46,3.84c-0.19,0.58-0.3,1.07-0.36,1.42c-0.06,0.35-0.08,0.54-0.08,0.54s-0.05-0.19-0.11-0.55 c-0.06-0.36-0.1-0.88-0.05-1.54C3.3,10.87,3.9,8.99,5.44,7.55c1.54-1.43,3.47-1.9,4.76-1.89c0.66,0,1.18,0.08,1.53,0.16 C12.08,5.9,12.27,5.97,12.27,5.97z"/>
        </g>
      </g>
      <g>
        <g>
          <path style="fill:#6CC5DA;" d="M62.21,36.31c0,0-0.02-0.19-0.07-0.51c-0.05-0.32-0.14-0.79-0.32-1.33c-0.34-1.08-1.05-2.48-2.24-3.62 c-1.19-1.14-2.61-1.8-3.71-2.09c-0.55-0.15-1.01-0.23-1.34-0.26c-0.33-0.04-0.51-0.05-0.51-0.05s0.17-0.06,0.5-0.13 c0.33-0.07,0.82-0.14,1.43-0.13c1.21,0.01,3,0.47,4.42,1.83c1.42,1.37,1.94,3.14,2.01,4.35c0.04,0.61-0.01,1.1-0.07,1.44 C62.26,36.13,62.21,36.31,62.21,36.31z"/>
        </g>
      </g>
      <line style="fill:none;stroke:#6CC5DA;stroke-width:0.7057;stroke-linecap:round;stroke-miterlimit:10;" x1="26.73" y1="10.13" x2="26.66" y2="13.87"/>
      <line style="fill:none;stroke:#6CC5DA;stroke-width:0.7057;stroke-linecap:round;stroke-miterlimit:10;" x1="28.49" y1="11.86" x2="24.75" y2="11.86"/>
      <g>
        <path style="fill:#3B8FCD;" d="M39.03,55.79C39.02,55.79,39.02,55.79,39.03,55.79l-25.27-0.06c-0.89,0-1.73-0.27-2.35-0.76 c-0.59-0.46-0.91-1.05-0.91-1.67l0.08-38.42c0-0.62,0.33-1.21,0.92-1.66c0.62-0.48,1.46-0.75,2.34-0.75c0,0,0.01,0,0.01,0 l7.93,0.02c-0.01-0.11-0.02-0.22-0.02-0.34c0-0.03,0-0.06,0-0.09v-0.01c0-0.08,0-0.16,0.01-0.24c0.01-0.1,0.01-0.2,0.03-0.3 l-7.94-0.02c0,0-0.01,0-0.01,0c-1.1,0-2.15,0.34-2.94,0.95c-0.84,0.64-1.3,1.51-1.3,2.44L9.52,53.3c0,0.93,0.46,1.8,1.29,2.45 c0.8,0.62,1.84,0.96,2.95,0.96l25.26,0.06c0,0,0.01,0,0.01,0c1.78,0,3.3-0.88,3.93-2.12h-1.18 C41.19,55.33,40.17,55.79,39.03,55.79z"/>
        <path style="fill:#3B8FCD;" d="M39.11,11.55l-7.77-0.02c0.01,0.09,0.02,0.18,0.02,0.28c0,0.08,0.01,0.16,0.01,0.24v0.02 c0,0.03,0,0.06,0,0.09c0,0.12-0.01,0.23-0.02,0.35c0,0,0,0.01,0,0.01l7.77,0.02c1.77,0,3.26,1.11,3.26,2.43l-0.04,17.69h0.98 l0.04-17.69C43.36,13.08,41.45,11.56,39.11,11.55z"/>
      </g>
      <path style="fill:none;stroke:#6CC5DA;stroke-width:0.8839;stroke-miterlimit:10;" d="M31.37,12.07c0,2.64-2.14,4.77-4.77,4.77c-0.1,0-0.2,0-0.3-0.01c-0.43-0.03-0.85-0.11-1.24-0.24 c-1.88-0.64-3.24-2.42-3.24-4.52c0-2.11,1.37-3.9,3.26-4.53c0.39-0.13,0.81-0.21,1.24-0.24C26.42,7.3,26.51,7.3,26.6,7.3 C29.23,7.3,31.37,9.43,31.37,12.07z"/>
      <ellipse style="fill:none;stroke:#3C8FCD;stroke-width:1.1049;stroke-miterlimit:10;" cx="47.19" cy="41.88" rx="6.33" ry="6.19"/>
      <path style="fill:none;stroke:#6CC5DA;stroke-width:1.3259;stroke-miterlimit:10;" d="M38.75,50.82l8.37,8.8l7.97-7.97c7.06-7.06,2.29-19.19-7.69-19.49c-0.14,0-0.27-0.01-0.41-0.01 c-0.13,0-0.25,0-0.38,0C36.97,32.26,32.11,43.84,38.75,50.82z"/>
    </g>
  </g>
</svg>