<?xml version="1.0" encoding="utf-8"?>
<svg viewBox="1.289 15.88 61.102 34.797" width="61.102" height="34.797" xmlns="http://www.w3.org/2000/svg">
  <g>
    <g>
      <g>
        <path style="fill:#6CC5DA;" d="M19.67,32.35c-0.94,0.58-1.98,1.47-1.55,2.7c0.26,0.73,0.82,1.26,0.78,2.09c-0.05,0.86-0.61,1.58-1.38,1.91 c-0.14,0.06-0.2,0.26-0.16,0.39c1.03,3.69,2.09,7.5,3.63,11.01c0.13,0.3,0.62,0.09,0.53-0.22c-1.06-3.68-2.42-7.29-3.48-10.97 c-0.05,0.13-0.11,0.26-0.16,0.39c1.03-0.45,1.7-1.5,1.71-2.62c0-0.61-0.23-1.09-0.53-1.61c-0.28-0.5-0.55-1.01-0.23-1.56 c0.25-0.44,0.72-0.77,1.12-1.06C20.2,32.61,19.96,32.17,19.67,32.35L19.67,32.35z"/>
      </g>
    </g>
    <g>
      <g>
        <path style="fill:#6CC5DA;" d="M22.93,32.88c0.44,0.29,0.96,0.6,1.25,1.05c0.35,0.53,0.09,1.03-0.23,1.5c-0.36,0.54-0.62,1.05-0.61,1.71 c0.02,1.23,0.89,2.2,1.99,2.63c-0.09-0.15-0.17-0.3-0.26-0.45c-1.19,3.7-2.68,7.29-3.89,10.97c-0.11,0.32,0.41,0.55,0.56,0.24 c1.7-3.49,2.89-7.32,4.04-11.01c0.06-0.2-0.08-0.39-0.26-0.45c-0.79-0.3-1.44-1.03-1.47-1.91c-0.02-0.8,0.57-1.28,0.85-1.97 c0.53-1.31-0.68-2.22-1.7-2.77C22.9,32.23,22.64,32.68,22.93,32.88L22.93,32.88z"/>
      </g>
    </g>
    <g>
      <g>
        <path style="fill:#6CC5DA;" d="M40.43,31.97c-0.94,0.58-1.98,1.47-1.55,2.7c0.26,0.73,0.82,1.26,0.78,2.09c-0.05,0.86-0.61,1.58-1.38,1.91 c-0.14,0.06-0.2,0.26-0.16,0.39c1.03,3.69,2.09,7.5,3.63,11.01c0.13,0.3,0.62,0.09,0.53-0.22c-1.06-3.68-2.42-7.29-3.48-10.97 c-0.05,0.13-0.11,0.26-0.16,0.39c1.03-0.45,1.7-1.5,1.71-2.62c0-0.61-0.23-1.09-0.53-1.61c-0.28-0.5-0.55-1.01-0.23-1.56 c0.25-0.44,0.72-0.77,1.12-1.06C40.96,32.23,40.72,31.79,40.43,31.97L40.43,31.97z"/>
      </g>
    </g>
    <g>
      <g>
        <path style="fill:#6CC5DA;" d="M43.69,32.5c0.44,0.29,0.96,0.6,1.25,1.05c0.35,0.53,0.09,1.03-0.23,1.5c-0.36,0.54-0.62,1.05-0.61,1.71 c0.02,1.23,0.89,2.2,1.99,2.63c-0.09-0.15-0.17-0.3-0.26-0.45c-1.19,3.7-2.68,7.29-3.89,10.97c-0.11,0.32,0.41,0.55,0.56,0.24 c1.7-3.49,2.89-7.32,4.04-11.01c0.06-0.2-0.08-0.39-0.26-0.45c-0.79-0.3-1.44-1.03-1.47-1.91c-0.02-0.8,0.57-1.28,0.85-1.97 c0.53-1.31-0.68-2.22-1.7-2.77C43.65,31.85,43.39,32.3,43.69,32.5L43.69,32.5z"/>
      </g>
    </g>
    <line style="fill:none;stroke:#6CC5DA;stroke-width:0.8285;stroke-linecap:round;stroke-miterlimit:10;" x1="50.07" y1="35.89" x2="47.31" y2="35.93"/>
    <line style="fill:none;stroke:#6CC5DA;stroke-width:0.8285;stroke-linecap:round;stroke-miterlimit:10;" x1="29.25" y1="36.59" x2="26.5" y2="36.62"/>
    <path style="fill:none;stroke:#3B8FCD;stroke-width:0.8169;stroke-miterlimit:10;" d="M7.72,46.87c-1.06-0.38-1.8-1.35-1.89-2.47c-0.2-2.55-0.39-7,0.57-8.54c1.08-1.74,6.04-3.81,8.29-4.68 c0.7-0.27,1.47-0.26,2.16,0.03c1.34,0.56,3.62,1.46,4.65,1.51c1.16,0.05,3.87-0.77,5.32-1.25c0.64-0.21,1.33-0.19,1.95,0.06 c1.92,0.76,6.28,2.03,7.29,3.43c1.09,1.52,1.27,6.55,1.43,9.17c0.07,1.15-0.55,2.24-1.59,2.75l0,0c-1.83,0.92-4.02-0.32-4.16-2.36 c-0.11-1.66-0.43-3.15-1.23-3.14c-1.25,0.02-1.75,3.55-1.95,5.91c-0.11,1.26-1.03,2.31-2.27,2.57c-1.58,0.33-3.65,0.71-4.8,0.69 c-0.95-0.02-2.41-0.36-3.63-0.7c-1.25-0.35-2.12-1.5-2.1-2.8c0.04-2.44-0.14-6.12-1.53-6.3c-1.03-0.13-1.47,1.98-1.65,4.03 c-0.17,1.88-2.07,3.09-3.85,2.45L7.72,46.87z"/>
    <path style="fill:none;stroke:#3B8FCD;stroke-width:0.8169;stroke-miterlimit:10;" d="M31,32.33c2.18-1.03,1.63-0.64,3.88-1.51c0.7-0.27,1.47-0.26,2.16,0.03c1.34,0.56,3.62,1.46,4.65,1.51 c1.16,0.05,3.87-0.77,5.32-1.25c0.64-0.21,1.33-0.19,1.95,0.06c1.92,0.76,6.28,2.03,7.29,3.43c1.09,1.52,1.27,6.55,1.43,9.17 c0.07,1.15-0.55,2.24-1.59,2.75l0,0c-1.83,0.92-4.02-0.32-4.16-2.36c-0.11-1.66-0.43-3.15-1.23-3.14 c-1.25,0.02-1.75,3.55-1.95,5.91c-0.11,1.26-1.03,2.31-2.27,2.57c-1.58,0.33-3.65,0.71-4.8,0.69c-0.95-0.02-2.41-0.36-3.63-0.7 c-1.25-0.35-2.12-1.5-2.1-2.8"/>
    <g>
      <g>
        <path style="fill:#6CC5DA;" d="M9.36,30.78c0,0-0.14,0.02-0.39,0.05c-0.25,0.04-0.6,0.11-1.01,0.24c-0.83,0.25-1.89,0.79-2.76,1.69 c-0.87,0.9-1.38,1.98-1.61,2.81c-0.12,0.42-0.18,0.77-0.2,1.02c-0.03,0.25-0.04,0.39-0.04,0.39s-0.04-0.13-0.1-0.38 c-0.05-0.25-0.1-0.62-0.09-1.09c0.01-0.92,0.37-2.28,1.41-3.36c1.04-1.07,2.39-1.47,3.32-1.51c0.47-0.03,0.84,0.01,1.09,0.06 C9.22,30.74,9.36,30.78,9.36,30.78z"/>
      </g>
    </g>
    <g>
      <g>
        <path style="fill:#6CC5DA;" d="M7.49,28.99c0,0-0.14,0.02-0.39,0.05c-0.25,0.04-0.6,0.11-1.01,0.24c-0.83,0.25-1.89,0.79-2.76,1.69 c-0.87,0.9-1.38,1.98-1.61,2.81c-0.12,0.42-0.18,0.77-0.2,1.02c-0.03,0.25-0.04,0.39-0.04,0.39s-0.04-0.13-0.1-0.38 c-0.05-0.25-0.1-0.62-0.09-1.09c0.01-0.92,0.37-2.28,1.41-3.36c1.04-1.07,2.39-1.47,3.32-1.51c0.47-0.03,0.84,0.01,1.09,0.06 C7.36,28.95,7.49,28.99,7.49,28.99z"/>
      </g>
    </g>
    <g>
      <g>
        <path style="fill:#6CC5DA;" d="M59.28,38.27c0,0,0.03-0.14,0.08-0.38c0.05-0.25,0.09-0.6,0.11-1.03c0.03-0.86-0.13-2.05-0.69-3.16 c-0.56-1.12-1.42-1.95-2.13-2.44c-0.36-0.25-0.67-0.42-0.9-0.53c-0.23-0.11-0.36-0.16-0.36-0.16s0.14,0,0.39,0.03 c0.25,0.03,0.62,0.11,1.06,0.27c0.87,0.32,2.04,1.1,2.71,2.43c0.67,1.34,0.61,2.74,0.34,3.63c-0.13,0.45-0.29,0.79-0.41,1.01 C59.36,38.16,59.28,38.27,59.28,38.27z"/>
      </g>
    </g>
    <g>
      <g>
        <path style="fill:#6CC5DA;" d="M61.59,37.1c0,0,0.03-0.14,0.08-0.38c0.05-0.25,0.09-0.6,0.11-1.03c0.03-0.86-0.13-2.05-0.69-3.16 c-0.56-1.12-1.42-1.95-2.13-2.44c-0.36-0.25-0.67-0.42-0.9-0.53c-0.23-0.11-0.36-0.16-0.36-0.16s0.14,0,0.39,0.03 c0.25,0.03,0.62,0.11,1.06,0.27c0.87,0.32,2.04,1.1,2.71,2.43c0.67,1.34,0.61,2.74,0.34,3.63c-0.13,0.45-0.29,0.79-0.41,1.01 C61.67,36.98,61.59,37.1,61.59,37.1z"/>
      </g>
    </g>
    <circle style="fill:none;stroke:#3B8FCD;stroke-width:0.8817;stroke-miterlimit:10;" cx="21.9" cy="23.36" r="7.19"/>
    <circle style="fill:none;stroke:#3B8FCD;stroke-width:0.8817;stroke-miterlimit:10;" cx="42.15" cy="23.07" r="7.19"/>
    <g>
      <g>
        <path style="fill:#3B8FCD;" d="M15.13,23.88c3.17-0.7,5.17-3.85,4.81-7.01c-0.24,0.03-0.48,0.06-0.72,0.1c0.57,1.88,1.77,3.52,3.43,4.59 c1.78,1.15,4.44,1.78,6.47,0.93c-0.16-0.12-0.31-0.24-0.47-0.36c0,0.05-0.01,0.11-0.01,0.16c-0.01,0.22,0.24,0.33,0.41,0.24 c0.05-0.03,0.1-0.05,0.15-0.08c0.41-0.21,0.1-0.73-0.29-0.68c-1.1,0.16-2.09,0.37-3.2,0.17c-0.95-0.17-1.87-0.53-2.69-1.04 c-1.5-0.95-2.59-2.44-3.11-4.13c-0.12-0.37-0.77-0.33-0.72,0.1c0.35,2.98-1.44,5.52-4.22,6.49 C14.67,23.47,14.79,23.95,15.13,23.88L15.13,23.88z"/>
      </g>
    </g>
    <g>
      <g>
        <path style="fill:#3B8FCD;" d="M36.46,18.66c1.54,2.06,4.63,1.77,6.21-0.05c-0.19,0-0.39,0-0.58,0c1.68,1.49,4.11,1.83,5.92,0.36 c0.41-0.33-0.14-1.06-0.57-0.74c-1.5,1.11-3.34,1-4.77-0.19c-0.15-0.13-0.43-0.19-0.58,0c-0.61,0.78-1.5,1.27-2.5,1.31 c-1.04,0.05-1.89-0.4-2.67-1.04C36.69,18.11,36.24,18.37,36.46,18.66L36.46,18.66z"/>
      </g>
    </g>
  </g>
</svg>