<?xml version="1.0" encoding="utf-8"?>
<svg viewBox="9.568 2.816 48.212 57.504" width="48.212" height="57.504" xmlns="http://www.w3.org/2000/svg">
  <g>
    <circle style="fill:none;stroke:#3B8FCD;stroke-width:0.6189;stroke-miterlimit:10;" cx="29.12" cy="57.1" r="1.59"/>
    <g>
      <path style="fill:none;stroke:#3B8FCD;stroke-width:1.0542;stroke-miterlimit:10;" d="M34.69,41.07c0,4.33,2.8,8.01,6.69,9.33c0.81,0.28,1.67,0.45,2.56,0.5l-0.02,6.04 c-0.01,1.87-1.53,3.39-3.4,3.38L17.7,60.27c-1.87,0-3.39-1.53-3.38-3.4l0.12-44.77c0-1.87,1.53-3.39,3.4-3.38l22.81,0.06 c1.86,0.01,3.39,1.53,3.38,3.4l-0.05,19.06c-0.89,0.05-1.75,0.22-2.56,0.49C37.51,33.03,34.69,36.72,34.69,41.07z"/>
      <path style="fill:none;stroke:#6CC5DA;stroke-width:1.0542;stroke-linecap:round;stroke-miterlimit:10;" d="M34.69,41.07c0,4.33,2.8,8.01,6.69,9.33l0,0.64c0,1.48-1.25,2.7-2.78,2.69l-18.64-0.05 c-1.52,0-2.77-1.22-2.76-2.7l0.1-35.63c0-1.48,1.25-2.7,2.78-2.69l18.64,0.05c1.52,0,2.77,1.22,2.76,2.7l-0.05,16.31 C37.51,33.03,34.69,36.72,34.69,41.07z"/>
      <g>
        <g>
          <path style="fill:#6CC5DA;" d="M48.82,52.29c0,0,0.15-0.01,0.42-0.02c0.27-0.02,0.66-0.07,1.11-0.17c0.91-0.21,2.1-0.71,3.12-1.61 c1.01-0.9,1.65-2.03,1.96-2.91c0.16-0.44,0.25-0.82,0.3-1.08c0.05-0.27,0.07-0.42,0.07-0.42s0.04,0.15,0.07,0.42 c0.04,0.27,0.06,0.68,0.01,1.18c-0.09,0.99-0.58,2.44-1.79,3.52c-1.21,1.08-2.7,1.4-3.7,1.37c-0.51-0.01-0.91-0.08-1.17-0.15 C48.96,52.34,48.82,52.29,48.82,52.29z"/>
        </g>
      </g>
      <g>
        <g>
          <path style="fill:#6CC5DA;" d="M50.69,54.38c0,0,0.15-0.01,0.42-0.02c0.27-0.02,0.66-0.07,1.11-0.17c0.91-0.21,2.1-0.71,3.12-1.61 c1.01-0.9,1.65-2.03,1.96-2.91c0.16-0.44,0.25-0.82,0.3-1.08c0.05-0.27,0.07-0.42,0.07-0.42s0.04,0.15,0.07,0.42 c0.04,0.27,0.06,0.68,0.01,1.18c-0.09,0.99-0.58,2.44-1.79,3.52c-1.21,1.08-2.7,1.4-3.7,1.37c-0.51-0.01-0.91-0.08-1.17-0.15 C50.83,54.43,50.69,54.38,50.69,54.38z"/>
        </g>
      </g>
      <g>
        <g>
          <path style="fill:#6CC5DA;" d="M18.85,5.57c0,0-0.15-0.01-0.42-0.02c-0.27-0.01-0.66,0-1.12,0.05c-0.93,0.11-2.17,0.48-3.27,1.26 c-1.1,0.79-1.86,1.84-2.26,2.68c-0.2,0.42-0.34,0.79-0.42,1.05C11.27,10.85,11.23,11,11.23,11s-0.02-0.15-0.03-0.43 c-0.01-0.28,0.01-0.68,0.11-1.18c0.19-0.98,0.84-2.36,2.16-3.3c1.32-0.94,2.84-1.1,3.83-0.96c0.5,0.06,0.89,0.18,1.15,0.28 C18.71,5.5,18.85,5.57,18.85,5.57z"/>
        </g>
      </g>
      <g>
        <g>
          <path style="fill:#6CC5DA;" d="M17.22,3.29c0,0-0.15-0.01-0.42-0.02c-0.27-0.01-0.66,0-1.12,0.05c-0.93,0.11-2.17,0.48-3.27,1.26 c-1.1,0.79-1.86,1.84-2.26,2.68C9.93,7.69,9.8,8.06,9.72,8.32C9.64,8.57,9.6,8.72,9.6,8.72S9.58,8.57,9.57,8.3 C9.56,8.02,9.58,7.61,9.69,7.12c0.19-0.98,0.84-2.36,2.16-3.3c1.32-0.94,2.84-1.1,3.83-0.96c0.5,0.06,0.89,0.18,1.15,0.28 C17.08,3.22,17.22,3.29,17.22,3.29z"/>
        </g>
      </g>
      <line style="fill:none;stroke:#6CC5DA;stroke-width:1.0542;stroke-linecap:round;stroke-miterlimit:10;" x1="33.15" y1="10.79" x2="26.64" y2="10.81"/>
      <path style="fill:none;stroke:#6CC5DA;stroke-width:1.265;stroke-miterlimit:10;" d="M54.4,41.07c0,5.44-4.41,9.85-9.85,9.85c-0.2,0-0.41-0.01-0.61-0.02c-0.89-0.05-1.75-0.23-2.56-0.5 c-3.89-1.32-6.69-5-6.69-9.33c0-4.35,2.82-8.05,6.74-9.35c0.81-0.27,1.67-0.44,2.56-0.49c0.19-0.01,0.37-0.02,0.56-0.02 C49.98,31.22,54.4,35.63,54.4,41.07z"/>
      <circle style="fill:none;stroke:#6CC5DA;stroke-width:0.6325;stroke-miterlimit:10;" cx="40.59" cy="38.56" r="1.59"/>
      <path style="fill:none;stroke:#6CC5DA;stroke-width:0.6325;stroke-miterlimit:10;" d="M37.45,43.82c-0.24-0.09-0.4-0.3-0.42-0.55c-0.04-0.57-0.09-1.56,0.13-1.9c0.24-0.39,1.34-0.85,1.85-1.04 c0.16-0.06,0.33-0.06,0.48,0.01c0.3,0.13,0.81,0.33,1.03,0.34c0.26,0.01,0.86-0.17,1.18-0.28c0.14-0.05,0.3-0.04,0.43,0.01 c0.43,0.17,1.4,0.45,1.62,0.76c0.24,0.34,0.28,1.46,0.32,2.04c0.02,0.26-0.12,0.5-0.35,0.61l0,0c-0.41,0.2-0.89-0.07-0.93-0.53 c-0.02-0.37-0.1-0.7-0.27-0.7c-0.28,0-0.39,0.79-0.43,1.32c-0.02,0.28-0.23,0.51-0.51,0.57c-0.35,0.07-0.81,0.16-1.07,0.15 c-0.21,0-0.54-0.08-0.81-0.16c-0.28-0.08-0.47-0.33-0.47-0.62c0.01-0.54-0.03-1.36-0.34-1.4c-0.23-0.03-0.33,0.44-0.37,0.9 c-0.04,0.42-0.46,0.69-0.86,0.55L37.45,43.82z"/>
      <circle style="fill:none;stroke:#6CC5DA;stroke-width:0.6325;stroke-miterlimit:10;" cx="49.15" cy="38.44" r="1.59"/>
      <path style="fill:none;stroke:#6CC5DA;stroke-width:0.6325;stroke-miterlimit:10;" d="M46.01,43.7c-0.24-0.09-0.4-0.3-0.42-0.55c-0.04-0.57-0.09-1.56,0.13-1.9c0.24-0.39,1.34-0.85,1.85-1.04 c0.16-0.06,0.33-0.06,0.48,0.01c0.3,0.13,0.81,0.33,1.03,0.34c0.26,0.01,0.86-0.17,1.18-0.28c0.14-0.05,0.3-0.04,0.43,0.01 c0.43,0.17,1.4,0.45,1.62,0.76c0.24,0.34,0.28,1.46,0.32,2.04c0.02,0.26-0.12,0.5-0.35,0.61h0c-0.41,0.2-0.89-0.07-0.93-0.53 c-0.02-0.37-0.1-0.7-0.27-0.7c-0.28,0-0.39,0.79-0.43,1.32c-0.02,0.28-0.23,0.51-0.51,0.57c-0.35,0.07-0.81,0.16-1.07,0.15 c-0.21,0-0.54-0.08-0.81-0.16c-0.28-0.08-0.47-0.33-0.47-0.62c0.01-0.54-0.03-1.36-0.34-1.4c-0.23-0.03-0.33,0.44-0.37,0.9 c-0.04,0.42-0.46,0.69-0.86,0.55L46.01,43.7z"/>
      <polyline style="fill:none;stroke:#3B8FCD;stroke-width:1.2618;stroke-linecap:round;stroke-miterlimit:10;" points="23.91,29.79 26.98,33.88 35.88,26.37 &#9;&#9;"/>
    </g>
  </g>
</svg>