<?xml version="1.0" encoding="utf-8"?>
<svg viewBox="6.805 3.159 54.99 58.274" width="54.99" height="58.274" xmlns="http://www.w3.org/2000/svg">
  <g>
    <g>
      <g>
        <path style="fill:#6CC5DA;" d="M11.98,25.26c-0.62-2.14-0.34-4.53,0.91-6.39c1.16-1.73,3.07-2.85,5.12-3.14c0.58-0.08,0.33-0.96-0.24-0.87 c-2.28,0.33-4.36,1.66-5.62,3.58c-1.35,2.05-1.67,4.7-0.83,7.01C11.47,25.85,12.11,25.69,11.98,25.26L11.98,25.26z"/>
      </g>
    </g>
    <path style="fill:#3B8FCD;" d="M37.53,57.57c-1.8-0.02-3.44-1.12-4.4-2.61c-0.99-1.54-1.34-3.39-1.42-5.19c-0.05-1.15,0-2.31,0.04-3.46 c0.03-1.03,0.09-2.09-0.01-3.12c-0.15-1.46-0.66-3.27-2.16-3.88c-1.8-0.73-3.49,0.83-4.09,2.41c-0.37,0.98-0.47,2.04-0.56,3.08 c-0.09,0.95-0.19,1.9-0.32,2.85c-0.16,1.13-0.35,2.26-0.57,3.38c-0.2,1.01-0.41,2.02-0.71,3c-0.25,0.8-0.59,1.62-1.16,2.25 c-0.59,0.65-1.41,1.01-2.29,0.99c-1.87-0.04-3.29-1.46-4.06-3.05c-0.43-0.88-0.7-1.83-0.94-2.77c-0.28-1.1-0.51-2.21-0.71-3.33 c-0.41-2.26-0.65-4.54-0.75-6.83c-0.04-0.91-0.04-1.83-0.05-2.74c-0.01-1.04-0.09-2.09-0.51-3.05c-0.41-0.94-1.12-1.71-1.81-2.46 c-0.64-0.71-1.23-1.44-1.72-2.27c-0.93-1.56-1.52-3.31-1.75-5.11c-0.46-3.56,0.54-7.17,2.88-9.91c2.25-2.62,5.53-4.42,9-4.64 c3.55-0.23,7.17,1.1,9.78,3.51c0.63,0.58,1.2,1.23,1.7,1.93c0.04-0.15,0.08-0.3,0.12-0.44c-0.1,0.07-0.21,0.14-0.31,0.22 c0.15,0.04,0.3,0.08,0.44,0.12c-2.5-3.53-6.79-5.69-11.12-5.63c-4.29,0.06-8.38,2.45-10.76,5.99C6.83,20.5,6.57,25.33,8.3,29.38 c0.43,1.02,1,1.97,1.67,2.84c0.75,0.96,1.69,1.78,2.33,2.83c0.69,1.14,0.77,2.45,0.78,3.75c0.01,1.19,0.03,2.38,0.1,3.57 c0.18,2.79,0.58,5.58,1.21,8.3c0.5,2.16,1.11,4.63,3.01,6c0.86,0.62,1.97,0.98,3.03,0.83c1.06-0.15,1.89-0.84,2.43-1.73 c0.57-0.94,0.84-2.03,1.09-3.09c0.32-1.37,0.58-2.75,0.79-4.13c0.19-1.22,0.33-2.44,0.44-3.67c0.11-1.22,0.21-2.5,0.79-3.61 c0.48-0.92,1.41-1.76,2.49-1.85c0.85-0.07,1.64,0.35,2.12,1.04c0.83,1.2,0.93,2.74,0.93,4.15c0,2.63-0.34,5.3,0.3,7.88 c0.5,2.04,1.69,3.99,3.66,4.88c0.93,0.42,1.97,0.6,2.97,0.37c1.04-0.23,1.98-0.86,2.69-1.65c1.69-1.87,2.1-4.5,2.46-6.91 c0.42-2.79,0.65-5.61,0.69-8.43c0.02-1.38-0.01-2.76-0.08-4.14c-0.11,0.11-0.22,0.22-0.32,0.32c0.13-0.01,0.25-0.01,0.38-0.02 c-0.11-0.11-0.22-0.22-0.32-0.32c0.17,3.36,0.08,6.74-0.29,10.09c-0.17,1.58-0.39,3.16-0.71,4.71c-0.3,1.46-0.76,2.94-1.69,4.14 C40.35,56.71,39.03,57.55,37.53,57.57c-0.42,0.01-0.42,0.66,0,0.65c1.4-0.02,2.68-0.65,3.65-1.63c1.09-1.09,1.73-2.53,2.13-3.99 c0.42-1.54,0.63-3.14,0.83-4.72c0.23-1.76,0.38-3.53,0.45-5.3c0.09-1.99,0.08-3.98-0.02-5.98c-0.01-0.17-0.14-0.33-0.32-0.32 c-0.13,0.01-0.25,0.01-0.38,0.02c-0.17,0.01-0.33,0.14-0.32,0.32c0.14,2.76,0.1,5.52-0.12,8.27c-0.11,1.38-0.27,2.76-0.47,4.13 c-0.18,1.21-0.37,2.44-0.72,3.62c-0.6,2.02-2.01,4.32-4.33,4.55c-2.1,0.2-3.93-1.29-4.82-3.07c-1.07-2.13-1.06-4.61-0.98-6.94 c0.06-1.78,0.24-3.64-0.23-5.39c-0.41-1.55-1.5-3.08-3.28-3.02c-1.06,0.03-2.04,0.65-2.7,1.47c-0.74,0.93-1.05,2.09-1.21,3.24 c-0.15,1.09-0.21,2.19-0.35,3.28c-0.17,1.36-0.38,2.72-0.65,4.07c-0.23,1.18-0.46,2.39-0.87,3.53c-0.33,0.92-0.85,1.86-1.77,2.3 c-0.96,0.46-2.1,0.2-2.97-0.32c-0.95-0.56-1.58-1.48-2.03-2.47c-0.47-1.03-0.74-2.16-1-3.26c-0.31-1.32-0.56-2.66-0.76-4 c-0.37-2.5-0.54-5.02-0.55-7.55c0-1.25-0.03-2.53-0.54-3.7c-0.48-1.11-1.35-1.97-2.14-2.86c-2.89-3.24-3.95-7.93-2.72-12.1 c1.17-3.97,4.51-7.17,8.44-8.39c4.04-1.25,8.57-0.18,11.78,2.53c0.78,0.66,1.48,1.41,2.07,2.24c0.09,0.13,0.29,0.22,0.44,0.12 c0.1-0.07,0.21-0.14,0.31-0.22c0.13-0.09,0.22-0.29,0.12-0.44c-2.11-2.98-5.46-5.01-9.06-5.6c-3.59-0.59-7.24,0.36-10.15,2.53 c-2.91,2.17-4.89,5.37-5.37,8.99C6.44,25.83,7.47,29.7,9.79,32.6c0.66,0.82,1.44,1.53,2.03,2.4c0.62,0.93,0.83,1.96,0.87,3.06 c0.04,0.94,0.01,1.87,0.04,2.81c0.04,1.16,0.12,2.32,0.23,3.47c0.24,2.32,0.63,4.62,1.17,6.89c0.45,1.88,1.04,3.92,2.49,5.29 c1.28,1.21,3.26,1.84,4.92,1.03c1.64-0.81,2.28-2.71,2.67-4.36c0.54-2.25,0.93-4.54,1.19-6.84c0.11-0.95,0.16-1.9,0.3-2.84 c0.15-0.99,0.41-2.02,1.1-2.78c0.59-0.65,1.48-1.13,2.37-0.87c0.72,0.21,1.19,0.86,1.47,1.52c0.32,0.76,0.45,1.61,0.47,2.43 c0.04,1.15-0.02,2.3-0.06,3.45c-0.06,2.11-0.05,4.28,0.67,6.29c0.6,1.68,1.7,3.19,3.31,4.03c0.77,0.4,1.62,0.63,2.49,0.64 C37.95,58.23,37.95,57.58,37.53,57.57z"/>
    <path style="fill:none;stroke:#3C8FCD;stroke-width:0.2219;stroke-miterlimit:10;" d="M31.34,16.34c-2.38-3.58-6.59-5.77-10.87-5.84c-4.23-0.07-8.31,2.04-10.87,5.37 c-2.67,3.47-3.38,8.1-2.08,12.26c0.33,1.05,0.78,2.07,1.35,3.01c0.59,0.97,1.32,1.8,2.07,2.64c0.82,0.91,1.49,1.84,1.72,3.07 c0.23,1.27,0.12,2.59,0.16,3.87c0.08,2.73,0.39,5.45,0.9,8.13c0.25,1.28,0.52,2.57,0.9,3.82c0.33,1.11,0.78,2.2,1.49,3.12 c1.26,1.65,3.7,2.73,5.64,1.57c1.93-1.16,2.34-3.76,2.75-5.77c0.28-1.36,0.51-2.73,0.69-4.11c0.17-1.3,0.24-2.61,0.42-3.91 c0.16-1.16,0.49-2.35,1.38-3.16c0.71-0.66,1.75-0.99,2.65-0.49c0.75,0.42,1.15,1.26,1.37,2.06c0.29,1.05,0.28,2.13,0.26,3.21 c-0.05,2.6-0.32,5.26,0.41,7.8c0.64,2.2,2.1,4.17,4.33,4.91c1.02,0.33,2.15,0.34,3.15-0.05c1-0.39,1.85-1.07,2.51-1.92 c1.55-1.99,1.92-4.62,2.27-7.04c0.39-2.74,0.61-5.49,0.64-8.26c0.02-1.34-0.01-2.67-0.08-4c-0.03-0.53-0.86-0.54-0.83,0 c0.14,2.69,0.1,5.38-0.11,8.06c-0.1,1.33-0.25,2.66-0.44,3.98c-0.18,1.24-0.37,2.49-0.7,3.71c-0.55,2.02-1.72,4.18-3.88,4.79 c-2.04,0.57-4.13-0.71-5.2-2.4c-1.29-2.06-1.41-4.58-1.36-6.94c0.03-1.35,0.11-2.7,0.07-4.05c-0.03-0.91-0.18-1.84-0.53-2.69 c-0.34-0.81-0.88-1.57-1.71-1.94c-0.95-0.43-2.03-0.26-2.88,0.32c-2.11,1.41-2.13,4.1-2.36,6.36c-0.27,2.58-0.69,5.18-1.37,7.69 c-0.25,0.92-0.58,1.89-1.25,2.6c-0.65,0.7-1.58,1-2.52,0.83c-2.22-0.4-3.36-2.46-3.96-4.45c-0.75-2.47-1.19-5.07-1.48-7.63 c-0.15-1.32-0.24-2.64-0.29-3.97c-0.04-1.26,0.04-2.55-0.12-3.81c-0.16-1.24-0.65-2.28-1.44-3.25c-0.69-0.85-1.49-1.61-2.12-2.52 c-2.38-3.45-2.94-8.05-1.39-11.95c1.47-3.69,4.85-6.56,8.68-7.56c3.94-1.03,8.33,0.1,11.41,2.72c0.76,0.65,1.47,1.35,2.07,2.15 C31.02,16.99,31.58,16.7,31.34,16.34L31.34,16.34z"/>
    <g>
      <g>
        <path style="fill:#6CC5DA;" d="M59.26,13.63c0,0-0.02-0.17-0.06-0.47c-0.04-0.3-0.13-0.73-0.29-1.23c-0.31-1-0.97-2.29-2.06-3.35 c-1.1-1.05-2.41-1.67-3.42-1.94c-0.51-0.14-0.94-0.21-1.24-0.24c-0.3-0.03-0.47-0.05-0.47-0.05s0.16-0.05,0.47-0.12 c0.3-0.07,0.75-0.13,1.32-0.12c1.12,0.01,2.77,0.44,4.08,1.7c1.31,1.26,1.79,2.9,1.85,4.02c0.03,0.57-0.01,1.02-0.07,1.33 C59.31,13.47,59.26,13.63,59.26,13.63z"/>
      </g>
    </g>
    <g>
      <g>
        <path style="fill:#6CC5DA;" d="M61.57,12.62c0,0-0.02-0.22-0.08-0.59c-0.06-0.38-0.17-0.92-0.37-1.55c-0.39-1.26-1.22-2.88-2.6-4.21 c-1.38-1.33-3.03-2.1-4.31-2.44c-0.64-0.18-1.18-0.27-1.56-0.31c-0.38-0.04-0.6-0.06-0.6-0.06s0.2-0.07,0.59-0.15 c0.38-0.08,0.95-0.16,1.67-0.15c0.71,0.02,1.57,0.15,2.48,0.48c0.9,0.33,1.85,0.88,2.66,1.66c0.81,0.79,1.39,1.71,1.76,2.6 c0.37,0.89,0.53,1.75,0.57,2.46c0.04,0.71-0.01,1.28-0.08,1.67C61.63,12.41,61.57,12.62,61.57,12.62z"/>
      </g>
    </g>
    <text transform="matrix(1.0916 0 0 1 50.5088 12.985)" class="st1 st3 st4" style="white-space: pre;">1</text>
    <path style="fill:none;stroke:#3B8FCD;stroke-width:0.4549;stroke-miterlimit:10;" d="M52.46,20.64h-6.89c-0.37,0-0.62-0.36-0.45-0.67l0.96-1.73c0.04-0.07,0.06-0.16,0.05-0.24 c-0.05-0.61-0.24-3.24,0.15-4.11c0.33-0.74,0.9-1.92,2.78-1.93c0.16,0,0.31,0.01,0.45,0.02c-0.03,0.12-0.05,0.24-0.05,0.37 c0,0.77,0.68,1.39,1.52,1.39c0.26,0,0.51-0.06,0.72-0.17c0.06,0.11,0.11,0.22,0.15,0.32c0.39,0.89,0.16,3.6,0.1,4.23 c-0.01,0.09,0.01,0.17,0.05,0.25l0.9,1.6C53.08,20.28,52.84,20.64,52.46,20.64z"/>
    <path style="fill:none;stroke:#69C4DA;stroke-width:0.4549;stroke-miterlimit:10;" d="M52.49,12.36c0,0.53-0.32,0.99-0.79,1.22c-0.21,0.11-0.46,0.17-0.72,0.17c-0.84,0-1.52-0.62-1.52-1.39 c0-0.13,0.02-0.25,0.05-0.37c0.18-0.59,0.76-1.02,1.46-1.02C51.81,10.97,52.49,11.59,52.49,12.36z"/>
    <path style="fill:none;stroke:#3A8FCD;stroke-width:0.3741;stroke-miterlimit:10;" d="M50.42,20.9c0,0.53-0.58,0.97-1.3,0.97s-1.3-0.43-1.3-0.97c0-0.06,0.01-0.13,0.02-0.19h2.55 C50.41,20.78,50.42,20.84,50.42,20.9z"/>
    <g>
      <path style="fill:#3B8FCD;" d="M43.52,11.01c-2.05-1.19-4.42-1.78-6.81-1.55c-2.8,0.26-5.58,1.54-7.35,3.76c-0.22,0.27-0.42,0.55-0.6,0.84 c-0.1,0.15-0.03,0.35,0.12,0.44c0.15,0.09,0.29,0.18,0.44,0.28c0.15,0.1,0.35,0.03,0.44-0.12c1.38-2.19,3.79-3.53,6.3-3.95 c2.37-0.4,4.75,0.11,6.82,1.28C43.05,11.67,43.26,11.34,43.52,11.01z"/>
      <path style="fill:#3B8FCD;" d="M49.86,24.74c0,1.18-0.14,2.35-0.43,3.49c-0.81,3.2-3.01,5.98-5.74,7.78c-0.14,0.09-0.22,0.29-0.12,0.44 c0.09,0.15,0.19,0.29,0.28,0.44c0.02,0.03,0.05,0.06,0.08,0.08c0.09,0.09,0.23,0.13,0.37,0.03c2.67-1.76,4.85-4.35,5.93-7.37 c0.55-1.56,0.81-3.23,0.81-4.9H49.86z"/>
    </g>
    <g>
      <g>
        <path style="fill:#6CC5DA;" d="M12.11,51.57c0,0-0.02,0.16-0.04,0.44c-0.02,0.28-0.03,0.69,0.01,1.18c0.07,0.98,0.41,2.3,1.18,3.5 c0.78,1.19,1.85,2.03,2.72,2.49c0.43,0.23,0.81,0.39,1.08,0.48c0.27,0.09,0.42,0.14,0.42,0.14s-0.16,0.02-0.45,0.01 c-0.29,0-0.72-0.04-1.23-0.17c-1.02-0.25-2.44-0.99-3.38-2.41c-0.93-1.43-1.03-3.03-0.85-4.06c0.09-0.53,0.22-0.93,0.34-1.2 C12.04,51.71,12.11,51.57,12.11,51.57z"/>
      </g>
    </g>
    <g>
      <g>
        <path style="fill:#6CC5DA;" d="M9.65,53.19c0,0-0.02,0.16-0.04,0.44c-0.02,0.28-0.03,0.69,0.01,1.18c0.07,0.98,0.41,2.3,1.18,3.5 c0.78,1.19,1.85,2.03,2.72,2.49c0.43,0.23,0.81,0.39,1.08,0.48c0.27,0.09,0.42,0.14,0.42,0.14s-0.16,0.02-0.45,0.01 c-0.29,0-0.72-0.04-1.23-0.17c-1.02-0.25-2.44-0.99-3.38-2.41c-0.93-1.43-1.03-3.03-0.85-4.06c0.09-0.53,0.22-0.93,0.34-1.2 C9.57,53.33,9.65,53.19,9.65,53.19z"/>
      </g>
    </g>
    <path style="fill:none;stroke:#6CC5DA;stroke-width:0.8875;stroke-miterlimit:10;" d="M57.21,16.76c0,4.52-3.67,8.18-8.18,8.18c-0.17,0-0.34-0.01-0.51-0.02c-0.74-0.05-1.45-0.19-2.12-0.42 c-3.23-1.1-5.55-4.15-5.55-7.75c0-3.62,2.34-6.68,5.59-7.77c0.67-0.23,1.39-0.36,2.13-0.4c0.15-0.01,0.31-0.01,0.46-0.01 C53.54,8.58,57.21,12.24,57.21,16.76z"/>
  </g>
</svg>