<?xml version="1.0" encoding="utf-8"?>
<svg viewBox="2.32 3.089 60.525 56.701" width="60.525" height="56.701" xmlns="http://www.w3.org/2000/svg">
  <g>
    <g>
      <g>
        <g>
          <path style="fill:#6CC5DA;" d="M27.83,5.04c0.56,0.11,1.14,0.42,1.47,0.9c0.37,0.53,0.46,1.19,0.28,1.79c-0.14,0.48,0.61,0.68,0.74,0.2 c0.23-0.8,0.09-1.71-0.41-2.38c-0.48-0.65-1.2-1.07-2.01-1.08C27.58,4.46,27.5,4.98,27.83,5.04L27.83,5.04z"/>
        </g>
      </g>
      <g>
        <g>
          <g>
            <path style="fill:#3B8FCD;" d="M27.51,18.12c-1.63-0.11-1.68-2.03-1.64-3.25c0.02-0.72,0.12-1.77-0.53-2.28c-0.63-0.5-1.41-0.06-1.7,0.58 c-0.42,0.9-0.33,2.15-0.52,3.11C22.98,16.94,22.84,18,21.98,18c-0.89-0.01-1.22-0.97-1.4-1.7c-0.31-1.23-0.44-2.49-0.45-3.75 c-0.01-0.42-0.01-0.84-0.18-1.22c-0.2-0.45-0.6-0.77-0.89-1.16c-0.78-1.06-0.99-2.51-0.52-3.74c1.11-2.84,4.97-3.23,6.76-0.84 c0.03-0.12,0.06-0.25,0.1-0.37c-0.03,0.02-0.06,0.05-0.1,0.07c0.12,0.03,0.25,0.06,0.37,0.1c-1.73-2.32-5.19-2.45-6.97-0.09 c-0.86,1.14-1.06,2.66-0.58,4c0.21,0.6,0.55,1.09,0.96,1.56c0.39,0.45,0.6,0.85,0.62,1.47c0.01,0.37,0.01,0.75,0.03,1.12 c0.05,0.83,0.16,1.65,0.33,2.46c0.15,0.7,0.31,1.51,0.82,2.05c0.41,0.42,1.07,0.66,1.63,0.41c0.55-0.25,0.76-0.86,0.89-1.4 c0.21-0.83,0.33-1.68,0.41-2.53c0.04-0.37,0.05-0.79,0.23-1.12c0.4-0.74,1.16-0.49,1.34,0.2c0.35,1.31-0.26,2.69,0.44,3.96 c0.67,1.23,2.23,1.48,3.09,0.3c0.51-0.7,0.6-1.63,0.71-2.46c0.15-1.17,0.19-2.35,0.14-3.53c-0.09,0.09-0.18,0.18-0.27,0.27 c0.04,0,0.08,0,0.12-0.01c-0.09-0.09-0.18-0.18-0.27-0.27c0.05,1.22,0.01,2.44-0.15,3.66C29.03,16.45,28.83,18.01,27.51,18.12 c-0.34,0.03-0.35,0.57,0,0.54c1.15-0.1,1.77-1.02,2.02-2.08c0.37-1.57,0.42-3.24,0.35-4.84c-0.01-0.14-0.12-0.28-0.27-0.27 c-0.04,0-0.08,0-0.12,0.01c-0.14,0.01-0.28,0.12-0.27,0.27c0.07,1.58,0.07,3.33-0.38,4.87c-0.27,0.91-1.06,1.81-2.03,1.14 c-0.66-0.45-0.81-1.31-0.83-2.05c-0.02-0.89,0.21-1.93-0.22-2.77c-0.39-0.76-1.3-0.89-1.91-0.28 c-0.76,0.77-0.61,2.36-0.79,3.33c-0.13,0.71-0.41,2.41-1.51,1.78c-0.73-0.41-0.87-1.55-1.01-2.29 c-0.15-0.76-0.24-1.54-0.27-2.32c-0.02-0.53,0.04-1.09-0.1-1.61c-0.13-0.49-0.48-0.83-0.8-1.21c-0.47-0.56-0.8-1.21-0.91-1.94 c-0.26-1.65,0.62-3.25,2.12-3.97c1.62-0.77,3.57-0.2,4.63,1.22c0.08,0.11,0.24,0.19,0.37,0.1c0.03-0.02,0.06-0.05,0.1-0.07 c0.11-0.08,0.19-0.25,0.1-0.37c-1.4-1.87-4.02-2.48-6.02-1.17c-2.03,1.34-2.61,4.1-1.27,6.14c0.36,0.55,0.94,0.95,1.07,1.64 c0.12,0.66,0.04,1.39,0.1,2.06c0.11,1.22,0.23,2.81,0.98,3.84c0.57,0.78,1.73,1.08,2.41,0.26c0.32-0.39,0.44-0.9,0.54-1.37 c0.17-0.76,0.28-1.52,0.36-2.3c0.04-0.41,0.03-0.94,0.37-1.23c0.77-0.66,1.02,0.4,1.04,0.92c0.03,0.75-0.08,1.5,0.02,2.24 c0.17,1.18,0.87,2.24,2.15,2.33C27.85,18.69,27.85,18.15,27.51,18.12z"/>
          </g>
        </g>
        <g>
          <g>
            <path style="fill:#3B8FCD;" d="M25.72,5.34c-1.53-2.38-4.98-2.6-6.86-0.51c-0.92,1.02-1.3,2.39-1.07,3.75c0.12,0.68,0.39,1.33,0.79,1.89 c0.18,0.25,0.41,0.46,0.6,0.71c0.41,0.52,0.37,1.09,0.38,1.72c0.04,1.49,0.13,3.5,0.95,4.8c0.6,0.93,1.96,1.29,2.64,0.25 c0.39-0.59,0.47-1.38,0.59-2.06c0.07-0.39,0.12-0.79,0.16-1.19c0.04-0.39,0.23-2.6,1.22-1.56c0.49,0.52,0.18,1.79,0.18,2.42 c0.01,0.75,0.11,1.55,0.54,2.18c0.8,1.18,2.39,1.22,3.2,0.03c0.52-0.76,0.61-1.74,0.71-2.63c0.14-1.13,0.17-2.26,0.12-3.4 c-0.02-0.44-0.7-0.44-0.68,0c0.07,1.59,0.06,3.34-0.39,4.89c-0.24,0.82-0.95,1.71-1.89,1.19c-0.75-0.41-0.93-1.35-0.95-2.13 c-0.03-0.95,0.29-2.29-0.44-3.08c-0.7-0.75-1.73-0.18-2.05,0.63c-0.24,0.59-0.21,1.29-0.3,1.91c-0.1,0.7-0.19,1.48-0.48,2.14 c-0.46,1.06-1.47,0.43-1.79-0.38c-0.3-0.75-0.42-1.61-0.52-2.41c-0.15-1.16,0.16-2.65-0.55-3.64c-0.36-0.5-0.8-0.9-1.07-1.47 c-0.28-0.62-0.4-1.32-0.32-2c0.18-1.54,1.4-2.84,2.9-3.18c1.48-0.34,2.98,0.34,3.94,1.46C25.49,5.9,25.88,5.59,25.72,5.34 L25.72,5.34z"/>
          </g>
        </g>
        <g>
          <g>
            <path style="fill:#3B8FCD;" d="M29.8,11.65c-0.03-0.05-0.06-0.09-0.09-0.14c-0.03,0.12-0.06,0.25-0.1,0.37c1.1-0.74,1.88-1.85,2.06-3.18 c0.18-1.36-0.2-2.79-1.06-3.86c-0.73-0.91-1.81-1.57-3-1.59c-1.13-0.02-2.24,0.51-2.87,1.46c0.12-0.03,0.25-0.06,0.37-0.1 c-0.05-0.03-0.09-0.06-0.14-0.09c0.03,0.12,0.06,0.25,0.1,0.37c0.58-0.88,1.65-1.32,2.69-1.26c1.06,0.06,2.03,0.72,2.65,1.56 c0.73,0.99,1.05,2.27,0.88,3.49c-0.17,1.19-0.89,2.2-1.87,2.87c-0.29,0.19-0.02,0.66,0.27,0.47c1.15-0.78,1.96-1.94,2.14-3.34 c0.18-1.38-0.21-2.82-1.07-3.91c-0.75-0.96-1.88-1.65-3.12-1.68c-1.2-0.03-2.37,0.53-3.03,1.54c-0.08,0.12-0.02,0.3,0.1,0.37 c0.05,0.03,0.09,0.06,0.14,0.09c0.13,0.08,0.29,0.02,0.37-0.1c0.54-0.83,1.55-1.24,2.52-1.19c1.01,0.06,1.93,0.67,2.53,1.47 c0.7,0.93,1.02,2.14,0.88,3.29c-0.14,1.19-0.83,2.2-1.81,2.86c-0.12,0.08-0.18,0.24-0.1,0.37c0.03,0.05,0.06,0.09,0.09,0.14 C29.52,12.21,29.99,11.94,29.8,11.65z"/>
          </g>
        </g>
        <g>
          <g>
            <path style="fill:#3B8FCD;" d="M25.09,4.97c0.69-0.75,1.49-1.23,2.55-1.2c1.04,0.03,1.99,0.64,2.61,1.46c0.69,0.91,1.02,2.08,0.92,3.22 c-0.1,1.23-0.79,2.3-1.8,3c-0.33,0.23-0.02,0.76,0.32,0.54c1.93-1.27,2.69-3.6,1.89-5.78c-0.66-1.8-2.38-3.3-4.38-3.07 c-0.95,0.11-2.06,0.62-2.47,1.55C24.62,4.91,24.89,5.18,25.09,4.97L25.09,4.97z"/>
          </g>
        </g>
      </g>
    </g>
    <path style="fill:none;stroke:#6CC5DA;stroke-width:0.8665;stroke-miterlimit:10;" d="M16.05,28.03L16.05,28.03c-1.63,0-2.96-1.33-2.96-2.96v-0.38c0-1.63,1.33-2.96,2.96-2.96h0 c1.63,0,2.96,1.33,2.96,2.96v0.38C19.01,26.69,17.68,28.03,16.05,28.03z"/>
    <path style="fill:none;stroke:#6CC5DA;stroke-width:0.8665;stroke-miterlimit:10;" d="M23.63,28L23.63,28c-1.63,0-2.96-1.33-2.96-2.96v-0.38c0-1.63,1.33-2.96,2.96-2.96h0 c1.63,0,2.96,1.33,2.96,2.96v0.38C26.59,26.67,25.26,28,23.63,28z"/>
    <path style="fill:none;stroke:#6CC5DA;stroke-width:0.8665;stroke-miterlimit:10;" d="M31.16,28.07L31.16,28.07c-1.63,0-2.96-1.33-2.96-2.96v-0.38c0-1.63,1.33-2.96,2.96-2.96h0 c1.63,0,2.96,1.33,2.96,2.96v0.38C34.12,26.74,32.79,28.07,31.16,28.07z"/>
    <path style="fill:none;stroke:#6CC5DA;stroke-width:0.8665;stroke-miterlimit:10;" d="M15.95,36.03L15.95,36.03c-1.63,0-2.96-1.33-2.96-2.96v-0.38c0-1.63,1.33-2.96,2.96-2.96h0 c1.63,0,2.96,1.33,2.96,2.96v0.38C18.92,34.69,17.58,36.03,15.95,36.03z"/>
    <path style="fill:none;stroke:#6CC5DA;stroke-width:0.8665;stroke-miterlimit:10;" d="M23.53,36.01L23.53,36.01c-1.63,0-2.96-1.33-2.96-2.96v-0.38c0-1.63,1.33-2.96,2.96-2.96h0 c1.63,0,2.96,1.33,2.96,2.96v0.38C26.49,34.67,25.16,36.01,23.53,36.01z"/>
    <path style="fill:none;stroke:#6CC5DA;stroke-width:0.8665;stroke-miterlimit:10;" d="M31.07,36.07L31.07,36.07c-1.63,0-2.96-1.33-2.96-2.96v-0.38c0-1.63,1.33-2.96,2.96-2.96h0 c1.63,0,2.96,1.33,2.96,2.96v0.38C34.03,34.74,32.7,36.07,31.07,36.07z"/>
    <path style="fill:none;stroke:#6CC5DA;stroke-width:0.8665;stroke-miterlimit:10;" d="M42.25,43.92L42.25,43.92c-1.63,0-2.96-1.33-2.96-2.96v-0.38c0-1.63,1.33-2.96,2.96-2.96h0 c1.63,0,2.96,1.33,2.96,2.96v0.38C45.22,42.58,43.88,43.92,42.25,43.92z"/>
    <path style="fill:none;stroke:#6CC5DA;stroke-width:0.8665;stroke-miterlimit:10;" d="M42.16,51.92L42.16,51.92c-1.63,0-2.96-1.33-2.96-2.96v-0.38c0-1.63,1.33-2.96,2.96-2.96h0 c1.63,0,2.96,1.33,2.96,2.96v0.38C45.12,50.58,43.79,51.92,42.16,51.92z"/>
    <path style="fill:none;stroke:#6CC5DA;stroke-width:0.8665;stroke-miterlimit:10;" d="M50.4,43.85L50.4,43.85c-1.63,0-2.96-1.33-2.96-2.96V40.5c0-1.63,1.33-2.96,2.96-2.96h0 c1.63,0,2.96,1.33,2.96,2.96v0.38C53.36,42.51,52.03,43.85,50.4,43.85z"/>
    <path style="fill:none;stroke:#6CC5DA;stroke-width:0.8665;stroke-miterlimit:10;" d="M50.3,51.85L50.3,51.85c-1.63,0-2.96-1.33-2.96-2.96V48.5c0-1.63,1.33-2.96,2.96-2.96h0 c1.63,0,2.96,1.33,2.96,2.96v0.38C53.26,50.52,51.93,51.85,50.3,51.85z"/>
    <path style="fill:none;stroke:#6CC5DA;stroke-width:0.7291;stroke-miterlimit:10;" d="M28.1,59.36h-8.18V45.55c0-2.25,1.84-4.09,4.09-4.09h0c2.25,0,4.09,1.84,4.09,4.09V59.36z"/>
    <path style="fill:none;stroke:#3B8FCD;stroke-width:0.9434;stroke-miterlimit:10;" d="M36.95,33.49v-0.26l0-17.01c0-1.74-1.42-3.16-3.16-3.16h-4.08v0.02c0,0.03,0,0.07,0,0.1h4.08 c1.67,0,3.04,1.37,3.04,3.04l0,17.01v0.26l0,22.88c0,1.31-0.84,2.43-2,2.85c-0.16,0.06-0.32,0.1-0.48,0.13 c-0.05,0.01-0.1,0.02-0.15,0.02c-0.13,0.02-0.27,0.03-0.41,0.03l-20.45,0c-1.67,0-3.04-1.37-3.04-3.04L10.3,16.23 c0-1.67,1.37-3.04,3.04-3.04l5.97,0c0-0.03,0-0.07,0-0.1v-0.02l-5.96,0c-1.74,0-3.16,1.42-3.16,3.16l0.01,40.15 c0,1.74,1.42,3.16,3.16,3.16l20.45,0c0.22,0,0.44-0.02,0.65-0.07c0.05-0.01,0.1-0.02,0.14-0.03c0.17-0.04,0.33-0.1,0.48-0.17 c1.11-0.49,1.88-1.6,1.88-2.89L36.95,33.49z"/>
    <path style="fill:#3B8FCD;" d="M37.21,16.23c0-1.88-1.53-3.42-3.42-3.42H29.7c0,0.09,0.01,0.17,0.01,0.26v0.02c0,0.03,0,0.07,0,0.1 c0,0.13-0.01,0.25-0.02,0.38h4.1c1.47,0,2.66,1.19,2.66,2.66l0.01,40.15c0,1.11-0.7,2.12-1.75,2.5c-0.14,0.05-0.28,0.09-0.42,0.12 c-0.04,0.01-0.08,0.02-0.13,0.02c-0.13,0.02-0.25,0.02-0.37,0.02l-20.45,0c-1.47,0-2.66-1.19-2.67-2.66l-0.01-40.15 c0-1.47,1.19-2.67,2.66-2.67l5.99,0c-0.01-0.13-0.02-0.25-0.02-0.38c0-0.03,0-0.07,0-0.1v-0.02c0-0.09,0-0.17,0.01-0.26l-5.97,0 c-1.88,0-3.42,1.53-3.42,3.42l0.01,40.15c0,1.88,1.53,3.42,3.42,3.42l20.45,0c0.15,0,0.31-0.01,0.46-0.03 c0.06-0.01,0.11-0.02,0.16-0.03c0.18-0.03,0.37-0.09,0.54-0.15c1.34-0.49,2.24-1.78,2.24-3.21L37.21,16.23z"/>
    <path style="fill:none;stroke:#3B8FCD;stroke-width:1.0258;stroke-miterlimit:10;" d="M55.3,35.08c0-0.21-0.05-0.4-0.15-0.59c-0.36-0.69-1.33-1.19-2.47-1.19l-15.47,0h-0.12v0.07h0.12l15.47,0 c1.39,0,2.52,0.77,2.52,1.71l0,22.37v0.26c0,0.94-1.13,1.71-2.52,1.71l-16.96,0c-0.31,0-0.61,0.09-0.88,0.02 c-0.08-0.02,0.87-0.04,0.79-0.07c-0.05,0.01-0.35,0.02-0.4,0.02c0.08,0.03-1.51,0.06-1.43,0.08c0.32,0.09,1.56,0.01,1.92,0.01 l16.96,0c1.45,0,2.62-0.8,2.62-1.78L55.3,35.08z"/>
    <path style="fill:none;stroke:#3B8FCD;stroke-width:1.0258;stroke-miterlimit:10;" d="M55.33,57.44L55.33,57.44c0,0.94-1.13,1.71-2.52,1.71l-16.96,0c-0.14,0-0.27-0.01-0.4-0.02 c-0.08-0.01,0.23-0.02,0.15-0.03c1.16-0.43,1.61-1.55,1.61-2.85l0-22.88v-0.26h0.12l15.47,0c1.22,0,2.25,0.6,2.47,1.38 c0.03,0.11,0.05,0.22,0.05,0.33v0.26L55.33,57.44z"/>
    <g>
      <g>
        <path style="fill:#6CC5DA;" d="M14.84,8.74c0,0-0.22,0.01-0.59,0.05c-0.38,0.03-0.92,0.12-1.56,0.28c-1.28,0.32-2.94,1.06-4.33,2.36 c-1.39,1.3-2.25,2.91-2.66,4.16c-0.21,0.62-0.33,1.16-0.39,1.53c-0.06,0.38-0.09,0.59-0.09,0.59s-0.06-0.21-0.12-0.59 c-0.06-0.39-0.11-0.95-0.06-1.67c0.05-0.71,0.23-1.56,0.61-2.44c0.38-0.88,0.97-1.79,1.79-2.56c0.83-0.76,1.78-1.29,2.68-1.61 c0.91-0.32,1.77-0.43,2.48-0.44c0.71,0,1.28,0.08,1.66,0.17C14.64,8.67,14.84,8.74,14.84,8.74z"/>
      </g>
    </g>
    <g>
      <g>
        <path style="fill:#6CC5DA;" d="M12.15,5.86c0,0-0.22,0.01-0.59,0.05c-0.38,0.03-0.92,0.12-1.56,0.28C8.72,6.51,7.06,7.25,5.66,8.55 C4.27,9.85,3.41,11.46,3,12.71c-0.21,0.62-0.33,1.16-0.39,1.53c-0.06,0.38-0.09,0.59-0.09,0.59s-0.06-0.21-0.12-0.59 c-0.06-0.39-0.11-0.95-0.06-1.67c0.05-0.71,0.23-1.56,0.61-2.44c0.38-0.88,0.97-1.79,1.79-2.56c0.83-0.76,1.78-1.29,2.68-1.61 C8.34,5.65,9.2,5.53,9.91,5.53c0.71,0,1.28,0.08,1.66,0.17C11.94,5.79,12.15,5.86,12.15,5.86z"/>
      </g>
    </g>
    <g>
      <g>
        <path style="fill:#6CC5DA;" d="M60.07,36.75c0,0-0.02-0.2-0.08-0.55c-0.05-0.35-0.16-0.85-0.34-1.44c-0.36-1.17-1.14-2.68-2.42-3.92 c-1.29-1.23-2.83-1.95-4.01-2.27c-0.59-0.16-1.1-0.25-1.45-0.29c-0.35-0.04-0.55-0.05-0.55-0.05s0.19-0.06,0.55-0.14 c0.36-0.08,0.88-0.15,1.55-0.14c1.31,0.01,3.25,0.51,4.79,1.99c1.53,1.48,2.11,3.4,2.17,4.71c0.04,0.66-0.01,1.2-0.08,1.55 C60.12,36.55,60.07,36.75,60.07,36.75z"/>
      </g>
    </g>
    <g>
      <g>
        <path style="fill:#6CC5DA;" d="M62.62,34.08c0,0-0.02-0.2-0.08-0.55c-0.05-0.35-0.16-0.85-0.34-1.44c-0.36-1.17-1.14-2.68-2.42-3.92 c-1.29-1.23-2.83-1.95-4.01-2.27c-0.59-0.16-1.1-0.25-1.45-0.29c-0.35-0.04-0.55-0.05-0.55-0.05s0.19-0.06,0.55-0.14 c0.36-0.08,0.88-0.15,1.55-0.14c1.31,0.01,3.25,0.51,4.79,1.99c1.53,1.48,2.11,3.4,2.17,4.71c0.04,0.66-0.01,1.2-0.08,1.55 C62.67,33.89,62.62,34.08,62.62,34.08z"/>
      </g>
    </g>
    <line style="fill:none;stroke:#6CC5DA;stroke-width:0.7642;stroke-linecap:round;stroke-miterlimit:10;" x1="24.79" y1="6.94" x2="24.71" y2="10.99"/>
    <line style="fill:none;stroke:#6CC5DA;stroke-width:0.7642;stroke-linecap:round;stroke-miterlimit:10;" x1="26.85" y1="8.85" x2="22.8" y2="8.85"/>
  </g>
</svg>