<?xml version="1.0" encoding="utf-8"?>
<svg viewBox="3.874 9.05 58.037 51.143" width="58.037" height="51.143" xmlns="http://www.w3.org/2000/svg">
  <g>
    <g>
      <g>
        <g>
          <path style="fill:#6CC5DA;" d="M56.29,27.61c0,0-0.03-0.15-0.11-0.41c-0.07-0.26-0.19-0.62-0.38-1.04c-0.38-0.84-1.09-1.9-2.16-2.71 c-1.07-0.81-2.29-1.2-3.2-1.33c-0.46-0.07-0.84-0.09-1.11-0.08c-0.27,0-0.42,0.01-0.42,0.01s0.14-0.06,0.39-0.15 c0.26-0.09,0.65-0.19,1.15-0.24c0.98-0.11,2.47,0.09,3.76,1.05c1.28,0.97,1.88,2.35,2.05,3.32c0.09,0.49,0.1,0.89,0.08,1.17 C56.32,27.46,56.29,27.61,56.29,27.61z"/>
        </g>
      </g>
      <g>
        <g>
          <g>
            <path style="fill:#6CC5DA;" d="M54.63,29.82c0,0-0.03-0.15-0.11-0.41c-0.07-0.26-0.19-0.62-0.38-1.04c-0.38-0.84-1.09-1.9-2.16-2.71 c-1.07-0.81-2.29-1.2-3.2-1.33c-0.46-0.07-0.84-0.09-1.11-0.08c-0.27,0-0.42,0.01-0.42,0.01s0.14-0.06,0.39-0.15 c0.26-0.09,0.65-0.19,1.15-0.24c0.98-0.11,2.47,0.09,3.76,1.05c1.28,0.97,1.88,2.35,2.05,3.32c0.09,0.49,0.1,0.89,0.08,1.17 C54.65,29.68,54.63,29.82,54.63,29.82z"/>
          </g>
        </g>
        <g>
          <g>
            <path style="fill:#6CC5DA;" d="M27.19,12.83c0,0-0.19-0.03-0.52-0.06c-0.33-0.04-0.82-0.06-1.4-0.03c-1.16,0.05-2.73,0.4-4.17,1.27 c-1.44,0.88-2.46,2.11-3.04,3.12c-0.29,0.5-0.49,0.94-0.61,1.26c-0.12,0.31-0.18,0.49-0.18,0.49s-0.01-0.19,0-0.53 c0.01-0.34,0.07-0.85,0.25-1.45c0.33-1.19,1.25-2.85,2.97-3.9c1.72-1.05,3.61-1.11,4.82-0.85c0.62,0.12,1.09,0.3,1.4,0.44 C27.02,12.73,27.19,12.83,27.19,12.83z"/>
          </g>
        </g>
        <g>
          <g>
            <path style="fill:#6CC5DA;" d="M25.36,9.86c0,0-0.19-0.03-0.52-0.06c-0.33-0.04-0.82-0.06-1.4-0.03c-1.16,0.05-2.73,0.4-4.17,1.27 c-1.44,0.88-2.46,2.11-3.04,3.12c-0.29,0.5-0.49,0.94-0.61,1.26c-0.12,0.31-0.18,0.49-0.18,0.49s-0.01-0.19,0-0.53 c0.01-0.34,0.07-0.85,0.25-1.45c0.33-1.19,1.25-2.85,2.97-3.9c1.72-1.05,3.61-1.11,4.82-0.85c0.62,0.12,1.09,0.3,1.4,0.44 C25.2,9.77,25.36,9.86,25.36,9.86z"/>
          </g>
        </g>
        <path style="fill:none;stroke:#3C8ECD;stroke-width:1.3247;stroke-linecap:round;stroke-linejoin:round;stroke-miterlimit:10;" d="M21.24,48.93l-8.38,0.11c0,0-9.81,0-8.93-11.13c0.9-11.36,12.02-7.94,12.02-7.94s0.33-14.55,13.56-14.55 c12.24,0,14.22,11.35,14.22,11.35s3.42-0.88,6.5,1.65c2.85,2.34,2.09,6.39,2.09,6.39s9.41-2.56,9.59,7.5 c0.11,6.17-7.72,6.5-7.72,6.5l-11.35-0.11"/>
        <path style="fill:none;stroke:#6CC5DA;stroke-width:0.8985;stroke-miterlimit:10;" d="M33.22,57.86h-2.21c-4.58,0-8.33-3.75-8.33-8.33v-0.56c0-4.58,3.75-8.33,8.33-8.33h2.21 c4.58,0,8.33,3.75,8.33,8.33v0.56C41.55,54.11,37.8,57.86,33.22,57.86z"/>
        <path style="fill:none;stroke:#6CC5DA;stroke-width:0.6418;stroke-miterlimit:10;" d="M33.88,51.58c0,0.64-0.39,1.18-0.94,1.41v2.53c0,0.29-0.24,0.53-0.53,0.53c-0.29,0-0.53-0.24-0.53-0.53 v-2.49c-0.62-0.2-1.06-0.78-1.06-1.46c0-0.85,0.69-1.53,1.53-1.53C33.2,50.04,33.88,50.73,33.88,51.58z"/>
        <path style="fill:none;stroke:#6CC5DA;stroke-width:0.8985;stroke-miterlimit:10;" d="M26.06,42.01c0,0-2.03-9.61,5.73-9.61c7.76,0,6.19,9.43,6.19,9.43"/>
      </g>
    </g>
    <g>
      <g>
        <path style="fill:#6CC5DA;" d="M19.31,51.73c0,0,0.02,0.19,0.06,0.53c0.04,0.34,0.14,0.81,0.31,1.37c0.33,1.12,1.05,2.57,2.26,3.76 c1.21,1.19,2.67,1.9,3.79,2.21c0.56,0.16,1.04,0.25,1.38,0.29c0.34,0.04,0.53,0.06,0.53,0.06s-0.18,0.06-0.52,0.13 c-0.34,0.07-0.84,0.13-1.48,0.11c-1.25-0.03-3.09-0.53-4.53-1.95c-1.44-1.43-1.96-3.26-2.01-4.51c-0.03-0.63,0.03-1.14,0.09-1.48 C19.26,51.91,19.31,51.73,19.31,51.73z"/>
      </g>
    </g>
  </g>
</svg>