<?xml version="1.0" encoding="utf-8"?>
<svg viewBox="4.1 16.546 56.119 35.034" width="56.119" height="35.034" xmlns="http://www.w3.org/2000/svg">
  <g>
    <g>
      <g>
        <path style="fill:#6CC5DA;" d="M60.17,22.38c0,0-0.03-0.14-0.1-0.39c-0.07-0.25-0.19-0.61-0.37-1.02c-0.37-0.82-1.06-1.85-2.11-2.64 c-1.04-0.79-2.23-1.17-3.12-1.3c-0.45-0.07-0.82-0.08-1.08-0.08c-0.26,0-0.41,0.01-0.41,0.01s0.13-0.06,0.38-0.15 c0.25-0.09,0.63-0.19,1.12-0.24c0.95-0.1,2.41,0.09,3.66,1.02c1.24,0.94,1.83,2.29,1.99,3.23c0.09,0.48,0.1,0.87,0.08,1.14 C60.2,22.24,60.17,22.38,60.17,22.38z"/>
      </g>
    </g>
    <g>
      <g>
        <path style="fill:#6CC5DA;" d="M4.52,32.05c0,0-0.01,0.14-0.02,0.35c-0.01,0.22-0.01,0.55,0.03,0.93c0.08,0.77,0.37,1.8,1.01,2.72 c0.64,0.92,1.5,1.55,2.2,1.89c0.35,0.17,0.65,0.29,0.86,0.35c0.21,0.06,0.34,0.1,0.34,0.1s-0.12,0.02-0.35,0.02 c-0.23,0.01-0.56-0.01-0.97-0.11C6.8,38.14,5.67,37.59,4.9,36.5c-0.76-1.1-0.88-2.36-0.76-3.17c0.06-0.41,0.15-0.74,0.24-0.95 C4.46,32.16,4.52,32.05,4.52,32.05z"/>
      </g>
    </g>
    <circle style="fill:none;stroke:#69C4DA;stroke-width:0.627;stroke-miterlimit:10;" cx="47.6" cy="25.74" r="1.62"/>
    <circle style="fill:none;stroke:#69C4DA;stroke-width:0.627;stroke-miterlimit:10;" cx="52.24" cy="25.73" r="1.62"/>
    <path style="fill:none;stroke:#3A8FCD;stroke-width:0.627;stroke-miterlimit:10;" d="M25.07,26.96L25.07,26.96c0,0.02,0,0.03,0,0.04c0,0.05,0,0.1-0.01,0.14c-0.09,1.01-0.94,1.8-1.98,1.8 c-1.03,0-1.88-0.79-1.98-1.8c0-0.05-0.01-0.1-0.01-0.14c0-0.01,0-0.03,0-0.04v-0.01c0-0.03,0-0.07,0-0.1 c0.05-1.05,0.92-1.88,1.98-1.88c1.06,0,1.93,0.83,1.98,1.88C25.07,26.89,25.07,26.93,25.07,26.96z"/>
    <path style="fill:none;stroke:#3B8FCD;stroke-width:1.254;stroke-miterlimit:10;" d="M57.16,23.05c0-0.81-0.32-1.57-0.89-2.14c-0.57-0.57-1.33-0.89-2.14-0.89c0,0,0,0,0,0L38.5,20.03v13.6 c0,0-0.16,1.25-0.74,1.77c-0.93,0.83-1.5,0.63-1.5,0.63H17.51l0,4.16c0,1.67,1.36,3.03,3.03,3.03L45.1,43.2l5.6,7.48 c0.21,0.27,0.81,0.9,1.42,0.9c0.09,0,0.18-0.01,0.26-0.04c0.28-0.09,0.62-0.38,0.61-1.22l0.05-7.12h1.09 c1.67,0,3.03-1.36,3.03-3.03L57.16,23.05z"/>
    <g>
      <path style="fill:none;stroke:#6CC5DA;stroke-width:1.254;stroke-miterlimit:10;" d="M7.05,33.62c0,1.32,1.08,2.4,2.4,2.4h0.86l0.04,5.65c0,0.66,0.26,0.89,0.49,0.97 c0.07,0.02,0.14,0.03,0.21,0.03c0.48,0,0.97-0.49,1.13-0.71l4.44-5.93l19.49,0.01c1.32,0,2.4-1.08,2.4-2.4l0-13.58 c0-0.64-0.25-1.24-0.7-1.7c-0.45-0.45-1.06-0.7-1.7-0.7L9.45,17.64c0,0,0,0,0,0c-0.64,0-1.24,0.25-1.69,0.7 c-0.45,0.45-0.7,1.06-0.7,1.7L7.05,33.62z"/>
    </g>
    <path style="fill:none;stroke:#3A8FCD;stroke-width:0.627;stroke-miterlimit:10;" d="M21.66,20.64l0.03,2.46c0,0.04-0.02,0.09-0.06,0.11l-1.12,0.73c-0.04,0.03-0.1,0.03-0.14,0l-2.19-1.31 c-0.06-0.04-0.15-0.02-0.18,0.05l-1.12,2.05c-0.03,0.06-0.01,0.13,0.04,0.17l1.98,1.32c0.03,0.02,0.06,0.06,0.06,0.1l0.06,1.38 c0,0.05-0.02,0.1-0.07,0.12l-2.16,1.24c-0.06,0.04-0.08,0.12-0.05,0.18L18,31.28c0.04,0.06,0.11,0.08,0.18,0.05l2.17-1.21 c0.04-0.02,0.1-0.02,0.14,0.01l1.08,0.73c0.04,0.02,0.06,0.07,0.06,0.11l-0.03,2.25c0,0.07,0.06,0.13,0.13,0.13l2.48,0.03 c0.07,0,0.13-0.06,0.13-0.13l0.03-2.39c0-0.05,0.03-0.09,0.07-0.11l1.18-0.64c0.04-0.02,0.09-0.02,0.13,0l1.96,1.21 c0.06,0.04,0.14,0.02,0.18-0.04l1.28-2.05c0.04-0.06,0.02-0.14-0.04-0.18l-2.07-1.28c-0.04-0.02-0.06-0.07-0.06-0.11v-1.27 c0-0.05,0.03-0.09,0.07-0.11l2.13-1.21c0.06-0.04,0.08-0.11,0.05-0.18l-1.15-2.08c-0.04-0.06-0.12-0.09-0.18-0.05l-1.96,1.11 c-0.04,0.02-0.08,0.02-0.12,0l-1.32-0.61c-0.05-0.02-0.08-0.07-0.08-0.12l-0.03-2.49c0-0.07-0.06-0.13-0.13-0.13h-2.48 C21.72,20.51,21.66,20.56,21.66,20.64z"/>
  </g>
</svg>