<?xml version="1.0" encoding="utf-8"?>
<svg viewBox="7.74 2.958 51.16 56.884" width="51.16" height="56.884" xmlns="http://www.w3.org/2000/svg">
  <g>
    <g>
      <g>
        <path style="fill:#6CC5DA;" d="M22.27,7.36c0,0-0.22-0.03-0.61-0.07c-0.39-0.04-0.96-0.07-1.64-0.04c-1.36,0.06-3.19,0.47-4.88,1.49 c-1.68,1.03-2.88,2.48-3.56,3.66c-0.34,0.59-0.57,1.11-0.71,1.47c-0.14,0.37-0.21,0.58-0.21,0.58s-0.01-0.22,0-0.62 c0.02-0.4,0.09-0.99,0.29-1.7c0.2-0.71,0.56-1.53,1.13-2.34c0.56-0.81,1.36-1.61,2.35-2.22c1-0.6,2.07-0.94,3.05-1.07 c0.98-0.13,1.88-0.07,2.6,0.07c0.72,0.14,1.28,0.35,1.64,0.52C22.08,7.25,22.27,7.36,22.27,7.36z"/>
      </g>
    </g>
    <g>
      <g>
        <path style="fill:#6CC5DA;" d="M20.14,3.89c0,0-0.22-0.03-0.61-0.07c-0.39-0.04-0.96-0.07-1.64-0.04c-1.36,0.06-3.19,0.47-4.88,1.49 c-1.68,1.03-2.88,2.48-3.56,3.66c-0.34,0.59-0.57,1.11-0.71,1.47c-0.14,0.37-0.21,0.58-0.21,0.58s-0.01-0.22,0-0.62 c0.02-0.4,0.09-0.99,0.29-1.7c0.2-0.71,0.56-1.53,1.13-2.34c0.56-0.81,1.36-1.61,2.35-2.22c1-0.6,2.07-0.94,3.05-1.07 c0.98-0.13,1.88-0.07,2.6,0.07c0.72,0.14,1.28,0.35,1.64,0.52C19.95,3.77,20.14,3.89,20.14,3.89z"/>
      </g>
    </g>
    <g>
      <g>
        <path style="fill:#6CC5DA;" d="M45.84,56.42c0,0,0.22-0.01,0.62-0.04c0.39-0.03,0.95-0.1,1.62-0.25c1.33-0.3,3.06-1.03,4.53-2.34 c1.47-1.31,2.4-2.95,2.85-4.23c0.23-0.64,0.37-1.19,0.44-1.58c0.07-0.39,0.11-0.61,0.11-0.61s0.05,0.21,0.11,0.61 c0.06,0.4,0.09,0.99,0.02,1.72c-0.07,0.73-0.28,1.6-0.69,2.51c-0.41,0.9-1.05,1.83-1.91,2.61c-0.87,0.77-1.87,1.3-2.81,1.6 c-0.95,0.31-1.84,0.41-2.57,0.39c-0.74-0.01-1.32-0.12-1.71-0.22C46.05,56.49,45.84,56.42,45.84,56.42z"/>
      </g>
    </g>
    <g>
      <g>
        <path style="fill:#6CC5DA;" d="M48.56,59.45c0,0,0.22-0.01,0.62-0.04c0.39-0.03,0.95-0.1,1.62-0.25c1.33-0.3,3.06-1.03,4.53-2.34 c1.47-1.31,2.4-2.95,2.85-4.23c0.23-0.64,0.37-1.19,0.44-1.58c0.07-0.39,0.11-0.61,0.11-0.61s0.05,0.21,0.11,0.61 c0.06,0.4,0.09,0.99,0.02,1.72c-0.07,0.73-0.28,1.6-0.69,2.51c-0.41,0.9-1.05,1.83-1.91,2.61c-0.87,0.77-1.87,1.3-2.81,1.6 c-0.95,0.31-1.84,0.41-2.57,0.39c-0.74-0.01-1.32-0.12-1.71-0.22C48.77,59.53,48.56,59.45,48.56,59.45z"/>
      </g>
    </g>
    <circle style="fill:none;stroke:#69C4DA;stroke-width:1.0032;stroke-miterlimit:10;" cx="32.3" cy="33.53" r="18.89"/>
    <line style="fill:none;stroke:#6CC5DA;stroke-width:1.0523;stroke-linecap:round;stroke-miterlimit:10;" x1="32.47" y1="8.8" x2="32.37" y2="17.9"/>
    <line style="fill:none;stroke:#6CC5DA;stroke-width:1.0523;stroke-linecap:round;stroke-miterlimit:10;" x1="32.28" y1="49.1" x2="32.32" y2="57.73"/>
    <line style="fill:none;stroke:#6CC5DA;stroke-width:1.0523;stroke-linecap:round;stroke-miterlimit:10;" x1="16.48" y1="32.96" x2="8.08" y2="33.01"/>
    <line style="fill:none;stroke:#6CC5DA;stroke-width:1.0523;stroke-linecap:round;stroke-miterlimit:10;" x1="56.51" y1="33.18" x2="47.86" y2="33.23"/>
    <g>
      <path style="fill:#3C8ECD;stroke:#3C8ECD;stroke-width:0.3344;stroke-linecap:round;stroke-linejoin:round;stroke-miterlimit:10;" d="M8.79,31.48C9.63,19.73,19.13,10.33,30.93,9.66V8.63c-6.06,0.33-11.7,2.84-16.03,7.16 c-4.24,4.24-6.74,9.76-7.14,15.69H8.79z"/>
      <path style="fill:#3C8ECD;stroke:#3C8ECD;stroke-width:0.3344;stroke-linecap:round;stroke-linejoin:round;stroke-miterlimit:10;" d="M33.89,9.68c11.73,0.79,21.13,10.21,21.9,21.94h1.03c-0.37-5.98-2.88-11.55-7.15-15.82 c-4.26-4.26-9.82-6.77-15.78-7.15V9.68z"/>
      <path style="fill:#3C8ECD;stroke:#3C8ECD;stroke-width:0.3344;stroke-linecap:round;stroke-linejoin:round;stroke-miterlimit:10;" d="M55.8,34.58c-0.7,11.81-10.13,21.3-21.91,22.1v1.03c5.96-0.38,11.52-2.88,15.78-7.15 c4.31-4.31,6.82-9.94,7.16-15.98H55.8z"/>
      <path style="fill:#3C8ECD;stroke:#3C8ECD;stroke-width:0.3344;stroke-linecap:round;stroke-linejoin:round;stroke-miterlimit:10;" d="M30.93,56.69C18.99,56.01,9.4,46.39,8.77,34.44H7.74c0.31,6.09,2.83,11.77,7.17,16.11 c4.32,4.32,9.97,6.83,16.03,7.16V56.69z"/>
    </g>
    <circle style="fill:none;stroke:#3B8FCD;stroke-width:0.7431;stroke-miterlimit:10;" cx="32.43" cy="26.63" r="4.81"/>
    <path style="fill:none;stroke:#3B8FCD;stroke-width:0.5508;stroke-miterlimit:10;" d="M22.92,42.54c-0.71-0.26-1.21-0.91-1.27-1.67c-0.14-1.72-0.26-4.72,0.38-5.76c0.73-1.18,4.07-2.57,5.59-3.16 c0.47-0.18,0.99-0.17,1.45,0.02c0.9,0.38,2.44,0.99,3.13,1.02c0.78,0.03,2.61-0.52,3.59-0.84c0.43-0.14,0.89-0.13,1.31,0.04 c1.29,0.51,4.24,1.37,4.92,2.32c0.73,1.02,0.86,4.42,0.96,6.18c0.05,0.78-0.37,1.51-1.07,1.86l0,0c-1.23,0.62-2.71-0.21-2.8-1.59 c-0.08-1.12-0.29-2.13-0.83-2.12c-0.84,0.01-1.18,2.4-1.31,3.99c-0.07,0.85-0.69,1.56-1.53,1.73c-1.07,0.22-2.46,0.48-3.24,0.47 c-0.64-0.01-1.62-0.24-2.45-0.47c-0.85-0.24-1.43-1.01-1.41-1.89c0.03-1.65-0.09-4.13-1.03-4.25c-0.7-0.09-0.99,1.33-1.11,2.72 c-0.11,1.27-1.4,2.09-2.6,1.65L22.92,42.54z"/>
  </g>
</svg>