<?xml version="1.0" encoding="utf-8"?>
<svg viewBox="3.66 5.597 58.758 51.573" width="58.758" height="51.573" xmlns="http://www.w3.org/2000/svg">
  <g>
    <line style="fill:none;stroke:#6CC5DA;stroke-width:0.9873;stroke-linecap:round;stroke-miterlimit:10;" x1="9.7" y1="21.58" x2="24.29" y2="21.58"/>
    <line style="fill:none;stroke:#6CC5DA;stroke-width:0.9873;stroke-linecap:round;stroke-miterlimit:10;" x1="9.7" y1="25.94" x2="24.29" y2="25.94"/>
    <line style="fill:none;stroke:#6CC5DA;stroke-width:0.9873;stroke-linecap:round;stroke-miterlimit:10;" x1="9.48" y1="30.54" x2="24.06" y2="30.54"/>
    <g>
      <g>
        <g>
          <path style="fill:#6CC5DA;" d="M58.23,18.91c0,0,0.03-0.22,0.06-0.6c0.04-0.38,0.06-0.93,0.01-1.59c-0.08-1.32-0.5-3.09-1.53-4.71 c-1.03-1.62-2.45-2.76-3.61-3.4c-0.58-0.32-1.08-0.54-1.44-0.67c-0.36-0.13-0.57-0.2-0.57-0.2s0.21-0.02,0.61-0.01 c0.39,0.01,0.96,0.07,1.65,0.25c0.69,0.18,1.49,0.52,2.29,1.06c0.8,0.54,1.59,1.29,2.2,2.25c0.6,0.96,0.95,1.99,1.09,2.95 c0.14,0.95,0.1,1.82-0.03,2.53c-0.13,0.7-0.32,1.25-0.48,1.6C58.34,18.72,58.23,18.91,58.23,18.91z"/>
        </g>
      </g>
      <g>
        <g>
          <path style="fill:#6CC5DA;" d="M61.57,16.78c0,0,0.03-0.22,0.06-0.6c0.04-0.38,0.06-0.93,0.01-1.59c-0.08-1.32-0.5-3.09-1.53-4.71 c-1.03-1.62-2.45-2.76-3.61-3.4c-0.58-0.32-1.08-0.54-1.44-0.67c-0.36-0.13-0.57-0.2-0.57-0.2s0.21-0.02,0.61-0.01 c0.39,0.01,0.96,0.07,1.65,0.25c0.69,0.18,1.49,0.52,2.29,1.06c0.8,0.54,1.59,1.29,2.2,2.25c0.6,0.96,0.95,1.99,1.09,2.95 c0.14,0.95,0.1,1.82-0.03,2.53c-0.13,0.7-0.32,1.25-0.48,1.6C61.68,16.59,61.57,16.78,61.57,16.78z"/>
        </g>
      </g>
      <g>
        <g>
          <g>
            <g>
              <path style="fill:#69C4DA;" d="M41.85,21.68c0.6,0.11,1.2,0.43,1.55,0.94c0.38,0.55,0.49,1.25,0.3,1.89c-0.12,0.42,0.53,0.59,0.65,0.18 c0.23-0.81,0.09-1.73-0.41-2.41c-0.48-0.65-1.21-1.07-2.02-1.1C41.64,21.17,41.56,21.63,41.85,21.68L41.85,21.68z"/>
            </g>
          </g>
          <g>
            <g>
              <g>
                <path style="fill:#69C4DA;" d="M41.51,35.23c-1.71-0.12-1.77-2.1-1.73-3.39c0.02-0.73,0.13-1.8-0.52-2.32c-0.62-0.5-1.4-0.05-1.69,0.59 c-0.17,0.38-0.2,0.79-0.24,1.2c-0.07,0.67-0.16,1.33-0.29,1.99c-0.14,0.7-0.29,1.8-1.2,1.8c-0.94-0.01-1.29-1.01-1.48-1.78 c-0.32-1.27-0.45-2.57-0.47-3.87c-0.01-0.42-0.01-0.85-0.18-1.24c-0.21-0.46-0.61-0.79-0.91-1.19 c-0.82-1.1-1.04-2.61-0.54-3.89c1.16-2.96,5.17-3.36,7.03-0.87c0.03-0.11,0.06-0.22,0.08-0.32c-0.03,0.02-0.07,0.05-0.1,0.07 c0.11,0.03,0.22,0.06,0.32,0.08c-1.77-2.36-5.29-2.49-7.1-0.1c-0.88,1.16-1.08,2.72-0.59,4.09c0.22,0.61,0.56,1.11,0.98,1.59 c0.41,0.48,0.63,0.89,0.65,1.54c0.01,0.38,0.01,0.77,0.03,1.15c0.05,0.85,0.16,1.69,0.33,2.52c0.15,0.71,0.31,1.54,0.84,2.09 c0.41,0.42,1.07,0.67,1.63,0.41c0.55-0.26,0.75-0.87,0.89-1.41c0.21-0.85,0.34-1.72,0.42-2.59c0.04-0.39,0.05-0.83,0.24-1.18 c0.43-0.79,1.26-0.53,1.46,0.22c0.36,1.34-0.26,2.77,0.44,4.06c0.68,1.24,2.24,1.49,3.11,0.3c0.52-0.71,0.61-1.67,0.72-2.51 c0.16-1.21,0.2-2.42,0.14-3.63c-0.08,0.08-0.16,0.16-0.24,0.24c0.04,0,0.08,0,0.12-0.01c-0.08-0.08-0.16-0.16-0.24-0.24 c0.06,1.26,0.01,2.52-0.16,3.77C43.12,33.49,42.9,35.11,41.51,35.23c-0.3,0.03-0.3,0.5,0,0.47c1.16-0.1,1.78-1.04,2.03-2.11 c0.37-1.61,0.43-3.32,0.36-4.97c-0.01-0.12-0.1-0.24-0.24-0.24c-0.04,0-0.08,0-0.12,0.01c-0.12,0.01-0.24,0.1-0.24,0.24 c0.07,1.63,0.07,3.44-0.39,5.02c-0.28,0.96-1.13,1.91-2.16,1.19c-0.69-0.47-0.85-1.36-0.87-2.15 c-0.02-0.9,0.22-1.98-0.22-2.83c-0.39-0.76-1.29-0.89-1.9-0.28c-0.78,0.78-0.62,2.42-0.81,3.41 c-0.07,0.35-0.13,0.71-0.23,1.05c-0.18,0.6-0.71,1.2-1.39,0.82c-0.76-0.43-0.91-1.6-1.06-2.38c-0.15-0.79-0.24-1.59-0.28-2.4 c-0.02-0.54,0.04-1.12-0.1-1.64c-0.14-0.5-0.48-0.84-0.81-1.23c-0.49-0.58-0.83-1.26-0.95-2.02 c-0.27-1.72,0.64-3.39,2.2-4.14c1.69-0.81,3.72-0.21,4.83,1.27c0.07,0.1,0.21,0.17,0.32,0.08c0.03-0.02,0.07-0.05,0.1-0.07 c0.1-0.07,0.17-0.21,0.08-0.32c-1.43-1.91-4.1-2.53-6.14-1.18c-2.07,1.37-2.66,4.18-1.29,6.26c0.38,0.58,0.98,0.99,1.11,1.7 c0.13,0.68,0.04,1.43,0.11,2.13c0.11,1.25,0.23,2.88,1,3.92c0.57,0.78,1.74,1.09,2.41,0.26c0.32-0.39,0.44-0.91,0.55-1.39 c0.17-0.78,0.29-1.56,0.36-2.35c0.04-0.44,0.04-0.98,0.39-1.29c0.83-0.72,1.12,0.41,1.14,0.98c0.03,0.77-0.08,1.54,0.02,2.3 c0.17,1.2,0.88,2.27,2.17,2.36C41.81,35.72,41.81,35.25,41.51,35.23z"/>
              </g>
            </g>
            <g>
              <g>
                <path style="fill:#69C4DA;" d="M39.63,22.05c-1.58-2.4-5.06-2.63-6.99-0.5c-0.94,1.03-1.32,2.43-1.09,3.8 c0.12,0.69,0.39,1.36,0.81,1.93c0.19,0.25,0.42,0.47,0.61,0.72c0.43,0.55,0.4,1.15,0.41,1.81c0.04,1.53,0.13,3.59,0.97,4.91 c0.59,0.93,1.94,1.29,2.62,0.25c0.4-0.6,0.48-1.41,0.6-2.1c0.07-0.4,0.12-0.81,0.16-1.21c0.03-0.32,0.03-0.68,0.11-0.99 c0.13-0.49,0.59-1.34,1.24-0.63c0.51,0.55,0.19,1.85,0.2,2.52c0.01,0.77,0.11,1.58,0.55,2.22c0.81,1.17,2.39,1.23,3.2,0.03 c0.53-0.77,0.62-1.78,0.73-2.68c0.14-1.16,0.17-2.33,0.12-3.5c-0.02-0.38-0.61-0.38-0.59,0c0.07,1.64,0.06,3.45-0.4,5.04 c-0.26,0.88-1.02,1.81-2.02,1.26c-0.79-0.44-0.98-1.42-1-2.24c-0.03-0.96,0.3-2.34-0.44-3.13c-0.7-0.75-1.71-0.16-2.03,0.64 c-0.24,0.61-0.21,1.32-0.3,1.95c-0.1,0.72-0.2,1.53-0.49,2.21c-0.5,1.14-1.6,0.48-1.94-0.39c-0.31-0.78-0.44-1.67-0.54-2.5 c-0.15-1.17,0.17-2.7-0.56-3.71c-0.38-0.52-0.83-0.93-1.1-1.53c-0.29-0.65-0.42-1.37-0.34-2.08 c0.18-1.62,1.45-2.97,3.02-3.33c1.55-0.36,3.11,0.35,4.1,1.53C39.43,22.54,39.78,22.27,39.63,22.05L39.63,22.05z"/>
              </g>
            </g>
            <g>
              <g>
                <path style="fill:#69C4DA;" d="M43.83,28.55c-0.03-0.05-0.06-0.09-0.09-0.14c-0.03,0.11-0.06,0.22-0.08,0.32 c1.12-0.76,1.92-1.89,2.1-3.24c0.19-1.39-0.2-2.85-1.07-3.95c-0.74-0.93-1.84-1.6-3.05-1.62c-1.15-0.02-2.28,0.51-2.92,1.48 c0.11-0.03,0.22-0.06,0.32-0.08c-0.05-0.03-0.09-0.06-0.14-0.09c0.03,0.11,0.06,0.22,0.08,0.32c0.6-0.92,1.72-1.38,2.8-1.32 c1.11,0.07,2.11,0.75,2.76,1.63c0.76,1.03,1.09,2.36,0.91,3.62c-0.18,1.24-0.92,2.28-1.95,2.98 c-0.25,0.17-0.01,0.58,0.24,0.41c1.18-0.79,2-1.99,2.18-3.41c0.18-1.4-0.22-2.87-1.09-3.99c-0.77-0.98-1.91-1.69-3.18-1.72 c-1.22-0.03-2.42,0.54-3.09,1.56c-0.07,0.11-0.02,0.26,0.08,0.32c0.05,0.03,0.09,0.06,0.14,0.09 c0.11,0.07,0.26,0.02,0.32-0.08c0.57-0.86,1.61-1.3,2.63-1.24c1.06,0.06,2.01,0.7,2.64,1.53c0.73,0.96,1.06,2.21,0.92,3.41 c-0.14,1.24-0.87,2.29-1.89,2.98c-0.1,0.07-0.16,0.21-0.08,0.32c0.03,0.05,0.06,0.09,0.09,0.14 C43.59,29.04,44,28.8,43.83,28.55z"/>
              </g>
            </g>
            <g>
              <g>
                <path style="fill:#69C4DA;" d="M38.99,21.62c0.7-0.8,1.56-1.29,2.65-1.26c1.09,0.03,2.08,0.67,2.73,1.53c0.71,0.94,1.06,2.16,0.95,3.34 c-0.11,1.29-0.83,2.4-1.89,3.13c-0.29,0.2-0.02,0.67,0.28,0.47c1.96-1.3,2.73-3.67,1.92-5.89c-0.67-1.83-2.42-3.35-4.46-3.12 c-0.98,0.11-2.07,0.63-2.51,1.56C38.58,21.57,38.83,21.81,38.99,21.62L38.99,21.62z"/>
              </g>
            </g>
          </g>
        </g>
      </g>
      <circle style="fill:none;stroke:#3B8FCD;stroke-width:0.356;stroke-miterlimit:10;" cx="29.97" cy="45.14" r="0.92"/>
      <path style="fill:none;stroke:#3B8FCD;stroke-width:0.8987;stroke-miterlimit:10;" d="M54.37,16.92v27.36c0,2.24-1.49,4.07-3.32,4.07H7.22c-1.83,0-3.32-1.83-3.32-4.07V16.92 c0-2.24,1.49-4.07,3.32-4.07h43.83C52.88,12.85,54.37,14.68,54.37,16.92z"/>
      <line style="fill:none;stroke:#3B8FCD;stroke-width:0.8987;stroke-miterlimit:10;" x1="3.66" y1="42.04" x2="54.13" y2="42.04"/>
      <path style="fill:none;stroke:#3B8FCD;stroke-width:0.9166;stroke-miterlimit:10;" d="M39.65,57.17H19.07v-0.08c0-1.38,1.12-2.51,2.51-2.51h15.57c1.38,0,2.51,1.12,2.51,2.51V57.17z"/>
      <rect x="26.08" y="48.32" style="fill:none;stroke:#3B8FCD;stroke-width:0.8197;stroke-miterlimit:10;" width="7.28" height="6.31"/>
      <rect x="6.25" y="15.11" style="fill:none;stroke:#6CC5DA;stroke-width:0.6905;stroke-miterlimit:10;" width="45.83" height="24.91"/>
    </g>
  </g>
</svg>