<?xml version="1.0" encoding="utf-8"?>
<svg viewBox="3.483 17.063 56.867 35.621" xmlns="http://www.w3.org/2000/svg">
  <defs>
    <style type="text/css">
	.st0{}
	.st1{}
	.st2{}
	.st3{}
</style>
  </defs>
  <g>
    <g>
      <g>
        <path style="fill:none;stroke:#3B8FCD;stroke-width:0.979;stroke-miterlimit:10;" d="M52.61,20.89H10.95c-1.81,0-3.28,1.47-3.28,3.28v21.22c0,1.81,1.47,3.28,3.28,3.28h41.66 c1.81,0,3.28-1.47,3.28-3.28V24.17C55.88,22.36,54.42,20.89,52.61,20.89z M55.76,45.39c0,1.74-1.42,3.15-3.15,3.15H10.95 c-1.74,0-3.15-1.42-3.15-3.15V24.17c0-1.74,1.42-3.15,3.15-3.15h41.66c1.74,0,3.15,1.42,3.15,3.15V45.39z"/>
        <path style="fill:none;stroke:#3B8FCD;stroke-width:0.7812;stroke-miterlimit:10;" d="M55.76,26.9c0.04-0.03,0.08-0.05,0.12-0.07c0.43-0.24,0.93-0.38,1.46-0.38c1.65,0,2.99,1.34,3,2.99 l0.01,10.33c0,1.65-1.34,2.99-2.99,3h0c-0.54,0-1.04-0.14-1.48-0.39c-0.04-0.02-0.08-0.05-0.12-0.07"/>
        <path style="fill:none;stroke:#3B8FCD;stroke-width:0.7812;stroke-miterlimit:10;" d="M55.76,24.17v21.22c0,1.74-1.42,3.15-3.15,3.15H10.95c-1.74,0-3.15-1.42-3.15-3.15V24.17 c0-1.74,1.42-3.15,3.15-3.15h41.66C54.34,21.01,55.76,22.43,55.76,24.17z"/>
        <g>
          <path style="fill:none;stroke:#3B8FCD;stroke-width:0.979;stroke-miterlimit:10;" d="M60.33,39.75c0,1.63-1.33,2.97-2.96,2.97h0c-0.54,0-1.04-0.15-1.48-0.4c-0.04-0.02-0.08-0.05-0.12-0.07 V26.95c0.04-0.03,0.08-0.05,0.12-0.07c0.43-0.25,0.93-0.39,1.46-0.39c0,0,0,0,0,0c1.63,0,2.97,1.33,2.97,2.96L60.33,39.75z"/>
        </g>
        <path style="fill:none;stroke:#6CC5DA;stroke-width:0.7812;stroke-miterlimit:10;" d="M15.38,46.22L15.38,46.22c-2.11,0-3.83-1.72-3.83-3.83V28.12c0-2.11,1.72-3.83,3.83-3.83h0 c2.11,0,3.83,1.72,3.83,3.83v14.27C19.21,44.5,17.49,46.22,15.38,46.22z"/>
        <path style="fill:none;stroke:#6CC5DA;stroke-width:0.7812;stroke-miterlimit:10;" d="M25.82,46.12L25.82,46.12c-2.11,0-3.83-1.72-3.83-3.83V28.02c0-2.11,1.72-3.83,3.83-3.83h0 c2.11,0,3.83,1.72,3.83,3.83v14.27C29.65,44.4,27.93,46.12,25.82,46.12z"/>
        <path style="fill:none;stroke:#6CC5DA;stroke-width:0.7812;stroke-miterlimit:10;" d="M36.49,46.12L36.49,46.12c-2.11,0-3.83-1.72-3.83-3.83V28.02c0-2.11,1.72-3.83,3.83-3.83h0 c2.11,0,3.83,1.72,3.83,3.83v14.27C40.33,44.4,38.6,46.12,36.49,46.12z"/>
        <path style="fill:none;stroke:#6CC5DA;stroke-width:0.7812;stroke-miterlimit:10;" d="M47.23,45.99L47.23,45.99c-2.11,0-3.83-1.72-3.83-3.83V27.88c0-2.11,1.72-3.83,3.83-3.83h0 c2.11,0,3.83,1.72,3.83,3.83v14.27C51.06,44.26,49.34,45.99,47.23,45.99z"/>
      </g>
    </g>
    <g>
      <g>
        <path style="fill:#6CC5DA;" d="M10.22,17.34c0,0-0.15,0.03-0.42,0.1c-0.27,0.07-0.65,0.19-1.09,0.38c-0.88,0.37-1.99,1.1-2.85,2.19 C5,21.11,4.56,22.36,4.41,23.31c-0.08,0.47-0.11,0.87-0.11,1.15c0,0.28,0,0.43,0,0.43s-0.06-0.14-0.15-0.41 c-0.09-0.27-0.19-0.67-0.23-1.19c-0.09-1.02,0.14-2.56,1.16-3.87c1.03-1.31,2.47-1.9,3.48-2.06c0.51-0.08,0.93-0.09,1.21-0.06 C10.07,17.31,10.22,17.34,10.22,17.34z"/>
      </g>
    </g>
    <g>
      <g>
        <path style="fill:#6CC5DA;" d="M59.23,23.27c0,0-0.04-0.15-0.11-0.42c-0.07-0.27-0.2-0.65-0.4-1.08c-0.39-0.87-1.13-1.97-2.24-2.81 c-1.11-0.84-2.37-1.25-3.32-1.38c-0.47-0.07-0.87-0.09-1.15-0.09c-0.28,0-0.43,0.01-0.43,0.01s0.14-0.07,0.41-0.16 c0.27-0.09,0.67-0.2,1.19-0.25c1.02-0.11,2.57,0.09,3.89,1.09c1.32,1,1.95,2.44,2.12,3.44c0.09,0.51,0.1,0.93,0.09,1.21 C59.26,23.11,59.23,23.27,59.23,23.27z"/>
      </g>
    </g>
    <g>
      <g>
        <path style="fill:#6CC5DA;" d="M3.95,44.48c0,0-0.01,0.16-0.02,0.43C3.93,45.19,3.94,45.59,4,46.06c0.12,0.95,0.51,2.22,1.33,3.34 c0.82,1.12,1.91,1.88,2.78,2.28c0.43,0.21,0.81,0.34,1.08,0.42c0.27,0.08,0.42,0.12,0.42,0.12s-0.15,0.02-0.44,0.03 c-0.28,0.01-0.7,0-1.21-0.1c-1-0.19-2.43-0.83-3.41-2.17c-0.98-1.34-1.16-2.9-1.03-3.91c0.06-0.52,0.17-0.92,0.27-1.18 C3.88,44.62,3.95,44.48,3.95,44.48z"/>
      </g>
    </g>
    <g>
      <g>
        <path style="fill:#6CC5DA;" d="M50.78,52.01c0,0,0.16,0.02,0.43,0.05c0.28,0.03,0.67,0.05,1.15,0.03c0.96-0.04,2.25-0.32,3.44-1.04 c1.19-0.72,2.04-1.74,2.51-2.57c0.24-0.41,0.41-0.78,0.51-1.04c0.1-0.26,0.15-0.41,0.15-0.41s0.01,0.16,0,0.44 c-0.01,0.28-0.06,0.7-0.21,1.2c-0.27,0.99-1.04,2.35-2.45,3.21c-1.42,0.86-2.98,0.91-3.98,0.7c-0.51-0.1-0.9-0.25-1.16-0.37 C50.91,52.09,50.78,52.01,50.78,52.01z"/>
      </g>
    </g>
  </g>
</svg>