<?xml version="1.0" encoding="utf-8"?>
<svg viewBox="2.763 12.229 59.468 34.001" width="59.468" height="34.001" xmlns="http://www.w3.org/2000/svg">
  <g>
    <path style="fill:none;stroke:#6CC5DA;stroke-width:0.9522;stroke-miterlimit:10;" d="M55.13,15.05H12.54c-1.85,0-3.35,0.37-3.35,2.94v0.07h0.13v-0.07c0-2.14,1.45-2.82,3.23-2.82h42.59 c1.77,0,3.23,1.45,3.23,3.23v21.7c0,1.77-0.73,3.23-3.23,3.23H55.1v0.13h0.02c1.85,0,3.35-1.5,3.35-3.35V18.4 C58.48,16.55,56.98,15.05,55.13,15.05z"/>
    <path style="fill:none;stroke:#3B8FCD;stroke-width:0.9522;stroke-miterlimit:10;" d="M54.98,21.3V43c0,1.77-1.45,3.23-3.23,3.23H9.17c-1.77,0-3.23-1.45-3.23-3.23V21.3c0-1.78,1.45-3.23,3.23-3.23 h42.59C53.53,18.07,54.98,19.52,54.98,21.3z"/>
    <g>
      <g>
        <path style="fill:#6CC5DA;" d="M46.72,20.17c0,0,0,0.16,0.02,0.44c0.01,0.28,0.06,0.69,0.16,1.17c0.2,0.96,0.7,2.22,1.63,3.3 c0.93,1.08,2.1,1.76,3.01,2.11c0.46,0.17,0.85,0.28,1.13,0.34c0.28,0.06,0.44,0.08,0.44,0.08s-0.15,0.04-0.44,0.07 c-0.29,0.04-0.71,0.05-1.24-0.01c-1.04-0.11-2.54-0.65-3.65-1.94c-1.1-1.29-1.41-2.86-1.37-3.9c0.02-0.53,0.1-0.95,0.18-1.23 C46.66,20.31,46.72,20.17,46.72,20.17z"/>
      </g>
    </g>
    <g>
      <g>
        <path style="fill:#6CC5DA;" d="M53.33,36.67c0,0-0.16,0.03-0.44,0.09c-0.28,0.06-0.67,0.17-1.13,0.35c-0.91,0.35-2.08,1.05-3,2.13 c-0.92,1.09-1.41,2.35-1.6,3.31c-0.1,0.48-0.14,0.89-0.15,1.17C47,44,47,44.16,47,44.16s-0.06-0.15-0.14-0.43 c-0.08-0.28-0.17-0.7-0.19-1.23c-0.06-1.04,0.24-2.61,1.33-3.91c1.1-1.3,2.6-1.85,3.63-1.97c0.53-0.07,0.95-0.05,1.24-0.02 C53.17,36.64,53.33,36.67,53.33,36.67z"/>
      </g>
    </g>
    <g>
      <g>
        <path style="fill:#6CC5DA;" d="M9.43,13.06c0,0-0.16,0.03-0.44,0.09c-0.28,0.06-0.67,0.17-1.13,0.35c-0.91,0.35-2.08,1.05-3,2.13 c-0.92,1.09-1.41,2.35-1.6,3.31c-0.1,0.48-0.14,0.89-0.15,1.17C3.1,20.39,3.1,20.55,3.1,20.55s-0.06-0.15-0.14-0.43 c-0.08-0.28-0.17-0.7-0.19-1.23c-0.06-1.04,0.24-2.61,1.33-3.91c1.1-1.3,2.6-1.85,3.63-1.97c0.53-0.07,0.95-0.05,1.24-0.02 C9.27,13.03,9.43,13.06,9.43,13.06z"/>
      </g>
    </g>
    <g>
      <g>
        <path style="fill:#6CC5DA;" d="M15.74,43.86c0,0-0.03-0.16-0.11-0.43c-0.07-0.27-0.2-0.66-0.39-1.11c-0.39-0.9-1.13-2.03-2.25-2.91 c-1.12-0.87-2.4-1.31-3.37-1.47c-0.48-0.08-0.89-0.1-1.17-0.11c-0.28,0-0.44,0-0.44,0s0.14-0.07,0.42-0.16 c0.28-0.09,0.69-0.19,1.22-0.24c1.04-0.1,2.62,0.14,3.96,1.18c1.34,1.05,1.95,2.52,2.11,3.55c0.09,0.52,0.09,0.95,0.07,1.24 C15.77,43.7,15.74,43.86,15.74,43.86z"/>
      </g>
    </g>
    <g>
      <g>
        <path style="fill:#6CC5DA;" d="M62.17,18.68c0,0-0.03-0.16-0.11-0.43c-0.07-0.27-0.2-0.66-0.39-1.11c-0.39-0.9-1.13-2.03-2.25-2.91 c-1.12-0.87-2.4-1.31-3.37-1.47c-0.48-0.08-0.89-0.1-1.17-0.11c-0.28,0-0.44,0-0.44,0s0.14-0.07,0.42-0.16 c0.28-0.09,0.69-0.19,1.22-0.24c1.04-0.1,2.62,0.14,3.96,1.18c1.34,1.05,1.95,2.52,2.11,3.55c0.09,0.52,0.09,0.95,0.07,1.24 C62.2,18.53,62.17,18.68,62.17,18.68z"/>
      </g>
    </g>
    <g>
      <g>
        <path style="fill:#6CC5DA;" d="M8.46,27.73c0,0,0.16-0.03,0.43-0.11c0.27-0.07,0.66-0.19,1.11-0.39c0.9-0.38,2.04-1.13,2.91-2.25 c0.87-1.12,1.31-2.4,1.47-3.37c0.08-0.48,0.11-0.89,0.11-1.17c0-0.28,0-0.44,0-0.44s0.07,0.14,0.16,0.42 c0.09,0.28,0.19,0.69,0.24,1.22c0.1,1.04-0.14,2.62-1.18,3.96c-1.05,1.34-2.52,1.95-3.56,2.11C9.62,27.8,9.19,27.8,8.9,27.78 C8.61,27.76,8.46,27.73,8.46,27.73z"/>
      </g>
    </g>
    <circle style="fill:none;stroke:#6CC5DA;stroke-width:0.9522;stroke-miterlimit:10;" cx="30.15" cy="32.31" r="9.7"/>
    <g>
      <path style="fill:#3B8FCD;" d="M29.42,40.19v-1.93c-1.11-0.02-2.25-0.36-2.92-0.84l0.46-1.28c0.69,0.46,1.68,0.82,2.75,0.82 c1.36,0,2.27-0.78,2.27-1.87c0-1.05-0.74-1.7-2.16-2.27c-1.95-0.76-3.15-1.64-3.15-3.3c0-1.58,1.13-2.79,2.88-3.07v-1.93h1.18 v1.85c1.15,0.04,1.93,0.34,2.48,0.67l-0.48,1.26c-0.4-0.23-1.18-0.65-2.41-0.65c-1.47,0-2.02,0.88-2.02,1.64 c0,0.99,0.71,1.49,2.37,2.18c1.97,0.8,2.96,1.79,2.96,3.49c0,1.51-1.05,2.92-3.02,3.25v1.99H29.42z"/>
    </g>
  </g>
</svg>