<?xml version="1.0" encoding="utf-8"?>
<svg viewBox="2.749 7.94 59.932 47.802" width="59.932" height="47.802" xmlns="http://www.w3.org/2000/svg">
  <g>
    <line style="fill:none;stroke:#6CC5DA;stroke-width:1.0592;stroke-linecap:round;stroke-miterlimit:10;" x1="20.12" y1="21.95" x2="20.16" y2="30.52"/>
    <line style="fill:none;stroke:#6CC5DA;stroke-width:1.0592;stroke-linecap:round;stroke-miterlimit:10;" x1="20.02" y1="30.51" x2="11.8" y2="30.51"/>
    <line style="fill:none;stroke:#6CC5DA;stroke-width:0.9591;stroke-linecap:round;stroke-miterlimit:10;" x1="19.68" y1="41.24" x2="19.68" y2="44.2"/>
    <line style="fill:none;stroke:#6CC5DA;stroke-width:0.9591;stroke-linecap:round;stroke-miterlimit:10;" x1="20.07" y1="15.77" x2="20.07" y2="18.73"/>
    <line style="fill:none;stroke:#6CC5DA;stroke-width:0.9591;stroke-linecap:round;stroke-miterlimit:10;" x1="8.03" y1="30.57" x2="5.07" y2="30.57"/>
    <line style="fill:none;stroke:#6CC5DA;stroke-width:0.9591;stroke-linecap:round;stroke-miterlimit:10;" x1="33.31" y1="30.47" x2="30.35" y2="30.47"/>
    <path style="fill:none;stroke:#3B8FCD;stroke-width:0.8131;stroke-miterlimit:10;" d="M24.85,12.35h-9.51v-0.33c0-2.25,1.83-4.08,4.08-4.08h1.34c2.25,0,4.08,1.83,4.08,4.08V12.35z"/>
    <g>
      <g>
        <path style="fill:#6CC5DA;" d="M56.2,55.59c0,0,0.15-0.02,0.41-0.06c0.26-0.04,0.63-0.12,1.06-0.26c0.86-0.27,1.97-0.85,2.88-1.8 c0.91-0.95,1.43-2.09,1.66-2.96c0.12-0.44,0.18-0.81,0.21-1.07c0.03-0.26,0.04-0.41,0.04-0.41s0.05,0.14,0.11,0.4 c0.06,0.26,0.12,0.65,0.11,1.14c-0.01,0.97-0.37,2.4-1.45,3.54c-1.08,1.13-2.5,1.56-3.46,1.62c-0.49,0.03-0.88,0-1.15-0.05 C56.34,55.63,56.2,55.59,56.2,55.59z"/>
      </g>
    </g>
    <g>
      <g>
        <path style="fill:#6CC5DA;" d="M35.71,21.13c0,0-0.02-0.16-0.08-0.43c-0.05-0.27-0.15-0.66-0.31-1.12c-0.32-0.91-0.97-2.07-2.01-3 c-1.04-0.93-2.27-1.45-3.21-1.66c-0.47-0.11-0.87-0.16-1.15-0.18c-0.28-0.02-0.44-0.03-0.44-0.03s0.15-0.05,0.42-0.13 c0.28-0.07,0.69-0.15,1.21-0.15c1.03-0.03,2.56,0.31,3.81,1.42c1.24,1.12,1.75,2.6,1.84,3.63c0.05,0.52,0.03,0.94-0.02,1.22 C35.75,20.98,35.71,21.13,35.71,21.13z"/>
      </g>
    </g>
    <g>
      <g>
        <path style="fill:#6CC5DA;" d="M37.48,19.31c0,0-0.02-0.16-0.08-0.43c-0.05-0.27-0.15-0.66-0.31-1.12c-0.32-0.91-0.97-2.07-2.01-3 c-1.04-0.93-2.27-1.45-3.21-1.66c-0.47-0.11-0.87-0.16-1.15-0.18c-0.28-0.02-0.44-0.03-0.44-0.03s0.15-0.05,0.42-0.13 c0.28-0.07,0.69-0.15,1.21-0.15c1.03-0.03,2.56,0.31,3.81,1.42c1.24,1.12,1.75,2.6,1.84,3.63c0.05,0.52,0.03,0.94-0.02,1.22 C37.51,19.16,37.48,19.31,37.48,19.31z"/>
      </g>
    </g>
    <g>
      <g>
        <path style="fill:#6CC5DA;" d="M2.97,40.26c0,0,0.01,0.15,0.04,0.41c0.03,0.26,0.08,0.63,0.2,1.07c0.23,0.88,0.74,2.02,1.64,2.97 c0.9,0.95,2.01,1.54,2.87,1.81c0.43,0.14,0.8,0.22,1.06,0.26c0.26,0.04,0.41,0.06,0.41,0.06s-0.14,0.04-0.41,0.08 c-0.26,0.05-0.66,0.08-1.15,0.05c-0.96-0.06-2.37-0.49-3.45-1.63C3.1,44.2,2.75,42.77,2.75,41.8c-0.01-0.49,0.05-0.88,0.11-1.14 C2.92,40.4,2.97,40.26,2.97,40.26z"/>
      </g>
    </g>
    <path style="fill:none;stroke:#6CC5DA;stroke-width:0.4131;stroke-miterlimit:10;" d="M35.6,45.05h-0.21c-0.73,0-1.32-0.59-1.32-1.32v-0.33c0-0.73,0.59-1.32,1.32-1.32h0.21 c0.73,0,1.32,0.59,1.32,1.32v0.33C36.92,44.46,36.32,45.05,35.6,45.05z"/>
    <path style="fill:none;stroke:#6CC5DA;stroke-width:0.4131;stroke-miterlimit:10;" d="M39.42,45.05h-0.21c-0.73,0-1.32-0.59-1.32-1.32v-0.33c0-0.73,0.59-1.32,1.32-1.32h0.21 c0.73,0,1.32,0.59,1.32,1.32v0.33C40.74,44.46,40.15,45.05,39.42,45.05z"/>
    <path style="fill:none;stroke:#6CC5DA;stroke-width:0.4131;stroke-miterlimit:10;" d="M39.4,49.24h-0.21c-0.73,0-1.32-0.59-1.32-1.32v-0.33c0-0.73,0.59-1.32,1.32-1.32h0.21 c0.73,0,1.32,0.59,1.32,1.32v0.33C40.72,48.65,40.12,49.24,39.4,49.24z"/>
    <path style="fill:none;stroke:#6CC5DA;stroke-width:0.4131;stroke-miterlimit:10;" d="M43.42,45.02h-0.21c-0.73,0-1.32-0.59-1.32-1.32v-0.33c0-0.73,0.59-1.32,1.32-1.32h0.21 c0.73,0,1.32,0.59,1.32,1.32v0.33C44.74,44.43,44.15,45.02,43.42,45.02z"/>
    <path style="fill:none;stroke:#6CC5DA;stroke-width:0.4131;stroke-miterlimit:10;" d="M43.48,49.18h-0.21c-0.73,0-1.32-0.59-1.32-1.32v-0.33c0-0.73,0.59-1.32,1.32-1.32h0.21 c0.73,0,1.32,0.59,1.32,1.32v0.33C44.8,48.58,44.2,49.18,43.48,49.18z"/>
    <path style="fill:none;stroke:#6CC5DA;stroke-width:0.4131;stroke-miterlimit:10;" d="M35.54,49.27h-0.21c-0.73,0-1.32-0.59-1.32-1.32v-0.33c0-0.73,0.59-1.32,1.32-1.32h0.21 c0.73,0,1.32,0.59,1.32,1.32v0.33C36.86,48.68,36.27,49.27,35.54,49.27z"/>
    <path style="fill:none;stroke:#6CC5DA;stroke-width:0.4131;stroke-miterlimit:10;" d="M47.82,44.99h-0.21c-0.73,0-1.32-0.59-1.32-1.32v-0.33c0-0.73,0.59-1.32,1.32-1.32h0.21 c0.73,0,1.32,0.59,1.32,1.32v0.33C49.14,44.39,48.54,44.99,47.82,44.99z"/>
    <path style="fill:none;stroke:#6CC5DA;stroke-width:0.4131;stroke-miterlimit:10;" d="M51.64,44.99h-0.21c-0.73,0-1.32-0.59-1.32-1.32v-0.33c0-0.73,0.59-1.32,1.32-1.32h0.21 c0.73,0,1.32,0.59,1.32,1.32v0.33C52.96,44.39,52.37,44.99,51.64,44.99z"/>
    <path style="fill:none;stroke:#6CC5DA;stroke-width:0.4131;stroke-miterlimit:10;" d="M51.62,49.18h-0.21c-0.73,0-1.32-0.59-1.32-1.32v-0.33c0-0.73,0.59-1.32,1.32-1.32h0.21 c0.73,0,1.32,0.59,1.32,1.32v0.33C52.94,48.58,52.34,49.18,51.62,49.18z"/>
    <path style="fill:none;stroke:#6CC5DA;stroke-width:0.4131;stroke-miterlimit:10;" d="M55.64,44.96h-0.21c-0.73,0-1.32-0.59-1.32-1.32V43.3c0-0.73,0.59-1.32,1.32-1.32h0.21 c0.73,0,1.32,0.59,1.32,1.32v0.33C56.96,44.36,56.37,44.96,55.64,44.96z"/>
    <path style="fill:none;stroke:#6CC5DA;stroke-width:0.4131;stroke-miterlimit:10;" d="M55.7,49.12h-0.21c-0.73,0-1.32-0.59-1.32-1.32v-0.33c0-0.73,0.59-1.32,1.32-1.32h0.21 c0.73,0,1.32,0.59,1.32,1.32v0.33C57.02,48.52,56.42,49.12,55.7,49.12z"/>
    <path style="fill:none;stroke:#6CC5DA;stroke-width:0.4131;stroke-miterlimit:10;" d="M47.76,49.21h-0.21c-0.73,0-1.32-0.59-1.32-1.32v-0.33c0-0.73,0.59-1.32,1.32-1.32h0.21 c0.73,0,1.32,0.59,1.32,1.32v0.33C49.08,48.62,48.49,49.21,47.76,49.21z"/>
    <line style="fill:none;stroke:#6CC5DA;stroke-width:0.5225;stroke-linecap:round;stroke-miterlimit:10;" x1="31.64" y1="40.48" x2="59.48" y2="40.62"/>
    <path style="fill:#3A8FCD;stroke:#6CC5DA;stroke-width:0.6125;stroke-miterlimit:10;" d="M59.65,37.14c0-1.19-0.97-2.15-2.16-2.15l-3.75,0v2.29c0,0.66-0.4,1.4-1.6,1.4c-0.66,0-0.99-0.74-1.19-1.4 v-2.29l-4.2,0v2.32c0,0.66-0.74,1.4-1.4,1.4c-0.66,0-1.4-0.74-1.4-1.4v-2.25l-3.94,0v2.25c0,0.66-0.74,1.19-1.4,1.19 c-0.66,0-1.4-0.54-1.4-1.19v-2.32l-2.04,0c-0.06,0.16-0.11,0.31-0.17,0.47l1.95,0v1.85c0,0.92,0.75,1.66,1.66,1.66 c0.92,0,1.66-0.74,1.66-1.66v-1.78l3.41,0v1.78c0,0.92,0.74,1.66,1.66,1.66c0.92,0,1.66-0.74,1.66-1.66v-1.86l3.67,0v1.82 c0,0.92,0.75,1.66,1.66,1.66c0.92,0,1.66-0.74,1.66-1.66v-1.83l3.48,0c0.93,0,1.69,0.76,1.69,1.69l0,12.44 c0,0.93-0.76,1.69-1.45,1.69l-2.81,0v0l-21.84,0c-0.93,0-1.69-0.76-1.69-1.69l0-7.66c-0.15,0.2-0.31,0.39-0.47,0.59l0,7.08 c0,1.19,0.97,2.15,2.15,2.15l22.03,0v0l2.38,0c1.19,0,2.15-0.97,2.15-2.16L59.65,37.14z"/>
    <circle style="fill:none;stroke:#3A8FCD;stroke-width:1.0208;stroke-miterlimit:10;" cx="19.2" cy="30.2" r="16.24"/>
    <path style="fill:none;stroke:#3A8FCD;stroke-width:1.1048;stroke-miterlimit:10;" d="M40.17,33.1v4.1c0,0.85-0.69,1.54-1.54,1.54c-0.85,0-1.54-0.69-1.54-1.54v-4.1c0-0.85,0.69-1.54,1.54-1.54 c0.42,0,0.81,0.17,1.09,0.45C39.99,32.29,40.17,32.68,40.17,33.1z"/>
    <path style="fill:none;stroke:#3A8FCD;stroke-width:1.1048;stroke-miterlimit:10;" d="M46.91,33.21v4.1c0,0.85-0.69,1.54-1.54,1.54c-0.85,0-1.54-0.69-1.54-1.54v-4.1c0-0.85,0.69-1.54,1.54-1.54 c0.42,0,0.81,0.17,1.09,0.45C46.74,32.4,46.91,32.79,46.91,33.21z"/>
    <path style="fill:none;stroke:#3A8FCD;stroke-width:1.1048;stroke-miterlimit:10;" d="M53.91,33.2v4.1c0,0.85-0.69,1.54-1.54,1.54c-0.85,0-1.54-0.69-1.54-1.54v-4.1c0-0.85,0.69-1.54,1.54-1.54 c0.42,0,0.81,0.17,1.09,0.45C53.74,32.39,53.91,32.77,53.91,33.2z"/>
  </g>
</svg>