<?xml version="1.0" encoding="utf-8"?>
<svg viewBox="3.379 12.28 58.9 42.303" width="58.9" height="42.303" xmlns="http://www.w3.org/2000/svg">
  <g>
    <path style="fill:#3C8ECD;stroke:#3C8ECD;stroke-width:0.2026;stroke-linecap:round;stroke-linejoin:round;stroke-miterlimit:10;" d="M8.59,31.74c-0.42-7.11,4.52-13.48,11.52-14.84l-0.08-0.62c-3.57,0.68-6.72,2.61-8.97,5.51 c-2.24,2.89-3.32,6.42-3.09,10.03L8.59,31.74z"/>
    <g>
      <g>
        <path style="fill:#6CC5DA;" d="M5.87,43.78c0,0,0.03,0.19,0.09,0.53c0.06,0.33,0.18,0.81,0.39,1.36c0.4,1.11,1.2,2.52,2.48,3.65 c1.28,1.13,2.79,1.75,3.93,2.01c0.57,0.13,1.06,0.19,1.4,0.21c0.34,0.02,0.53,0.03,0.53,0.03s-0.18,0.07-0.52,0.16 c-0.34,0.09-0.84,0.18-1.48,0.2c-1.26,0.04-3.13-0.36-4.67-1.71c-1.53-1.35-2.16-3.17-2.27-4.42c-0.07-0.63-0.04-1.15,0.01-1.49 C5.82,43.96,5.87,43.78,5.87,43.78z"/>
      </g>
    </g>
    <g>
      <g>
        <path style="fill:#6CC5DA;" d="M3.54,46.43c0,0,0.03,0.19,0.09,0.53c0.06,0.33,0.18,0.81,0.39,1.36c0.4,1.11,1.2,2.52,2.48,3.65 c1.28,1.13,2.79,1.75,3.93,2.01c0.57,0.13,1.06,0.19,1.4,0.21c0.34,0.02,0.53,0.03,0.53,0.03s-0.18,0.07-0.52,0.16 c-0.34,0.09-0.84,0.18-1.48,0.2c-1.26,0.04-3.13-0.36-4.67-1.71c-1.53-1.35-2.16-3.17-2.27-4.42c-0.07-0.63-0.04-1.15,0.01-1.49 C3.49,46.62,3.54,46.43,3.54,46.43z"/>
      </g>
    </g>
    <g>
      <path style="fill:#6CC5DA;" d="M20.63,37.07l-0.06-0.82c-0.19-1.7,0.38-3.57,1.96-5.46c1.42-1.67,2.21-2.9,2.21-4.32 c0-1.61-1.01-2.68-3-2.71c-1.14,0-2.4,0.38-3.19,0.98l-0.76-1.99c1.04-0.76,2.84-1.26,4.51-1.26c3.63,0,5.27,2.24,5.27,4.64 c0,2.15-1.2,3.69-2.71,5.49c-1.39,1.64-1.89,3.03-1.8,4.64l0.03,0.82H20.63z M19.94,41.48c0-1.17,0.79-1.99,1.89-1.99 c1.1,0,1.86,0.82,1.86,1.99c0,1.1-0.73,1.96-1.89,1.96C20.69,43.44,19.94,42.59,19.94,41.48z"/>
    </g>
    <g>
      <g>
        <path style="fill:#6CC5DA;" d="M62.24,18.51c0,0-0.03-0.13-0.1-0.37c-0.06-0.23-0.17-0.56-0.35-0.94c-0.34-0.76-0.99-1.72-1.95-2.45 c-0.97-0.73-2.07-1.09-2.89-1.2c-0.41-0.06-0.76-0.08-1-0.07c-0.24,0-0.38,0.01-0.38,0.01s0.12-0.06,0.36-0.14 c0.23-0.08,0.58-0.17,1.03-0.22c0.89-0.1,2.23,0.08,3.39,0.95c1.15,0.87,1.7,2.12,1.85,3c0.08,0.44,0.09,0.81,0.07,1.06 C62.26,18.38,62.24,18.51,62.24,18.51z"/>
      </g>
    </g>
    <circle style="fill:none;stroke:#3C8ECD;stroke-width:0.7756;stroke-linecap:round;stroke-linejoin:round;stroke-miterlimit:10;" cx="45.76" cy="25.28" r="1.51"/>
    <circle style="fill:none;stroke:#3C8ECD;stroke-width:0.7756;stroke-linecap:round;stroke-linejoin:round;stroke-miterlimit:10;" cx="51.29" cy="25.21" r="1.51"/>
    <circle style="fill:none;stroke:#3C8ECD;stroke-width:0.7756;stroke-linecap:round;stroke-linejoin:round;stroke-miterlimit:10;" cx="40.31" cy="25.25" r="1.51"/>
    <path style="fill:none;stroke:#3C8ECD;stroke-width:1.1634;stroke-linecap:round;stroke-linejoin:round;stroke-miterlimit:10;" d="M34.71,39c-0.15,0.2-0.6,0.66-1.05,0.66c-0.07,0-0.13-0.01-0.19-0.03c-0.21-0.07-0.45-0.28-0.45-0.9 l-0.03-5.24h-0.8c-1.23,0-2.23-1-2.23-2.23l0-12.6c0-0.59,0.23-1.15,0.65-1.57c0.42-0.42,0.98-0.65,1.57-0.65c0,0,0,0,0,0l3.88,0 c-3.33-2.61-7.52-4.16-12.07-4.16c-10.81,0-19.58,8.77-19.58,19.58S13.18,51.44,24,51.44c10.26,0,18.68-7.9,19.51-17.95l-4.68,0 L34.71,39z"/>
    <g>
      <path style="fill:none;stroke:#6CC5DA;stroke-width:1.3573;stroke-miterlimit:10;" d="M29.95,31.19c0,1.23,1,2.23,2.23,2.23h0.8l0.03,5.24c0,0.61,0.24,0.83,0.45,0.9 c0.06,0.02,0.13,0.03,0.19,0.03c0.45,0,0.9-0.46,1.05-0.66l4.12-5.51l18.08,0.01c1.23,0,2.23-1,2.23-2.23l0-12.59 c0-0.59-0.23-1.15-0.65-1.57c-0.42-0.42-0.98-0.65-1.57-0.65l-24.73-0.01c0,0,0,0,0,0c-0.59,0-1.15,0.23-1.57,0.65 c-0.42,0.42-0.65,0.98-0.65,1.57L29.95,31.19z"/>
    </g>
  </g>
</svg>