<svg width="24" height="24" viewBox="0 0 24 24" fill="none" xmlns="http://www.w3.org/2000/svg">
<path d="M22.967 5.26363C22.9864 5.50115 22.9944 5.78137 22.9977 6.13334L16.1787 10.6793C14.4027 11.8634 13.7193 12.3011 13.0098 12.4711C12.346 12.6302 11.654 12.6302 10.9902 12.4711C10.2807 12.3011 9.59732 11.8634 7.82126 10.6793L1.0023 6.13334C1.0056 5.78137 1.0136 5.50115 1.03301 5.26363C1.06429 4.8808 1.12013 4.69776 1.18166 4.57701C1.34144 4.2634 1.59641 4.00844 1.91002 3.84865C2.03076 3.78712 2.21381 3.73128 2.59664 3.7C2.99114 3.66777 3.50343 3.66699 4.26667 3.66699H19.7333C20.4966 3.66699 21.0089 3.66777 21.4034 3.7C21.7862 3.73128 21.9692 3.78712 22.09 3.84865C22.4036 4.00844 22.6586 4.2634 22.8183 4.57701C22.8799 4.69776 22.9357 4.8808 22.967 5.26363ZM17.2881 12.3434L23 8.53551V17.067C23 17.8302 22.9992 18.3425 22.967 18.737C22.9357 19.1199 22.8799 19.3029 22.8183 19.4236C22.6586 19.7372 22.4036 19.9922 22.09 20.152C21.9692 20.2135 21.7862 20.2694 21.4034 20.3006C21.0089 20.3329 20.4966 20.3337 19.7333 20.3337H4.26667C3.50343 20.3337 2.99114 20.3329 2.59664 20.3006C2.21381 20.2694 2.03076 20.2135 1.91002 20.152C1.59641 19.9922 1.34144 19.7372 1.18166 19.4236C1.12013 19.3029 1.06429 19.1199 1.03301 18.737C1.00078 18.3425 1 17.8302 1 17.067V8.53551L6.71186 12.3434C6.76862 12.3813 6.82464 12.4186 6.87996 12.4555C8.42822 13.4883 9.42388 14.1524 10.5241 14.4161C11.4943 14.6486 12.5057 14.6486 13.4759 14.4161C14.5761 14.1524 15.5718 13.4883 17.12 12.4555C17.1754 12.4186 17.2314 12.3813 17.2881 12.3434Z" stroke="#657B83" stroke-width="2" stroke-linecap="round" stroke-linejoin="round"/>
</svg>
