<svg width="26" height="24" viewBox="0 0 26 24" fill="none" xmlns="http://www.w3.org/2000/svg">
<path d="M1 6.66699L8.26656 11.5114C9.97726 12.6518 10.8326 13.2221 11.7571 13.4436C12.5741 13.6394 13.4259 13.6394 14.2429 13.4436C15.1674 13.2221 16.0227 12.6518 17.7334 11.5114L25 6.66699M5.26667 21.3337H20.7333C22.2268 21.3337 22.9735 21.3337 23.544 21.043C24.0457 20.7873 24.4537 20.3794 24.7094 19.8776C25 19.3072 25 18.5605 25 17.067V6.93366C25 5.44019 25 4.69345 24.7094 4.12302C24.4537 3.62125 24.0457 3.2133 23.544 2.95764C22.9735 2.66699 22.2268 2.66699 20.7333 2.66699H5.26667C3.77319 2.66699 3.02646 2.66699 2.45603 2.95764C1.95426 3.2133 1.54631 3.62125 1.29065 4.12302C1 4.69345 1 5.44019 1 6.93366V17.067C1 18.5605 1 19.3072 1.29065 19.8776C1.54631 20.3794 1.95426 20.7873 2.45603 21.043C3.02646 21.3337 3.77319 21.3337 5.26667 21.3337Z" stroke="#657B83" stroke-width="2" stroke-linecap="round" stroke-linejoin="round"/>
</svg>
