<svg width="26" height="24" viewBox="0 0 26 24" fill="none" xmlns="http://www.w3.org/2000/svg">
<path d="M1 6.66797L8.26656 11.5123C9.97726 12.6528 10.8326 13.223 11.7571 13.4446C12.5741 13.6404 13.4259 13.6404 14.2429 13.4446C15.1674 13.223 16.0227 12.6528 17.7334 11.5123L25 6.66797M5.26667 21.3346H20.7333C22.2268 21.3346 22.9735 21.3346 23.544 21.044C24.0457 20.7883 24.4537 20.3804 24.7094 19.8786C25 19.3082 25 18.5614 25 17.068V6.93464C25 5.44116 25 4.69443 24.7094 4.12399C24.4537 3.62223 24.0457 3.21428 23.544 2.95862C22.9735 2.66797 22.2268 2.66797 20.7333 2.66797H5.26667C3.77319 2.66797 3.02646 2.66797 2.45603 2.95862C1.95426 3.21428 1.54631 3.62223 1.29065 4.12399C1 4.69443 1 5.44116 1 6.93463V17.068C1 18.5614 1 19.3082 1.29065 19.8786C1.54631 20.3804 1.95426 20.7883 2.45603 21.044C3.02646 21.3346 3.77319 21.3346 5.26667 21.3346Z" stroke="#AE8300" stroke-width="2" stroke-linecap="round" stroke-linejoin="round"/>
</svg>
