<svg width="1051" height="256" viewBox="0 0 1051 256" fill="none" xmlns="http://www.w3.org/2000/svg">
<path fill-rule="evenodd" clip-rule="evenodd" d="M112.049 64C107.631 64 104.049 67.5817 104.049 72V96C104.049 100.418 107.631 104 112.049 104H136.049C140.467 104 144.049 100.418 144.049 96V72C144.049 67.5817 140.467 64 136.049 64H112.049ZM160.049 64C155.631 64 152.049 67.5817 152.049 72V144C152.049 148.418 155.631 152 160.049 152H232.049C236.467 152 240.049 148.418 240.049 144V72C240.049 67.5817 236.467 64 232.049 64H160.049ZM64.0488 112C64.0488 107.582 67.6306 104 72.0488 104H96.0488C100.467 104 104.049 107.582 104.049 112V184C104.049 188.418 100.467 192 96.0488 192H72.0488C67.6305 192 64.0488 188.418 64.0488 184V112ZM120.049 152C115.631 152 112.049 155.582 112.049 160V184C112.049 188.418 115.631 192 120.049 192H144.049C148.467 192 152.049 188.418 152.049 184V160C152.049 155.582 148.467 152 144.049 152H120.049Z" fill="url(#paint0_linear_250_1380)"/>
<path d="M310.492 168V87.8886H326.514V168H310.492ZM336.841 168V108.489H352.062V117.186C355.152 110.549 361.103 107.115 370.259 107.115C383.077 107.115 392.919 116.614 392.919 131.607V168H377.469V135.383C377.469 125.083 372.319 120.62 364.651 120.62C358.128 120.62 352.291 125.083 352.291 135.383V168H336.841ZM423.091 168C411.303 168 404.894 162.507 404.894 149.574V121.65H396.54V108.489H404.894V96.472L420.345 94.8697V108.489H432.933V121.65H420.345V148.773C420.345 152.55 422.176 154.267 425.151 154.267H431.56V168H423.091ZM465.03 169.488C446.604 169.488 434.244 155.526 434.244 138.359C434.244 121.192 447.177 107.001 465.03 107.001C482.883 107.001 495.243 121.192 495.243 138.359C495.243 140.075 495.129 141.907 494.786 143.852H450.267C451.983 150.833 457.248 155.754 465.03 155.754C471.668 155.754 476.818 152.321 479.564 147.743L491.581 156.784C486.774 164.223 476.818 169.488 465.03 169.488ZM450.267 132.293H479.679C477.962 125.655 472.354 120.276 464.801 120.276C457.477 120.276 451.983 125.198 450.267 132.293ZM502.026 168V108.489H517.018V119.819C519.078 111.235 525.144 106.543 535.444 107.115V121.65H533.269C524.343 121.65 517.476 127.601 517.476 137.558V168H502.026ZM540.584 190.889V108.489H555.805V118.102C559.01 111.579 564.389 107.23 574.803 107.23C591.169 107.23 604.215 121.306 604.215 138.473C604.215 155.64 591.169 169.488 574.803 169.488C564.618 169.488 559.239 165.368 556.034 159.188V190.889H540.584ZM555.576 138.473C555.576 147.743 562.1 155.526 572.285 155.526C582.128 155.526 588.765 147.4 588.765 138.359C588.765 129.089 582.128 121.192 572.285 121.192C562.1 121.192 555.576 129.203 555.576 138.473ZM639.044 169.488C620.619 169.488 608.259 155.526 608.259 138.359C608.259 121.192 621.191 107.001 639.044 107.001C656.898 107.001 669.258 121.192 669.258 138.359C669.258 140.075 669.143 141.907 668.8 143.852H624.281C625.998 150.833 631.262 155.754 639.044 155.754C645.682 155.754 650.832 152.321 653.579 147.743L665.595 156.784C660.789 164.223 650.832 169.488 639.044 169.488ZM624.281 132.293H653.693C651.977 125.655 646.369 120.276 638.815 120.276C631.491 120.276 625.998 125.198 624.281 132.293ZM676.04 168V108.489H691.033V119.819C693.093 111.235 699.158 106.543 709.458 107.115V121.65H707.284C698.357 121.65 691.49 127.601 691.49 137.558V168H676.04ZM733.517 169.488C723.446 169.488 715.32 166.054 708.797 159.073L719.211 149.574C723.56 154.496 728.138 156.899 733.173 156.899C738.438 156.899 741.413 154.267 741.413 150.719C741.413 147.629 739.926 145.912 730.541 143.738C714.633 139.961 712.23 132.751 712.23 125.198C712.23 114.783 720.47 107.001 734.432 107.001C744.046 107.001 750.455 109.404 756.52 117.301L745.304 125.884C742.443 121.306 738.781 119.475 734.776 119.475C730.541 119.475 727.337 121.078 727.337 124.74C727.337 126.8 728.252 128.631 735.348 130.462C752.629 134.925 756.635 141.334 756.635 150.261C756.635 161.248 746.678 169.488 733.517 169.488ZM792.069 169.488C773.643 169.488 760.367 155.526 760.367 138.359C760.367 121.192 773.643 107.115 792.069 107.115C810.494 107.115 823.77 121.192 823.77 138.359C823.77 155.526 810.494 169.488 792.069 169.488ZM775.817 138.359C775.817 147.629 782.226 155.411 792.069 155.411C801.911 155.411 808.32 147.629 808.32 138.359C808.32 129.089 801.911 121.192 792.069 121.192C782.226 121.192 775.817 129.089 775.817 138.359ZM830.608 168V108.489H845.829V117.186C848.919 110.549 854.87 107.115 864.026 107.115C876.844 107.115 886.686 116.614 886.686 131.607V168H871.236V135.383C871.236 125.083 866.086 120.62 858.418 120.62C851.895 120.62 846.058 125.083 846.058 135.383V168H830.608ZM922.442 169.488C906.076 169.488 893.03 155.64 893.03 138.473C893.03 121.306 906.076 107.23 922.442 107.23C932.742 107.23 938.121 111.464 941.325 117.873V108.489H956.661V168H941.669V158.272C938.464 165.024 933.085 169.488 922.442 169.488ZM908.48 138.359C908.48 147.4 915.117 155.526 924.96 155.526C935.145 155.526 941.669 147.743 941.669 138.473C941.669 129.203 935.145 121.192 924.96 121.192C915.117 121.192 908.48 129.089 908.48 138.359ZM965.841 168V84.4552H981.291V168H965.841Z" fill="url(#paint1_linear_250_1380)"/>
<defs>
<linearGradient id="paint0_linear_250_1380" x1="124.504" y1="-57.7778" x2="415.251" y2="160.456" gradientUnits="userSpaceOnUse">
<stop stop-color="#8A6800"/>
<stop offset="1" stop-color="#DBA600"/>
</linearGradient>
<linearGradient id="paint1_linear_250_1380" x1="538.803" y1="11.8889" x2="616.615" y2="373.644" gradientUnits="userSpaceOnUse">
<stop stop-color="#8A6800"/>
<stop offset="1" stop-color="#DBA600"/>
</linearGradient>
</defs>
</svg>
