<svg width="304" height="304" viewBox="0 0 304 304" fill="none" xmlns="http://www.w3.org/2000/svg">
<path fill-rule="evenodd" clip-rule="evenodd" d="M112 88C107.582 88 104 91.5817 104 96V120C104 124.418 107.582 128 112 128H136C140.418 128 144 124.418 144 120V96C144 91.5817 140.418 88 136 88H112ZM160 88C155.582 88 152 91.5817 152 96V168C152 172.418 155.582 176 160 176H232C236.418 176 240 172.418 240 168V96C240 91.5817 236.418 88 232 88H160ZM64 136C64 131.582 67.5817 128 72 128H96C100.418 128 104 131.582 104 136V208C104 212.418 100.418 216 96 216H72C67.5817 216 64 212.418 64 208V136ZM120 176C115.582 176 112 179.582 112 184V208C112 212.418 115.582 216 120 216H144C148.418 216 152 212.418 152 208V184C152 179.582 148.418 176 144 176H120Z" fill="url(#paint0_linear_243_1348)"/>
<defs>
<linearGradient id="paint0_linear_243_1348" x1="124.455" y1="-33.7778" x2="415.202" y2="184.456" gradientUnits="userSpaceOnUse">
<stop stop-color="#8A6800"/>
<stop offset="1" stop-color="#DBA600"/>
</linearGradient>
</defs>
</svg>
