<?xml version="1.0" standalone="no"?>
<!DOCTYPE svg PUBLIC "-//W3C//DTD SVG 20010904//EN"
 "http://www.w3.org/TR/2001/REC-SVG-20010904/DTD/svg10.dtd">
<svg version="1.0" xmlns="http://www.w3.org/2000/svg"
 width="500.000000pt" height="500.000000pt" viewBox="0 0 500.000000 500.000000"
 preserveAspectRatio="xMidYMid meet">

<g transform="translate(0.000000,500.000000) scale(0.100000,-0.100000)"
fill="#000000" stroke="none">
<path d="M2200 4383 c-501 -133 -702 -224 -942 -428 l-48 -40 0 -105 -1 -105
-40 -42 c-22 -24 -46 -43 -54 -43 -18 0 -45 -39 -44 -65 0 -19 1 -18 9 3 5 12
15 22 22 22 10 0 13 -30 13 -127 0 -110 -2 -130 -17 -141 -12 -8 -18 -27 -18
-49 l0 -37 31 30 c34 32 33 19 13 215 -5 50 -3 59 20 86 14 17 26 38 26 47 0
9 5 16 10 16 14 0 12 -44 -2 -59 -11 -10 -10 -14 3 -22 14 -7 16 -23 13 -96
l-5 -88 23 29 c141 180 291 322 464 437 79 53 219 118 230 107 3 -3 0 -32 -6
-64 -6 -33 -33 -198 -60 -369 -27 -170 -54 -334 -60 -364 -15 -81 -13 -116 9
-136 20 -17 19 -18 -10 -44 -28 -26 -32 -38 -65 -232 -19 -112 -33 -218 -30
-236 2 -17 1 -33 -4 -35 -7 -3 -61 -290 -55 -296 1 -1 14 2 29 8 15 5 72 10
126 10 l98 0 17 78 c46 214 109 338 211 412 26 19 37 22 101 22 42 1 54 4 58
19 8 23 42 33 112 34 46 0 52 2 47 18 -9 27 3 20 20 -13 14 -29 14 -30 -10
-30 -19 0 -24 -5 -23 -22 1 -17 2 -19 6 -5 5 18 23 24 23 7 0 -5 7 -10 15 -10
21 0 19 -39 -2 -64 -18 -21 -18 -21 5 -2 15 14 22 30 22 57 0 33 4 38 31 48
24 8 30 15 26 30 -3 13 -1 18 8 15 7 -3 15 -14 18 -25 5 -20 37 -27 37 -8 0
18 -21 53 -53 87 -43 45 -121 72 -210 72 -74 0 -162 -22 -136 -34 8 -3 4 -3
-9 0 -27 7 -51 -10 -47 -34 1 -9 0 -11 -2 -4 -7 19 -28 9 -28 -14 0 -11 -8
-20 -20 -22 -11 -2 -43 -29 -71 -60 l-51 -56 -7 38 c-4 22 -3 41 2 45 14 9 35
120 29 156 -3 18 -2 37 3 41 13 15 22 84 10 84 -18 0 -11 47 8 52 15 4 24 38
52 204 19 109 35 215 36 234 1 19 4 42 7 50 9 23 33 154 72 390 19 118 44 264
55 324 11 60 19 110 18 111 -2 1 -28 -4 -58 -12z m-239 -364 c11 -28 10 -33
-6 -45 -25 -18 -37 -14 -53 20 -11 21 -11 30 -2 42 20 24 47 16 61 -17z m164
-99 c-3 -5 -10 -10 -16 -10 -5 0 -9 5 -9 10 0 6 7 10 16 10 8 0 12 -4 9 -10z
m-143 -102 c-8 -8 -9 -4 -5 13 4 13 8 18 11 10 2 -7 -1 -18 -6 -23z m68 -68
c0 -5 -4 -10 -10 -10 -5 0 -10 5 -10 10 0 6 5 10 10 10 6 0 10 -4 10 -10z
m-82 -102 c3 -38 3 -38 -34 -38 -31 0 -36 3 -31 20 3 11 1 23 -4 26 -5 3 -9
12 -9 20 0 11 9 14 38 12 35 -3 37 -5 40 -40z m62 -69 c0 -5 -4 -9 -10 -9 -5
0 -10 7 -10 16 0 8 5 12 10 9 6 -3 10 -10 10 -16z m38 -41 c-7 -13 -12 -27
-13 -33 0 -14 -35 -19 -35 -5 0 6 5 8 10 5 6 -3 10 -1 10 4 0 6 -5 11 -11 11
-23 0 17 32 49 39 1 1 -3 -9 -10 -21z m22 -71 c0 -7 -9 -13 -20 -13 -25 0 -26
13 -2 19 9 3 18 5 20 6 1 0 2 -5 2 -12z m-232 -210 c2 -11 -3 -17 -17 -17 -23
0 -35 15 -26 31 10 15 39 6 43 -14z m129 -43 c-9 -9 -28 6 -21 18 4 6 10 6 17
-1 6 -6 8 -13 4 -17z m-139 -43 c3 -19 0 -22 -13 -17 -9 3 -19 6 -21 6 -2 0
-4 9 -4 21 0 29 34 21 38 -10z m110 6 c4 -20 -25 -34 -40 -19 -15 15 -1 44 19
40 10 -2 19 -11 21 -21z m42 13 c0 -5 -4 -10 -10 -10 -5 0 -10 5 -10 10 0 6 5
10 10 10 6 0 10 -4 10 -10z m-20 -56 c0 -8 -5 -12 -10 -9 -6 4 -8 11 -5 16 9
14 15 11 15 -7z m-105 -39 c0 -28 -29 -25 -33 3 -3 19 0 23 15 20 10 -2 18
-12 18 -23z m40 -5 c-3 -5 -10 -10 -16 -10 -5 0 -9 5 -9 10 0 6 7 10 16 10 8
0 12 -4 9 -10z m5 -50 c0 -5 -2 -10 -4 -10 -3 0 -8 5 -11 10 -3 6 -1 10 4 10
6 0 11 -4 11 -10z m-60 -10 c0 -5 -4 -10 -10 -10 -5 0 -10 5 -10 10 0 6 5 10
10 10 6 0 10 -4 10 -10z m120 -64 c-14 -14 -24 0 -16 21 6 15 8 15 16 3 6 -9
5 -19 0 -24z m-120 4 c0 -5 -4 -10 -10 -10 -5 0 -10 5 -10 10 0 6 5 10 10 10
6 0 10 -4 10 -10z m60 0 c0 -5 -5 -10 -11 -10 -5 0 -7 5 -4 10 3 6 8 10 11 10
2 0 4 -4 4 -10z m-77 -44 c16 -13 16 -14 -5 -20 -38 -10 -48 -7 -48 14 0 23
26 26 53 6z m137 -16 c0 -5 -4 -10 -10 -10 -5 0 -10 5 -10 10 0 6 5 10 10 10
6 0 10 -4 10 -10z m400 -56 c0 -8 -4 -12 -10 -9 -5 3 -10 10 -10 16 0 5 5 9
10 9 6 0 10 -7 10 -16z m-55 -4 c-3 -5 -10 -10 -16 -10 -5 0 -9 5 -9 10 0 6 7
10 16 10 8 0 12 -4 9 -10z m-65 -46 c0 -8 -4 -12 -10 -9 -5 3 -10 10 -10 16 0
5 5 9 10 9 6 0 10 -7 10 -16z m67 -6 c-3 -8 -6 -5 -6 6 -1 11 2 17 5 13 3 -3
4 -12 1 -19z m41 -3 c-3 -3 -9 2 -12 12 -6 14 -5 15 5 6 7 -7 10 -15 7 -18z
m72 4 c0 -5 -4 -9 -10 -9 -5 0 -10 7 -10 16 0 8 5 12 10 9 6 -3 10 -10 10 -16z
m110 0 c0 -6 -4 -7 -10 -4 -5 3 -10 11 -10 16 0 6 5 7 10 4 6 -3 10 -11 10
-16z m-740 1 c0 -5 -4 -10 -10 -10 -5 0 -10 5 -10 10 0 6 5 10 10 10 6 0 10
-4 10 -10z m50 0 c0 -5 -2 -10 -4 -10 -3 0 -8 5 -11 10 -3 6 -1 10 4 10 6 0
11 -4 11 -10z m645 0 c-3 -5 -10 -10 -16 -10 -5 0 -9 5 -9 10 0 6 7 10 16 10
8 0 12 -4 9 -10z m-290 -55 c0 -11 -8 -21 -17 -23 -14 -3 -18 3 -18 23 0 20 4
26 18 23 9 -2 17 -12 17 -23z m115 4 c0 -5 -4 -9 -10 -9 -5 0 -10 7 -10 16 0
8 5 12 10 9 6 -3 10 -10 10 -16z m170 0 c0 -6 -4 -7 -10 -4 -5 3 -10 11 -10
16 0 6 5 7 10 4 6 -3 10 -11 10 -16z m-690 -9 c0 -5 -2 -10 -4 -10 -3 0 -8 5
-11 10 -3 6 -1 10 4 10 6 0 11 -4 11 -10z m460 0 c0 -5 -5 -10 -11 -10 -5 0
-7 5 -4 10 3 6 8 10 11 10 2 0 4 -4 4 -10z m-514 -65 c-5 -14 -9 -15 -21 -5
-12 10 -13 16 -4 27 15 18 34 1 25 -22z m99 15 c3 -5 1 -10 -4 -10 -6 0 -11 5
-11 10 0 6 2 10 4 10 3 0 8 -4 11 -10z m-45 -10 c0 -5 -5 -10 -11 -10 -5 0 -7
5 -4 10 3 6 8 10 11 10 2 0 4 -4 4 -10z m230 0 c0 -5 -4 -10 -10 -10 -5 0 -10
5 -10 10 0 6 5 10 10 10 6 0 10 -4 10 -10z m-230 -50 c0 -5 -4 -10 -10 -10 -5
0 -10 5 -10 10 0 6 5 10 10 10 6 0 10 -4 10 -10z m0 -120 c0 -5 -4 -10 -10
-10 -5 0 -10 5 -10 10 0 6 5 10 10 10 6 0 10 -4 10 -10z m5 -60 c-3 -5 -10
-10 -16 -10 -5 0 -9 5 -9 10 0 6 7 10 16 10 8 0 12 -4 9 -10z m-50 -50 c0 -8
-8 -16 -17 -18 -13 -2 -18 3 -18 18 0 15 5 20 18 18 9 -2 17 -10 17 -18z m100
-110 c3 -5 2 -10 -4 -10 -5 0 -13 5 -16 10 -3 6 -2 10 4 10 5 0 13 -4 16 -10z"/>
<path d="M2690 4386 c0 -3 -9 -51 -20 -108 -11 -57 -23 -131 -28 -165 -10 -71
-14 -67 82 -78 75 -9 188 -37 294 -75 68 -25 82 -27 82 -14 0 8 4 13 8 10 4
-2 14 -1 22 5 11 6 8 9 -13 9 -16 0 -26 4 -22 10 3 6 16 10 28 10 13 0 17 3
11 8 -6 4 -10 16 -8 27 2 10 -1 24 -6 30 -5 7 -11 20 -13 31 -1 10 -6 24 -10
31 -4 6 -1 14 5 16 10 4 10 6 1 6 -7 1 -13 6 -13 11 0 6 18 10 40 10 33 0 40
-3 40 -19 0 -11 4 -22 8 -25 12 -7 13 -66 1 -66 -5 0 -7 -17 -4 -37 2 -20 0
-42 -6 -50 -9 -10 -7 -13 6 -13 13 0 15 -3 6 -13 -6 -8 -8 -17 -4 -20 3 -4 0
-7 -7 -7 -7 0 -19 8 -26 18 -9 12 -16 14 -23 6 -8 -7 9 -20 61 -44 73 -35 235
-136 275 -172 12 -11 26 -17 33 -13 6 3 9 1 8 -5 -2 -6 18 -29 43 -51 41 -36
48 -38 75 -29 19 7 83 9 165 6 231 -9 239 -10 250 -26 9 -12 10 -12 5 3 -24
73 -232 294 -376 397 -92 67 -266 178 -339 217 -114 61 -386 140 -541 158 -30
4 -63 9 -72 11 -10 3 -18 3 -18 0z m645 -259 c11 -1 23 -6 27 -11 9 -13 -16
-24 -54 -25 -16 -1 -28 -7 -28 -13 0 -9 -3 -9 -9 1 -14 22 -1 43 23 37 21 -5
21 -5 1 11 l-20 16 20 -8 c11 -4 29 -8 40 -8z m-608 -33 c-3 -3 -12 -4 -19 -1
-8 3 -5 6 6 6 11 1 17 -2 13 -5z m530 -70 c-3 -3 -12 -4 -19 -1 -8 3 -5 6 6 6
11 1 17 -2 13 -5z m43 -43 c0 -11 -51 -21 -64 -13 -5 3 -1 9 10 13 27 11 54
11 54 0z m60 5 c0 -11 -19 -15 -25 -6 -3 5 1 10 9 10 9 0 16 -2 16 -4z m55
-26 c1 -17 -4 -20 -34 -19 l-36 1 30 8 c28 7 28 8 5 9 l-25 1 25 13 c29 16 33
14 35 -13z m-161 -49 c15 -6 16 -9 5 -13 -8 -3 -20 1 -27 8 -14 15 -7 17 22 5z
m106 -11 c0 -5 -7 -10 -15 -10 -8 0 -15 5 -15 10 0 6 7 10 15 10 8 0 15 -4 15
-10z m105 -29 c3 -5 1 -12 -5 -16 -5 -3 -10 1 -10 9 0 18 6 21 15 7z m395
-110 c0 -11 -4 -22 -9 -25 -12 -8 -34 21 -26 34 11 17 35 11 35 -9z m-93 -2
c14 -14 6 -39 -12 -39 -18 0 -28 17 -21 35 6 18 18 19 33 4z m-287 -9 c0 -5
-5 -10 -11 -10 -5 0 -7 5 -4 10 3 6 8 10 11 10 2 0 4 -4 4 -10z"/>
<path d="M1109 3808 c-148 -166 -235 -290 -352 -506 -54 -98 -117 -277 -147
-419 -27 -126 -38 -433 -21 -578 65 -551 350 -1033 791 -1338 95 -66 149 -98
249 -149 105 -53 148 -65 122 -34 -6 7 -8 16 -4 19 13 14 23 6 23 -17 0 -31
11 -39 91 -69 152 -57 409 -111 417 -88 2 6 8 11 13 11 6 0 8 -4 5 -9 -6 -9
73 -21 147 -21 30 0 46 4 42 10 -3 6 -1 10 4 10 6 0 11 -6 12 -12 1 -7 4 -2 8
12 9 31 35 33 39 2 3 -22 5 -22 95 -17 170 12 310 41 492 104 98 34 92 31 72
42 -13 8 -15 14 -7 30 14 26 28 24 36 -5 5 -23 7 -24 38 -11 17 7 66 32 109
55 72 39 77 44 63 59 -20 22 -21 65 -1 81 15 13 65 6 65 -8 0 -5 6 -16 13 -26
13 -18 15 -18 40 -1 15 9 27 23 27 30 0 14 27 28 39 21 12 -8 57 33 45 41 -16
12 -25 42 -14 48 5 3 19 -4 30 -15 l21 -21 52 47 c128 118 167 164 167 197 0
26 11 44 55 87 49 49 54 56 39 67 -17 13 -13 43 7 43 6 0 13 -9 16 -20 5 -20
7 -20 24 -4 16 15 19 32 19 129 0 110 -1 113 -30 150 -19 24 -30 49 -30 69 0
24 -10 42 -40 71 -22 21 -40 46 -41 55 0 13 -1 13 -6 0 -3 -8 -14 -32 -24 -54
-19 -37 -19 -39 -2 -53 17 -13 17 -14 -2 -9 -20 6 -21 5 -77 -93 -31 -55 -127
-182 -180 -239 -27 -28 -46 -57 -43 -62 3 -6 3 -15 -1 -21 -5 -8 -9 -8 -14 1
-6 9 -30 -7 -82 -52 -129 -112 -311 -221 -469 -279 -84 -31 -299 -88 -331 -89
-10 0 -18 -6 -18 -14 0 -23 -22 -31 -35 -13 -18 25 -42 21 -41 -5 1 -18 -5
-24 -26 -26 -22 -3 -28 1 -28 16 0 24 -29 37 -36 17 -8 -20 -33 -19 -40 0 -4
10 -17 15 -40 13 -30 -2 -33 -5 -27 -26 5 -22 3 -23 -28 -20 -26 2 -35 8 -37
24 -2 17 -12 23 -44 28 -49 8 -55 4 -34 -26 9 -12 16 -28 16 -35 0 -19 -30
-43 -54 -43 -30 0 -46 20 -52 63 -3 28 0 36 19 44 19 9 13 12 -49 26 -39 9
-111 30 -159 47 -58 19 -92 26 -100 20 -12 -10 -35 6 -35 24 0 6 -42 33 -93
60 -50 27 -125 73 -164 103 -40 29 -77 53 -82 53 -16 0 -51 -52 -51 -76 0 -12
-6 -25 -12 -27 -10 -4 -10 -6 0 -6 7 -1 10 -6 7 -11 -12 -20 -25 2 -25 42 0
29 8 51 26 75 25 33 26 36 9 51 -17 16 -17 16 -11 -2 3 -10 1 -25 -5 -32 -15
-19 -58 -18 -65 1 -9 24 5 65 22 65 26 0 9 25 -19 28 -20 2 -27 9 -27 24 0 11
-26 50 -58 87 -96 110 -148 190 -225 347 -57 114 -88 203 -120 334 -54 223
-52 394 5 625 11 44 22 90 25 103 3 12 0 29 -7 37 -19 23 -4 65 24 65 27 0 36
21 36 84 0 30 -3 37 -15 32 -12 -4 -15 6 -17 52 -3 84 1 125 12 136 6 6 10 63
10 131 0 114 1 123 23 143 13 12 30 22 38 22 8 0 29 17 47 37 31 36 32 42 32
120 0 46 -4 83 -8 83 -5 0 -38 -33 -73 -72z m37 -95 c-10 -10 -19 5 -10 18 6
11 8 11 12 0 2 -7 1 -15 -2 -18z m-400 -938 c12 -49 -48 -78 -65 -32 -12 30 4
57 34 57 18 0 26 -7 31 -25z m2 -155 c1 -40 0 -40 -36 -40 -36 0 -37 1 -37 40
-1 40 -1 40 36 40 36 0 37 -1 37 -40z m123 -276 c10 -13 10 -17 -2 -25 -27
-17 -44 -4 -33 25 8 20 18 20 35 0z m57 -102 c3 -19 -1 -23 -15 -20 -10 2 -19
14 -21 26 -3 19 1 23 15 20 10 -2 19 -14 21 -26z m-95 -17 c7 -17 -8 -29 -28
-21 -17 6 -9 36 10 36 7 0 15 -7 18 -15z m97 -76 c0 -22 -25 -26 -33 -5 -6 16
12 38 25 30 4 -3 8 -14 8 -25z m-116 -290 c5 -5 4 -15 -4 -24 -12 -15 -16 -14
-37 9 -13 14 -23 28 -23 31 0 7 53 -5 64 -16z m-4 -63 c0 -11 -19 -15 -25 -6
-3 5 1 10 9 10 9 0 16 -2 16 -4z m3165 -15 c10 -17 -12 -21 -25 -6 -10 12 -10
15 3 15 9 0 18 -4 22 -9z m-3127 -24 c2 -12 -3 -17 -17 -17 -15 0 -21 6 -21
21 0 25 33 22 38 -4z m3092 -18 c0 -23 -28 -26 -37 -3 -6 16 15 37 29 28 4 -3
8 -14 8 -25z m-3035 -1 c29 -13 34 -48 7 -48 -11 0 -24 11 -30 25 -18 40 -17
41 23 23z m3075 -28 c0 -5 -5 -10 -11 -10 -5 0 -7 5 -4 10 3 6 8 10 11 10 2 0
4 -4 4 -10z m-90 -29 c0 -11 -4 -23 -10 -26 -6 -4 -9 5 -8 19 3 30 18 35 18 7z
m-2872 -13 c-5 -32 -28 -35 -28 -4 0 17 5 26 16 26 10 0 14 -7 12 -22z m-78
-54 c0 -18 -20 -28 -32 -16 -6 6 -12 23 -14 36 -3 25 -2 25 22 10 13 -9 24
-22 24 -30z m3108 13 c2 -12 -3 -17 -17 -17 -12 0 -21 6 -21 13 0 31 32 34 38
4z m-171 -74 c-2 -16 -4 -3 -4 27 0 30 2 43 4 28 2 -16 2 -40 0 -55z m-2851
-3 c8 0 14 -9 14 -20 0 -13 -7 -20 -20 -20 -11 0 -20 7 -20 15 0 8 -4 15 -10
15 -5 0 -10 5 -10 11 0 6 7 8 16 5 9 -3 22 -6 30 -6z m144 -36 c0 -8 -4 -12
-10 -9 -5 3 -10 10 -10 16 0 5 5 9 10 9 6 0 10 -7 10 -16z m-30 -6 c0 -22 -17
-41 -29 -34 -19 12 -13 46 9 46 11 0 20 -6 20 -12z m2726 -127 c-9 -10 -16
-30 -16 -46 0 -20 -3 -26 -10 -19 -12 12 1 57 19 69 6 3 12 25 13 48 l1 42 4
-38 c3 -26 -1 -45 -11 -56z m-2766 45 c0 -3 -4 -8 -10 -11 -5 -3 -10 -1 -10 4
0 6 5 11 10 11 6 0 10 -2 10 -4z m-30 -21 c0 -9 -7 -18 -16 -22 -18 -7 -39 11
-30 26 11 17 46 13 46 -4z m315 -5 c3 -5 1 -10 -4 -10 -6 0 -11 5 -11 10 0 6
2 10 4 10 3 0 8 -4 11 -10z m2335 -56 c0 -8 -5 -12 -10 -9 -6 4 -8 11 -5 16 9
14 15 11 15 -7z m-60 -39 c0 -8 -4 -15 -10 -15 -5 0 -10 7 -10 15 0 8 5 15 10
15 6 0 10 -7 10 -15z m-144 -20 c3 -8 3 -19 0 -24 -10 -16 -36 -1 -36 20 0 22
28 26 36 4z m-2178 -22 c-2 -10 -10 -18 -18 -18 -8 0 -16 8 -18 18 -2 12 3 17
18 17 15 0 20 -5 18 -17z m-128 -7 c0 -3 -4 -8 -10 -11 -5 -3 -10 -1 -10 4 0
6 5 11 10 11 6 0 10 -2 10 -4z m200 -16 c0 -5 -2 -10 -4 -10 -3 0 -8 5 -11 10
-3 6 -1 10 4 10 6 0 11 -4 11 -10z m-280 -20 c0 -5 -5 -10 -11 -10 -5 0 -7 5
-4 10 3 6 8 10 11 10 2 0 4 -4 4 -10z m2717 -32 c-3 -7 -5 -2 -5 12 0 14 2 19
5 13 2 -7 2 -19 0 -25z m-2389 -80 c30 -30 2 -86 -38 -73 -26 8 -28 59 -2 74
22 13 26 13 40 -1z m340 -11 c4 -21 -27 -35 -38 -17 -12 19 0 42 19 38 9 -2
17 -11 19 -21z m1790 -12 c0 -19 -5 -38 -11 -42 -6 -4 -8 2 -5 15 4 12 2 24
-3 28 -7 4 7 31 18 34 0 0 1 -16 1 -35z m-92 -32 c-11 -11 -19 6 -11 24 8 17
8 17 12 0 3 -10 2 -21 -1 -24z m-69 2 c0 -8 -4 -15 -9 -15 -4 0 -8 7 -8 15 0
8 4 15 8 15 5 0 9 -7 9 -15z m-1567 -25 c0 -5 -2 -10 -4 -10 -3 0 -8 5 -11 10
-3 6 -1 10 4 10 6 0 11 -4 11 -10z m-360 -44 c0 -3 -4 -8 -10 -11 -5 -3 -10
-1 -10 4 0 6 5 11 10 11 6 0 10 -2 10 -4z m270 -27 c0 -5 -9 -9 -20 -9 -22 0
-23 1 -14 24 5 13 9 14 20 5 8 -6 14 -15 14 -20z m1059 3 c12 -22 -3 -42 -31
-42 -24 0 -34 26 -18 45 17 20 37 19 49 -3z m145 2 c23 -22 20 -71 -3 -84 -27
-14 -37 -13 -55 6 -21 20 -20 53 1 76 20 22 37 23 57 2z m-984 -24 c0 -5 -4
-10 -10 -10 -5 0 -10 5 -10 10 0 6 5 10 10 10 6 0 10 -4 10 -10z m-196 -15 c3
-8 1 -15 -4 -15 -6 0 -10 7 -10 15 0 8 2 15 4 15 2 0 6 -7 10 -15z m-44 -16
c0 -5 -4 -9 -10 -9 -5 0 -10 7 -10 16 0 8 5 12 10 9 6 -3 10 -10 10 -16z m730
6 c19 -23 8 -50 -20 -50 -19 0 -26 6 -28 24 -5 35 26 53 48 26z m68 3 c27 -27
-5 -73 -38 -53 -20 12 -4 65 20 65 3 0 11 -5 18 -12z m142 -5 c10 -17 10 -17
20 0 15 23 37 22 51 -4 9 -17 8 -25 -5 -37 -14 -14 -20 -15 -37 -4 -16 10 -24
10 -35 1 -20 -16 -44 -4 -44 24 0 40 30 52 50 20z m-890 -53 c0 -5 -4 -10 -10
-10 -5 0 -10 5 -10 10 0 6 5 10 10 10 6 0 10 -4 10 -10z m894 -106 c9 -25 7
-34 -8 -34 -19 0 -29 17 -22 35 7 20 22 19 30 -1z m-764 -34 c0 -5 -7 -10 -15
-10 -8 0 -15 5 -15 10 0 6 7 10 15 10 8 0 15 -4 15 -10z m480 -30 c0 -5 -2
-10 -4 -10 -3 0 -8 5 -11 10 -3 6 -1 10 4 10 6 0 11 -4 11 -10z"/>
<path d="M3615 3579 c11 -13 32 -37 48 -53 26 -27 29 -28 45 -12 22 19 42 21
42 3 0 -10 26 -14 99 -15 98 -3 99 -2 121 25 l22 28 -63 11 c-35 7 -73 8 -84
4 -12 -4 -44 -4 -71 1 -27 6 -66 9 -87 7 -21 -1 -41 2 -45 7 -4 6 -16 12 -27
14 -20 3 -20 3 0 -20z m178 -56 c-7 -2 -19 -2 -25 0 -7 3 -2 5 12 5 14 0 19
-2 13 -5z"/>
<path d="M4009 3520 l-56 -49 -116 -3 c-114 -3 -116 -3 -102 -23 8 -11 38 -57
67 -102 29 -44 61 -84 72 -87 13 -3 17 -11 13 -26 -3 -13 6 -44 23 -78 37 -76
63 -135 64 -147 1 -5 17 -12 36 -15 27 -4 31 -7 17 -13 -11 -4 -23 -5 -28 -1
-5 3 -9 0 -9 -5 0 -6 9 -11 20 -11 11 0 23 -7 26 -15 5 -11 11 -12 24 -5 24
13 80 13 80 0 0 -5 -3 -10 -8 -10 -4 0 -7 -15 -7 -32 0 -24 -5 -34 -18 -36
-22 -4 -47 26 -39 47 3 9 1 12 -6 7 -7 -4 -12 -15 -13 -24 0 -12 -3 -11 -9 6
-5 12 -12 22 -14 22 -3 0 -3 -7 0 -15 4 -8 2 -21 -4 -28 -11 -13 4 -111 16
-103 4 2 15 -7 25 -20 19 -25 10 -33 -12 -11 -11 10 -12 0 -7 -56 7 -77 9
-311 2 -342 -2 -12 -7 -48 -11 -80 -6 -52 -51 -238 -70 -287 -5 -13 -2 -18 9
-18 10 0 16 -8 16 -22 0 -12 14 -36 31 -54 21 -22 32 -45 36 -75 4 -30 15 -54
35 -75 29 -31 29 -33 26 -128 -2 -53 -1 -96 2 -96 14 0 118 207 154 308 43
120 87 286 121 462 17 83 16 349 0 462 -9 62 -19 115 -21 117 -2 3 -10 -1 -16
-7 -9 -9 -7 -16 5 -30 23 -25 21 -55 -4 -78 l-22 -19 17 33 c21 41 8 72 -32
72 l-27 0 24 -13 c31 -15 35 -28 17 -52 -12 -16 -18 -18 -33 -9 -10 6 -21 22
-24 35 l-7 24 -1 -24 c-1 -14 6 -33 16 -43 17 -19 5 -26 -15 -6 -8 8 -15 8
-27 -2 -8 -7 -18 -10 -22 -6 -3 3 -1 6 6 6 19 0 33 48 20 72 -8 15 -18 19 -44
16 -27 -3 -35 0 -39 16 -5 19 -6 19 -24 3 -30 -27 -44 -20 -16 9 19 18 24 31
20 50 -5 17 -2 24 9 24 11 0 13 -7 9 -28 -4 -20 0 -33 14 -46 27 -24 54 -17
70 18 12 24 12 30 0 43 -13 12 -14 10 -10 -16 3 -23 0 -30 -17 -36 -32 -10
-50 11 -47 53 2 41 -9 37 127 41 l47 1 -18 58 c-41 130 -106 276 -186 418 -83
148 -71 141 -135 84z m-39 -300 c0 -5 -4 -10 -10 -10 -5 0 -10 5 -10 10 0 6 5
10 10 10 6 0 10 -4 10 -10z m235 -56 c0 -10 -8 -20 -17 -22 -18 -3 -26 27 -11
42 12 11 28 0 28 -20z m-105 -174 c11 -7 7 -10 -18 -10 -20 0 -31 4 -27 10 8
13 26 13 45 0z m119 -11 c-29 -6 -56 -5 -70 0 -18 8 -7 10 46 9 70 0 70 0 24
-9z m-159 -123 c0 -3 -4 -8 -10 -11 -5 -3 -10 -1 -10 4 0 6 5 11 10 11 6 0 10
-2 10 -4z m102 -62 c-3 -15 2 -32 13 -44 16 -18 17 -20 2 -20 -10 0 -17 5 -17
12 0 9 -3 9 -12 0 -21 -21 -29 -13 -12 13 14 21 14 30 5 48 -11 22 -11 22 -7
-3 7 -31 -18 -60 -45 -53 -16 4 -19 13 -17 37 2 26 8 32 33 36 47 9 63 2 57
-26z m75 10 c8 -20 -8 -48 -30 -52 -19 -4 -39 30 -31 52 8 21 53 21 61 0z
m-92 -340 c27 -18 40 -43 20 -40 -17 2 -55 36 -55 48 0 12 7 10 35 -8z m205
-36 c0 -26 -13 -16 -17 13 -2 12 1 18 7 14 5 -3 10 -16 10 -27z m-246 -3 c2
-7 -1 -12 -7 -11 -21 3 -38 17 -32 26 7 12 32 2 39 -15z m199 7 c19 -20 13
-32 -14 -32 -22 0 -33 16 -25 35 7 20 19 19 39 -3z m-6 -188 c-3 -3 -12 -4
-19 -1 -8 3 -5 6 6 6 11 1 17 -2 13 -5z m-20 -41 c-20 -2 -52 -2 -70 0 -17 2
0 4 38 4 39 0 53 -2 32 -4z m-44 -60 c-24 -2 -62 -2 -85 0 -24 2 -5 4 42 4 47
0 66 -2 43 -4z m-58 -113 c-3 -5 -10 -10 -16 -10 -5 0 -9 5 -9 10 0 6 7 10 16
10 8 0 12 -4 9 -10z m-65 -100 c0 -5 -4 -10 -9 -10 -6 0 -13 5 -16 10 -3 6 1
10 9 10 9 0 16 -4 16 -10z m166 -4 c10 -8 16 -17 12 -21 -7 -7 -48 16 -48 27
0 12 14 9 36 -6z m-224 -31 c0 -5 -5 -11 -11 -13 -6 -2 -11 4 -11 13 0 9 5 15
11 13 6 -2 11 -8 11 -13z m188 -25 c0 -11 -6 -20 -14 -20 -18 0 -29 16 -21 30
11 18 35 11 35 -10z m-64 -105 c4 -8 3 -23 0 -32 -6 -15 -8 -15 -23 -1 -16 17
-12 48 7 48 6 0 13 -7 16 -15z"/>
<path d="M4130 2456 c0 -2 8 -10 18 -17 15 -13 16 -12 3 4 -13 16 -21 21 -21
13z"/>
<path d="M1146 3487 c-4 -19 -1 -47 5 -63 l12 -29 8 44 c6 31 5 49 -5 63 -13
18 -14 17 -20 -15z"/>
<path d="M1073 3412 c0 -35 -5 -68 -11 -74 -7 -7 -11 -40 -10 -82 2 -67 2 -68
5 -16 3 31 11 62 20 72 13 15 14 28 6 90 l-11 73 1 -63z"/>
<path d="M1161 3324 c0 -11 3 -14 6 -6 3 7 2 16 -1 19 -3 4 -6 -2 -5 -13z"/>
<path d="M3130 3190 c0 -5 5 -21 12 -34 9 -22 8 -29 -8 -47 -14 -16 -19 -35
-18 -80 1 -32 7 -66 14 -74 17 -21 24 -12 10 14 -10 20 -8 21 30 21 l40 0 -17
-27 c-10 -16 -22 -31 -27 -34 -5 -4 -5 -13 0 -20 5 -9 -1 -7 -16 4 -14 9 -35
24 -48 33 -13 9 -35 18 -49 20 -35 4 -83 -22 -82 -44 0 -10 3 -12 6 -4 2 6 11
12 18 12 7 0 16 6 18 13 3 6 6 3 7 -8 2 -17 3 -16 10 5 6 20 8 14 9 -27 1 -44
-2 -53 -16 -53 -28 1 -96 35 -118 60 -25 27 -61 49 -50 28 5 -7 17 -23 27 -34
19 -22 10 -43 -12 -29 -5 3 -10 -1 -10 -9 0 -19 13 -20 39 -4 15 9 27 7 65
-11 37 -19 56 -22 95 -16 48 6 48 6 44 -19 -5 -26 19 -90 38 -101 5 -4 3 9 -5
29 l-15 36 40 0 c37 0 40 -2 34 -22 -10 -32 -41 -81 -65 -103 -30 -27 -24 -40
7 -15 28 22 41 17 48 -20 5 -27 12 -36 21 -27 4 4 -1 26 -10 51 -16 42 -16 45
4 80 11 20 20 53 20 72 0 31 3 36 20 31 17 -4 20 0 19 26 -1 31 -1 31 -9 7 -4
-14 -8 -19 -9 -12 -1 7 -5 11 -11 7 -11 -7 -50 25 -50 41 0 6 16 15 34 21 30
9 36 8 39 -6 4 -14 5 -14 6 2 1 10 9 17 21 17 15 0 20 -7 21 -27 1 -26 3 -23
15 15 4 13 114 -53 114 -69 0 -5 5 -9 10 -9 6 0 10 10 10 23 0 16 -3 18 -9 8
-7 -11 -11 -9 -20 8 -12 22 -13 22 54 47 19 7 19 8 -3 11 -12 3 -36 -3 -54
-11 -29 -15 -34 -15 -82 9 -42 20 -57 23 -89 16 -34 -8 -38 -7 -32 7 4 10 8
24 10 32 1 8 0 10 -2 5 -2 -6 -24 -9 -48 -7 -36 3 -45 8 -45 22 0 10 8 21 18
23 15 4 15 5 -2 6 -12 1 -16 6 -12 17 3 9 6 19 6 24 0 5 18 30 40 55 22 25 40
48 40 51 0 10 -41 -18 -47 -32 -7 -19 -23 -8 -23 17 0 10 -4 19 -10 19 -5 0
-10 -4 -10 -10z m-28 -258 c14 -9 38 -30 52 -45 14 -15 30 -27 36 -27 18 0 11
-40 -7 -41 -15 0 -15 -2 2 -9 15 -6 8 -9 -28 -9 -47 -1 -47 -1 -41 27 4 15 11
33 17 40 16 21 1 24 -38 8 -21 -9 -39 -16 -41 -16 -2 0 -4 20 -4 45 0 50 9 55
52 27z"/>
<path d="M1085 3169 c-4 -6 -5 -12 -2 -15 2 -3 7 2 10 11 7 17 1 20 -8 4z"/>
<path d="M3183 3098 c1 -7 8 -19 15 -26 6 -7 12 -20 12 -28 0 -8 5 -14 10 -14
15 0 12 11 -10 48 -20 33 -32 41 -27 20z"/>
<path d="M1758 2977 c-3 -19 -2 -25 4 -19 6 6 8 18 6 28 -3 14 -5 12 -10 -9z"/>
<path d="M4277 2923 c-22 -21 6 -83 38 -83 34 0 62 68 35 85 -7 4 -9 -2 -5
-17 9 -34 -16 -54 -45 -38 -16 9 -21 18 -17 36 5 26 4 28 -6 17z"/>
<path d="M3462 2890 c0 -14 2 -19 5 -12 2 6 2 18 0 25 -3 6 -5 1 -5 -13z"/>
<path d="M3313 2873 c-41 -14 -58 -33 -30 -33 13 0 77 37 77 45 0 3 -1 5 -2 4
-2 0 -22 -7 -45 -16z"/>
<path d="M3473 2865 c-17 -19 -16 -35 2 -35 9 0 15 9 15 25 0 29 -1 29 -17 10z"/>
<path d="M4244 2849 c-10 -17 13 -36 27 -22 12 12 4 33 -11 33 -5 0 -12 -5
-16 -11z"/>
<path d="M2592 2696 c1 -10 8 -17 13 -17 15 1 12 24 -3 29 -9 3 -13 -2 -10
-12z"/>
<path d="M2325 2671 c-4 -7 0 -8 11 -4 14 5 16 3 11 -11 -5 -12 -3 -16 5 -14
7 3 13 11 13 19 0 17 -31 24 -40 10z"/>
<path d="M2568 2643 c6 -2 12 -14 13 -26 0 -21 1 -21 8 -2 10 25 5 35 -17 34
-11 0 -12 -3 -4 -6z"/>
<path d="M3090 2611 c0 -12 39 -25 47 -17 4 3 -2 6 -13 7 -18 0 -18 1 1 9 18
8 17 9 -7 9 -16 1 -28 -3 -28 -8z"/>
<path d="M2470 2564 c0 -8 5 -12 10 -9 6 4 8 11 5 16 -9 14 -15 11 -15 -7z"/>
<path d="M2380 2522 c0 -30 14 -43 38 -34 9 3 10 8 2 17 -6 7 -9 19 -8 26 2 7
-5 15 -14 17 -14 3 -18 -3 -18 -26z"/>
<path d="M2477 2512 c1 -8 3 -16 3 -18 0 -3 5 -2 10 1 6 3 10 11 10 16 0 6 -4
8 -9 5 -5 -4 -11 -3 -14 1 -2 5 -2 2 0 -5z"/>
<path d="M2611 2513 c-6 -10 -11 -12 -11 -5 0 16 -37 15 -43 -2 -7 -18 12 -36
40 -36 16 0 24 7 29 25 8 32 -1 43 -15 18z m-21 -23 c0 -5 -4 -10 -10 -10 -5
0 -10 5 -10 10 0 6 5 10 10 10 6 0 10 -4 10 -10z"/>
<path d="M2525 2510 c3 -5 8 -10 11 -10 2 0 4 5 4 10 0 6 -5 10 -11 10 -5 0
-7 -4 -4 -10z"/>
<path d="M2499 2446 c-2 -3 -22 -6 -42 -8 -46 -3 -53 -10 -62 -65 -7 -44 -21
-56 -27 -25 -3 9 -10 -9 -17 -41 -7 -32 -11 -61 -8 -63 3 -3 21 9 41 26 34 30
36 36 36 91 0 40 4 59 13 60 6 1 51 1 100 0 50 0 87 4 87 9 0 6 -17 10 -37 10
-21 0 -47 3 -58 6 -11 3 -23 3 -26 0z"/>
<path d="M2521 2202 c12 -20 59 -19 59 0 0 6 -9 8 -20 5 -11 -3 -23 -1 -26 4
-3 5 -9 9 -15 9 -5 0 -4 -8 2 -18z"/>
<path d="M2336 2201 c-7 -11 79 -23 110 -15 13 3 24 10 24 15 0 12 -127 12
-134 0z"/>
<path d="M1678 2146 c-10 -7 -18 -22 -19 -32 0 -17 -1 -17 -7 -2 -15 37 -35
-2 -52 -100 l-17 -101 39 -38 c32 -31 41 -35 48 -23 5 8 12 11 17 7 4 -5 1
-12 -7 -17 -11 -7 0 -24 53 -79 76 -79 68 -84 87 64 6 50 17 122 25 160 7 39
16 94 20 123 l7 52 -89 0 c-57 -1 -94 -5 -105 -14z"/>
<path d="M2320 2140 c0 -6 48 -10 125 -10 77 0 125 4 125 10 0 6 -48 10 -125
10 -77 0 -125 -4 -125 -10z"/>
<path d="M2296 2016 c-31 -157 -35 -190 -23 -198 9 -6 9 -10 -1 -16 -7 -5 -10
-16 -6 -25 3 -10 1 -17 -5 -17 -6 0 -11 -16 -11 -35 l0 -35 53 0 c29 0 59 6
66 13 11 10 14 10 18 0 3 -7 14 -13 24 -13 11 0 17 5 14 10 -3 6 -1 10 4 10 6
0 11 -4 11 -10 0 -5 14 -10 30 -10 16 0 29 3 28 8 0 4 2 15 7 26 5 12 3 21 -6
27 -12 8 -11 11 4 20 21 12 22 29 3 29 -17 0 -31 18 -22 27 3 3 12 0 20 -6 8
-7 16 -8 19 -4 3 4 13 57 23 117 14 85 15 111 5 114 -8 3 -6 8 6 18 16 12 16
15 3 24 -19 12 -97 13 -105 1 -3 -5 9 -11 27 -13 25 -2 33 -8 33 -23 0 -22
-38 -32 -81 -21 -24 6 -35 46 -13 46 5 0 8 4 5 9 -3 5 -30 8 -60 8 l-54 -1
-16 -80z m34 34 c0 -5 -4 -10 -10 -10 -5 0 -10 5 -10 10 0 6 5 10 10 10 6 0
10 -4 10 -10z m27 -93 c-2 -7 -13 -13 -25 -15 -16 -3 -22 2 -22 16 0 10 3 22
6 25 10 10 46 -13 41 -26z m143 -82 c0 -8 -4 -15 -9 -15 -13 0 -22 16 -14 24
11 11 23 6 23 -9z m-40 -60 c0 -9 -6 -12 -15 -9 -8 4 -15 10 -15 15 0 5 7 9
15 9 8 0 15 -7 15 -15z m-10 -45 c0 -5 -5 -10 -11 -10 -5 0 -7 5 -4 10 3 6 8
10 11 10 2 0 4 -4 4 -10z m-75 -10 c-3 -5 -11 -10 -16 -10 -6 0 -7 5 -4 10 3
6 11 10 16 10 6 0 7 -4 4 -10z m-55 -50 c0 -5 -5 -10 -11 -10 -5 0 -7 5 -4 10
3 6 8 10 11 10 2 0 4 -4 4 -10z"/>
<path d="M1566 1794 c-9 -49 -16 -92 -16 -96 0 -5 50 -8 110 -8 61 0 110 3
110 6 0 3 -6 11 -13 17 -8 7 -50 47 -94 91 l-81 78 -16 -88z"/>
<path d="M3965 1309 c-4 -6 -5 -12 -2 -15 2 -3 7 2 10 11 7 17 1 20 -8 4z"/>
</g>
</svg>
