<?xml version="1.0" standalone="no"?>
<!DOCTYPE svg PUBLIC "-//W3C//DTD SVG 20010904//EN"
 "http://www.w3.org/TR/2001/REC-SVG-20010904/DTD/svg10.dtd">
<svg version="1.0" xmlns="http://www.w3.org/2000/svg"
 width="1501.000000pt" height="1501.000000pt" viewBox="0 0 1501.000000 1501.000000"
 preserveAspectRatio="xMidYMid meet">
<metadata>
Created by potrace 1.14, written by Peter Selinger 2001-2017
</metadata>
<g transform="translate(0.000000,1501.000000) scale(0.100000,-0.100000)"
fill="#000000" stroke="none">
<path d="M7217 14634 c-1 -1 -78 -5 -172 -9 -93 -4 -186 -8 -205 -10 -137 -11
-198 -17 -220 -20 -14 -2 -54 -7 -90 -10 -36 -4 -72 -9 -81 -10 -9 -2 -40 -6
-70 -10 -30 -3 -76 -10 -104 -15 -27 -5 -63 -11 -80 -14 -85 -12 -169 -27
-175 -31 -3 -2 -29 -7 -56 -11 -27 -3 -52 -8 -55 -10 -3 -2 -21 -6 -40 -9 -19
-3 -52 -11 -74 -17 -22 -5 -51 -12 -65 -15 -38 -6 -245 -61 -337 -89 -45 -14
-90 -27 -100 -29 -57 -12 -468 -159 -588 -210 -586 -249 -1024 -493 -1485
-830 -112 -81 -332 -253 -386 -301 -12 -11 -48 -41 -80 -69 -317 -269 -711
-687 -977 -1035 -7 -9 -33 -43 -58 -75 -394 -515 -765 -1207 -1001 -1870 -33
-92 -110 -332 -123 -385 -3 -8 -18 -64 -35 -125 -31 -112 -114 -478 -124 -549
-4 -21 -8 -48 -11 -60 -18 -82 -55 -352 -70 -511 -4 -38 -9 -86 -11 -105 -19
-162 -26 -870 -11 -1070 14 -175 25 -294 41 -415 3 -22 8 -62 11 -90 3 -27 10
-72 16 -100 5 -27 11 -63 13 -80 7 -55 26 -164 31 -177 3 -7 7 -26 9 -43 4
-26 9 -52 30 -150 2 -11 9 -38 14 -60 6 -22 13 -51 16 -65 6 -38 33 -141 77
-295 87 -302 214 -650 342 -935 97 -216 297 -603 318 -616 5 -3 7 -10 4 -15
-4 -5 -1 -9 4 -9 6 0 11 -5 11 -10 0 -26 363 -582 438 -671 7 -8 38 -48 69
-89 61 -81 257 -317 344 -415 78 -88 472 -480 558 -555 41 -36 79 -70 85 -75
47 -44 275 -226 399 -319 203 -151 520 -359 712 -466 22 -13 76 -43 120 -67
227 -127 604 -300 890 -408 319 -120 816 -263 1075 -309 14 -3 50 -10 80 -16
30 -6 71 -13 90 -16 19 -3 46 -7 60 -10 49 -9 76 -13 195 -29 66 -9 131 -18
145 -20 14 -2 57 -7 95 -10 39 -4 81 -8 95 -10 14 -2 72 -7 130 -10 58 -3 132
-8 165 -11 77 -5 565 -5 670 0 114 6 242 15 300 21 28 3 73 8 100 11 46 4 262
31 310 39 11 1 40 5 65 9 73 11 402 75 440 86 19 5 76 19 125 31 50 11 121 30
160 41 38 11 80 22 93 24 51 10 474 154 632 216 476 188 901 409 1330 693 139
93 207 141 349 247 246 183 491 397 731 638 268 267 418 437 610 685 171 220
385 534 483 706 14 24 51 89 82 144 85 148 254 489 326 655 81 189 185 471
238 640 23 74 46 144 50 156 5 11 8 41 7 67 -2 55 -31 92 -85 107 -49 13 -115
-17 -135 -62 -38 -88 -46 -107 -66 -158 -39 -99 -177 -386 -263 -545 -152
-284 -423 -693 -610 -921 -56 -68 -159 -190 -215 -254 -72 -82 -390 -401 -462
-465 -203 -178 -401 -340 -504 -410 -17 -12 -78 -55 -136 -95 -103 -71 -367
-240 -376 -240 -2 0 -21 -11 -42 -23 -134 -84 -402 -218 -687 -342 -180 -79
-615 -230 -745 -260 -8 -2 -71 -18 -140 -35 -69 -18 -136 -34 -150 -37 -14 -2
-63 -13 -110 -23 -47 -10 -98 -21 -115 -24 -59 -10 -281 -45 -325 -51 -25 -3
-56 -8 -70 -10 -14 -2 -54 -6 -90 -10 -36 -3 -78 -7 -95 -9 -169 -21 -826 -29
-1020 -13 -99 8 -192 17 -225 22 -14 2 -54 6 -90 10 -36 3 -132 17 -215 31
-82 14 -166 27 -185 30 -19 3 -37 7 -40 9 -3 2 -26 6 -50 10 -25 3 -128 27
-230 52 -878 215 -1692 616 -2400 1182 -205 165 -329 277 -545 495 -242 244
-425 460 -623 734 -407 563 -725 1210 -917 1866 -35 123 -96 355 -110 426 -2
8 -6 26 -9 40 -3 14 -8 36 -10 50 -2 14 -13 75 -25 135 -11 61 -23 128 -26
150 -3 22 -7 54 -10 70 -9 60 -23 173 -30 245 -3 30 -8 76 -10 101 -27 267
-27 753 0 1084 9 110 27 263 46 385 6 36 12 76 14 90 5 40 14 89 30 170 9 41
17 84 19 95 9 47 78 325 92 375 43 147 130 415 161 495 58 152 81 210 144 355
26 61 216 442 252 505 73 130 98 172 166 280 138 220 391 564 528 721 16 18
47 54 70 80 62 73 103 118 227 244 192 196 302 295 621 559 53 43 323 236 425
303 759 496 1609 818 2503 948 176 25 252 33 557 56 104 8 555 8 659 0 42 -3
112 -8 156 -12 44 -3 96 -7 115 -9 19 -2 60 -6 90 -9 57 -5 73 -8 225 -31 50
-7 106 -16 125 -19 19 -3 105 -19 190 -37 241 -49 278 -49 314 6 37 57 19 145
-36 173 -39 20 -388 126 -454 138 -13 2 -35 9 -49 14 -14 5 -38 12 -53 15 -47
9 -66 13 -127 29 -86 22 -400 82 -530 100 -163 24 -165 24 -230 31 -33 4 -71
8 -85 10 -14 2 -61 7 -105 10 -44 4 -96 8 -115 10 -102 10 -646 25 -653 19z"/>
<path d="M8238 13705 c-2 -1 -82 -5 -178 -9 -96 -3 -195 -8 -220 -10 -94 -8
-206 -18 -220 -21 -8 -2 -46 -6 -85 -11 -38 -4 -72 -8 -75 -9 -13 -3 -117 -19
-130 -20 -8 -1 -28 -4 -45 -8 -16 -4 -41 -9 -55 -11 -299 -51 -711 -170 -1050
-303 -190 -74 -549 -248 -730 -353 -216 -125 -578 -374 -702 -482 -14 -13 -46
-39 -70 -58 -63 -51 -220 -192 -240 -215 -47 -54 -24 -145 44 -178 54 -27 82
-17 200 70 57 41 155 109 218 150 63 42 126 83 140 93 51 35 345 193 458 247
156 74 396 170 564 226 130 43 344 104 398 113 14 3 32 7 40 10 19 7 190 40
250 49 24 4 47 8 50 10 3 2 30 6 60 10 30 3 62 8 70 10 8 2 44 7 80 10 36 3
79 8 95 10 144 19 658 26 825 11 124 -10 181 -16 215 -21 17 -2 53 -7 80 -10
28 -4 61 -8 75 -11 333 -55 512 -98 795 -191 623 -203 1228 -551 1720 -986 92
-82 328 -316 400 -398 318 -359 601 -793 790 -1209 100 -221 207 -503 250
-663 71 -264 114 -452 130 -563 3 -21 8 -50 10 -64 3 -14 7 -43 10 -65 3 -22
8 -51 10 -65 4 -25 15 -114 21 -180 23 -250 22 -715 -1 -904 -2 -16 -6 -57 -9
-90 -4 -34 -8 -72 -11 -86 -2 -14 -6 -43 -10 -65 -3 -22 -10 -65 -15 -95 -5
-30 -12 -71 -15 -90 -3 -19 -10 -55 -15 -80 -5 -25 -12 -56 -14 -70 -20 -106
-87 -344 -146 -522 -430 -1283 -1390 -2340 -2620 -2888 -63 -28 -128 -57 -145
-65 -150 -67 -525 -185 -750 -236 -49 -11 -99 -23 -110 -25 -29 -7 -198 -38
-265 -49 -14 -2 -65 -9 -115 -15 -49 -6 -108 -13 -130 -16 -107 -13 -162 -15
-450 -18 -170 -2 -341 0 -380 4 -38 4 -106 11 -149 15 -43 4 -86 8 -95 10 -15
2 -67 10 -146 20 -45 5 -318 58 -365 70 -8 2 -53 13 -100 25 -782 195 -1564
629 -2166 1202 -54 51 -100 62 -152 37 -42 -21 -64 -53 -67 -96 -2 -38 13 -70
55 -117 276 -311 522 -542 820 -768 542 -412 1140 -718 1783 -912 98 -30 280
-79 337 -91 160 -34 221 -47 249 -51 18 -3 43 -8 55 -10 11 -2 37 -7 56 -10
19 -2 46 -7 60 -9 94 -17 267 -37 445 -51 186 -16 768 -8 910 11 17 2 76 9
132 15 57 6 111 13 120 14 10 2 38 7 63 10 25 3 55 8 66 10 12 2 37 7 55 10
19 3 70 12 114 21 44 9 91 18 105 21 217 41 620 163 895 271 166 65 169 67
353 154 78 38 143 67 145 66 1 -1 16 7 32 19 17 11 55 33 85 49 58 30 100 53
128 70 9 6 40 23 67 40 132 78 398 257 505 342 102 79 226 178 230 183 3 3 43
38 90 79 120 104 399 386 506 511 241 282 419 528 588 815 42 72 81 137 86
145 56 89 232 458 310 655 105 262 240 701 264 859 4 21 8 41 10 45 4 6 41
204 51 276 4 22 8 51 10 65 2 14 7 48 10 75 4 28 8 61 11 75 6 45 23 243 30
350 7 123 8 556 0 620 -3 25 -8 83 -11 130 -3 47 -8 101 -10 120 -2 19 -7 60
-10 90 -3 30 -8 66 -10 80 -2 14 -7 45 -10 70 -10 79 -65 373 -81 435 -9 33
-18 71 -21 85 -18 102 -106 389 -186 615 -107 297 -328 753 -492 1010 -80 127
-110 170 -117 173 -5 2 -8 8 -8 13 0 7 -51 84 -83 124 -4 6 -26 35 -48 65
-167 229 -302 384 -544 625 -146 146 -224 220 -299 283 -28 24 -283 227 -301
240 -573 418 -1108 683 -1780 885 -101 31 -355 92 -460 112 -80 15 -237 42
-298 50 -27 4 -57 8 -67 10 -10 2 -49 6 -87 10 -37 3 -88 8 -113 11 -113 12
-146 14 -325 19 -104 3 -198 8 -207 9 -9 2 -18 3 -20 1z"/>
<path d="M7248 12145 c-2 -2 -52 -5 -113 -9 -155 -8 -332 -27 -385 -41 -8 -2
-35 -7 -60 -10 -25 -4 -65 -11 -90 -17 -25 -5 -56 -12 -70 -14 -57 -11 -292
-75 -390 -107 -426 -140 -859 -372 -1224 -657 -163 -127 -437 -389 -551 -525
-28 -33 -58 -69 -68 -80 -75 -83 -253 -336 -352 -500 -57 -95 -170 -314 -209
-405 -15 -36 -36 -83 -46 -105 -31 -69 -107 -285 -139 -395 -41 -143 -101
-397 -106 -455 -1 -11 -7 -51 -13 -90 -33 -206 -46 -379 -46 -625 1 -295 23
-518 80 -795 8 -38 16 -79 18 -90 58 -292 242 -773 405 -1057 11 -21 30 -55
42 -75 93 -165 261 -403 399 -568 444 -531 1022 -941 1675 -1190 165 -63 474
-154 610 -179 11 -2 49 -10 85 -16 36 -7 75 -14 87 -15 12 -2 34 -6 50 -9 15
-3 51 -8 78 -11 28 -3 66 -8 85 -10 210 -27 690 -28 890 -1 14 2 54 7 90 10
36 4 112 17 170 28 58 11 116 22 130 24 14 3 33 7 42 10 10 3 29 7 43 10 45 8
197 51 324 90 155 49 193 78 194 145 1 56 -29 103 -77 119 -32 10 -41 9 -151
-16 -31 -8 -57 -13 -85 -19 -14 -2 -47 -9 -75 -15 -73 -14 -104 -19 -165 -25
-30 -4 -62 -8 -70 -10 -97 -25 -667 -25 -795 -1 -11 2 -45 7 -76 10 -31 4 -67
9 -80 11 -13 3 -35 7 -49 10 -470 86 -888 252 -1289 513 -46 30 -89 58 -95 63
-6 5 -33 26 -61 46 -57 42 -173 134 -224 178 -64 55 -286 279 -342 344 -29 35
-59 69 -64 75 -6 6 -40 52 -77 101 -38 50 -71 95 -75 100 -38 49 -121 178
-167 259 -171 297 -289 582 -370 896 -11 39 -46 199 -51 230 -21 124 -24 149
-29 180 -3 19 -8 71 -11 115 -4 44 -9 94 -11 110 -5 39 -5 363 0 435 6 84 16
191 22 230 9 59 33 213 39 245 10 52 75 307 81 316 3 5 7 18 9 28 24 125 197
521 313 716 172 289 311 467 561 715 313 311 664 545 1084 724 248 106 603
203 847 232 25 3 55 7 68 9 153 26 685 26 818 1 12 -2 45 -7 74 -11 29 -4 60
-8 69 -10 9 -1 54 -10 101 -19 118 -22 115 -22 210 -46 613 -156 1181 -484
1622 -936 58 -60 125 -131 148 -159 23 -27 52 -61 64 -75 12 -14 42 -52 66
-85 25 -33 47 -62 51 -65 13 -11 161 -241 206 -320 43 -74 108 -205 183 -363
45 -96 159 -109 210 -24 28 45 25 68 -19 198 -101 294 -262 622 -437 887 -79
121 -83 127 -114 167 -14 17 -34 44 -45 59 -11 15 -27 36 -35 46 -8 10 -28 35
-45 56 -122 156 -377 418 -540 554 -50 41 -92 77 -95 80 -3 3 -48 37 -100 76
-320 238 -671 426 -1050 562 -89 32 -303 98 -342 106 -13 2 -61 13 -108 24
-143 34 -200 46 -290 58 -25 3 -53 8 -64 10 -10 2 -44 6 -75 9 -31 4 -67 8
-81 11 -62 10 -543 26 -552 19z"/>
<path d="M7748 10545 c-2 -2 -37 -5 -78 -9 -41 -3 -84 -8 -95 -10 -11 -2 -45
-7 -75 -11 -48 -6 -151 -26 -215 -41 -11 -3 -30 -7 -41 -9 -54 -12 -206 -59
-293 -92 -534 -200 -988 -565 -1318 -1058 -60 -90 -169 -290 -204 -375 -17
-41 -39 -93 -49 -115 -34 -78 -96 -283 -121 -400 -7 -33 -13 -62 -14 -65 -3
-13 -16 -99 -20 -134 -3 -22 -7 -51 -10 -66 -13 -74 -8 -120 15 -145 46 -49
124 -20 136 51 3 16 16 74 29 129 134 560 474 1048 960 1373 113 76 111 75
259 149 175 88 406 168 569 197 15 3 35 7 45 10 9 3 40 7 67 10 28 3 68 8 90
11 22 3 56 8 75 10 45 6 347 6 380 1 14 -3 56 -7 95 -11 38 -4 72 -8 75 -10 3
-1 28 -6 55 -9 28 -4 77 -14 110 -22 33 -9 68 -17 77 -19 33 -7 255 -83 303
-105 80 -36 246 -121 290 -148 58 -36 148 -95 165 -109 270 -209 446 -396 597
-632 92 -145 214 -405 250 -536 31 -114 54 -203 58 -224 36 -194 46 -295 46
-460 1 -114 -7 -241 -16 -291 -2 -14 -7 -45 -10 -70 -49 -362 -238 -785 -495
-1104 -77 -95 -217 -235 -320 -319 -41 -34 -77 -64 -80 -67 -25 -28 -255 -167
-375 -225 -321 -158 -629 -232 -990 -240 -120 -2 -139 -5 -156 -22 -27 -26
-29 -72 -7 -105 19 -27 26 -29 168 -44 75 -8 340 -7 420 0 113 11 154 16 185
21 17 3 48 7 70 11 60 9 239 52 335 81 360 108 768 340 1023 582 115 109 143
138 207 211 36 41 68 77 71 80 3 3 31 39 61 80 147 197 295 465 372 671 65
176 128 419 142 544 3 28 7 52 9 55 7 12 19 231 19 345 0 115 -9 287 -18 331
-2 12 -7 45 -11 75 -4 30 -8 56 -10 59 -2 3 -6 26 -10 50 -15 109 -89 356
-152 510 -86 210 -258 505 -358 616 -5 6 -23 29 -40 50 -45 58 -102 121 -181
199 -303 301 -651 516 -1049 650 -213 72 -389 109 -615 132 -47 4 -398 11
-402 8z"/>
</g>
</svg>
