<svg xmlns="http://www.w3.org/2000/svg" viewBox="0 0 235 90" width="235" height="90" preserveAspectRatio="none" style="width: 100%; height: 100%; transform: translate3d(0px, 0px, 0px); content-visibility: visible;"><defs><clipPath id="__lottie_element_150"><rect width="235" height="90" x="0" y="0"></rect></clipPath><mask id="__lottie_element_151" mask-type="alpha"><g transform="matrix(1,0,0,1,117.5,45)" opacity="1" style="display: block;"><g opacity="1" transform="matrix(1,0,0,1,0,0)"><path stroke-linecap="round" stroke-linejoin="round" fill-opacity="0" stroke="rgb(123,93,214)" stroke-opacity="1" stroke-width="87" d=" M-162.7449951171875,-0.5189999938011169 C-162.7449951171875,-0.5189999938011169 117.5,0.14800000190734863 117.5,0.14800000190734863"></path></g></g></mask></defs><g clip-path="url(#__lottie_element_150)"><g mask="url(#__lottie_element_151)" style="display: block;"><g transform="matrix(7.074900150299072,0,0,7.074900150299072,117.30899810791016,44.67300033569336)" opacity="1"><g opacity="1" transform="matrix(0.14328999817371368,0,0,0.14328999817371368,0,0)"><path fill="rgb(123,93,214)" fill-opacity="1" d=" M61.2859992980957,-32.808998107910156 C82.25599670410156,-25.98900032043457 91.39600372314453,-44.64899826049805 95.59600067138672,-22.64900016784668 C96.21600341796875,-17.66900062561035 97.14600372314453,-11.33899974822998 98.57599639892578,-8.439000129699707 C100.44599914550781,-8.869000434875488 103.41600036621094,-9.659000396728516 103.99600219726562,-9.869000434875488 C118.25599670410156,-0.08900000154972076 130.92599487304688,51.430999755859375 61.92599868774414,41.9109992980957 C61.92599868774414,41.9109992980957 60.60599899291992,41.9010009765625 60.60599899291992,41.9010009765625 C28.176000595092773,41.31100082397461 1.1859999895095825,39.17100143432617 -30.393999099731445,39.430999755859375 C-53.034000396728516,37.85100173950195 -80.96399688720703,49.07099914550781 -96.13400268554688,29.150999069213867 C-108.43399810791016,29.631000518798828 -114.63400268554688,15.300999641418457 -106.2239990234375,13.630999565124512 C-106.2239990234375,13.630999565124512 -106.2239990234375,10.031000137329102 -106.2239990234375,10.031000137329102 C-111.4739990234375,5.921000003814697 -113.93399810791016,-3.3489999771118164 -111.5739974975586,-7.879000186920166 C-142.093994140625,-61.229000091552734 28.06599998474121,-40.02899932861328 61.2859992980957,-32.808998107910156z"></path></g></g></g></g></svg>