<svg id="Layer_1" xmlns="http://www.w3.org/2000/svg" viewBox="0 0 260 15.6">
  <style>
    .st0{fill:#f3bc34}
  </style>
  <path class="st0" d="M206.8 7.3l-.1.3c.1-.2.2-.3.1-.3zM234.7 10h-.1c-.2.4-.1.3.1 0zM54.8 4.2l-.6-.4c.2.4.4.5.6.4zM17.1 5.1zM34.5 9.6l.1.3c0-.2 0-.3-.1-.3zM22.4 10.8c-.3-.1-.7-.1-1-.1.2.1.7.1 1 .1zM17.5 5c-.1.1-.2.1-.4.2.2-.1.3-.2.4-.2zM52.7 9.8l.5.9c-.1-.3-.3-.6-.5-.9zM19.5 11.6c-.2-.2-.4-.2-.6-.3 0 .2.3.3.6.3zM120.9 11.4c-.1.1-.2.2-.2.3.3-.1.3-.2.2-.3zM80.9 10.4h-.1s.1.1.2.1l-.1-.1zM92.6 10.4l-.2.2c.2-.1.2-.1.2-.2zM72.1 11.3c-.1.1-.3.2-.4.3l.4-.3z"/>
  <path class="st0" d="M260 6c-1-.6-4.7-1.2-5.8.3-.2-.1.1-.3.2-.4-.9.2-2.2.1-3.6 0s-2.9-.2-4.2 0c-1 1.5-3.9-.6-4.8 1.4l.5-.4c.9.5-1.2 1.4-1.5 1.9-.8-1.2-.1-1-1-2l1.1.4-.3-1c-3.1 2.8-6.2-.9-8.2 1.1.1-.1.1-.3.2-.4-1.4-.5-2.3.8-3.3 1.2-.1-.5.6-.9 1.1-1.3-2.4-.3-6.4 1.2-9 .4-.9.7.4.9-.6 1.5-.8-.2-1.4-.7-.4-1.1-2.3-1.2-7.6 1-11.1-.2-1.8.8-.7 1.1-3.5 1.6.7-.5-.7-1.7 1-1.7l.2-.5c-2.8-.1-6.6-.3-8.1 1.2-.1-1.1-.5-.2-1.6-.8-.4.1 0 .2.2.2-1 .9-1.6-.1-2.3.1l.3-.2-2 .7c-.3-.2-.8-.4-.9-.7v.8c-1.1 0-.5-1-1.9-.8l.3.6c-.9-.4-2.2.4-2.4-.5 0-.2.1-.1.4-.1-1.3-1.2-3.5.3-5.1-.3l.4 1.3c-1.6.4-1-.3-.9-.7-1.1 0-1.3-.4-2.7-.6-.7.3-.4.5-.6.8l-1.5-.4 1-.7c-2.3 1.8-5.6-.4-7.2 1.2-.8-.4.8-.7.3-1-2.6-.9-6 1-8.2 0-3.6-1-7.8-.4-11.8-1.1l.1.3-2.9-.4c-.8.7-2.7.3-4 1.1.1-.3-.1-.7.2-.9-1.2.1-2.6.4-3.3-.1l.4-.3c-2.7-.3-6.4-.5-7.9.1-.9 0-.9-.6-1.1-1-1.6-.1-2.6.2-3.9.7-.3-.2-.7-.3-1-.6l-.6.8c-.6-.1-.1-.7-.6-.9-2.5.9-5.3-.1-7-.1l.2.4c-.7.3-2.1-.3-1.2-.7-3.4-.6-5.1 1.2-9.6.8-.6-1.5-4.1.3-4.8-1.4-1.9.4-3.2-.3-4.5.6 0-.2-.2-.2.1-.3-.8-.6-3.3-.2-5.3.2l-.1-.5c-.9 1.2-4.2.9-4.9 2-.2-.2.4-.5.7-.7-1-1.1-1.8.5-3.1.2.1-.3-.3-.6 0-.8-4.4-1.2-10.6.7-16.3-.1-1.6 0 .6 1.2-1.5 1.1-.6-.6 1-1.1-.3-1.4-.9.7-1.3.5-2.6.5.2-.4 0-.6.9-.9-.7-.5-3.1.9-4.5 0 .1.3-.2.5-.5.7-2.1 1-4.9-.9-5.1-.4 0 0-.7.2-.1.3-.8 0-1.9-.2-1.7-.7-.4.3-.8.8-1.4.8l.3-.6c-.4.1-.8.5-1.1.6l.6.4c-.9-.5-2.6.8-2.6-.4h.3l-1.7-.5c-.7.5-1.3 1-2.5.9-.5-1.3-2.9-.2-4.3-.3l.1-.4c-1.1.6-4 .4-3.5.6-1.1 0-2.6-.2-2-.6-.8.1-2.7.1-3.2.9l-1.8-1c-1 1.6-3.6-.5-3.6 1.2-1-.2-.8-.6-1.5-.9-1.4.9-2.8.8-4.2.7v-.2c-1.4-.1-3.1.8-5.1 1l-.5-1.2c-1 .2-1.3 1.2-2.3 1-.2-.2 0-.3.2-.3-1 .3-2.3.1-3.1-.2-1.5 1-2.7.7-3.9 1.8-1.3-1 1.7-.6.6-1.6-2.2-.4-4.4.4-6.7 1.1-.2-.2 0-.4.1-.7 0 0-1.2.9-2.2 1.8C.9 8.3 0 9.4.5 10c-.5.9-1.2 1.4.9 2 .6-.5 2.5-1.3 2.9-.4l.1-.9c2.6-.6.4 1.8 3.6 1.6l-.7-.3c.6-.1 1.1-.7 1.8-.5.2.2-.2.4-.5.6.9-.5 1.7-.9 2.6-1.4.1.5.1.8-.4 1.2 2.5-.2-.6-1.6 2.4-1.4.6.4-.2.6-.5.9 1.4.7 2.3-.1 3.8-.6.1.8-.9.7.3 1.2-.3-.4-.5-1.1.5-1.2-.4.8.7.4 1.6.5-.2-.3-.1-.6.2-.8.4-.1.8.1 1.4.1l-1.1-.7c1.5-.8 2.4.3 3.6.6-.1.1-.3.3-.5.3 1.2.3 2.5.9 4.1.1l-.3.1c2.9-.9-1-1.3 2.4-2.2 1.1.1-.4 2.6 2.1 1.6-1.3-.6 1.6-1.7 3.1-2L32.4 10c.6 0 1.6-.5 2-.3l-.1-.3c-.2-1.3 1.9.1 3-.7-1.3 1.8-1.4 1.5-1.6 3.2 1-1 2.2-1.9 4.1-1.8l-1.5 1.4c2.5.2 5.5-1.9 7.6-3-.5 1 .3 1.4-.6 2.2l2.4-.3-.7 1.1c1-1.2 2.1-.4 1.9-1.9-.3.2-.2.4-.7.3.1-.4.5-1.4 1.7-1.3.9.3-.5.6-.2 1 .8-.6.9.3 1.7-.1l-.8-.6c.6-.9 1.4-.1 2.2-.5-1 .4-.7.9-.3 1.4l-.1-.1c.8-.1 1.6-.7 2-.2l-.5 1.2.9-.9c.3.1.6.6 0 .8 2.8.7-.1-2.5 3.6-1.5 0 .5-.4.8-1.4.5-.2.7.1 1.1 1.1 1.4v.1c1.9 0 4.4 0 5.6-.8.4.3 0 .6-.4.9 2.1.4 2.8-.7 5 .1l-1-.4c1.4-.6 4-.8 5.3.1l-.4.3c1.3-.7 3.5.6 4 0-.6-.4 0-.6-.8-1l3.4-.7.2 1.2 1.8-.4c-.4-.5 2.4.4 2.5-.7 1 .4-.4.9-.8 1.4 1-.3 1.1.2 2.1-.5l1 1.1 2.6-.7c-.1.1 0 .2-.1.3 1.2-.9 3.1.6 4.6-.9-.1.1-.1.1-.1.2.9-.8 2.9-.2 3.7 0 1.4-.2.6-1 .6-1.4 3.9.4 2.7.3 6-.9 2 1.4-2.4 2.1.1 3 .4-.6 2.1-1.1 4.1-1.3 1.8.5 4.8.9 6.5 1.9l-.2-.9 2.6-.4-1.5 1.2c.4-.3 1.7-.8 2.6-1.2 2.7-.7 1.4 1.9 3.5.7.1.1.1.2.2.3.7-.6 2.4-.3 4.4-.5l-.7 1.1-1.3-.3c.7 1.1 2.1-.1 3.4 0 1.3-.3.7-1.3 1.4-1.6.5.1 1.2-.2 1.6.1 1.1.4.1 1.3-.3 1.8 1-1.1 1.4-.9 3.6-1.3.1.5-.1.8-.4.9.5-.1.9-.3 1.2-.8l.7.7c2.5 1 2.6-2 5.6-1.5-.8.6 2.6 0 3.5.7-1.1.1.4 1.6-.2 2.3 2.4.5 1-1.3 3-1.4l-.9 1.3c1.9-.5.5-.7 2.4-1.1-.5.4.8.4-.3.8 2.5.2 1.9.1 4.1.3l.2-1.3c.7-.1 1 .5 1.2.7-.3 0-.8-.1-.7.1.8 1.2 1.4-.6 2.4.5-.2-.4-.5-1 .4-1.1-.3.8 1.4.8 1.4 1.2-.6-.6 2-.2 2.1-1 1 .7-.4.6-.4 1.1.9-1 3.7 0 4.6-.6 0 .1.1.1.1.2 1.2-.6 3-.7 5.3-1.5l-.8.7c2.2.4 1.4-1.5 3.3-1.5-.4 1.1 3.1 0 2.2 1.2 1.1-.6 2.3-.8 3.1-1.7 1 .6-2.1 1.4-.6 1.8l1.6-.5.3.6c.1-.4 1.5-.4 1.4-.8.2.7.9 1.2.8 1.8 1-.2 2.4.5 3.3-.1l.1.3c1-1.3 3.1-.2 3.6-1.5l.6.7c1.5-.1 1.3-1.5 2-1.8.6 0 1.4-.2 2 0-2 .8 1 1.1 1.4 1.6.8 0 3.1 0 3.7-.7-1 .7-.4 1.2-2.1 1.3.9 1.3 2.6-.2 4.5-.1v.6c2.7-.4 2.8-1.5 4-2.5.3.8.1 1-.7 1.7 1.8.5 4.7-.1 6.7 0 .6.5.2.9-.5 1.1 2.1-.6 4.7.1 6-1.2-.5.5.9.3 1.6.6 0-.3.1-.6.2-.6 1.3-.6 4.1-1.1 5.6-.7l-.5.4c1.7.1 3-.5 4.3-.9 1.3-.4 2.6-.8 4.5-.4.7.3-.7 1.1.7 1 .7-.5.4-1.5 2.2-1.3l-.1.9 1.2-.9c-.7-.7-2.6-.4-1.3-1.2 1.6.8 1.3-.9 3.3 0-.4.1-1 .8-1.3 1.2 2 .4 3.4.1 4.8-.1 1.4-.3 2.8-.6 4.9-.2 2-.8 4.6-1.2 5.9-1.9 0 .9 0 1.7-.8 2.4 1.8 0 2.4-2.1 3.7-.9.7-1.3 4.7-1.2 5-3l2-.8z"/>
  <path class="st0" d="M58.1 11.1c-1 0-1.9 0-2.3.2.2.2 2.3.6 2.3-.2zM208.2 13.3c-.1 0-.3.1-.4.1.1 0 .3 0 .4-.1zM216.3 12.9c-.1-.1-.2-.2-.4-.3 0 .3.1.5.4.3zM132.6 11.5zM178.5 13.7c.7-.4 1-.7 1-1-.4.1-.7.3-1 1zM163 12.6c-.1.1-.2.1-.3.2.3-.1.3-.2.3-.2zM130.2 12c.7-.4 1.6-.3 2.4-.5-.7.2-1.9-.3-2.4.5zM226.1 11.4l-.7.6.8-.4zM218.6 12c-.3-.1-1.7.3-1.3.6.4-.3.9-.5 1.3-.6zM189.6 11.4l-.3.6.7-.5z"/>
</svg>
