<svg xmlns="http://www.w3.org/2000/svg" viewBox="0 0 315 10" width="315" height="10" preserveAspectRatio="none" style="width: 100%; height: 100%; transform: translate3d(0px, 0px, 0px); content-visibility: visible;"><defs><clipPath id="__lottie_element_142"><rect width="315" height="10" x="0" y="0"></rect></clipPath><mask id="__lottie_element_143" mask-type="alpha"><g transform="matrix(1,0,0,1,157.5,6.666999816894531)" opacity="1" style="display: block;"><g opacity="1" transform="matrix(1,0,0,1,0,0)"><path stroke-linecap="round" stroke-linejoin="miter" fill-opacity="0" stroke-miterlimit="4" stroke="rgb(123,93,214)" stroke-opacity="1" stroke-width="89" d=" M-211,-1.5 C-211,-1.5 164,-1.5 164,-1.5"></path></g></g></mask></defs><g clip-path="url(#__lottie_element_142)"><g mask="url(#__lottie_element_143)" style="display: block;"><g transform="matrix(1,0,0,1,157.33700561523438,4.8470001220703125)" opacity="1"><g opacity="1" transform="matrix(1,0,0,1,0,0)"><path fill="rgb(123,93,214)" fill-opacity="1" d=" M6.163000106811523,0.46299999952316284 C53.08300018310547,-1.5069999694824219 101.83300018310547,2.243000030517578 147.42300415039062,3.6530001163482666 C153.0229949951172,3.0329999923706055 154.0030059814453,3.1029999256134033 156.73300170898438,2.132999897003174 C158.572998046875,0.24300000071525574 137.47300720214844,1.7929999828338623 141.33299255371094,0.13300000131130219 C102.01300048828125,-1.406999945640564 60.553001403808594,-4.13700008392334 22.55299949645996,-3.6070001125335693 C61.733001708984375,-4.617000102996826 105.16300201416016,-0.5370000004768372 142.16299438476562,-0.34700000286102295 C42.362998962402344,-9.256999969482422 -48.1870002746582,0.0430000014603138 -152.13699340820312,-3.566999912261963 C-166.83700561523438,-3.2170000076293945 -143.0570068359375,-0.22699999809265137 -136.20700073242188,0.05299999937415123 C-136.20700073242188,0.05299999937415123 -136.20700073242188,0.5830000042915344 -136.20700073242188,0.5830000042915344 C-143.427001953125,0.652999997138977 -150.6269989013672,-1.347000002861023 -150.03700256347656,1.652999997138977 C-71.5469970703125,7.422999858856201 5.433000087738037,-1.1369999647140503 81.75299835205078,1.9429999589920044 C45.93299865722656,0.4429999887943268 -8.557000160217285,1.4930000305175781 -34.49700164794922,2.7230000495910645 C-37.05699920654297,2.7829999923706055 -37.22700119018555,2.7230000495910645 -36.957000732421875,2.6429998874664307 C-36.957000732421875,2.6429998874664307 -37.24700164794922,2.6429998874664307 -37.24700164794922,2.6429998874664307 C-36.33700180053711,2.6029999256134033 -36.24700164794922,2.372999906539917 -37.24700164794922,2.372999906539917 C3.933000087738037,0.6930000185966492 42.37300109863281,0.46299999952316284 83.43299865722656,1.4630000591278076 C83.43299865722656,1.4630000591278076 83.43299865722656,1.9930000305175781 83.43299865722656,1.9930000305175781 C102.09300231933594,2.4130001068115234 125.60299682617188,5.263000011444092 143.30299377441406,4.043000221252441 C98.66300201416016,1.7330000400543213 50.393001556396484,-1.0570000410079956 6.163000106811523,0.46299999952316284z"></path></g></g></g></g></svg>