<svg viewBox="284.135 117.966 234.4 117.966" xmlns="http://www.w3.org/2000/svg">
  <defs>
    <clipPath id="clippath0" transform="">
      <path d="M 0 353.888 L 1000 353.888 L 1000 0 L 0 0 Z" style="fill: none; clip-rule: nonzero;"/>
    </clipPath>
  </defs>
  <g style="clip-path: url(#clippath0);" transform="matrix(1, 0, 0, -1, 0, 353.888011)">
    <g transform="translate(485.1294 235.9222)">
      <path d="M 0 0 L -37.271 0 C -39.02 0 -40.551 -1.175 -41.004 -2.865 L -61.104 -77.887 C -61.664 -79.976 -64.708 -79.709 -64.896 -77.555 L -71.374 -3.529 C -71.548 -1.532 -73.22 0 -75.224 0 L -109.991 0 C -111.74 0 -113.271 -1.175 -113.725 -2.865 L -129.35 -61.179 C -129.862 -63.089 -132.572 -63.089 -133.083 -61.179 L -148.708 -2.865 C -149.161 -1.175 -150.692 0 -152.442 0 L -187.217 0 C -189.218 0 -190.888 -1.527 -191.067 -3.52 L -200.979 -113.755 C -201.182 -116.017 -199.4 -117.966 -197.128 -117.966 L -185.853 -117.966 C -184.249 -117.966 -182.811 -116.976 -182.24 -115.477 L -167.527 -76.83 C -166.59 -74.369 -163.52 -73.545 -161.477 -75.206 L -134.353 -97.249 C -132.644 -98.638 -130.122 -98.32 -128.81 -96.552 L -99.991 -57.687 C -98.422 -55.572 -95.245 -55.61 -93.727 -57.761 L -67.294 -95.22 C -65.734 -97.431 -62.444 -97.396 -60.931 -95.152 L -22.687 -38.44 C -20.96 -35.881 -17.077 -36.278 -15.905 -39.135 L 15.45 -115.567 C 16.045 -117.019 17.458 -117.966 19.026 -117.966 L 29.537 -117.966 C 32.079 -117.966 33.929 -115.556 33.271 -113.101 L 3.734 -2.865 C 3.281 -1.175 1.75 0 0 0" style="fill: rgb(255, 90, 106); fill-opacity: 1;"/>
    </g>
  </g>
</svg>
