<?xml version="1.0" encoding="UTF-8" standalone="no"?>
<!-- Created with Inkscape (http://www.inkscape.org/) -->

<svg
   version="1.1"
   width="826.66669"
   height="826.66669"
   viewBox="0 0 826.66669 826.66669"
   xmlns="http://www.w3.org/2000/svg">
    <style>
        path { fill: #000; }
        @media (prefers-color-scheme: dark) {
            path { fill: #fff; }
        }
    </style>
    <path
       d="m 404.66668,810.56828 c -2.2,-0.73019 -80.8,-39.85675 -174.66667,-86.94794 l -170.666675,-85.62032 -4,-6.56211 -4,-6.56211 V 413.43791 c 0,-237.65812 -1.073654,-214.4737 10.422867,-225.07082 6.693519,-6.16987 13.727504,-8.01379 24.441315,-6.40716 8.479998,1.27165 19.503303,11.46158 21.658643,20.02121 1.04727,4.15909 1.47718,62.73672 1.47718,201.27674 v 195.41036 l 151.33333,75.66315 151.33334,75.66315 151.33334,-75.66315 151.33334,-75.66315 V 418.66745 238.66667 l -69.66667,-0.15885 c -38.31667,-0.0873 -102.66667,-0.54631 -143.00001,-1.01987 l -73.33333,-0.86101 -169.33334,-84.8559 C 71.388694,57.588716 80.154557,62.58472 77.14559,47.935193 75.030277,37.636522 77.20175,30.669584 85.108797,22.386117 c 4.355738,-4.563095 7.825772,-6.891394 11.557872,-7.755014 5.944501,-1.375579 105.407841,-1.428499 237.333341,-0.12628 l 86.66667,0.855479 168.66667,84.443545 c 123.99947,62.080763 170.0199,85.734913 173.77656,89.319843 10.47367,9.99488 9.51013,-11.1877 9.95611,218.87632 0.21964,113.3 0.0177,209.2197 -0.44861,213.15487 -1.75388,14.79865 8.20173,9.09993 -182.33138,104.3688 -122.39012,61.19654 -171.99895,85.37592 -176.02011,85.79235 -3.07959,0.31892 -7.39924,-0.0176 -9.59924,-0.74776 z M 511.90447,126.71058 405.8089,73.567813 l -87.23777,-0.821702 -87.23779,-0.821702 105.33334,53.037801 105.33333,53.0378 27.33334,0.71982 c 15.03333,0.39591 54.63333,0.81291 88,0.92667 l 60.66667,0.20684 z M 405.0811,557.95946 c -4.5638,-1.45467 -10.1403,-5.49902 -20.6497,-14.97614 -37.44451,-33.76659 -81.63044,-78.30035 -93.12727,-93.86037 -7.40107,-10.01674 -17.03084,-28.9349 -20.5148,-40.30229 -8.36827,-27.30382 -4.78862,-54.57312 10.12648,-77.14221 9.07405,-13.73059 22.60092,-23.51621 41.08335,-29.72056 29.53437,-9.91436 61.98893,-2.2892 86.05036,20.21745 l 6.54768,6.12459 9.022,-8.26704 c 14.36673,-13.16449 37.97687,-22.69955 56.20731,-22.69955 13.76997,0 35.67162,6.44214 47.50684,13.97363 19.94316,12.69107 35.27313,41.94993 35.29267,67.35971 0.0183,23.73984 -12.23,55.28905 -29.63651,76.3382 -19.11375,23.11365 -94.7601,95.77648 -105.31466,101.16103 -6.8787,3.50925 -15.1508,4.16591 -22.59375,1.79355 z"
       id="path1058" />
</svg>
