<svg width="256" height="256" viewBox="0 0 256 256" fill="none" xmlns="http://www.w3.org/2000/svg">
<path fill-rule="evenodd" clip-rule="evenodd" d="M169.865 18C169.123 18 168.42 18.1408 167.699 18.2269H83.7302C83.5618 18.2269 83.5344 18.4385 83.4209 18.5536C77.7376 19.1417 72.7598 22.2877 69.6362 27.0774C69.5243 27.1515 69.3368 27.2295 69.2317 27.3035L5.80899 114.451C5.8067 114.454 5.83489 114.67 5.83261 114.678C2.24208 118.451 0 123.614 0 129.311C0 134.03 1.57775 138.317 4.14285 141.807C4.14285 141.809 4.0941 141.856 4.09486 141.858L70.2556 230.036L72.4223 232.927C72.4284 232.935 72.4847 232.873 72.4931 232.877C75.3142 235.851 79.0487 237.842 83.2068 238.51L171.651 238.384C177.73 238.082 183.069 234.788 186.364 229.735C186.476 229.66 186.663 229.583 186.768 229.508L249.572 143.19L250.191 142.361C250.191 142.361 250.192 142.34 250.191 142.336L251.691 140.298L251.644 140.273C254.325 136.732 256 132.334 256 127.501C256 122.782 254.423 118.494 251.858 115.004C251.857 115.003 251.907 114.955 251.905 114.954L185.745 26.7757L183.578 23.884C183.572 23.8759 183.516 23.9387 183.507 23.9339C180.035 20.2738 175.201 18 169.865 18ZM92.4677 62.6301H163.938L212.099 127.274L163.413 194.357H92.2056L70.3272 164.99L63.9705 156.466L43.9007 129.537L92.4677 62.6301Z" fill="#FF5733"/>
<path fill-rule="evenodd" clip-rule="evenodd" d="M167.902 19.8499C167.835 19.858 167.767 19.8621 167.699 19.8621H84.4255C84.1852 20.0378 83.8994 20.1483 83.5975 20.1796C78.4521 20.7121 73.9159 23.5599 71.0495 27.9555C70.9265 28.1441 70.7652 28.306 70.5756 28.4314C70.502 28.48 70.4324 28.52 70.3804 28.5486L7.47904 114.98C7.47191 115.017 7.46167 115.063 7.44692 115.115C7.37527 115.367 7.24261 115.599 7.06009 115.79C3.74968 119.27 1.67522 124.037 1.67522 129.311C1.67522 133.665 3.12925 137.623 5.50395 140.854C5.5955 140.978 5.66809 141.114 5.72032 141.257L71.6071 229.07L71.6077 229.071L73.4594 231.542C73.5547 231.607 73.6429 231.683 73.7223 231.767C76.2636 234.445 79.6133 236.246 83.3457 236.874L171.606 236.749C177.076 236.464 181.926 233.495 184.951 228.857C185.072 228.67 185.231 228.51 185.417 228.385C185.494 228.334 185.566 228.293 185.619 228.264L248.207 142.243L248.218 142.228L248.717 141.559C248.751 141.498 248.789 141.438 248.831 141.381L250.082 139.682C250.135 139.548 250.207 139.42 250.296 139.302C252.782 136.018 254.325 131.957 254.325 127.501C254.325 123.147 252.871 119.188 250.497 115.958C250.435 115.874 250.382 115.784 250.337 115.69C250.316 115.645 250.297 115.6 250.281 115.557L184.394 27.7418L184.393 27.741L182.542 25.2706C182.446 25.2046 182.358 25.129 182.278 25.0448C179.097 21.692 174.698 19.6351 169.865 19.6351C169.457 19.6351 169.116 19.6838 168.664 19.7482C168.443 19.7796 168.196 19.8148 167.902 19.8499ZM251.905 114.954C251.907 114.955 251.857 115.003 251.858 115.004C254.423 118.494 256 122.782 256 127.501C256 131.735 254.714 135.636 252.592 138.92C252.365 139.27 252.129 139.614 251.884 139.95C251.806 140.057 251.727 140.163 251.648 140.268C251.647 140.27 251.645 140.272 251.644 140.273L251.691 140.298L250.191 142.336C250.192 142.34 250.191 142.361 250.191 142.361L249.572 143.19L186.768 229.508C186.713 229.547 186.636 229.587 186.558 229.627C186.488 229.663 186.417 229.699 186.364 229.735C183.069 234.788 177.73 238.082 171.651 238.384L83.2068 238.51C79.0487 237.842 75.3142 235.851 72.4931 232.877C72.4929 232.877 72.4927 232.877 72.4924 232.877C72.4922 232.877 72.492 232.877 72.4917 232.877C72.4871 232.878 72.4762 232.887 72.4644 232.897C72.4637 232.898 72.4631 232.898 72.4624 232.899C72.4609 232.9 72.4594 232.901 72.4579 232.903C72.4417 232.917 72.4254 232.931 72.4223 232.927L4.09486 141.858C4.09444 141.857 4.10894 141.842 4.12211 141.829C4.13293 141.818 4.14285 141.808 4.14285 141.807C1.57775 138.317 0 134.03 0 129.311C0 123.614 2.24208 118.451 5.83261 114.678C5.83381 114.673 5.82663 114.612 5.81986 114.554C5.81372 114.502 5.8079 114.452 5.80899 114.451L69.2317 27.3035C69.2868 27.2647 69.3645 27.2248 69.4421 27.185C69.5126 27.1488 69.583 27.1127 69.6362 27.0774C72.7598 22.2877 77.7376 19.1417 83.4209 18.5536C83.4607 18.5132 83.4899 18.461 83.5183 18.4102C83.571 18.3161 83.6209 18.2269 83.7302 18.2269H167.699C167.901 18.2027 168.102 18.1742 168.303 18.1457C168.818 18.0728 169.331 18 169.865 18C175.201 18 180.035 20.2738 183.507 23.9339C183.507 23.9341 183.508 23.9342 183.508 23.9341C183.509 23.9341 183.509 23.9341 183.509 23.934C183.514 23.9329 183.525 23.9246 183.536 23.915C183.536 23.9144 183.537 23.9138 183.538 23.9131C183.54 23.9115 183.541 23.9098 183.543 23.9082C183.559 23.8939 183.575 23.8799 183.578 23.884L251.905 114.954ZM70.15 28.6697C70.1498 28.6698 70.1501 28.6696 70.15 28.6697C70.1467 28.6715 70.1466 28.6716 70.15 28.6697ZM185.848 228.143C185.848 228.143 185.848 228.143 185.847 228.143C185.851 228.142 185.851 228.141 185.848 228.143ZM250.533 115.893C250.54 115.901 250.546 115.91 250.552 115.919C250.587 115.965 250.626 116.011 250.669 116.057C250.628 116.013 250.589 115.967 250.554 115.92L250.552 115.919L250.533 115.893ZM91.1008 61.6847C91.4148 61.2521 91.9244 60.9949 92.4677 60.9949H163.938C164.474 60.9949 164.977 61.2453 165.292 61.6684L213.454 126.313C213.877 126.88 213.882 127.647 213.466 128.22L164.78 195.303C164.466 195.735 163.957 195.993 163.413 195.993H92.2056C91.6696 195.993 91.1659 195.742 90.8507 195.319L68.9728 165.952L68.9723 165.951L62.6161 157.428L42.546 130.499C42.1232 129.931 42.1183 129.164 42.5338 128.592L91.1008 61.6847ZM92.2056 194.357H163.413L212.099 127.274L163.938 62.6301H92.4677L43.9007 129.537L92.2056 194.357Z" fill="#FFFEFF"/>
<path d="M165.567 40.9663H85.3089L23.6825 124.425L81.726 212.477H177.032L236.509 124.425L165.567 40.9663Z" fill="#FF5733"/>
<path fill-rule="evenodd" clip-rule="evenodd" d="M122.937 101.829C122.148 101.829 121.508 102.451 121.508 103.235V109.92C118.012 110.413 115.318 113.253 114.757 116.982H108.167C107.424 116.982 106.836 117.658 106.836 118.491C106.836 119.324 107.424 119.999 108.167 119.999H114.497V124.696H108.167C107.424 124.696 106.803 125.372 106.803 126.204C106.803 127.037 107.424 127.713 108.167 127.713H114.497V132.17H108.167C107.424 132.17 106.836 132.846 106.836 133.678C106.836 134.51 107.424 135.187 108.167 135.187H114.723C115.252 138.962 117.983 141.853 121.508 142.352V149.619C121.508 150.404 122.148 151.025 122.937 151.025C123.724 151.025 124.365 150.404 124.365 149.619V142.557H128.812V149.619C128.812 150.404 129.452 151.059 130.24 151.059C131.028 151.059 131.668 150.404 131.668 149.619V142.557H135.888V149.619C135.888 150.404 136.528 151.059 137.316 151.059C138.104 151.059 138.744 150.404 138.744 149.619V142.386C142.362 141.974 145.152 139.031 145.691 135.187H152.086C152.828 135.187 153.416 134.51 153.416 133.678C153.416 132.846 152.828 132.17 152.086 132.17H145.919V127.713H152.086C152.828 127.713 153.416 127.037 153.416 126.204C153.416 125.372 152.828 124.696 152.086 124.696H145.919V119.999H152.086C152.828 119.999 153.449 119.324 153.449 118.491C153.449 117.658 152.828 116.982 152.086 116.982H145.659C145.086 113.183 142.332 110.294 138.744 109.886V103.235C138.744 102.451 138.104 101.829 137.316 101.829C136.528 101.829 135.888 102.451 135.888 103.235V109.715H131.668V103.235C131.668 102.451 131.028 101.829 130.24 101.829C129.452 101.829 128.812 102.451 128.812 103.235V109.715H124.365V103.235C124.365 102.451 123.724 101.829 122.937 101.829Z" fill="white"/>
<path fill-rule="evenodd" clip-rule="evenodd" d="M121.508 103.236C121.508 102.451 122.148 101.829 122.937 101.829C123.725 101.829 124.366 102.451 124.366 103.236V109.715H128.812V103.236C128.812 102.451 129.452 101.829 130.24 101.829C131.029 101.829 131.669 102.451 131.669 103.236V109.715H135.888V103.236C135.888 102.451 136.529 101.829 137.316 101.829C138.105 101.829 138.745 102.451 138.745 103.236V109.886C142.333 110.294 145.086 113.184 145.66 116.983H152.086C152.829 116.983 153.45 117.658 153.45 118.491C153.45 119.324 152.829 120 152.086 120H145.919V124.696H152.086C152.829 124.696 153.417 125.372 153.417 126.205C153.417 127.037 152.829 127.713 152.086 127.713H145.919V132.17H152.086C152.829 132.17 153.417 132.846 153.417 133.679C153.417 134.51 152.829 135.188 152.086 135.188H145.692C145.153 139.031 142.363 141.975 138.745 142.386V149.62C138.745 150.404 138.105 151.06 137.316 151.06C136.529 151.06 135.888 150.404 135.888 149.62V142.557H131.669V149.62C131.669 150.404 131.029 151.06 130.24 151.06C129.452 151.06 128.812 150.404 128.812 149.62V142.557H124.366V149.62C124.366 150.404 123.725 151.026 122.937 151.026C122.148 151.026 121.508 150.404 121.508 149.62V142.352C117.983 141.854 115.252 138.962 114.723 135.188H108.167C107.424 135.188 106.836 134.51 106.836 133.679C106.836 132.846 107.424 132.17 108.167 132.17H114.497V127.713H108.167C107.424 127.713 106.803 127.037 106.803 126.205C106.803 125.372 107.424 124.696 108.167 124.696H114.497V120H108.167C107.424 120 106.836 119.324 106.836 118.491C106.836 117.659 107.424 116.983 108.167 116.983H114.757C115.319 113.253 118.012 110.414 121.508 109.92V103.236ZM114.498 120V124.696L108.167 124.697C107.425 124.697 106.804 125.372 106.804 126.205C106.804 127.037 107.425 127.713 108.167 127.713H114.497L114.498 132.17L108.167 132.171C107.425 132.171 106.837 132.846 106.837 133.679C106.837 134.51 107.425 135.187 108.167 135.187H114.727H114.724C115.252 138.962 117.983 141.854 121.509 142.352L121.509 149.62C121.509 150.404 122.149 151.025 122.937 151.025C123.724 151.025 124.365 150.404 124.365 149.62V142.557L128.812 142.557L128.812 149.62C128.812 150.404 129.452 151.059 130.24 151.059C131.029 151.059 131.668 150.404 131.668 149.62V142.557L135.888 142.557L135.888 149.62C135.888 150.404 136.529 151.059 137.316 151.059C138.104 151.059 138.744 150.404 138.744 149.62V142.383V142.386C142.362 141.975 145.152 139.031 145.691 135.187L152.086 135.187C152.828 135.187 153.416 134.51 153.416 133.679C153.416 132.846 152.828 132.171 152.086 132.171H145.919L145.919 127.713L152.086 127.713C152.828 127.713 153.416 127.037 153.416 126.205C153.416 125.372 152.828 124.697 152.086 124.697H145.919L145.919 120L152.086 119.999C152.828 119.999 153.449 119.324 153.449 118.491C153.449 117.659 152.828 116.983 152.086 116.983H145.657H145.659C145.086 113.184 142.332 110.295 138.744 109.887L138.744 103.236C138.744 102.452 138.104 101.83 137.316 101.83C136.529 101.83 135.888 102.452 135.888 103.236V109.715L131.669 109.715L131.668 103.236C131.668 102.452 131.029 101.83 130.24 101.83C129.452 101.83 128.812 102.452 128.812 103.236V109.715L124.365 109.715L124.365 103.236C124.365 102.452 123.724 101.83 122.937 101.83C122.149 101.83 121.509 102.452 121.509 103.236V109.923V109.92C118.013 110.414 115.319 113.253 114.757 116.983L108.167 116.983C107.425 116.983 106.837 117.659 106.837 118.491C106.837 119.324 107.425 119.999 108.167 119.999L114.498 120Z" fill="#000002"/>
<path fill-rule="evenodd" clip-rule="evenodd" d="M110.149 40.9663C107.003 40.9663 104.436 43.4741 104.436 46.5546C104.436 49.419 106.693 51.6921 109.532 52.0058L112.811 65.6497C113.297 68.8915 112.533 71.023 111.837 72.6433C110.834 74.2154 109.557 74.9691 108.331 75.2148C107.04 75.1007 104.986 74.9899 103.299 72.6785L101.482 69.4213C102.223 68.4801 102.713 67.3424 102.716 66.0611C102.716 62.9817 100.182 60.5079 97.0348 60.5079C93.8885 60.5079 91.3218 62.9817 91.3218 66.0611C91.3218 69.1416 93.8843 71.6494 97.0348 71.6494C97.3714 71.6494 97.6591 71.5024 97.9759 71.4443L100.443 75.8664C100.967 77.8641 100.549 79.5152 99.9236 80.7C99.0624 81.3231 98.2844 82.0559 97.4565 82.7229C95.9608 83.1211 93.3857 83.7092 90.9977 81.797L80.5449 70.5184C80.898 69.7921 81.1296 68.9715 81.1296 68.118C81.1296 65.0387 78.5671 62.5648 75.4166 62.5648C72.2692 62.5648 69.7357 65.0387 69.7357 68.118C69.7357 71.1985 72.2661 73.7064 75.4166 73.7064C76.1458 73.7064 76.8449 73.5319 77.4941 73.295L87.816 84.4025C88.6709 86.4573 88.7093 88.4243 88.5307 90.196C88.5265 90.2366 88.5016 90.2596 88.4974 90.2991C88.4278 92.6852 87.2738 93.6879 86.1281 94.1727C84.9823 94.4295 83.767 94.5962 82.4603 94.379L79.0522 92.322C79.0667 92.1553 79.1529 92.0127 79.1488 91.8415C79.1488 88.7621 76.6184 86.2543 73.469 86.2543C70.3216 86.2543 67.7559 88.7621 67.7559 91.8415C67.7559 94.922 70.3185 97.3958 73.469 97.3958C74.8764 97.3958 76.1094 96.8528 77.1045 96.0245L80.4804 98.0815C81.3042 99.1039 81.6168 100.294 81.7134 101.476C81.6189 102.537 81.4548 104.222 80.7723 105.624C79.2402 106.633 77.2043 107.87 74.5399 108.058L60.7766 104.355C60.5149 101.512 58.133 99.2816 55.1612 99.2816C52.0138 99.2816 49.4803 101.754 49.4803 104.835C49.4803 107.915 52.0107 110.423 55.1612 110.423C56.9343 110.423 58.4654 109.61 59.5104 108.366L73.4035 112.103C75.6846 113.288 77.0672 115.166 78.0778 116.697C78.3521 118.116 78.6305 120.441 76.3577 122.799C75.7189 123.18 75.1715 123.637 74.4101 123.896L69.8334 123.828C68.9681 121.826 66.927 120.403 64.5743 120.4C61.4279 120.4 58.8612 122.908 58.8612 125.987C58.8612 129.067 61.4238 131.575 64.5743 131.575C66.9727 131.575 69.0252 130.102 69.8656 128.044L73.7931 128.079C75.7012 129.21 76.9093 130.782 77.8504 132.227C78.1412 133.236 78.1661 134.408 78.0134 135.621C77.0162 137.055 75.7355 138.692 73.6954 139.837L59.9321 143.334C58.8872 142.096 57.3872 141.247 55.6151 141.243C52.4688 141.243 49.9343 143.751 49.9343 146.831C49.9343 149.911 52.4646 152.419 55.6151 152.419C58.561 152.419 60.8971 150.187 61.1984 147.379L76.4875 143.472C77.9947 143.926 79.127 144.701 80.1553 145.494C80.3163 145.725 80.3693 146.007 80.4472 146.282C80.496 146.588 80.5012 147.051 80.5449 147.414C80.5241 148.506 80.2945 149.616 79.8956 150.705C80.2644 155.984 83.4853 159.001 85.358 159.001C87.2307 159.001 89.0934 160.036 89.7314 162.121C90.2768 163.903 89.3824 165.213 88.6605 166.784L77.2344 178.269C77.1596 178.343 77.2001 178.459 77.1367 178.543C76.6267 178.396 76.1011 178.233 75.5464 178.233C72.3991 178.233 69.8656 180.741 69.8656 183.822C69.8656 186.902 72.3959 189.376 75.5464 189.376C78.6928 189.376 81.2595 186.902 81.2595 183.822C81.2595 182.766 80.871 181.819 80.3506 180.976L91.8733 169.389C92.5298 169.025 93.1884 168.807 93.8542 168.6C95.2419 168.386 96.8374 168.528 98.301 169.457C99.3408 171.038 100.258 172.985 100.379 175.389L97.8139 180.565C97.6227 180.546 97.4555 180.459 97.2623 180.463C94.1149 180.463 91.5492 182.97 91.5492 186.05C91.5492 189.13 94.1118 191.638 97.2623 191.638C100.409 191.638 102.943 189.13 102.943 186.05C102.943 184.613 102.358 183.337 101.449 182.347L103.819 177.583C107.081 174.969 110.196 176.805 111.253 176.897C111.451 176.981 111.642 177.078 111.837 177.171C113.049 178.549 113.589 180.037 113.655 181.353L109.435 199.695C106.541 199.961 104.244 202.278 104.242 205.18C104.242 208.261 106.807 210.733 109.955 210.733C113.101 210.733 115.634 208.261 115.634 205.18C115.634 203.351 114.683 201.809 113.297 200.792L117.42 182.896C118.794 181.077 120.436 180.432 121.835 180.29C123.122 180.515 124.449 180.605 125.762 180.737C127.187 182.016 127.807 183.519 128.067 184.782L128.099 189.889C125.881 190.652 124.269 192.631 124.269 195.066C124.269 198.147 126.835 200.655 129.983 200.655C133.129 200.655 135.663 198.147 135.663 195.066C135.663 192.734 134.204 190.791 132.124 189.959L132.06 183.959C132.397 182.868 132.937 182.099 133.52 181.457C134.035 181.082 134.545 180.811 135.046 180.634C135.928 180.532 136.802 180.386 137.675 180.256C138.247 180.33 138.709 180.387 139.169 180.531C141.781 181.922 142.564 184.523 143.097 185.262L146.147 200.895C144.932 201.917 144.1 203.382 144.103 205.077C144.103 208.157 146.669 210.665 149.816 210.665C152.963 210.665 155.496 208.157 155.496 205.077C155.496 202.053 153.048 199.644 149.978 199.558L146.57 181.971C146.81 179.945 147.669 178.7 148.485 177.788C149.231 177.05 150.002 176.574 150.757 176.314C150.886 176.254 151.016 176.205 151.147 176.142C151.993 175.921 152.789 175.919 153.516 176.005C154.215 176.388 154.944 176.777 155.432 177.24L158.126 181.765C157.262 182.742 156.663 183.973 156.665 185.364C156.665 188.445 159.231 190.953 162.378 190.953C165.525 190.953 168.059 188.445 168.059 185.364C168.059 182.284 165.525 179.811 162.378 179.811C162.151 179.811 161.947 179.889 161.728 179.914L159.132 175.457C158.778 174.54 158.666 173.773 158.71 173.092C158.712 173.052 158.737 173.028 158.742 172.988C160.321 169.289 163.544 168.835 165.072 168.463H165.104C166.03 168.545 166.858 168.765 167.507 169.081L179.582 181.285C179.236 182.004 178.997 182.769 178.997 183.617C178.997 186.696 181.564 189.204 184.711 189.204C187.858 189.204 190.391 186.697 190.391 183.617C190.391 180.536 187.858 178.062 184.711 178.062C183.96 178.062 183.228 178.215 182.569 178.474L170.947 166.715C169.543 164.052 170.228 161.647 170.753 160.201C171.342 159.418 171.947 158.644 172.505 157.836C174.463 156.779 176.425 157.052 177.569 157.219L181.043 159.687C180.977 160.025 180.812 160.329 180.815 160.681C180.815 163.761 183.382 166.269 186.528 166.269C189.676 166.269 192.209 163.761 192.209 160.681C192.209 157.601 189.676 155.128 186.528 155.128C185.31 155.128 184.241 155.584 183.316 156.225L179.387 153.448C177.782 151.318 177.81 149.16 178.089 147.619C178.302 147.052 178.553 146.507 178.771 145.94C181.042 143.758 183.674 144.057 184.744 143.951L199.026 147.585C199.164 150.545 201.581 152.937 204.642 152.933C207.788 152.933 210.355 150.426 210.355 147.345C210.355 144.265 207.788 141.757 204.642 141.757C202.98 141.757 201.529 142.497 200.487 143.609L185.49 139.803C182.912 138.465 182.205 136.227 181.919 134.592C182.088 133.226 182.355 131.896 182.471 130.512C183.834 128.897 185.506 128.335 186.691 128.079H190.553C191.49 129.903 193.392 131.201 195.617 131.198C198.765 131.198 201.298 128.691 201.298 125.611C201.298 122.53 198.765 120.022 195.617 120.022C193.107 120.022 191.021 121.655 190.262 123.862L186.366 123.828C184.727 123.449 183.633 122.599 182.861 121.634V121.599C182.252 120.4 182.016 119.307 182.049 118.308C182.075 117.532 182.335 116.968 182.536 116.354L182.569 116.388C182.858 114.601 183.636 113.668 184.386 113.063C186.087 112.098 187.85 111.899 188.184 111.52L200.325 108.434C201.369 109.608 202.862 110.389 204.576 110.389C207.724 110.389 210.257 107.881 210.257 104.801C210.257 101.72 207.724 99.2466 204.576 99.2466C201.566 99.2466 199.137 101.528 198.929 104.423L185.815 107.749C182.285 107.728 180.079 106.24 178.706 105.041C178.669 104.951 178.644 104.855 178.608 104.767C177.507 102.068 178.237 99.9322 178.997 98.4929L183.186 96.0926C184.112 96.7321 185.179 97.1556 186.398 97.1556C189.546 97.1556 192.112 94.6828 192.112 91.6024C192.112 88.5219 189.546 86.014 186.398 86.014C183.252 86.014 180.719 88.5219 180.719 91.6024C180.719 91.9567 180.849 92.2606 180.913 92.5963L177.375 94.6532C175.278 95.0021 173.658 94.3724 172.539 93.5222C172.146 93.0186 171.779 92.4932 171.402 91.9787C169.67 88.0798 171.955 85.2823 172.343 84.1623L182.796 73.5692C183.545 73.9247 184.374 74.1518 185.263 74.1518C188.409 74.1518 190.943 71.679 190.943 68.5985C190.943 65.518 188.409 63.0102 185.263 63.0102C182.116 63.0102 179.55 65.518 179.55 68.5985C179.55 69.3072 179.721 69.9556 179.972 70.5864L168.903 81.763C166.144 83.8726 163.671 82.9204 162.151 82.2776C162.084 82.2238 162.023 82.1569 161.956 82.1053C159.771 80.0879 159.642 77.7764 159.814 76.0716L162.151 71.6494C162.383 71.6779 162.596 71.7898 162.833 71.7865C165.979 71.7865 168.513 69.2787 168.513 66.1982C168.513 63.1188 165.979 60.611 162.833 60.611C159.685 60.611 157.12 63.1188 157.12 66.1982C157.12 67.5915 157.689 68.8213 158.548 69.7987L157.347 72.0608C156.946 72.7805 156.472 73.2994 155.983 73.7404C155.669 74.1353 155.299 74.233 154.944 74.4611C154.236 74.866 153.648 75.0425 152.997 75.1808C151.664 75.2192 150.815 74.8945 150.368 74.6663C148.467 73.3893 147.845 71.7514 147.543 70.3121C147.351 68.7664 147.329 67.7933 147.349 66.6096L150.887 51.9718C153.684 51.6164 155.89 49.3894 155.886 46.5546C155.886 43.4741 153.32 40.9663 150.172 40.9663C147.026 40.9663 144.493 43.4741 144.493 46.5546C144.493 48.4273 145.481 50.007 146.926 51.0119L143.161 66.5416C142.226 69.0571 140.538 69.9907 139.363 70.6215C138.706 70.8102 138.026 71.102 137.448 71.0669C137.383 71.057 137.32 71.0428 137.254 71.0329C136.811 70.989 136.475 70.7838 136.085 70.6555C134.797 70.0137 133.209 68.954 132.45 66.5416V61.7081C134.398 60.8216 135.764 58.9073 135.76 56.6682C135.76 53.5877 133.227 51.0799 130.08 51.0799C126.933 51.0799 124.367 53.5877 124.367 56.6682C124.367 59.1794 126.094 61.2111 128.424 61.9132V65.9931C127.945 68.4022 126.633 69.5475 125.373 70.3121C124.914 70.6116 124.44 70.9023 123.978 70.9638C123.847 70.9835 123.718 71.0121 123.588 71.0329C122.917 71.0417 122.287 70.8826 121.705 70.6555H121.673C120.439 69.7219 118.144 68.2497 116.706 64.5878L113.427 50.9768C114.849 49.9631 115.83 48.4086 115.83 46.5546C115.83 43.4741 113.296 40.9663 110.149 40.9663ZM129.885 89.0309C131.873 88.7325 133.273 90.8235 133.52 91.191C134.564 92.5337 136.085 93.6944 138.033 94.379C140.443 95.2314 142.755 95.0899 144.557 94.3099C144.782 94.2561 144.945 94.2967 145.206 94.1727C148.445 92.5985 149.167 95.9609 149.361 97.1896C149.579 99.0337 150.365 100.996 151.86 102.744C154.042 105.291 156.847 106.508 159.132 106.172C163.295 106.671 161.943 110.166 161.794 110.526C161.147 112.029 160.709 113.742 160.885 115.737C161.061 117.784 161.756 119.533 162.671 120.913C162.707 120.983 162.726 121.05 162.767 121.119C163.08 121.565 163.443 121.88 163.806 122.216C163.991 122.386 164.075 122.566 164.293 122.731C168.641 125.861 164.229 129.313 164.229 129.313C163.078 130.339 162.049 131.649 161.372 133.427C160.773 134.997 160.635 136.512 160.69 137.952C160.66 138.365 160.642 138.782 160.723 139.254C160.749 139.405 160.82 139.521 160.853 139.666C160.969 140.164 161.053 140.636 161.307 141.174C163.971 146.751 158.223 147.071 158.223 147.071V147.105C156.421 147.239 154.462 148.012 152.705 149.573C151.293 150.827 150.349 152.329 149.783 153.824C149.433 154.497 149.161 155.303 149.167 156.362C149.194 161.674 144.07 158.624 144.07 158.624C142.583 158.091 140.833 157.9 138.974 158.212C136.477 158.64 134.536 159.873 133.293 161.436C132.965 161.758 132.638 162.053 132.352 162.533C129.677 167.032 126.866 161.539 126.866 161.539H126.834C125.663 160.003 123.851 158.723 121.477 158.178C119.218 157.66 117.127 157.945 115.472 158.727C115.22 158.831 114.989 158.847 114.726 159.001C111.835 160.724 111.31 159.111 111.188 157.596C111.389 155.454 110.705 152.894 109.078 150.636C107.506 148.451 105.451 147.155 103.495 146.729H103.463C102.77 146.581 102.088 146.482 101.449 146.591C96.4458 147.13 98.8204 141.415 98.8204 141.415C99.9485 139.491 100.283 136.661 99.4042 133.701C98.7747 131.578 97.6695 129.91 96.3856 128.765C96.2786 128.668 96.2506 128.59 96.1259 128.49C92.3792 125.593 95.5608 122.449 96.0937 121.942C97.8502 120.717 99.2961 118.434 99.7615 115.463C100.112 113.246 99.6763 111.333 98.9825 109.668C98.9544 109.494 98.9939 109.351 98.918 109.155C97.8367 106.299 100.772 105.553 101.385 105.417C103.391 105.466 105.693 104.589 107.682 102.71C108.665 101.776 109.437 100.728 109.987 99.6579C110.697 98.2636 110.872 96.889 110.798 95.5791C110.906 95.3147 111.025 95.1217 111.09 94.7213C111.627 91.5212 115.148 92.6643 115.148 92.6643C116.571 93.5562 118.256 94.1947 120.309 94.1387C123.302 94.0576 125.77 92.7532 127.158 90.9507C127.31 90.8004 127.462 90.7675 127.613 90.5734C128.395 89.5739 129.164 89.1384 129.885 89.0309Z" fill="white"/>
</svg>
