<svg width="257" height="36" viewBox="0 0 257 36" fill="none" xmlns="http://www.w3.org/2000/svg">
<path d="M11.528 2.44C13.088 2.44 14.468 2.668 15.668 3.124C16.892 3.58 18.044 4.264 19.124 5.176L16.316 8.524C15.572 7.948 14.84 7.516 14.12 7.228C13.4 6.94 12.632 6.796 11.816 6.796C10.136 6.796 8.804 7.504 7.82 8.92C6.86 10.336 6.38 12.52 6.38 15.472C6.38 18.376 6.86 20.536 7.82 21.952C8.804 23.344 10.16 24.04 11.888 24.04C12.8 24.04 13.628 23.872 14.372 23.536C15.116 23.176 15.92 22.672 16.784 22.024L19.412 25.408C18.476 26.344 17.336 27.112 15.992 27.712C14.672 28.312 13.208 28.612 11.6 28.612C9.296 28.612 7.292 28.108 5.588 27.1C3.884 26.092 2.552 24.604 1.592 22.636C0.656 20.644 0.188 18.256 0.188 15.472C0.188 12.76 0.668 10.42 1.628 8.452C2.612 6.484 3.956 4.996 5.66 3.988C7.388 2.956 9.344 2.44 11.528 2.44ZM26.6635 28.612C25.0075 28.612 23.7115 28.144 22.7755 27.208C21.8635 26.248 21.4075 24.892 21.4075 23.14V1.288L27.0955 0.675998V22.924C27.0955 23.716 27.4195 24.112 28.0675 24.112C28.4035 24.112 28.7155 24.052 29.0035 23.932L30.1195 27.964C29.0875 28.396 27.9355 28.612 26.6635 28.612ZM48.7672 18.064C48.7672 18.856 48.7312 19.54 48.6592 20.116H36.8152C37.0072 21.724 37.4632 22.852 38.1832 23.5C38.9032 24.148 39.8992 24.472 41.1712 24.472C41.9392 24.472 42.6832 24.34 43.4032 24.076C44.1232 23.788 44.9032 23.356 45.7432 22.78L48.0832 25.948C45.8512 27.724 43.3672 28.612 40.6312 28.612C37.5352 28.612 35.1592 27.7 33.5032 25.876C31.8472 24.052 31.0192 21.604 31.0192 18.532C31.0192 16.588 31.3672 14.848 32.0632 13.312C32.7592 11.752 33.7792 10.528 35.1232 9.64C36.4672 8.728 38.0752 8.272 39.9472 8.272C42.7072 8.272 44.8672 9.136 46.4272 10.864C47.9872 12.592 48.7672 14.992 48.7672 18.064ZM43.1872 16.444C43.1392 13.516 42.1072 12.052 40.0912 12.052C39.1072 12.052 38.3392 12.412 37.7872 13.132C37.2592 13.852 36.9352 15.04 36.8152 16.696H43.1872V16.444ZM62.3305 8.344C63.0265 8.344 63.6625 8.428 64.2385 8.596L63.3385 14.104C62.6185 13.936 62.0425 13.852 61.6105 13.852C60.4825 13.852 59.6185 14.248 59.0185 15.04C58.4425 15.808 57.9865 16.972 57.6505 18.532V28H51.9625V8.884H56.9305L57.3985 12.592C57.8305 11.272 58.4785 10.24 59.3425 9.496C60.2305 8.728 61.2265 8.344 62.3305 8.344ZM76.9597 28.036C76.1917 30.508 74.9317 32.404 73.1797 33.724C71.4517 35.068 69.1237 35.824 66.1957 35.992L65.5837 31.996C67.4077 31.756 68.7517 31.348 69.6157 30.772C70.5037 30.196 71.2117 29.272 71.7397 28H69.7957L63.9637 8.884H70.0117L73.4317 24.364L77.1757 8.884H83.0437L76.9597 28.036ZM98.6216 3.196V25.012H108.81L108.414 28H95.2016V3.196H98.6216ZM113.815 23.428C114.535 23.428 115.135 23.668 115.615 24.148C116.095 24.628 116.335 25.216 116.335 25.912C116.335 26.608 116.095 27.208 115.615 27.712C115.135 28.192 114.535 28.432 113.815 28.432C113.119 28.432 112.531 28.192 112.051 27.712C111.571 27.208 111.331 26.608 111.331 25.912C111.331 25.216 111.571 24.628 112.051 24.148C112.531 23.668 113.119 23.428 113.815 23.428ZM148.695 28H144.123L134.043 6.94C134.187 8.596 134.295 10.132 134.367 11.548C134.463 12.94 134.511 14.632 134.511 16.624V28H131.307V3.196H135.771L145.959 24.292C145.887 23.668 145.791 22.576 145.671 21.016C145.551 19.456 145.491 18.028 145.491 16.732V3.196H148.695V28ZM170.029 17.956C170.029 18.508 170.005 19.072 169.957 19.648H157.861C158.005 21.736 158.533 23.272 159.445 24.256C160.357 25.24 161.533 25.732 162.973 25.732C163.885 25.732 164.725 25.6 165.493 25.336C166.261 25.072 167.065 24.652 167.905 24.076L169.345 26.056C167.329 27.64 165.121 28.432 162.721 28.432C160.081 28.432 158.017 27.568 156.529 25.84C155.065 24.112 154.333 21.736 154.333 18.712C154.333 16.744 154.645 15.004 155.269 13.492C155.917 11.956 156.829 10.756 158.005 9.892C159.205 9.028 160.609 8.596 162.217 8.596C164.737 8.596 166.669 9.424 168.013 11.08C169.357 12.736 170.029 15.028 170.029 17.956ZM166.753 16.984C166.753 15.112 166.381 13.684 165.637 12.7C164.893 11.716 163.777 11.224 162.289 11.224C159.577 11.224 158.101 13.216 157.861 17.2H166.753V16.984ZM182.774 28.108C182.03 30.316 180.986 32.056 179.642 33.328C178.322 34.624 176.426 35.404 173.954 35.668L173.594 33.076C174.842 32.86 175.838 32.548 176.582 32.14C177.326 31.732 177.914 31.204 178.346 30.556C178.802 29.932 179.222 29.08 179.606 28H178.49L172.118 9.028H175.646L180.722 25.588L185.69 9.028H189.11L182.774 28.108ZM201.141 8.596C201.813 8.596 202.437 8.668 203.013 8.812L202.401 12.052C201.825 11.908 201.273 11.836 200.745 11.836C199.569 11.836 198.621 12.268 197.901 13.132C197.181 13.996 196.617 15.34 196.209 17.164V28H192.897V9.028H195.741L196.065 12.88C196.569 11.464 197.253 10.396 198.117 9.676C198.981 8.956 199.989 8.596 201.141 8.596ZM218.298 23.572C218.298 24.34 218.43 24.916 218.694 25.3C218.958 25.66 219.354 25.936 219.882 26.128L219.126 28.432C218.142 28.312 217.35 28.036 216.75 27.604C216.15 27.172 215.706 26.5 215.418 25.588C214.146 27.484 212.262 28.432 209.766 28.432C207.894 28.432 206.418 27.904 205.338 26.848C204.258 25.792 203.718 24.412 203.718 22.708C203.718 20.692 204.438 19.144 205.878 18.064C207.342 16.984 209.406 16.444 212.07 16.444H214.986V15.04C214.986 13.696 214.662 12.736 214.014 12.16C213.366 11.584 212.37 11.296 211.026 11.296C209.634 11.296 207.93 11.632 205.914 12.304L205.086 9.892C207.438 9.028 209.622 8.596 211.638 8.596C213.87 8.596 215.538 9.148 216.642 10.252C217.746 11.332 218.298 12.88 218.298 14.896V23.572ZM210.522 25.948C212.418 25.948 213.906 24.964 214.986 22.996V18.64H212.502C208.998 18.64 207.246 19.936 207.246 22.528C207.246 23.656 207.522 24.508 208.074 25.084C208.626 25.66 209.442 25.948 210.522 25.948ZM251.007 3.196L243.087 28H239.415L231.423 3.196H235.095L241.323 24.292L247.551 3.196H251.007ZM253.702 23.428C254.422 23.428 255.022 23.668 255.502 24.148C255.982 24.628 256.222 25.216 256.222 25.912C256.222 26.608 255.982 27.208 255.502 27.712C255.022 28.192 254.422 28.432 253.702 28.432C253.006 28.432 252.418 28.192 251.938 27.712C251.458 27.208 251.218 26.608 251.218 25.912C251.218 25.216 251.458 24.628 251.938 24.148C252.418 23.668 253.006 23.428 253.702 23.428Z" fill="#262626"/>
</svg>
